<svg xmlns="http://www.w3.org/2000/svg" width="126" height="126" viewBox="0 0 126 126">
  <g id="Grupo_55668" data-name="Grupo 55668" transform="translate(-262 -5610)">
    <g id="Elipse_4293" data-name="Elipse 4293" transform="translate(262 5610)" fill="#fff" stroke="#69d1ff" stroke-width="5">
      <circle cx="63" cy="63" r="63" stroke="none"/>
      <circle cx="63" cy="63" r="60.5" fill="none"/>
    </g>
    <circle id="Elipse_4309" data-name="Elipse 4309" cx="9.5" cy="9.5" r="9.5" transform="translate(293 5641)" fill="#69d1ff"/>
    <circle id="Elipse_4299" data-name="Elipse 4299" cx="9.5" cy="9.5" r="9.5" transform="translate(285 5664)" fill="#69d1ff"/>
    <circle id="Elipse_4294" data-name="Elipse 4294" cx="9.5" cy="9.5" r="9.5" transform="translate(298 5683)" fill="#69d1ff"/>
    <circle id="Elipse_4305" data-name="Elipse 4305" cx="9.5" cy="9.5" r="9.5" transform="translate(307 5658)" fill="#69d1ff"/>
    <circle id="Elipse_4311" data-name="Elipse 4311" cx="9.5" cy="9.5" r="9.5" transform="translate(321 5641)" fill="#69d1ff"/>
    <circle id="Elipse_4306" data-name="Elipse 4306" cx="9.5" cy="9.5" r="9.5" transform="translate(324 5667)" fill="#69d1ff"/>
    <circle id="Elipse_4296" data-name="Elipse 4296" cx="9.5" cy="9.5" r="9.5" transform="translate(317 5686)" fill="#69d1ff"/>
    <circle id="Elipse_4313" data-name="Elipse 4313" cx="9.5" cy="9.5" r="9.5" transform="translate(343 5645)" fill="#69d1ff"/>
    <circle id="Elipse_4303" data-name="Elipse 4303" cx="9.5" cy="9.5" r="9.5" transform="translate(346 5666)" fill="#69d1ff"/>
    <circle id="Elipse_4298" data-name="Elipse 4298" cx="9.5" cy="9.5" r="9.5" transform="translate(340 5686)" fill="#69d1ff"/>
  </g>
</svg>
