<svg xmlns="http://www.w3.org/2000/svg" width="260" height="173.695" viewBox="0 0 260 173.695">
  <g id="Grupo_55766" data-name="Grupo 55766" transform="translate(9702 7968.5)">
    <g id="Grupo_55671" data-name="Grupo 55671" transform="translate(-9798.607 -7946.075)">
      <path id="Trazado_101263" data-name="Trazado 101263" d="M346.362,120.909a193.058,193.058,0,0,0-31.933-4.043c-4.154-.144-8.374-.01-12.553.108,1.965-.682,3.293-1.6,2.9-2.89-1.157-3.812-20.283-3.959-26.279-4.27-18.242-.947-36.622-.511-54.937-.766-19.129-.265-40.114-.94-57.265,3.531a5.715,5.715,0,0,0-3.9,3.139c-1.1,2.2-6.1,3.118-10.684,3.466-10.59.8-21.514.917-31.952,2.158-7.973.949-19.327,2.855-22.449,6.589-2.193,2.617.986,6.173,6.49,7.513,14.532,3.543,32.468,4.5,48.493,2.667a37.133,37.133,0,0,1,7.591-.021c4.083.905-9.1,2.268-8.219,4.648.994,2.682,7.223,4.465,11.236,5.422a44.515,44.515,0,0,0,5.912,1.054c31.792,3.064,64.224,1.253,93.82.169,5.9-.216,11.85-.881,17.5-1.628,6.879-.908,18.87-2.238,22.058-5.48,1.671-1.7-.922-2.836-3.425-3.966-4.308-1.944.639-2.451,4.536-2.5,14.4-.2,27.561-1.021,40.6-3.558a52.135,52.135,0,0,0,9.8-2.7C360.909,126.518,353.288,122.347,346.362,120.909Z" transform="translate(0 0.34)" fill="#94d5f6"/>
      <path id="Trazado_101264" data-name="Trazado 101264" d="M346.362,120.924a192.9,192.9,0,0,0-31.933-4.044c-4.154-.144-8.374-.01-12.553.108,1.965-.681,3.293-1.6,2.9-2.89-1.157-3.812-20.283-3.96-26.279-4.27-18.242-.946-36.622-.511-54.937-.764-19.129-.265-40.114-.94-57.265,3.531a5.706,5.706,0,0,0-3.9,3.137c-1.1,2.2-6.1,3.118-10.684,3.466-10.59.8-21.514.919-31.952,2.16-7.973.949-19.327,2.855-22.449,6.586-2.193,2.619.986,6.174,6.49,7.516,14.532,3.54,32.468,4.5,48.493,2.664a37.239,37.239,0,0,1,7.591-.02c4.083.905-9.1,2.268-8.219,4.65.994,2.68,7.223,4.462,11.236,5.419a44.267,44.267,0,0,0,5.912,1.054c31.792,3.065,64.224,1.255,93.82.171,5.9-.217,11.85-.88,17.5-1.626,6.879-.91,18.87-2.238,22.058-5.48,1.673-1.7-.923-2.839-3.431-3.971-5-2.253.261-2.479,5-2.466a203.71,203.71,0,0,0,40.147-3.593,52.133,52.133,0,0,0,9.8-2.7C360.909,126.532,353.288,122.36,346.362,120.924Z" transform="translate(0 0.347)" fill="#9fdcf7" opacity="0.7" style="mix-blend-mode: multiply;isolation: isolate"/>
      <path id="Trazado_101265" data-name="Trazado 101265" d="M339.927,120.227a177.762,177.762,0,0,0-30.648-4.041c-3.984-.145-8.037-.012-12.047.1,1.886-.68,3.158-1.6,2.786-2.887-1.112-3.812-19.468-3.96-25.222-4.272-17.506-.947-35.145-.513-52.723-.764-18.36-.265-38.5-.941-54.959,3.531a5.547,5.547,0,0,0-3.749,3.139c-1.052,2.194-5.85,3.118-10.253,3.464-10.164.8-20.649.917-30.668,2.158-7.65.949-18.548,2.857-21.544,6.588-2.106,2.619.947,6.174,6.227,7.516,13.949,3.539,31.164,4.5,46.543,2.665a34.505,34.505,0,0,1,7.285-.022c3.92.907-8.731,2.269-7.884,4.651.949,2.679,6.931,4.464,10.78,5.42a41.315,41.315,0,0,0,5.673,1.054c30.512,3.064,61.639,1.253,90.043.169,5.66-.216,11.374-.881,16.789-1.628,6.6-.907,18.113-2.238,21.172-5.48,1.605-1.7-.889-2.839-3.3-3.969-1.5-.7-5.089-2.31-.6-2.365,3.353-.045,6.2.546,9.634.268,3.635-.292,7.276-.483,10.9-.818a223.323,223.323,0,0,0,23.392-3.143,48.463,48.463,0,0,0,9.4-2.7C353.887,125.837,346.574,121.664,339.927,120.227Z" transform="translate(1.806)" fill="#94d5f6"/>
      <path id="Trazado_101266" data-name="Trazado 101266" d="M253.754,131.438c-1.121-1.141-9.691-1.53-13.208-.511C230.835,133.744,256.813,134.55,253.754,131.438Z" transform="translate(70.723 11.061)" fill="#94d5f6"/>
      <path id="Trazado_101267" data-name="Trazado 101267" d="M248.214,132.723c-1.835-.061-7.3-.441-6.932-1.385.166-.436.863-.724,1.8-.9a14.433,14.433,0,0,0-2.541.436c-8.874,2.574,12.041,3.466,13.381,1.228C252.954,132.655,249.987,132.781,248.214,132.723Z" transform="translate(70.723 11.112)" fill="#69c5f3"/>
      <path id="Trazado_101268" data-name="Trazado 101268" d="M244.6,132.717c-2.386-.156-4.524-.5-5.7-1.24a.817.817,0,0,1-.25-.222c-2.137,1.617,9.015,2.227,13.522,1.24A39.8,39.8,0,0,1,244.6,132.717Z" transform="translate(70.733 11.519)" fill="#9fdcf7" opacity="0.5" style="mix-blend-mode: multiply;isolation: isolate"/>
      <path id="Trazado_101269" data-name="Trazado 101269" d="M145.428,132.245c-10.474.247-21.83.408-31.483-1.165-7.243-1.181-10.14-3.235-5.561-5.651,2.748-1.451,7.489-1.778,11.555-2.641,1.1-.229.2-.749-.91-.719-11.076.3-22.2,4.768-14.327,8.253,8.8,3.888,28.827,3.476,40.921,2.16C146.041,132.436,145.826,132.236,145.428,132.245Z" transform="translate(2.716 6.935)" fill="#ecffff"/>
      <path id="Trazado_101270" data-name="Trazado 101270" d="M274.721,131.011c-.3-.471-2.508-.531-2.667,0-.986,3.3-18.9,4.281-26.442,4.7-12.035.673-24.482.616-36.632.589-10.426-.024-20.89.133-31.329.156l-17.02.034c-6.336.013-17.549.165-19-2.551-.1-.195-1.073-.216-1.1,0-.435,3.7,14.235,3.665,22.126,3.68,16.034.034,32.087-.132,48.1-.081,14.411.045,29.19.016,43.248-1.153C261.367,135.775,276.888,134.384,274.721,131.011Z" transform="translate(21.911 11.209)" fill="#ecffff"/>
      <path id="Trazado_101271" data-name="Trazado 101271" d="M276.278,123.363c-2.842-1.234-7.4-1.722-11.886-1.91-.363-.015-.649.163-.292.234,2.482.487,5.321,1,7.556,1.593,5.676,1.524.654,3.362-3.7,4.246-7.743,1.577-16.4,2.1-24.9,3.038-.793.087-.643.555.223.556,10.525.027,24.645-1.408,31.894-4.041C277.578,126.206,278.552,124.351,276.278,123.363Z" transform="translate(72.807 6.628)" fill="#ecffff"/>
      <path id="Trazado_101272" data-name="Trazado 101272" d="M243.186,127.806a100.131,100.131,0,0,0-10.836.556c-.586.058-.336.319.142.357,1.694.13,3.292.058,5.011.028,2.019-.031,4.023-.043,5.957-.256C244.448,128.383,244.246,127.818,243.186,127.806Z" transform="translate(67.555 9.796)" fill="#ecffff"/>
      <path id="Trazado_101273" data-name="Trazado 101273" d="M247.923,130.874c-.447-.106-1.094.09-.7.234a4.249,4.249,0,0,1,.649.255,2.11,2.11,0,0,0,.456.274,1.139,1.139,0,0,0,.824-.037C249.518,131.259,248.652,131.048,247.923,130.874Z" transform="translate(75.085 11.313)" fill="#ecffff"/>
      <path id="Trazado_101274" data-name="Trazado 101274" d="M248.149,130.771a17.641,17.641,0,0,0-6.561-.036c-.276.057-.06.2.235.187,1.046-.054,2.119-.057,3.169-.018.94.036,1.818.159,2.747.189C248.3,131.113,248.56,130.89,248.149,130.771Z" transform="translate(72.271 11.115)" fill="#ecffff"/>
    </g>
    <g id="Grupo_55753" data-name="Grupo 55753" transform="translate(-11142.469 -7665.124)">
      <path id="Trazado_101619" data-name="Trazado 101619" d="M1518.85-182.161c-3.532,5.15-43.632,9.019-59.347,1.4-3.018-1.464-2.674-5.252.56-6.331,6.61-2.208,20.178-4.956,37.268-2.888,1.26.318,18.168,2.327,18.51,2.417C1520.551-186.332,1522.774-183.882,1518.85-182.161Z" transform="translate(0 29.373)" fill="#96641e" opacity="0.3" style="mix-blend-mode: multiply;isolation: isolate"/>
      <path id="Trazado_101620" data-name="Trazado 101620" d="M1643.493-184.375c-3.163,6.57-39.082,11.507-53.158,1.78-2.7-1.867-2.4-6.7.5-8.079,5.92-2.815,18.074-6.321,33.382-3.684,1.128.406,16.273,2.969,16.58,3.084C1645.016-189.7,1647.008-186.571,1643.493-184.375Z" transform="translate(34.167 28.181)" fill="#96641e" opacity="0.3" style="mix-blend-mode: multiply;isolation: isolate"/>
      <path id="Trazado_101621" data-name="Trazado 101621" d="M1592.644-181.464c-4.225,6.57-52.2,11.505-71,1.78a4.328,4.328,0,0,1,.669-8.079c7.907-2.815,24.139-6.321,44.584-3.684,1.507.4,21.735,2.968,22.145,3.084C1594.678-186.788,1597.339-183.66,1592.644-181.464Z" transform="translate(16.096 28.94)" fill="#96641e" opacity="0.3" style="mix-blend-mode: multiply;isolation: isolate"/>
      <g id="Grupo_55750" data-name="Grupo 55750" transform="translate(1464.837 -301.006)">
        <path id="Trazado_101622" data-name="Trazado 101622" d="M1496.685-256.536c-3.158,2.665-.4,5.867-.4,5.867s8.621,10.135,12.354,14.935,4.447,10.224,4.447,14.582v56.828a4.549,4.549,0,0,1-4.532,4.532h-40.72a4.547,4.547,0,0,1-4.532-4.532V-210.21c0-2.056.006-10.267.018-10.787.382-18.293,8.932-18.544,10.117-29.135.526-4.711,1.866-17.245,2.534-20.4s3.155-3.333,3.155-3.333h16.4a3.253,3.253,0,0,1,2.711,3.328v10.5A4.043,4.043,0,0,1,1496.685-256.536Z" transform="translate(-1463.304 308.7)" fill="#e2e4f2" fill-rule="evenodd"/>
        <path id="Trazado_101623" data-name="Trazado 101623" d="M1495.478-257.3c-3.158,2.665-.4,5.867-.4,5.867s8.621,10.135,12.354,14.935,4.447,10.224,4.447,14.582v56.828a4.549,4.549,0,0,1-4.532,4.532h-34.883a4.547,4.547,0,0,1-4.532-4.532v-45.885c0-2.056.006-10.267.018-10.787.382-18.293,8.932-18.544,10.117-29.135.527-4.711,1.868-13.539,2.534-16.695s3.155-3.333,3.155-3.333h13.276V-260.8A4.043,4.043,0,0,1,1495.478-257.3Z" transform="translate(-1462.097 309.467)" fill="#fff" fill-rule="evenodd"/>
        <path id="Rectángulo_5374" data-name="Rectángulo 5374" d="M.314,0H2.076A.314.314,0,0,1,2.39.314V4.807a.314.314,0,0,1-.314.314H.312A.312.312,0,0,1,0,4.809V.314A.314.314,0,0,1,.314,0Z" transform="translate(22.83 36.848)" fill="#09b291"/>
        <path id="Rectángulo_5375" data-name="Rectángulo 5375" d="M1.294,0H8.563A1.294,1.294,0,0,1,9.857,1.294v9.623a1.294,1.294,0,0,1-1.294,1.294H1.295A1.295,1.295,0,0,1,0,10.916V1.294A1.294,1.294,0,0,1,1.294,0Z" transform="translate(19.097 27.557)" fill="#09b291"/>
        <path id="Trazado_101624" data-name="Trazado 101624" d="M1494.565-249.3s-1.679-2.2-5.339-1.23-6.578,4.261-9.033,4.864,10.237,4.725,12.738,2.919A4.931,4.931,0,0,0,1494.565-249.3Z" transform="translate(-1458.982 314.72)" fill="#09b291" fill-rule="evenodd"/>
        <path id="Trazado_101625" data-name="Trazado 101625" d="M1498.311-249.6c2.574,3.056,5.119,6.149,7.547,9.266,2.934,3.773,3.853,8.178,3.853,12.861v56.828a1.742,1.742,0,0,1-1.73,1.73h-40.72a1.744,1.744,0,0,1-1.731-1.73v-45.885c0-3.562-.054-7.174.018-10.729a31.969,31.969,0,0,1,2.434-12.576,54.46,54.46,0,0,1,4.111-6.808c4.358-5.893,12.442,1.45,19.855,1.253C1498.353-245.566,1498.415-248.745,1498.311-249.6Z" transform="translate(-1462.729 315.026)" fill="#09b291" fill-rule="evenodd"/>
        <path id="Trazado_101626" data-name="Trazado 101626" d="M1497.679-249.6c2.574,3.056,5.119,6.149,7.547,9.266,2.934,3.773,3.853,8.178,3.853,12.861v56.828a1.742,1.742,0,0,1-1.73,1.73h-39.07a4.477,4.477,0,0,1-.346-1.73v-45.885c0-2.056.006-10.267.018-10.787.269-12.774,4.515-16.75,7.458-21.594,4.453-.393,10.368,3.667,15.906,3.521C1497.721-245.566,1497.783-248.745,1497.679-249.6Z" transform="translate(-1462.097 315.026)" fill="#3ad4b6" fill-rule="evenodd"/>
        <path id="Rectángulo_5376" data-name="Rectángulo 5376" d="M.762,0H6.305a.759.759,0,0,1,.759.759V4.374a.762.762,0,0,1-.762.762H.762A.762.762,0,0,1,0,4.374V.762A.762.762,0,0,1,.762,0Z" transform="translate(50.951 1.534)" fill="#6d6e7e"/>
        <path id="Rectángulo_5377" data-name="Rectángulo 5377" d="M1.545,0h8.668a1.543,1.543,0,0,1,1.543,1.543v9.124a1.543,1.543,0,0,1-1.543,1.543H1.544A1.544,1.544,0,0,1,0,10.666V1.545A1.545,1.545,0,0,1,1.545,0Z" transform="translate(18.147 18.69)" fill="#065949"/>
        <rect id="Rectángulo_5378" data-name="Rectángulo 5378" width="23.471" height="5.467" rx="1.951" transform="translate(11.15 15.435)" fill="#09b291"/>
        <path id="Trazado_101627" data-name="Trazado 101627" d="M1502.348-296.275l4.1,1.62v8.815a21.219,21.219,0,0,0,3.834,12.2s.4.985-.548.985H1508.1a4.651,4.651,0,0,1-3.336-2.017c-1.532-2-7.8-16.669-7.8-16.669Z" transform="translate(-1454.528 302.858)" fill="#09b291" fill-rule="evenodd"/>
        <path id="Trazado_101628" data-name="Trazado 101628" d="M1502.348-296.275l4.1,1.62v3.916l-7.18,4.687c-1.3-2.944-2.3-5.289-2.3-5.289Z" transform="translate(-1454.528 302.858)" fill="#065949" fill-rule="evenodd"/>
        <path id="Trazado_101629" data-name="Trazado 101629" d="M1470.4-289.871v4.275c0,2.268,1.634,2.268,1.634,2.268h24.405a4.489,4.489,0,0,0,2.1-.967s7.3-6.433,8.732-7.668,4.738-1.331,4.738-1.331l-3.869-5.069L1485.6-301.5h-4.1s-1.967-.048-2.733.751-6.968,7.568-6.968,7.568A5.094,5.094,0,0,0,1470.4-289.871Z" transform="translate(-1461.454 301.496)" fill="#065949" fill-rule="evenodd"/>
        <path id="Rectángulo_5379" data-name="Rectángulo 5379" d="M1.6,0H16.376a1.6,1.6,0,0,1,1.6,1.6v9a1.6,1.6,0,0,1-1.6,1.6H1.6A1.6,1.6,0,0,1,0,10.61V1.6A1.6,1.6,0,0,1,1.6,0Z" transform="translate(15.035 22.624)" fill="#065949"/>
        <path id="Rectángulo_5380" data-name="Rectángulo 5380" d="M1.6,0H12.022a1.6,1.6,0,0,1,1.6,1.6v9a1.6,1.6,0,0,1-1.6,1.6H1.6A1.6,1.6,0,0,1,0,10.61V1.6A1.6,1.6,0,0,1,1.6,0Z" transform="translate(19.39 22.624)" fill="#09b291"/>
        <path id="Rectángulo_5381" data-name="Rectángulo 5381" d="M1.217,0h30.7a1.217,1.217,0,0,1,1.217,1.217V6.986A1.216,1.216,0,0,1,31.921,8.2H1.216A1.216,1.216,0,0,1,0,6.986V1.217A1.217,1.217,0,0,1,1.217,0Z" transform="translate(21.614 0.001)" fill="#09b291"/>
        <path id="Rectángulo_5382" data-name="Rectángulo 5382" d="M3.526,0H25.2a3.527,3.527,0,0,1,3.527,3.527V39.834A3.524,3.524,0,0,1,25.2,43.358H3.528A3.528,3.528,0,0,1,0,39.83V3.526A3.526,3.526,0,0,1,3.526,0Z" transform="translate(10.53 89.741)" fill="#fff"/>
        <path id="Trazado_101630" data-name="Trazado 101630" d="M1492.062-211.062l-4.115-10.84a.984.984,0,0,0-.923-.633l-8.907.052a.99.99,0,0,0-.608.168.984.984,0,0,0-.257,1.367l3.478,5.079h-2.3a.978.978,0,0,0-.461.116.985.985,0,0,0-.407,1.331l8.023,15.111a.992.992,0,0,0,1.121.49.983.983,0,0,0,.7-1.2l-2.588-9.71h6.328a1.1,1.1,0,0,0,.348-.066A.98.98,0,0,0,1492.062-211.062Z" transform="translate(-1459.712 322.084)" fill="#09b291" fill-rule="evenodd"/>
      </g>
      <g id="Grupo_55751" data-name="Grupo 55751" transform="translate(1616.738 -303.376)">
        <path id="Trazado_101631" data-name="Trazado 101631" d="M1606.723-258.417c3.158,2.666.4,5.87.4,5.87s-8.623,10.134-12.356,14.935-4.444,10.224-4.444,14.58v56.826a4.547,4.547,0,0,0,4.532,4.532h40.716a4.546,4.546,0,0,0,4.532-4.532v-45.882c0-2.057,0-10.269-.015-10.789-.386-18.292-8.933-18.543-10.119-29.134-.525-4.714-1.865-17.247-2.533-20.4s-3.158-3.333-3.158-3.333h-16.4a3.25,3.25,0,0,0-2.711,3.326v10.5A4.036,4.036,0,0,0,1606.723-258.417Z" transform="translate(-1582.089 310.58)" fill="#ced1e8" fill-rule="evenodd"/>
        <path id="Trazado_101632" data-name="Trazado 101632" d="M1606.723-259.183c3.158,2.666.4,5.87.4,5.87s-8.623,10.134-12.356,14.935-4.444,10.224-4.444,14.58v56.826a4.547,4.547,0,0,0,4.532,4.532h34.879a4.547,4.547,0,0,0,4.532-4.532v-45.882c0-2.057-.008-10.269-.015-10.789-.386-18.292-8.933-18.543-10.119-29.134-.526-4.711-1.868-13.54-2.533-16.7s-3.158-3.333-3.158-3.333h-13.272v10.125A4.036,4.036,0,0,0,1606.723-259.183Z" transform="translate(-1582.089 311.346)" fill="#fff" fill-rule="evenodd"/>
        <path id="Rectángulo_5383" data-name="Rectángulo 5383" d="M.314,0H2.078a.316.316,0,0,1,.316.316v4.49a.314.314,0,0,1-.314.314H.316A.316.316,0,0,1,0,4.8V.314A.314.314,0,0,1,.314,0Z" transform="translate(32.795 36.848)" fill="#8fccee"/>
        <path id="Rectángulo_5384" data-name="Rectángulo 5384" d="M1.294,0H8.565a1.3,1.3,0,0,1,1.3,1.3v9.619a1.3,1.3,0,0,1-1.3,1.3H1.294A1.294,1.294,0,0,1,0,10.915V1.294A1.294,1.294,0,0,1,1.294,0Z" transform="translate(29.062 27.557)" fill="#bddff2"/>
        <path id="Trazado_101633" data-name="Trazado 101633" d="M1601.72-251.18s1.679-2.2,5.338-1.229,6.578,4.261,9.034,4.864-10.238,4.725-12.74,2.919A4.932,4.932,0,0,1,1601.72-251.18Z" transform="translate(-1579.286 316.6)" fill="#8fccee" fill-rule="evenodd"/>
        <path id="Trazado_101634" data-name="Trazado 101634" d="M1603.944-251.486c-2.572,3.057-5.12,6.15-7.544,9.268-2.934,3.773-3.857,8.176-3.857,12.861v56.826a1.745,1.745,0,0,0,1.734,1.73h40.716a1.744,1.744,0,0,0,1.734-1.73v-45.882c0-3.564.054-7.173-.019-10.73a31.941,31.941,0,0,0-2.432-12.577,54.46,54.46,0,0,0-4.111-6.807c-4.358-5.9-12.443,1.45-19.855,1.251C1603.9-247.447,1603.843-250.625,1603.944-251.486Z" transform="translate(-1581.51 316.906)" fill="#8fccee" fill-rule="evenodd"/>
        <path id="Trazado_101635" data-name="Trazado 101635" d="M1603.944-251.486c-2.572,3.057-5.12,6.15-7.544,9.268-2.934,3.773-3.857,8.176-3.857,12.861v56.826a1.745,1.745,0,0,0,1.734,1.73h39.069a4.529,4.529,0,0,0,.343-1.73v-45.882c0-2.057-.008-10.269-.015-10.789-.27-12.772-4.517-16.749-7.459-21.592-4.455-.4-10.369,3.667-15.905,3.519C1603.9-247.447,1603.843-250.625,1603.944-251.486Z" transform="translate(-1581.51 316.906)" fill="#bddff2" fill-rule="evenodd"/>
        <path id="Rectángulo_5385" data-name="Rectángulo 5385" d="M.761,0H6.306a.762.762,0,0,1,.762.762V4.373a.761.761,0,0,1-.761.761H.762A.762.762,0,0,1,0,4.372V.761A.761.761,0,0,1,.761,0Z" transform="translate(0 1.534)" fill="#131742"/>
        <rect id="Rectángulo_5386" data-name="Rectángulo 5386" width="11.759" height="12.209" rx="1.543" transform="translate(28.112 18.69)" fill="#131742"/>
        <rect id="Rectángulo_5387" data-name="Rectángulo 5387" width="23.468" height="5.469" rx="1.951" transform="translate(23.398 15.433)" fill="#1d204d"/>
        <path id="Trazado_101636" data-name="Trazado 101636" d="M1593.541-298.155l-4.1,1.62v8.815a21.224,21.224,0,0,1-3.833,12.2s-.4.983.552.983h1.633a4.651,4.651,0,0,0,3.336-2.017c1.532-2,7.8-16.671,7.8-16.671Z" transform="translate(-1583.341 304.738)" fill="#c3322b" fill-rule="evenodd"/>
        <path id="Trazado_101637" data-name="Trazado 101637" d="M1592.731-298.155l-4.1,1.62v3.916l7.185,4.687c1.3-2.944,2.3-5.291,2.3-5.291Z" transform="translate(-1582.531 304.738)" fill="#a42429" fill-rule="evenodd"/>
        <path id="Trazado_101638" data-name="Trazado 101638" d="M1631.318-291.752v4.276c0,2.268-1.633,2.268-1.633,2.268h-24.4a4.478,4.478,0,0,1-2.1-.97s-7.3-6.431-8.736-7.665-4.733-1.331-4.733-1.331l3.867-5.069,22.535-3.133h4.095s1.969-.049,2.733.751,6.969,7.568,6.969,7.568A5.081,5.081,0,0,1,1631.318-291.752Z" transform="translate(-1582.248 303.376)" fill="#c3322b" fill-rule="evenodd"/>
        <path id="Rectángulo_5388" data-name="Rectángulo 5388" d="M1.6,0H16.378a1.6,1.6,0,0,1,1.6,1.6v9a1.6,1.6,0,0,1-1.6,1.6H1.6a1.6,1.6,0,0,1-1.6-1.6v-9A1.6,1.6,0,0,1,1.6,0Z" transform="translate(25 22.624)" fill="#a42429"/>
        <path id="Rectángulo_5389" data-name="Rectángulo 5389" d="M1.6,0h10.42a1.6,1.6,0,0,1,1.6,1.6v9a1.6,1.6,0,0,1-1.6,1.6H1.6a1.6,1.6,0,0,1-1.6-1.6v-9A1.6,1.6,0,0,1,1.6,0Z" transform="translate(25 22.624)" fill="#c3322b"/>
        <path id="Rectángulo_5390" data-name="Rectángulo 5390" d="M1.216,0h30.7a1.219,1.219,0,0,1,1.219,1.219V6.986A1.216,1.216,0,0,1,31.923,8.2H1.219A1.219,1.219,0,0,1,0,6.983V1.216A1.216,1.216,0,0,1,1.216,0Z" transform="translate(3.266 0.001)" fill="#ce542b"/>
        <path id="Rectángulo_5391" data-name="Rectángulo 5391" d="M3.528,0H25.195a3.528,3.528,0,0,1,3.528,3.528V39.835a3.528,3.528,0,0,1-3.528,3.528H3.524A3.524,3.524,0,0,1,0,39.838V3.528A3.528,3.528,0,0,1,3.528,0Z" transform="translate(18.765 89.739)" fill="#131742"/>
        <path id="Trazado_101639" data-name="Trazado 101639" d="M1604.162-212.941l4.119-10.84a.978.978,0,0,1,.922-.633l8.907.049a.973.973,0,0,1,.606.17.985.985,0,0,1,.258,1.367l-3.478,5.077h2.3a1.012,1.012,0,0,1,.464.116.986.986,0,0,1,.4,1.331l-8.022,15.111a.989.989,0,0,1-1.119.49.987.987,0,0,1-.7-1.2l2.59-9.709h-6.331a.9.9,0,0,1-.343-.066A.98.98,0,0,1,1604.162-212.941Z" transform="translate(-1578.497 323.964)" fill="#8fccee" fill-rule="evenodd"/>
      </g>
      <g id="Grupo_55752" data-name="Grupo 55752" transform="translate(1538.226 -277.765)">
        <path id="Trazado_101640" data-name="Trazado 101640" d="M1569.36-271.8v2.136c0,2.694,2.525,4.491,2.525,4.491,9.883,7.409,18.526,12.239,20.885,17.74s-1.074,8.37-1.074,8.37-2.076,1.8-4.1,3.594a5.892,5.892,0,0,0-1.629,4.772s4.375,53.341,4.375,62.771-8.984,9.66-8.984,9.66H1533.75s-8.984-.228-8.984-9.66,4.376-62.771,4.376-62.771a5.9,5.9,0,0,0-1.629-4.772c-2.021-1.8-4.1-3.594-4.1-3.594s-3.43-2.864-1.072-8.37,11-10.33,20.885-17.74c0,0,2.525-1.8,2.525-4.491V-271.8h23.606Z" transform="translate(-1521.516 285.999)" fill="#8fccee" fill-rule="evenodd"/>
        <path id="Trazado_101641" data-name="Trazado 101641" d="M1530.358-238.49s.1-1.71,2.515-1.908,14.632-.393,23.291,7.1S1531.742-221.985,1530.358-238.49Z" transform="translate(-1519.211 294.169)" fill="#6aa2d8" fill-rule="evenodd"/>
        <path id="Trazado_101642" data-name="Trazado 101642" d="M1531.26-238.9q-1.309,15.97-2.5,31.957c-.461,6.22-.909,12.443-1.3,18.666-.243,3.857-.561,7.914-.561,11.774,0,2.228.611,4.152,2.64,5.267a7.659,7.659,0,0,0,2.805.852h47.5c3.575-.15,5.56-2.613,5.56-6.12,0-3.86-.32-7.917-.564-11.774-.389-6.223-.838-12.446-1.3-18.666q-.787-10.59-1.629-21.178c-1.4-12.312-13.346-11.71-31.132-5.78S1531.26-238.9,1531.26-238.9Z" transform="translate(-1520.112 294.576)" fill="#fff" fill-rule="evenodd"/>
        <path id="Rectángulo_5392" data-name="Rectángulo 5392" d="M2.026,0H25.707a2.024,2.024,0,0,1,2.024,2.024V13.4a2.024,2.024,0,0,1-2.024,2.024H2.024A2.024,2.024,0,0,1,0,13.4V2.026A2.026,2.026,0,0,1,2.026,0Z" transform="translate(22.175)" fill="#131742"/>
        <path id="Rectángulo_5393" data-name="Rectángulo 5393" d="M2.026,0h15.84a2.026,2.026,0,0,1,2.026,2.026V13.4a2.026,2.026,0,0,1-2.026,2.026H2.024A2.024,2.024,0,0,1,0,13.4V2.026A2.026,2.026,0,0,1,2.026,0Z" transform="translate(22.175)" fill="#1d204d"/>
        <path id="Trazado_101643" data-name="Trazado 101643" d="M1561.88-270.818h-13.555v.915c0,2.694,2.527,4.491,2.527,4.491,9.881,7.409,18.526,12.239,20.885,17.74s-1.074,8.37-1.074,8.37-2.076,1.8-4.1,3.594a5.892,5.892,0,0,0-1.629,4.772s.039.455.1,1.29c6.478.17,10.508,3.026,11.288,9.864q.838,10.584,1.629,21.178c.459,6.22.908,12.443,1.3,18.666.243,3.857.564,7.914.564,11.774,0,3.506-1.984,5.97-5.56,6.12h-6.79a10.118,10.118,0,0,1-7.138,3.54h14.041s8.984-.228,8.984-9.66-4.375-62.771-4.375-62.771a5.892,5.892,0,0,1,1.629-4.772c2.02-1.8,4.1-3.594,4.1-3.594s3.433-2.864,1.074-8.37-11-10.33-20.885-17.74c0,0-2.529-1.8-2.529-4.491v-.964A2.461,2.461,0,0,1,1561.88-270.818Z" transform="translate(-1514.527 286.241)" fill="#71aee1" fill-rule="evenodd"/>
        <path id="Trazado_101644" data-name="Trazado 101644" d="M1572.874-228.307c-.78-6.838-4.811-9.694-11.288-9.864.668,8.192,4.274,52.924,4.274,61.482a9.719,9.719,0,0,1-1.846,6.12h6.79c3.575-.15,5.56-2.613,5.56-6.12,0-3.86-.32-7.917-.564-11.774-.39-6.223-.838-12.446-1.3-18.666Q1573.716-217.72,1572.874-228.307Z" transform="translate(-1511.069 294.766)" fill="#8fccee" fill-rule="evenodd"/>
        <path id="Trazado_101645" data-name="Trazado 101645" d="M1543.344-264.951a.877.877,0,0,1,1.235.165.881.881,0,0,1-.164,1.236l-1.026.784a.881.881,0,0,1-1.236-.166.88.88,0,0,1,.164-1.236l1.026-.783Zm-4.215,3.215a.887.887,0,0,1,1.237.166.885.885,0,0,1-.166,1.239l-13.781,10.523a.88.88,0,0,1-1.238-.165.881.881,0,0,1,.167-1.236Z" transform="translate(-1520.608 287.736)" fill="#fff" fill-rule="evenodd"/>
        <path id="Rectángulo_5394" data-name="Rectángulo 5394" d="M1.644,0H16.413a1.643,1.643,0,0,1,1.643,1.643V18.484a1.644,1.644,0,0,1-1.644,1.644H1.641A1.641,1.641,0,0,1,0,18.487V1.644A1.644,1.644,0,0,1,1.644,0Z" transform="translate(11.587 99.597)" fill="#131742"/>
        <path id="Trazado_101646" data-name="Trazado 101646" d="M1540.522-200.2a.269.269,0,0,1-.27-.27.269.269,0,0,1,.27-.27h3.107a.269.269,0,0,1,.271.27.27.27,0,0,1-.271.27Zm0,11.215a.273.273,0,0,1-.27-.275.269.269,0,0,1,.27-.27h3.107a.27.27,0,0,1,.271.27.273.273,0,0,1-.271.275Zm0-2.244a.272.272,0,0,1-.27-.274.269.269,0,0,1,.27-.27h3.107a.27.27,0,0,1,.271.27.272.272,0,0,1-.271.274Zm0-2.243a.272.272,0,0,1-.27-.274.271.271,0,0,1,.27-.27h3.107a.271.271,0,0,1,.271.27.272.272,0,0,1-.271.274Zm0-2.243a.272.272,0,0,1-.27-.27.272.272,0,0,1,.27-.274h3.107a.272.272,0,0,1,.271.274.272.272,0,0,1-.271.27Zm0-2.243a.269.269,0,0,1-.27-.27.272.272,0,0,1,.27-.274h3.107a.272.272,0,0,1,.271.274.269.269,0,0,1-.271.27Z" transform="translate(-1516.631 304.525)" fill="#fff" fill-rule="evenodd"/>
        <path id="Trazado_101647" data-name="Trazado 101647" d="M1539.51-192.967h0a3.533,3.533,0,0,1,.241,1.286,3.511,3.511,0,0,1-3.511,3.514,3.513,3.513,0,0,1-3.511-3.514,3.54,3.54,0,0,1,.243-1.286h0l3.267-8.312Z" transform="translate(-1518.592 304.384)" fill="#8fccee" fill-rule="evenodd"/>
      </g>
    </g>
  </g>
</svg>
