<svg xmlns="http://www.w3.org/2000/svg" width="89" height="89" viewBox="0 0 89 89">
  <g id="Grupo_55674" data-name="Grupo 55674" transform="translate(-262 -5267.82)">
    <g id="Elipse_4272" data-name="Elipse 4272" transform="translate(262 5267.82)" fill="#fff" stroke="#09b291" stroke-width="3">
      <circle cx="44.5" cy="44.5" r="44.5" stroke="none"/>
      <circle cx="44.5" cy="44.5" r="43" fill="none"/>
    </g>
    <ellipse id="Elipse_4273" data-name="Elipse 4273" cx="7" cy="6.5" rx="7" ry="6.5" transform="translate(280 5288.82)" fill="#09b291"/>
    <ellipse id="Elipse_4282" data-name="Elipse 4282" cx="7" cy="6.5" rx="7" ry="6.5" transform="translate(280 5299.82)" fill="#09b291"/>
    <circle id="Elipse_4287" data-name="Elipse 4287" cx="7" cy="7" r="7" transform="translate(280 5310.82)" fill="#09b291"/>
    <circle id="Elipse_4292" data-name="Elipse 4292" cx="7" cy="7" r="7" transform="translate(280 5321.82)" fill="#09b291"/>
    <ellipse id="Elipse_4274" data-name="Elipse 4274" cx="7" cy="6.5" rx="7" ry="6.5" transform="translate(290 5288.82)" fill="#09b291"/>
    <ellipse id="Elipse_4281" data-name="Elipse 4281" cx="7" cy="6.5" rx="7" ry="6.5" transform="translate(290 5299.82)" fill="#09b291"/>
    <circle id="Elipse_4286" data-name="Elipse 4286" cx="7" cy="7" r="7" transform="translate(290 5310.82)" fill="#09b291"/>
    <circle id="Elipse_4291" data-name="Elipse 4291" cx="7" cy="7" r="7" transform="translate(290 5321.82)" fill="#09b291"/>
    <circle id="Elipse_4275" data-name="Elipse 4275" cx="6.5" cy="6.5" r="6.5" transform="translate(300 5288.82)" fill="#09b291"/>
    <circle id="Elipse_4280" data-name="Elipse 4280" cx="6.5" cy="6.5" r="6.5" transform="translate(300 5299.82)" fill="#09b291"/>
    <ellipse id="Elipse_4285" data-name="Elipse 4285" cx="6.5" cy="7" rx="6.5" ry="7" transform="translate(300 5310.82)" fill="#09b291"/>
    <ellipse id="Elipse_4290" data-name="Elipse 4290" cx="6.5" cy="7" rx="6.5" ry="7" transform="translate(300 5321.82)" fill="#09b291"/>
    <ellipse id="Elipse_4276" data-name="Elipse 4276" cx="7" cy="6.5" rx="7" ry="6.5" transform="translate(309 5288.82)" fill="#09b291"/>
    <ellipse id="Elipse_4279" data-name="Elipse 4279" cx="7" cy="6.5" rx="7" ry="6.5" transform="translate(309 5299.82)" fill="#09b291"/>
    <circle id="Elipse_4284" data-name="Elipse 4284" cx="7" cy="7" r="7" transform="translate(309 5310.82)" fill="#09b291"/>
    <circle id="Elipse_4289" data-name="Elipse 4289" cx="7" cy="7" r="7" transform="translate(309 5321.82)" fill="#09b291"/>
    <circle id="Elipse_4277" data-name="Elipse 4277" cx="6.5" cy="6.5" r="6.5" transform="translate(319 5288.82)" fill="#09b291"/>
    <circle id="Elipse_4278" data-name="Elipse 4278" cx="6.5" cy="6.5" r="6.5" transform="translate(319 5299.82)" fill="#09b291"/>
    <ellipse id="Elipse_4283" data-name="Elipse 4283" cx="6.5" cy="7" rx="6.5" ry="7" transform="translate(319 5310.82)" fill="#09b291"/>
    <ellipse id="Elipse_4288" data-name="Elipse 4288" cx="6.5" cy="7" rx="6.5" ry="7" transform="translate(319 5321.82)" fill="#09b291"/>
  </g>
</svg>
