<svg xmlns="http://www.w3.org/2000/svg" width="260.335" height="208.288" viewBox="0 0 260.335 208.288">
  <g id="Grupo_56302" data-name="Grupo 56302" transform="translate(367.608 -284.257)" opacity="0.8">
    <path id="Trazado_103129" data-name="Trazado 103129" d="M-346.612,440.27c-13.518-4.81-20.517-13.2-20.925-24.634-.441-12.47,5.7-20.637,20.43-27.133-.3-1.352-1.6-.972-2.4-1.255-11.978-4.239-19.109-15.115-17.941-27.5a25.879,25.879,0,0,1,22.7-23.16c2.553-.334,3.122-1.036,3.454-3.507,1.638-12.179,10.508-20.846,22.785-22.611,1.541-.222,2.775.074,3.145-2.336,2.132-13.8,11.172-22.718,23.532-23.746a26.2,26.2,0,0,1,27.636,19.507c.092.357.128.923,1.076.753,3.862-12.3,11.99-20.1,25.447-20.193,13.669-.092,21.976,7.705,26.228,21.254,4.28-13.516,12.541-21.349,26.2-21.252,13.452.1,21.678,7.81,25.866,21.56,2.229-7.739,5.558-13.437,11.437-17.275a25.272,25.272,0,0,1,18.994-4.04,26.008,26.008,0,0,1,21.54,23.374c1.064,12.924-6.16,22.874-21.185,28.3,13.123,4.165,21.083,12.314,21.122,25.866.038,13.628-7.69,21.986-21.6,26.231,8.358,2.283,14.273,6.091,18.074,12.58,9.6,16.4-.235,36.43-19.336,39.226-2.3.334-2.928.921-3.234,3.227-1.653,12.47-10.3,20.994-23.009,22.838-1.747.253-2.64.352-2.959,2.543-1.928,13.327-10.975,22.331-23.287,23.532-12.521,1.224-23.3-6.106-27.7-18.839-.176-.508-.365-1.01-.857-2.364-4.729,14.385-13.875,22.292-28.638,21.048-12.2-1.03-19.673-8.593-23.318-21.175-4.8,14.485-13.924,22.415-28.689,21.18-12.217-1.023-19.655-8.621-23.284-20.912-5.667,15.533-15.727,23.511-32.115,20.3a25.21,25.21,0,0,1-20.04-22.726C-368.641,456.176-362.354,447.384-346.612,440.27Zm109.2,50.392a24.368,24.368,0,0,0,24.2-24.259,24.37,24.37,0,0,0-24.261-24.193,24.362,24.362,0,0,0-24.2,24.259A24.367,24.367,0,0,0-237.413,490.662Zm51.946-48.451a24.365,24.365,0,0,0-24.185,24.266,24.375,24.375,0,0,0,24.269,24.185A24.377,24.377,0,0,0-161.2,466.4,24.376,24.376,0,0,0-185.467,442.211ZM-317.26,466.447a24.372,24.372,0,0,0-24.221-24.236,24.364,24.364,0,0,0-24.236,24.215A24.365,24.365,0,0,0-341.5,490.662,24.37,24.37,0,0,0-317.26,466.447Zm0-104.055A24.374,24.374,0,0,0-341.5,338.174a24.368,24.368,0,0,0-24.218,24.236,24.365,24.365,0,0,0,24.236,24.218A24.37,24.37,0,0,0-317.26,362.393Zm27.48-24.218A24.375,24.375,0,0,0-313.7,362.714a24.386,24.386,0,0,0,24.542,23.914,24.393,24.393,0,0,0,23.917-24.539A24.38,24.38,0,0,0-289.779,338.174Zm52.407,48.454a24.373,24.373,0,0,0,24.154-24.3,24.372,24.372,0,0,0-24.3-24.152,24.363,24.363,0,0,0-24.154,24.3A24.375,24.375,0,0,0-237.372,386.628Zm51.938-48.454a24.368,24.368,0,0,0-24.218,24.236,24.371,24.371,0,0,0,24.236,24.218A24.375,24.375,0,0,0-161.2,362.393,24.372,24.372,0,0,0-185.434,338.174ZM-341.449,438.645a24.372,24.372,0,0,0,24.19-24.264,24.369,24.369,0,0,0-24.266-24.19,24.368,24.368,0,0,0-24.19,24.264A24.372,24.372,0,0,0-341.449,438.645Zm76.212-24.511a24.384,24.384,0,0,0-24.516-23.94,24.363,24.363,0,0,0-23.94,24.509,24.38,24.38,0,0,0,24.511,23.943A24.386,24.386,0,0,0-265.237,414.134Zm52.02.026A24.373,24.373,0,0,0-237.7,390.192a24.377,24.377,0,0,0-23.971,24.486,24.382,24.382,0,0,0,24.488,23.968A24.373,24.373,0,0,0-213.218,414.16Zm52.022.184A24.371,24.371,0,0,0-185.5,390.194a24.364,24.364,0,0,0-24.149,24.3,24.376,24.376,0,0,0,24.3,24.152A24.379,24.379,0,0,0-161.2,414.343ZM-289.67,442.211a24.371,24.371,0,0,0-24.024,24.425,24.381,24.381,0,0,0,24.43,24.027,24.375,24.375,0,0,0,24.024-24.427A24.372,24.372,0,0,0-289.67,442.211Zm180.494-131.823a24.4,24.4,0,0,0-22.966-24.21c-12.447-.765-23.733,8.779-25.343,21.257-.3,2.308.431,2.8,2.556,3.26,11.567,2.5,18.78,9.58,21.185,21.236.441,2.13,1.069,2.862,3.326,2.571A24.6,24.6,0,0,0-109.176,310.388Zm-26.011,25.855A24.411,24.411,0,0,0-158.3,312.176a24.532,24.532,0,0,0-25.208,21.417c-.227,2,.242,2.632,2.293,3.058,11.776,2.446,19.119,9.58,21.476,21.435.474,2.392,1.439,2.66,3.459,2.375A24.51,24.51,0,0,0-135.187,336.244ZM-154.916,362.4c12.391,3.729,19.339,10.866,21.341,22.351.321,1.847,1.245,1.893,2.683,1.8,11.672-.77,21.683-11.858,21.718-24.1s-9.743-23.134-21.647-24.134c-1.37-.115-2.39-.3-2.729,1.653C-135.549,351.458-142.456,358.651-154.916,362.4Zm-25.562,25.853c14.039,5.917,16.505,8.534,20.874,22.611.788,2.535,2.257,1.727,3.64,1.51a24.339,24.339,0,0,0,20.777-23.58c.24-11.631-7.825-21.451-19.6-24.118-2.941-.666-4.935-.834-5.252,3.066a17.921,17.921,0,0,1-1.972,6.127C-165.613,381.287-171.76,385.72-180.478,388.251Zm-.015,52.035c13.924,5.754,16.467,8.471,20.892,22.606.684,2.186,1.872,1.755,3.227,1.586A24.506,24.506,0,0,0-135.2,441.663a24.368,24.368,0,0,0-19.178-24.884c-3.369-.781-5.392-.638-5.744,3.413a18.363,18.363,0,0,1-2.913,7.608C-166.81,434.2-172.589,437.947-180.494,440.285Zm26-25.723c11.893,3.561,18.808,10.593,20.854,21.915.426,2.359,1.62,2.234,3.311,2.01a24.493,24.493,0,0,0,21.155-24.172A24.455,24.455,0,0,0-130.1,390.4c-2.334-.367-3.188.069-3.64,2.571a25.684,25.684,0,0,1-10.94,17C-147.384,411.859-150.552,412.8-154.5,414.563ZM-211.514,357.4c5.586-13.748,8.524-16.49,22.563-20.826,2.209-.681,1.734-1.89,1.563-3.232a24.441,24.441,0,0,0-24.139-21.173,24.478,24.478,0,0,0-23.981,21.341c-.227,1.882-.046,2.806,2.188,3.135a25.757,25.757,0,0,1,11.09,4.558C-216.812,345-213.807,350.435-211.514,357.4Zm-77.992-25.526c3.816-12.419,11.019-19.466,22.69-21.387,2.084-.342,1.558-1.717,1.436-2.915-1.222-11.993-12.052-21.494-24.363-21.41-12.006.082-22.782,9.835-23.846,21.525-.151,1.64-.038,2.52,2,2.9C-300.3,312.691-293.164,319.5-289.506,331.869ZM-315.5,357.886c3.8-12.5,11.067-19.464,22.731-21.41,2.1-.349,1.487-1.788,1.362-2.959-1.308-12.057-12.09-21.466-24.414-21.351-12.021.112-22.7,9.83-23.741,21.6-.117,1.324-.411,2.423,1.592,2.77C-326.46,338.521-319.244,345.405-315.5,357.886Zm77.9-26.552c6.07-14.056,8.932-16.712,22.555-20.764,1.785-.531,1.836-1.336,1.74-2.737-.824-11.707-11.842-21.609-24.152-21.675-12.184-.064-23.193,9.873-24.1,21.7-.11,1.418-.181,2.347,1.724,2.686C-248.363,312.572-241.16,319.463-237.6,331.334Zm52.394-.079c3.492-11.687,10.524-18.609,21.866-20.647,2.405-.431,2.2-1.673,1.974-3.326a24.474,24.474,0,0,0-24.193-21.124,24.474,24.474,0,0,0-23.9,20.961c-.375,2.408.2,3.16,2.619,3.612a25.042,25.042,0,0,1,17.405,11.725C-187.888,324.965-186.85,327.786-185.2,331.255ZM-263.625,357.3c6.331-14.268,8.95-16.7,22.56-20.721,1.773-.523,1.852-1.311,1.755-2.724-.808-11.7-11.845-21.629-24.141-21.688-12.2-.056-23.177,9.838-24.111,21.683-.11,1.4-.214,2.367,1.706,2.7C-274.369,338.547-267.2,345.474-263.625,357.3Zm.275,104.794c3.043-11.768,9.96-18.515,21.828-21.706-12.059-3.1-18.778-10.047-21.979-21.892-3.091,12.049-10.029,18.773-21.142,21.775C-271.231,445.782-267.757,449.284-263.35,462.093Zm-52.4-42.878c-2.905,11.455-9.919,18.1-21.831,21.313,12.378,3.007,18.946,10.108,22.185,21.866,3.073-12.2,10.1-18.836,21.56-21.953C-306.213,436.437-309.633,433.065-315.747,419.215ZM-293.57,388.4c-11.955-3.158-18.785-9.986-21.917-21.922-3.145,11.98-9.988,18.8-21.912,21.943,11.96,3.153,18.79,9.983,21.928,21.917C-312.327,398.371-305.478,391.559-293.57,388.4Zm30.171,20.67c3.073-10.914,10.128-17.53,21.945-20.724-12.2-3.114-18.923-10.07-22.053-22.012-3.13,12.276-10.09,18.994-22,22.129C-273.318,391.584-266.656,398.443-263.4,409.069Zm31.3-20.6c10.924,3.068,17.533,10.133,20.731,21.93,3.119-12.172,10.049-18.913,22.019-22.03-12.3-3.145-19-10.108-22.139-22C-214.608,378.558-221.479,385.208-232.1,388.467Zm20.665,31.309c-3.137,10.761-10.07,17.492-22.073,20.736,12.263,2.969,18.857,10.039,22.127,21.777,3.091-11.965,10.014-18.709,21.968-21.922C-201.505,437.3-208.206,430.494-211.435,419.776Z" transform="translate(0 0)" fill="#cfab0f"/>
    <path id="Trazado_103130" data-name="Trazado 103130" d="M-301.814,394.636a24.367,24.367,0,0,1-24.261-24.193,24.362,24.362,0,0,1,24.2-24.259,24.37,24.37,0,0,1,24.261,24.193A24.368,24.368,0,0,1-301.814,394.636Z" transform="translate(64.401 96.026)" fill="#fad228"/>
    <path id="Trazado_103131" data-name="Trazado 103131" d="M-281.494,346.185a24.376,24.376,0,0,1,24.272,24.185,24.377,24.377,0,0,1-24.187,24.266,24.375,24.375,0,0,1-24.269-24.185A24.365,24.365,0,0,1-281.494,346.185Z" transform="translate(96.027 96.026)" fill="#fad228"/>
    <path id="Trazado_103132" data-name="Trazado 103132" d="M-318.409,370.421a24.37,24.37,0,0,1-24.238,24.215A24.365,24.365,0,0,1-366.866,370.4a24.364,24.364,0,0,1,24.236-24.215A24.372,24.372,0,0,1-318.409,370.421Z" transform="translate(1.15 96.026)" fill="#fad228"/>
    <path id="Trazado_103133" data-name="Trazado 103133" d="M-318.409,329.614A24.37,24.37,0,0,1-342.63,353.85a24.365,24.365,0,0,1-24.236-24.218A24.368,24.368,0,0,1-342.648,305.4,24.374,24.374,0,0,1-318.409,329.614Z" transform="translate(1.15 32.778)" fill="#fad228"/>
    <path id="Trazado_103134" data-name="Trazado 103134" d="M-322.553,305.4a24.38,24.38,0,0,1,24.542,23.914,24.393,24.393,0,0,1-23.917,24.539,24.386,24.386,0,0,1-24.542-23.914A24.375,24.375,0,0,1-322.553,305.4Z" transform="translate(32.774 32.778)" fill="#fad228"/>
    <path id="Trazado_103135" data-name="Trazado 103135" d="M-301.773,353.85a24.375,24.375,0,0,1-24.3-24.157,24.363,24.363,0,0,1,24.154-24.3,24.372,24.372,0,0,1,24.3,24.152A24.373,24.373,0,0,1-301.773,353.85Z" transform="translate(64.401 32.778)" fill="#fad228"/>
    <path id="Trazado_103136" data-name="Trazado 103136" d="M-281.461,305.4a24.372,24.372,0,0,1,24.238,24.218,24.375,24.375,0,0,1-24.221,24.236,24.371,24.371,0,0,1-24.236-24.218A24.368,24.368,0,0,1-281.461,305.4Z" transform="translate(96.027 32.778)" fill="#fad228"/>
    <path id="Trazado_103137" data-name="Trazado 103137" d="M-342.6,374.244a24.372,24.372,0,0,1-24.266-24.19,24.368,24.368,0,0,1,24.19-24.264,24.369,24.369,0,0,1,24.266,24.19A24.372,24.372,0,0,1-342.6,374.244Z" transform="translate(1.15 64.401)" fill="#fad228"/>
    <path id="Trazado_103138" data-name="Trazado 103138" d="M-298.013,349.731a24.386,24.386,0,0,1-23.945,24.511A24.38,24.38,0,0,1-346.47,350.3a24.363,24.363,0,0,1,23.94-24.509A24.384,24.384,0,0,1-298.013,349.731Z" transform="translate(32.776 64.403)" fill="#fad228"/>
    <path id="Trazado_103139" data-name="Trazado 103139" d="M-277.618,349.758a24.373,24.373,0,0,1-23.968,24.486,24.382,24.382,0,0,1-24.488-23.968A24.377,24.377,0,0,1-302.1,325.79,24.373,24.373,0,0,1-277.618,349.758Z" transform="translate(64.401 64.401)" fill="#fad228"/>
    <path id="Trazado_103140" data-name="Trazado 103140" d="M-257.223,349.94a24.379,24.379,0,0,1-24.152,24.3,24.376,24.376,0,0,1-24.3-24.152,24.364,24.364,0,0,1,24.149-24.3A24.371,24.371,0,0,1-257.223,349.94Z" transform="translate(96.027 64.403)" fill="#fad228"/>
    <path id="Trazado_103141" data-name="Trazado 103141" d="M-322.446,346.185a24.372,24.372,0,0,1,24.43,24.024,24.375,24.375,0,0,1-24.024,24.427,24.381,24.381,0,0,1-24.43-24.027A24.371,24.371,0,0,1-322.446,346.185Z" transform="translate(32.776 96.026)" fill="#fad228"/>
    <path id="Trazado_103142" data-name="Trazado 103142" d="M-236.879,309.246A24.6,24.6,0,0,1-258.12,333.36c-2.257.291-2.885-.441-3.326-2.571-2.405-11.656-9.618-18.732-21.185-21.236-2.125-.459-2.854-.951-2.556-3.26,1.609-12.478,12.9-22.022,25.343-21.257A24.4,24.4,0,0,1-236.879,309.246Z" transform="translate(127.703 1.142)" fill="#fad228"/>
    <path id="Trazado_103143" data-name="Trazado 103143" d="M-247.075,319.29a24.51,24.51,0,0,1-21.1,24.218c-2.02.286-2.984.018-3.459-2.375-2.357-11.855-9.7-18.989-21.476-21.435-2.051-.426-2.52-1.053-2.293-3.058a24.532,24.532,0,0,1,25.208-21.417A24.411,24.411,0,0,1-247.075,319.29Z" transform="translate(111.887 16.954)" fill="#fad228"/>
    <path id="Trazado_103144" data-name="Trazado 103144" d="M-284.219,329.577c12.46-3.747,19.367-10.94,21.366-22.435.339-1.956,1.359-1.768,2.729-1.653,11.9,1,21.683,11.883,21.647,24.134s-10.047,23.333-21.718,24.1c-1.439.094-2.362.048-2.683-1.8C-264.88,340.442-271.828,333.306-284.219,329.577Z" transform="translate(129.303 32.821)" fill="#fad228"/>
    <path id="Trazado_103145" data-name="Trazado 103145" d="M-294.241,339.587c8.718-2.53,14.865-6.963,18.466-14.385a17.921,17.921,0,0,0,1.972-6.127c.316-3.9,2.311-3.732,5.252-3.066,11.776,2.668,19.841,12.488,19.6,24.118a24.339,24.339,0,0,1-20.777,23.58c-1.382.217-2.852,1.025-3.64-1.51C-277.736,348.122-280.2,345.5-294.241,339.587Z" transform="translate(113.763 48.663)" fill="#fad228"/>
    <path id="Trazado_103146" data-name="Trazado 103146" d="M-294.247,359.947c7.9-2.339,13.684-6.086,17.459-12.485a18.363,18.363,0,0,0,2.913-7.608c.352-4.05,2.375-4.193,5.744-3.413a24.368,24.368,0,0,1,19.178,24.884,24.506,24.506,0,0,1-21.175,22.815c-1.354.168-2.543.6-3.227-1.586C-277.78,368.418-280.323,365.7-294.247,359.947Z" transform="translate(113.753 80.338)" fill="#fad228"/>
    <path id="Trazado_103147" data-name="Trazado 103147" d="M-284.054,350.1c3.943-1.763,7.111-2.7,9.815-4.591a25.684,25.684,0,0,0,10.94-17c.451-2.5,1.306-2.938,3.64-2.571a24.455,24.455,0,0,1,20.925,23.914,24.493,24.493,0,0,1-21.155,24.172c-1.691.224-2.885.349-3.311-2.01C-265.246,360.7-272.161,353.664-284.054,350.1Z" transform="translate(129.559 64.46)" fill="#fad228"/>
    <path id="Trazado_103148" data-name="Trazado 103148" d="M-291.777,340.429c-2.293-6.961-5.3-12.393-10.715-16.2a25.757,25.757,0,0,0-11.09-4.558c-2.234-.329-2.415-1.252-2.188-3.135A24.478,24.478,0,0,1-291.79,295.2a24.441,24.441,0,0,1,24.139,21.173c.171,1.342.645,2.551-1.563,3.232C-283.253,323.939-286.192,326.681-291.777,340.429Z" transform="translate(80.263 16.967)" fill="#fad228"/>
    <path id="Trazado_103149" data-name="Trazado 103149" d="M-322.318,330.714c-3.658-12.37-10.794-19.178-22.078-21.285-2.043-.383-2.155-1.263-2-2.9,1.064-11.689,11.84-21.443,23.846-21.525,12.312-.084,23.142,9.417,24.363,21.41.122,1.2.648,2.574-1.436,2.915C-311.3,311.248-318.5,318.3-322.318,330.714Z" transform="translate(32.812 1.155)" fill="#fad228"/>
    <path id="Trazado_103150" data-name="Trazado 103150" d="M-332.5,340.919c-3.747-12.48-10.963-19.364-22.471-21.354-2-.347-1.709-1.446-1.592-2.77,1.046-11.766,11.72-21.484,23.741-21.6,12.325-.115,23.106,9.294,24.414,21.351.125,1.171.742,2.609-1.362,2.959C-321.429,321.456-328.7,328.421-332.5,340.919Z" transform="translate(16.999 16.966)" fill="#fad228"/>
    <path id="Trazado_103151" data-name="Trazado 103151" d="M-302.046,330.178c-3.561-11.87-10.764-18.762-22.229-20.787-1.905-.339-1.834-1.268-1.724-2.686.9-11.83,11.911-21.767,24.1-21.7,12.309.066,23.328,9.968,24.152,21.675.1,1.4.046,2.206-1.74,2.737C-293.114,313.467-295.976,316.122-302.046,330.178Z" transform="translate(64.447 1.155)" fill="#fad228"/>
    <path id="Trazado_103152" data-name="Trazado 103152" d="M-281.287,330.1c-1.645-3.469-2.683-6.29-4.226-8.8a25.042,25.042,0,0,0-17.405-11.725c-2.415-.451-2.994-1.2-2.619-3.612A24.474,24.474,0,0,1-281.639,285a24.474,24.474,0,0,1,24.193,21.124c.222,1.653.431,2.895-1.974,3.326C-270.763,311.49-277.8,318.412-281.287,330.1Z" transform="translate(96.083 1.155)" fill="#fad228"/>
    <path id="Trazado_103153" data-name="Trazado 103153" d="M-312.257,340.332c-3.573-11.825-10.743-18.752-22.231-20.749-1.921-.334-1.816-1.3-1.706-2.7.934-11.845,11.914-21.739,24.111-21.683,12.3.059,23.333,9.991,24.141,21.688.1,1.413.018,2.2-1.755,2.724C-303.307,323.633-305.926,326.064-312.257,340.332Z" transform="translate(48.632 16.967)" fill="#fad228"/>
    <path id="Trazado_103154" data-name="Trazado 103154" d="M-313.788,380.484c-4.407-12.809-7.881-16.311-21.292-21.823,11.113-3,18.051-9.725,21.142-21.775,3.2,11.845,9.919,18.788,21.979,21.892C-303.827,361.97-310.745,368.716-313.788,380.484Z" transform="translate(50.438 81.609)" fill="#fad228"/>
    <path id="Trazado_103155" data-name="Trazado 103155" d="M-334,337.169c6.114,13.85,9.534,17.222,21.915,21.226-11.462,3.117-18.487,9.754-21.56,21.953-3.239-11.758-9.807-18.859-22.185-21.866C-343.923,355.268-336.909,348.624-334,337.169Z" transform="translate(18.256 82.046)" fill="#fad228"/>
    <path id="Trazado_103156" data-name="Trazado 103156" d="M-311.934,338.414c-11.909,3.16-18.757,9.973-21.9,21.938-3.137-11.934-9.968-18.765-21.928-21.917,11.924-3.145,18.767-9.963,21.912-21.943C-330.72,328.429-323.889,335.257-311.934,338.414Z" transform="translate(18.365 49.984)" fill="#fad228"/>
    <path id="Trazado_103157" data-name="Trazado 103157" d="M-313.312,359.171c-3.257-10.626-9.919-17.484-22.106-20.606,11.909-3.135,18.869-9.853,22-22.129,3.13,11.942,9.848,18.9,22.053,22.012C-303.183,341.641-310.238,348.257-313.312,359.171Z" transform="translate(49.913 49.897)" fill="#fad228"/>
    <path id="Trazado_103158" data-name="Trazado 103158" d="M-314.48,338.547c10.621-3.26,17.492-9.909,20.612-22.1,3.14,11.888,9.843,18.852,22.139,22-11.97,3.117-18.9,9.858-22.019,22.03C-296.947,348.68-303.556,341.615-314.48,338.547Z" transform="translate(82.38 49.92)" fill="#fad228"/>
    <path id="Trazado_103159" data-name="Trazado 103159" d="M-292.959,337.389c3.229,10.718,9.93,17.528,22.022,20.591-11.955,3.214-18.877,9.958-21.968,21.922-3.27-11.738-9.863-18.808-22.127-21.777C-303.029,354.881-296.1,348.15-292.959,337.389Z" transform="translate(81.524 82.387)" fill="#fad228"/>
  </g>
</svg>
