<svg xmlns="http://www.w3.org/2000/svg" width="444" height="312" viewBox="0 0 444 312">
  <g id="Grupo_58920" data-name="Grupo 58920" transform="translate(-160 -6005)">
    <text id="Solución_Solvente_Soluto" data-name="Solución = Solvente + Soluto" transform="translate(198 6280)" fill="#12263f" font-size="24" font-family="SegoeUIBlack, Segoe UI" style="mix-blend-mode: darken;isolation: isolate"><tspan x="13.615" y="26">Solución = Solvente + Soluto</tspan></text>
    <g id="Grupo_56281" data-name="Grupo 56281" transform="translate(19.521 5500.246)">
      <path id="Trazado_102919" data-name="Trazado 102919" d="M399.322,508.675s2.91-3.123-1.792-3.921c0,0-4.925,1.3-12.443,10.11a101.432,101.432,0,0,0-10.757,14.646,4.114,4.114,0,0,1-2.017,2.592c-1.612.778-3.3,1.944-3.3,2.592s-15.164,18.145-15.164,18.145a7.473,7.473,0,0,0,.648,6.87,11,11,0,0,0,6.74,1.556c3.889-.39,7.906-2.722,8.684-3.63s13.182-9.241,7.511-24.6c0,0,4.608-9.19,8.145-12.79A92.037,92.037,0,0,1,399.322,508.675Z" transform="translate(29.59 0)" fill="#f3e8ca"/>
      <path id="Trazado_102920" data-name="Trazado 102920" d="M312.1,578.677q22.56,0,45.121.014a9.969,9.969,0,0,1,2.586.32c2.382.648,3.919,3.336,4.026,5.384a17.907,17.907,0,0,1-.167,2.99,2.924,2.924,0,0,1-.491,1.093c-.681,1.122-1.394,2.223-2.084,3.34a9.044,9.044,0,0,0-.948,2.43c-.863,3.154-.714,6.367-.7,9.578.017,5.035.006,10.068,0,15.1,0,.344-.011.688-.011,1.032q0,33.069,0,66.136c0,.656.085,1.311.085,1.966,0,.683-.122,1.371-.077,2.05a42.945,42.945,0,0,1-.327,5.792,1,1,0,0,1-.023.186,24.808,24.808,0,0,1-3.157,7.868A27.746,27.746,0,0,1,352.754,708a20.131,20.131,0,0,1-5.982,4.122,22.245,22.245,0,0,1-9.11,1.858c-15.76.039-31.519.01-47.279.006-1.625,0-3.254.064-4.877-.009a20.78,20.78,0,0,1-12.446-4.578,14.724,14.724,0,0,1-1.146-1.1,10.114,10.114,0,0,0-.839-.882,11.831,11.831,0,0,1-2.4-2.942,20.11,20.11,0,0,1-2.392-4.752,6.161,6.161,0,0,0-.812-2.172.888.888,0,0,1-.108-.446,72.818,72.818,0,0,1-.588-9.159,11.912,11.912,0,0,0-.253-2.042,11.563,11.563,0,0,1,.125-3.825,7.431,7.431,0,0,0,.125-1.3c0-1.844-.039-3.689-.016-5.533.011-.933.126-1.866.194-2.8a5.439,5.439,0,0,0,.026-.56c-.052-1.433-.158-2.866-.161-4.3q-.027-19.045-.022-38.088c0-10.132-.022-20.263.033-30.395a15.145,15.145,0,0,0-2.427-8.519c-.441-.683-.871-1.372-1.279-2.075a4.633,4.633,0,0,1-.656-2.876,5.209,5.209,0,0,0,.025-.843,6.31,6.31,0,0,1,3.991-5.82,4.748,4.748,0,0,1,1.185-.256,12.282,12.282,0,0,1,1.312-.03Z" transform="translate(16.678 10.277)" fill="#69d1ff"/>
      <path id="Trazado_102921" data-name="Trazado 102921" d="M194.087,636.723c-2.6.008-4.616-.165-6.642-.289a59.735,59.735,0,0,1-7.913-1.464,29.63,29.63,0,0,1-4.861-1.633c-1.48-.574-2.932-1.231-4.36-1.925-1.2-.583-2.354-1.266-3.523-1.915a52.057,52.057,0,0,1-9.658-7.228,39.985,39.985,0,0,1-5.939-6.743c-.747-1.075-1.391-2.222-2.158-3.281a32.973,32.973,0,0,1-2.517-4.367c-.753-1.468-1.41-2.988-2.063-4.5a56.415,56.415,0,0,1-2.987-11.2,24.663,24.663,0,0,1-.379-3.623c-.082-1.458-.366-2.906-.539-4.36a3.54,3.54,0,0,1-.011-1.3,36.639,36.639,0,0,0,.748-6.5,4.752,4.752,0,0,1,.572-2.051,3.9,3.9,0,0,0,.567-2.327,3.265,3.265,0,0,1,.551-2.231,1.105,1.105,0,0,0,.172-.425c.165-.854.312-1.712.477-2.566a2.4,2.4,0,0,1,.185-.53c1.152-2.529,2.232-5.094,3.488-7.57a39.22,39.22,0,0,1,2.9-4.7c1.073-1.533,2.319-2.943,3.447-4.438a40.647,40.647,0,0,1,5.673-5.7,49.689,49.689,0,0,1,4.807-3.587,54.811,54.811,0,0,1,13.639-6.563,25.844,25.844,0,0,1,4.721-1.154.353.353,0,0,0,.093-.013c1.483-.687,3.112-.552,4.667-.832a11.692,11.692,0,0,1,3.14-.305c.765.066,1.558-.212,2.329-.172,2.586.138,5.168.347,7.75.533.312.022.622.064.933.1a11.236,11.236,0,0,1,3.392.624,7.727,7.727,0,0,0,1.914.419,23.6,23.6,0,0,1,3.93,1.21,54.524,54.524,0,0,1,6.76,2.75,48.842,48.842,0,0,1,9.2,5.924c1.45,1.19,2.892,2.376,4.234,3.687a59.242,59.242,0,0,1,5.825,6.854c.674.9.755.936,1.785.562,2-.726,4-1.437,5.99-2.174,1.637-.6,3.26-1.244,4.9-1.849.5-.183,1.015-.3,1.523-.449.3-.089.6-.17.888-.285,1.534-.617,3.055-1.269,4.6-1.86,1.281-.492,2.59-.911,3.884-1.374q5.293-1.895,10.583-3.8c.645-.233,1.27-.523,1.9-.788a.786.786,0,0,0,.508-.81,3.875,3.875,0,0,1,.118-1.2,3,3,0,0,1,3.205-2.072,3.078,3.078,0,0,1,3.07,2.14c.716,1.963,1.493,3.9,2.225,5.859.338.906.631,1.827.944,2.74.576,1.68,1.14,3.366,1.736,5.039.386,1.086.826,2.152,1.231,3.23.747,1.988,1.494,3.975,2.226,5.969a4.641,4.641,0,0,1,.247,2.848,2.739,2.739,0,0,1-2.828,2.246,9.159,9.159,0,0,1-1.31-.056,1.824,1.824,0,0,1-1.419-.809,1.122,1.122,0,0,0-1.531-.472c-1.316.49-2.636.968-3.955,1.451-3.078,1.128-6.159,2.247-9.233,3.385-1.7.629-3.379,1.3-5.078,1.926-1.376.508-2.767.972-4.147,1.467-.705.253-1.4.541-2.1.8-.527.19-1.064.354-1.6.523a2.057,2.057,0,0,0-.539.143c-1.026.7-2.284.772-3.392,1.259-1.084.476-2.218.841-3.326,1.264-.261.1-.508.24-.761.362a1.167,1.167,0,0,0-.726,1.373,28.227,28.227,0,0,1-.154,9.331c-.228,1.7-.427,3.4-.639,5.1a1.4,1.4,0,0,1-.029.186c-.513,1.9-.974,3.805-1.556,5.679-.462,1.488-1.029,2.949-1.633,4.385-.592,1.405-1.3,2.764-1.945,4.145a42.362,42.362,0,0,1-3.565,5.824,41.135,41.135,0,0,1-3.712,4.706,65.343,65.343,0,0,1-5.686,5.441c-1.269,1.073-2.6,2.039-3.934,3.009-.9.653-1.892,1.175-2.84,1.762a41.277,41.277,0,0,1-7.549,3.672,67.171,67.171,0,0,1-8.153,2.458A51.4,51.4,0,0,1,194.087,636.723Z" transform="translate(0 3.681)" fill="#69d1ff"/>
      <path id="Trazado_102922" data-name="Trazado 102922" d="M355.307,652.708q0,16.511,0,33.021a19.2,19.2,0,0,1-5.415,13.682A15.72,15.72,0,0,1,338,704.478q-26.6-.009-53.189-.018a16.11,16.11,0,0,1-13.108-6.341,18.11,18.11,0,0,1-4.153-10.657c-.158-3.276-.239-6.568-.107-9.841.067-1.663-.041-3.3-.05-4.954-.014-2.376-.006-4.752,0-7.128.007-4.659.023-9.318.024-13.977q.005-16.792,0-33.584c0-1.854.117-1.927,2-1.833,1.529.076,3.062.04,4.593.085,3.153.092,6.3-.061,9.46-.04,12.788.087,25.578.042,38.367.033,3.719,0,7.438-.065,11.158-.068,4.939,0,9.878.027,14.816.031,2.187,0,4.374-.028,6.561-.043.564,0,.823.186.9.731a7.042,7.042,0,0,1,.032,1.03Q355.308,635.305,355.307,652.708Z" transform="translate(17.643 15.483)" fill="#0185be"/>
      <path id="Trazado_102923" data-name="Trazado 102923" d="M491.161,578.677q22.56,0,45.12.014a9.978,9.978,0,0,1,2.587.32c2.382.648,3.918,3.336,4.026,5.384a18.032,18.032,0,0,1-.167,2.99,2.941,2.941,0,0,1-.491,1.093c-.682,1.122-1.4,2.223-2.084,3.34a9.042,9.042,0,0,0-.948,2.43c-.863,3.154-.714,6.367-.7,9.578.017,5.035.006,10.068,0,15.1,0,.344-.013.688-.013,1.032q0,33.069,0,66.136c0,.656.085,1.311.085,1.966,0,.683-.122,1.371-.077,2.05a42.94,42.94,0,0,1-.327,5.792.907.907,0,0,1-.024.186A24.781,24.781,0,0,1,535,703.959,27.748,27.748,0,0,1,531.815,708a20.146,20.146,0,0,1-5.982,4.122,22.245,22.245,0,0,1-9.11,1.858c-15.76.039-31.519.01-47.279.006-1.625,0-3.254.064-4.877-.009a20.78,20.78,0,0,1-12.446-4.578,14.526,14.526,0,0,1-1.146-1.1,10.11,10.11,0,0,0-.839-.882,11.862,11.862,0,0,1-2.4-2.942,20.106,20.106,0,0,1-2.391-4.752,6.183,6.183,0,0,0-.812-2.172.888.888,0,0,1-.108-.446,72.824,72.824,0,0,1-.588-9.159,11.911,11.911,0,0,0-.253-2.042,11.562,11.562,0,0,1,.125-3.825,7.428,7.428,0,0,0,.125-1.3c0-1.844-.04-3.689-.017-5.533.013-.933.128-1.866.195-2.8a5.456,5.456,0,0,0,.026-.56c-.054-1.433-.158-2.866-.161-4.3q-.027-19.045-.022-38.088c0-10.132-.022-20.263.033-30.395a15.145,15.145,0,0,0-2.427-8.519c-.441-.683-.871-1.372-1.279-2.075a4.625,4.625,0,0,1-.656-2.876,5.212,5.212,0,0,0,.025-.843,6.31,6.31,0,0,1,3.991-5.82,4.748,4.748,0,0,1,1.185-.256,12.276,12.276,0,0,1,1.312-.03Z" transform="translate(41.572 10.277)" fill="#a6daed"/>
      <path id="Trazado_102924" data-name="Trazado 102924" d="M534.367,652.708q0,16.511,0,33.021a19.192,19.192,0,0,1-5.416,13.682,15.716,15.716,0,0,1-11.89,5.066q-26.6-.009-53.189-.018a16.11,16.11,0,0,1-13.108-6.341,18.11,18.11,0,0,1-4.153-10.657c-.158-3.276-.239-6.568-.107-9.841.067-1.663-.041-3.3-.05-4.954-.014-2.376-.007-4.752,0-7.128.007-4.659.023-9.318.024-13.977q.005-16.792,0-33.584c0-1.854.117-1.927,2-1.833,1.529.076,3.062.04,4.593.085,3.153.092,6.3-.061,9.458-.04,12.789.087,25.578.042,38.368.033,3.719,0,7.438-.065,11.157-.068,4.94,0,9.879.027,14.818.031,2.187,0,4.374-.028,6.561-.043.563,0,.824.186.9.731a7.042,7.042,0,0,1,.032,1.03Q534.369,635.305,534.367,652.708Z" transform="translate(42.537 15.483)" fill="#0185be"/>
      <path id="Trazado_102925" data-name="Trazado 102925" d="M253.386,568.743c-.208.19-.281.305-.383.343q-4.133,1.51-8.27,3c-.763.277-1.527.552-2.3.811-.872.293-.96.412-.9,1.358.044.718.066,1.438.13,2.153a62.394,62.394,0,0,1-.064,10.681c-.141,1.7-.646,3.372-.894,5.069A26.905,26.905,0,0,1,239.043,598a49.133,49.133,0,0,1-23.831,26.854c-1.568.823-3.284,1.362-4.909,2.083a28.583,28.583,0,0,1-5.712,1.767,50.829,50.829,0,0,1-11.221,1.412,52.973,52.973,0,0,1-12.147-1.613,47.85,47.85,0,0,1-19.416-9.981,49.05,49.05,0,0,1-8.175-8.874,48.133,48.133,0,0,1-4.767-8.472c-.771-1.717-1.4-3.479-2.016-5.234a47.723,47.723,0,0,1-1.439-6c-.261-1.252-.407-2.529-.587-3.8a28.068,28.068,0,0,1,.055-5.8,19.6,19.6,0,0,0-.008-2.612,11.472,11.472,0,0,1,.418-3.613c.136-.54.2-1.1.286-1.648s.134-1.12.267-1.663q.487-2,1.041-3.988a2.123,2.123,0,0,1,.957-1.538c.183-.095.289-.4.369-.623a13.567,13.567,0,0,0,.549-1.791,15.725,15.725,0,0,1,1.879-4.849,8.5,8.5,0,0,1,2.061-2.639,3,3,0,0,0,1.059-1.624,7.763,7.763,0,0,1,1.615-2.933q1.054-1.258,2.138-2.491a1.67,1.67,0,0,1,2.158-.562,6.845,6.845,0,0,0,1.367.278c3.105.7,6.207,1.417,9.315,2.107,3.139.7,6.283,1.374,9.425,2.057,2.805.612,5.614,1.205,8.414,1.836,2.924.657,5.836,1.366,8.761,2.022,2.74.615,5.49,1.194,8.237,1.783,3.328.714,6.663,1.4,9.985,2.14,2.253.5,4.487,1.1,6.736,1.622.756.178,1.533.27,2.3.41.675.124,1.354.238,2.022.4,2.52.6,5.013,1.349,7.557,1.813,5.318.969,10.527,2.417,15.821,3.481,1.01.2,2.019.41,3.022.642A3.887,3.887,0,0,1,253.386,568.743Z" transform="translate(0.585 5.954)" fill="#0185be"/>
      <path id="Trazado_102926" data-name="Trazado 102926" d="M332.151,572.8a97.1,97.1,0,0,1-9.51,7.12c-.059-.095-.167-.189-.179-.295q-.634-5.584-1.244-11.169a1.185,1.185,0,0,1,.1-.4c.116-.022.187-.059.234-.04.862.359,1.739.689,2.576,1.1.937.46,1.154.451,1.621-.461a48.475,48.475,0,0,1,4.073-6.392,34.942,34.942,0,0,1,4.717-5.2,50.348,50.348,0,0,1,10.127-7.372,43.943,43.943,0,0,1,5.131-2.453c.342-.13.7-.213,1.088-.328.3.73.59,1.376.821,2.043.285.819.139,1.128-.653,1.474a48.248,48.248,0,0,0-6.95,3.67q-1.609,1.044-3.161,2.18a41,41,0,0,0-9.222,9.255c-.833,1.163-1.508,2.436-2.264,3.654-.164.263-.384.492-.548.755-.439.7-.31,1.164.439,1.5.541.239,1.1.431,1.661.633A2.137,2.137,0,0,1,332.151,572.8Z" transform="translate(25.127 5.862)" fill="#0aafef"/>
      <path id="Trazado_102927" data-name="Trazado 102927" d="M301.106,567.608a4.1,4.1,0,0,1-.206,2.5,2.3,2.3,0,0,0-.219.994,25.426,25.426,0,0,1-.374,4.381c-.125.958-.136,1.93-.213,2.894-.026.328-.1.653-.178,1.124-.439-.246-.772-.4-1.065-.6q-2.983-2.112-5.951-4.247c-.757-.544-1.507-1.1-2.239-1.68-.453-.358-.357-.719.191-.952q1.247-.531,2.476-1.106a4.676,4.676,0,0,0,.609-.405,1.863,1.863,0,0,0-.126-.407c-1.089-1.713-2.174-3.426-3.282-5.128a19.641,19.641,0,0,0-1.51-2.139c-.794-.923-1.661-1.784-2.525-2.64a46.536,46.536,0,0,0-5.529-4.767,48.749,48.749,0,0,0-9.664-5.5c-.444-.187-.674-.393-.514-.909.139-.445.154-.935.328-1.362.3-.745.569-1.112,1.492-.687,1.645.755,3.324,1.448,4.921,2.293a45.7,45.7,0,0,1,10.123,7.213,39.417,39.417,0,0,1,7.671,9.642c.476.872.962,1.738,1.45,2.6a.72.72,0,0,0,1.083.335C298.9,568.575,299.955,568.117,301.106,567.608Z" transform="translate(18.109 5.843)" fill="#0aafef"/>
      <g id="Grupo_56274" data-name="Grupo 56274" transform="translate(148.232 560.798)">
        <g id="Grupo_56273" data-name="Grupo 56273">
          <path id="Trazado_102928" data-name="Trazado 102928" d="M196.907,618.93c-.256-.169-.526-.321-.768-.509a2.2,2.2,0,0,1,.292-3.75,2.16,2.16,0,0,1,2.748.7,1.769,1.769,0,0,1-.077,2.6,9.514,9.514,0,0,1-1.257.952Z" transform="translate(-140.621 -545.55)" fill="#242869"/>
          <path id="Trazado_102929" data-name="Trazado 102929" d="M178.047,570.116a2.176,2.176,0,0,1,2.239,2.165,2.642,2.642,0,0,1-2.261,2.481,2.76,2.76,0,0,1-2.392-2.481A2.427,2.427,0,0,1,178.047,570.116Z" transform="translate(-143.345 -551.71)" fill="#242869"/>
          <path id="Trazado_102930" data-name="Trazado 102930" d="M185.768,565.862a2.857,2.857,0,0,1,2.419,2.263,2.77,2.77,0,0,1-2.441,2.345,2.611,2.611,0,0,1-2.367-2.376A2.532,2.532,0,0,1,185.768,565.862Z" transform="translate(-142.268 -552.302)" fill="#242869"/>
          <path id="Trazado_102931" data-name="Trazado 102931" d="M171.2,585.841a2.256,2.256,0,0,1-2.254,2.447,2.47,2.47,0,0,1-2.25-2.425,2.523,2.523,0,0,1,2.334-2.245C169.963,583.605,171.42,584.7,171.2,585.841Z" transform="translate(-144.587 -549.833)" fill="#242869"/>
          <path id="Trazado_102932" data-name="Trazado 102932" d="M170.9,575.233a2.271,2.271,0,0,1,2.294,2.138,2.546,2.546,0,0,1-2.386,2.43,2.625,2.625,0,0,1-2.258-2.371A2.338,2.338,0,0,1,170.9,575.233Z" transform="translate(-144.329 -550.999)" fill="#242869"/>
          <path id="Trazado_102933" data-name="Trazado 102933" d="M160.5,588.128a2.3,2.3,0,0,1-2.35,2.28,2.184,2.184,0,0,1-2.156-2.417,2.355,2.355,0,0,1,2.242-2.194A2.531,2.531,0,0,1,160.5,588.128Z" transform="translate(-146.075 -549.531)" fill="#242869"/>
          <path id="Trazado_102934" data-name="Trazado 102934" d="M188.012,577.2a2.119,2.119,0,0,1,2.31,2.066,2.274,2.274,0,0,1-2.41,2.416,2.231,2.231,0,0,1-2.067-2.214A2.041,2.041,0,0,1,188.012,577.2Z" transform="translate(-141.925 -550.726)" fill="#242869"/>
          <path id="Trazado_102935" data-name="Trazado 102935" d="M195.8,597.458a7.148,7.148,0,0,1-.843,0,1.846,1.846,0,0,1-1.474-2.713,2.3,2.3,0,1,1,4.065,2.13,1.146,1.146,0,0,1-1,.591c-.249,0-.5,0-.749,0Z" transform="translate(-140.893 -548.485)" fill="#242869"/>
          <path id="Trazado_102936" data-name="Trazado 102936" d="M156.7,562.851a2.7,2.7,0,0,1,2.6,1.907,1.643,1.643,0,0,1-1.723,2.229,11.8,11.8,0,0,1-2.179-.476.9.9,0,0,1-.459-.439,2.183,2.183,0,0,1-.014-2.231A1.757,1.757,0,0,1,156.7,562.851Z" transform="translate(-146.266 -552.722)" fill="#242869"/>
          <path id="Trazado_102937" data-name="Trazado 102937" d="M166.932,569.394a2.369,2.369,0,0,1-2.218,2.236,2.576,2.576,0,0,1-2.384-2.219,2.634,2.634,0,0,1,2.253-2.268A2.552,2.552,0,0,1,166.932,569.394Z" transform="translate(-145.194 -552.124)" fill="#242869"/>
          <path id="Trazado_102938" data-name="Trazado 102938" d="M227.3,581a2.668,2.668,0,0,1-2.247-2.274,2.564,2.564,0,0,1,2.272-2.332,2.516,2.516,0,0,1,2.191,2.293A2.687,2.687,0,0,1,227.3,581Z" transform="translate(-136.474 -550.837)" fill="#242869"/>
          <path id="Trazado_102939" data-name="Trazado 102939" d="M170.27,599.082a2.372,2.372,0,0,1,2.232,2.308,2.663,2.663,0,0,1-2.329,2.187,2.43,2.43,0,0,1-2.132-2.324A2.257,2.257,0,0,1,170.27,599.082Z" transform="translate(-144.4 -547.683)" fill="#242869"/>
          <path id="Trazado_102940" data-name="Trazado 102940" d="M179.007,555.464a2.377,2.377,0,0,1,2.245,2.211,2.239,2.239,0,1,1-4.479,0A2.356,2.356,0,0,1,179.007,555.464Z" transform="translate(-143.186 -553.747)" fill="#242869"/>
          <path id="Trazado_102941" data-name="Trazado 102941" d="M169.015,611.635a2.159,2.159,0,1,1,4.31-.042,2.4,2.4,0,0,1-2.125,2.346A2.459,2.459,0,0,1,169.015,611.635Z" transform="translate(-144.266 -546.26)" fill="#242869"/>
          <path id="Trazado_102942" data-name="Trazado 102942" d="M168,591.834a2.248,2.248,0,1,1,.132,4.493,2.249,2.249,0,0,1-.132-4.493Z" transform="translate(-144.698 -548.691)" fill="#242869"/>
          <path id="Trazado_102943" data-name="Trazado 102943" d="M166.393,558.188a2.28,2.28,0,0,1,2.153-2.255,2.422,2.422,0,0,1,2.31,2.149,2.675,2.675,0,0,1-2.283,2.342A2.282,2.282,0,0,1,166.393,558.188Z" transform="translate(-144.629 -553.682)" fill="#242869"/>
          <path id="Trazado_102944" data-name="Trazado 102944" d="M224.376,566.98a2.061,2.061,0,0,1,2.179,2.07,2.387,2.387,0,0,1-2.335,2.226,2.221,2.221,0,0,1-2.146-2.262A2.07,2.07,0,0,1,224.376,566.98Z" transform="translate(-136.888 -552.147)" fill="#242869"/>
          <path id="Trazado_102945" data-name="Trazado 102945" d="M216.921,567.339a2.228,2.228,0,1,1,.01-4.456,2.426,2.426,0,0,1,2.207,2.254A2.282,2.282,0,0,1,216.921,567.339Z" transform="translate(-137.916 -552.716)" fill="#242869"/>
          <path id="Trazado_102946" data-name="Trazado 102946" d="M159.882,594.961a2.165,2.165,0,1,1,0,4.326,2.37,2.37,0,0,1-2.2-2.033A2.221,2.221,0,0,1,159.882,594.961Z" transform="translate(-145.84 -548.256)" fill="#242869"/>
          <path id="Trazado_102947" data-name="Trazado 102947" d="M224.225,585.782a2.49,2.49,0,0,1-2.276,2.312,2.4,2.4,0,0,1-2.165-2.185,2.365,2.365,0,0,1,2.14-2.3A2.464,2.464,0,0,1,224.225,585.782Z" transform="translate(-137.207 -549.834)" fill="#242869"/>
          <path id="Trazado_102948" data-name="Trazado 102948" d="M222.458,595.947a2.434,2.434,0,0,1-2.3,2.174,2.528,2.528,0,0,1-2.2-2.291,2.251,2.251,0,0,1,4.5.116Z" transform="translate(-137.46 -548.434)" fill="#242869"/>
          <path id="Trazado_102949" data-name="Trazado 102949" d="M192.575,560.179a2.186,2.186,0,0,1,2.15-2.255,2.369,2.369,0,0,1,2.153,2.309,2.305,2.305,0,0,1-2.271,2.176A2.067,2.067,0,0,1,192.575,560.179Z" transform="translate(-140.989 -553.405)" fill="#242869"/>
          <path id="Trazado_102950" data-name="Trazado 102950" d="M211.093,592.963a2.407,2.407,0,0,1-2.165,2.181,2.221,2.221,0,1,1-.006-4.437A2.321,2.321,0,0,1,211.093,592.963Z" transform="translate(-139.039 -548.848)" fill="#242869"/>
          <path id="Trazado_102951" data-name="Trazado 102951" d="M180.6,580.478a2.089,2.089,0,0,1,2.291,1.96,2.408,2.408,0,0,1-2.237,2.335,2.252,2.252,0,0,1-2.211-2.316A2.007,2.007,0,0,1,180.6,580.478Z" transform="translate(-142.954 -550.27)" fill="#242869"/>
          <path id="Trazado_102952" data-name="Trazado 102952" d="M200.022,576.888a2.127,2.127,0,0,1-2.14,2.139,2.238,2.238,0,0,1,.11-4.474A2.129,2.129,0,0,1,200.022,576.888Z" transform="translate(-140.553 -551.094)" fill="#242869"/>
          <path id="Trazado_102953" data-name="Trazado 102953" d="M197.295,587.261c-1.452-.014-2.409-.851-2.374-2.08a2.205,2.205,0,0,1,2.182-2.229,2.378,2.378,0,0,1,2.264,2.2A2.3,2.3,0,0,1,197.295,587.261Z" transform="translate(-140.663 -549.926)" fill="#242869"/>
          <path id="Trazado_102954" data-name="Trazado 102954" d="M214.2,606.868a2.428,2.428,0,0,1-2.476-2.088,2.659,2.659,0,0,1,2.285-2.238,2.616,2.616,0,0,1,2.309,2.219A2.388,2.388,0,0,1,214.2,606.868Z" transform="translate(-138.327 -547.202)" fill="#242869"/>
          <path id="Trazado_102955" data-name="Trazado 102955" d="M208.24,610.3a2.129,2.129,0,0,1,2.162,2.209,2.327,2.327,0,0,1-2.07,2.27,2.4,2.4,0,0,1-2.236-2.325A2.208,2.208,0,0,1,208.24,610.3Z" transform="translate(-139.11 -546.124)" fill="#242869"/>
          <path id="Trazado_102956" data-name="Trazado 102956" d="M176.636,565.714a2.3,2.3,0,0,1-2.235,2.108,2.266,2.266,0,0,1-2.226-2.2,2.232,2.232,0,1,1,4.46.095Z" transform="translate(-143.826 -552.648)" fill="#242869"/>
          <path id="Trazado_102957" data-name="Trazado 102957" d="M162,602.9a2.181,2.181,0,0,1,2.107,2.186,2.459,2.459,0,0,1-2.2,2.247,2.845,2.845,0,0,1-2.252-2.316A2.429,2.429,0,0,1,162,602.9Z" transform="translate(-145.566 -547.153)" fill="#242869"/>
          <path id="Trazado_102958" data-name="Trazado 102958" d="M160.377,580.175a2.117,2.117,0,0,1-2.22-2.053,2.462,2.462,0,0,1,2.236-2.246,2.393,2.393,0,0,1,2.255,2.305A2.106,2.106,0,0,1,160.377,580.175Z" transform="translate(-145.774 -550.91)" fill="#242869"/>
          <path id="Trazado_102959" data-name="Trazado 102959" d="M186.785,610.3a2.054,2.054,0,0,1,2.2,2.053,2.409,2.409,0,0,1-2.161,2.411,2.633,2.633,0,0,1-2.127-2.4A2.035,2.035,0,0,1,186.785,610.3Z" transform="translate(-142.085 -546.124)" fill="#242869"/>
          <path id="Trazado_102960" data-name="Trazado 102960" d="M179.736,604.042a2.264,2.264,0,0,1,2.153,2.106,2.4,2.4,0,0,1-2.267,2.187,1.939,1.939,0,0,1-2.041-2.232C177.6,604.669,178.287,604.016,179.736,604.042Z" transform="translate(-143.074 -546.994)" fill="#242869"/>
          <path id="Trazado_102961" data-name="Trazado 102961" d="M179.766,592.67a2.245,2.245,0,0,1,2.3,2.115,2.425,2.425,0,0,1-2.291,2.19,2.369,2.369,0,0,1-2.17-2.293A2.088,2.088,0,0,1,179.766,592.67Z" transform="translate(-143.07 -548.575)" fill="#242869"/>
          <path id="Trazado_102962" data-name="Trazado 102962" d="M188.623,603.744a2.033,2.033,0,0,1-2.13-2.1,2.3,2.3,0,0,1,2.225-2.212,2.093,2.093,0,0,1,2.067,2.2A1.917,1.917,0,0,1,188.623,603.744Z" transform="translate(-141.835 -547.635)" fill="#242869"/>
          <path id="Trazado_102963" data-name="Trazado 102963" d="M207.5,584.789a2.082,2.082,0,0,1-2.23-2.224,2.007,2.007,0,0,1,2.049-2.086,2.073,2.073,0,0,1,2.256,1.993A2.184,2.184,0,0,1,207.5,584.789Z" transform="translate(-139.224 -550.27)" fill="#242869"/>
          <path id="Trazado_102964" data-name="Trazado 102964" d="M207.386,563.677a2.141,2.141,0,0,1,2.2,2.183,2.259,2.259,0,0,1-2.193,2.124,2.447,2.447,0,0,1-2.254-2.008A2.35,2.35,0,0,1,207.386,563.677Z" transform="translate(-139.243 -552.606)" fill="#242869"/>
          <path id="Trazado_102965" data-name="Trazado 102965" d="M211.578,576.46a2.451,2.451,0,0,1,1.4-2.231,2.082,2.082,0,0,1,2.332.445,2.009,2.009,0,0,1-.124,3.159,2.072,2.072,0,0,1-3.119-.231A3.78,3.78,0,0,1,211.578,576.46Z" transform="translate(-138.347 -551.164)" fill="#242869"/>
          <path id="Trazado_102966" data-name="Trazado 102966" d="M199.871,569.4a2.227,2.227,0,0,1-2.221,2.39,2.441,2.441,0,0,1-2.1-2.271,2.243,2.243,0,0,1,2.272-2.149A2.207,2.207,0,0,1,199.871,569.4Z" transform="translate(-140.575 -552.093)" fill="#242869"/>
          <path id="Trazado_102967" data-name="Trazado 102967" d="M200.184,609.281a2.135,2.135,0,0,1-4.267.161c.043-1.388.683-2.261,2.039-2.273A2.069,2.069,0,0,1,200.184,609.281Z" transform="translate(-140.525 -546.559)" fill="#242869"/>
          <path id="Trazado_102968" data-name="Trazado 102968" d="M148.752,582.949a2.048,2.048,0,0,1,2.025-1.989,2.3,2.3,0,0,1,2.285,2.144,2.15,2.15,0,0,1-2.2,2.177A2.072,2.072,0,0,1,148.752,582.949Z" transform="translate(-147.082 -550.203)" fill="#242869"/>
          <path id="Trazado_102969" data-name="Trazado 102969" d="M203.125,599.6a2.289,2.289,0,0,1,2.161,2.156,2.249,2.249,0,0,1-2.1,2.305,2.442,2.442,0,0,1-2.2-2.164A2.373,2.373,0,0,1,203.125,599.6Z" transform="translate(-139.82 -547.611)" fill="#242869"/>
          <path id="Trazado_102970" data-name="Trazado 102970" d="M180.569,613.411a2.039,2.039,0,0,1,2.144,2.1,2.156,2.156,0,1,1-4.3-.122A2.038,2.038,0,0,1,180.569,613.411Z" transform="translate(-142.959 -545.691)" fill="#242869"/>
          <path id="Trazado_102971" data-name="Trazado 102971" d="M187.734,587.247a1.979,1.979,0,0,1,2.074,2.046,1.947,1.947,0,0,1-2.154,2.23,2.182,2.182,0,0,1-2.148-2.048A2.388,2.388,0,0,1,187.734,587.247Z" transform="translate(-141.972 -549.329)" fill="#242869"/>
          <path id="Trazado_102972" data-name="Trazado 102972" d="M151.406,571.6c.032,1.445-1.026,2-2.252,2.078-.842.052-1.85-1.089-1.868-2.018a2.136,2.136,0,0,1,2.12-2.043A1.907,1.907,0,0,1,151.406,571.6Z" transform="translate(-147.286 -551.779)" fill="#242869"/>
          <path id="Trazado_102973" data-name="Trazado 102973" d="M158.716,555.661a1.735,1.735,0,0,1-2.02,1.882,1.273,1.273,0,0,1-1.245-1.269c-.018-.186-.009-.374-.014-.56-.026-1.117.542-1.751,1.575-1.756A1.623,1.623,0,0,1,158.716,555.661Z" transform="translate(-146.152 -553.957)" fill="#242869"/>
        </g>
      </g>
      <path id="Trazado_102974" data-name="Trazado 102974" d="M376.582,536.17a3.091,3.091,0,0,1-.35.661c-1.534,1.724-2.01,3.993-3.082,5.956a27.212,27.212,0,0,1-7.634,9.107,21.322,21.322,0,0,1-6.751,3.45,5.015,5.015,0,0,1-4.1-.444,1.415,1.415,0,0,1-.8-1.418,5.4,5.4,0,0,0-.41-2.55,1.427,1.427,0,0,1,.038-1.3c.047-.084.076-.178.122-.263a6.859,6.859,0,0,0,.769-4.435,7.325,7.325,0,0,1,2.084-5.92,1.291,1.291,0,0,1,.37-.3,12.552,12.552,0,0,0,5.09-5,3.072,3.072,0,0,1,3.309-1.623,6.112,6.112,0,0,0,4.095-.763,4.265,4.265,0,0,1,2.678-.62,3.118,3.118,0,0,1,2.468,1.309c.214.315.531.56.77.862.456.574.89,1.166,1.332,1.751Z" transform="translate(29.591 3.605)" fill="#ec8e1d"/>
      <g id="Grupo_56277" data-name="Grupo 56277" transform="translate(493.615 635.832)">
        <g id="Grupo_56276" data-name="Grupo 56276" transform="translate(1.408)">
          <g id="Grupo_56275" data-name="Grupo 56275">
            <path id="Trazado_102975" data-name="Trazado 102975" d="M495.9,688.784c-.557-.432-1.116-.86-1.669-1.3a1.663,1.663,0,0,1-.337-.338c-.128-.18-.2-.4-.342-.57a3.921,3.921,0,0,1-.673-2.945,1.144,1.144,0,0,1,.142-.459,6.7,6.7,0,0,1,.71-1.154,5.014,5.014,0,0,1,1.229-1.117,4.358,4.358,0,0,1,4.944.633,3.975,3.975,0,0,1,1.123,3.536,3.382,3.382,0,0,1-2.05,2.942c-.282.129-.452.506-.673.769Z" transform="translate(-446.034 -611.412)" fill="#ec8e1d"/>
            <path id="Trazado_102976" data-name="Trazado 102976" d="M516.4,619.833c.339.154.677.313,1.021.459.175.074.4.076.535.193a4.827,4.827,0,0,1,1.652,1.851.94.94,0,0,0,.2.343,2.515,2.515,0,0,1,.068,2.794c-.334.469-.606.985-.965,1.433a6.925,6.925,0,0,1-1.034.991,1.01,1.01,0,0,1-.573.191c-.8.025-1.6.057-2.4.006a2.555,2.555,0,0,1-1.022-.379,6,6,0,0,1-1.122-.792,2.407,2.407,0,0,1-.386-.713,4.748,4.748,0,0,1-.337-3.123,3.662,3.662,0,0,1,.476-1.4,8.063,8.063,0,0,1,1.377-1.313.768.768,0,0,1,.474-.065,1.39,1.39,0,0,0,1.144-.47Z" transform="translate(-443.383 -619.833)" fill="#ec8e1d"/>
            <path id="Trazado_102977" data-name="Trazado 102977" d="M482.972,619.833c.046.368.33.411.614.441a3.92,3.92,0,0,1,.792.066,1.958,1.958,0,0,1,.577.406c.075.062.1.194.178.244a3.486,3.486,0,0,1,1.444,3.206,2.491,2.491,0,0,1-.475,1.759c-.009.011-.025.024-.025.035,0,1.169-1.208,1.263-1.759,1.947-.137.17-.555.149-.845.154-.8.01-1.6.01-2.4-.039a1.335,1.335,0,0,1-.623-.345c-.182-.143-.3-.4-.493-.5a1.778,1.778,0,0,1-.847-1.025,12.74,12.74,0,0,0-.694-1.338,1.356,1.356,0,0,1-.077-1.276,7.1,7.1,0,0,1,1.8-2.763,2.521,2.521,0,0,1,1.087-.521,1.273,1.273,0,0,0,.86-.454Z" transform="translate(-448.068 -619.833)" fill="#ec8e1d"/>
            <path id="Trazado_102978" data-name="Trazado 102978" d="M451.748,678.238c.174-.167.42-.3.508-.506a8.029,8.029,0,0,1,1.82-2.541.884.884,0,0,1,.541-.237c.964-.023,1.93-.049,2.89.011a2.244,2.244,0,0,1,.914.454,9.707,9.707,0,0,1,.911.667.833.833,0,0,1,.281.36q.313,1.017.577,2.05a1.141,1.141,0,0,1,0,.526c-.148.648-.3,1.3-.491,1.932a1.492,1.492,0,0,1-.351.55c-.313.341-.646.664-.986.978a.715.715,0,0,1-.384.2,10.115,10.115,0,0,1-3.083.136,2.692,2.692,0,0,1-1.71-1.214c-.445-.626-.829-1.3-1.245-1.944a.979.979,0,0,0-.188-.173Z" transform="translate(-451.748 -612.173)" fill="#ec8e1d"/>
            <path id="Trazado_102979" data-name="Trazado 102979" d="M515.752,636.232c-.157.682-.307,1.368-.482,2.046a.853.853,0,0,1-.254.344,5.434,5.434,0,0,0-.729.7,1.173,1.173,0,0,1-.818.526,13.638,13.638,0,0,1-1.345.284,3.876,3.876,0,0,1-3.5-1.195,3.945,3.945,0,0,1-1.035-3.919,3.631,3.631,0,0,1,1.623-2.141c.265-.162.516-.345.772-.523a1.986,1.986,0,0,1,1.422-.385,3.58,3.58,0,0,0,.663,0,1.513,1.513,0,0,1,1.186.392,2.569,2.569,0,0,0,.541.383C515.524,633.651,515.656,634.779,515.752,636.232Z" transform="translate(-444.008 -618.148)" fill="#ec8e1d"/>
            <path id="Trazado_102980" data-name="Trazado 102980" d="M496.4,641.181c0-.222-.008-.444,0-.665a3.319,3.319,0,0,1,1.841-2.939,6.157,6.157,0,0,1,.648-.384,6.57,6.57,0,0,1,1.113-.343,2.309,2.309,0,0,1,.879-.026,4.8,4.8,0,0,1,1.205.384,9.541,9.541,0,0,1,1.134.762.744.744,0,0,1,.18.188c.268.391.526.787.8,1.177a2.012,2.012,0,0,1,.394,1.549,2.078,2.078,0,0,0-.013.576,1.066,1.066,0,0,1-.449,1.164.355.355,0,0,0-.159.206,2.752,2.752,0,0,1-1.288,1.639,3.911,3.911,0,0,1-1.541.509,3.419,3.419,0,0,1-2.049-.173.518.518,0,0,0-.167-.056,1.442,1.442,0,0,1-1.342-.833.247.247,0,0,0-.092-.1C496.481,643.207,496.532,642.157,496.4,641.181Z" transform="translate(-445.54 -617.475)" fill="#ec8e1d"/>
            <path id="Trazado_102981" data-name="Trazado 102981" d="M508.947,656.267c.146-.55.267-1.109.448-1.649a1.79,1.79,0,0,1,1-1.072,5.1,5.1,0,0,0,.853-.557,3.237,3.237,0,0,1,3.419-.13c.437.271.88.531,1.32.8a.386.386,0,0,1,.139.1,5.98,5.98,0,0,1,1.2,2.821,3.088,3.088,0,0,1-.345,1.294,5.032,5.032,0,0,1-1.448,2.09,2.036,2.036,0,0,1-.6.331,13.974,13.974,0,0,1-1.556.357,2.508,2.508,0,0,1-.819-.026c-.42-.072-.836-.18-1.25-.288a1.45,1.45,0,0,1-.53-.212,3.9,3.9,0,0,1-1.724-2.948c-.01-.294,0-.59,0-.885Z" transform="translate(-443.796 -615.301)" fill="#ec8e1d"/>
            <path id="Trazado_102982" data-name="Trazado 102982" d="M453.659,654.517c.147-.551.267-1.111.448-1.649a1.789,1.789,0,0,1,1-1.072,5.135,5.135,0,0,0,.852-.557,3.241,3.241,0,0,1,3.421-.131c.436.271.879.532,1.319.8a.39.39,0,0,1,.14.1,5.984,5.984,0,0,1,1.2,2.821,3.087,3.087,0,0,1-.345,1.294,5.029,5.029,0,0,1-1.447,2.09,2.035,2.035,0,0,1-.6.33,14.317,14.317,0,0,1-1.556.358,2.508,2.508,0,0,1-.819-.026c-.421-.072-.837-.18-1.251-.289a1.423,1.423,0,0,1-.528-.211,3.9,3.9,0,0,1-1.725-2.948c-.01-.295,0-.59,0-.885Z" transform="translate(-451.482 -615.544)" fill="#ec8e1d"/>
            <path id="Trazado_102983" data-name="Trazado 102983" d="M521.166,644.511c0,.327-.01.654,0,.98.017.44-.036.835-.5,1.038a.205.205,0,0,0-.1.087,4.276,4.276,0,0,1-2.3,1.737,2.234,2.234,0,0,1-1.242.222,5.218,5.218,0,0,1-3-1.575,3.642,3.642,0,0,1-.81-3.067,8.337,8.337,0,0,1,.178-1.318,2.186,2.186,0,0,1,.426-.736,4.845,4.845,0,0,1,.57-.574,2.146,2.146,0,0,1,.564-.473,5.877,5.877,0,0,1,4.749.029,1.177,1.177,0,0,1,.275.216,1.363,1.363,0,0,1,.108.141A3.7,3.7,0,0,1,521.166,644.511Z" transform="translate(-443.207 -616.981)" fill="#ec8e1d"/>
            <path id="Trazado_102984" data-name="Trazado 102984" d="M502.057,626.856a3.229,3.229,0,0,1-.886,2.631,5.82,5.82,0,0,1-1.177.821c-.147.1-.327.142-.472.24a2.435,2.435,0,0,1-2.647.137c-.486-.246-1-.441-1.461-.731a2.365,2.365,0,0,1-.615-.722c-.249-.382-.466-.785-.679-1.188a1.853,1.853,0,0,1-.262-.652,2.751,2.751,0,0,1,.419-2.312,6.617,6.617,0,0,0,.554-.8,3.379,3.379,0,0,1,3.664-1.512,4.74,4.74,0,0,1,1.927.621A3.344,3.344,0,0,1,502,625.942C502.013,626.209,502.033,626.474,502.057,626.856Z" transform="translate(-445.902 -619.435)" fill="#ec8e1d"/>
            <path id="Trazado_102985" data-name="Trazado 102985" d="M478.229,665.191c-.342,0-.579,0-.817,0-.4,0-.811.022-1.034-.427a.394.394,0,0,0-.21-.159,3.846,3.846,0,0,1-1.672-1.723,2.058,2.058,0,0,1-.221-1.01,9.58,9.58,0,0,1,.011-1.817,2.94,2.94,0,0,1,.489-1.148,8.888,8.888,0,0,1,.9-1.035.84.84,0,0,1,.261-.237c1.177-.479,2.357-.924,3.639-.344.195.088.47.025.64.137a4.112,4.112,0,0,1,1.867,2.094c.117.36.17.739.252,1.111a.945.945,0,0,1,.066.346,5.2,5.2,0,0,1-.839,2.534,8.412,8.412,0,0,1-1.672,1.417C479.328,665.328,478.714,665.119,478.229,665.191Z" transform="translate(-448.621 -614.664)" fill="#ec8e1d"/>
            <path id="Trazado_102986" data-name="Trazado 102986" d="M465.514,673.4c-.343,0-.58,0-.818,0-.4,0-.811.022-1.034-.427a.393.393,0,0,0-.21-.159,3.852,3.852,0,0,1-1.672-1.723,2.071,2.071,0,0,1-.221-1.01,9.58,9.58,0,0,1,.013-1.817,2.942,2.942,0,0,1,.487-1.149,8.975,8.975,0,0,1,.9-1.035.836.836,0,0,1,.261-.236c1.177-.479,2.357-.925,3.639-.344.195.088.47.025.641.136a4.117,4.117,0,0,1,1.866,2.095,11.365,11.365,0,0,1,.252,1.111.921.921,0,0,1,.066.346,5.192,5.192,0,0,1-.839,2.533,8.358,8.358,0,0,1-1.671,1.417C466.613,673.534,466,673.325,465.514,673.4Z" transform="translate(-450.389 -613.523)" fill="#ec8e1d"/>
            <path id="Trazado_102987" data-name="Trazado 102987" d="M482.105,674.813c-.384-.986.423-1.756.957-2.613.079-.126.255-.189.385-.285.292-.216.571-.452.876-.646a1.294,1.294,0,0,1,.6-.226c.711-.027,1.423-.016,2.135-.006a.829.829,0,0,1,.467.1c.624.481,1.237.978,1.839,1.486a1.975,1.975,0,0,1,.617,1.24,3.317,3.317,0,0,1-.03,2.211c-.055.109,0,.267-.032.394a1.906,1.906,0,0,1-.23.747c-.4.493-.858.937-1.3,1.4a.4.4,0,0,1-.186.117c-.73.167-1.456.368-2.195.469a2.9,2.9,0,0,1-.99-.2c-.114-.027-.218-.126-.328-.129-1.383-.03-1.723-1.294-2.455-2.086a1.013,1.013,0,0,1-.126-.593C482.092,675.8,482.105,675.4,482.105,674.813Z" transform="translate(-447.541 -612.716)" fill="#ec8e1d"/>
            <path id="Trazado_102988" data-name="Trazado 102988" d="M462.717,655.788c-.384-.986.423-1.756.958-2.613.079-.125.255-.189.384-.285.292-.216.571-.452.877-.646a1.274,1.274,0,0,1,.6-.224c.711-.027,1.423-.017,2.133-.007a.838.838,0,0,1,.467.1c.625.481,1.237.978,1.84,1.488a1.97,1.97,0,0,1,.618,1.239,3.327,3.327,0,0,1-.03,2.212c-.056.108,0,.265-.033.393a1.935,1.935,0,0,1-.229.748c-.4.493-.859.936-1.3,1.4a.409.409,0,0,1-.187.118c-.729.166-1.456.367-2.194.468a2.879,2.879,0,0,1-.991-.2c-.113-.027-.218-.125-.327-.129-1.384-.03-1.723-1.294-2.456-2.086a1.022,1.022,0,0,1-.126-.593C462.7,656.774,462.717,656.374,462.717,655.788Z" transform="translate(-450.237 -615.361)" fill="#ec8e1d"/>
            <path id="Trazado_102989" data-name="Trazado 102989" d="M462,628.538a9.654,9.654,0,0,1-.1,1.094,3.828,3.828,0,0,1-4.441,2.81c-.361-.077-.731-.122-1.087-.22a2.465,2.465,0,0,1-1.654-1.309c-.32-.663-.674-1.314-.926-2a1.967,1.967,0,0,1,.246-1.664c.285-.5.539-1.022.845-1.509a1.507,1.507,0,0,1,.558-.53,18.472,18.472,0,0,1,1.822-.813,1.538,1.538,0,0,1,.94-.143,14.725,14.725,0,0,1,2.532,1.133,3.064,3.064,0,0,1,1.246,2.706c.009.148,0,.3,0,.444Z" transform="translate(-451.478 -619.223)" fill="#ec8e1d"/>
            <path id="Trazado_102990" data-name="Trazado 102990" d="M456.854,636.836a2.216,2.216,0,0,1,1.908.579c.338.321.82.492,1.15.818a3.807,3.807,0,0,1,.746,1.571,5.759,5.759,0,0,1-.085,3.095,1.522,1.522,0,0,1-.385.607c-.131.156-.368.24-.459.41-.483.9-1.347.969-2.21,1.072a4.262,4.262,0,0,1-2.673-.429c-.1-.057-.245-.067-.32-.146-.907-.951-2.033-1.787-1.744-3.368a4.906,4.906,0,0,0,.014-1.019c-.014-.443-.032-.878.511-1.049a.226.226,0,0,0,.121-.124c.382-.991,1.378-1.313,2.13-1.878C455.856,636.748,456.414,636.871,456.854,636.836Z" transform="translate(-451.611 -617.472)" fill="#ec8e1d"/>
            <path id="Trazado_102991" data-name="Trazado 102991" d="M468.566,639.789c1.492-.432,2.343.68,3.31,1.433a2.277,2.277,0,0,1,.615,1.15,4.852,4.852,0,0,1-.041,2.885,3.393,3.393,0,0,1-2.872,2.488,6.8,6.8,0,0,1-2.7-.165.992.992,0,0,1-.466-.245,4.467,4.467,0,0,1-1.312-1.53c-.072-.2-.277-.341-.4-.519a4.881,4.881,0,0,1,.034-3.026c.625-.743,1.272-1.47,1.96-2.155a1.588,1.588,0,0,1,.851-.3A6.772,6.772,0,0,1,468.566,639.789Z" transform="translate(-449.978 -617.072)" fill="#ec8e1d"/>
            <path id="Trazado_102992" data-name="Trazado 102992" d="M497.739,669.892c-.412-1.489.689-2.344,1.443-3.309a2.475,2.475,0,0,1,1.934-.759,5.411,5.411,0,0,1,1.637.042c.724.2,1.627.188,1.947,1.131a.4.4,0,0,0,.257.219c.437.093.533.41.581.787.056.456.112.912.211,1.359a4.838,4.838,0,0,1-.091,1.606,3.084,3.084,0,0,1-1.139,1.923,2.53,2.53,0,0,1-.384.289c-.241.161-.49.314-.735.47-.1.064-.193.165-.3.185-1.083.189-2.171.393-3.133-.4-.158-.131-.36-.208-.518-.339-.282-.232-.557-.476-.817-.735a3.716,3.716,0,0,1-.583-.687,2.306,2.306,0,0,1-.3-.806A6.337,6.337,0,0,1,497.739,669.892Z" transform="translate(-445.366 -613.445)" fill="#ec8e1d"/>
            <path id="Trazado_102993" data-name="Trazado 102993" d="M481.408,652.878a3.389,3.389,0,0,1-2.772-.958,6.534,6.534,0,0,1-1.141-1.983,2.568,2.568,0,0,1,.183-2.506,3.843,3.843,0,0,1,2.316-2.268,12.456,12.456,0,0,1,1.414-.468,1.783,1.783,0,0,1,1.387.329c.449.312.933.575,1.4.853a2.459,2.459,0,0,1,1.2,1.879,6.089,6.089,0,0,1-.249,3.111,3.116,3.116,0,0,1-.794.965,2.475,2.475,0,0,1-1.231.808c-.563.139-1.131.255-1.7.382Z" transform="translate(-448.204 -616.381)" fill="#ec8e1d"/>
            <path id="Trazado_102994" data-name="Trazado 102994" d="M486.037,659.871a1.936,1.936,0,0,1,.551-1.815c.235-.279.343-.67.591-.929a3.487,3.487,0,0,1,1.128-.885,4.483,4.483,0,0,1,3.989.2,2.8,2.8,0,0,1,1.639,2.015.562.562,0,0,0,.039.126,4.388,4.388,0,0,1,0,2.718,2.8,2.8,0,0,1-1.2,1.81,12.462,12.462,0,0,1-2.588,1.058,1.356,1.356,0,0,1-.8-.175c-.574-.235-1.144-.485-1.691-.775a2.429,2.429,0,0,1-.685-.579c-.189-.222-.3-.513-.465-.755A2.492,2.492,0,0,1,486.037,659.871Z" transform="translate(-446.989 -614.823)" fill="#ec8e1d"/>
            <path id="Trazado_102995" data-name="Trazado 102995" d="M484.05,636.136c0-.163.014-.327,0-.489a1.86,1.86,0,0,1,.757-1.936,17.689,17.689,0,0,0,1.459-1.339,1.89,1.89,0,0,1,1.371-.411c.325.014.654-.021.977.01a1.289,1.289,0,0,1,.669.182c.73.585,1.432,1.205,2.135,1.822a2.5,2.5,0,0,1,.672,2.156,9.032,9.032,0,0,1-.252,1.572,2.425,2.425,0,0,1-.313.673c-.081.138-.245.229-.313.37a2.764,2.764,0,0,1-2.42,1.369,6.077,6.077,0,0,1-3.084-.456,1.078,1.078,0,0,1-.338-.277c-.1-.1-.19-.227-.284-.342C483.8,637.452,484.086,638.086,484.05,636.136Z" transform="translate(-447.26 -618.147)" fill="#ec8e1d"/>
            <path id="Trazado_102996" data-name="Trazado 102996" d="M518.259,678.844a2.247,2.247,0,0,1-.057.419,7.342,7.342,0,0,1-1.406,2.49,5.021,5.021,0,0,1-.685.673,2.277,2.277,0,0,1-.754.3,8.7,8.7,0,0,1-1,.162,2.6,2.6,0,0,1-.614.039,14.22,14.22,0,0,1-1.488-.223,1.781,1.781,0,0,1-.631-.335c-.174-.131-.282-.36-.466-.47-.921-.555-.939-1.551-1.193-2.422a3.02,3.02,0,0,1,.223-2.124,7.37,7.37,0,0,1,.257-.7,3.2,3.2,0,0,1,.552-.719,6.319,6.319,0,0,1,1-.794,1.632,1.632,0,0,1,.789-.229c.874-.016,1.747.026,2.621.028a.689.689,0,0,1,.715.409.851.851,0,0,0,.3.308C517.605,676.443,517.866,677.729,518.259,678.844Z" transform="translate(-443.669 -612.176)" fill="#ec8e1d"/>
            <path id="Trazado_102997" data-name="Trazado 102997" d="M497.243,647.255a4.411,4.411,0,0,1,2.688.915c1.074.677,1.145,1.844,1.572,2.836a1.257,1.257,0,0,1-.087.819c-.254.693-.549,1.37-.843,2.048a.878.878,0,0,1-.288.387,6.641,6.641,0,0,1-1.853,1.1,3.184,3.184,0,0,1-3.18-.538,7.579,7.579,0,0,0-.714-.513,1.552,1.552,0,0,1-.419-.386,4.7,4.7,0,0,1-.636-3.938,4.746,4.746,0,0,1,1.639-2.206,4.094,4.094,0,0,1,1.589-.489A2.936,2.936,0,0,1,497.243,647.255Z" transform="translate(-445.973 -616.022)" fill="#ec8e1d"/>
            <path id="Trazado_102998" data-name="Trazado 102998" d="M475.032,686.722c-1.116.288-2.176-.453-3.251-1.142a.574.574,0,0,1-.236-.254,18.05,18.05,0,0,1-.8-2.485,4.29,4.29,0,0,1,.264-1.459,3.951,3.951,0,0,1,1.612-2.312,4.548,4.548,0,0,1,1.586-.511,3.856,3.856,0,0,1,3.845,1.66,19.012,19.012,0,0,1,.842,1.9,1.3,1.3,0,0,1,.043.785c-.4,1.309-.707,2.656-2.155,3.324A2.888,2.888,0,0,1,475.032,686.722Z" transform="translate(-449.109 -611.679)" fill="#ec8e1d"/>
            <path id="Trazado_102999" data-name="Trazado 102999" d="M475.228,631.8a1.023,1.023,0,0,0,0,.221,2.961,2.961,0,0,1-.91,2.586,3.113,3.113,0,0,1-.739.529c-.134.087-.329.115-.418.23a1.439,1.439,0,0,1-1.306.51c-.3-.009-.591.017-.887.023a1.753,1.753,0,0,1-1.49-.536c-.009-.011-.018-.026-.032-.03a3.74,3.74,0,0,1-1.695-1.54,1.265,1.265,0,0,1-.295-.615,26.009,26.009,0,0,1,0-2.615,2.919,2.919,0,0,1,.372-1.018,3.267,3.267,0,0,1,2.989-1.8,9.6,9.6,0,0,1,1.724.066,2.433,2.433,0,0,1,1.713,1.007c.284.379.572.755.832,1.152a1.009,1.009,0,0,1,.135.5C475.24,630.912,475.228,631.356,475.228,631.8Z" transform="translate(-449.569 -618.735)" fill="#ec8e1d"/>
          </g>
        </g>
        <path id="Trazado_103000" data-name="Trazado 103000" d="M455.974,648.513a2.212,2.212,0,0,1-4.416-.2,2.658,2.658,0,0,1,2.221-2.2A2.37,2.37,0,0,1,455.974,648.513Z" transform="translate(-450.367 -616.18)"/>
        <path id="Trazado_103001" data-name="Trazado 103001" d="M452.643,624.536a2.2,2.2,0,0,1,2.258,2.124,2.517,2.517,0,0,1-2.239,2.235,2.446,2.446,0,0,1-2.149-2.513A2.393,2.393,0,0,1,452.643,624.536Z" transform="translate(-450.512 -619.179)"/>
        <path id="Trazado_103002" data-name="Trazado 103002" d="M456.651,688.435a2.4,2.4,0,0,1-2.231-1.947,2.187,2.187,0,1,1,4.351-.216,1.683,1.683,0,0,1-.222.885,4.637,4.637,0,0,1-1.01,1.067A2.353,2.353,0,0,1,456.651,688.435Z" transform="translate(-449.969 -610.912)"/>
        <path id="Trazado_103003" data-name="Trazado 103003" d="M515.555,687.329c.245.732-.261,1.251-.827,1.747a1.678,1.678,0,0,1-2.371.091,2.271,2.271,0,0,1-.3-.265,2.139,2.139,0,0,1,.85-3.693,1.418,1.418,0,0,1,.342-.095A2.472,2.472,0,0,1,515.555,687.329Z" transform="translate(-442.058 -610.758)"/>
        <path id="Trazado_103004" data-name="Trazado 103004" d="M482.38,639a2.3,2.3,0,0,1-2.181,2.215,2.575,2.575,0,0,1-2.223-2.2,2.636,2.636,0,0,1,2.141-2.185A2.254,2.254,0,0,1,482.38,639Z" transform="translate(-446.694 -617.469)"/>
        <path id="Trazado_103005" data-name="Trazado 103005" d="M479.373,675.332a2.04,2.04,0,0,1,2,2.367,2.323,2.323,0,0,1-1.393,1.823,2.09,2.09,0,0,1-1.155.124,2.6,2.6,0,0,1-1.728-2.449A2.359,2.359,0,0,1,479.373,675.332Z" transform="translate(-446.818 -612.117)"/>
        <path id="Trazado_103006" data-name="Trazado 103006" d="M493.982,676.883a2.185,2.185,0,0,1,.066-4.365,2.054,2.054,0,0,1,2.16,2.05A2.029,2.029,0,0,1,493.982,676.883Z" transform="translate(-444.752 -612.508)"/>
        <path id="Trazado_103007" data-name="Trazado 103007" d="M510.219,643.568a2.382,2.382,0,0,1-2.228,2.121,2.3,2.3,0,0,1-2.162-2.137,2.683,2.683,0,0,1,2.055-2.285A2.642,2.642,0,0,1,510.219,643.568Z" transform="translate(-442.821 -616.853)"/>
        <path id="Trazado_103008" data-name="Trazado 103008" d="M518.125,667.808a2.108,2.108,0,1,1,2.166-2.087A2.041,2.041,0,0,1,518.125,667.808Z" transform="translate(-441.407 -613.749)"/>
        <path id="Trazado_103009" data-name="Trazado 103009" d="M464.609,681.117a2.094,2.094,0,0,1,2.043,1.458,2,2,0,0,1-.883,2.211c-.571.424-1.152.78-1.821.453a3.434,3.434,0,0,1-1.343-1.1,2.564,2.564,0,0,1-.218-1.444c.038-.809.922-1.461,1.992-1.566C464.483,681.123,464.587,681.118,464.609,681.117Z" transform="translate(-448.862 -611.313)"/>
        <path id="Trazado_103010" data-name="Trazado 103010" d="M488.407,631.869a2.6,2.6,0,0,1-2.121-2.28,2.308,2.308,0,0,1,2.3-2.1,2.249,2.249,0,0,1,2.08,2.138A2.47,2.47,0,0,1,488.407,631.869Z" transform="translate(-445.538 -618.768)"/>
        <path id="Trazado_103011" data-name="Trazado 103011" d="M514.91,653.315c-1.4-.006-2.066-.937-2.137-2.271a2.088,2.088,0,0,1,2.08-2.111A2.4,2.4,0,0,1,517,651.127,2.27,2.27,0,0,1,514.91,653.315Z" transform="translate(-441.856 -615.787)"/>
        <path id="Trazado_103012" data-name="Trazado 103012" d="M479.159,645.274a2.457,2.457,0,0,1-2.237,2.174,2.2,2.2,0,0,1-2.029-1.836c.046-1.547.866-2.573,2.039-2.55A2.461,2.461,0,0,1,479.159,645.274Z" transform="translate(-447.122 -616.604)"/>
        <path id="Trazado_103013" data-name="Trazado 103013" d="M465.168,633.965a2.173,2.173,0,0,1-1.968-1.891,2.518,2.518,0,0,1,2.16-2.466c.883-.057,2.223,1.447,2.187,2.242A2.379,2.379,0,0,1,465.168,633.965Z" transform="translate(-448.748 -618.474)"/>
        <path id="Trazado_103014" data-name="Trazado 103014" d="M486.322,657.417a2.113,2.113,0,0,1-2.5,1.989,2.064,2.064,0,0,1-1.779-2.541,2.118,2.118,0,0,1,2.644-1.584,3.494,3.494,0,0,1,1.359,1.047C486.261,656.582,486.236,657.047,486.322,657.417Z" transform="translate(-446.136 -614.919)"/>
        <path id="Trazado_103015" data-name="Trazado 103015" d="M486.784,664.844a2.365,2.365,0,0,1,2.16,2.253,2.461,2.461,0,0,1-1.959,2.015c-1.552-.067-2.4-.817-2.316-2.063A2.1,2.1,0,0,1,486.784,664.844Z" transform="translate(-445.764 -613.576)"/>
        <path id="Trazado_103016" data-name="Trazado 103016" d="M479.58,671.987a2.237,2.237,0,0,1-2.173-2.05,2.42,2.42,0,0,1,2.174-2.252,2.542,2.542,0,0,1,2.2,2.3A2.174,2.174,0,0,1,479.58,671.987Z" transform="translate(-446.773 -613.18)"/>
        <path id="Trazado_103017" data-name="Trazado 103017" d="M462.366,625.313a2.387,2.387,0,0,1,2.2-2.262,2.609,2.609,0,0,1,2.178,2.261,2.144,2.144,0,0,1-2.262,1.982A1.993,1.993,0,0,1,462.366,625.313Z" transform="translate(-448.864 -619.386)"/>
        <path id="Trazado_103018" data-name="Trazado 103018" d="M481.391,632.05a2.241,2.241,0,0,1-2.189,2.23,2.438,2.438,0,0,1-2.114-2.12,2.392,2.392,0,0,1,2.16-2.258A2.289,2.289,0,0,1,481.391,632.05Z" transform="translate(-446.817 -618.433)"/>
        <path id="Trazado_103019" data-name="Trazado 103019" d="M487.816,643.5c-.008.957-.974,2.191-1.72,2.2-1.584.013-2.52-.828-2.493-2.239a2.408,2.408,0,0,1,1.963-2.155A2.344,2.344,0,0,1,487.816,643.5Z" transform="translate(-445.911 -616.849)"/>
        <path id="Trazado_103020" data-name="Trazado 103020" d="M521.532,675.066a1.931,1.931,0,0,1-2.092,2.027,2.288,2.288,0,0,1-2.223-2.168,2.513,2.513,0,0,1,2.3-2.095A2.229,2.229,0,0,1,521.532,675.066Z" transform="translate(-441.238 -612.465)"/>
        <path id="Trazado_103021" data-name="Trazado 103021" d="M504.719,620.619a2.008,2.008,0,0,1,2.074,2.111,2.316,2.316,0,0,1-2.239,2.07,2.189,2.189,0,0,1-2.087-2.065A2.053,2.053,0,0,1,504.719,620.619Z" transform="translate(-443.289 -619.726)"/>
        <path id="Trazado_103022" data-name="Trazado 103022" d="M520.293,633.517a2.448,2.448,0,0,1-2.232-1.915,1.923,1.923,0,0,1,1.059-2.01,2.224,2.224,0,0,1,2.695.377,1.788,1.788,0,0,1-.3,2.965A2.024,2.024,0,0,1,520.293,633.517Z" transform="translate(-441.126 -618.516)"/>
        <path id="Trazado_103023" data-name="Trazado 103023" d="M517.969,656.609a2.589,2.589,0,0,1,2.106-2.282,1.1,1.1,0,0,1,.732.1,2.8,2.8,0,0,1,1.657,1.9,1.74,1.74,0,0,1-.761,1.7,2.336,2.336,0,0,1-3.35-.5A4.918,4.918,0,0,1,517.969,656.609Z" transform="translate(-441.134 -615.041)"/>
        <path id="Trazado_103024" data-name="Trazado 103024" d="M499.5,681.327a2.169,2.169,0,0,1-2.1-2.08,2,2,0,0,1,2.191-2.128,2.231,2.231,0,0,1,2.138,2.188C501.7,680.215,500.514,681.484,499.5,681.327Z" transform="translate(-443.994 -611.869)"/>
        <path id="Trazado_103025" data-name="Trazado 103025" d="M501.723,662.268a2.22,2.22,0,0,1-2.263,2.049,1.979,1.979,0,0,1-2.113-2,2.558,2.558,0,0,1,2.106-2.234C500.468,660.042,501.869,661.355,501.723,662.268Z" transform="translate(-444.001 -614.238)"/>
        <path id="Trazado_103026" data-name="Trazado 103026" d="M453.578,633.25a1.85,1.85,0,0,1,1.907,1.032,1.913,1.913,0,0,1-.136,2.172,2.142,2.142,0,0,1-2.769.753,2.515,2.515,0,0,1-.851-3.108,1.74,1.74,0,0,1,1.362-.805C453.252,633.265,453.416,633.264,453.578,633.25Z" transform="translate(-450.376 -617.969)"/>
        <path id="Trazado_103027" data-name="Trazado 103027" d="M520.482,638.4a1.828,1.828,0,0,1-1.073,1.931,2.027,2.027,0,0,1-2.259-.223,2.2,2.2,0,0,1-.763-2.2,1.135,1.135,0,0,1,.189-.39,5.83,5.83,0,0,1,.534-.739,1.367,1.367,0,0,1,.528-.37A1.981,1.981,0,0,1,520.482,638.4Z" transform="translate(-441.36 -617.552)"/>
        <path id="Trazado_103028" data-name="Trazado 103028" d="M471.513,670.219c-.4-.107-.91-.1-1.188-.35a1.982,1.982,0,0,1-.912-1.411,2.292,2.292,0,0,1,2.136-2.506,2.218,2.218,0,0,1,2.108,2.01C473.576,669.587,472.952,670.183,471.513,670.219Z" transform="translate(-447.884 -613.421)"/>
        <path id="Trazado_103029" data-name="Trazado 103029" d="M506.938,678.444a2.469,2.469,0,0,1-2.19-2.315,2.174,2.174,0,0,1,2.467-1.89,2.025,2.025,0,0,1,1.857,2.234C509.039,677.457,507.8,678.652,506.938,678.444Z" transform="translate(-442.972 -612.27)"/>
        <path id="Trazado_103030" data-name="Trazado 103030" d="M488.12,654.422a1.645,1.645,0,0,1-1.494-1.238c-.055-.165-.185-.305-.249-.469-.054-.133-.13-.315-.081-.421a8.2,8.2,0,0,1,.88-1.657,1.731,1.731,0,0,1,1.56-.474,2.19,2.19,0,0,1,1.706,2.9A2.085,2.085,0,0,1,488.12,654.422Z" transform="translate(-445.539 -615.618)"/>
        <path id="Trazado_103031" data-name="Trazado 103031" d="M489.587,622.021a2.174,2.174,0,0,1,1.9-2.156A2.729,2.729,0,0,1,493.8,621.9a2.226,2.226,0,0,1-2.064,2.26C490.411,624.24,489.674,623.506,489.587,622.021Z" transform="translate(-445.08 -619.829)"/>
        <path id="Trazado_103032" data-name="Trazado 103032" d="M504.553,656.725a2.055,2.055,0,0,1,2.2,2.439,3.433,3.433,0,0,1-.551.966c-.022.036-.069.055-.1.084-1.263,1.143-2.042.883-3.1-.132a1.689,1.689,0,0,1-.28-2.248A1.931,1.931,0,0,1,504.553,656.725Z" transform="translate(-443.296 -614.704)"/>
        <path id="Trazado_103033" data-name="Trazado 103033" d="M482.859,686.664a2,2,0,0,1-2.138-2.238,2.482,2.482,0,0,1,1.891-2.122,1.048,1.048,0,0,1,.4,0c.773.149,2.025,1.236,1.932,2.117a2.279,2.279,0,0,1-.368,1.14C484.133,686.118,483.677,686.744,482.859,686.664Z" transform="translate(-446.314 -611.15)"/>
        <path id="Trazado_103034" data-name="Trazado 103034" d="M502.283,692.576c-1.31,0-2.06-.844-2.057-2.3a2.033,2.033,0,0,1,2.026-2.032,2.167,2.167,0,1,1,.031,4.333Z" transform="translate(-443.6 -610.322)"/>
        <path id="Trazado_103035" data-name="Trazado 103035" d="M494.356,670.215c-1.262-.06-1.817-.644-1.842-1.994a2.052,2.052,0,0,1,1.916-2.281,2.552,2.552,0,0,1,2.328,2.22,2.206,2.206,0,0,1-.915,1.657C495.494,670.118,494.862,670.093,494.356,670.215Z" transform="translate(-444.673 -613.423)"/>
        <path id="Trazado_103036" data-name="Trazado 103036" d="M489.311,689.334a1.976,1.976,0,0,1-1.742,2.2,1.78,1.78,0,0,1-1.8-.808,2.007,2.007,0,0,0-.183-.3,1.48,1.48,0,0,1-.186-1.884,2.347,2.347,0,0,1,1.966-1.406A2.077,2.077,0,0,1,489.311,689.334Z" transform="translate(-445.697 -610.477)"/>
        <path id="Trazado_103037" data-name="Trazado 103037" d="M472.2,652.549a1.878,1.878,0,0,1-2.212-1.874,2.441,2.441,0,0,1,1.991-2.3A2.353,2.353,0,0,1,474.3,650.7,2,2,0,0,1,472.2,652.549Z" transform="translate(-447.805 -615.865)"/>
        <path id="Trazado_103038" data-name="Trazado 103038" d="M456.161,624.853a1.821,1.821,0,0,1-1.5-.763,8.234,8.234,0,0,1-.6-1.033c-.06-.114-.134-.288-.09-.379a7.163,7.163,0,0,1,.962-1.747,1.779,1.779,0,0,1,1.668-.3c.915.156,1.308.824,1.729,1.5a.682.682,0,0,1,.071.341,2.882,2.882,0,0,1-1.59,2.244A5.581,5.581,0,0,1,456.161,624.853Z" transform="translate(-450.033 -619.731)"/>
        <path id="Trazado_103039" data-name="Trazado 103039" d="M473.523,676a1.861,1.861,0,0,1-2.155-2.01,2.321,2.321,0,0,1,2.035-2.159,2.1,2.1,0,0,1,2.135,2.143c0,.09,0,.179,0,.268a1.534,1.534,0,0,1-1.66,1.758C473.76,676,473.642,676,473.523,676Z" transform="translate(-447.612 -612.604)"/>
        <path id="Trazado_103040" data-name="Trazado 103040" d="M450.954,661.09a2.45,2.45,0,0,1,2.12-2.211,2.21,2.21,0,0,1,2.063,2.253,2.071,2.071,0,0,1-2.117,2.152A2.3,2.3,0,0,1,450.954,661.09Z" transform="translate(-450.451 -614.405)"/>
        <path id="Trazado_103041" data-name="Trazado 103041" d="M461.648,647.979c1.542.011,2.2.79,2.233,2.28a2.108,2.108,0,0,1-2.194,2,2.415,2.415,0,0,1-2.038-2.129A2.283,2.283,0,0,1,461.648,647.979Z" transform="translate(-449.242 -615.92)"/>
        <path id="Trazado_103042" data-name="Trazado 103042" d="M511.052,670.849a2.161,2.161,0,0,1,2.134-2.035,2.3,2.3,0,0,1,2.064,2.363,2.134,2.134,0,0,1-2.5,1.84A1.823,1.823,0,0,1,511.052,670.849Z" transform="translate(-442.096 -613.024)"/>
        <path id="Trazado_103043" data-name="Trazado 103043" d="M474.906,653.747a1.777,1.777,0,0,1,1.705.917,1.649,1.649,0,0,1,.026,2.127,2.2,2.2,0,0,1-2.407,1.1,2.334,2.334,0,0,1-1.435-2.655C472.944,654.261,473.645,653.732,474.906,653.747Z" transform="translate(-447.419 -615.119)"/>
        <path id="Trazado_103044" data-name="Trazado 103044" d="M502.246,634.8c.051-1.83.653-2.543,2.106-2.5a2.3,2.3,0,0,1,2.078,2.3,2.52,2.52,0,0,1-2.244,2A2.089,2.089,0,0,1,502.246,634.8Z" transform="translate(-443.32 -618.1)"/>
        <path id="Trazado_103045" data-name="Trazado 103045" d="M490.167,680.244a1.825,1.825,0,0,1,2.034,1.867,2.246,2.246,0,0,1-1.609,2.48,1.123,1.123,0,0,1-.4.016,2.638,2.638,0,0,1-2.043-1.824,1.526,1.526,0,0,1,.234-1.35c.14-.189.263-.39.391-.588A1.41,1.41,0,0,1,490.167,680.244Z" transform="translate(-445.287 -611.435)"/>
        <path id="Trazado_103046" data-name="Trazado 103046" d="M469.779,681.322a2.554,2.554,0,0,1-2.162-2.18,2.079,2.079,0,0,1,2.138-1.952c1.548-.065,2.094.706,2.193,2.121A2.069,2.069,0,0,1,469.779,681.322Z" transform="translate(-448.134 -611.859)"/>
        <path id="Trazado_103047" data-name="Trazado 103047" d="M493.975,635.692a2.174,2.174,0,0,1-2.008-2.3,2.142,2.142,0,0,1,2.2-2,2.038,2.038,0,0,1,1.938,1.836A2.165,2.165,0,0,1,493.975,635.692Z" transform="translate(-444.749 -618.226)"/>
        <path id="Trazado_103048" data-name="Trazado 103048" d="M476.568,625c-.025.251-.051.5-.075.752a1.692,1.692,0,0,1-2.039,1.534c-.175-.031-.347-.085-.523-.1a1.87,1.87,0,0,1-1-3.152c.3-.244.575-.51.885-.735a1.245,1.245,0,0,1,.531-.2A2.073,2.073,0,0,1,476.568,625Z" transform="translate(-447.47 -619.382)"/>
        <path id="Trazado_103049" data-name="Trazado 103049" d="M509.119,651.8c-.279.7-.33,1.5-1.178,1.831-.6.236-1.142.573-1.832.18a2.8,2.8,0,0,1-1.308-1.82,2.045,2.045,0,0,1,.329-1.33,2.074,2.074,0,0,1,1.846-.966,1.977,1.977,0,0,1,1.748,1.12A8.659,8.659,0,0,1,509.119,651.8Z" transform="translate(-442.968 -615.682)"/>
        <path id="Trazado_103050" data-name="Trazado 103050" d="M494.2,644.964a1.788,1.788,0,0,1,1.916,2.041,2.047,2.047,0,0,1-2.16,2.1,2.136,2.136,0,0,1-2.039-2.151A2.012,2.012,0,0,1,494.2,644.964Z" transform="translate(-444.756 -616.339)"/>
        <path id="Trazado_103051" data-name="Trazado 103051" d="M509.82,628.337c.067,0,.261,0,.451.027a1.532,1.532,0,0,1,1.473,1.549c0,.044.006.089.008.133a2.017,2.017,0,0,1-1.628,2.419,1.462,1.462,0,0,1-.779.04,2.844,2.844,0,0,1-1.769-2.059A2.038,2.038,0,0,1,509.82,628.337Z" transform="translate(-442.58 -618.651)"/>
        <path id="Trazado_103052" data-name="Trazado 103052" d="M469.223,690.682c-1.635-.072-2.054-.442-2.139-1.948a1.876,1.876,0,0,1,1.306-2.124,2.178,2.178,0,0,1,1.924,3.817A3.138,3.138,0,0,1,469.223,690.682Z" transform="translate(-448.209 -610.567)"/>
        <path id="Trazado_103053" data-name="Trazado 103053" d="M464.777,676.587c.2.736-.307,1.132-.945,1.447a3.142,3.142,0,0,1-.677.323,1.632,1.632,0,0,1-.944.032,2.8,2.8,0,0,1-1.587-1.968,1.9,1.9,0,0,1,1.021-1.894,2.164,2.164,0,0,1,2.332,0A1.854,1.854,0,0,1,464.777,676.587Z" transform="translate(-449.11 -612.276)"/>
        <path id="Trazado_103054" data-name="Trazado 103054" d="M507.179,664.746a2.173,2.173,0,0,1,.376-1.642,2.4,2.4,0,0,1,3.121,0c1.076,1.222.887,2.352-.633,3.4a1.571,1.571,0,0,1-1.888-.255c-.022-.021-.041-.052-.065-.058C507.208,666,507.133,665.338,507.179,664.746Z" transform="translate(-442.635 -613.898)"/>
        <path id="Trazado_103055" data-name="Trazado 103055" d="M473.969,638.757a2.288,2.288,0,0,1-2.109,2.131,2.68,2.68,0,0,1-2.269-2.2c-.032-.884,1.324-2.111,2.329-2.109A2.391,2.391,0,0,1,473.969,638.757Z" transform="translate(-447.86 -617.505)"/>
        <path id="Trazado_103056" data-name="Trazado 103056" d="M503.171,685.619a2.017,2.017,0,0,1,2.55-2.072,2.671,2.671,0,0,1,1.56,1.595,1.519,1.519,0,0,1-.064.982,6.786,6.786,0,0,1-.632,1.14.648.648,0,0,1-.232.2A2.049,2.049,0,0,1,503.171,685.619Z" transform="translate(-443.192 -610.989)"/>
        <path id="Trazado_103057" data-name="Trazado 103057" d="M463.174,635.931c.459.179,1.048.24,1.346.566a2.925,2.925,0,0,1,.707,1.566,2.358,2.358,0,0,1-2.12,2.218,2.907,2.907,0,0,1-1.567-.728,2.481,2.481,0,0,1-.633-1.453C460.811,637.12,462.053,636.035,463.174,635.931Z" transform="translate(-449.067 -617.595)"/>
        <path id="Trazado_103058" data-name="Trazado 103058" d="M497.037,638.6c0,.219.007.383,0,.546a1.456,1.456,0,0,1-1.661,1.587c-.237,0-.475-.006-.712-.013a1.176,1.176,0,0,1-1.166-.8,3.558,3.558,0,0,0-.22-.436,1.471,1.471,0,0,1,.181-2.087,1.96,1.96,0,0,1,2.206-.614,6.106,6.106,0,0,1,.868.443C497.1,637.557,497.018,638.128,497.037,638.6Z" transform="translate(-444.615 -617.493)"/>
        <path id="Trazado_103059" data-name="Trazado 103059" d="M452.513,671.781a4.33,4.33,0,0,1-.518.328,2.956,2.956,0,0,1-.474.126,1.427,1.427,0,0,1-.016-.5,6.466,6.466,0,0,1,.431-.96.591.591,0,0,1,.311-.278,2.208,2.208,0,0,1,2.751,1.6,1.5,1.5,0,0,1-.321,1.494,8.52,8.52,0,0,1-1.163,1.009,1.138,1.138,0,0,1-1.229.074,2.658,2.658,0,0,1-1.6-1.745,1.792,1.792,0,0,1,.049-.5,1.677,1.677,0,0,1,.533.072C451.825,672.778,452.3,672.557,452.513,671.781Z" transform="translate(-450.489 -612.801)"/>
        <path id="Trazado_103060" data-name="Trazado 103060" d="M460.149,661.313h-.466l-.043-.109a1.465,1.465,0,0,1,.362-.154.605.605,0,0,0,.539-.5.673.673,0,0,1,.827-.392,2.427,2.427,0,0,1,1.847,2.352,2.179,2.179,0,0,1-4.244.224.719.719,0,0,1,.622-.974,3.981,3.981,0,0,0,.62-.275Z" transform="translate(-449.341 -614.231)"/>
        <path id="Trazado_103061" data-name="Trazado 103061" d="M456.031,665.235a1.176,1.176,0,0,1,.223.052c.418.178.833.361,1.249.542.04.018.1.026.117.057a10.419,10.419,0,0,1,.837,2.01c.1.494-.406.843-.859,1.074-.039.019-.1.044-.126.026-.473-.357-.936-.023-1.406,0a1.8,1.8,0,0,1-.887-.186,2,2,0,0,1-.714-2.094,1.961,1.961,0,0,1,1.442-1.472A.57.57,0,0,1,456.031,665.235Z" transform="translate(-449.968 -613.521)"/>
        <path id="Trazado_103062" data-name="Trazado 103062" d="M467.124,662.716c0-.149-.008-.3,0-.445.046-.689.41-.956,1.091-.88a8.016,8.016,0,0,0,1.4.019c.757-.051,1.837,1.347,1.562,2.054a2.613,2.613,0,0,1-2.119,1.493,1.212,1.212,0,0,1-.627-.189,3.338,3.338,0,0,1-.964-.773,5.248,5.248,0,0,1-.466-1.237Z" transform="translate(-448.219 -614.057)"/>
        <path id="Trazado_103063" data-name="Trazado 103063" d="M456.119,652.163a2.37,2.37,0,0,0-2.195-2.4,2.658,2.658,0,0,0-2.221,2.2,2.212,2.212,0,0,0,4.416.2Zm-3.476-26.977a2.393,2.393,0,0,0-2.131,1.846,2.446,2.446,0,0,0,2.149,2.513,2.517,2.517,0,0,0,2.239-2.235A2.2,2.2,0,0,0,452.643,625.186Zm4.552,72.165a2.354,2.354,0,0,0,.887-.211,4.638,4.638,0,0,0,1.01-1.067,1.683,1.683,0,0,0,.222-.885,2.187,2.187,0,1,0-4.351.216A2.4,2.4,0,0,0,457.195,697.352Zm66.814-.951a2.472,2.472,0,0,0-2.3-2.214,1.418,1.418,0,0,0-.342.095,2.139,2.139,0,0,0-.85,3.693,2.271,2.271,0,0,0,.3.265,1.678,1.678,0,0,0,2.371-.091C523.748,697.651,524.254,697.133,524.009,696.4ZM486.2,641.36a2.254,2.254,0,0,0-2.263-2.165,2.636,2.636,0,0,0-2.141,2.185,2.575,2.575,0,0,0,2.223,2.2A2.3,2.3,0,0,0,486.2,641.36Zm-3.13,41.684a2.359,2.359,0,0,0-2.279,1.865,2.6,2.6,0,0,0,1.728,2.449,2.09,2.09,0,0,0,1.155-.124,2.323,2.323,0,0,0,1.393-1.823A2.04,2.04,0,0,0,483.068,683.044Zm16.674,1.16a2.029,2.029,0,0,0,2.226-2.315,2.054,2.054,0,0,0-2.16-2.05,2.185,2.185,0,0,0-.066,4.365Zm18.167-37.66a2.642,2.642,0,0,0-2.335-2.3,2.683,2.683,0,0,0-2.055,2.285,2.3,2.3,0,0,0,2.162,2.137A2.382,2.382,0,0,0,517.909,646.544Zm9.321,27.345a2.108,2.108,0,1,0-2.122-2.163A2.058,2.058,0,0,0,527.23,673.889Zm-60.971,15.745c-.023,0-.126.006-.229.016-1.071.1-1.955.758-1.992,1.566a2.564,2.564,0,0,0,.218,1.444,3.436,3.436,0,0,0,1.343,1.1c.67.327,1.251-.03,1.821-.453a2,2,0,0,0,.883-2.211A2.094,2.094,0,0,0,466.259,689.633Zm27.121-56.7a2.47,2.47,0,0,0,2.256-2.238,2.249,2.249,0,0,0-2.08-2.138,2.308,2.308,0,0,0-2.3,2.1A2.6,2.6,0,0,0,493.38,632.93Zm30.185,24.426a2.27,2.27,0,0,0,2.091-2.188,2.4,2.4,0,0,0-2.148-2.194,2.088,2.088,0,0,0-2.08,2.111C521.5,656.419,522.161,657.351,523.566,657.357ZM482.548,648.5a2.461,2.461,0,0,0-2.227-2.212c-1.173-.023-1.993,1-2.039,2.55a2.2,2.2,0,0,0,2.029,1.836A2.457,2.457,0,0,0,482.548,648.5Zm-15.616-13.18a2.379,2.379,0,0,0,2.378-2.115c.036-.8-1.3-2.3-2.187-2.242a2.518,2.518,0,0,0-2.16,2.466A2.173,2.173,0,0,0,466.932,635.32ZM490.7,662.328c-.085-.37-.06-.835-.279-1.09a3.494,3.494,0,0,0-1.359-1.047,2.118,2.118,0,0,0-2.644,1.584,2.064,2.064,0,0,0,1.779,2.541A2.113,2.113,0,0,0,490.7,662.328Zm.834,8.771a2.1,2.1,0,0,0-2.115,2.205c-.08,1.246.763,2,2.316,2.063a2.461,2.461,0,0,0,1.959-2.015A2.365,2.365,0,0,0,491.532,671.1Zm-8.212,7.538a2.174,2.174,0,0,0,2.2-2,2.542,2.542,0,0,0-2.2-2.3,2.42,2.42,0,0,0-2.174,2.252A2.237,2.237,0,0,0,483.319,678.636Zm-19.305-52.879a1.993,1.993,0,0,0,2.114,1.981,2.144,2.144,0,0,0,2.262-1.982,2.609,2.609,0,0,0-2.178-2.261A2.387,2.387,0,0,0,464.014,625.757Zm21.072,7.69a2.289,2.289,0,0,0-2.144-2.147,2.392,2.392,0,0,0-2.16,2.258,2.438,2.438,0,0,0,2.114,2.12A2.241,2.241,0,0,0,485.086,633.446Zm7.331,13.03a2.344,2.344,0,0,0-2.251-2.2,2.408,2.408,0,0,0-1.963,2.155c-.026,1.411.909,2.252,2.493,2.239C491.443,648.668,492.409,647.434,492.417,646.477Zm38.389,35.953a2.229,2.229,0,0,0-2.016-2.235,2.513,2.513,0,0,0-2.3,2.095,2.288,2.288,0,0,0,2.223,2.168A1.931,1.931,0,0,0,530.805,682.43Zm-18.863-61.708a2.053,2.053,0,0,0-2.252,2.115,2.189,2.189,0,0,0,2.087,2.065,2.316,2.316,0,0,0,2.239-2.07A2.008,2.008,0,0,0,511.942,620.722Zm-32.7,78.495a2.325,2.325,0,0,0,2.022,2.122,2.471,2.471,0,0,0,2.251-1.981,2.382,2.382,0,0,0-2.248-2.409A2.422,2.422,0,0,0,479.239,699.217Zm50.439-64.387a2.024,2.024,0,0,0,1.222-.583,1.788,1.788,0,0,0,.3-2.965,2.224,2.224,0,0,0-2.695-.377,1.923,1.923,0,0,0-1.059,2.01A2.448,2.448,0,0,0,529.679,634.83ZM527.347,661.4a4.918,4.918,0,0,0,.385.919,2.336,2.336,0,0,0,3.35.5,1.74,1.74,0,0,0,.761-1.7,2.8,2.8,0,0,0-1.657-1.9,1.1,1.1,0,0,0-.732-.1A2.589,2.589,0,0,0,527.347,661.4Zm-21.327,27.89c1.013.157,2.195-1.112,2.227-2.02a2.231,2.231,0,0,0-2.138-2.188,2,2,0,0,0-2.191,2.128A2.169,2.169,0,0,0,506.02,689.287Zm2.214-21.427c.146-.914-1.255-2.227-2.27-2.189a2.558,2.558,0,0,0-2.106,2.234,1.979,1.979,0,0,0,2.113,2A2.22,2.22,0,0,0,508.234,667.86ZM453.714,635.11c-.162.014-.326.015-.486.043a1.74,1.74,0,0,0-1.362.805,2.515,2.515,0,0,0,.851,3.108,2.142,2.142,0,0,0,2.769-.753,1.913,1.913,0,0,0,.136-2.172A1.85,1.85,0,0,0,453.714,635.11Zm75.92,5.563a1.981,1.981,0,0,0-2.843-1.988,1.367,1.367,0,0,0-.528.37,5.83,5.83,0,0,0-.534.739,1.135,1.135,0,0,0-.189.39,2.2,2.2,0,0,0,.763,2.2,2.027,2.027,0,0,0,2.259.223A1.828,1.828,0,0,0,529.633,640.673Zm-55.492,35.953c1.439-.035,2.063-.632,2.144-2.256a2.218,2.218,0,0,0-2.108-2.01,2.292,2.292,0,0,0-2.136,2.506,1.982,1.982,0,0,0,.912,1.411C473.231,676.527,473.737,676.52,474.141,676.627ZM514.477,686c.863.208,2.1-.986,2.133-1.971a2.025,2.025,0,0,0-1.857-2.234,2.174,2.174,0,0,0-2.467,1.89A2.469,2.469,0,0,0,514.477,686Zm-21.385-27.371a2.085,2.085,0,0,0,2.322-1.357,2.19,2.19,0,0,0-1.706-2.9,1.731,1.731,0,0,0-1.56.474,8.2,8.2,0,0,0-.88,1.657c-.049.106.027.288.081.421.065.164.195.3.249.469A1.645,1.645,0,0,0,493.092,658.633Zm1.927-36.612c.087,1.485.823,2.219,2.146,2.139a2.226,2.226,0,0,0,2.064-2.26,2.729,2.729,0,0,0-2.312-2.035A2.174,2.174,0,0,0,495.02,622.021Zm16.749,39.829a1.931,1.931,0,0,0-1.828,1.108,1.689,1.689,0,0,0,.28,2.248c1.055,1.015,1.834,1.276,3.1.132.033-.03.081-.048.1-.084a3.433,3.433,0,0,0,.551-.966A2.055,2.055,0,0,0,511.769,661.85Zm-24.711,33.493c.818.08,1.273-.547,1.712-1.1a2.279,2.279,0,0,0,.368-1.14c.093-.882-1.158-1.968-1.932-2.117a1.048,1.048,0,0,0-.4,0,2.482,2.482,0,0,0-1.891,2.122A2,2,0,0,0,487.058,695.343Zm22.137,6.74a2.167,2.167,0,1,0-.031-4.333,2.033,2.033,0,0,0-2.026,2.032C507.134,701.239,507.885,702.078,509.195,702.083Zm-9-25.462c.506-.122,1.138-.1,1.488-.4a2.206,2.206,0,0,0,.915-1.657,2.552,2.552,0,0,0-2.328-2.22,2.052,2.052,0,0,0-1.916,2.281C498.379,675.978,498.933,676.561,500.2,676.621Zm-6.069,22.065a2.077,2.077,0,0,0-1.947-2.2,2.347,2.347,0,0,0-1.966,1.406,1.48,1.48,0,0,0,.186,1.884,2.007,2.007,0,0,1,.183.3,1.78,1.78,0,0,0,1.8.808A1.976,1.976,0,0,0,494.126,698.686Zm-19.219-42.172a2,2,0,0,0,2.1-1.849,2.353,2.353,0,0,0-2.324-2.322,2.441,2.441,0,0,0-1.991,2.3A1.878,1.878,0,0,0,474.908,656.514ZM456.64,624.952a5.581,5.581,0,0,0,.646-.139,2.882,2.882,0,0,0,1.59-2.244.682.682,0,0,0-.071-.341c-.421-.672-.814-1.339-1.729-1.5a1.779,1.779,0,0,0-1.668.3,7.163,7.163,0,0,0-.962,1.747c-.044.091.03.265.09.379a8.234,8.234,0,0,0,.6,1.033A1.821,1.821,0,0,0,456.64,624.952Zm19.783,58.27c.118,0,.237.006.355,0a1.534,1.534,0,0,0,1.66-1.758c0-.089,0-.178,0-.268a2.1,2.1,0,0,0-2.135-2.143,2.321,2.321,0,0,0-2.035,2.159A1.861,1.861,0,0,0,476.423,683.222Zm-25.407-16.707a2.3,2.3,0,0,0,2.065,2.194,2.071,2.071,0,0,0,2.117-2.152,2.21,2.21,0,0,0-2.063-2.253A2.45,2.45,0,0,0,451.015,666.515Zm11.9-14.626a2.283,2.283,0,0,0-2,2.152,2.415,2.415,0,0,0,2.038,2.129,2.108,2.108,0,0,0,2.194-2C465.119,652.679,464.461,651.9,462.918,651.888Zm56.549,25.766a1.823,1.823,0,0,0,1.7,2.168,2.134,2.134,0,0,0,2.5-1.84,2.3,2.3,0,0,0-2.064-2.363A2.161,2.161,0,0,0,519.468,677.654ZM478,658.457c-1.261-.015-1.961.514-2.111,1.491a2.334,2.334,0,0,0,1.435,2.655,2.2,2.2,0,0,0,2.407-1.1,1.649,1.649,0,0,0-.026-2.127A1.777,1.777,0,0,0,478,658.457Zm31.439-21.926a2.089,2.089,0,0,0,1.94,1.8,2.52,2.52,0,0,0,2.244-2,2.3,2.3,0,0,0-2.078-2.3C510.091,633.987,509.49,634.7,509.438,636.531Zm-14.047,52.108a1.407,1.407,0,0,0-1.39.6c-.128.2-.251.4-.391.588a1.526,1.526,0,0,0-.234,1.35A2.638,2.638,0,0,0,495.422,693a1.123,1.123,0,0,0,.4-.016,2.246,2.246,0,0,0,1.609-2.48A1.824,1.824,0,0,0,495.392,688.639Zm-23.235.653a2.069,2.069,0,0,0,2.169-2.012c-.1-1.415-.645-2.186-2.193-2.121A2.079,2.079,0,0,0,470,687.112,2.554,2.554,0,0,0,472.157,689.292Zm27.582-52a2.165,2.165,0,0,0,2.13-2.467,2.038,2.038,0,0,0-1.937-1.836,2.142,2.142,0,0,0-2.2,2A2.174,2.174,0,0,0,499.738,637.3ZM479.61,625.45a2.073,2.073,0,0,0-2.223-1.907,1.245,1.245,0,0,0-.531.2c-.31.224-.59.491-.885.735a1.87,1.87,0,0,0,1,3.152c.175.019.347.074.523.1a1.692,1.692,0,0,0,2.039-1.534C479.558,625.952,479.585,625.7,479.61,625.45Zm37.054,30.493a8.659,8.659,0,0,0-.393-.985,1.977,1.977,0,0,0-1.748-1.12,2.074,2.074,0,0,0-1.846.966,2.045,2.045,0,0,0-.329,1.33,2.8,2.8,0,0,0,1.308,1.82c.689.393,1.23.056,1.832-.18C516.333,657.443,516.384,656.644,516.663,655.943Zm-16.711-7.489a2.012,2.012,0,0,0-2.283,1.989,2.136,2.136,0,0,0,2.039,2.151,2.047,2.047,0,0,0,2.16-2.1A1.788,1.788,0,0,0,499.953,648.454Zm17.8-18.939a2.038,2.038,0,0,0-2.244,2.109,2.844,2.844,0,0,0,1.769,2.059,1.462,1.462,0,0,0,.779-.04,2.017,2.017,0,0,0,1.628-2.419c0-.044,0-.089-.008-.133a1.532,1.532,0,0,0-1.473-1.549C518.013,629.518,517.819,629.52,517.752,629.516Zm-46.226,70.428a3.138,3.138,0,0,0,1.091-.255,2.178,2.178,0,0,0-1.924-3.817A1.876,1.876,0,0,0,469.387,698C469.472,699.5,469.891,699.872,471.526,699.944Zm-5.347-15.8a1.854,1.854,0,0,0-.8-2.058,2.164,2.164,0,0,0-2.332,0,1.9,1.9,0,0,0-1.021,1.894,2.8,2.8,0,0,0,1.587,1.968,1.632,1.632,0,0,0,.944-.032,3.142,3.142,0,0,0,.677-.323C465.872,685.272,466.378,684.876,466.179,684.14Zm48.877-13.462c-.047.592.028,1.251.91,1.443.024.006.043.038.065.058a1.571,1.571,0,0,0,1.888.255c1.521-1.047,1.71-2.177.633-3.4a2.4,2.4,0,0,0-3.121,0A2.173,2.173,0,0,0,515.056,670.678Zm-38.434-29.6a2.391,2.391,0,0,0-2.049-2.18c-1.006,0-2.361,1.226-2.329,2.109a2.68,2.68,0,0,0,2.269,2.2A2.288,2.288,0,0,0,476.622,641.081Zm33.869,53.378a2.048,2.048,0,0,0,3.182,1.843.648.648,0,0,0,.232-.2,6.786,6.786,0,0,0,.632-1.14,1.519,1.519,0,0,0,.064-.982,2.671,2.671,0,0,0-1.56-1.595A2.017,2.017,0,0,0,510.491,694.459Zm-45.872-56.294c-1.121.1-2.364,1.189-2.267,2.169a2.481,2.481,0,0,0,.633,1.453,2.907,2.907,0,0,0,1.567.728,2.358,2.358,0,0,0,2.12-2.218,2.925,2.925,0,0,0-.707-1.566C465.667,638.406,465.078,638.344,464.619,638.165Zm38.316,2.769c-.019-.47.06-1.041-.5-1.369a6.106,6.106,0,0,0-.868-.443,1.96,1.96,0,0,0-2.206.614,1.471,1.471,0,0,0-.181,2.087,3.558,3.558,0,0,1,.22.436,1.176,1.176,0,0,0,1.166.8c.237.007.475.015.712.013a1.456,1.456,0,0,0,1.661-1.587C502.941,641.317,502.935,641.153,502.935,640.934Zm-50.4,37.875c-.213.776-.688,1-1.248.72a1.677,1.677,0,0,0-.533-.072,1.792,1.792,0,0,0-.049.5,2.658,2.658,0,0,0,1.6,1.745,1.138,1.138,0,0,0,1.229-.074,8.52,8.52,0,0,0,1.163-1.009,1.5,1.5,0,0,0,.321-1.494,2.208,2.208,0,0,0-2.751-1.6.591.591,0,0,0-.311.278,6.466,6.466,0,0,0-.431.96,1.427,1.427,0,0,0,.016.5,2.956,2.956,0,0,0,.474-.126A4.33,4.33,0,0,0,452.536,678.809Zm8.784-11.9.064.171a3.981,3.981,0,0,1-.62.275.719.719,0,0,0-.622.974,2.179,2.179,0,0,0,4.244-.224,2.427,2.427,0,0,0-1.847-2.352.673.673,0,0,0-.827.392.605.605,0,0,1-.539.5,1.465,1.465,0,0,0-.362.154l.043.109Zm-4.745,4.631a.57.57,0,0,0-.123.009,1.961,1.961,0,0,0-1.442,1.472,2,2,0,0,0,.714,2.094,1.8,1.8,0,0,0,.887.186c.469-.021.933-.354,1.406,0,.023.018.088-.007.126-.026.453-.231.961-.58.859-1.074a10.419,10.419,0,0,0-.837-2.01c-.014-.031-.077-.039-.117-.057-.417-.181-.831-.365-1.249-.542A1.176,1.176,0,0,0,456.575,671.543Zm12.843-3.055-.117.041a5.248,5.248,0,0,0,.466,1.237,3.338,3.338,0,0,0,.964.773,1.212,1.212,0,0,0,.627.189,2.613,2.613,0,0,0,2.119-1.493c.276-.706-.8-2.1-1.562-2.054a8.016,8.016,0,0,1-1.4-.019c-.681-.075-1.046.191-1.091.88C469.41,668.191,469.418,668.339,469.418,668.489Z" transform="translate(-450.512 -619.829)" fill="#262463"/>
      </g>
      <path id="Trazado_103064" data-name="Trazado 103064" d="M405.5,665.918l-7.518-6.668,9.509-8.444H368.269V641.23h38.72l.142-.386-9.142-8.14,7.514-6.662L428,645.979Z" transform="translate(31.669 16.862)" fill="#cc4040"/>
      <g id="Grupo_56278" data-name="Grupo 56278" transform="translate(155.069 651.288)">
        <path id="Trazado_103065" data-name="Trazado 103065" d="M153.737,645.654a6.279,6.279,0,0,0,3.18.9c1.814,0,2.875-.959,2.875-2.345,0-1.285-.735-2.018-2.589-2.731-2.244-.8-3.629-1.958-3.629-3.894,0-2.14,1.773-3.73,4.443-3.73a6.249,6.249,0,0,1,3.038.672l-.489,1.448a5.472,5.472,0,0,0-2.61-.652c-1.876,0-2.59,1.121-2.59,2.058,0,1.285.836,1.917,2.733,2.651,2.324.9,3.506,2.018,3.506,4.037,0,2.121-1.57,3.955-4.811,3.955a7.106,7.106,0,0,1-3.506-.876Z" transform="translate(-153.288 -633.34)" fill="#00384c"/>
        <path id="Trazado_103066" data-name="Trazado 103066" d="M171.789,642.326c0,3.649-2.527,5.241-4.913,5.241-2.671,0-4.73-1.958-4.73-5.077,0-3.3,2.162-5.24,4.893-5.24C169.873,637.251,171.789,639.31,171.789,642.326Zm-7.829.1c0,2.161,1.244,3.792,3,3.792,1.712,0,3-1.611,3-3.833,0-1.672-.835-3.792-2.956-3.792S163.96,640.553,163.96,642.429Z" transform="translate(-152.056 -632.867)" fill="#00384c"/>
        <path id="Trazado_103067" data-name="Trazado 103067" d="M172.6,633.4h1.794v14.475H172.6Z" transform="translate(-150.603 -633.402)" fill="#00384c"/>
        <path id="Trazado_103068" data-name="Trazado 103068" d="M177.664,637.447l1.937,5.545a25.63,25.63,0,0,1,.8,2.529h.06c.224-.816.51-1.63.836-2.529l1.917-5.545h1.875l-3.874,9.867H179.5l-3.751-9.867Z" transform="translate(-150.165 -632.84)" fill="#00384c"/>
        <path id="Trazado_103069" data-name="Trazado 103069" d="M186.337,642.734a3.161,3.161,0,0,0,3.385,3.425,6.5,6.5,0,0,0,2.731-.509l.306,1.284a7.992,7.992,0,0,1-3.283.612c-3.038,0-4.852-2-4.852-4.974s1.753-5.32,4.628-5.32c3.221,0,4.078,2.833,4.078,4.647a6.737,6.737,0,0,1-.062.836Zm5.26-1.284c.021-1.141-.469-2.916-2.488-2.916-1.813,0-2.61,1.672-2.752,2.916Z" transform="translate(-148.931 -632.867)" fill="#00384c"/>
        <path id="Trazado_103070" data-name="Trazado 103070" d="M194.227,640.145c0-1.019-.02-1.855-.081-2.671h1.59l.1,1.631h.041a3.63,3.63,0,0,1,3.262-1.854c1.366,0,3.485.816,3.485,4.2v5.891h-1.793v-5.688c0-1.589-.592-2.914-2.284-2.914a2.632,2.632,0,0,0-2.529,2.67v5.932h-1.794Z" transform="translate(-147.608 -632.867)" fill="#00384c"/>
        <path id="Trazado_103071" data-name="Trazado 103071" d="M206.377,634.96v2.833h2.569v1.366h-2.569v5.322c0,1.224.346,1.917,1.345,1.917a4.031,4.031,0,0,0,1.04-.122l.082,1.344a4.376,4.376,0,0,1-1.59.245,2.486,2.486,0,0,1-1.937-.754,3.655,3.655,0,0,1-.693-2.568v-5.383h-1.53v-1.366h1.53v-2.365Z" transform="translate(-146.364 -633.185)" fill="#00384c"/>
        <path id="Trazado_103072" data-name="Trazado 103072" d="M210.981,642.734a3.161,3.161,0,0,0,3.384,3.425,6.5,6.5,0,0,0,2.733-.509l.305,1.284a7.983,7.983,0,0,1-3.283.612c-3.038,0-4.851-2-4.851-4.974s1.753-5.32,4.628-5.32c3.221,0,4.077,2.833,4.077,4.647a6.734,6.734,0,0,1-.062.836Zm5.26-1.284c.021-1.141-.469-2.916-2.488-2.916-1.814,0-2.61,1.672-2.752,2.916Z" transform="translate(-145.505 -632.867)" fill="#00384c"/>
      </g>
      <g id="Grupo_56279" data-name="Grupo 56279" transform="translate(421.381 532.264)">
        <path id="Trazado_103073" data-name="Trazado 103073" d="M387.543,541.158a6.293,6.293,0,0,0,3.18.9c1.814,0,2.875-.959,2.875-2.345,0-1.285-.735-2.018-2.589-2.731-2.243-.8-3.629-1.958-3.629-3.894,0-2.14,1.773-3.73,4.444-3.73a6.254,6.254,0,0,1,3.038.672l-.49,1.448a5.472,5.472,0,0,0-2.61-.652c-1.876,0-2.589,1.121-2.589,2.058,0,1.285.835,1.917,2.731,2.651,2.324.9,3.506,2.018,3.506,4.037,0,2.121-1.568,3.955-4.81,3.955a7.09,7.09,0,0,1-3.506-.877Z" transform="translate(-387.095 -528.844)" fill="#00384c"/>
        <path id="Trazado_103074" data-name="Trazado 103074" d="M405.6,537.83c0,3.649-2.529,5.241-4.914,5.241-2.67,0-4.729-1.958-4.729-5.078,0-3.3,2.162-5.238,4.892-5.238C403.679,532.755,405.6,534.814,405.6,537.83Zm-7.829.1c0,2.161,1.244,3.792,3,3.792,1.713,0,3-1.611,3-3.833,0-1.672-.836-3.792-2.956-3.792S397.767,536.057,397.767,537.933Z" transform="translate(-385.863 -528.371)" fill="#00384c"/>
        <path id="Trazado_103075" data-name="Trazado 103075" d="M406.4,528.906H408.2v14.475H406.4Z" transform="translate(-384.41 -528.906)" fill="#00384c"/>
        <path id="Trazado_103076" data-name="Trazado 103076" d="M418.892,540.128c0,1.018.02,1.917.081,2.69h-1.589l-.1-1.611h-.04a3.715,3.715,0,0,1-3.263,1.836c-1.549,0-3.4-.857-3.4-4.323v-5.77h1.794v5.464c0,1.876.571,3.14,2.2,3.14a2.593,2.593,0,0,0,2.365-1.632,2.626,2.626,0,0,0,.163-.916v-6.056h1.794Z" transform="translate(-383.831 -528.344)" fill="#00384c"/>
        <path id="Trazado_103077" data-name="Trazado 103077" d="M422.788,530.464V533.3h2.568v1.366h-2.568v5.322c0,1.223.346,1.917,1.345,1.917a3.959,3.959,0,0,0,1.039-.123l.083,1.345a4.382,4.382,0,0,1-1.591.245,2.485,2.485,0,0,1-1.936-.754,3.657,3.657,0,0,1-.693-2.568v-5.383h-1.53V533.3h1.53v-2.365Z" transform="translate(-382.589 -528.689)" fill="#00384c"/>
        <path id="Trazado_103078" data-name="Trazado 103078" d="M435.323,537.83c0,3.649-2.529,5.241-4.914,5.241-2.671,0-4.729-1.958-4.729-5.078,0-3.3,2.161-5.238,4.892-5.238C433.406,532.755,435.323,534.814,435.323,537.83Zm-7.83.1c0,2.161,1.244,3.792,3,3.792,1.713,0,3-1.611,3-3.833,0-1.672-.835-3.792-2.956-3.792S427.493,536.057,427.493,537.933Z" transform="translate(-381.731 -528.371)" fill="#00384c"/>
      </g>
      <g id="Grupo_56280" data-name="Grupo 56280" transform="translate(499.716 733.092)">
        <path id="Trazado_103079" data-name="Trazado 103079" d="M456.317,717.473a6.276,6.276,0,0,0,3.18.9c1.813,0,2.874-.958,2.874-2.344,0-1.285-.734-2.019-2.588-2.733-2.244-.8-3.63-1.957-3.63-3.894,0-2.14,1.775-3.73,4.446-3.73a6.233,6.233,0,0,1,3.037.673l-.489,1.447a5.475,5.475,0,0,0-2.609-.652c-1.877,0-2.59,1.121-2.59,2.059,0,1.285.836,1.916,2.733,2.651,2.324.9,3.506,2.017,3.506,4.037,0,2.12-1.57,3.953-4.811,3.953a7.093,7.093,0,0,1-3.506-.876Z" transform="translate(-455.868 -705.16)" fill="#00384c"/>
        <path id="Trazado_103080" data-name="Trazado 103080" d="M474.369,714.146c0,3.649-2.528,5.241-4.913,5.241-2.671,0-4.729-1.958-4.729-5.077,0-3.3,2.161-5.24,4.891-5.24C472.453,709.07,474.369,711.129,474.369,714.146Zm-7.829.1c0,2.162,1.244,3.792,3,3.792,1.713,0,3-1.611,3-3.833,0-1.672-.835-3.792-2.956-3.792S466.54,712.373,466.54,714.248Z" transform="translate(-454.636 -704.687)" fill="#00384c"/>
        <path id="Trazado_103081" data-name="Trazado 103081" d="M475.179,705.222h1.794V719.7h-1.794Z" transform="translate(-453.183 -705.222)" fill="#00384c"/>
        <path id="Trazado_103082" data-name="Trazado 103082" d="M487.665,716.443c0,1.019.021,1.917.082,2.692h-1.59l-.1-1.611h-.04a3.714,3.714,0,0,1-3.262,1.835c-1.549,0-3.4-.857-3.4-4.323v-5.769h1.794v5.463c0,1.876.571,3.14,2.2,3.14a2.6,2.6,0,0,0,2.366-1.631,2.664,2.664,0,0,0,.162-.917v-6.055h1.794Z" transform="translate(-452.604 -704.66)" fill="#00384c"/>
        <path id="Trazado_103083" data-name="Trazado 103083" d="M496.382,718.791a6.6,6.6,0,0,1-2.833.571,4.687,4.687,0,0,1-4.913-5.034,5.013,5.013,0,0,1,5.3-5.24,6,6,0,0,1,2.488.509l-.408,1.386a4.162,4.162,0,0,0-2.08-.468,3.719,3.719,0,0,0-.062,7.42,5.094,5.094,0,0,0,2.2-.489Z" transform="translate(-451.312 -704.685)" fill="#00384c"/>
        <path id="Trazado_103084" data-name="Trazado 103084" d="M499.305,706.97a1.111,1.111,0,0,1-2.221,0,1.091,1.091,0,0,1,1.121-1.121A1.064,1.064,0,0,1,499.305,706.97Zm-2,12.64v-9.867H499.1v9.867Z" transform="translate(-450.138 -705.135)" fill="#00384c"/>
        <path id="Trazado_103085" data-name="Trazado 103085" d="M510.485,714.638c0,3.649-2.528,5.241-4.914,5.241-2.671,0-4.729-1.958-4.729-5.077,0-3.3,2.161-5.24,4.893-5.24C508.569,709.563,510.485,711.622,510.485,714.638Zm-7.829.1c0,2.162,1.243,3.792,3,3.792,1.712,0,3-1.611,3-3.833,0-1.672-.836-3.792-2.956-3.792S502.656,712.866,502.656,714.741Zm5.688-9.215-2.488,2.916h-1.285l1.794-2.916Z" transform="translate(-449.615 -705.18)" fill="#00384c"/>
        <path id="Trazado_103086" data-name="Trazado 103086" d="M511.3,711.964c0-1.018-.022-1.855-.082-2.67h1.59l.1,1.63h.04a3.631,3.631,0,0,1,3.262-1.854c1.367,0,3.487.816,3.487,4.2v5.892h-1.794v-5.688c0-1.59-.591-2.915-2.284-2.915a2.632,2.632,0,0,0-2.528,2.671v5.932H511.3Z" transform="translate(-448.172 -704.687)" fill="#00384c"/>
      </g>
    </g>
  </g>
</svg>
