<svg xmlns="http://www.w3.org/2000/svg" width="330.574" height="179.29" viewBox="0 0 330.574 179.29">
  <g id="Grupo_56612" data-name="Grupo 56612" transform="translate(-554.074 -10435.072)">
    <path id="Trazado_103375" data-name="Trazado 103375" d="M5.058,17.938v5.607H1.074V7.019H7.669a7.681,7.681,0,0,1,3.354.7A5.261,5.261,0,0,1,13.281,9.7a5.425,5.425,0,0,1,.8,2.923,4.782,4.782,0,0,1-1.731,3.865A7.182,7.182,0,0,1,7.6,17.938Zm0-3.076H7.669a2.462,2.462,0,0,0,1.765-.579,2.151,2.151,0,0,0,.607-1.634,2.658,2.658,0,0,0-.624-1.85,2.21,2.21,0,0,0-1.7-.7H5.058Zm18.4-.136-1.26-.091a2.263,2.263,0,0,0-2.315,1.135v7.775H16.056V11.264h3.587l.125,1.578a2.962,2.962,0,0,1,2.69-1.8,3.73,3.73,0,0,1,1.067.136Zm7.321,9.046A6.313,6.313,0,0,1,26.2,22.086,5.82,5.82,0,0,1,24.455,17.7v-.318a7.542,7.542,0,0,1,.7-3.326,5.108,5.108,0,0,1,2.037-2.23,6.15,6.15,0,0,1,3.178-.789,5.316,5.316,0,0,1,4.086,1.606,6.311,6.311,0,0,1,1.5,4.478v1.487h-7.6a2.757,2.757,0,0,0,.9,1.623,2.668,2.668,0,0,0,1.793.59,3.438,3.438,0,0,0,2.838-1.271l1.748,2.066A4.886,4.886,0,0,1,33.6,23.187,6.846,6.846,0,0,1,30.777,23.772Zm-.431-9.784q-1.68,0-2,2.225h3.859v-.3a1.9,1.9,0,0,0-.465-1.424A1.852,1.852,0,0,0,30.346,13.988Zm13.575,6.106a.884.884,0,0,0-.511-.783,7.769,7.769,0,0,0-1.941-.613,8.85,8.85,0,0,1-2.361-.834A3.955,3.955,0,0,1,37.69,16.61a3,3,0,0,1-.488-1.691,3.394,3.394,0,0,1,1.4-2.786,5.751,5.751,0,0,1,3.655-1.1,6.372,6.372,0,0,1,3.9,1.1,3.443,3.443,0,0,1,1.476,2.894H43.8q0-1.476-1.555-1.476a1.541,1.541,0,0,0-1.01.335,1.037,1.037,0,0,0-.409.834.952.952,0,0,0,.5.829,4.719,4.719,0,0,0,1.595.522,13.781,13.781,0,0,1,1.924.488q2.769.953,2.769,3.416a3.216,3.216,0,0,1-1.493,2.735,6.545,6.545,0,0,1-3.865,1.056,6.679,6.679,0,0,1-2.815-.568,4.707,4.707,0,0,1-1.93-1.544,3.5,3.5,0,0,1-.692-2.054h3.575a1.478,1.478,0,0,0,.568,1.243,2.334,2.334,0,0,0,1.4.392,1.836,1.836,0,0,0,1.175-.318A1.017,1.017,0,0,0,43.921,20.094Zm9.511,3.45H49.6V11.264h3.836ZM49.369,8.1a1.707,1.707,0,0,1,.59-1.339,2.509,2.509,0,0,1,3.065,0,1.707,1.707,0,0,1,.59,1.339,1.707,1.707,0,0,1-.59,1.339,2.509,2.509,0,0,1-3.065,0A1.707,1.707,0,0,1,49.369,8.1Zm5.936,9.194a7.248,7.248,0,0,1,.715-3.275,5.114,5.114,0,0,1,2.054-2.208,6.187,6.187,0,0,1,3.144-.772,5.647,5.647,0,0,1,4.347,1.708,6.555,6.555,0,0,1,1.589,4.648v.136a6.36,6.36,0,0,1-1.595,4.557,5.662,5.662,0,0,1-4.319,1.685A5.726,5.726,0,0,1,57.03,22.2a6.148,6.148,0,0,1-1.714-4.262Zm3.825.238a4.569,4.569,0,0,0,.533,2.5,1.777,1.777,0,0,0,1.578.795q2.043,0,2.088-3.144v-.386q0-3.3-2.111-3.3-1.918,0-2.077,2.849ZM61.741,6.111h4.041L62.626,9.675,59.5,9.669Zm10.612,5.153.125,1.441a4.165,4.165,0,0,1,3.507-1.668,3.5,3.5,0,0,1,2.866,1.146,5.458,5.458,0,0,1,.982,3.45v7.911H76V15.793a2.072,2.072,0,0,0-.375-1.368,1.733,1.733,0,0,0-1.362-.437,1.824,1.824,0,0,0-1.668.885v8.671H68.766V11.264Zm15.675,5.562a17.345,17.345,0,0,1,.738-5.153A12.435,12.435,0,0,1,90.8,7.632a7.235,7.235,0,0,1,2.889-2.315L94.418,7.2A7.4,7.4,0,0,0,91.96,10.85a17.8,17.8,0,0,0-.88,5.817v.5a18.145,18.145,0,0,0,.868,5.925,7.368,7.368,0,0,0,2.469,3.677l-.726,1.884A7.163,7.163,0,0,1,90.8,26.331a12.248,12.248,0,0,1-2.037-4.024,17.429,17.429,0,0,1-.738-4.971Zm19.318.67a7.406,7.406,0,0,1-1.288,4.568,4.13,4.13,0,0,1-3.479,1.708A3.54,3.54,0,0,1,99.8,22.535v5.732H95.972v-17h3.575l.114,1.135a3.541,3.541,0,0,1,2.894-1.362,4.164,4.164,0,0,1,3.53,1.674,7.5,7.5,0,0,1,1.26,4.6Zm-3.825-.238q0-3.269-1.907-3.269a1.8,1.8,0,0,0-1.816.976V19.8a1.859,1.859,0,0,0,1.839,1.022q1.827,0,1.884-3.155Zm11.543-.114a16.184,16.184,0,0,1-.783,5.062,12.924,12.924,0,0,1-2.162,4.114,7.2,7.2,0,0,1-2.979,2.332l-.726-1.884a7.473,7.473,0,0,0,2.44-3.632,17.533,17.533,0,0,0,.9-5.641V16.8a18.145,18.145,0,0,0-.868-5.925A7.368,7.368,0,0,0,108.412,7.2l.726-1.884a7.33,7.33,0,0,1,2.957,2.31,12.766,12.766,0,0,1,2.157,4.052,16.047,16.047,0,0,1,.812,4.966Z" transform="translate(553 10450.96)" fill="#12263f"/>
    <path id="Trazado_103376" data-name="Trazado 103376" d="M21.648,16.581H15v7H12.125V7.059h10.5V9.374H15v4.915h6.651Zm10.17,5.8a4.278,4.278,0,0,1-3.45,1.43,3.812,3.812,0,0,1-3.025-1.169,4.973,4.973,0,0,1-1.027-3.382V11.3h2.758v7.922q0,2.338,1.941,2.338a2.726,2.726,0,0,0,2.713-1.441V11.3h2.758V23.584h-2.6ZM42.7,23.811a5.706,5.706,0,0,1-4.251-1.651,5.991,5.991,0,0,1-1.629-4.4v-.341a7.369,7.369,0,0,1,.709-3.286,5.4,5.4,0,0,1,1.992-2.253,5.266,5.266,0,0,1,2.86-.806,4.82,4.82,0,0,1,3.876,1.6,6.767,6.767,0,0,1,1.368,4.529v1.112H39.6a3.688,3.688,0,0,0,1.016,2.406,3.05,3.05,0,0,0,2.242.885,3.735,3.735,0,0,0,3.087-1.532L47.435,21.5A4.965,4.965,0,0,1,45.466,23.2,6.165,6.165,0,0,1,42.7,23.811ZM42.373,13.29a2.323,2.323,0,0,0-1.833.795,4.118,4.118,0,0,0-.891,2.213H44.9v-.2A3.352,3.352,0,0,0,44.166,14,2.3,2.3,0,0,0,42.373,13.29Zm13.824.533a6.825,6.825,0,0,0-1.124-.091,2.53,2.53,0,0,0-2.554,1.453v8.4H49.762V11.3H52.4l.068,1.373a3.108,3.108,0,0,1,2.769-1.6,2.582,2.582,0,0,1,.976.159Zm4.688,7.559h6.538v2.2H57.457v-1.8l6.231-8.252H57.571V11.3h9.614v1.748Zm16.083,2.2a4.257,4.257,0,0,1-.318-1.146,4.64,4.64,0,0,1-6.243.318,3.377,3.377,0,0,1-1.169-2.611A3.487,3.487,0,0,1,70.7,17.132a7.068,7.068,0,0,1,4.171-1.05H76.56v-.806a2.151,2.151,0,0,0-.533-1.527,2.115,2.115,0,0,0-1.623-.573,2.429,2.429,0,0,0-1.544.471,1.458,1.458,0,0,0-.6,1.2H69.5a3.061,3.061,0,0,1,.67-1.89,4.461,4.461,0,0,1,1.822-1.379,6.4,6.4,0,0,1,2.571-.5A5.153,5.153,0,0,1,78,12.16a3.865,3.865,0,0,1,1.317,3.048v5.539a6.277,6.277,0,0,0,.465,2.645v.193ZM73.938,21.6a3.137,3.137,0,0,0,1.538-.4,2.654,2.654,0,0,0,1.084-1.067V17.818H75.073a4.066,4.066,0,0,0-2.3.533A1.728,1.728,0,0,0,72,19.861a1.612,1.612,0,0,0,.528,1.266A2.044,2.044,0,0,0,73.938,21.6Zm14.1-4.733a17.3,17.3,0,0,1,.7-4.977A13.661,13.661,0,0,1,90.8,7.677a8.2,8.2,0,0,1,2.883-2.6l.545,1.612a8.425,8.425,0,0,0-2.593,3.706,16.6,16.6,0,0,0-1.084,5.7l-.011.976a18.044,18.044,0,0,0,.97,6.135,9.042,9.042,0,0,0,2.718,4.1l-.545,1.532A8.216,8.216,0,0,1,90.8,26.223a13.659,13.659,0,0,1-2.066-4.211A17.978,17.978,0,0,1,88.035,16.865Zm17.854-.284H99.237v7H96.366V7.059h10.5V9.374H99.237v4.915h6.651Zm5.539-5.278.079,1.419a4.416,4.416,0,0,1,3.575-1.646q3.836,0,3.9,4.392v8.115h-2.758V15.628a2.529,2.529,0,0,0-.505-1.731,2.125,2.125,0,0,0-1.651-.562,2.658,2.658,0,0,0-2.486,1.51v8.74h-2.758V11.3Zm15.686,5.743a17.077,17.077,0,0,1-.692,4.864,13.78,13.78,0,0,1-2.1,4.268,8.223,8.223,0,0,1-2.94,2.662l-.545-1.532a8.723,8.723,0,0,0,2.7-4.024,17.873,17.873,0,0,0,.993-6.18v-.261a18.137,18.137,0,0,0-.863-5.749,10.141,10.141,0,0,0-2.474-4.16l-.352-.318.545-1.544a8.137,8.137,0,0,1,2.815,2.5,13.548,13.548,0,0,1,2.088,4.012,16.712,16.712,0,0,1,.817,4.58Z" transform="translate(738.429 10430)" fill="#12263f"/>
    <path id="Trazado_103377" data-name="Trazado 103377" d="M22.3,20.077H15.9l-1.339,3.848H11.571L17.814,7.4H20.39l6.254,16.526h-3Zm-5.6-2.315h4.79L19.1,10.906ZM19.959,2.973H23.1L19.959,6.412l-2.213-.006ZM34.68,14.164a6.825,6.825,0,0,0-1.124-.091A2.53,2.53,0,0,0,31,15.526v8.4H28.245V11.644h2.633l.068,1.373a3.108,3.108,0,0,1,2.769-1.6,2.582,2.582,0,0,1,.976.159Zm7.151,9.988A5.706,5.706,0,0,1,37.58,22.5a5.991,5.991,0,0,1-1.629-4.4v-.341a7.369,7.369,0,0,1,.709-3.286,5.4,5.4,0,0,1,1.992-2.253,5.266,5.266,0,0,1,2.86-.806,4.82,4.82,0,0,1,3.876,1.6,6.767,6.767,0,0,1,1.368,4.529v1.112H38.732a3.688,3.688,0,0,0,1.016,2.406,3.05,3.05,0,0,0,2.242.885,3.735,3.735,0,0,0,3.087-1.532l1.487,1.419a4.965,4.965,0,0,1-1.969,1.708A6.165,6.165,0,0,1,41.831,24.152ZM41.5,13.63a2.323,2.323,0,0,0-1.833.795,4.118,4.118,0,0,0-.891,2.213h5.255v-.2a3.352,3.352,0,0,0-.738-2.094A2.3,2.3,0,0,0,41.5,13.63ZM56.234,23.925a4.256,4.256,0,0,1-.318-1.146,4.64,4.64,0,0,1-6.243.318A3.377,3.377,0,0,1,48.5,20.486a3.487,3.487,0,0,1,1.458-3.013,7.068,7.068,0,0,1,4.171-1.05h1.691v-.806a2.151,2.151,0,0,0-.533-1.527,2.115,2.115,0,0,0-1.623-.573,2.429,2.429,0,0,0-1.544.471,1.458,1.458,0,0,0-.6,1.2H48.766a3.061,3.061,0,0,1,.67-1.89,4.461,4.461,0,0,1,1.822-1.379,6.4,6.4,0,0,1,2.571-.5A5.153,5.153,0,0,1,57.267,12.5a3.865,3.865,0,0,1,1.317,3.048v5.539a6.277,6.277,0,0,0,.465,2.645v.193ZM53.2,21.939a3.137,3.137,0,0,0,1.538-.4,2.654,2.654,0,0,0,1.084-1.067V18.159H54.339a4.066,4.066,0,0,0-2.3.533,1.728,1.728,0,0,0-.772,1.51,1.612,1.612,0,0,0,.528,1.266A2.044,2.044,0,0,0,53.2,21.939Zm14.1-4.733a17.3,17.3,0,0,1,.7-4.977A13.661,13.661,0,0,1,70.07,8.018a8.2,8.2,0,0,1,2.883-2.6L73.5,7.025A8.425,8.425,0,0,0,70.9,10.73a16.6,16.6,0,0,0-1.084,5.7l-.011.976a18.044,18.044,0,0,0,.97,6.135,9.042,9.042,0,0,0,2.718,4.1l-.545,1.532a8.216,8.216,0,0,1-2.889-2.616A13.659,13.659,0,0,1,68,22.353,17.978,17.978,0,0,1,67.3,17.206Zm17.581,2.872h-6.4l-1.339,3.848H74.156L80.4,7.4h2.576l6.254,16.526h-3Zm-5.6-2.315h4.79l-2.395-6.855Zm16.866-.375a17.077,17.077,0,0,1-.692,4.864,13.78,13.78,0,0,1-2.1,4.268,8.223,8.223,0,0,1-2.94,2.662l-.545-1.532a8.723,8.723,0,0,0,2.7-4.024,17.873,17.873,0,0,0,.993-6.18v-.261a18.137,18.137,0,0,0-.863-5.749,10.141,10.141,0,0,0-2.474-4.16l-.352-.318.545-1.544a8.137,8.137,0,0,1,2.815,2.5,13.549,13.549,0,0,1,2.088,4.012,16.712,16.712,0,0,1,.817,4.58Z" transform="translate(753.448 10479.636)" fill="#12263f"/>
    <text id="_" data-name="=" transform="translate(688.074 10437.515)" fill="#e94b46" font-size="36" font-family="SegoeUIBlack, Segoe UI"><tspan x="0" y="39">=</tspan></text>
    <line id="Línea_152" data-name="Línea 152" x2="153.417" transform="translate(731.231 10471.6)" fill="none" stroke="#28c8fa" stroke-width="3"/>
    <path id="Trazado_103374" data-name="Trazado 103374" d="M-10606.666-1102.77l55.787-56.563h144.895l-51.914,56.563Z" transform="translate(11197.071 11717.133)" fill="#09b291"/>
    <path id="Trazado_103373" data-name="Trazado 103373" d="M-10520.593-1206h21.7v40.291h13.947l-24.021,38.742-21.7-38.742h10.073Z" transform="translate(11209.402 11709.562)" fill="#e94b46"/>
    <path id="Trazado_103378" data-name="Trazado 103378" d="M11.482,16.724H5.058v6.583H1.074V6.781H12.129V9.857H5.058v3.8h6.424Z" transform="translate(694.795 10523.258)" fill="#12263f"/>
    <path id="Trazado_103379" data-name="Trazado 103379" d="M10.64,20.22H5.18l-.953,3.087H-.029L6.032,6.781H9.777l6.106,16.526H11.6ZM6.134,17.144H9.686L7.9,11.412Z" transform="translate(626.043 10583.694)" fill="#12263f"/>
  </g>
</svg>
