<svg xmlns="http://www.w3.org/2000/svg" width="108" height="108" viewBox="0 0 108 108">
  <g id="Grupo_58947" data-name="Grupo 58947" transform="translate(-449 -1310)">
    <g id="Grupo_57063" data-name="Grupo 57063" transform="translate(448.738 1309.738)">
      <g id="Elipse_4293" data-name="Elipse 4293" transform="translate(0.261 0.262)" fill="#fff" stroke="#97130f" stroke-width="3">
        <circle cx="54" cy="54" r="54" stroke="none"/>
        <circle cx="54" cy="54" r="52.5" fill="none"/>
      </g>
    </g>
    <g id="Grupo_58946" data-name="Grupo 58946">
      <g id="Grupo_58944" data-name="Grupo 58944">
        <g id="Grupo_58943" data-name="Grupo 58943">
          <g id="Grupo_58942" data-name="Grupo 58942">
            <g id="Icons" transform="translate(459.945 1320)">
              <g id="Grupo_57077" data-name="Grupo 57077" transform="translate(8 8)">
                <g id="Grupo_57066" data-name="Grupo 57066">
                  <path id="Trazado_103982" data-name="Trazado 103982" d="M58.522,52.669a5.539,5.539,0,0,1,9.726,0l2.3,4.215A33.29,33.29,0,1,0,46.9,73.969Z" transform="translate(-8 -8)" fill="#fa6450"/>
                </g>
                <g id="Grupo_57067" data-name="Grupo 57067" transform="translate(0 0)">
                  <path id="Trazado_103983" data-name="Trazado 103983" d="M13.538,41.231A33.228,33.228,0,0,1,44,8.123C43.086,8.048,42.164,8,41.231,8a33.231,33.231,0,0,0,0,66.462c.933,0,1.855-.048,2.769-.123A33.228,33.228,0,0,1,13.538,41.231Z" transform="translate(-8 -8)" fill="#dc4632"/>
                </g>
                <g id="Grupo_57068" data-name="Grupo 57068" transform="translate(19.385 19.384)">
                  <path id="Trazado_103984" data-name="Trazado 103984" d="M34.229,22.092A13.832,13.832,0,0,0,26.677,46.2a2.668,2.668,0,0,1,.861,2.006v.1a1.385,1.385,0,0,0,1.385,1.385h1.385a1.385,1.385,0,0,0,1.385-1.385,1.385,1.385,0,1,1,2.769,0,1.385,1.385,0,0,0,2.769,0,1.385,1.385,0,1,1,2.769,0,1.385,1.385,0,0,0,1.385,1.385h1.385a1.385,1.385,0,0,0,1.385-1.385v-.1a2.679,2.679,0,0,1,.868-2.01,13.835,13.835,0,0,0-10.793-24.1ZM30.308,40a4.154,4.154,0,1,1,4.154-4.154A4.154,4.154,0,0,1,30.308,40Zm5.538,2.769a1.385,1.385,0,1,1,1.385-1.385A1.385,1.385,0,0,1,35.846,42.769ZM41.385,40a4.154,4.154,0,1,1,4.154-4.154A4.154,4.154,0,0,1,41.385,40Z" transform="translate(-22 -22)" fill="#f0f0f0"/>
                </g>
                <g id="Grupo_57069" data-name="Grupo 57069" transform="translate(12.84 43.973)">
                  <path id="Trazado_103985" data-name="Trazado 103985" d="M24.964,39.758l-2.257,2.257A2.738,2.738,0,0,0,22,40.765a2.769,2.769,0,1,0,0,3.916,2.769,2.769,0,1,0,3.916,0,2.738,2.738,0,0,0-1.25-.708L26.641,42a3.747,3.747,0,0,1-.054-.519A16.817,16.817,0,0,1,24.964,39.758Z" transform="translate(-17.273 -39.758)" fill="#f0f0f0"/>
                </g>
                <g id="Grupo_57070" data-name="Grupo 57070" transform="translate(43.949 12.839)">
                  <path id="Trazado_103986" data-name="Trazado 103986" d="M41.7,26.946l2.282-2.282a2.738,2.738,0,0,0,.708,1.25,2.769,2.769,0,1,0,0-3.916,2.769,2.769,0,1,0-3.916,0,2.738,2.738,0,0,0,1.25.708l-2.282,2.282A16.978,16.978,0,0,1,41.7,26.946Z" transform="translate(-39.741 -17.272)" fill="#f0f0f0"/>
                </g>
                <g id="Grupo_57071" data-name="Grupo 57071" transform="translate(12.839 12.839)">
                  <path id="Trazado_103987" data-name="Trazado 103987" d="M26.959,25l-2.294-2.294A2.738,2.738,0,0,0,25.915,22,2.769,2.769,0,1,0,22,22a2.769,2.769,0,1,0,0,3.916,2.738,2.738,0,0,0,.708-1.25L25,26.959A16.977,16.977,0,0,1,26.959,25Z" transform="translate(-17.272 -17.272)" fill="#f0f0f0"/>
                </g>
                <g id="Grupo_57072" data-name="Grupo 57072" transform="translate(44.17 43.934)">
                  <path id="Trazado_103988" data-name="Trazado 103988" d="M46.571,39.965a2.735,2.735,0,0,0-2.652,2.06l-2.3-2.3a16.637,16.637,0,0,1-1.65,1.717,4.125,4.125,0,0,1-.037.511l2.026,2.026a2.738,2.738,0,0,0-1.25.708,2.769,2.769,0,0,0,0,3.916,2.737,2.737,0,0,0,.8.548l4.741-8.691a5.508,5.508,0,0,1,.317-.5Z" transform="translate(-39.9 -39.73)" fill="#f0f0f0"/>
                </g>
                <g id="Grupo_57073" data-name="Grupo 57073" transform="translate(40.661 44.552)">
                  <path id="Trazado_103989" data-name="Trazado 103989" d="M49.659,41.62,37.708,63.529a2.77,2.77,0,0,0,2.431,4.1h23.9a2.77,2.77,0,0,0,2.431-4.1L54.521,41.62A2.769,2.769,0,0,0,49.659,41.62Z" transform="translate(-37.366 -40.177)" fill="#fab400"/>
                </g>
                <g id="Grupo_57074" data-name="Grupo 57074" transform="translate(40.661 44.569)">
                  <path id="Trazado_103990" data-name="Trazado 103990" d="M39.6,63.524,51.551,41.615a2.707,2.707,0,0,1,1.486-1.257,2.748,2.748,0,0,0-3.377,1.257L37.709,63.524a2.769,2.769,0,0,0,2.43,4.1h1.891A2.769,2.769,0,0,1,39.6,63.524Z" transform="translate(-37.366 -40.189)" fill="#dc9600"/>
                </g>
                <g id="Grupo_57075" data-name="Grupo 57075" transform="translate(54 52.615)">
                  <path id="Trazado_103991" data-name="Trazado 103991" d="M48.385,54.308A1.385,1.385,0,0,1,47,52.923V47.385a1.385,1.385,0,1,1,2.769,0v5.538A1.385,1.385,0,0,1,48.385,54.308Z" transform="translate(-47 -46)" fill="#f0f0f0"/>
                </g>
                <g id="Grupo_57076" data-name="Grupo 57076" transform="translate(54 63.692)">
                  <path id="Trazado_103992" data-name="Trazado 103992" d="M48.385,56.769a1.385,1.385,0,1,1,1.385-1.385A1.385,1.385,0,0,1,48.385,56.769Z" transform="translate(-47 -54)" fill="#f0f0f0"/>
                </g>
              </g>
            </g>
          </g>
        </g>
      </g>
    </g>
  </g>
</svg>
