<svg xmlns="http://www.w3.org/2000/svg" width="137" height="183" viewBox="0 0 137 183">
  <g id="Grupo_57114" data-name="Grupo 57114" transform="translate(-340.601 -176)">
    <g id="Grupo_57108" data-name="Grupo 57108" transform="translate(340.602 176)">
      <g id="Grupo_57107" data-name="Grupo 57107" transform="translate(0)">
        <rect id="Rect치ngulo_5819" data-name="Rect치ngulo 5819" width="137" height="183" rx="6" transform="translate(0)" fill="#264872"/>
        <rect id="Rect치ngulo_5820" data-name="Rect치ngulo 5820" width="116" height="163" rx="1" transform="translate(10 10)" fill="#07464f"/>
        <path id="Trazado_104087" data-name="Trazado 104087" d="M346.361,183.648H460.269a1.869,1.869,0,0,1,1.867,1.867v159.74a1.846,1.846,0,0,0,1.514-1.8V182.867A1.87,1.87,0,0,0,461.784,181H347.875a1.869,1.869,0,0,0-1.867,1.867v.853A1.718,1.718,0,0,1,346.361,183.648Z" transform="translate(-336.251 -171.663)" fill="#043033"/>
      </g>
    </g>
    <g id="Grupo_57109" data-name="Grupo 57109" transform="translate(376.362 191.463)" opacity="0.5">
      <path id="Trazado_104088" data-name="Trazado 104088" d="M412.243,325.919c.33,4.7.1,9.122-3.748,11.746-5.042,3.436-13.79,2.2-19.42,1.4-14.026-1.976-13.081-15.443-14.375-26.783-1.077-9.441-7.932-16.64-9.322-26.148-1.354-9.271-3.619-18.231-4.96-27.407-1.428-9.781.706-18.715,1.2-28.6a156.943,156.943,0,0,1,1.867-17.428c1.361-8.282,4.978-6.866,9.195-11.845,3.268-3.86.711-12.412,6.988-14.313,7.753-2.345,7.055,7.365,9.178,11.172,1.908-4.25-.751-11.142,5.156-13.055,6.9-2.233,7,5.949,8.575,9.987,5.624,14.414,5.961-14.057,16.182-2.971,4.67,5.066,1.873,22.78,1.244,29.116-.846,8.543-3.589,21.984-1.105,30.5,2.444,8.386,7.972-4.467,8.758-7.447,1.352-5.128-.134-15.077,5.563-18.085,8.082-4.267,8.039,8.424,7.794,13.07a84.16,84.16,0,0,1-9.2,33.6c-4.123,8.123-5.094,17.277-10.27,24.959-3.46,5.13-7.593,10.2-9.322,16.244C411.191,317.218,411.946,321.684,412.243,325.919Z" transform="translate(-359.933 -184.281)" fill="#0c6e75"/>
    </g>
    <g id="Grupo_57110" data-name="Grupo 57110" transform="translate(381.139 192.222)">
      <path id="Trazado_104089" data-name="Trazado 104089" d="M393.079,280.047a3.985,3.985,0,0,1-4.19,3.742h-9.221a3.987,3.987,0,0,1-4.192-3.742s3.354-5.24,3.354-14.969c0-10.1-3.354-14.6-3.354-14.6a3.986,3.986,0,0,1,4.192-3.742h9.221a3.984,3.984,0,0,1,4.19,3.742,29.9,29.9,0,0,0-3.352,14.22C389.728,275.181,393.079,280.047,393.079,280.047Z" transform="translate(-351.229 -130.865)" fill="#00ece6"/>
      <path id="Trazado_104090" data-name="Trazado 104090" d="M378.095,272.485c0,1.641-.723,2.973-1.615,2.973h-3.557c-.894,0-1.617-1.331-1.617-2.973,0,0,1.292-4.16,1.292-11.888,0-8.024-1.292-11.591-1.292-11.591,0-1.641.723-2.973,1.617-2.973h3.557c.893,0,1.615,1.331,1.615,2.973A44.513,44.513,0,0,0,376.8,260.3C376.8,268.621,378.095,272.485,378.095,272.485Z" transform="translate(-354.847 -131.478)" fill="#00ece6"/>
      <path id="Trazado_104091" data-name="Trazado 104091" d="M392.411,248.416c-6.741-6.1-7.161-10.636-7.161-10.636-1.953-1.851-4.874-2.217-6.521-.822l-6.562,5.561c-1.649,1.4-1.4,4.028.555,5.877a36.591,36.591,0,0,1,11.46,6.993C386.678,257.649,394.905,250.678,392.411,248.416Z" transform="translate(-355.046 -140.084)" fill="#00ece6"/>
      <path id="Trazado_104092" data-name="Trazado 104092" d="M379.36,239.722c4.885,4.941,5.268,8.237,5.268,8.237,1.417,1.49,3.49,1.992,4.629,1.124l4.539-3.464c1.139-.87.915-2.782-.5-4.271a31.166,31.166,0,0,1-8.243-5.968C383.242,233.551,377.552,237.892,379.36,239.722Z" transform="translate(-348.164 -141.1)" fill="#00ece6"/>
      <path id="Trazado_104093" data-name="Trazado 104093" d="M377.592,248.753c-2.545-6.192-1.563-9.387-1.563-9.387-.717-1.849-2.444-2.991-3.858-2.553l-5.634,1.75c-1.415.439-1.981,2.293-1.264,4.142a27.664,27.664,0,0,1,5.257,8.242C371.471,253.241,378.535,251.046,377.592,248.753Z" transform="translate(-360.348 -139.557)" fill="#00ece6"/>
      <path id="Trazado_104094" data-name="Trazado 104094" d="M372.072,224.283a2.381,2.381,0,0,1-2.2,2.68H364.7a2.381,2.381,0,0,1-2.2-2.68,22.063,22.063,0,0,0,2.148-9.258c.181-5.186-1.216-7.27-1.216-7.27a1.84,1.84,0,0,1,1.886-1.643h3.942a1.838,1.838,0,0,1,1.884,1.643,15.207,15.207,0,0,0-1.221,7.064C370.136,221.036,372.072,224.283,372.072,224.283Z" transform="translate(-362.491 -166.104)" fill="#00ece6"/>
      <path id="Trazado_104095" data-name="Trazado 104095" d="M376.757,247.633c.473,2.418-.28,4.448-1.694,4.459l-5.63.043c-1.414.011-2.8-2-3.1-4.422,0,0,1.2-5.794-.088-15.357-1.163-8.594-3.229-12.033-3.229-12.033-.183-1.522.543-2.732,1.621-2.741l4.289-.032c1.077-.009,2.185,1.188,2.482,2.708,0,0-.81,4.36.521,11.714C373.8,242.268,376.757,247.633,376.757,247.633Z" transform="translate(-362.058 -156.183)" fill="#00ece6"/>
      <path id="Trazado_104096" data-name="Trazado 104096" d="M369.965,209.931a1.522,1.522,0,0,1-1.541,1.626h-3.619a1.523,1.523,0,0,1-1.541-1.626,12.064,12.064,0,0,0,1.5-5.624c.127-3.148-.85-4.414-.85-4.414a1.237,1.237,0,0,1,1.318-1H368a1.239,1.239,0,0,1,1.318,1,8.218,8.218,0,0,0-.855,4.291A11.6,11.6,0,0,0,369.965,209.931Z" transform="translate(-361.823 -172.366)" fill="#00ece6"/>
      <path id="Trazado_104097" data-name="Trazado 104097" d="M364.858,196.089a8.313,8.313,0,0,1-1.035,3.877,1.05,1.05,0,0,0,1.061,1.122h2.495a1.05,1.05,0,0,0,1.063-1.122A7.988,7.988,0,0,1,367.4,196C367.392,195.734,364.871,195.781,364.858,196.089Z" transform="translate(-361.338 -175.025)" fill="#00ece6"/>
      <path id="Trazado_104098" data-name="Trazado 104098" d="M379.216,223.985c.09,1.867-.98,3.428-2.394,3.428H371.19c-1.414,0-2.485-1.561-2.4-3.428a32.156,32.156,0,0,0,2.336-11.845c.2-6.637-1.322-9.3-1.322-9.3a2.146,2.146,0,0,1,2.052-2.1h4.291a2.146,2.146,0,0,1,2.05,2.1,22.347,22.347,0,0,0-1.329,9.038C377.108,219.83,379.216,223.985,379.216,223.985Z" transform="translate(-357.029 -170.768)" fill="#00ece6"/>
      <path id="Trazado_104099" data-name="Trazado 104099" d="M382.274,244.138c.334,2.314-.674,4.284-2.263,4.325l-6.33.164c-1.589.041-2.988-1.865-3.12-4.185,0,0,1.823-5.6,1.145-14.765-.607-8.241-2.65-11.5-2.65-11.5a2.337,2.337,0,0,1,2.043-2.67l4.823-.125a2.8,2.8,0,0,1,2.568,2.549s-1.264,4.211-.364,11.255C379.386,239.042,382.274,244.138,382.274,244.138Z" transform="translate(-356.803 -158.067)" fill="#00ece6"/>
      <path id="Trazado_104100" data-name="Trazado 104100" d="M376.924,204.988a1.657,1.657,0,0,1-1.675,1.77h-3.94a1.657,1.657,0,0,1-1.677-1.77,13.111,13.111,0,0,0,1.636-6.121c.138-3.428-.926-4.8-.926-4.8a1.346,1.346,0,0,1,1.436-1.087h3a1.346,1.346,0,0,1,1.436,1.087,8.933,8.933,0,0,0-.932,4.668A12.639,12.639,0,0,0,376.924,204.988Z" transform="translate(-356.301 -177.498)" fill="#00ece6"/>
      <path id="Trazado_104101" data-name="Trazado 104101" d="M370.59,187.578a27.544,27.544,0,0,1-.678,7.819c.028,1.225.6,2.226,1.283,2.194l2.713-.125c.68-.032,1.137-1.079,1.023-2.3a26.783,26.783,0,0,1-1.587-7.886C373.3,186.736,370.567,186.958,370.59,187.578Z" transform="translate(-356.055 -182.706)" fill="#00ece6"/>
      <path id="Trazado_104102" data-name="Trazado 104102" d="M384.986,224.15c-.194,1.834.788,3.367,2.2,3.367h5.63c1.414,0,2.573-1.533,2.59-3.367a30.11,30.11,0,0,1-1.671-11.634c.177-6.515,1.847-9.133,1.847-9.133a1.983,1.983,0,0,0-1.933-2.067h-4.291a2.283,2.283,0,0,0-2.17,2.067,21.055,21.055,0,0,1,.822,8.875C387.33,220.07,384.986,224.15,384.986,224.15Z" transform="translate(-343.002 -170.264)" fill="#00ece6"/>
      <path id="Trazado_104103" data-name="Trazado 104103" d="M382.282,243.943c-.463,2.273.433,4.207,2.02,4.246l6.321.162c1.585.041,3.092-1.832,3.356-4.11,0,0-1.507-5.5-.314-14.5,1.074-8.091,3.3-11.3,3.3-11.3a2.158,2.158,0,0,0-1.892-2.624l-4.816-.123a2.99,2.99,0,0,0-2.711,2.506s1.027,4.134-.269,11.051C385.46,238.938,382.282,243.943,382.282,243.943Z" transform="translate(-345.432 -157.791)" fill="#00ece6"/>
      <path id="Trazado_104104" data-name="Trazado 104104" d="M386.6,205.492a1.534,1.534,0,0,0,1.576,1.74h3.938a1.755,1.755,0,0,0,1.776-1.74,12.162,12.162,0,0,1-1.29-6.011c.056-3.367,1.2-4.719,1.2-4.719a1.253,1.253,0,0,0-1.374-1.068h-3a1.44,1.44,0,0,0-1.5,1.068,8.347,8.347,0,0,1,.668,4.586A12.9,12.9,0,0,1,386.6,205.492Z" transform="translate(-341.596 -176.875)" fill="#00ece6"/>
      <path id="Trazado_104105" data-name="Trazado 104105" d="M392.768,188.394a26.236,26.236,0,0,0,.237,7.679c-.1,1.2-.728,2.187-1.408,2.155l-2.7-.123c-.68-.03-1.078-1.059-.895-2.259a26.983,26.983,0,0,0,2.032-7.746C390.1,187.567,392.824,187.785,392.768,188.394Z" transform="translate(-340.406 -181.989)" fill="#00ece6"/>
      <path id="Trazado_104106" data-name="Trazado 104106" d="M388.253,243.4c-1.072,1.72-.872,3.748.48,4.474l5.387,2.9c1.354.726,3.2-.2,4.1-2.011a34.4,34.4,0,0,1,4.022-12.407c3.316-6.377,6.179-8.117,6.179-8.117a2.279,2.279,0,0,0-.852-3.044l-4.1-2.207a2.371,2.371,0,0,0-3.074.936,23.975,23.975,0,0,1-3.5,9.232C392.466,240.555,388.253,243.4,388.253,243.4Z" transform="translate(-340.743 -151.682)" fill="#00ece6"/>
      <path id="Trazado_104107" data-name="Trazado 104107" d="M395.721,227.085a1.9,1.9,0,0,0,1.2,2.491l4.2,1.406a1.813,1.813,0,0,0,2.377-1.3,14.9,14.9,0,0,1,.288-7.13c.992-3.716,2.583-4.81,2.583-4.81a1.552,1.552,0,0,0-1.169-1.673L402,215a1.473,1.473,0,0,0-1.892.652,10.131,10.131,0,0,1-.558,5.326A13.872,13.872,0,0,1,395.721,227.085Z" transform="translate(-333.78 -158.483)" fill="#00ece6"/>
      <path id="Trazado_104108" data-name="Trazado 104108" d="M404.065,209.707a28.706,28.706,0,0,0,.433,8.463c-.084,1.309-.779,2.291-1.55,2.155l-3.07-.54c-.771-.136-1.244-1.324-1.063-2.614a25.559,25.559,0,0,0,2.138-8.2C401.027,208.4,404.117,209.048,404.065,209.707Z" transform="translate(-331.019 -163.813)" fill="#00ece6"/>
      <path id="Trazado_104109" data-name="Trazado 104109" d="M386.86,222.07c.1,1.869-.962,3.387-2.375,3.335l-5.626-.215c-1.412-.052-2.491-1.653-2.413-3.516a31.244,31.244,0,0,0,2.269-11.746c.159-6.622-1.374-9.342-1.374-9.342a2.031,2.031,0,0,1,2.037-2.024l4.286.162a2.261,2.261,0,0,1,2.062,2.179,21.881,21.881,0,0,0-1.277,8.98C384.729,217.838,386.86,222.07,386.86,222.07Z" transform="translate(-350.391 -172.654)" fill="#00ece6"/>
      <path id="Trazado_104110" data-name="Trazado 104110" d="M386.442,244.664c-.071,2.5-1.4,4.566-2.971,4.536l-6.252-.123c-1.569-.03-2.616-2.144-2.347-4.64,0,0,2.754-5.925,3.667-15.8.822-8.876-.624-12.476-.624-12.476.168-1.57,1.272-2.8,2.467-2.771l4.764.093c1.2.024,2.131,1.287,2.088,2.861a36.326,36.326,0,0,0-2.3,12.065C384.477,239.057,386.442,244.664,386.442,244.664Z" transform="translate(-351.79 -159.793)" fill="#00ece6"/>
      <path id="Trazado_104111" data-name="Trazado 104111" d="M384.48,202.791a1.674,1.674,0,0,1-1.757,1.707l-3.936-.149a1.638,1.638,0,0,1-1.591-1.834,13.209,13.209,0,0,0,1.922-6.052c.3-3.419-.7-4.836-.7-4.836A1.358,1.358,0,0,1,379.9,190.6l3,.112a1.332,1.332,0,0,1,1.382,1.141,9,9,0,0,0-1.15,4.631A12.538,12.538,0,0,0,384.48,202.791Z" transform="translate(-349.748 -179.563)" fill="#00ece6"/>
      <path id="Trazado_104112" data-name="Trazado 104112" d="M379.061,185.229a27.627,27.627,0,0,1-1.048,7.785c-.03,1.227.5,2.248,1.178,2.243l2.717-.024c.682-.006,1.188-1.035,1.132-2.26a26.635,26.635,0,0,1-1.214-7.94C381.81,184.491,379.067,184.609,379.061,185.229Z" transform="translate(-349.029 -184.687)" fill="#00ece6"/>
      <path id="Trazado_104113" data-name="Trazado 104113" d="M401.8,242.908a1.718,1.718,0,0,1-1.8,1.615s-11.227-2.745-14.969-2.745c-3.471,0-13.886,2.745-13.886,2.745a1.716,1.716,0,0,1-1.8-1.615v-6.136a1.716,1.716,0,0,1,1.8-1.615s10.28-1.938,13.706-1.938c3.787,0,15.148,1.938,15.148,1.938a1.718,1.718,0,0,1,1.8,1.615Z" transform="translate(-356.55 -142.594)" fill="#00ece6"/>
    </g>
    <g id="Grupo_57113" data-name="Grupo 57113" transform="translate(342.65 177.929)">
      <g id="Grupo_57111" data-name="Grupo 57111" opacity="0.2">
        <path id="Trazado_104114" data-name="Trazado 104114" d="M410.94,177.033q-34.531,34.531-69.06,69.06v46.3L457.243,177.033Z" transform="translate(-341.88 -177.033)" fill="#fff"/>
      </g>
      <g id="Grupo_57112" data-name="Grupo 57112" opacity="0.2">
        <path id="Trazado_104115" data-name="Trazado 104115" d="M352.89,177.033a11.011,11.011,0,0,0-11.01,11.012v46.547l57.559-57.559Z" transform="translate(-341.88 -177.033)" fill="#fff"/>
      </g>
    </g>
  </g>
</svg>
