<svg xmlns="http://www.w3.org/2000/svg" width="79.5" height="72.33" viewBox="0 0 79.5 72.33">
  <g id="infected" transform="translate(0)" opacity="0.7">
    <path id="Trazado_104677" data-name="Trazado 104677" d="M79.5,90.846c-.567-15.656-4.079-29.2-10.156-39.165-5.082-8.334-11.8-13.807-18.426-15.014a2.283,2.283,0,0,0-1.921.529C47.544,38.4,46.649,41.71,46.171,48.3a5.7,5.7,0,0,1-1.644-3.413V37.248a1.167,1.167,0,1,0-2.334,0V44.89c0,2.026,1.276,4.236,3.791,6.572q-.106,2.244-.166,4.9a25.736,25.736,0,0,1-5.125-5.169,1.167,1.167,0,0,0-1.886,0,25.736,25.736,0,0,1-5.125,5.169q-.061-2.661-.166-4.9c2.515-2.336,3.791-4.546,3.791-6.572V27.866a2.443,2.443,0,1,1,4.886,0v4.715a1.167,1.167,0,0,0,2.334,0V27.866a4.777,4.777,0,1,0-9.553,0V44.89A5.7,5.7,0,0,1,33.33,48.3c-.479-6.592-1.374-9.9-2.823-11.108a2.284,2.284,0,0,0-1.921-.529,22.831,22.831,0,0,0-10.663,5.57A43.1,43.1,0,0,0,8.186,55.219a1.167,1.167,0,1,0,2.079,1.061c4.892-9.588,11.888-16.058,18.722-17.314.166.1,1.292,1.072,1.926,8.425.468,5.423.528,12.472.528,18.006,0,10.293-1.038,16.119-3.471,19.481-2.187,3.023-5.531,4.1-11.327,5.138a102.732,102.732,0,0,0-11.6,2.976,2.083,2.083,0,0,1-2.7-2.061c.42-11.589,2.432-21.82,5.979-30.41a1.167,1.167,0,1,0-2.157-.891C2.5,68.476.433,78.979,0,90.846a4.419,4.419,0,0,0,5.728,4.374,100.444,100.444,0,0,1,11.32-2.907c5.289-.945,9.9-2.055,12.807-6.067C32.6,82.454,33.773,76.219,33.773,65.4c0-2.212-.013-4.267-.039-6.177a30.206,30.206,0,0,0,6.016-5.44,30.2,30.2,0,0,0,6.016,5.44c-.026,1.911-.039,3.966-.039,6.177,0,10.823,1.17,17.058,3.914,20.849,2.9,4.013,7.518,5.122,12.808,6.067.583.1,1.2.226,1.843.362a1.167,1.167,0,0,0,.486-2.283c-.664-.141-1.31-.268-1.918-.377-5.8-1.036-9.14-2.115-11.327-5.138C49.1,81.515,48.061,75.689,48.061,65.4c0-5.535.06-12.583.528-18.006.634-7.354,1.761-8.322,1.926-8.425,5.969,1.1,12.1,6.172,16.834,13.93,5.869,9.626,9.264,22.778,9.817,38.035a2.083,2.083,0,0,1-2.7,2.061c-1.767-.55-3.483-1.05-5.1-1.485a1.167,1.167,0,1,0-.606,2.254c1.59.427,3.277.918,5.014,1.46A4.416,4.416,0,0,0,79.5,90.846Z" transform="translate(0 -23.089)" fill="#065949"/>
    <path id="Trazado_104678" data-name="Trazado 104678" d="M60.943,327.2a1.167,1.167,0,0,0,0,2.334h.962a5.533,5.533,0,0,0,.771,1.855l-.683.683a1.167,1.167,0,0,0,1.65,1.65l.683-.683a5.533,5.533,0,0,0,1.855.771v.962a1.167,1.167,0,0,0,2.334,0v-.962a5.536,5.536,0,0,0,1.855-.771l.683.683a1.167,1.167,0,1,0,1.65-1.65l-.683-.683a5.533,5.533,0,0,0,.771-1.855h.963a1.167,1.167,0,0,0,0-2.334h-.963a5.536,5.536,0,0,0-.771-1.855l.683-.683a1.167,1.167,0,1,0-1.65-1.65l-.683.683a5.534,5.534,0,0,0-1.855-.771v-.962a1.167,1.167,0,0,0-2.334,0v.962a5.537,5.537,0,0,0-1.855.771l-.683-.683a1.167,1.167,0,1,0-1.65,1.65l.683.683a5.533,5.533,0,0,0-.771,1.855Zm6.405-2.067a3.233,3.233,0,1,1-3.233,3.233,3.237,3.237,0,0,1,3.233-3.233Z" transform="translate(-50.494 -274.567)" fill="#065949"/>
    <path id="Trazado_104679" data-name="Trazado 104679" d="M344.01,234.527a1.167,1.167,0,0,0,1.65-1.65l-.683-.683a5.533,5.533,0,0,0,.771-1.855h.963a1.167,1.167,0,0,0,0-2.334h-.963a5.536,5.536,0,0,0-.771-1.855l.683-.683a1.167,1.167,0,0,0-1.65-1.65l-.683.683a5.533,5.533,0,0,0-1.855-.771v-.963a1.167,1.167,0,0,0-2.334,0v.963a5.533,5.533,0,0,0-1.855.771l-.683-.683a1.167,1.167,0,0,0-1.65,1.65l.683.683a5.532,5.532,0,0,0-.771,1.855H333.9a1.167,1.167,0,0,0,0,2.334h.963a5.535,5.535,0,0,0,.771,1.855l-.683.683a1.167,1.167,0,0,0,1.65,1.65l.682-.683a5.536,5.536,0,0,0,1.855.771v.962a1.167,1.167,0,0,0,2.334,0v-.962a5.534,5.534,0,0,0,1.855-.771Zm-3.7-2.121a3.233,3.233,0,1,1,3.233-3.233A3.237,3.237,0,0,1,340.306,232.406Z" transform="translate(-281.069 -190.777)" fill="#065949"/>
    <path id="Trazado_104680" data-name="Trazado 104680" d="M121.67,179.6a3.983,3.983,0,1,0,3.983,3.983A3.988,3.988,0,0,0,121.67,179.6Zm0,5.633a1.65,1.65,0,1,1,1.65-1.65A1.652,1.652,0,0,1,121.67,185.235Z" transform="translate(-99.413 -155.3)" fill="#065949"/>
    <path id="Trazado_104681" data-name="Trazado 104681" d="M349.382,379.194a3.983,3.983,0,1,0,3.983-3.983A3.988,3.988,0,0,0,349.382,379.194Zm5.633,0a1.65,1.65,0,1,1-1.65-1.65A1.651,1.651,0,0,1,355.015,379.194Z" transform="translate(-295.132 -320.536)" fill="#065949"/>
    <path id="Trazado_104682" data-name="Trazado 104682" d="M125.634,259.8a3.983,3.983,0,1,0,3.983-3.983,3.988,3.988,0,0,0-3.983,3.983Zm5.633,0a1.65,1.65,0,1,1-1.65-1.65A1.652,1.652,0,0,1,131.267,259.8Z" transform="translate(-106.126 -219.678)" fill="#065949"/>
    <path id="Trazado_104683" data-name="Trazado 104683" d="M416.062,333.734a3.983,3.983,0,1,0-3.983-3.983A3.988,3.988,0,0,0,416.062,333.734Zm0-5.633a1.65,1.65,0,1,1-1.65,1.65A1.651,1.651,0,0,1,416.062,328.1Z" transform="translate(-348.094 -278.77)" fill="#065949"/>
  </g>
</svg>
