<svg xmlns="http://www.w3.org/2000/svg" width="214.477" height="394.648" viewBox="0 0 214.477 394.648">
  <g id="Grupo_57328" data-name="Grupo 57328" transform="translate(-565.124 -86.141)">
    <path id="Trazado_104901" data-name="Trazado 104901" d="M672.363,182.924l-20,.535-.085,4.718-46.921,13.381c-7.673,1.232-24.549,10.7-25.3,28.694l-14.73,97.084c-.862,35.945,1.116,58.4,5.763,87.66l14.247-3.191c5.848-39.275,9.94-51.19,7.609-81.461,10.93-12.092,14.217-41.409,16.762-72.4l6.185,119.178L614.91,405.6c-3.755,25.065-6.423,51.1-7.69,75.192h57.125c1.638-15.534,2.73-33.592,3.543-48.53,1.488.042,2.976.1,4.475.1s2.986-.053,4.474-.1c.813,14.938,1.905,33,3.543,48.53h57.125c-1.267-24.088-3.935-50.127-7.689-75.192l-.978-28.471,6.185-119.178c2.545,30.987,5.832,60.3,16.762,72.4-2.331,30.271,1.761,42.186,7.609,81.461L773.641,415c4.647-29.264,6.625-51.715,5.763-87.66l-14.73-97.084c-.754-17.992-17.631-27.462-25.3-28.694l-46.921-13.381-.085-4.718Z" fill="#f5e3c6"/>
    <path id="Trazado_104902" data-name="Trazado 104902" d="M591.736,472.915a3.42,3.42,0,0,0,.144-4.834l-2.254-2.394a3.423,3.423,0,0,0-.637-3.731l-6.785-7.2-.7-4.292,1.563-8.99,2.525,8.544a3.713,3.713,0,0,0,4.613,2.509l.072-.021a3.713,3.713,0,0,0,2.508-4.613l-3.7-12.726a6.586,6.586,0,0,1-.254-2.135l.267-5.839a18.435,18.435,0,0,0-.893-6.574l-2.878-8.811-14.249,2.447.021,12.13c-1.472,8.938-.173,19.546.391,23.326.137.915.212,1.818.374,2.448.441,1.714,1.621,5.276,2.668,8.346l.245,1.824c.005.042.022.08.029.122a3.781,3.781,0,0,0,.1.4c.032.111.063.22.1.326a3.433,3.433,0,0,0,.149.32,3.708,3.708,0,0,0,.194.349c.024.036.038.077.064.113l.622.892c.23.657.372,1.057.372,1.057.006.042,9.259,13.363,9.259,13.363a3.713,3.713,0,0,0,5.188.806l.061-.044a3.712,3.712,0,0,0,.8-5.188l-.939-1.286a3.355,3.355,0,0,0,.9-.593Z" fill="#f5e3c6"/>
    <path id="Trazado_104903" data-name="Trazado 104903" d="M752.99,472.915a3.42,3.42,0,0,1-.145-4.834l2.254-2.394a3.423,3.423,0,0,1,.637-3.731l6.785-7.2.7-4.292-1.563-8.99-2.525,8.544a3.713,3.713,0,0,1-4.613,2.509l-.071-.021a3.713,3.713,0,0,1-2.509-4.613l3.7-12.726a6.587,6.587,0,0,0,.254-2.135l-.267-5.839a18.457,18.457,0,0,1,.893-6.574l2.878-8.811,14.249,2.447-.021,12.13c1.472,8.938.174,19.546-.391,23.326-.137.915-.212,1.818-.374,2.448-.441,1.714-1.62,5.276-2.668,8.346l-.245,1.824c0,.042-.022.08-.029.122a3.554,3.554,0,0,1-.095.4c-.031.111-.063.22-.1.326s-.1.214-.148.32a3.7,3.7,0,0,1-.2.349c-.024.036-.038.077-.063.113l-.623.892c-.23.657-.371,1.057-.371,1.057-.007.042-9.259,13.363-9.259,13.363a3.714,3.714,0,0,1-5.189.806l-.06-.044a3.712,3.712,0,0,1-.806-5.188l.94-1.286a3.345,3.345,0,0,1-.9-.593Z" fill="#f5e3c6"/>
    <path id="Trazado_104904" data-name="Trazado 104904" d="M691.258,157.145c12.86-10.681,14.061-29.96,12.477-45.168C701.748,92.837,683.957,86.195,666,86.141c-28.376-.074-32.8,18.418-33.467,24.965-.212,1.934-1.243,10.287-1.243,10.287-.245,1.137-1.233,6.249.648,7.461a2.285,2.285,0,0,1,1.212,2.253L630.128,146.2a3.462,3.462,0,0,0,3.369,4.134h2.508s-.063,2.243-.053,5.963v.031c0,1.594.043,3.444.075,5.484l.212,1.563.489,3.5.234,1.732.659,4.708a5.238,5.238,0,0,0,5.866,4.007l8.991-.372-.117,6.515,40.024,1.179Z" fill="#f5e3c6"/>
    <g id="Grupo_57327" data-name="Grupo 57327">
      <g id="Grupo_57322" data-name="Grupo 57322">
        <path id="Trazado_104905" data-name="Trazado 104905" d="M657.064,313.242c3.19-2.916,5.738-7.705,8.784-10.747,2.749-2.746,24.841-7.189,34.061-13.457a2.323,2.323,0,0,0-.842-4.223c-12.939-3.437-28.906-8.314-41.417-6.7-7.805,1.008-12.29-2.082-20.1-1.075-3.713.479-11.939,3.081-15.255,11.272-1.842,4.55-7.628,10.92-2.1,24.732,1.129,2.822,1.1,5.708.969,8.638-.12,2.622,2.788,4.476,5.425,3.445,4.285-1.676,8.365-3.487,12.949-4.963C644.662,318.518,650.82,318.952,657.064,313.242Z" fill="#96482b"/>
        <path id="Trazado_104906" data-name="Trazado 104906" d="M631.917,312.581a16.394,16.394,0,0,1-10.737,9.2c-.039,2.567,2.813,4.361,5.416,3.344,4.283-1.676,8.364-3.487,12.948-4.963,5.118-1.647,11.276-1.213,17.52-6.923,3.19-2.916,5.738-7.705,8.784-10.747,2.749-2.746,24.841-7.189,34.061-13.457a2.279,2.279,0,0,0-.1-3.9C675.276,292.19,643.883,284.121,631.917,312.581Z" fill="#1d1d1b" opacity="0.2"/>
      </g>
      <g id="Grupo_57323" data-name="Grupo 57323">
        <path id="Trazado_104907" data-name="Trazado 104907" d="M665.267,316.921a106.5,106.5,0,0,1-2.651-17.881c-.36-.937-2.338-.319-2.929.152.2,3.3.573,6.6,1.081,9.875a12.027,12.027,0,0,0-5.416-2.268,2.224,2.224,0,0,0-.437-.881c-.8-.961-2.191-1.285-3.379-1.813-2.06-.915-3.7-2.571-5.892-3.187a6.742,6.742,0,0,0-6.72,1.923,5.429,5.429,0,0,0-.449,6.428,6.613,6.613,0,0,0,6.4,2.689c1.9-.3,3.571-1.391,5.477-1.649,1.22-.164,2.537.009,3.628-.516a2.5,2.5,0,0,0,.578-.4,8.975,8.975,0,0,1,5.172,2.449,7.527,7.527,0,0,1,2.222,5.744l2.928.168c.018-.253.012-.506.009-.758Z" fill="#a89214"/>
      </g>
      <path id="Trazado_104908" data-name="Trazado 104908" d="M647.87,323.8c-2.37.194-3.693,2.534-4.574,4.557-1.2,2.762-2.376,6.017-.7,8.564,1.38,2.1,4.207,2.916,6.8,3.515,9.745,2.249,20.111,3.7,29.764,1.136a70.327,70.327,0,0,0,11.414-4.472c5.487-2.536,11.148-5.244,14.87-9.72,1.831-2.2,3.18-4.814,5.587-6.487,1-.7,2.275-1.36,2.452-2.5-3.373-1.3-7.3-.46-10.569,1.049s-6.145,3.649-9.41,5.158c-7.041,3.253-15.263,3.332-23.151,3.342a71.833,71.833,0,0,1-8.646-.336,35.326,35.326,0,0,1-10.154-2.789A7.741,7.741,0,0,0,647.87,323.8Z" fill="#a89214"/>
      <g id="Grupo_57324" data-name="Grupo 57324">
        <path id="Trazado_104909" data-name="Trazado 104909" d="M709.367,301.2a13.8,13.8,0,0,0-2.875-5.475A17.381,17.381,0,0,0,691.66,290.2c-6.983.913-11.134,6.052-14.171,10.75-.572.885-1.159,1.771-1.775,2.67a21.629,21.629,0,0,1-2.758-10.28l-.3-121.036-8.183,1-.323,120.066a29.193,29.193,0,0,0,5.486,16.748,15.885,15.885,0,0,1-5.383,2.442c-5.282,1.289-11.986.148-15.918,3.047a5.794,5.794,0,0,0-1.833,2.2,18.167,18.167,0,0,0-8.641,8.7,16.31,16.31,0,0,0,2.288,16.614l.074-.041,7.027-4.723a8.786,8.786,0,0,1-1.218-8.844,9.07,9.07,0,0,1,2.831-3.5,19.413,19.413,0,0,0,2.582,2.174c9.771,7.005,25.644,8.307,37.57,3.879s19.629-13.917,20.8-23.807A17.882,17.882,0,0,0,709.367,301.2Z" fill="#f9cb7a"/>
        <path id="Trazado_104910" data-name="Trazado 104910" d="M709.822,308.248c-1.174,9.89-8.876,19.378-20.8,23.807s-27.8,3.126-37.57-3.879A19.413,19.413,0,0,1,648.867,326a9.07,9.07,0,0,0-2.831,3.5,8.786,8.786,0,0,0,1.218,8.844l-7.027,4.723a15.375,15.375,0,0,1,1.834-14.278,10.9,10.9,0,0,1,6.557-4.362c3.448-.658,6.91.778,10.269,1.771a41.662,41.662,0,0,0,26.436-1.113,37.1,37.1,0,0,0,19.188-16.681c1.13-2.12,2.039-4.375,3.712-6.16a9.014,9.014,0,0,1,1.144-1.047A17.882,17.882,0,0,1,709.822,308.248Z" fill="#1d1d1b" opacity="0.1"/>
      </g>
      <g id="Grupo_57325" data-name="Grupo 57325">
        <path id="Trazado_104911" data-name="Trazado 104911" d="M723.978,361.484a6.2,6.2,0,0,1-1.511,4.026,6.232,6.232,0,0,1,1.511,4.026,6.37,6.37,0,0,1-2.67,5.113,4.016,4.016,0,0,0-.073.4,6.136,6.136,0,0,1,.543,2.536,6.329,6.329,0,0,1-1.981,4.563c-.044.161-.088.308-.132.469a6.142,6.142,0,0,1,.836,3.02,6.423,6.423,0,0,1-3.256,5.515,6.173,6.173,0,0,1,.469,2.322,6.785,6.785,0,0,1-7.012,6.535c-.044,0-.088-.013-.132-.013a6.893,6.893,0,0,1-6.866,5.274,7.467,7.467,0,0,1-3.462-.886,7.2,7.2,0,0,1-5.178,2.174,7.311,7.311,0,0,1-3.741-1.033,7.111,7.111,0,0,1-5.795,2.872,7.234,7.234,0,0,1-3.829-1.074v8.9c0,2.657-2.549,5.056-4.764,6.492-2.406,1.543-.5,9.727-2.059,9.727-.469,0-3.768.038-4.223-.029-.616-.094-.467-8.819-1.024-9.034-2.626-1.02-3.7-3.64-4.008-6.351a4.971,4.971,0,0,1-.059-.8v-9.569a16.156,16.156,0,0,1,9.668-14.413,18.92,18.92,0,0,1,6.689-1.731l16.387-1.369a4.2,4.2,0,0,0,1.716-.51,3.524,3.524,0,0,0,1.628-1.825c4.431-11.89,5.868-26.3,4.3-42.956-.162.08-.308.161-.47.241a7.354,7.354,0,0,1-7.452,6.16,7.825,7.825,0,0,1-3.8-.993,7.591,7.591,0,0,1-6.719,3.9,7.875,7.875,0,0,1-3.638-.913,7.667,7.667,0,0,1-5.9,2.7,7.821,7.821,0,0,1-4.064-1.128,7.854,7.854,0,0,1-10.841-.3c-.117-.013-.235-.013-.352-.027a7.811,7.811,0,0,1-4.548,1.45,7.7,7.7,0,0,1-5.985-2.8c-.161-.027-.337-.054-.5-.08a7.949,7.949,0,0,1-4.019,1.1,7.622,7.622,0,0,1-6.485-3.489c-.278-.081-.572-.148-.851-.228-1.3,8.307,0,20.277,3.375,30.463a.174.174,0,0,0,.029.08,60.626,60.626,0,0,0,2.905,7.166,6.975,6.975,0,0,1-2.157,8.656,10.01,10.01,0,0,1,3.286,5.462,9.478,9.478,0,0,1-1.672,7.515,1.5,1.5,0,0,1-1.218.6,1.638,1.638,0,0,1-.821-.228,1.272,1.272,0,0,1-.4-1.866,6.933,6.933,0,0,0,1.217-5.528,7.339,7.339,0,0,0-3.154-4.563,8.847,8.847,0,0,1-5.046-.04,7.853,7.853,0,0,1-4.768-3.973c-.22-.443-.426-.939-.631-1.4a7.1,7.1,0,0,1-5.178-6.67,6.653,6.653,0,0,1,.88-3.248,7.017,7.017,0,0,1-4.328-6.361,6.754,6.754,0,0,1,2.039-4.79,6.918,6.918,0,0,1-3.506-5.946,6.8,6.8,0,0,1,2.142-4.911,6.72,6.72,0,0,1,.748-10.441c.029-.241.088-.483.117-.724a5.94,5.94,0,0,1-1.481-3.906,6.34,6.34,0,0,1,3.917-5.73c.293-.711.587-1.436.939-2.107a8.353,8.353,0,0,1,9.946-3.865c30.748,9.77,48.338,7.7,69.727-8.159a8.689,8.689,0,0,1,7.995-1.154,7.571,7.571,0,0,1,5.061,5.771c.117.644.191,1.274.293,1.919a6.352,6.352,0,0,1,2.1,4.67,6.111,6.111,0,0,1-1.012,3.328c.015.147.044.295.059.443a6.3,6.3,0,0,1,2.244,4.777,6.185,6.185,0,0,1-1.335,3.825,6.229,6.229,0,0,1,.059,9.219A6.144,6.144,0,0,1,723.978,361.484Z" fill="#e99797"/>
        <path id="Trazado_104912" data-name="Trazado 104912" d="M712.58,352.359c-.015,5.8-.631,11.581-.939,17.378-.352,6.643-1.453,14.44-7.8,17.674l-.088.041a13.144,13.144,0,0,1-3.726,1.18,3.524,3.524,0,0,0,1.628-1.825c4.431-11.89,5.868-26.3,4.3-42.956-.162.08-.308.161-.47.241a7.354,7.354,0,0,1-7.452,6.16,7.825,7.825,0,0,1-3.8-.993,7.591,7.591,0,0,1-6.719,3.9,7.875,7.875,0,0,1-3.638-.913,7.667,7.667,0,0,1-5.9,2.7,7.821,7.821,0,0,1-4.064-1.128,7.854,7.854,0,0,1-10.841-.3c-.117-.013-.235-.013-.352-.027a7.811,7.811,0,0,1-4.548,1.45,7.7,7.7,0,0,1-5.985-2.8c-.161-.027-.337-.054-.5-.08a7.949,7.949,0,0,1-4.019,1.1,7.622,7.622,0,0,1-6.485-3.489c-.278-.081-.572-.148-.851-.228-1.3,8.307,0,20.277,3.375,30.463a.174.174,0,0,0,.029.08,60.626,60.626,0,0,0,2.905,7.166,6.975,6.975,0,0,1-2.157,8.656,10.01,10.01,0,0,1,3.286,5.462,9.478,9.478,0,0,1-1.672,7.515,1.5,1.5,0,0,1-1.218.6,1.638,1.638,0,0,1-.821-.228,1.272,1.272,0,0,1-.4-1.866,6.933,6.933,0,0,0,1.217-5.528,7.339,7.339,0,0,0-3.154-4.563,8.847,8.847,0,0,1-5.046-.04c2.039-.819,5.428-1.893,6.264-6.214,1.056-5.421-2.729-8.535-5.135-17.66a78.964,78.964,0,0,1-2.934-17.674c-.146-2.684.323-7.475,2.245-9.5,1.951-2.04,4.313-1.369,6.924-.269a39.135,39.135,0,0,0,5.017,1.946c14.832,3.892,29.12,3.623,43.277-2.013,2.347-.939,9.11-4.63,12.572-5.744a7.379,7.379,0,0,1,1.115-.3C708.868,339.288,712.58,340.737,712.58,352.359Z" fill="#1d1d1b" opacity="0.1"/>
        <path id="Trazado_104913" data-name="Trazado 104913" d="M717.714,393.477a6.785,6.785,0,0,1-7.012,6.535c-.044,0-.088-.013-.132-.013a6.893,6.893,0,0,1-6.866,5.274,7.467,7.467,0,0,1-3.462-.886,7.2,7.2,0,0,1-5.178,2.174,7.311,7.311,0,0,1-3.741-1.033,7.111,7.111,0,0,1-5.795,2.872,7.234,7.234,0,0,1-3.829-1.074v8.9c0,2.657-2.549,5.056-4.764,6.492-2.406,1.543-.5,9.727-2.059,9.727-.469,0-3.768.038-4.223-.029-.616-.094-.467-8.819-1.024-9.034-2.626-1.02-3.7-3.64-4.008-6.351a20.586,20.586,0,0,1,3.477,1.047c1.716.6,3.667,1.113,5.354.443,2.362-.927,3.125-3.637,3.154-6s-.352-4.845.851-6.925c2.054-3.529,7.306-3.878,11.663-4.321a52.464,52.464,0,0,0,21.051-6.737,58,58,0,0,1,6.074-3.382A6.173,6.173,0,0,1,717.714,393.477Z" fill="#1d1d1b" opacity="0.1"/>
      </g>
      <path id="Trazado_104914" data-name="Trazado 104914" d="M706.272,376.152a11.528,11.528,0,0,1-.851,1.007,12.637,12.637,0,0,1,.557,1.623,8.755,8.755,0,0,1-.205,5.838,6.822,6.822,0,0,1-3.213,3.328h-.015a6.176,6.176,0,0,1-2.494.658c-.014.013-.014.026-.029.026a4.2,4.2,0,0,1-1.716.51l-11.516.967-4.871.4c-.058,0-.117.014-.176.014h-.015c-.66.053-1.305.147-1.936.255-.484.094-.954.2-1.423.322a18.746,18.746,0,0,0-3.139,1.14,10.393,10.393,0,0,1-2.436-.858c-.176-.081-.337-.161-.5-.255a14.377,14.377,0,0,1-3.155,1.462h-.014a16.106,16.106,0,0,1-9.389.215,29.5,29.5,0,0,1-7.57-3.865c-.645-.416-1.291-.832-1.922-1.261-.718-.5-1.437-1.007-2.1-1.557a16.155,16.155,0,0,1-1.541-1.4,6.889,6.889,0,0,1-1.012-.765,10.665,10.665,0,0,1-2.523-3.7,13.638,13.638,0,0,1-.939-4.2c-.029-.563-.044-1.141-.029-1.7-.044-.2-.1-.416-.147-.631-.147-.644-.293-1.3-.44-1.946a5.718,5.718,0,0,1-.968-1.328c-.015,0-.015-.027-.015-.027a8.381,8.381,0,0,1-1.071-3.207c-.029-.229-.059-.47-.073-.7a26.037,26.037,0,0,1,.572-6.12c-.015-.2-.03-.416-.03-.617-.044-.644-.058-1.275-.088-1.892-.117-.282-.264-.551-.4-.819a8.338,8.338,0,0,1-.821-4.187,5.044,5.044,0,0,1,.058-.671,3.426,3.426,0,0,1,1.629-2.711.076.076,0,0,0,.014-.053c.015,0,.045.013.059.013s.03-.027.044-.027.015.027.03.054c.234.054.484.121.718.188a7.622,7.622,0,0,0,6.485,3.489h.249a7.32,7.32,0,0,0,2.112-.376,7.186,7.186,0,0,0,1.658-.724c.162.026.338.053.5.08a7.7,7.7,0,0,0,5.985,2.8,7.811,7.811,0,0,0,4.548-1.45c.117.014.235.014.352.027a6.559,6.559,0,0,0,.734.658,7.5,7.5,0,0,0,2.259,1.234,7.644,7.644,0,0,0,2.567.43,7.807,7.807,0,0,0,5.281-2.027,7.821,7.821,0,0,0,4.064,1.128,5.27,5.27,0,0,0,.792-.054h.015a7.532,7.532,0,0,0,5.09-2.644,8.3,8.3,0,0,0,1.394.578,7.755,7.755,0,0,0,2.244.335,7.591,7.591,0,0,0,6.719-3.9,7.825,7.825,0,0,0,3.8.993A8.016,8.016,0,0,0,702.6,348.8a7.019,7.019,0,0,0,2.875-4.711c.162-.08.308-.161.47-.241.088.872.117,1.717.191,2.576a10.916,10.916,0,0,0-.191-2.576,20.1,20.1,0,0,1,1.789,17.835,8.249,8.249,0,0,0-.513,1.61,2.594,2.594,0,0,0-.059.349,8.143,8.143,0,0,0,.748,3.006v.013A10.465,10.465,0,0,1,706.272,376.152Z" fill="#f9cb7a"/>
      <g id="Grupo_57326" data-name="Grupo 57326">
        <path id="Trazado_104915" data-name="Trazado 104915" d="M653.283,358.4a20.86,20.86,0,0,0,5.912.147c.455-.04.91-.067,1.365-.094a17,17,0,0,1,7.247.859,7.037,7.037,0,0,1,4.445,4.456,11.569,11.569,0,0,1,.22,1.489,7.6,7.6,0,0,0,.689,2.926,4.143,4.143,0,0,0,3.2,2.026h.264a2.653,2.653,0,0,0,2.186-1.006,3,3,0,0,0,.528-2.188,11.9,11.9,0,0,0-1.129-3.65c-.176-.376-.338-.765-.484-1.154q-.946-2.456-.132-3.825c.616-1.006,1.951-1.61,3.374-2.254,1.672-.752,3.55-1.6,4.3-3.3a8.3,8.3,0,0,1-1.394-.578,7.532,7.532,0,0,1-5.09,2.644h-.015a7.2,7.2,0,0,0-3.1,2.523c-.866,1.423-.866,3.261-.03,5.462.162.416.338.818.514,1.234a9.846,9.846,0,0,1,.983,3.074,1.219,1.219,0,0,1-.132.859c-.03.053-.118.174-.455.147a1.879,1.879,0,0,1-1.408-.886,6.46,6.46,0,0,1-.485-2.227,12.747,12.747,0,0,0-.249-1.758,9,9,0,0,0-5.736-5.865,15.731,15.731,0,0,0-4.944-1.02l2.215-.952a.526.526,0,0,0,.118-.068,7.5,7.5,0,0,1-2.259-1.234l-5.135,2.2a1.036,1.036,0,0,0-.293.188,15.724,15.724,0,0,1-4.577-.135c-1.79-.4-3.624-1.664-3.7-3.328a.86.86,0,0,0-.074-.322,7.32,7.32,0,0,1-2.112.376v.027C648.017,355.969,650.775,357.834,653.283,358.4Z" fill="#1d1d1b" opacity="0.2"/>
        <path id="Trazado_104916" data-name="Trazado 104916" d="M707.166,363.645a2.594,2.594,0,0,1,.059-.349,3.971,3.971,0,0,0-.836-.443,9.523,9.523,0,0,0-3.154-.5l-1.819-.08a13.36,13.36,0,0,0-.719-1.61l-.005-.009c0-.017.006-.032,0-.049a23.178,23.178,0,0,0,2.405-1.984c.017,0,.031.008.049.007a5.842,5.842,0,0,1,2.427.393,1.185,1.185,0,0,0,.435.082,1.112,1.112,0,0,0,1.012-.608.978.978,0,0,0-.576-1.323,8.126,8.126,0,0,0-1.7-.461,6.929,6.929,0,0,0,1.34-3.8,1.053,1.053,0,0,0-1.079-1.026h-.022a1.059,1.059,0,0,0-1.1.987c-.05,2.393-2.176,4.39-4.248,5.929-.352-.536-.719-1.059-1.129-1.569A10.355,10.355,0,0,0,702.6,348.8a7.607,7.607,0,0,1-2.215,1.087,8.727,8.727,0,0,1-3.712,6.119.013.013,0,0,0-.014.013,4.232,4.232,0,0,1-.426.309,5.541,5.541,0,0,1-.66.389A16.113,16.113,0,0,1,686.7,358.6c-.793-.027-2.934-.134-3.668,1.4a2.614,2.614,0,0,0-.044,1.945c.264.98.631,1.973.983,2.926a28.366,28.366,0,0,1,1.095,3.394c.016.074.225,1.662.225,1.665a9.43,9.43,0,0,1-.381,2.282,6.872,6.872,0,0,1-5.164,3.69,15.017,15.017,0,0,1-7.247-.631,9.1,9.1,0,0,1-2.861-1.315,3.257,3.257,0,0,1-.9-.939l-.176-.322a8.354,8.354,0,0,1-.381-3.61c.059-2.027.117-4.321-1.863-5.784-1.951-1.449-4.563-.993-6.675-.631l-.176.027a24.056,24.056,0,0,1-12.792-.859c-4.108-1.61-7.159-4.911-7.775-8.414a.982.982,0,0,0-.279-.537,8.338,8.338,0,0,0,.821,4.187c.132.268.279.537.4.819.03.617.044,1.248.088,1.892a16.08,16.08,0,0,0,5.868,3.9c.263.107.526.2.8.294a6.369,6.369,0,0,0-.57,3.875,1.076,1.076,0,0,0,1.085.846,1.167,1.167,0,0,0,.176-.013,1.021,1.021,0,0,0,.912-1.153,4.494,4.494,0,0,1,.539-2.961,28.905,28.905,0,0,0,11.124.092l.191-.027c1.833-.309,3.726-.644,4.885.215a2.253,2.253,0,0,1,.763,1.02c-3.11-.4-6.176.872-8.568,2.08l-1.085.55c-2.274,1.181-4.621,2.389-7.1,2.509-3.374.188-6.557-1.664-9.491-3.8a8.381,8.381,0,0,0,1.071,3.207s0,.027.015.027a15.354,15.354,0,0,0,7.965,2.59c.191,0,.382,0,.572-.014,2.979-.147,5.561-1.476,8.04-2.764l1.056-.537c-.264.913-.616,1.812-.983,2.738s-.748,1.9-1.042,2.885c-.014.054-.029.121-.044.174a8.659,8.659,0,0,0-5.3,1.235H650.8a1.155,1.155,0,0,0-.455.094c-1.394.59-3.139-.174-3.814-.537a19.89,19.89,0,0,1-1.746-1.047,18.639,18.639,0,0,0-2.582-1.476,1.044,1.044,0,0,0-.249-.067c.044.215.1.43.147.631-.015.563,0,1.141.029,1.7.469.255.924.55,1.394.859.6.389,1.232.792,1.921,1.154a9.158,9.158,0,0,0,3.022.966c-1.063,1.613-1.6,2.33-1.135,4.184a28.06,28.06,0,0,0-4.087-2.882l-.176-.08a10.665,10.665,0,0,0,2.523,3.7,6.889,6.889,0,0,0,1.012.765,16.155,16.155,0,0,0,1.541,1.4c.66.55,1.379,1.06,2.1,1.557.631.429,1.277.845,1.922,1.261a29.5,29.5,0,0,0,7.57,3.865,16.106,16.106,0,0,0,9.389-.215h.014a14.377,14.377,0,0,0,3.155-1.462c.161.094.322.174.5.255a10.393,10.393,0,0,0,2.436.858,18.746,18.746,0,0,1,3.139-1.14,19.644,19.644,0,0,1,3.359-.577,9.311,9.311,0,0,1-5.031-4.268,1.17,1.17,0,0,0-1.482-.456.98.98,0,0,0-.5,1.355,10.907,10.907,0,0,0,2.871,3.358,6.789,6.789,0,0,1-2.02.2c-.543-.081-1.042-.322-1.57-.416a3.629,3.629,0,0,0-.858-.047,7.768,7.768,0,0,0-.77-5.576c.308-.188.616-.376.91-.577a8.078,8.078,0,0,0,2.039-1.96,10.553,10.553,0,0,0,1.012-1.972c.117-.282.235-.564.367-.832a7.1,7.1,0,0,0,1.6,4.951,18.574,18.574,0,0,0,5.853,4.442c.851.483,1.731.967,2.641,1.383l11.516-.967a4.2,4.2,0,0,0,1.716-.51c.015,0,.015-.013.029-.026a6.176,6.176,0,0,0,2.494-.658h.015a4.444,4.444,0,0,0,.279-.429,4.359,4.359,0,0,0,.352-2.818c-.572-3.785-3.55-7.328-7.819-9.381a1.4,1.4,0,0,0,.1-.215,8.878,8.878,0,0,0,.455-2.831v-.2a11.673,11.673,0,0,1,9.037,6.119,1.116,1.116,0,0,0,1.012.59,12.637,12.637,0,0,0-.557-1.623,11.528,11.528,0,0,0,.851-1.007,12.782,12.782,0,0,0-3.8-3.771,1.743,1.743,0,0,0,.073-.3,18.683,18.683,0,0,0-.44-7.757l1.042.04a7.362,7.362,0,0,1,2.362.336,1.549,1.549,0,0,1,1.041,1.06,1.064,1.064,0,0,0,1.086.926.239.239,0,0,0,.1-.013.815.815,0,0,0,.176-.027A8.143,8.143,0,0,1,707.166,363.645ZM662.1,391.56c-4.445-.215-11.855-6.033-12.05-6.464a7.68,7.68,0,0,1-.394-1.053,5.176,5.176,0,0,1,1.745-5.167,6.219,6.219,0,0,1,4.313-1.355,7.316,7.316,0,0,0,1.981,6.361,6.93,6.93,0,0,0,1.966,1.3,17.812,17.812,0,0,1-3.9.859,1.018,1.018,0,0,0-.968,1.113,1.065,1.065,0,0,0,1.086.886h.132a20.918,20.918,0,0,0,6.675-1.852,13.761,13.761,0,0,0,2.772.282,14.073,14.073,0,0,0,4.944-.886c.919,1.584.526,2.88-.185,4.548C668.109,391.434,664.665,391.688,662.1,391.56Zm12.172-12.12a9.176,9.176,0,0,1-.807,1.624,6.621,6.621,0,0,1-1.525,1.436,11.675,11.675,0,0,1-8.26,1.8,7.9,7.9,0,0,1-1.247-.255,9.477,9.477,0,0,1-1.1-.349,6.625,6.625,0,0,1-2.068-1.221,5.421,5.421,0,0,1-1.365-4.7,9.965,9.965,0,0,1,.338-1.731c.014-.067.029-.121.044-.175.264-.9.616-1.785.983-2.724a23.6,23.6,0,0,0,1.423-4.536,9.548,9.548,0,0,1,5.208-.671.466.466,0,0,0,.1.134c0,.309,0,.631-.014.967a8.882,8.882,0,0,0,.762,4.8,18.132,18.132,0,0,0-4.049,5.019.973.973,0,0,0,.5,1.355,1.244,1.244,0,0,0,.484.094,1.1,1.1,0,0,0,.983-.55,16.116,16.116,0,0,1,3.448-4.348,10.792,10.792,0,0,0,3.711,1.772,22.322,22.322,0,0,0,3.2.724A11.148,11.148,0,0,0,674.276,379.44Zm26.729,5.529a2.558,2.558,0,0,1-.147,1.664,4.478,4.478,0,0,1-2.464,1.516,16.408,16.408,0,0,1-5.971,1.41c-2.465-.041-4.768-1.235-7.115-2.537a16.99,16.99,0,0,1-5.223-3.9c-1.07-1.369-1.716-3.489-.748-5.113.294-.04.587-.08.866-.134a9.083,9.083,0,0,0,6.777-4.939,7.233,7.233,0,0,0,.543-2.879,21.7,21.7,0,0,1,3.869.268,1.152,1.152,0,0,0,.193.016,1.079,1.079,0,0,0,1.082-.832,1.016,1.016,0,0,0-.892-1.165,23.993,23.993,0,0,0-4.5-.3,28.362,28.362,0,0,0-1.217-3.821c-.352-.966-.689-1.866-.939-2.765-.117-.429-.1-.59-.073-.644s.205-.268,1.54-.2c.323.013.66.027.983.027h.015a.621.621,0,0,0,.161.094,9.147,9.147,0,0,1,4.8,4.71,14.8,14.8,0,0,1,1.189,6.777,7.176,7.176,0,0,1-.338,2.228,8.719,8.719,0,0,1-1.423,2.214l-.616.792-.924,1.194-2.186,2.8a.944.944,0,0,0,.249,1.409,1.082,1.082,0,0,0,.631.188,1.173,1.173,0,0,0,.91-.416l1.261-1.624a7.767,7.767,0,0,0,3.55,3.14,1.248,1.248,0,0,0,.485.094,1.091,1.091,0,0,0,.983-.563.963.963,0,0,0-.514-1.342,5.585,5.585,0,0,1-3.007-3.275l.968-1.234c.176-.229.367-.47.557-.725C697.983,378.836,700.521,381.815,701.005,384.969Zm-.572-13.715a14.264,14.264,0,0,0-4.548-1.221,14.792,14.792,0,0,0-1.32-5.382,11.563,11.563,0,0,0-3.418-4.294,16.661,16.661,0,0,0,5.589-1.919,17.834,17.834,0,0,1,1.6,2.389.047.047,0,0,0,.015.04c.014.026.028.054.043.081a1.177,1.177,0,0,0,.03.13,1.12,1.12,0,0,0,.163.233l.028.052A17.38,17.38,0,0,1,700.433,371.254Z" fill="#1d1d1b" opacity="0.2"/>
      </g>
    </g>
    <path id="Trazado_104917" data-name="Trazado 104917" d="M657.69,150.465c.256,1.187,1.41,1.927,2.462,2.533l5.925,3.413,5.586,3.218c.47.271,1.08.538,1.518.219s.376-.964.263-1.485a17.825,17.825,0,0,0-4.145-8.741c-2.267-2.352-5.794-3.693-8.9-2.681C658.853,147.445,657.349,148.875,657.69,150.465Z" fill="#8cbf93"/>
    <path id="Trazado_104918" data-name="Trazado 104918" d="M649.818,170.425a.859.859,0,0,0,.693.683,3.381,3.381,0,0,0,1.034,0,6.577,6.577,0,0,1,5.682,2.633c.625.858,1.32,2.015,2.368,1.852.878-.137,1.307-1.167,1.348-2.054a5.9,5.9,0,0,0-3.929-5.634,6.687,6.687,0,0,0-6.775,1.683A1.134,1.134,0,0,0,649.818,170.425Z" fill="#8cbf93"/>
    <path id="Trazado_104919" data-name="Trazado 104919" d="M655.685,161.235l-1.513-.5a7.032,7.032,0,0,1,4.838-4.546,13.014,13.014,0,0,1,2.34-.327c.258-.02.515-.04.772-.065a5.34,5.34,0,0,0,2.475-.737,1.85,1.85,0,0,0,.875-1.761l1.559-.327a3.422,3.422,0,0,1-1.525,3.4,6.774,6.774,0,0,1-3.225,1.013c-.269.027-.538.047-.808.069a11.652,11.652,0,0,0-2.057.279A5.5,5.5,0,0,0,655.685,161.235Z" fill="#8cbf93"/>
    <path id="Trazado_104920" data-name="Trazado 104920" d="M658.827,173.849l-.832-1.359a3.287,3.287,0,0,0,1.384-3.564,7.227,7.227,0,0,0-1-1.884c-.23-.35-.461-.7-.663-1.064a3.949,3.949,0,0,1-.158-4.232l1.3.925a2.551,2.551,0,0,0,.252,2.53c.183.33.393.646.6.963a8.576,8.576,0,0,1,1.2,2.32A4.883,4.883,0,0,1,658.827,173.849Z" fill="#8cbf93"/>
    <path id="Trazado_104921" data-name="Trazado 104921" d="M672.66,170.291v14.347h-8.183v-13.89a4.31,4.31,0,0,0-4.3-4.315l-23.445.436-.489-3.5-.212-1.563c-.032-2.04-.075-3.89-.075-5.484l24.359,1.6A12.355,12.355,0,0,1,672.66,170.291Z" fill="#f9cb7a"/>
  </g>
</svg>
