<svg xmlns="http://www.w3.org/2000/svg" width="64.505" height="76.944" viewBox="0 0 64.505 76.944">
  <path id="Trazado_104691" data-name="Trazado 104691" d="M258.8,352.31c-2.152-4.195-5.418-7.057-8.964-7.862a12.2,12.2,0,0,0-3.021-.287h-.071a15.509,15.509,0,0,0-3.353.513,13.457,13.457,0,0,0-3.433,1.4,15.435,15.435,0,0,0-3.448,2.96c-.045.047-.095.1-.144.156a1.955,1.955,0,0,1-.714.6,1.156,1.156,0,0,1-.42.085,1.63,1.63,0,0,1-.29-.029l-.091-.021.01-.022c-.3-.091-1.215-.526-1.621-2.442l-.566-16.76-4.913.12.576,17.14c0,.047.026,4.995,2.971,7.777a3.433,3.433,0,0,0,.832.754c.8.462,1.273,1.551,1.321,3.069a11.37,11.37,0,0,1-2.5,7.435,12.01,12.01,0,0,1-6.6,4.222c-.952.223-1.942.444-2.984.677-5.147,1.159-10.981,2.468-15.785,5-5.566,2.934-8.611,6.94-9.3,12.236-.537,4.131.471,8.1,2.705,10.626a12.974,12.974,0,0,0,6.183,3.638,24.559,24.559,0,0,0,7.256.936l.035-.006c.132,0,.257,0,.39,0a40.82,40.82,0,0,0,8.2-1.427l1.068-.26c.239-.059.489-.122.749-.184a16.831,16.831,0,0,1,3.585-.656,4.644,4.644,0,0,1,2.97.778c1.482,1.086,1.294,3.27,1.028,4.817-.013.087-.032.168-.046.253,1.958-.111,3.953-.269,5.872-.427q1.453-.123,2.891-.234a.823.823,0,0,0,.51-.467c.645-1.334-.627-4.724-.773-5.1-.928-2.4-1.636-3.6-3.6-4.86a13.107,13.107,0,0,0-7.588-1.823,22.845,22.845,0,0,0-3.361.385,32.814,32.814,0,0,0-4.706,1.393,23.652,23.652,0,0,1-6.55,1.623,8.742,8.742,0,0,1-6.015-1.955,2.677,2.677,0,0,1-1.033-2.142,2.451,2.451,0,0,0-.832-1.959,2.78,2.78,0,0,0-.463-.3l-.114-.066.173-.1c.9-.532,1-2.129,1.065-3.191a7.667,7.667,0,0,1,.074-.787l.021-.143.1.106c.906.959,2.609,1.021,3.335,1.049a3.239,3.239,0,0,0,.353,0,2.7,2.7,0,0,0,2.5-1.466c.107-.178.165-.282.26-.282.112,0,.175.13.255.386.728,2.339,3.908,4.036,9.211,4.919a30.839,30.839,0,0,0,6.044.382,37.012,37.012,0,0,0,19.37-6.48,28.063,28.063,0,0,0,9.725-10.955C258.637,371.871,263.173,360.838,258.8,352.31Zm-60.664,45.223c.106.241.207.479.327.723,0,0-.138-.257-.327-.723-5.2-11.781,5.821-19.261,5.821-19.261C194.693,386.545,197.133,395.048,198.137,397.534Zm35.747-32.609a14.435,14.435,0,0,1-4.243,4.958,14.65,14.65,0,0,1-9.6,2.558c12.118-1.171,14.124-7.876,15.321-14.2s4.11-7.131,4.11-7.131C235.529,354.586,236.286,359.672,233.884,364.925Z" transform="translate(-196.15 -330.602)" fill="#065949" opacity="0.7"/>
</svg>
