<svg xmlns="http://www.w3.org/2000/svg" width="273.531" height="298.947" viewBox="0 0 273.531 298.947">
  <g id="Grupo_57409" data-name="Grupo 57409" transform="translate(-354.065 -57.282)">
    <g id="Grupo_57383" data-name="Grupo 57383" transform="translate(354.565 112.491)">
      <g id="Grupo_57360" data-name="Grupo 57360" transform="translate(120.083 72.007)">
        <path id="Trazado_105083" data-name="Trazado 105083" d="M455.99,274.458c7.805-1.245,13.031-2.253,18.509-5.44s13.331-7.044,30.126-8.947,23.9-6.534,29.144-9.821,14.21-3.908,19.1-3.744a20.133,20.133,0,0,0,13.833-4.8,15.584,15.584,0,0,1,12.779-3.978,13.256,13.256,0,0,0,4.964-.1V145.573c-3.075,2.139-30.952-11.284-31.7-4.147s-6.337,10.705-8.577,13.365c-3.353,3.984-21.432,10.42-43.289,3.364-8.559-2.767-13.694,16.578-16.223,18.825-14.377,12.78-42.486,3.722-44.891,5.806-4.446,3.848-7.77,4.031-7.77,4.031v95.416a23.1,23.1,0,0,1,7.128-.822C443.781,281.447,448.187,275.7,455.99,274.458Z" transform="translate(-431.998 -139.315)" fill="#fabaa4" stroke="#ce8d61" stroke-linecap="round" stroke-linejoin="round" stroke-width="1"/>
      </g>
      <g id="Grupo_57381" data-name="Grupo 57381">
        <g id="Grupo_57380" data-name="Grupo 57380">
          <g id="Grupo_57365" data-name="Grupo 57365" transform="translate(0 52.107)">
            <g id="Grupo_57361" data-name="Grupo 57361">
              <path id="Trazado_105084" data-name="Trazado 105084" d="M514.724,180.911a22.265,22.265,0,0,0,2.205,3.626c3.415,4.395,9.156,4.7,13.954,2.841,10.519-4.088,12.836-17.709,17.3-26.669,1.476-2.968,2.965-6.619,5.736-8.641,2.866-2.1,5.967-1.275,8.632.772,3.683,2.821,7.431,7.171,12.465,7.14a8.338,8.338,0,0,0,6.941-3.323,8.828,8.828,0,0,0,2.484-4.268V126.94c-2.484,1.493-1.56,6.459-6.952,16.682-3.734,7.073-10.22,7.521-13.1.752-2.064-4.859-4.643-11.9-10.318-10.19-5.512,1.653-9.122,12.485-12.316,23.986s-7.388,11.786-13.137,12.848-13.635-1.444-15.466-5.629c-7.461-17.057-11.212-15.2-15.474-14.354s-7.982,5.648-11.068,21.083c-2.641,13.208-4.162,18.32-12.464,20.593s-12.016-5.946-12.442-8.073c-1.8-9.024-2.951-18.732-9.482-17.882s-20.227,7.7-20.227,7.7v24.394a17.1,17.1,0,0,1,2.084-1.459c4.2-2.472,9.756-4.359,14.66-3.139,5.663,1.41,7.912,7.262,13.055,9.455,6.58,2.805,14.815,3.437,21.323.085,5.225-2.689,7.729-7.379,8.877-12.969,1.465-7.095,2.294-25.19,14.23-20.622C510.94,172,512.607,176.721,514.724,180.911Z" transform="translate(-311.915 -126.23)" fill="#f2a89c" stroke="#d3766c" stroke-linecap="round" stroke-linejoin="round" stroke-width="1"/>
              <path id="Trazado_105085" data-name="Trazado 105085" d="M577.494,143.622c-3.734,7.073-10.22,7.521-13.1.752-2.064-4.859-4.643-11.9-10.318-10.19-5.512,1.653-9.122,12.485-12.316,23.986s-7.388,11.786-13.137,12.848-13.635-1.444-15.466-5.629c-7.461-17.057-11.212-15.2-15.474-14.354s-7.982,5.648-11.068,21.083c-2.641,13.208-4.162,18.32-12.464,20.593s-12.016-5.946-12.442-8.073c-1.8-9.024-2.951-18.732-9.482-17.882s-20.227,7.7-20.227,7.7v24.394a17.1,17.1,0,0,1,2.084-1.459c4.2-2.472,9.756-4.359,14.66-3.139,5.663,1.41,7.912,7.262,13.055,9.455,6.58,2.805,14.815,3.437,21.323.085,5.225-2.689,7.729-7.379,8.877-12.969,1.465-7.095,2.294-25.19,14.23-20.622,4.713,1.8,6.38,6.521,8.5,10.711a22.265,22.265,0,0,0,2.205,3.626c3.415,4.395,9.156,4.7,13.954,2.841,10.519-4.088,12.836-17.709,17.3-26.669,1.476-2.968,2.965-6.619,5.736-8.641,2.866-2.1,5.967-1.275,8.632.772,3.683,2.821,7.431,7.171,12.465,7.14a8.338,8.338,0,0,0,6.941-3.323,8.828,8.828,0,0,0,2.484-4.268V126.94C581.962,128.433,582.886,133.4,577.494,143.622ZM530.117,183.35c-6.3,2.194-11.257-1.14-14.906-6.143-2.135-2.926-3.838-6.7-6.679-9.005-3.489-2.829-8.536-3.564-11.809.1-3.052,3.421-4.189,7.821-5.7,12.03-.292,1.033-.571,2.064-.861,3.1-1.532,5.429-3.5,11.66-8.374,15.041a17.323,17.323,0,0,1-14.41,2.247,18.148,18.148,0,0,1-6.993-3.3c-2.072-1.7-3.829-3.7-5.812-5.49-2.382-2.137-5.538-4.448-8.906-3.328-2.045.675-4.089,2-6.257,2.258-4.524.537-5.625-4.8-5.485-8.336.191-4.738,3.274-7.683,7.591-9.286,3.3-1.231,8.658-2.731,11.634.05,3.3,1.614,5.023,5.052,6.2,8.691,2.042,6.33,4.752,14.638,13.135,13.976,7.824-.613,11.952-7.16,14.23-13.928,1.642-4.871,2.929-9.948,4.868-14.714,1.506-3.7,3.7-7.4,8-8.022,4.68-.668,7.7,3.782,10.059,7.092,2.094,2.928,4.88,6.554,8.242,8.7a.509.509,0,0,1,.248.036c3.88,1.65,11.377,1.929,14.743-1.027,2.052-1.8,3.724-4.305,6.389-5.248a.5.5,0,0,1,.617.354C541.711,175.452,535.582,181.444,530.117,183.35Zm51.612-34.684a10.034,10.034,0,0,1-1.811,5.484c-2.953,3.57-8.036,2.483-11.271-.129-2.4-1.931-4.353-4.566-7.045-6.109-3.12-1.783-6.039-.886-8.373,1.678-3.874,4.243-5.569,9.908-9.271,14.207-.321.377-.813.031-.859-.357-.575-4.732,1.335-9.736,3.906-13.937a26.92,26.92,0,0,1,2.345-5.33c1.453-2.43,3.789-5.115,6.957-4.471,3.578.724,5.781,4.088,7.849,6.8,2.126,2.791,6.163,8.858,10,4.851,1.405-1.464,3.92-7.456,6.473-7.014C582.033,144.585,581.808,147.846,581.729,148.667Z" transform="translate(-311.915 -126.23)" fill="#f2a89c" opacity="0.6" style="mix-blend-mode: multiply;isolation: isolate"/>
              <path id="Trazado_105086" data-name="Trazado 105086" d="M354.565,126.482v20.841c4.4-.087,9.922,2.66,12.879,5.246,3.407,2.974,4.682,6.138,9.049,12.278s14.478,10.29,21.3,7.523,11.919-3.407,16.817,2.337,7.557,11.715,15.224,10.645,13.093-3.722,18.63,2.88,9.581,8.408,13.306,7.025,6.814.535,8.411,3.3a5.246,5.246,0,0,0,4.471,2.66V174.707Z" transform="translate(-354.565 -126.482)" fill="#f9b9b2" stroke="#d3766c" stroke-linecap="round" stroke-linejoin="round" stroke-width="1"/>
            </g>
            <path id="Trazado_105087" data-name="Trazado 105087" d="M354.565,126.482v20.841c4.4-.087,9.922,2.66,12.879,5.246,3.407,2.974,4.682,6.138,9.049,12.278s14.478,10.29,21.3,7.523,11.919-3.407,16.817,2.337,7.557,11.715,15.224,10.645,13.093-3.722,18.63,2.88,9.581,8.408,13.306,7.025,6.814.535,8.411,3.3a5.246,5.246,0,0,0,4.471,2.66V174.707ZM469.6,194.195c-1.98-3.941-4.113-1.768-7.732-1.526s-9.047-2.9-11.71-7.5-7.982-6.228-14.691-3.764-11.5-1.05-17.567-8.508-15.117-6.884-21.184-3.975-14.37-.172-20.015-10.823-13.259-12.454-17.113-12.774-3.75-4.894-3.75-9.8c0-7.448.83-6.168,14.573-.738s47.7,19.588,61.329,24.805,20.652,9.26,30.555,12.453,10.752,3.443,10.752,11.569S471.591,198.134,469.6,194.195Z" transform="translate(-354.565 -126.482)" fill="#f2a89c" opacity="0.6" style="mix-blend-mode: multiply;isolation: isolate"/>
            <g id="Grupo_57364" data-name="Grupo 57364" transform="translate(1.918 3.625)">
              <g id="Grupo_57362" data-name="Grupo 57362">
                <path id="Trazado_105088" data-name="Trazado 105088" d="M359.371,130.7c-.206.675-1.166.977-2.137.675s-1.6-1.092-1.385-1.768,1.166-.972,2.139-.673S359.583,130.028,359.371,130.7Z" transform="translate(-355.799 -128.82)" fill="#f9b9b2" opacity="0.4" style="mix-blend-mode: multiply;isolation: isolate"/>
                <path id="Trazado_105089" data-name="Trazado 105089" d="M367.245,141.2c-.154.49-.853.709-1.568.49s-1.166-.8-1.013-1.293.854-.715,1.563-.492S367.4,140.7,367.245,141.2Z" transform="translate(-350.937 -122.762)" fill="#f9b9b2" opacity="0.6" style="mix-blend-mode: multiply;isolation: isolate"/>
                <path id="Trazado_105090" data-name="Trazado 105090" d="M382.032,139.793c-.157.5-.856.718-1.569.5s-1.162-.8-1.011-1.293.851-.715,1.563-.492S382.184,139.3,382.032,139.793Z" transform="translate(-342.792 -123.533)" fill="#f9b9b2" opacity="0.6" style="mix-blend-mode: multiply;isolation: isolate"/>
                <path id="Trazado_105091" data-name="Trazado 105091" d="M398.193,147.432c-.152.493-.854.71-1.566.493s-1.168-.8-1.014-1.295.853-.716,1.563-.493S398.347,146.94,398.193,147.432Z" transform="translate(-333.891 -119.329)" fill="#f9b9b2" opacity="0.4" style="mix-blend-mode: multiply;isolation: isolate"/>
                <path id="Trazado_105092" data-name="Trazado 105092" d="M405.934,152.5c-.149.492-.848.713-1.56.492s-1.169-.794-1.017-1.293.856-.709,1.565-.49S406.089,152.008,405.934,152.5Z" transform="translate(-329.625 -116.535)" fill="#f9b9b2" opacity="0.4" style="mix-blend-mode: multiply;isolation: isolate"/>
                <path id="Trazado_105093" data-name="Trazado 105093" d="M376.463,154.282c-.155.492-.853.716-1.566.492s-1.169-.794-1.017-1.293.858-.71,1.566-.492S376.615,153.792,376.463,154.282Z" transform="translate(-345.861 -115.554)" fill="#f9b9b2" opacity="0.4" style="mix-blend-mode: multiply;isolation: isolate"/>
                <path id="Trazado_105094" data-name="Trazado 105094" d="M390.618,146.8c-.147.493-.848.712-1.565.493s-1.166-.8-1.016-1.293.858-.716,1.566-.492S390.771,146.3,390.618,146.8Z" transform="translate(-338.062 -119.676)" fill="#f9b9b2" opacity="0.4" style="mix-blend-mode: multiply;isolation: isolate"/>
                <path id="Trazado_105095" data-name="Trazado 105095" d="M382.882,150.7c-.152.492-.853.715-1.566.492s-1.166-.8-1.014-1.293.858-.712,1.566-.493S383.034,150.2,382.882,150.7Z" transform="translate(-342.324 -117.53)" fill="#f9b9b2" opacity="0.4" style="mix-blend-mode: multiply;isolation: isolate"/>
                <path id="Trazado_105096" data-name="Trazado 105096" d="M375.2,140.943c-.118.378-.658.543-1.2.378s-.892-.613-.779-.988.654-.549,1.2-.378S375.312,140.562,375.2,140.943Z" transform="translate(-346.218 -122.723)" fill="#f9b9b2" opacity="0.4" style="mix-blend-mode: multiply;isolation: isolate"/>
                <path id="Trazado_105097" data-name="Trazado 105097" d="M419.893,166.351c-.118.38-.65.543-1.2.38s-.892-.616-.772-.993.651-.546,1.2-.375S420.013,165.976,419.893,166.351Z" transform="translate(-321.599 -108.728)" fill="#f9b9b2" opacity="0.4" style="mix-blend-mode: multiply;isolation: isolate"/>
                <path id="Trazado_105098" data-name="Trazado 105098" d="M379.534,145.949c-.149.479-.827.692-1.514.479s-1.126-.772-.977-1.25.825-.689,1.514-.476S379.68,145.476,379.534,145.949Z" transform="translate(-344.118 -120.117)" fill="#f9b9b2" opacity="0.6" style="mix-blend-mode: multiply;isolation: isolate"/>
                <path id="Trazado_105099" data-name="Trazado 105099" d="M388.044,151.865c-.147.481-.823.692-1.51.481s-1.131-.779-.977-1.253.825-.685,1.512-.473S388.193,151.385,388.044,151.865Z" transform="translate(-339.43 -116.858)" fill="#f9b9b2" opacity="0.6" style="mix-blend-mode: multiply;isolation: isolate"/>
                <path id="Trazado_105100" data-name="Trazado 105100" d="M386.866,141.977c-.115.378-.648.546-1.2.378s-.889-.609-.769-.986.647-.546,1.2-.375S386.984,141.6,386.866,141.977Z" transform="translate(-339.787 -122.151)" fill="#f9b9b2" opacity="0.4" style="mix-blend-mode: multiply;isolation: isolate"/>
                <path id="Trazado_105101" data-name="Trazado 105101" d="M401.8,163.4c-.141.461-.8.668-1.47.461s-1.1-.752-.955-1.213.8-.668,1.47-.468S401.941,162.934,401.8,163.4Z" transform="translate(-331.818 -110.487)" fill="#f9b9b2" opacity="0.4" style="mix-blend-mode: multiply;isolation: isolate"/>
                <path id="Trazado_105102" data-name="Trazado 105102" d="M416.915,154.45c-.185.6-1.041.867-1.9.6s-1.424-.977-1.236-1.577,1.037-.87,1.907-.6S417.1,153.848,416.915,154.45Z" transform="translate(-323.891 -115.63)" fill="#f9b9b2" opacity="0.4" style="mix-blend-mode: multiply;isolation: isolate"/>
                <path id="Trazado_105103" data-name="Trazado 105103" d="M428.284,168.716c-.185.6-1.042.868-1.906.6s-1.422-.972-1.234-1.572,1.036-.873,1.9-.6S428.472,168.113,428.284,168.716Z" transform="translate(-317.628 -107.769)" fill="#f9b9b2" opacity="0.4" style="mix-blend-mode: multiply;isolation: isolate"/>
                <path id="Trazado_105104" data-name="Trazado 105104" d="M418.989,160.23c-.185.6-1.039.867-1.907.6s-1.424-.977-1.23-1.579,1.037-.87,1.9-.6S419.177,159.629,418.989,160.23Z" transform="translate(-322.748 -112.447)" fill="#f9b9b2" opacity="0.4" style="mix-blend-mode: multiply;isolation: isolate"/>
                <path id="Trazado_105105" data-name="Trazado 105105" d="M398.491,154.109c-.113.377-.648.543-1.194.377s-.89-.606-.771-.989.647-.547,1.193-.375S398.611,153.732,398.491,154.109Z" transform="translate(-333.384 -115.472)" fill="#f9b9b2" opacity="0.6" style="mix-blend-mode: multiply;isolation: isolate"/>
                <path id="Trazado_105106" data-name="Trazado 105106" d="M405.583,160.408c-.194.633-1.095.917-2.007.633s-1.5-1.028-1.3-1.658,1.1-.918,2.01-.633S405.78,159.777,405.583,160.408Z" transform="translate(-330.226 -112.395)" fill="#f9b9b2" opacity="0.6" style="mix-blend-mode: multiply;isolation: isolate"/>
                <path id="Trazado_105107" data-name="Trazado 105107" d="M361.617,135.621c-.1.335-.578.487-1.072.335s-.794-.54-.692-.881.589-.484,1.073-.34S361.727,135.289,361.617,135.621Z" transform="translate(-353.581 -125.592)" fill="#f9b9b2" opacity="0.4" style="mix-blend-mode: multiply;isolation: isolate"/>
                <path id="Trazado_105108" data-name="Trazado 105108" d="M366.519,133c-.127.413-.718.6-1.318.413s-.986-.667-.856-1.087.721-.6,1.321-.409S366.649,132.589,366.519,133Z" transform="translate(-351.11 -127.155)" fill="#f9b9b2" opacity="0.6" style="mix-blend-mode: multiply;isolation: isolate"/>
                <path id="Trazado_105109" data-name="Trazado 105109" d="M373.207,146.152c-.129.414-.721.6-1.323.414s-.979-.675-.854-1.093.721-.6,1.321-.414S373.334,145.735,373.207,146.152Z" transform="translate(-347.428 -119.915)" fill="#f9b9b2" opacity="0.4" style="mix-blend-mode: multiply;isolation: isolate"/>
                <path id="Trazado_105110" data-name="Trazado 105110" d="M410.776,157.161c-.132.42-.721.608-1.321.42s-.982-.675-.854-1.093.721-.6,1.318-.413S410.905,156.748,410.776,157.161Z" transform="translate(-326.734 -113.848)" fill="#f9b9b2" opacity="0.6" style="mix-blend-mode: multiply;isolation: isolate"/>
                <path id="Trazado_105111" data-name="Trazado 105111" d="M430.957,163.857c-.127.413-.721.6-1.318.413s-.985-.668-.858-1.086.721-.6,1.321-.414S431.088,163.444,430.957,163.857Z" transform="translate(-315.618 -110.16)" fill="#f9b9b2" opacity="0.6" style="mix-blend-mode: multiply;isolation: isolate"/>
                <path id="Trazado_105112" data-name="Trazado 105112" d="M424.467,158.012c-.127.413-.72.6-1.324.413s-.982-.675-.854-1.086.724-.6,1.321-.419S424.594,157.593,424.467,158.012Z" transform="translate(-319.195 -113.381)" fill="#f9b9b2" opacity="0.6" style="mix-blend-mode: multiply;isolation: isolate"/>
                <path id="Trazado_105113" data-name="Trazado 105113" d="M358.069,137.953c-.133.433-.744.622-1.36.433s-1.013-.693-.882-1.123.743-.614,1.36-.426S358.2,137.53,358.069,137.953Z" transform="translate(-355.802 -124.444)" fill="#f9b9b2" opacity="0.6" style="mix-blend-mode: multiply;isolation: isolate"/>
                <path id="Trazado_105114" data-name="Trazado 105114" d="M371.813,135.214c-.136.437-.76.637-1.4.437s-1.034-.709-.9-1.149.758-.637,1.393-.436S371.944,134.777,371.813,135.214Z" transform="translate(-348.262 -125.973)" fill="#f9b9b2" opacity="0.4" style="mix-blend-mode: multiply;isolation: isolate"/>
              </g>
              <g id="Grupo_57363" data-name="Grupo 57363" transform="translate(121.676 6.079)">
                <path id="Trazado_105115" data-name="Trazado 105115" d="M438.982,159.447c.281.644-.245,1.5-1.182,1.9s-1.914.22-2.2-.43.247-1.5,1.18-1.914S438.7,158.8,438.982,159.447Z" transform="translate(-433.567 -118.386)" fill="#f9b9b2" opacity="0.4" style="mix-blend-mode: multiply;isolation: isolate"/>
                <path id="Trazado_105116" data-name="Trazado 105116" d="M450.014,162.517c.211.467-.178,1.093-.862,1.4s-1.407.158-1.613-.318.18-1.1.864-1.4S449.807,162.037,450.014,162.517Z" transform="translate(-426.98 -116.599)" fill="#f9b9b2" opacity="0.6" style="mix-blend-mode: multiply;isolation: isolate"/>
                <path id="Trazado_105117" data-name="Trazado 105117" d="M472.907,147.058c.206.473-.177,1.1-.862,1.4s-1.405.158-1.613-.316.178-1.093.862-1.4S472.7,146.585,472.907,147.058Z" transform="translate(-414.371 -125.113)" fill="#f9b9b2" opacity="0.4" style="mix-blend-mode: multiply;isolation: isolate"/>
                <path id="Trazado_105118" data-name="Trazado 105118" d="M478.226,145.048c.212.473-.177,1.1-.861,1.4s-1.405.158-1.613-.315.185-1.1.865-1.394S478.021,144.574,478.226,145.048Z" transform="translate(-411.439 -126.219)" fill="#f9b9b2" opacity="0.4" style="mix-blend-mode: multiply;isolation: isolate"/>
                <path id="Trazado_105119" data-name="Trazado 105119" d="M469.026,170.927c.209.473-.178,1.1-.865,1.4s-1.4.164-1.608-.31.18-1.1.859-1.4A1.212,1.212,0,0,1,469.026,170.927Z" transform="translate(-416.508 -111.965)" fill="#f9b9b2" opacity="0.4" style="mix-blend-mode: multiply;isolation: isolate"/>
                <path id="Trazado_105120" data-name="Trazado 105120" d="M494.571,163.545c.157.358-.135.841-.662,1.068s-1.07.118-1.23-.243.141-.836.661-1.067S494.413,163.186,494.571,163.545Z" transform="translate(-402.109 -115.97)" fill="#f9b9b2" opacity="0.4" style="mix-blend-mode: multiply;isolation: isolate"/>
                <path id="Trazado_105121" data-name="Trazado 105121" d="M436.7,169.769c.2.462-.174,1.064-.833,1.352s-1.354.155-1.554-.309.172-1.062.833-1.348S436.506,169.314,436.7,169.769Z" transform="translate(-434.262 -112.593)" fill="#f9b9b2" opacity="0.6" style="mix-blend-mode: multiply;isolation: isolate"/>
                <path id="Trazado_105122" data-name="Trazado 105122" d="M480.4,149.347c.2.444-.169,1.033-.811,1.31s-1.321.154-1.514-.292.172-1.031.811-1.318S480.21,148.9,480.4,149.347Z" transform="translate(-410.156 -123.837)" fill="#f9b9b2" opacity="0.4" style="mix-blend-mode: multiply;isolation: isolate"/>
                <path id="Trazado_105123" data-name="Trazado 105123" d="M469.757,161.827c.192.442-.171,1.025-.81,1.31s-1.321.146-1.512-.3.164-1.033.8-1.31S469.562,161.378,469.757,161.827Z" transform="translate(-416.021 -116.965)" fill="#f9b9b2" opacity="0.4" style="mix-blend-mode: multiply;isolation: isolate"/>
                <path id="Trazado_105124" data-name="Trazado 105124" d="M512.291,133.181c.2.451-.169,1.033-.806,1.312s-1.32.152-1.515-.288.169-1.033.808-1.314S512.1,132.739,512.291,133.181Z" transform="translate(-392.592 -132.74)" fill="#f9b9b2" opacity="0.4" style="mix-blend-mode: multiply;isolation: isolate"/>
                <path id="Trazado_105125" data-name="Trazado 105125" d="M464.082,170.5c.2.445-.167,1.027-.806,1.312s-1.318.146-1.515-.3.172-1.031.81-1.3S463.887,170.058,464.082,170.5Z" transform="translate(-419.145 -112.183)" fill="#f9b9b2" opacity="0.4" style="mix-blend-mode: multiply;isolation: isolate"/>
                <path id="Trazado_105126" data-name="Trazado 105126" d="M459.287,175.707c.191.44-.172,1.025-.811,1.312a1.137,1.137,0,0,1-1.515-.3c-.191-.444.174-1.033.81-1.307S459.09,175.262,459.287,175.707Z" transform="translate(-421.788 -109.318)" fill="#f9b9b2" opacity="0.4" style="mix-blend-mode: multiply;isolation: isolate"/>
                <path id="Trazado_105127" data-name="Trazado 105127" d="M530.316,143.268c.194.442-.171,1.033-.81,1.312s-1.318.147-1.51-.3.169-1.025.8-1.31S530.122,142.825,530.316,143.268Z" transform="translate(-382.663 -127.184)" fill="#f9b9b2" opacity="0.4" style="mix-blend-mode: multiply;isolation: isolate"/>
                <path id="Trazado_105128" data-name="Trazado 105128" d="M506.65,148.68c.253.577-.22,1.341-1.051,1.706s-1.712.189-1.965-.383.22-1.341,1.05-1.706S506.4,148.1,506.65,148.68Z" transform="translate(-396.089 -124.276)" fill="#f9b9b2" opacity="0.4" style="mix-blend-mode: multiply;isolation: isolate"/>
                <path id="Trazado_105129" data-name="Trazado 105129" d="M526.946,142.564c.257.575-.217,1.335-1.048,1.706s-1.712.189-1.963-.389.217-1.335,1.045-1.7S526.7,141.987,526.946,142.564Z" transform="translate(-384.909 -127.645)" fill="#f9b9b2" opacity="0.4" style="mix-blend-mode: multiply;isolation: isolate"/>
                <path id="Trazado_105130" data-name="Trazado 105130" d="M521.6,143.625c.253.578-.216,1.337-1.051,1.7s-1.711.194-1.96-.383.216-1.335,1.047-1.7S521.351,143.049,521.6,143.625Z" transform="translate(-387.852 -127.061)" fill="#f9b9b2" opacity="0.4" style="mix-blend-mode: multiply;isolation: isolate"/>
                <path id="Trazado_105131" data-name="Trazado 105131" d="M483.951,154.547c.253.577-.217,1.334-1.053,1.7s-1.709.194-1.96-.383.219-1.337,1.05-1.7S483.7,153.971,483.951,154.547Z" transform="translate(-408.59 -121.046)" fill="#f9b9b2" opacity="0.4" style="mix-blend-mode: multiply;isolation: isolate"/>
                <path id="Trazado_105132" data-name="Trazado 105132" d="M476.359,152.127c.157.364-.14.837-.661,1.07s-1.075.121-1.23-.239.133-.844.656-1.068S476.2,151.769,476.359,152.127Z" transform="translate(-412.14 -122.258)" fill="#f9b9b2" opacity="0.6" style="mix-blend-mode: multiply;isolation: isolate"/>
                <path id="Trazado_105133" data-name="Trazado 105133" d="M443.983,161.423c.143.321-.124.752-.591.952s-.96.11-1.1-.214.121-.752.588-.952S443.84,161.1,443.983,161.423Z" transform="translate(-429.86 -117.119)" fill="#f9b9b2" opacity="0.4" style="mix-blend-mode: multiply;isolation: isolate"/>
                <path id="Trazado_105134" data-name="Trazado 105134" d="M445.959,156.3c.172.4-.152.93-.727,1.179s-1.183.133-1.359-.262.15-.929.726-1.177S445.785,155.9,445.959,156.3Z" transform="translate(-428.995 -119.981)" fill="#f9b9b2" opacity="0.6" style="mix-blend-mode: multiply;isolation: isolate"/>
                <path id="Trazado_105135" data-name="Trazado 105135" d="M452.609,173.63c.172.4-.152.924-.724,1.18s-1.185.132-1.36-.268.15-.923.727-1.179S452.436,173.23,452.609,173.63Z" transform="translate(-425.331 -110.438)" fill="#f9b9b2" opacity="0.4" style="mix-blend-mode: multiply;isolation: isolate"/>
                <path id="Trazado_105136" data-name="Trazado 105136" d="M471.805,156.3c.177.4-.147.93-.726,1.179a1.015,1.015,0,0,1-1.36-.262c-.172-.4.152-.929.73-1.177S471.633,155.9,471.805,156.3Z" transform="translate(-414.758 -119.981)" fill="#f9b9b2" opacity="0.6" style="mix-blend-mode: multiply;isolation: isolate"/>
                <path id="Trazado_105137" data-name="Trazado 105137" d="M508.419,139.217c.172.4-.15.923-.729,1.177s-1.183.135-1.357-.267.152-.924.726-1.179S508.247,138.814,508.419,139.217Z" transform="translate(-394.592 -129.392)" fill="#f9b9b2" opacity="0.6" style="mix-blend-mode: multiply;isolation: isolate"/>
                <path id="Trazado_105138" data-name="Trazado 105138" d="M499.758,156.929c.175.4-.152.923-.73,1.18a1.013,1.013,0,0,1-1.358-.268c-.169-.4.155-.923.729-1.18S499.583,156.529,499.758,156.929Z" transform="translate(-399.362 -119.635)" fill="#f9b9b2" opacity="0.6" style="mix-blend-mode: multiply;isolation: isolate"/>
                <path id="Trazado_105139" data-name="Trazado 105139" d="M513.615,138.112c.177.4-.15.927-.727,1.183a1.024,1.024,0,0,1-1.362-.268c-.174-.4.154-.929.729-1.183S513.443,137.718,513.615,138.112Z" transform="translate(-391.731 -129.999)" fill="#f9b9b2" opacity="0.6" style="mix-blend-mode: multiply;isolation: isolate"/>
                <path id="Trazado_105140" data-name="Trazado 105140" d="M493.056,160.58c.172.4-.158.927-.729,1.182s-1.188.127-1.365-.267.155-.929.734-1.177A1.015,1.015,0,0,1,493.056,160.58Z" transform="translate(-403.056 -117.623)" fill="#f9b9b2" opacity="0.6" style="mix-blend-mode: multiply;isolation: isolate"/>
                <path id="Trazado_105141" data-name="Trazado 105141" d="M442.8,165.586c.178.408-.16.955-.749,1.217s-1.222.132-1.4-.281.152-.952.747-1.207S442.619,165.175,442.8,165.586Z" transform="translate(-430.768 -114.873)" fill="#f9b9b2" opacity="0.6" style="mix-blend-mode: multiply;isolation: isolate"/>
                <path id="Trazado_105142" data-name="Trazado 105142" d="M447.485,170.365c.185.425-.158.983-.768,1.244s-1.253.146-1.438-.273.164-.985.769-1.251S447.3,169.945,447.485,170.365Z" transform="translate(-428.221 -112.247)" fill="#f9b9b2" opacity="0.4" style="mix-blend-mode: multiply;isolation: isolate"/>
              </g>
            </g>
          </g>
          <g id="Grupo_57366" data-name="Grupo 57366">
            <path id="Trazado_105143" data-name="Trazado 105143" d="M524.267,153.7c-7.98-2.447-28-9.472-46.946-17.245s-41.2-17.135-41.2-17.135-17.338-7.126-23.738-9.906c-4.9-2.129-9.548-1.681-13.306,8.522-3.874,10.514-13.228,9.908-21.528,10.012,0,0,35.347,15.108,51.086,21.358,15.536,6.163,44.395,16.285,50.035,18.417s8.641,3,11.125,5.693l-.006.014c2.156,2.089,3.432,5.767,4.352,11.251,1.706,10.116,3.621,14.336,9.691,13.379s6.493-6.352,8.3-20.193,10.856-22.884,20.65-20.65a7.152,7.152,0,0,1,3.551,2.266v-.012C534.385,156.877,532.252,156.149,524.267,153.7Z" transform="translate(-341.907 -84.344)" fill="#ffcca6" stroke="#ce8d61" stroke-linecap="round" stroke-linejoin="round" stroke-width="1"/>
            <path id="Trazado_105144" data-name="Trazado 105144" d="M526.578,148.832a27.19,27.19,0,0,0-10.037,4.384c-4.151,2.72-8.6,6.121-13.852,5.636-6.23-.572-12.034-3.795-17.84-5.933-6.394-2.349-12.817-4.614-19.233-6.909-13.2-4.725-26.221-9.862-39.234-15.066-6.412-2.568-12.813-5.4-19.365-7.6a78.092,78.092,0,0,1-11.975-4.834c-4.654,4.08-11.36,3.77-17.5,3.849,0,0,35.347,15.108,51.086,21.358,15.536,6.163,44.395,16.285,50.035,18.417s8.641,3,11.125,5.693l-.006.014c2.156,2.089,3.432,5.767,4.352,11.251,1.706,10.116,3.621,14.336,9.691,13.379s6.493-6.352,8.3-20.193,10.856-22.884,20.65-20.65a7.152,7.152,0,0,1,3.551,2.266v-.012C534.586,151.571,532.685,150.74,526.578,148.832Z" transform="translate(-341.907 -78.764)" fill="#f7c7a6" opacity="0.7" style="mix-blend-mode: multiply;isolation: isolate"/>
            <path id="Trazado_105145" data-name="Trazado 105145" d="M491.325,162.078c-5.64-2.132-34.5-12.254-50.035-18.417-15.739-6.25-37.97-15.51-37.97-15.51s-11.64-4.845-17.744-7.543-18.667-4.4-31.011,6.983c0,0,28.1,8.97,43.436,16.069s41.729,16.462,48.966,19.728,27.68,10.507,27.68,10.507,12.667-7.1,20.122-8.06c3.41-.437,5.857.189,7.675,1.949l.006-.014C499.966,165.078,496.972,164.2,491.325,162.078Z" transform="translate(-354.565 -78.705)" fill="#ffcca6" stroke="#ce8d61" stroke-linecap="round" stroke-linejoin="round" stroke-width="1"/>
            <path id="Trazado_105146" data-name="Trazado 105146" d="M520.807,117.808c-33.5-11.353-65.724-24.416-65.724-24.416-1.385-.675-4.365-1.421-6.495,3.054s-5.215,9.049-9.795,9.049c0,0,20.264,8.481,37.3,14.373s47.83,18.611,59.33,21.9,17.191,3.626,20.562,6.377v0c4.846,3.488,5.91,13.021,11.305,12.486,6.495-.636,9.951-21.131,13.413-21.538C580.7,139.1,554.3,129.164,520.807,117.808Z" transform="translate(-308.172 -92.882)" fill="#ffcca6" stroke="#ce8d61" stroke-linecap="round" stroke-linejoin="round" stroke-width="1"/>
            <path id="Trazado_105147" data-name="Trazado 105147" d="M552.379,138.91c-11.5-3.291-42.3-16.012-59.33-21.9s-37.3-14.373-37.3-14.373c-.53,0-10.007-3.195-12.988-4.153s-8.3-.851-9.795,7.348-10.835,14.007-24.955,14.179c0,0,33.581,14.354,52.532,22.121s38.965,14.8,46.946,17.245,10.117,3.181,12.068,5.769v.012c7.1,7.579,8.627,16.766,17.907,15.629,6.067-.744,11.536,1.222,16.646-15.387s7.249-21.775,15.338-21.35a6.441,6.441,0,0,1,3.494,1.244v0C569.569,142.536,563.876,142.2,552.379,138.91Z" transform="translate(-325.128 -90.023)" fill="#ffcca6" stroke="#ce8d61" stroke-linecap="round" stroke-linejoin="round" stroke-width="1"/>
            <path id="Trazado_105148" data-name="Trazado 105148" d="M564.158,135.518A14.547,14.547,0,0,0,558,139.1c-2.1,2.241-3.547,5.011-5.662,7.231-3.826,4.007-8.912,4.834-14.185,3.576-6.606-1.582-12.918-4.62-19.314-6.89-7.659-2.709-15.365-5.29-23.05-7.926-7.36-2.525-14.624-5.318-21.984-7.832-6.533-2.236-13.157-4.184-19.748-6.243-9.933-3.1-19.939-6.436-29.15-11.325-4.26,2.4-10.006,3.832-16.9,3.919,0,0,33.581,14.354,52.532,22.121s38.965,14.8,46.946,17.245,10.117,3.181,12.068,5.769v.012c7.1,7.579,8.627,16.766,17.907,15.629,6.067-.744,11.536,1.222,16.646-15.387s7.249-21.775,15.338-21.35a6.441,6.441,0,0,1,3.494,1.244v0C571,137.309,568.29,136.524,564.158,135.518Z" transform="translate(-325.128 -83.624)" fill="#f7c7a6" opacity="0.7" style="mix-blend-mode: multiply;isolation: isolate"/>
            <path id="Trazado_105149" data-name="Trazado 105149" d="M491.325,162.078c-5.64-2.132-34.5-12.254-50.035-18.417-15.739-6.25-37.97-15.51-37.97-15.51s-11.64-4.845-17.744-7.543-18.667-4.4-31.011,6.983c0,0,28.1,8.97,43.436,16.069s41.729,16.462,48.966,19.728,27.68,10.507,27.68,10.507,12.667-7.1,20.122-8.06c3.41-.437,5.857.189,7.675,1.949l.006-.014C499.966,165.078,496.972,164.2,491.325,162.078Zm-9.153,6.1c-5.4,3.157-12.883,1.253-41.163-9.9-44.289-17.457-58.153-23.555-65.982-26.754s-10.759-3.758-10.243-7.31c.724-5.015,12.492-6.814,24.411-1.131s69.159,29.568,86.963,34.77S487.563,165.022,482.173,168.179Z" transform="translate(-354.565 -78.705)" fill="#f7c7a6" opacity="0.7" style="mix-blend-mode: multiply;isolation: isolate"/>
            <path id="Trazado_105150" data-name="Trazado 105150" d="M520.807,117.808c-33.5-11.353-65.724-24.416-65.724-24.416-1.385-.675-4.365-1.421-6.495,3.054s-5.215,9.049-9.795,9.049c0,0,20.264,8.481,37.3,14.373s47.83,18.611,59.33,21.9,17.191,3.626,20.562,6.377v0c4.846,3.488,5.91,13.021,11.305,12.486,6.495-.636,9.951-21.131,13.413-21.538C580.7,139.1,554.3,129.164,520.807,117.808Zm54.467,26.863c-2.022,4.9-4.9,9.05-9.261,4.048s-34.066-12.7-55.785-21.947-61.745-22.237-60.573-29.05c.611-3.545,2.871-4.255,11.282-.958s35.132,14.371,59.512,22.358,44.925,16.072,51.42,18.734S577.3,139.772,575.274,144.671Z" transform="translate(-308.172 -92.882)" fill="#f7c7a6" opacity="0.7" style="mix-blend-mode: multiply;isolation: isolate"/>
          </g>
          <g id="Grupo_57367" data-name="Grupo 57367" transform="translate(0 72.946)">
            <path id="Trazado_105151" data-name="Trazado 105151" d="M470.177,191.157c-1.6-2.767-4.685-4.688-8.411-3.3s-7.771-.425-13.306-7.025-10.964-3.942-18.63-2.88-10.328-4.893-15.224-10.645-10.007-5.107-16.817-2.337-16.932-1.385-21.3-7.523-5.642-9.3-9.049-12.278c-2.957-2.587-8.483-5.333-12.879-5.246v99.543a20.337,20.337,0,0,1,8.229,2.047c8.094,3.691,8.236,5.271,18.879,7.321s14.76,3.182,21.793,8.717,14.933,7.321,25.1,7.278,12.158,3.4,18.974,6.577,14.346,3.894,18.03,4.742,6.383,5.538,9.078,5.752V193.817A5.246,5.246,0,0,1,470.177,191.157Z" transform="translate(-354.565 -139.92)" fill="#ffcfc7" stroke="#ce8d61" stroke-linecap="round" stroke-linejoin="round" stroke-width="1"/>
          </g>
          <g id="Grupo_57372" data-name="Grupo 57372" transform="translate(0 172.491)">
            <path id="Trazado_105152" data-name="Trazado 105152" d="M447.54,236.049c-6.816-3.179-8.8-6.614-18.974-6.577s-18.076-1.743-25.1-7.278-11.144-6.67-21.793-8.717-10.786-3.63-18.879-7.321a20.337,20.337,0,0,0-8.229-2.047V230.5s15.044,5.465,30.661,11.426,40.592,15.9,52.234,19.872,37.188,13.059,37.188,13.059V246.544c-2.7-.214-5.4-4.9-9.078-5.752S454.351,239.23,447.54,236.049Z" transform="translate(-354.565 -204.109)" fill="#ecaf57" stroke="#ba7933" stroke-linecap="round" stroke-linejoin="round" stroke-width="1"/>
            <g id="Grupo_57371" data-name="Grupo 57371" transform="translate(0.938 3.735)">
              <g id="Grupo_57368" data-name="Grupo 57368" transform="translate(1.112 0.661)">
                <path id="Trazado_105153" data-name="Trazado 105153" d="M357.654,214.114c-1.923,5.95,1.208,9.793,5.463,8.159s2.7-6.217,1.881-8.184C363.792,211.182,359.142,209.5,357.654,214.114Z" transform="translate(-355.233 -204.574)" fill="#ecaf57" opacity="0.7" style="mix-blend-mode: multiply;isolation: isolate"/>
                <path id="Trazado_105154" data-name="Trazado 105154" d="M364.921,215.791c2.289.422,3.4-.054,3.353-1.655s-1.051-3.085-2.45-2.883C363.537,211.579,362.632,215.358,364.921,215.791Z" transform="translate(-351.643 -204.581)" fill="#ecaf57" opacity="0.7" style="mix-blend-mode: multiply;isolation: isolate"/>
                <path id="Trazado_105155" data-name="Trazado 105155" d="M365.89,217.585c-2.683.656-3.882,5.319-1.6,8.246s6.248,1.207,7.4-.85C373.132,222.41,370.471,216.467,365.89,217.585Z" transform="translate(-351.921 -201.159)" fill="#ecaf57" opacity="0.7" style="mix-blend-mode: multiply;isolation: isolate"/>
                <path id="Trazado_105156" data-name="Trazado 105156" d="M379.689,217.372c-3.064-5.384-11.274-2.827-11.015,1.78.337,5.994,5.533,8.443,8.784,6.631A6.29,6.29,0,0,0,379.689,217.372Z" transform="translate(-348.847 -202.867)" fill="#ecaf57" opacity="0.7" style="mix-blend-mode: multiply;isolation: isolate"/>
                <path id="Trazado_105157" data-name="Trazado 105157" d="M359.041,210.3c.859-.693.91-2.531,0-3.085a2.186,2.186,0,0,0-3.085,2.5C356.435,211.578,358.192,210.987,359.041,210.3Z" transform="translate(-355.887 -206.944)" fill="#ecaf57" opacity="0.7" style="mix-blend-mode: multiply;isolation: isolate"/>
                <path id="Trazado_105158" data-name="Trazado 105158" d="M377.876,221.737c-5.147,1.207-5.29,7.455-1.74,8.869a5.5,5.5,0,0,0,7.594-4.395C384.226,222.66,381.061,220.988,377.876,221.737Z" transform="translate(-346.072 -198.893)" fill="#ecaf57" opacity="0.7" style="mix-blend-mode: multiply;isolation: isolate"/>
                <path id="Trazado_105159" data-name="Trazado 105159" d="M380.314,217.419c-2.081.825-1.241,3.545.248,4.189s3.23-.073,3.088-1.531S382.372,216.6,380.314,217.419Z" transform="translate(-343.118 -201.278)" fill="#ecaf57" opacity="0.7" style="mix-blend-mode: multiply;isolation: isolate"/>
                <path id="Trazado_105160" data-name="Trazado 105160" d="M387.953,221.868c-4.693,1.02-6.028,7.633-2.871,10.828s9.648,1.773,10.113-3.016S392.71,220.841,387.953,221.868Z" transform="translate(-340.751 -198.812)" fill="#ecaf57" opacity="0.7" style="mix-blend-mode: multiply;isolation: isolate"/>
                <path id="Trazado_105161" data-name="Trazado 105161" d="M405.255,231.793c.924-3.834-3.762-9.261-7.805-7.552-3.39,1.425-3.723,6.667-.749,9.331S404.328,235.633,405.255,231.793Z" transform="translate(-334.524 -197.595)" fill="#ecaf57" opacity="0.7" style="mix-blend-mode: multiply;isolation: isolate"/>
                <path id="Trazado_105162" data-name="Trazado 105162" d="M395.029,230.1a2.942,2.942,0,0,0-2.982,4.366,2.911,2.911,0,0,0,4.932.563C398.011,233.76,397.374,230.392,395.029,230.1Z" transform="translate(-336.185 -194.199)" fill="#ecaf57" opacity="0.7" style="mix-blend-mode: multiply;isolation: isolate"/>
                <path id="Trazado_105163" data-name="Trazado 105163" d="M401.82,233.124c-2.677.85-2.641,3.908-1.318,5.532,1.425,1.737,4.517.685,4.9-1.594C405.829,234.52,403.383,232.625,401.82,233.124Z" transform="translate(-331.798 -192.568)" fill="#ecaf57" opacity="0.7" style="mix-blend-mode: multiply;isolation: isolate"/>
                <path id="Trazado_105164" data-name="Trazado 105164" d="M414.95,234.628c1.844-4.255-1.706-9.3-6.107-8.308-4.271.966-5.322,6.453-3.193,9.224S413.1,238.882,414.95,234.628Z" transform="translate(-329.065 -196.342)" fill="#ecaf57" opacity="0.7" style="mix-blend-mode: multiply;isolation: isolate"/>
                <path id="Trazado_105165" data-name="Trazado 105165" d="M411,237.409a1.732,1.732,0,0,0-1.436,2.872c.848.9,3.229.644,3.37-.9S412.17,237.46,411,237.409Z" transform="translate(-326.553 -190.166)" fill="#ecaf57" opacity="0.7" style="mix-blend-mode: multiply;isolation: isolate"/>
                <path id="Trazado_105166" data-name="Trazado 105166" d="M421.978,235.226c.212-2.982-.392-5.747-3.989-5.313-2.4.29-4,4.462-1.922,6.965A3.254,3.254,0,0,0,421.978,235.226Z" transform="translate(-323.267 -194.318)" fill="#ecaf57" opacity="0.7" style="mix-blend-mode: multiply;isolation: isolate"/>
                <path id="Trazado_105167" data-name="Trazado 105167" d="M427.6,236.324c-.216-1.52-1.385-3.492-3.835-2.855-1.776.467-3.195,3.3-.743,4.688S427.815,237.848,427.6,236.324Z" transform="translate(-319.629 -192.402)" fill="#ecaf57" opacity="0.7" style="mix-blend-mode: multiply;isolation: isolate"/>
                <path id="Trazado_105168" data-name="Trazado 105168" d="M428.285,234.564a1.972,1.972,0,0,0,.267,3.6c1.6.5,2.446.234,2.821-1.151S430.31,233.446,428.285,234.564Z" transform="translate(-316.584 -191.9)" fill="#ecaf57" opacity="0.7" style="mix-blend-mode: multiply;isolation: isolate"/>
                <path id="Trazado_105169" data-name="Trazado 105169" d="M417.451,236.779c-4.091.295-5.485,6.092-1.971,8.807s8.146,1.174,7.934-3.091S420.006,236.606,417.451,236.779Z" transform="translate(-324.167 -190.518)" fill="#ecaf57" opacity="0.7" style="mix-blend-mode: multiply;isolation: isolate"/>
                <path id="Trazado_105170" data-name="Trazado 105170" d="M425.009,238.544c-3.536.523-3.407,6.558.481,9.643s7.929.962,7.77-2.446S431.611,237.578,425.009,238.544Z" transform="translate(-319.218 -189.609)" fill="#ecaf57" opacity="0.7" style="mix-blend-mode: multiply;isolation: isolate"/>
              </g>
              <g id="Grupo_57369" data-name="Grupo 57369">
                <path id="Trazado_105171" data-name="Trazado 105171" d="M356.555,213.012c-1.921,5.957,1.2,9.793,5.465,8.16s2.7-6.211,1.88-8.18C362.7,210.084,358.045,208.4,356.555,213.012Z" transform="translate(-354.726 -204.517)" fill="#eed558" stroke="#ba7933" stroke-linecap="round" stroke-linejoin="round" stroke-width="1"/>
                <path id="Trazado_105172" data-name="Trazado 105172" d="M364.729,210.156c-2.3.329-3.192,4.108-.9,4.531s3.407-.054,3.353-1.65S366.126,209.956,364.729,210.156Z" transform="translate(-351.136 -204.523)" fill="#eed558" stroke="#ba7933" stroke-linecap="round" stroke-linejoin="round" stroke-width="1"/>
                <path id="Trazado_105173" data-name="Trazado 105173" d="M364.8,216.484c-2.692.656-3.886,5.325-1.6,8.253s6.25,1.2,7.394-.851C372.036,221.313,369.374,215.367,364.8,216.484Z" transform="translate(-351.414 -201.104)" fill="#eed558" stroke="#ba7933" stroke-linecap="round" stroke-linejoin="round" stroke-width="1"/>
                <path id="Trazado_105174" data-name="Trazado 105174" d="M367.574,218.053c-.259-4.6,7.954-7.166,11.02-1.777a6.285,6.285,0,0,1-2.239,8.412C373.114,226.492,367.917,224.044,367.574,218.053Z" transform="translate(-348.341 -202.811)" fill="#eed558" stroke="#ba7933" stroke-linecap="round" stroke-linejoin="round" stroke-width="1"/>
                <path id="Trazado_105175" data-name="Trazado 105175" d="M358.329,206.785c.907.551.851,2.391,0,3.083s-2.608,1.276-3.089-.588A2.186,2.186,0,0,1,358.329,206.785Z" transform="translate(-355.17 -206.518)" fill="#eed558" stroke="#ba7933" stroke-linecap="round" stroke-linejoin="round" stroke-width="1"/>
                <path id="Trazado_105176" data-name="Trazado 105176" d="M376.774,220.64c3.187-.746,6.352.921,5.857,4.468a5.5,5.5,0,0,1-7.593,4.4C371.492,228.09,371.63,221.848,376.774,220.64Z" transform="translate(-345.564 -198.835)" fill="#eed558" stroke="#ba7933" stroke-linecap="round" stroke-linejoin="round" stroke-width="1"/>
                <path id="Trazado_105177" data-name="Trazado 105177" d="M379.216,216.317c-2.08.825-1.242,3.554.25,4.189s3.23-.071,3.088-1.524S381.276,215.5,379.216,216.317Z" transform="translate(-342.611 -201.223)" fill="#eed558" stroke="#ba7933" stroke-linecap="round" stroke-linejoin="round" stroke-width="1"/>
                <path id="Trazado_105178" data-name="Trazado 105178" d="M386.86,220.772c-4.7,1.013-6.036,7.627-2.877,10.818s9.652,1.782,10.116-3.01S391.613,219.745,386.86,220.772Z" transform="translate(-340.246 -198.755)" fill="#eed558" stroke="#ba7933" stroke-linecap="round" stroke-linejoin="round" stroke-width="1"/>
                <path id="Trazado_105179" data-name="Trazado 105179" d="M396.348,223.138c-3.382,1.428-3.723,6.675-.741,9.334s7.627,2.059,8.55-1.774S400.4,221.441,396.348,223.138Z" transform="translate(-334.017 -197.54)" fill="#eed558" stroke="#ba7933" stroke-linecap="round" stroke-linejoin="round" stroke-width="1"/>
                <path id="Trazado_105180" data-name="Trazado 105180" d="M393.927,229a3,3,0,1,0,1.956,4.938C396.911,232.659,396.272,229.289,393.927,229Z" transform="translate(-335.679 -194.144)" fill="#eed558" stroke="#ba7933" stroke-linecap="round" stroke-linejoin="round" stroke-width="1"/>
                <path id="Trazado_105181" data-name="Trazado 105181" d="M400.719,232.024c-2.67.848-2.641,3.911-1.31,5.536,1.421,1.737,4.516.681,4.9-1.6C404.729,233.42,402.28,231.525,400.719,232.024Z" transform="translate(-331.29 -192.513)" fill="#eed558" stroke="#ba7933" stroke-linecap="round" stroke-linejoin="round" stroke-width="1"/>
                <path id="Trazado_105182" data-name="Trazado 105182" d="M407.745,225.224c-4.271.958-5.322,6.453-3.195,9.223s7.453,3.333,9.3-.923S412.147,224.227,407.745,225.224Z" transform="translate(-328.558 -196.284)" fill="#eed558" stroke="#ba7933" stroke-linecap="round" stroke-linejoin="round" stroke-width="1"/>
                <path id="Trazado_105183" data-name="Trazado 105183" d="M409.9,236.311a1.736,1.736,0,0,0-1.439,2.874c.854.9,3.235.637,3.375-.906S411.072,236.359,409.9,236.311Z" transform="translate(-326.046 -190.109)" fill="#eed558" stroke="#ba7933" stroke-linecap="round" stroke-linejoin="round" stroke-width="1"/>
                <path id="Trazado_105184" data-name="Trazado 105184" d="M416.888,228.817c-2.4.284-3.992,4.455-1.918,6.957a3.252,3.252,0,0,0,5.909-1.65C421.093,231.142,420.488,228.381,416.888,228.817Z" transform="translate(-322.759 -194.26)" fill="#eed558" stroke="#ba7933" stroke-linecap="round" stroke-linejoin="round" stroke-width="1"/>
                <path id="Trazado_105185" data-name="Trazado 105185" d="M422.67,232.372c-1.774.461-3.19,3.3-.744,4.683s4.792-.306,4.58-1.828S425.12,231.729,422.67,232.372Z" transform="translate(-319.121 -192.346)" fill="#eed558" stroke="#ba7933" stroke-linecap="round" stroke-linejoin="round" stroke-width="1"/>
                <path id="Trazado_105186" data-name="Trazado 105186" d="M427.186,233.467a1.971,1.971,0,0,0,.267,3.6c1.6.5,2.447.237,2.821-1.149S429.206,232.351,427.186,233.467Z" transform="translate(-316.077 -191.843)" fill="#eed558" stroke="#ba7933" stroke-linecap="round" stroke-linejoin="round" stroke-width="1"/>
                <path id="Trazado_105187" data-name="Trazado 105187" d="M416.349,235.681c-4.088.29-5.482,6.088-1.968,8.8s8.145,1.171,7.932-3.085S418.905,235.506,416.349,235.681Z" transform="translate(-323.659 -190.461)" fill="#eed558" stroke="#ba7933" stroke-linecap="round" stroke-linejoin="round" stroke-width="1"/>
                <path id="Trazado_105188" data-name="Trazado 105188" d="M423.911,237.448c-3.537.516-3.406,6.554.481,9.643s7.931.961,7.769-2.452S430.511,236.475,423.911,237.448Z" transform="translate(-318.711 -189.552)" fill="#eed558" stroke="#ba7933" stroke-linecap="round" stroke-linejoin="round" stroke-width="1"/>
              </g>
              <g id="Grupo_57370" data-name="Grupo 57370" transform="translate(0.74 0.613)">
                <path id="Trazado_105189" data-name="Trazado 105189" d="M356.962,212.686c.391-1.926,3.888-2.836,5.031-.426C363.916,216.31,355.949,217.653,356.962,212.686Z" transform="translate(-354.972 -204.768)" fill="#eed558" style="mix-blend-mode: screen;isolation: isolate"/>
                <path id="Trazado_105190" data-name="Trazado 105190" d="M363.115,211.631a1.438,1.438,0,0,1,2.574-.43C366.414,212.381,362.63,213.05,363.115,211.631Z" transform="translate(-351.557 -204.91)" fill="#eed558" style="mix-blend-mode: screen;isolation: isolate"/>
                <path id="Trazado_105191" data-name="Trazado 105191" d="M368.066,217.2c.06-3.914,7.6-4.494,9.122-.875S368,221.8,368.066,217.2Z" transform="translate(-348.806 -203.061)" fill="#eed558" style="mix-blend-mode: screen;isolation: isolate"/>
                <path id="Trazado_105192" data-name="Trazado 105192" d="M394.511,225.861c.409-2.762,5.462-3.223,6.492-.619C402.7,229.528,393.9,229.963,394.511,225.861Z" transform="translate(-334.257 -197.767)" fill="#eed558" style="mix-blend-mode: screen;isolation: isolate"/>
                <path id="Trazado_105193" data-name="Trazado 105193" d="M391.041,230.8c.212-1.45,2.872-1.7,3.416-.327C395.347,232.732,390.72,232.957,391.041,230.8Z" transform="translate(-336.161 -194.435)" fill="#eed558" style="mix-blend-mode: screen;isolation: isolate"/>
                <path id="Trazado_105194" data-name="Trazado 105194" d="M399.072,233.64c.212-1.452,2.875-1.7,3.416-.329C403.38,235.569,398.749,235.794,399.072,233.64Z" transform="translate(-331.737 -192.871)" fill="#eed558" style="mix-blend-mode: screen;isolation: isolate"/>
                <path id="Trazado_105195" data-name="Trazado 105195" d="M414.851,230.882c.267-1.79,3.541-2.089,4.206-.4C420.152,233.256,414.457,233.539,414.851,230.882Z" transform="translate(-323.048 -194.547)" fill="#eed558" style="mix-blend-mode: screen;isolation: isolate"/>
                <path id="Trazado_105196" data-name="Trazado 105196" d="M421.374,233.587c.185-1.234,2.447-1.442,2.908-.282C425.041,235.228,421.1,235.417,421.374,233.587Z" transform="translate(-319.452 -192.799)" fill="#eed558" style="mix-blend-mode: screen;isolation: isolate"/>
                <path id="Trazado_105197" data-name="Trazado 105197" d="M426.595,234.539c.172-1.162,2.3-1.354,2.729-.262C430.033,236.082,426.337,236.255,426.595,234.539Z" transform="translate(-316.576 -192.24)" fill="#eed558" style="mix-blend-mode: screen;isolation: isolate"/>
                <path id="Trazado_105198" data-name="Trazado 105198" d="M408.514,237.458c.143-.979,1.935-1.14,2.3-.219C411.411,238.758,408.3,238.911,408.514,237.458Z" transform="translate(-326.534 -190.546)" fill="#eed558" style="mix-blend-mode: screen;isolation: isolate"/>
                <path id="Trazado_105199" data-name="Trazado 105199" d="M422.05,240.028c.433-2.546,5.781-2.978,6.867-.572C430.716,243.421,421.405,243.81,422.05,240.028Z" transform="translate(-319.089 -189.865)" fill="#eed558" style="mix-blend-mode: screen;isolation: isolate"/>
                <path id="Trazado_105200" data-name="Trazado 105200" d="M404.613,228.079c.42-2.816,5.569-3.286,6.614-.644C412.956,231.815,403.994,232.246,404.613,228.079Z" transform="translate(-328.693 -196.572)" fill="#eed558" style="mix-blend-mode: screen;isolation: isolate"/>
                <path id="Trazado_105201" data-name="Trazado 105201" d="M413.042,238.694c.42-2.812,5.57-3.286,6.613-.633C421.382,242.436,412.425,242.872,413.042,238.694Z" transform="translate(-324.05 -190.723)" fill="#eed558" style="mix-blend-mode: screen;isolation: isolate"/>
                <path id="Trazado_105202" data-name="Trazado 105202" d="M362.835,218.983c.408-1.822,4.268-2.781,5.9-.716S361.848,223.378,362.835,218.983Z" transform="translate(-351.731 -201.301)" fill="#eed558" style="mix-blend-mode: screen;isolation: isolate"/>
                <path id="Trazado_105203" data-name="Trazado 105203" d="M383.133,224.125c.8-2.6,5.975-3.916,7.34-1.47C393.055,227.293,381.735,228.712,383.133,224.125Z" transform="translate(-340.574 -198.957)" fill="#eed558" style="mix-blend-mode: screen;isolation: isolate"/>
                <path id="Trazado_105204" data-name="Trazado 105204" d="M373.449,223.647c.792-2.61,5.974-3.914,7.337-1.473C383.372,226.812,372.051,228.227,373.449,223.647Z" transform="translate(-345.908 -199.221)" fill="#eed558" style="mix-blend-mode: screen;isolation: isolate"/>
                <path id="Trazado_105205" data-name="Trazado 105205" d="M378.451,217.454a1.208,1.208,0,0,1,2.287-.285C381.883,219.22,377.831,219.483,378.451,217.454Z" transform="translate(-343.122 -201.655)" fill="#eed558" style="mix-blend-mode: screen;isolation: isolate"/>
                <path id="Trazado_105206" data-name="Trazado 105206" d="M355.67,208c.152-.785,1.636-1.543,2.193-.747S355.349,209.65,355.67,208Z" transform="translate(-355.647 -206.913)" fill="#eed558" style="mix-blend-mode: screen;isolation: isolate"/>
              </g>
            </g>
            <path id="Trazado_105207" data-name="Trazado 105207" d="M465.57,240.792c-3.683-.848-11.219-1.562-18.03-4.742s-8.8-6.614-18.974-6.577-18.076-1.743-25.1-7.278-11.144-6.67-21.793-8.717-10.786-3.63-18.879-7.321a20.337,20.337,0,0,0-8.229-2.047V230.5s15.044,5.465,30.661,11.426,40.592,15.9,52.234,19.872,37.188,13.059,37.188,13.059V246.544C471.953,246.329,469.253,241.64,465.57,240.792Zm5.891,14.957c-.433,6.507.549,13.746-.848,14.494s-37.1-11.769-54.431-18.92-42.013-14.241-48.835-17.673-12.935-4.336-11.105-18.472c1.137-8.745,4.62-7.641,11.105-4.02a38.917,38.917,0,0,0,18.62,5.327c6.07.1,12.138,3.962,18.74,9.167s16.477,5.769,24.044,5.752,11.322,1.227,16.454,6.169c2.083,2.01,11.428,5.076,18.355,5.7S471.9,249.231,471.461,255.749Z" transform="translate(-354.565 -204.109)" fill="#ecaf57" opacity="0.7" style="mix-blend-mode: multiply;isolation: isolate"/>
          </g>
          <g id="Grupo_57377" data-name="Grupo 57377" transform="translate(120.083 170.23)">
            <path id="Trazado_105208" data-name="Trazado 105208" d="M579.482,202.84a15.584,15.584,0,0,0-12.779,3.978,20.133,20.133,0,0,1-13.833,4.8c-4.891-.164-13.847.453-19.1,3.744s-12.347,7.915-29.144,9.821-24.65,5.758-30.126,8.947-10.7,4.195-18.509,5.44-12.209,6.989-16.865,6.952a23.1,23.1,0,0,0-7.128.822v28.313s29.523-9.368,67.281-22.711,83.749-24.979,85.167-26.973V202.739A13.256,13.256,0,0,1,579.482,202.84Z" transform="translate(-431.998 -202.651)" fill="#e1a04b" stroke="#ba7933" stroke-linecap="round" stroke-linejoin="round" stroke-width="1"/>
            <g id="Grupo_57376" data-name="Grupo 57376" transform="translate(1.787 4.978)">
              <g id="Grupo_57373" data-name="Grupo 57373" transform="translate(1.701 1.706)">
                <path id="Trazado_105209" data-name="Trazado 105209" d="M437.569,236.357c-3.835,5.08-1,10.4,4.4,8.416s4.541-7.453,3.618-9.584S440.973,231.844,437.569,236.357Z" transform="translate(-433.391 -192.462)" fill="#e1a04b" opacity="0.7" style="mix-blend-mode: multiply;isolation: isolate"/>
                <path id="Trazado_105210" data-name="Trazado 105210" d="M440.563,242.3c-1.844,3.2-.636,9.661,5.253,6.752s4.755-6.467,2.982-8.312S442.412,239.106,440.563,242.3Z" transform="translate(-431.207 -189.001)" fill="#e1a04b" opacity="0.7" style="mix-blend-mode: multiply;isolation: isolate"/>
                <path id="Trazado_105211" data-name="Trazado 105211" d="M444.578,232.766c-2.135,4.117-1.985,11.639,6.741,11.78S460.9,234.312,457.5,230.8A7.893,7.893,0,0,0,444.578,232.766Z" transform="translate(-429.186 -195.217)" fill="#e1a04b" opacity="0.7" style="mix-blend-mode: multiply;isolation: isolate"/>
                <path id="Trazado_105212" data-name="Trazado 105212" d="M435.373,244.968c-3.114,2.149.991,5.892,3.195,3.9S439.279,242.266,435.373,244.968Z" transform="translate(-434.247 -186.483)" fill="#e1a04b" opacity="0.7" style="mix-blend-mode: multiply;isolation: isolate"/>
                <path id="Trazado_105213" data-name="Trazado 105213" d="M456.087,234.843c-3.7,3.7-4.156,10.88,3.13,10.518s9.651-6.375,8.3-9.468S460.067,230.871,456.087,234.843Z" transform="translate(-423.659 -192.837)" fill="#e1a04b" opacity="0.7" style="mix-blend-mode: multiply;isolation: isolate"/>
                <path id="Trazado_105214" data-name="Trazado 105214" d="M459.306,226.6c-4-.1-5.217,4.625-3.885,7.183s6.016,2.878,7.5.321S463.459,226.7,459.306,226.6Z" transform="translate(-422.87 -196.147)" fill="#e1a04b" opacity="0.7" style="mix-blend-mode: multiply;isolation: isolate"/>
                <path id="Trazado_105215" data-name="Trazado 105215" d="M466.5,233.861c-2.323-.51-3.139,1.864-2.022,3.358a2.1,2.1,0,0,0,3.511-.265A2.28,2.28,0,0,0,466.5,233.861Z" transform="translate(-417.871 -192.184)" fill="#e1a04b" opacity="0.7" style="mix-blend-mode: multiply;isolation: isolate"/>
                <path id="Trazado_105216" data-name="Trazado 105216" d="M462.945,226.631c-3.224,3.79-2.025,12.386,5,12.5s9.838-5.484,9.156-9.789C476.2,223.648,469.385,219.069,462.945,226.631Z" transform="translate(-419.377 -198.312)" fill="#e1a04b" opacity="0.7" style="mix-blend-mode: multiply;isolation: isolate"/>
                <path id="Trazado_105217" data-name="Trazado 105217" d="M478.715,226.606c-5.054.442-8.356,7.394-5.057,10.755s9.424.9,10.22-2.88S483.559,226.175,478.715,226.606Z" transform="translate(-413.27 -196.157)" fill="#e1a04b" opacity="0.7" style="mix-blend-mode: multiply;isolation: isolate"/>
                <path id="Trazado_105218" data-name="Trazado 105218" d="M478.344,221.707c-1.02-1.182-4.151.056-3.513,2.715S480.954,224.745,478.344,221.707Z" transform="translate(-411.941 -199.086)" fill="#e1a04b" opacity="0.7" style="mix-blend-mode: multiply;isolation: isolate"/>
                <path id="Trazado_105219" data-name="Trazado 105219" d="M483.985,220.855c-3.409,1.349-5.378,7.1,0,11.4s11.76,1.534,12.135-3.1S490.847,218.135,483.985,220.855Z" transform="translate(-408.689 -199.667)" fill="#e1a04b" opacity="0.7" style="mix-blend-mode: multiply;isolation: isolate"/>
                <path id="Trazado_105220" data-name="Trazado 105220" d="M491.846,217.908c-2.877,2.266-1.757,6.544.8,7.452s6.175-.8,6.07-3.992S495.837,214.767,491.846,217.908Z" transform="translate(-403.458 -201.619)" fill="#e1a04b" opacity="0.7" style="mix-blend-mode: multiply;isolation: isolate"/>
                <path id="Trazado_105221" data-name="Trazado 105221" d="M497.288,224.33c-3.192-2.143-5.533.335-5.426,3.688s3.779,2.871,5.426,1.385A3.209,3.209,0,0,0,497.288,224.33Z" transform="translate(-402.516 -197.835)" fill="#e1a04b" opacity="0.7" style="mix-blend-mode: multiply;isolation: isolate"/>
                <path id="Trazado_105222" data-name="Trazado 105222" d="M505.739,213c-4.128.248-6.955,3.84-7.877,8.233s2.551,7.537,8.585,8.1,5.963-3.838,5.677-8.17S509.292,212.791,505.739,213Z" transform="translate(-399.289 -203.638)" fill="#e1a04b" opacity="0.7" style="mix-blend-mode: multiply;isolation: isolate"/>
                <path id="Trazado_105223" data-name="Trazado 105223" d="M511.674,211.954c-2.646-.223-4.9,3.62-3.057,6.177s5.045,1.276,5.964-.639S514.227,212.17,511.674,211.954Z" transform="translate(-393.654 -204.216)" fill="#e1a04b" opacity="0.7" style="mix-blend-mode: multiply;isolation: isolate"/>
                <path id="Trazado_105224" data-name="Trazado 105224" d="M512.341,220.681c-1.14-3.072-5.043-.236-3.624,2.239C510.137,225.413,513.189,222.976,512.341,220.681Z" transform="translate(-393.399 -200.143)" fill="#e1a04b" opacity="0.7" style="mix-blend-mode: multiply;isolation: isolate"/>
                <path id="Trazado_105225" data-name="Trazado 105225" d="M522.276,209.944c-4.209-1.543-7.1,1.21-8.094,8.877s5.4,9.576,10.294,5.921S530.582,213,522.276,209.944Z" transform="translate(-390.276 -205.545)" fill="#e1a04b" opacity="0.7" style="mix-blend-mode: multiply;isolation: isolate"/>
                <path id="Trazado_105226" data-name="Trazado 105226" d="M524.2,206.964a2.559,2.559,0,1,0,2.6,3.049A2.6,2.6,0,0,0,524.2,206.964Z" transform="translate(-386.148 -206.961)" fill="#e1a04b" opacity="0.7" style="mix-blend-mode: multiply;isolation: isolate"/>
                <path id="Trazado_105227" data-name="Trazado 105227" d="M531.548,213.993c-1.845-2.995-5.465-.989-5.895,1.458s1.562,3.934,4.4,3.509S532.68,215.837,531.548,213.993Z" transform="translate(-383.933 -203.916)" fill="#e1a04b" opacity="0.7" style="mix-blend-mode: multiply;isolation: isolate"/>
              </g>
              <g id="Grupo_57374" data-name="Grupo 57374">
                <path id="Trazado_105228" data-name="Trazado 105228" d="M436.471,235.261c-3.835,5.074-1,10.4,4.4,8.412s4.542-7.453,3.62-9.586S439.875,230.75,436.471,235.261Z" transform="translate(-432.294 -191.362)" fill="#efc45a" stroke="#ba7933" stroke-linecap="round" stroke-linejoin="round" stroke-width="1"/>
                <path id="Trazado_105229" data-name="Trazado 105229" d="M439.467,241.2c-1.845,3.2-.637,9.657,5.251,6.748s4.756-6.465,2.982-8.306S441.311,238.009,439.467,241.2Z" transform="translate(-430.11 -187.899)" fill="#efc45a" stroke="#ba7933" stroke-linecap="round" stroke-linejoin="round" stroke-width="1"/>
                <path id="Trazado_105230" data-name="Trazado 105230" d="M443.479,231.662c-2.137,4.124-1.985,11.64,6.744,11.786s9.584-10.234,6.175-13.743S446.461,225.916,443.479,231.662Z" transform="translate(-428.091 -194.115)" fill="#efc45a" stroke="#ba7933" stroke-linecap="round" stroke-linejoin="round" stroke-width="1"/>
                <path id="Trazado_105231" data-name="Trazado 105231" d="M434.277,243.867c-3.117,2.148.991,5.89,3.192,3.9S438.177,241.171,434.277,243.867Z" transform="translate(-433.151 -185.382)" fill="#efc45a" stroke="#ba7933" stroke-linecap="round" stroke-linejoin="round" stroke-width="1"/>
                <path id="Trazado_105232" data-name="Trazado 105232" d="M454.942,234.616c-3.7,3.7-4.159,10.882,3.125,10.513s9.651-6.377,8.3-9.469S458.917,230.64,454.942,234.616Z" transform="translate(-422.59 -191.258)" fill="#efc45a" stroke="#ba7933" stroke-linecap="round" stroke-linejoin="round" stroke-width="1"/>
                <path id="Trazado_105233" data-name="Trazado 105233" d="M458.206,225.5c-4-.1-5.217,4.632-3.883,7.191s6.012,2.871,7.5.313S462.358,225.605,458.206,225.5Z" transform="translate(-421.774 -195.047)" fill="#efc45a" stroke="#ba7933" stroke-linecap="round" stroke-linejoin="round" stroke-width="1"/>
                <path id="Trazado_105234" data-name="Trazado 105234" d="M465.4,232.765c-2.323-.516-3.143,1.866-2.024,3.351a2.1,2.1,0,0,0,3.514-.267A2.274,2.274,0,0,0,465.4,232.765Z" transform="translate(-416.776 -191.083)" fill="#efc45a" stroke="#ba7933" stroke-linecap="round" stroke-linejoin="round" stroke-width="1"/>
                <path id="Trazado_105235" data-name="Trazado 105235" d="M461.846,225.535c-3.226,3.782-2.021,12.385,5.008,12.5s9.834-5.491,9.153-9.79C475.1,222.553,468.288,217.972,461.846,225.535Z" transform="translate(-418.281 -197.21)" fill="#efc45a" stroke="#ba7933" stroke-linecap="round" stroke-linejoin="round" stroke-width="1"/>
                <path id="Trazado_105236" data-name="Trazado 105236" d="M477.617,225.506c-5.053.444-8.357,7.394-5.056,10.753s9.421.906,10.22-2.878S482.46,225.081,477.617,225.506Z" transform="translate(-412.174 -195.057)" fill="#efc45a" stroke="#ba7933" stroke-linecap="round" stroke-linejoin="round" stroke-width="1"/>
                <path id="Trazado_105237" data-name="Trazado 105237" d="M477.248,220.612c-1.022-1.188-4.156.05-3.514,2.717S479.854,223.65,477.248,220.612Z" transform="translate(-410.845 -197.986)" fill="#efc45a" stroke="#ba7933" stroke-linecap="round" stroke-linejoin="round" stroke-width="1"/>
                <path id="Trazado_105238" data-name="Trazado 105238" d="M482.886,219.755c-3.41,1.349-5.378,7.1,0,11.4s11.761,1.531,12.137-3.1S489.75,217.042,482.886,219.755Z" transform="translate(-407.594 -198.566)" fill="#efc45a" stroke="#ba7933" stroke-linecap="round" stroke-linejoin="round" stroke-width="1"/>
                <path id="Trazado_105239" data-name="Trazado 105239" d="M490.746,216.808c-2.875,2.264-1.754,6.552.8,7.455s6.177-.8,6.068-3.995S494.739,213.667,490.746,216.808Z" transform="translate(-402.362 -200.519)" fill="#efc45a" stroke="#ba7933" stroke-linecap="round" stroke-linejoin="round" stroke-width="1"/>
                <path id="Trazado_105240" data-name="Trazado 105240" d="M496.191,223.236c-3.193-2.146-5.535.329-5.428,3.686s3.779,2.872,5.428,1.385A3.207,3.207,0,0,0,496.191,223.236Z" transform="translate(-401.419 -196.734)" fill="#efc45a" stroke="#ba7933" stroke-linecap="round" stroke-linejoin="round" stroke-width="1"/>
                <path id="Trazado_105241" data-name="Trazado 105241" d="M504.639,211.907c-4.125.25-6.951,3.834-7.878,8.235s2.556,7.531,8.59,8.1,5.964-3.834,5.677-8.162S508.189,211.7,504.639,211.907Z" transform="translate(-398.195 -202.536)" fill="#efc45a" stroke="#ba7933" stroke-linecap="round" stroke-linejoin="round" stroke-width="1"/>
                <path id="Trazado_105242" data-name="Trazado 105242" d="M510.576,210.856c-2.647-.222-4.9,3.616-3.057,6.174s5.04,1.281,5.964-.639S513.127,211.064,510.576,210.856Z" transform="translate(-392.558 -203.116)" fill="#efc45a" stroke="#ba7933" stroke-linecap="round" stroke-linejoin="round" stroke-width="1"/>
                <path id="Trazado_105243" data-name="Trazado 105243" d="M511.241,219.58c-1.138-3.064-5.04-.237-3.62,2.249S512.091,221.875,511.241,219.58Z" transform="translate(-392.301 -199.042)" fill="#efc45a" stroke="#ba7933" stroke-linecap="round" stroke-linejoin="round" stroke-width="1"/>
                <path id="Trazado_105244" data-name="Trazado 105244" d="M521.175,208.848c-4.2-1.546-7.1,1.21-8.089,8.872s5.394,9.582,10.293,5.926S529.481,211.9,521.175,208.848Z" transform="translate(-389.179 -204.444)" fill="#efc45a" stroke="#ba7933" stroke-linecap="round" stroke-linejoin="round" stroke-width="1"/>
                <path id="Trazado_105245" data-name="Trazado 105245" d="M523.106,205.864a2.561,2.561,0,1,0,2.6,3.053A2.61,2.61,0,0,0,523.106,205.864Z" transform="translate(-385.052 -205.862)" fill="#efc45a" stroke="#ba7933" stroke-linecap="round" stroke-linejoin="round" stroke-width="1"/>
                <path id="Trazado_105246" data-name="Trazado 105246" d="M530.45,212.9c-1.849-2.993-5.468-.988-5.895,1.459s1.562,3.934,4.4,3.5S531.582,214.742,530.45,212.9Z" transform="translate(-382.836 -202.814)" fill="#efc45a" stroke="#ba7933" stroke-linecap="round" stroke-linejoin="round" stroke-width="1"/>
              </g>
              <g id="Grupo_57375" data-name="Grupo 57375" transform="translate(1.817 5.99)">
                <path id="Trazado_105247" data-name="Trazado 105247" d="M437.46,235.013c.234-1.951,3.644-3.156,4.983-.845C444.695,238.042,436.867,240.047,437.46,235.013Z" transform="translate(-432.611 -196.957)" fill="#eed558" style="mix-blend-mode: screen;isolation: isolate"/>
                <path id="Trazado_105248" data-name="Trazado 105248" d="M463.483,234.332c.191-1.013,1.334-1.737,2.01-.6S463.216,235.784,463.483,234.332Z" transform="translate(-418.27 -196.819)" fill="#eed558" style="mix-blend-mode: screen;isolation: isolate"/>
                <path id="Trazado_105249" data-name="Trazado 105249" d="M454,236.981c-.264-3.911,7.2-5.107,9.018-1.627S454.31,241.579,454,236.981Z" transform="translate(-423.489 -196.741)" fill="#eed558" style="mix-blend-mode: screen;isolation: isolate"/>
                <path id="Trazado_105250" data-name="Trazado 105250" d="M480.7,223.279c.3-3.547,7.487-4.736,9.238-1.56C492.822,226.951,480.257,228.543,480.7,223.279Z" transform="translate(-408.784 -204.133)" fill="#eed558" style="mix-blend-mode: screen;isolation: isolate"/>
                <path id="Trazado_105251" data-name="Trazado 105251" d="M491.77,224.182c.093-1.464,2.723-1.925,3.378-.606C496.227,225.749,491.629,226.359,491.77,224.182Z" transform="translate(-402.681 -202.523)" fill="#eed558" style="mix-blend-mode: screen;isolation: isolate"/>
                <path id="Trazado_105252" data-name="Trazado 105252" d="M507.925,219.438c.067-1.045,1.942-1.379,2.41-.436C511.1,220.556,507.821,220.992,507.925,219.438Z" transform="translate(-393.783 -204.92)" fill="#eed558" style="mix-blend-mode: screen;isolation: isolate"/>
                <path id="Trazado_105253" data-name="Trazado 105253" d="M525.267,213.615c.118-1.8,3.35-2.368,4.158-.752C530.746,215.547,525.1,216.291,525.267,213.615Z" transform="translate(-384.231 -208.521)" fill="#eed558" style="mix-blend-mode: screen;isolation: isolate"/>
                <path id="Trazado_105254" data-name="Trazado 105254" d="M490.618,217.707c.112-1.731,3.219-2.278,3.986-.724C495.877,219.553,490.455,220.275,490.618,217.707Z" transform="translate(-403.316 -206.23)" fill="#eed558" style="mix-blend-mode: screen;isolation: isolate"/>
                <path id="Trazado_105255" data-name="Trazado 105255" d="M507.739,213.015c.1-1.588,2.954-2.089,3.66-.662C512.565,214.708,507.587,215.37,507.739,213.015Z" transform="translate(-393.886 -208.74)" fill="#eed558" style="mix-blend-mode: screen;isolation: isolate"/>
                <path id="Trazado_105256" data-name="Trazado 105256" d="M474.267,221.569c.064-.989,1.831-1.3,2.273-.412C477.261,222.618,474.172,223.031,474.267,221.569Z" transform="translate(-412.322 -203.716)" fill="#eed558" style="mix-blend-mode: screen;isolation: isolate"/>
                <path id="Trazado_105257" data-name="Trazado 105257" d="M514.335,213.129c.768-4.426,6.647-4.153,8.191-1.377C525.077,216.335,513.541,217.689,514.335,213.129Z" transform="translate(-390.273 -209.724)" fill="#eed558" style="mix-blend-mode: screen;isolation: isolate"/>
                <path id="Trazado_105258" data-name="Trazado 105258" d="M472.831,228.966c.248-2.841,6.112-3.809,7.528-1.262C482.7,231.9,472.468,233.186,472.831,228.966Z" transform="translate(-413.116 -200.633)" fill="#eed558" style="mix-blend-mode: screen;isolation: isolate"/>
                <path id="Trazado_105259" data-name="Trazado 105259" d="M499.094,215.533c.191-3.306,5.825-4.325,7.233-1.346C508.656,219.108,498.815,220.437,499.094,215.533Z" transform="translate(-398.649 -208.239)" fill="#eed558" style="mix-blend-mode: screen;isolation: isolate"/>
                <path id="Trazado_105260" data-name="Trazado 105260" d="M454.446,228.18c.254-1.853,4.018-3.128,5.819-1.2S453.821,232.641,454.446,228.18Z" transform="translate(-423.256 -200.749)" fill="#eed558" style="mix-blend-mode: screen;isolation: isolate"/>
                <path id="Trazado_105261" data-name="Trazado 105261" d="M461.327,227.1c.878-4.057,8.565-6.695,10.944-3.161C476.776,230.646,459.793,234.22,461.327,227.1Z" transform="translate(-419.502 -202.805)" fill="#eed558" style="mix-blend-mode: screen;isolation: isolate"/>
                <path id="Trazado_105262" data-name="Trazado 105262" d="M443.59,232.239c.783-3.63,7.675-6,9.8-2.829C457.433,235.421,442.212,238.614,443.59,232.239Z" transform="translate(-429.266 -199.698)" fill="#eed558" style="mix-blend-mode: screen;isolation: isolate"/>
                <path id="Trazado_105263" data-name="Trazado 105263" d="M439.855,241.709c.481-2.224,4.688-3.671,5.989-1.732C448.31,243.645,439.013,245.6,439.855,241.709Z" transform="translate(-431.304 -193.56)" fill="#eed558" style="mix-blend-mode: screen;isolation: isolate"/>
                <path id="Trazado_105264" data-name="Trazado 105264" d="M434.358,244.608a1.211,1.211,0,0,1,2.258-.476C437.923,246.088,433.9,246.685,434.358,244.608Z" transform="translate(-434.322 -191.111)" fill="#eed558" style="mix-blend-mode: screen;isolation: isolate"/>
              </g>
            </g>
            <path id="Trazado_105265" data-name="Trazado 105265" d="M579.482,202.84a15.584,15.584,0,0,0-12.779,3.978,20.133,20.133,0,0,1-13.833,4.8c-4.891-.164-13.847.453-19.1,3.744s-12.347,7.915-29.144,9.821-24.65,5.758-30.126,8.947-10.7,4.195-18.509,5.44-12.209,6.989-16.865,6.952a23.1,23.1,0,0,0-7.128.822v28.313s29.523-9.368,67.281-22.711,83.749-24.979,85.167-26.973V202.739A13.256,13.256,0,0,1,579.482,202.84Zm-14.309,27.435c-18.518,5.429-35.716,9-65.921,19.511s-52.96,18.416-58.831,20.8-6.661-2.112-6.636-16.842c.008-4.2,1.236-5.817,5.341-4.992s6.487-1.621,8.908-3.534,6.257-4.038,13.205-3.758c8.917.357,7.852-2.436,19.287-8.291s23.974-5.94,33.871-7.4,15.4-6.307,19.875-9.423,15.091-3.407,21.113-2.726,10.3-.771,13.827-4.725,11.415-7.886,11.781,3.021S583.686,224.846,565.173,230.275Z" transform="translate(-431.998 -202.651)" fill="#e1a04b" opacity="0.7" style="mix-blend-mode: multiply;isolation: isolate"/>
          </g>
          <g id="Grupo_57378" data-name="Grupo 57378" transform="translate(0 48.887)">
            <path id="Trazado_105266" data-name="Trazado 105266" d="M446.968,160.2c-7.238-3.266-33.64-12.63-48.966-19.728s-43.436-16.069-43.436-16.069v3.219l120.083,48.225V170.71S454.205,163.471,446.968,160.2Z" transform="translate(-354.565 -124.406)" fill="#ffdbc2" stroke="#ce8d61" stroke-linecap="round" stroke-linejoin="round" stroke-width="1"/>
            <path id="Trazado_105267" data-name="Trazado 105267" d="M452.765,163.75c-8.475-3.621-31.453-11.921-54.763-21.823-19.7-8.362-38.179-14.52-43.436-16.232v1.22l120.083,48.225V170s-.115-.047-.305-.112C471.543,173.878,460.9,167.229,452.765,163.75Z" transform="translate(-354.565 -123.696)" fill="#f7c7a6" opacity="0.7" style="mix-blend-mode: multiply;isolation: isolate"/>
          </g>
          <g id="Grupo_57379" data-name="Grupo 57379" transform="translate(120.083 46.217)">
            <path id="Trazado_105268" data-name="Trazado 105268" d="M571.033,144.221c-6.493.645-6.8-12.43-14.8-13.729-9.79-1.6-13.382,11.549-18.309,28.211-2.075,7.01-8.615,7.526-14.685,8.27-10.7,1.314-10.652-15.4-20.449-17.639s-18.842,6.814-20.65,20.65-2.235,18.983-8.3,19.936-7.985-3.005-9.691-13.121-4.573-14.156-12.026-13.2S432,171.658,432,171.658V176.8s13.7-6.848,20.227-7.7,6.552,11.386,10.24,19.816c1.766,4.037,4.383,7.821,12.685,5.549s8.821-6.794,11.462-20c3.086-15.435,6.814-20.233,11.073-21.083,3.564-.716,5.4,3.187,7.073,5.588,4.331,6.186,8.788,14.939,17.349,15.173,4.443.121,9.717-.364,13.455-2.987,4.8-3.364,5.881-9.637,7.424-14.885,1.582-5.374,3.257-11.116,6.453-15.806a9.314,9.314,0,0,1,4.635-3.934c5.674-1.707,8.253,5.332,10.318,10.19,2.883,6.769,9.368,6.321,13.1-.752,5.392-10.223,4.468-15.189,6.952-16.682v-6.6C580.985,123.09,577.528,143.586,571.033,144.221Z" transform="translate(-431.998 -122.684)" fill="#f2b891" stroke="#ce8d61" stroke-linecap="round" stroke-linejoin="round" stroke-width="1"/>
          </g>
        </g>
      </g>
      <g id="Grupo_57382" data-name="Grupo 57382" transform="translate(123.858 86.164)">
        <path id="Trazado_105269" data-name="Trazado 105269" d="M540.245,173.961s-5.633,9.666-14.374,8.318S512,174.634,509.309,170.6s-13.109-4.707-14.457,6.388-5.716,19.169-16.142,19.839-21.52-1.01-27.572-6.05-15.8-2.689-15.8,11.769-6.392,58.166,14.793,56.15S474,241.88,493.17,242.894s33.291-2.022,48.087-10.424,37.656-2.692,37.991-18.833c.34-16.262-3.023-36.652-.668-49.1s-15.133-19.5-21.86-14.457S543.272,167.572,540.245,173.961Z" transform="translate(-434.432 -148.443)" fill="#9febe9" style="mix-blend-mode: multiply;isolation: isolate"/>
        <path id="Trazado_105270" data-name="Trazado 105270" d="M442.954,175.411s-4.71.675-6.219,8.745-.338,27.241-1.18,32.28c0,0,2.019-5.884,2.019-16.141S436.568,178.441,442.954,175.411Z" transform="translate(-433.814 -133.59)" fill="#9febe9"/>
        <path id="Trazado_105271" data-name="Trazado 105271" d="M482.987,162.857c-7.773,7.359-5.023,19.551-14.046,26.334-.245.188-.206.485.121.292a19.869,19.869,0,0,0,7.459-7.766c3.3-5.856,2.193-13.577,6.808-18.746C483.657,162.608,483.21,162.642,482.987,162.857Z" transform="translate(-415.512 -140.593)" fill="#9febe9"/>
        <path id="Trazado_105272" data-name="Trazado 105272" d="M522.617,151.216c-10.2,4.829-13.365,17.318-19.673,25.788-.335.45.321.256.51.068a47.786,47.786,0,0,0,7.68-9.978c3.327-5.774,5.273-11.95,11.459-15.479C522.786,151.507,523,151.034,522.617,151.216Z" transform="translate(-396.748 -146.939)" fill="#9febe9"/>
        <path id="Trazado_105273" data-name="Trazado 105273" d="M522.534,152.424c-.116-.047-.484.243-.368.343a12.008,12.008,0,0,1,3.005,4.989,39.081,39.081,0,0,1,2.331,6.772c.043.206.467-.133.482-.268C528.406,160.319,526.592,154.06,522.534,152.424Z" transform="translate(-386.121 -146.254)" fill="#9febe9"/>
        <path id="Trazado_105274" data-name="Trazado 105274" d="M529.633,191.4c-.043-.183-.378.127-.389.24-.225,3.9-5.744,6.1-8.816,7.318-.132.054-.7.7-.313.636a13,13,0,0,0,6.633-3.01C528.228,195.362,530.179,193.506,529.633,191.4Z" transform="translate(-387.312 -124.814)" fill="#9febe9"/>
        <path id="Trazado_105275" data-name="Trazado 105275" d="M499.473,205.156a64.591,64.591,0,0,1-15.57,3.649c-.093.011-.479.34-.307.364a25.1,25.1,0,0,0,15.845-3.46C499.71,205.55,500.028,204.931,499.473,205.156Z" transform="translate(-407.377 -117.233)" fill="#9febe9"/>
        <path id="Trazado_105276" data-name="Trazado 105276" d="M452.889,217.408c-3.9,1.32-7.622.87-11.443-.476-.121-.047-.495.248-.371.338,3.348,2.55,7.824,2.508,11.557.842C452.855,218.01,453.424,217.226,452.889,217.408Z" transform="translate(-430.787 -110.723)" fill="#9febe9"/>
      </g>
    </g>
    <g id="Grupo_57408" data-name="Grupo 57408" transform="translate(559.547 57.282)">
      <g id="Grupo_57407" data-name="Grupo 57407">
        <g id="Grupo_57406" data-name="Grupo 57406">
          <g id="Grupo_57405" data-name="Grupo 57405">
            <g id="Grupo_57404" data-name="Grupo 57404">
              <g id="Grupo_57403" data-name="Grupo 57403">
                <g id="Grupo_57402" data-name="Grupo 57402">
                  <g id="Grupo_57388" data-name="Grupo 57388" transform="translate(0 114.895)">
                    <g id="Grupo_57384" data-name="Grupo 57384" transform="translate(12.845)">
                      <path id="Trazado_105277" data-name="Trazado 105277" d="M498.383,131.525c0,.022-3.119,13.027-3.122,13.052a3.343,3.343,0,0,0,6.487,1.551c0-.023,3.111-13.03,3.114-13.055Z" transform="translate(-494.941 -131.285)" fill="#00c6ff"/>
                      <path id="Trazado_105278" data-name="Trazado 105278" d="M501.879,146.825h0a3.605,3.605,0,0,1-6.768-2.224c.014-.053.958-3.995,1.805-7.532.938-3.914,1.317-5.51,1.323-5.516a.235.235,0,0,1,.284-.177l6.485,1.552a.237.237,0,0,1,.175.281s0,.022-2.95,12.351l-.167.707A3.479,3.479,0,0,1,501.879,146.825ZM498.647,131.9c-.164.7-.692,2.9-1.262,5.285-1.334,5.547-1.8,7.523-1.808,7.534a2.993,2.993,0,0,0,2.346,3.508,3.04,3.04,0,0,0,3.517-1.6h0a3.233,3.233,0,0,0,.163-.475l.167-.706c1.69-7.073,2.661-11.136,2.892-12.11Z" transform="translate(-495.026 -131.37)" fill="#007cc0"/>
                    </g>
                    <path id="Trazado_105279" data-name="Trazado 105279" d="M499.194,131.716l-.811-.191c0,.022-3.119,13.027-3.122,13.052a2.981,2.981,0,0,0,.332,2.184Z" transform="translate(-482.095 -131.285)" fill="#00c6ff" opacity="0.5" style="mix-blend-mode: multiply;isolation: isolate"/>
                    <path id="Trazado_105280" data-name="Trazado 105280" d="M504.083,132.831l-3.648-.868L496.6,148a3.334,3.334,0,0,0,.4.124,3.233,3.233,0,0,0,3.972-2.242C500.972,145.863,504.08,132.856,504.083,132.831Z" transform="translate(-481.316 -131.043)" fill="#00c6ff" opacity="0.5" style="mix-blend-mode: multiply;isolation: isolate"/>
                    <path id="Trazado_105281" data-name="Trazado 105281" d="M503.195,132.632l-1.292-.306-3.694,15.457a3.035,3.035,0,0,0,1.872-2.1C500.084,145.663,503.192,132.656,503.195,132.632Z" transform="translate(-480.428 -130.843)" fill="#2184b8" opacity="0.5" style="mix-blend-mode: multiply;isolation: isolate"/>
                    <g id="Grupo_57385" data-name="Grupo 57385" transform="translate(0 18.63)">
                      <path id="Trazado_105282" data-name="Trazado 105282" d="M501.3,143.537l1.169.282s-13.939,58.3-14.333,59.926-2.632,5.8.068-5.471S501.3,143.537,501.3,143.537Z" transform="translate(-486.659 -143.298)" fill="#d5d5d5"/>
                      <path id="Trazado_105283" data-name="Trazado 105283" d="M488.033,205.08c-.49,1.095-.789,1.157-.994,1.09-.3-.1-.8-.273,1.017-7.87l13.093-54.735a.269.269,0,0,1,.107-.149.229.229,0,0,1,.181-.023l1.175.284a.233.233,0,0,1,.175.282l-14.332,59.926A7.215,7.215,0,0,1,488.033,205.08Zm-.811.5a4.22,4.22,0,0,0,.377-.689,6.7,6.7,0,0,0,.392-1.11l14.28-59.695-.715-.174-13.03,54.5C487.3,203.554,487.186,205.112,487.222,205.576Z" transform="translate(-486.743 -143.383)" fill="#b1b7bc"/>
                    </g>
                    <g id="Grupo_57386" data-name="Grupo 57386" transform="translate(13.44 16.026)">
                      <path id="Trazado_105284" data-name="Trazado 105284" d="M499.036,144.237l-3.475-.833.374-1.548a5.893,5.893,0,0,0,3.468.83Z" transform="translate(-495.326 -141.62)" fill="#00a2dc"/>
                      <path id="Trazado_105285" data-name="Trazado 105285" d="M499.335,144.418a.23.23,0,0,1-.268.135l-3.475-.831a.236.236,0,0,1-.175-.284l.369-1.551a.246.246,0,0,1,.15-.169.24.24,0,0,1,.225.034,4.726,4.726,0,0,0,1.582.64,4.614,4.614,0,0,0,1.7.144.249.249,0,0,1,.217.071.254.254,0,0,1,.06.22l-.372,1.548Zm-3.4-1.1,3,.718.24-.994a6.1,6.1,0,0,1-1.546-.177,6.17,6.17,0,0,1-1.462-.54Z" transform="translate(-495.41 -141.704)" fill="#007cc0"/>
                    </g>
                    <g id="Grupo_57387" data-name="Grupo 57387" transform="translate(13.439 17.574)">
                      <path id="Trazado_105286" data-name="Trazado 105286" d="M495.562,142.855l.919,1.05,1.178.282,1.377-.5Z" transform="translate(-495.325 -142.618)" fill="#00a2dc"/>
                      <path id="Trazado_105287" data-name="Trazado 105287" d="M499.335,143.868a.256.256,0,0,1-.138.129l-1.376.5a.246.246,0,0,1-.133.006l-1.179-.281a.255.255,0,0,1-.127-.074l-.912-1.047a.227.227,0,0,1-.023-.281.237.237,0,0,1,.257-.11l3.468.831a.232.232,0,0,1,.181.216A.209.209,0,0,1,499.335,143.868Zm-1.605.154.555-.2-1.96-.467.372.423Z" transform="translate(-495.409 -142.702)" fill="#007cc0"/>
                    </g>
                  </g>
                  <g id="Grupo_57389" data-name="Grupo 57389" transform="translate(16.624 111.284)">
                    <rect id="Rectngulo_5836" data-name="Rectngulo 5836" width="3.203" height="5.657" transform="translate(0.29 3.402) rotate(-76.574)" fill="#9febe9"/>
                    <path id="Trazado_105288" data-name="Trazado 105288" d="M503.432,134.049l-5.969-1.428.859-3.579,5.971,1.425Zm-5.391-1.783,5.04,1.207.631-2.652-5.042-1.207Z" transform="translate(-497.463 -129.041)" fill="#158f9e"/>
                  </g>
                  <rect id="Rectngulo_5837" data-name="Rectngulo 5837" width="3.203" height="5.657" transform="translate(16.914 114.685) rotate(-76.574)" fill="#6cc1bf" style="mix-blend-mode: multiply;isolation: isolate"/>
                  <g id="Grupo_57390" data-name="Grupo 57390" transform="translate(12.484 23.513)">
                    <rect id="Rectngulo_5838" data-name="Rectngulo 5838" width="90.729" height="14.949" transform="translate(0.291 88.535) rotate(-76.558)" fill="#e7ffff"/>
                    <path id="Trazado_105289" data-name="Trazado 105289" d="M509.8,164.743l-15-3.587,21.215-88.712,15,3.59ZM495.365,160.8l14.075,3.368,20.993-87.778-14.072-3.367Z" transform="translate(-494.793 -72.444)" fill="#158f9e"/>
                  </g>
                  <path id="Trazado_105290" data-name="Trazado 105290" d="M499.473,145.136,516.7,73.107l-1.994-.474-17.225,72.023Z" transform="translate(-480.831 -48.827)" fill="#dbfdff" style="mix-blend-mode: multiply;isolation: isolate"/>
                  <rect id="Rectngulo_5839" data-name="Rectngulo 5839" width="74.061" height="6.638" transform="matrix(0.233, -0.973, 0.973, 0.233, 24.728, 97.765)" fill="#dbfdff" style="mix-blend-mode: multiply;isolation: isolate"/>
                  <g id="Grupo_57391" data-name="Grupo 57391" transform="translate(12.484 91.714)">
                    <rect id="Rectngulo_5840" data-name="Rectngulo 5840" width="20.609" height="14.947" transform="matrix(0.233, -0.973, 0.973, 0.233, 0.287, 20.333)" fill="#9f9f9e"/>
                    <path id="Trazado_105291" data-name="Trazado 105291" d="M509.8,140.52l-15-3.587,4.9-20.511,15,3.587Zm-14.432-3.944,14.075,3.368,4.68-19.582L500.052,117Z" transform="translate(-494.793 -116.422)" fill="#006c7b"/>
                  </g>
                  <g id="Grupo_57392" data-name="Grupo 57392" transform="translate(12.484 93.129)">
                    <rect id="Rectngulo_5841" data-name="Rectngulo 5841" width="19.153" height="14.947" transform="translate(0.287 18.918) rotate(-76.553)" fill="#d5d5d5"/>
                    <path id="Trazado_105292" data-name="Trazado 105292" d="M509.8,140.018l-15-3.587,4.564-19.1,15,3.589Zm-14.432-3.944,14.075,3.368,4.341-18.165-14.069-3.365Z" transform="translate(-494.793 -117.334)" fill="#006c7b"/>
                  </g>
                  <g id="Grupo_57393" data-name="Grupo 57393" transform="translate(12.484 94.54)">
                    <rect id="Rectngulo_5842" data-name="Rectngulo 5842" width="17.702" height="14.948" transform="matrix(0.233, -0.973, 0.973, 0.233, 0.287, 17.507)" fill="#9febe9"/>
                    <path id="Trazado_105293" data-name="Trazado 105293" d="M509.8,139.516l-15-3.587,4.227-17.685,15,3.59Zm-14.432-3.944,14.075,3.368,4-16.755-14.069-3.362Z" transform="translate(-494.793 -118.244)" fill="#158f9e"/>
                  </g>
                  <path id="Trazado_105294" data-name="Trazado 105294" d="M503.931,119.587,499.812,136.8c2.587.617,7.041,1.684,7.041,1.684l4.119-17.215S506.352,120.169,503.931,119.587Z" transform="translate(-479.545 -22.964)" fill="#9febe9" style="mix-blend-mode: multiply;isolation: isolate"/>
                  <path id="Trazado_105295" data-name="Trazado 105295" d="M501.934,119.277l-4.01,16.758c.6.143,1.641.392,1.641.392l4.007-16.755S502.494,119.413,501.934,119.277Z" transform="translate(-480.585 -23.135)" fill="#9febe9" style="mix-blend-mode: screen;isolation: isolate"/>
                  <path id="Trazado_105296" data-name="Trazado 105296" d="M500.221,118.7l-1.126-.27-4.117,17.215s.454.112,1.126.268Z" transform="translate(-482.207 -23.601)" fill="#9febe9" style="mix-blend-mode: multiply;isolation: isolate"/>
                  <g id="Grupo_57394" data-name="Grupo 57394" transform="translate(19.211 26.244)" opacity="0.5">
                    <path id="Trazado_105297" data-name="Trazado 105297" d="M517.383,77.818s-.834,3.7-2.089,9.257-2.962,12.955-4.649,20.36c-.839,3.706-1.669,7.41-2.48,10.877-.431,1.726-.822,3.4-1.233,4.98s-.792,3.074-1.149,4.451-.706,2.639-1,3.755-.571,2.092-.8,2.892c-.445,1.6-.716,2.511-.716,2.511l-.095-.022s.163-.937.49-2.57c.149-.816.355-1.8.594-2.937s.489-2.415.8-3.8.639-2.9.992-4.491.76-3.263,1.157-5c.844-3.458,1.782-7.14,2.709-10.82,1.841-7.368,3.68-14.734,5.065-20.26s2.322-9.2,2.322-9.2Z" transform="translate(-496.91 -72.228)" fill="#158f9e"/>
                    <path id="Trazado_105298" data-name="Trazado 105298" d="M522.1,75.985s-.918,4.029-2.286,10.08c-1.386,6.039-3.23,14.1-5.08,22.158-.92,4.024-1.845,8.056-2.711,11.834-.464,1.88-.889,3.7-1.334,5.426s-.859,3.342-1.242,4.848-.768,2.867-1.087,4.091-.614,2.273-.864,3.143c-.482,1.743-.775,2.736-.775,2.736l-.1-.025s.185-1.019.547-2.787c.171-.892.391-1.968.654-3.2s.54-2.629.882-4.141.7-3.15,1.081-4.885.831-3.553,1.262-5.437c.94-3.767,1.939-7.774,2.939-11.781,2-8.024,4-16.048,5.495-22.062C521,79.97,522.005,75.96,522.005,75.96Z" transform="translate(-495.004 -73.238)" fill="#158f9e"/>
                    <path id="Trazado_105299" data-name="Trazado 105299" d="M514.827,74.227s-.926,4.088-2.32,10.221-3.278,14.306-5.153,22.485c-.938,4.08-1.873,8.167-2.756,12-.47,1.906-.9,3.759-1.352,5.505s-.87,3.392-1.261,4.918-.775,2.912-1.1,4.151-.622,2.306-.875,3.193c-.485,1.768-.789,2.773-.789,2.773l-.09-.025s.191-1.031.551-2.83c.177-.9.406-1.988.67-3.243s.554-2.66.9-4.193.712-3.2,1.1-4.961.836-3.606,1.279-5.521c.948-3.815,1.965-7.878,2.974-11.949,2.029-8.142,4.055-16.277,5.574-22.38s2.553-10.165,2.553-10.165Z" transform="translate(-499.131 -74.205)" fill="#158f9e"/>
                  </g>
                  <g id="Grupo_57395" data-name="Grupo 57395" transform="translate(13.682 55.798)">
                    <path id="Trazado_105300" data-name="Trazado 105300" d="M503.64,93.33s.1-.019.265-.034c.079-.009.185-.017.3-.022.051,0,.118-.006.178-.012a.939.939,0,0,1,.191.045c.521.127,1.225.293,1.918.459s1.405.337,1.926.461c.067.023.136.012.191.05s.112.064.16.095c.1.062.183.112.251.152a2.6,2.6,0,0,1,.219.146s-.091.016-.257.031c-.085,0-.185.014-.3.023-.062,0-.122.009-.186.009s-.124-.031-.188-.039l-1.926-.462-1.924-.461c-.062-.022-.132-.012-.185-.045s-.113-.064-.16-.095c-.1-.053-.185-.109-.257-.155C503.719,93.386,503.64,93.33,503.64,93.33Z" transform="translate(-491.119 -93.262)" fill="#318195"/>
                    <path id="Trazado_105301" data-name="Trazado 105301" d="M501.525,102.181s.1-.019.261-.034c.079-.009.181-.019.3-.023.06,0,.121-.009.188-.012s.118.039.185.045c.524.123,1.224.293,1.926.459s1.4.333,1.926.461c.06.022.13.014.181.048s.113.067.16.093c.1.064.183.112.251.155.146.09.223.149.223.149s-.1.011-.259.026c-.087.006-.183.02-.3.025-.057,0-.118.009-.183.011s-.118-.033-.189-.04c-.523-.124-1.225-.292-1.926-.462s-1.4-.33-1.92-.457c-.068-.023-.129-.012-.189-.05a1.061,1.061,0,0,1-.158-.093c-.1-.054-.181-.105-.254-.15C501.6,102.238,501.525,102.181,501.525,102.181Z" transform="translate(-492.284 -88.388)" fill="#318195"/>
                    <path id="Trazado_105302" data-name="Trazado 105302" d="M499.336,111.327s.1-.016.264-.031c.079-.008.181-.019.3-.022l.181-.016a1.471,1.471,0,0,1,.189.048c.526.123,1.227.293,1.926.462s1.4.333,1.926.462a.852.852,0,0,1,.183.043c.059.034.11.067.16.095.1.062.185.11.257.157.138.09.217.144.217.144l-.264.033c-.081,0-.18.012-.293.019-.06,0-.118.008-.186.011s-.122-.033-.188-.039c-.524-.127-1.225-.295-1.926-.462s-1.4-.333-1.926-.462a.615.615,0,0,1-.341-.14c-.1-.051-.189-.11-.256-.15C499.414,111.386,499.336,111.327,499.336,111.327Z" transform="translate(-493.489 -83.349)" fill="#318195"/>
                    <path id="Trazado_105303" data-name="Trazado 105303" d="M497.25,120.053s.095-.017.265-.033l.292-.023c.059,0,.118-.011.185-.012s.122.036.189.042c.526.129,1.227.3,1.925.462s1.4.335,1.924.459c.06.023.13.016.188.053s.105.06.158.087c.1.059.18.115.256.16.138.087.216.147.216.147s-.1.011-.261.025c-.082.011-.181.016-.3.029-.056,0-.115,0-.181.009a1.27,1.27,0,0,1-.188-.043c-.53-.124-1.224-.292-1.928-.459s-1.405-.335-1.924-.462a.709.709,0,0,1-.186-.042c-.059-.033-.112-.067-.157-.095-.1-.057-.189-.112-.253-.154C497.329,120.109,497.25,120.053,497.25,120.053Z" transform="translate(-494.638 -78.543)" fill="#318195"/>
                    <path id="Trazado_105304" data-name="Trazado 105304" d="M499.989,122.738s-.06.025-.158.056a1.6,1.6,0,0,1-.178.05.689.689,0,0,1-.112.028c-.04.011-.07-.022-.109-.023-.3-.071-.693-.164-1.1-.264s-.794-.191-1.092-.262c-.04-.014-.079,0-.11-.026s-.057-.054-.082-.076a3.724,3.724,0,0,1-.256-.25s.059-.025.158-.057c.053-.012.116-.031.178-.048l.11-.028c.042-.011.07.022.109.023.3.068.7.167,1.1.261s.8.189,1.1.264c.033.016.078,0,.105.025a.694.694,0,0,1,.084.082c.051.04.1.087.136.121C499.944,122.687,499.989,122.738,499.989,122.738Z" transform="translate(-494.889 -77.524)" fill="#318195"/>
                    <path id="Trazado_105305" data-name="Trazado 105305" d="M499.571,124.47s-.056.022-.155.056c-.05.019-.112.033-.183.054-.031.009-.071.019-.105.029s-.068-.022-.105-.025c-.3-.074-.7-.167-1.1-.264s-.8-.191-1.1-.262c-.036-.016-.079,0-.1-.029s-.062-.051-.088-.074c-.057-.047-.1-.091-.138-.129l-.116-.119s.064-.025.16-.054c.053-.017.11-.034.18-.051.029-.011.068-.019.112-.029s.07.02.107.023l1.092.259c.4.1.8.2,1.1.265.036.014.078,0,.1.025l.088.074c.05.045.1.091.136.13A1.118,1.118,0,0,1,499.571,124.47Z" transform="translate(-495.117 -76.569)" fill="#318195"/>
                    <path id="Trazado_105306" data-name="Trazado 105306" d="M499.163,126.189s-.06.025-.16.056a.975.975,0,0,1-.181.053l-.1.031c-.039.009-.07-.022-.115-.026-.3-.07-.693-.164-1.089-.261l-1.1-.264c-.034-.012-.076,0-.11-.029s-.054-.05-.081-.073c-.054-.048-.1-.091-.14-.129l-.112-.119s.057-.022.16-.056a1.456,1.456,0,0,1,.175-.051c.034-.009.073-.016.113-.028s.064.019.1.022c.3.071.7.167,1.1.261s.8.194,1.1.264c.036.014.076,0,.106.026a1.027,1.027,0,0,1,.084.076c.05.043.1.091.14.13A1.614,1.614,0,0,1,499.163,126.189Z" transform="translate(-495.343 -75.621)" fill="#318195"/>
                    <path id="Trazado_105307" data-name="Trazado 105307" d="M498.756,127.888s-.06.025-.161.054a1.074,1.074,0,0,1-.175.054,1.059,1.059,0,0,0-.109.031c-.04.008-.073-.026-.112-.026-.3-.07-.695-.167-1.1-.267l-1.093-.261c-.036-.014-.079,0-.11-.029s-.057-.053-.081-.073c-.056-.047-.1-.09-.138-.13a1.521,1.521,0,0,1-.115-.118l.155-.057c.051-.016.115-.034.181-.048.037-.011.073-.019.107-.031s.071.02.109.023c.3.068.7.167,1.1.261s.8.194,1.1.262c.033.019.076,0,.1.026s.059.053.084.079c.051.045.1.09.135.123C498.717,127.84,498.756,127.888,498.756,127.888Z" transform="translate(-495.566 -74.687)" fill="#318195"/>
                    <path id="Trazado_105308" data-name="Trazado 105308" d="M503.452,108.253s-.06.023-.158.054a1.07,1.07,0,0,1-.178.054c-.037.012-.073.02-.107.033s-.068-.023-.11-.031c-.3-.07-.7-.166-1.095-.259s-.8-.192-1.1-.262c-.037-.016-.076,0-.107-.034s-.057-.051-.081-.07c-.057-.05-.1-.09-.143-.127a1.536,1.536,0,0,1-.112-.119,1.065,1.065,0,0,1,.158-.056,1.579,1.579,0,0,1,.177-.051c.034-.011.067-.02.109-.031s.068.022.109.022c.3.071.7.169,1.1.264l1.1.262c.036.015.078,0,.105.028a.848.848,0,0,1,.085.074,1.214,1.214,0,0,1,.133.124A1.113,1.113,0,0,1,503.452,108.253Z" transform="translate(-492.979 -85.502)" fill="#318195"/>
                    <path id="Trazado_105309" data-name="Trazado 105309" d="M503.034,109.988s-.054.025-.154.059c-.053.012-.116.033-.181.053a1.1,1.1,0,0,0-.11.026c-.036.006-.067-.025-.105-.025-.3-.071-.7-.169-1.1-.262s-.8-.191-1.1-.265c-.034-.016-.079,0-.1-.028l-.087-.074a1.241,1.241,0,0,1-.136-.132c-.074-.07-.115-.115-.115-.115s.06-.026.158-.057c.053-.016.109-.036.178-.051.033-.009.071-.019.11-.028s.071.022.11.022c.3.068.695.167,1.1.262s.792.192,1.09.261c.036.017.079,0,.112.029s.053.05.079.074c.057.048.1.092.14.129C503,109.94,503.034,109.988,503.034,109.988Z" transform="translate(-493.209 -84.547)" fill="#318195"/>
                    <path id="Trazado_105310" data-name="Trazado 105310" d="M504.271,104.833l-.158.059c-.048.016-.112.034-.181.051a.851.851,0,0,1-.109.026c-.036.011-.064-.02-.107-.025-.3-.071-.7-.163-1.1-.259s-.8-.192-1.1-.264c-.039-.016-.079,0-.109-.033s-.054-.047-.082-.07c-.056-.048-.1-.091-.14-.127-.073-.073-.115-.119-.115-.119s.06-.023.161-.057a1.418,1.418,0,0,1,.178-.048c.031-.014.07-.02.109-.034s.067.02.105.025c.3.073.7.167,1.1.261s.8.194,1.1.264c.033.015.078,0,.1.026s.062.053.09.074c.048.045.1.09.135.129A1.6,1.6,0,0,1,504.271,104.833Z" transform="translate(-492.53 -87.385)" fill="#318195"/>
                    <path id="Trazado_105311" data-name="Trazado 105311" d="M503.858,106.573s-.059.022-.161.056c-.05.012-.109.036-.178.05-.036.008-.07.019-.109.028s-.068-.023-.109-.023c-.3-.071-.7-.171-1.1-.264s-.8-.189-1.1-.264c-.036-.014-.076,0-.105-.026l-.088-.074c-.048-.045-.1-.093-.13-.129-.076-.071-.121-.121-.121-.121a1.393,1.393,0,0,1,.158-.054c.053-.014.112-.037.181-.054a.787.787,0,0,0,.109-.026c.037-.016.073.022.112.023.3.071.695.164,1.093.265l1.1.257c.037.019.074,0,.107.031l.085.071c.054.047.1.09.138.129C503.813,106.52,503.858,106.573,503.858,106.573Z" transform="translate(-492.759 -86.429)" fill="#318195"/>
                    <path id="Trazado_105312" data-name="Trazado 105312" d="M505.535,99.542s-.06.025-.16.056a1.571,1.571,0,0,1-.178.054l-.109.028c-.037.009-.068-.02-.107-.022-.3-.076-.7-.169-1.1-.264l-1.1-.264c-.039-.014-.079,0-.11-.033s-.057-.047-.082-.071c-.054-.048-.1-.088-.14-.126-.073-.074-.112-.121-.112-.121s.059-.023.158-.059c.047-.014.11-.033.178-.05.031-.009.07-.017.1-.029s.073.02.112.02c.3.078.7.172,1.095.265s.8.192,1.1.262c.034.016.076,0,.1.026a1.111,1.111,0,0,1,.087.076,1.588,1.588,0,0,1,.137.13A.946.946,0,0,1,505.535,99.542Z" transform="translate(-491.832 -90.299)" fill="#318195"/>
                    <path id="Trazado_105313" data-name="Trazado 105313" d="M505.122,101.279s-.06.023-.16.057c-.051.012-.11.037-.18.051a1.025,1.025,0,0,1-.109.026c-.042.012-.07-.022-.109-.023-.3-.07-.693-.167-1.1-.262s-.794-.188-1.09-.262c-.04-.019-.082,0-.11-.031l-.087-.073a1.28,1.28,0,0,1-.13-.127,1.641,1.641,0,0,1-.119-.126s.059-.022.155-.051c.051-.014.115-.033.185-.048a1.11,1.11,0,0,1,.107-.033c.042-.011.07.022.109.022.3.073.693.167,1.1.267s.8.188,1.1.262c.037.016.076,0,.107.025s.06.053.084.073c.054.047.1.091.138.127C505.077,101.228,505.122,101.279,505.122,101.279Z" transform="translate(-492.061 -89.344)" fill="#318195"/>
                    <path id="Trazado_105314" data-name="Trazado 105314" d="M506.353,96.123a.924.924,0,0,1-.161.057,1.3,1.3,0,0,1-.175.051c-.034.009-.067.025-.109.033s-.067-.025-.107-.025c-.3-.074-.7-.167-1.1-.264s-.8-.192-1.1-.262c-.036-.017-.079,0-.109-.031a.854.854,0,0,0-.082-.073c-.054-.048-.1-.093-.136-.129-.073-.076-.118-.116-.118-.116s.06-.026.161-.059c.048-.014.109-.033.178-.051l.112-.028c.037-.014.064.019.1.02.3.071.7.167,1.1.264s.8.191,1.1.262c.036.014.078,0,.105.026s.059.05.088.073a1.8,1.8,0,0,1,.133.133C506.313,96.076,506.353,96.123,506.353,96.123Z" transform="translate(-491.383 -92.182)" fill="#318195"/>
                    <path id="Trazado_105315" data-name="Trazado 105315" d="M505.939,97.862l-.161.056c-.048.014-.109.036-.175.05l-.112.028c-.039.009-.07-.022-.11-.022-.295-.073-.693-.167-1.1-.264s-.8-.188-1.1-.264c-.034-.017-.076,0-.105-.029s-.059-.05-.085-.076a1.34,1.34,0,0,1-.133-.127,1.211,1.211,0,0,1-.118-.119s.057-.023.158-.054a1.472,1.472,0,0,1,.178-.053c.036,0,.073-.02.109-.026s.07.02.11.022c.3.071.7.164,1.1.262s.8.188,1.092.259c.039.02.078,0,.11.029s.057.053.082.073c.057.048.1.091.138.127C505.9,97.814,505.939,97.862,505.939,97.862Z" transform="translate(-491.611 -91.226)" fill="#318195"/>
                    <path id="Trazado_105316" data-name="Trazado 105316" d="M502.106,113.9l-.161.056c-.051.014-.112.039-.178.054l-.112.028c-.034.009-.067-.023-.1-.026-.3-.07-.7-.161-1.1-.262s-.8-.189-1.093-.257c-.039-.023-.079,0-.109-.037s-.059-.05-.084-.07c-.054-.045-.1-.095-.138-.129-.073-.073-.118-.121-.118-.121s.057-.025.158-.056c.051-.012.113-.031.178-.051a1.1,1.1,0,0,0,.108-.026c.043-.014.073.022.112.022.295.071.7.163,1.1.264s.792.188,1.1.262c.036.012.073,0,.105.025s.059.051.084.071a1.584,1.584,0,0,1,.135.132A1.37,1.37,0,0,1,502.106,113.9Z" transform="translate(-493.724 -82.392)" fill="#318195"/>
                    <path id="Trazado_105317" data-name="Trazado 105317" d="M501.7,115.589a1.157,1.157,0,0,1-.154.06c-.054.017-.11.039-.178.054-.04.008-.073.017-.112.025s-.068-.022-.107-.025c-.3-.071-.7-.171-1.1-.264s-.8-.188-1.1-.262c-.036-.014-.073,0-.105-.028s-.057-.053-.082-.074c-.053-.045-.1-.092-.14-.129a1.246,1.246,0,0,1-.116-.119l.158-.056c.053-.014.112-.036.178-.05a.982.982,0,0,1,.112-.028c.037-.017.07.023.11.022.3.071.7.164,1.1.265s.8.188,1.093.257c.037.012.079,0,.112.029a.866.866,0,0,1,.079.071,1.443,1.443,0,0,1,.136.129A1.178,1.178,0,0,1,501.7,115.589Z" transform="translate(-493.947 -81.459)" fill="#318195"/>
                  </g>
                  <g id="Grupo_57396" data-name="Grupo 57396" transform="translate(35.521 1.424)">
                    <path id="Trazado_105318" data-name="Trazado 105318" d="M519.91,83.218l-10.068-2.4,5.349-18.254.009-4.166L525.273,60.8l-1.879,3.721Z" transform="translate(-509.541 -58.093)" fill="#c6ece9"/>
                    <path id="Trazado_105319" data-name="Trazado 105319" d="M520.207,83.618l-10.559-2.525,5.409-18.464.012-4.429,10.654,2.548-1.994,3.958Zm-9.959-2.874,9.578,2.289,3.447-18.481,1.752-3.478-9.477-2.267-.022,3.927Z" transform="translate(-509.648 -58.2)" fill="#158f9e"/>
                  </g>
                  <path id="Trazado_105320" data-name="Trazado 105320" d="M514.128,82.05c3.083-8.07,7.966-19.48,9.261-20.536l.363-.712L513.68,58.394l-.006,1.728c1.036,2.179-.121,13.655-1.072,21.548C513.112,81.791,513.619,81.913,514.128,82.05Z" transform="translate(-472.5 -56.67)" fill="#c6ece9" opacity="0.5" style="mix-blend-mode: multiply;isolation: isolate"/>
                  <path id="Trazado_105321" data-name="Trazado 105321" d="M513.672,58.486c2.593,1.419,1.814,5.806,1.569,9.168-.226,3.029-1.2,7.224-1.5,10.246.654-2.424,5.443-17.1,7.85-17.518Z" transform="translate(-471.911 -56.619)" fill="#c6ece9" style="mix-blend-mode: multiply;isolation: isolate"/>
                  <path id="Trazado_105322" data-name="Trazado 105322" d="M518.281,59.438s-1.143,5.226-2.326,10.448c-.293,1.3-.583,2.612-.861,3.834-.15.608-.284,1.2-.437,1.757s-.287,1.079-.419,1.565-.257.926-.371,1.318-.208.735-.293,1.014l-.27.882-.045-.011s.054-.327.147-.91c.054-.287.119-.639.2-1.039s.158-.853.27-1.341.215-1.027.333-1.588.267-1.151.4-1.762c.312-1.214.639-2.512.972-3.809,1.3-5.189,2.652-10.37,2.652-10.37Z" transform="translate(-472.138 -56.101)" fill="#158f9e"/>
                  <g id="Grupo_57397" data-name="Grupo 57397" transform="translate(37.059)">
                    <rect id="Rectngulo_5843" data-name="Rectngulo 5843" width="1.562" height="18.426" transform="translate(0.287 1.807) rotate(-76.551)" fill="#e7ffff"/>
                    <path id="Trazado_105323" data-name="Trazado 105323" d="M529.026,63.662,510.64,59.269l.473-1.987L529.5,61.677ZM511.214,58.91l17.457,4.175.256-1.051-17.46-4.173Z" transform="translate(-510.64 -57.282)" fill="#158f9e"/>
                  </g>
                  <g id="Grupo_57398" data-name="Grupo 57398" transform="translate(26.656 21.168)">
                    <rect id="Rectngulo_5844" data-name="Rectngulo 5844" width="1.614" height="28.79" transform="translate(0.287 1.861) rotate(-76.546)" fill="#e7ffff"/>
                    <path id="Trazado_105324" data-name="Trazado 105324" d="M532.392,79.773l-28.46-6.8.487-2.042,28.462,6.808Zm-27.883-7.159L532.037,79.2l.264-1.1-27.527-6.583Z" transform="translate(-503.932 -70.932)" fill="#158f9e"/>
                  </g>
                  <g id="Grupo_57399" data-name="Grupo 57399" transform="translate(14.667 114.012)">
                    <rect id="Rectngulo_5845" data-name="Rectngulo 5845" width="0.873" height="9.369" transform="matrix(0.233, -0.973, 0.973, 0.233, 0.239, 1.091)" fill="#00a2dc"/>
                    <path id="Trazado_105325" data-name="Trazado 105325" d="M505.773,134.171a.245.245,0,0,1-.1.1.238.238,0,0,1-.177.034l-9.111-2.184a.24.24,0,0,1-.178-.288l.206-.851a.217.217,0,0,1,.109-.149.242.242,0,0,1,.178-.031l9.111,2.182a.241.241,0,0,1,.175.287l-.2.856Zm-9.041-2.452,8.641,2.066.095-.388-8.644-2.066Z" transform="translate(-496.201 -130.8)" fill="#007cc0"/>
                  </g>
                  <g id="Grupo_57401" data-name="Grupo 57401" transform="translate(14.319 116.48)" opacity="0.7" style="mix-blend-mode: multiply;isolation: isolate">
                    <g id="Grupo_57400" data-name="Grupo 57400" transform="translate(1.337)">
                      <path id="Trazado_105326" data-name="Trazado 105326" d="M500.55,140.047a5.418,5.418,0,0,1-1.583,2.3,1.037,1.037,0,0,1-.813.155,1.372,1.372,0,0,1-.868-.682c-1.278-2.174.582-8.97.661-9.26a.238.238,0,0,1,.3-.163.244.244,0,0,1,.167.292c-.02.071-1.89,6.89-.712,8.892a.9.9,0,0,0,.572.461.576.576,0,0,0,.444-.1c1.434-.895,2.919-6.344,3.367-8.371a.231.231,0,0,1,.284-.177.236.236,0,0,1,.18.287A38.942,38.942,0,0,1,500.55,140.047Z" transform="translate(-496.839 -132.392)" fill="#007cc0"/>
                    </g>
                    <path id="Trazado_105327" data-name="Trazado 105327" d="M498.183,143.845a.239.239,0,0,1-.45-.154l1.36-5.693a.245.245,0,0,1,.29-.177.243.243,0,0,1,.178.292L498.2,143.8A.28.28,0,0,1,498.183,143.845Z" transform="translate(-495.013 -129.405)" fill="#007cc0"/>
                    <path id="Trazado_105328" data-name="Trazado 105328" d="M496.433,143.427a.236.236,0,0,1-.271.133.244.244,0,0,1-.18-.288l1.36-5.69a.241.241,0,0,1,.295-.177.238.238,0,0,1,.172.288l-1.362,5.69Z" transform="translate(-495.977 -129.635)" fill="#007cc0"/>
                  </g>
                </g>
              </g>
            </g>
          </g>
        </g>
      </g>
    </g>
  </g>
</svg>
