<svg id="Grupo_57488" data-name="Grupo 57488" xmlns="http://www.w3.org/2000/svg" xmlns:xlink="http://www.w3.org/1999/xlink" width="161.886" height="161.884" viewBox="0 0 161.886 161.884">
  <defs>
    <clipPath id="clip-path">
      <path id="Trazado_105549" data-name="Trazado 105549" d="M914.309,497.214a80.943,80.943,0,1,1-80.942-80.942A80.942,80.942,0,0,1,914.309,497.214Z" transform="translate(-752.423 -416.272)" fill="none"/>
    </clipPath>
    <radialGradient id="radial-gradient" cx="0.522" cy="0.226" r="0.464" gradientTransform="translate(-0.05) scale(1.101 1)" gradientUnits="objectBoundingBox">
      <stop offset="0.338" stop-color="#f3cacd"/>
      <stop offset="0.944" stop-color="#fff"/>
    </radialGradient>
  </defs>
  <g id="Grupo_57439" data-name="Grupo 57439">
    <g id="Grupo_57438" data-name="Grupo 57438" clip-path="url(#clip-path)">
      <path id="Trazado_105497" data-name="Trazado 105497" d="M914.309,497.214a80.943,80.943,0,1,1-80.942-80.942A80.942,80.942,0,0,1,914.309,497.214Z" transform="translate(-752.423 -416.272)" fill="#09b291"/>
      <g id="Grupo_57437" data-name="Grupo 57437" transform="translate(-76.715 13.501)">
        <path id="Trazado_105498" data-name="Trazado 105498" d="M801.141,484.821l-70.448,25.807s-19.273,5.43-8.64,16.067S1042.283,739.37,1042.283,739.37s16.716,12.619,32.007,5.306l223.3-128.006s13.734-7.624-1.2-15.574L984.566,439.826s-12.18-9.2-20.711-6.691Z" transform="translate(-718.853 -408.658)" fill="#d2dbdd"/>
        <path id="Trazado_105499" data-name="Trazado 105499" d="M1261.939,584.281,994.154,445.786c-.062.075-.13.146-.2.224a109.831,109.831,0,0,1-6.415,12.42,100,100,0,0,1-24.717,27.758,134.251,134.251,0,0,1-21.559,13.117c-9.141,4.609-18.353,9.07-27.676,13.3a484.076,484.076,0,0,1-56.952,22.013,320.211,320.211,0,0,1-60.311,12.822c-16.835,1.789-33.757,2.13-50.667,2.514,92.421,61.822,262.168,172.595,262.168,172.595s16.716,12.619,32.007,5.306l223.3-128.006S1276.873,592.231,1261.939,584.281Z" transform="translate(-684.399 -391.842)" fill="#d2dbdd" opacity="0.5" style="mix-blend-mode: multiply;isolation: isolate"/>
        <g id="Grupo_57430" data-name="Grupo 57430" transform="translate(48.989 34.509)" style="mix-blend-mode: multiply;isolation: isolate">
          <path id="Trazado_105500" data-name="Trazado 105500" d="M749.262,492.025s16-13.229,70.126-28.494c0,0,20.421-10.775,53.567-20.183,0,0,8.714-5.967,10.686-6.065s2.692,5.165,2.692,5.165,43.545,12.594,57.809,42.315c0,0,10.11,3.88,0,4.772,0,0-32.827,15.078-56.582,21.9,0,0-31.038,20.3-66.223,31.017,0,0-2.834,4.74-6.323,5.507-3.483.784-4.031-5.473-4.031-5.473s-27.077-9.168-44.52-23.935c-4.911-4.161-18.538-17.573-19.509-21.933,0,0-8.789-2.116-6.186-3.883S749.262,492.025,749.262,492.025Z" transform="translate(-740.29 -437.281)" fill="#d2dbdd"/>
        </g>
        <g id="Grupo_57436" data-name="Grupo 57436" transform="translate(46.42)">
          <g id="Grupo_57431" data-name="Grupo 57431" transform="translate(0 28.947)">
            <path id="Trazado_105501" data-name="Trazado 105501" d="M747.987,489.084s15.711-13.163,68.926-28.232c0,0,20.066-10.688,52.662-19.982,0,0,8.556-5.928,10.5-6.022s2.664,5.169,2.664,5.169,42.909,12.738,57.055,42.487c0,0,9.961,3.91.016,4.767,0,0-32.26,14.957-55.61,21.682,0,0-30.48,20.174-65.08,30.761,0,0-2.776,4.726-6.2,5.484s-3.99-5.484-3.99-5.484-26.687-9.253-43.906-24.07c-4.856-4.177-18.311-17.626-19.28-21.991,0,0-8.654-2.143-6.1-3.9S747.987,489.084,747.987,489.084Z" transform="translate(-739.166 -434.847)" fill="#fff"/>
          </g>
          <g id="Grupo_57432" data-name="Grupo 57432" transform="translate(0 28.947)">
            <path id="Trazado_105502" data-name="Trazado 105502" d="M765.252,494.443c-3.281-3.442-6.355-7.07-9.369-10.752-2.249-2.763-4.922-5.8-5.459-9.445-.567-3.873,2.893-6.127,5.619-8.1a129.323,129.323,0,0,1,12.909-8.176c4.36-2.409,8.823-4.641,13.337-6.8-25.773,9.787-34.3,16.929-34.3,16.929s-5.8-1.086-8.35.674,6.1,3.9,6.1,3.9c.969,4.365,14.424,17.813,19.28,21.991q1.213,1.046,2.5,2.052C766.746,495.97,765.988,495.216,765.252,494.443Z" transform="translate(-739.166 -413.866)" fill="#e0e0e0"/>
            <path id="Trazado_105503" data-name="Trazado 105503" d="M788.28,447.177a60.614,60.614,0,0,1,9.054-2.116,137.535,137.535,0,0,1,18.154-1.508,88.188,88.188,0,0,1,19.593,1.865,118.51,118.51,0,0,0-13.885-5.4s-.724-5.263-2.664-5.169-10.5,6.022-10.5,6.022c-7.735,2.205-14.76,4.49-20.983,6.691C787.458,447.427,787.869,447.3,788.28,447.177Z" transform="translate(-677.624 -434.847)" fill="#e0e0e0"/>
          </g>
          <g id="Grupo_57433" data-name="Grupo 57433" transform="translate(33.355 28.947)" style="mix-blend-mode: multiply;isolation: isolate">
            <path id="Trazado_105504" data-name="Trazado 105504" d="M826.868,459.287c-.174.085-.352.165-.535.254.937-.425,1.449-.665,1.449-.665,3.807-.327,4.7-1.1,4.34-1.933C830.385,457.742,828.586,458.441,826.868,459.287Z" transform="translate(-660.493 -406.452)" fill="#e0e0e0"/>
            <path id="Trazado_105505" data-name="Trazado 105505" d="M906.252,493.738a105.77,105.77,0,0,1-11.552,3.821c-3.25.777-6.81,1.353-10.027.112a.34.34,0,0,1-.229-.407c2.182-10.756,14.609-12.765,21.387-19.667-6.833-1.714-13.917,1.746-17.459,7.735a.337.337,0,0,1-.622-.169,112.613,112.613,0,0,1,3.581-21.755,37.214,37.214,0,0,1,3.186-8.921,131.694,131.694,0,0,0-30.537-14.47s-.724-5.263-2.664-5.169-10.5,6.022-10.5,6.022c-32.6,9.294-52.662,19.982-52.662,19.982a377.15,377.15,0,0,0-44.392,15.217,80.524,80.524,0,0,1,36.572,9.474c.281.146.167.656-.169.619-6.307-.736-12.9,1.421-18.554,4.063a48.062,48.062,0,0,0-14.381,9.712c10.48-2.059,22.9-8.807,31.853.393A25.5,25.5,0,0,1,793.3,530.3c5.043-3.348,7.694-9.591,9.614-15.1a.339.339,0,0,1,.647,0c1.689,5.576-1.143,11.227-2.69,16.552,8.57-3.853,17.071-7.539,26.36-9.324,5.7-1.095,12.5-3.1,18.492-1.993,12.027-6.4,19.714-11.488,19.714-11.488,13.853-3.99,30.846-10.878,42.375-15.818C907.291,493.332,906.772,493.547,906.252,493.738Z" transform="translate(-753.762 -434.847)" fill="#e0e0e0"/>
          </g>
          <path id="Trazado_105506" data-name="Trazado 105506" d="M814.722,468.535s42.039-13.037,61.454,3.1c0,0,23.78,16.406,30.949,22.379,0,0-43.074,32.571-64.281,44.521s-36.577-8.99-43.743-24.525S794.713,480.185,814.722,468.535Z" transform="translate(-666.748 -368.999)" fill="#4fba8c"/>
          <g id="Grupo_57435" data-name="Grupo 57435" transform="translate(57.117)">
            <path id="Trazado_105507" data-name="Trazado 105507" d="M797.083,470.113s12.626,13.421,20.3,6.874c5.037-4.294-7.845-14.783-7.845-14.783Z" transform="translate(-721.847 -370.741)" fill="#efcfb1"/>
            <path id="Trazado_105508" data-name="Trazado 105508" d="M814.712,428.9s13.464,6.369,19.3,14.858,5.375,7.07,10.249,9.6,17.009,13.967,13.965,34.98-32.6,38.615-58.826,30.025-24.294-32-23.675-47.923C776.684,445.62,814.712,428.9,814.712,428.9Z" transform="translate(-749.675 -413.545)" fill="#efcfb1"/>
            <path id="Trazado_105509" data-name="Trazado 105509" d="M814.712,428.9s13.464,6.369,19.3,14.858,5.375,7.07,10.249,9.6,17.009,13.967,13.965,34.98-32.6,38.615-58.826,30.025-24.294-32-23.675-47.923C776.684,445.62,814.712,428.9,814.712,428.9Z" transform="translate(-749.675 -413.545)" fill="url(#radial-gradient)" style="mix-blend-mode: multiply;isolation: isolate"/>
            <path id="Trazado_105510" data-name="Trazado 105510" d="M786.7,510.394c-.514-3.579,1.143-6.876,4.888-7.628,4.525-.9,7.923,1.474,11.974,2.808-1.357-1.638-2.655-3.316-3.869-5.057-9.088-13.01-16.947-32.247-6.958-46.945,4.294-6.316,11.252-11.748,18.812-13.346a43.352,43.352,0,0,1,13.519-.786,20.977,20.977,0,0,1,7.473,2.4c-6.353-7.516-17.822-12.943-17.822-12.943s-38.028,16.721-38.988,41.536c-.5,12.8-1.842,30.443,11.289,41.335A8.484,8.484,0,0,1,786.7,510.394Z" transform="translate(-749.675 -413.545)" fill="#efcfb1" style="mix-blend-mode: multiply;isolation: isolate"/>
            <path id="Trazado_105511" data-name="Trazado 105511" d="M802.317,475.8c-1.241-7.754-1.442-15.658.745-23.142a30.053,30.053,0,0,0-3.128,9.833C799.31,467.01,799.6,472.02,802.317,475.8Z" transform="translate(-718.539 -383.011)" fill="#efcfb1" opacity="0.6" style="mix-blend-mode: multiply;isolation: isolate"/>
            <path id="Trazado_105512" data-name="Trazado 105512" d="M812.155,451.463c-1.682-1.4-3.78-1.138-5.658-1.677,3.208,2.651,6.552,5.142,9.657,7.9C815.156,455.424,814.061,453.04,812.155,451.463Z" transform="translate(-709.749 -386.701)" fill="#efcfb1" opacity="0.6" style="mix-blend-mode: multiply;isolation: isolate"/>
            <path id="Trazado_105513" data-name="Trazado 105513" d="M811.068,444.538a.285.285,0,0,1-.057-.059c-.073,2.237-1.7,3.924-2.9,5.722a39.515,39.515,0,0,0-4.449,7.735C809.592,456.65,811.774,449.97,811.068,444.538Z" transform="translate(-713.396 -393.522)" fill="#efcfb1" opacity="0.6" style="mix-blend-mode: multiply;isolation: isolate"/>
            <path id="Trazado_105514" data-name="Trazado 105514" d="M788.3,455.8c3.787-3.629,8.54-9.861,5.526-14.376C792.583,446.289,791.13,451.533,788.3,455.8Z" transform="translate(-733.132 -397.454)" fill="#efcfb1" style="mix-blend-mode: multiply;isolation: isolate"/>
            <path id="Trazado_105515" data-name="Trazado 105515" d="M792.149,440.645a26.5,26.5,0,0,1,.576,4.794c.814-.848,1.821-2.148,1.456-3.165A3.13,3.13,0,0,0,792.149,440.645Z" transform="translate(-728.189 -398.449)" fill="#efcfb1" opacity="0.4" style="mix-blend-mode: multiply;isolation: isolate"/>
            <path id="Trazado_105516" data-name="Trazado 105516" d="M801.067,444.424c3.62-1.031,7.281-1.915,10.93-2.825-1.3-1.259-4.212-.24-5.722.018-.254.043-.567-.224-.375-.487.363-.5.763-.96,1.143-1.433a16.473,16.473,0,0,0-3.828,2.758A25.7,25.7,0,0,0,801.067,444.424Z" transform="translate(-716.727 -399.666)" fill="#efcfb1" opacity="0.4" style="mix-blend-mode: multiply;isolation: isolate"/>
            <path id="Trazado_105517" data-name="Trazado 105517" d="M788.733,458.606a35.5,35.5,0,0,1,5.4-5.53c.281-.208.6.183.453.452a12.626,12.626,0,0,0-1.2,7.368,63.988,63.988,0,0,1,8.709-14.813c-2.916.788-5.6,2.843-7.811,4.771A17.7,17.7,0,0,0,788.733,458.606Z" transform="translate(-732.579 -391.46)" fill="#efcfb1" opacity="0.4" style="mix-blend-mode: multiply;isolation: isolate"/>
            <path id="Trazado_105518" data-name="Trazado 105518" d="M797.927,438.793a13.754,13.754,0,0,0-1.536-.679,11.468,11.468,0,0,0,1.812,2.219c.4.37,1.005.96,1.6.955.407,0,.925-.29.626-.738A6.346,6.346,0,0,0,797.927,438.793Z" transform="translate(-722.737 -401.702)" fill="#efcfb1" opacity="0.4" style="mix-blend-mode: multiply;isolation: isolate"/>
            <path id="Trazado_105519" data-name="Trazado 105519" d="M802.844,437.814a30.757,30.757,0,0,0-5.007.066,5.8,5.8,0,0,0,5.921,1.794,8.519,8.519,0,0,0,3.807-1.878A28.321,28.321,0,0,0,802.844,437.814Z" transform="translate(-720.878 -402.246)" fill="#efcfb1" style="mix-blend-mode: multiply;isolation: isolate"/>
            <path id="Trazado_105520" data-name="Trazado 105520" d="M844.878,456.7a48.5,48.5,0,0,1-16.355,17.7,64.9,64.9,0,0,1-25.631,9.07,58.806,58.806,0,0,1-17.733-.174c.567.206,1.143.411,1.737.608,25.462,8.341,54.063-8,58.494-28.19C845.226,456.039,845.061,456.375,844.878,456.7Z" transform="translate(-737.172 -379.088)" fill="#efcfb1" opacity="0.4" style="mix-blend-mode: multiply;isolation: isolate"/>
            <path id="Trazado_105521" data-name="Trazado 105521" d="M850.63,439.977a17.551,17.551,0,0,0-3.33-2.776,16.337,16.337,0,0,0,5.8-1.4.523.523,0,0,0,.281-.665c-2.594-4.689-8.606-6.092-13.725-5.19a9.487,9.487,0,0,0,.427-3.592c-.08-1.5-.651-3.835-2.356-4.161-.276-.057-.4.178-.361.393a.551.551,0,0,0-.142.215,12.585,12.585,0,0,1-5.375,6.312c-15.992-2.093-33.65,3.592-45.8,14.04-9.847,8.462-17.639,23.737-12.644,36.538-1.888-1.536-2.847-4.639-4.692-6.12a.582.582,0,0,0-.88.245c-.772,2.29.4,4.826,1.508,6.794a12.326,12.326,0,0,0,2.251,2.927c-2.982.014-6.906,1.371-7.427,4.04a.286.286,0,0,0,.048.192.225.225,0,0,0,.286.3,7.577,7.577,0,0,1,4.177-.217c.144.025.29.062.434.1-1.755,3.471-1.671,7.877-1.255,11.6a73.052,73.052,0,0,0,1.38,7.347c.388,1.785.736,3.9,2.281,5.057a.633.633,0,0,0,.964-.27,20.188,20.188,0,0,0,.722-3.592,16.364,16.364,0,0,0,2.182,6.837c.446.729,2.473,4.746,3.812,3.032.567-.724.455-2.2.233-3.581.311.834.665,1.652,1.056,2.468.772,1.611,1.595,3.188,2.29,4.842a19.277,19.277,0,0,1,1.01,5.206.191.191,0,0,0,.053.112.23.23,0,0,0,.286.311c1.92-.969,2.262-3.453,2.5-5.368a1.483,1.483,0,0,0,.023-.247,20.969,20.969,0,0,0,3.016,4.95c1.264,1.625,3.277,4.12,5.571,3.883a.619.619,0,0,0,.535-.539,26.613,26.613,0,0,0-.594-5.5c3.272,4.618,8.583,7.838,13.917,9.458.928.286,4.678,1.232,4.49-.9a8.658,8.658,0,0,0-1.424-3.357c-.059-.1-.117-.2-.169-.3a14.44,14.44,0,0,0,13.629-.494,30.431,30.431,0,0,1-11.166-8.044c-4.148,5.7-13.716,1.218-15.078-6.026-.843-4.5,1.682-5.958,3.732-6.426.642.469,1.268.9,1.851,1.273,3.469,2.253,9.7,4.941,13.94,4.365a.645.645,0,0,0,.43-.238,29.418,29.418,0,0,1-9.36-8.453,42.293,42.293,0,0,1-8.512-20.121,18.653,18.653,0,0,1-1.259-3.869,22.634,22.634,0,0,1,.379-10.119A49.905,49.905,0,0,1,811.9,459.262a58.336,58.336,0,0,1,12.155-7.338c5.082-2.228,10.059-2,15.416-2.4a25.588,25.588,0,0,0,5.325,2.932c2.267,1,4.673,2.482,7.208,1.728a.57.57,0,0,0,.35-.606,19.27,19.27,0,0,0-1.2-4.929,9.325,9.325,0,0,0,3.286,1.451c.334.066.548-.258.539-.539A14.8,14.8,0,0,0,850.63,439.977Z" transform="translate(-764.16 -422.18)" fill="#737373"/>
            <path id="Trazado_105522" data-name="Trazado 105522" d="M850.63,439.872a17.551,17.551,0,0,0-3.33-2.776,16.337,16.337,0,0,0,5.8-1.4.523.523,0,0,0,.281-.665c-2.594-4.689-8.606-6.092-13.725-5.19a9.487,9.487,0,0,0,.427-3.592c-.075-1.33-.535-3.325-1.833-3.983a12.591,12.591,0,0,1-.96,5.066,17.756,17.756,0,0,1-3.108,5.4c5.062-1.732,10.864-2.546,15.185,1.257a.332.332,0,0,1-.233.567,42.14,42.14,0,0,0-9.765,1.648c2.918.768,5.677,1.4,7.066,4.5a.338.338,0,0,1-.455.459,35.074,35.074,0,0,0-8.08-3.058,23.362,23.362,0,0,0-8.72.027,58.5,58.5,0,0,0-16.264,5.185.33.33,0,0,1-.45-.45,19.659,19.659,0,0,0,2.754-8.837c-2.987,5.873-7.079,11.444-12.605,15.1a.333.333,0,0,1-.487-.375c.9-2.637,1.545-5.859.286-8.471-1.593,6.57-5.793,11.584-10.037,16.716-2.363,2.861-5.142,5.9-5.679,9.712-.482,3.437.631,6.766,1.78,9.957a.335.335,0,0,1-.4.411,10.492,10.492,0,0,1-6.067-5.887c.112,1.017.3,2.034.4,2.984.126,1.22.558,3.014-.039,4.166-.571,1.106-2.745-.274-3.348-.635a9.092,9.092,0,0,1-3.91-4.927,28.627,28.627,0,0,1-1.545-11.463c-2.048,6.017-2.454,12.4-.16,18.27-1.888-1.536-2.847-4.639-4.692-6.12a.582.582,0,0,0-.88.245c-.772,2.29.4,4.826,1.508,6.794a12.326,12.326,0,0,0,2.251,2.927c-2.982.014-6.906,1.371-7.427,4.04a.286.286,0,0,0,.048.192.225.225,0,0,0,.286.3,7.577,7.577,0,0,1,4.177-.217c.144.025.29.062.434.1a15.913,15.913,0,0,0-1.485,6.693c.967-3.462,2.825-6.472,6.412-8.1a.337.337,0,0,1,.455.459c-2,4.042-4.008,9.175-3.24,13.844.35-6,4.536-12.292,10.512-13.506.258-.052.553.229.37.487a14.768,14.768,0,0,0-2.276,6.6,9.438,9.438,0,0,1,6.106-4.6c3.236-.843,8.124-1.476,10.738,1.09a.334.334,0,0,1-.231.567c-2.116-.178-4.241,1.25-5.491,2.946,2.955-.162,5.768.553,7.717,2.969a.336.336,0,0,1-.32.557,9.263,9.263,0,0,0-5.281.3,3.548,3.548,0,0,1,2.543,2.543c.34,1.495-.361,3.186-.679,4.627a27.963,27.963,0,0,0,1.661,17.208c.107.267-.263.53-.487.375-5.914-4.12-8.611-10.923-10.336-17.676-1.408,5.183.432,11.056,2.815,15.663a32.636,32.636,0,0,0,6.949,9.395.532.532,0,0,0,.206-.384,26.613,26.613,0,0,0-.594-5.5c3.272,4.618,8.583,7.838,13.917,9.458.928.286,4.678,1.232,4.49-.9a8.658,8.658,0,0,0-1.424-3.357c-.059-.1-.117-.2-.169-.3a14.44,14.44,0,0,0,13.629-.494,30.431,30.431,0,0,1-11.166-8.044c-4.148,5.7-13.716,1.218-15.078-6.026-.843-4.5,1.682-5.958,3.732-6.426.642.469,1.268.9,1.851,1.273,3.469,2.253,9.7,4.941,13.94,4.365a.645.645,0,0,0,.43-.238,29.418,29.418,0,0,1-9.36-8.453,42.293,42.293,0,0,1-8.512-20.121,18.653,18.653,0,0,1-1.259-3.869,22.634,22.634,0,0,1,.379-10.119A49.905,49.905,0,0,1,811.9,459.157a58.336,58.336,0,0,1,12.155-7.338c5.082-2.228,10.059-2,15.416-2.4a25.588,25.588,0,0,0,5.325,2.932c2.267,1,4.673,2.482,7.208,1.728a.57.57,0,0,0,.35-.606,19.27,19.27,0,0,0-1.2-4.929A9.325,9.325,0,0,0,854.446,450c.334.066.548-.258.539-.539A14.8,14.8,0,0,0,850.63,439.872Z" transform="translate(-764.16 -422.075)" fill="#737373" opacity="0.4" style="mix-blend-mode: multiply;isolation: isolate"/>
            <path id="Trazado_105523" data-name="Trazado 105523" d="M792.514,463.851c-1.321,4.833-6.051,6.659-10.471,4.659-.089-.041-.174.094-.089.151a7.679,7.679,0,0,0,6.856,1.021c2.349-.74,4.365-3.336,3.8-5.823C792.6,463.824,792.527,463.8,792.514,463.851Z" transform="translate(-741.337 -368.662)" fill="#b48055"/>
            <path id="Trazado_105524" data-name="Trazado 105524" d="M788.149,462.917c-1.568-1.289-3.933-1.856-5.53-.286a3.653,3.653,0,0,0-.969,2.571,4.266,4.266,0,0,0,1.554,3.234c.034.03.121,0,.089-.059a5.012,5.012,0,0,1-.229-4.968,2.549,2.549,0,0,1,2.452-1.223,9.774,9.774,0,0,0,.263,1.111,5.049,5.049,0,0,1,.119,1.974.122.122,0,0,0,.233.062,5.415,5.415,0,0,0,.126-3.039,6.383,6.383,0,0,1,1.8.745A.075.075,0,0,0,788.149,462.917Z" transform="translate(-741.684 -371.416)" fill="#b48055"/>
            <g id="Grupo_57434" data-name="Grupo 57434" transform="translate(53.213 34.379)">
              <path id="Trazado_105525" data-name="Trazado 105525" d="M791.722,451.348c2-2.758,4.232-5.788,3.675-9.328a8.488,8.488,0,0,0-1.049.969c-.023.023-.059.062-.1.1.347.745-3.313,6.369-3.732,7.093a33.972,33.972,0,0,0-3.071,6.056A38.669,38.669,0,0,0,791.722,451.348Z" transform="translate(-787.446 -431.061)" fill="#737373"/>
              <path id="Trazado_105526" data-name="Trazado 105526" d="M807.591,438.569a.608.608,0,0,0-.071-.361c-.567-1.063-2.178-.9-3.245-.964a22.007,22.007,0,0,0-5.062.51,1.741,1.741,0,0,0-.862.606A10.382,10.382,0,0,0,807.591,438.569Z" transform="translate(-773.43 -437.224)" fill="#737373"/>
              <path id="Trazado_105527" data-name="Trazado 105527" d="M793.874,451.634c.978-.843,2.018-1.789,3.112-2.665a24.682,24.682,0,0,0-4.415,7.811c2.726-3.218,5.651-6.408,7.034-10.391a26.58,26.58,0,0,0-4.749,2.964c-.5.448-.983.893-1.465,1.316-.306.274-.61.56-.914.845a18.029,18.029,0,0,0-3.165,4.58A36.247,36.247,0,0,1,793.874,451.634Z" transform="translate(-785.047 -425.446)" fill="#b48055" opacity="0.6"/>
              <path id="Trazado_105528" data-name="Trazado 105528" d="M809.48,440.675a13.819,13.819,0,0,0-5.27.88c.267-.226.526-.446.763-.674.343-.324.825-.688,1.2-1.079a40.383,40.383,0,0,0-4.445,2.681,2.663,2.663,0,0,0-.251.491,16.8,16.8,0,0,0,8.261-2.07C809.731,440.778,809.654,440.693,809.48,440.675Z" transform="translate(-769.413 -433.912)" fill="#b48055" opacity="0.6"/>
              <path id="Trazado_105529" data-name="Trazado 105529" d="M811.625,456.17a19.039,19.039,0,0,0,2.214-3.423c.4-.923.75-1.869,1.1-2.811.329-.889.74-1.7,1.035-2.553a2.956,2.956,0,0,0-.407-2.3c-1.485-1.577-3.727-1.184-5.676-.987a32.141,32.141,0,0,0-8.963,2.5c-.155.057-.334.455-.052.379,3.855-1.031,8.368-2.34,12.381-1.54,3.167.633.053,7.324-1.545,10.432C811.686,455.969,811.65,456.067,811.625,456.17Z" transform="translate(-770.374 -428.643)" fill="#b48055" opacity="0.6"/>
              <path id="Trazado_105530" data-name="Trazado 105530" d="M806.737,457.835a19.711,19.711,0,0,0-2.089,1.266,19.228,19.228,0,0,0-1.885,2.219c-.923,2.16-.686,4.538-.436,6.86a3.258,3.258,0,0,0,.379-.295c1.1-1.236,1.78-3.325,2.415-4.481.29-.512.6-1.026.91-1.531a10.309,10.309,0,0,1,.706-1.355,15.5,15.5,0,0,1,3.837-4.166A17.232,17.232,0,0,0,806.737,457.835Z" transform="translate(-768.611 -412.642)" fill="#fff"/>
              <path id="Trazado_105531" data-name="Trazado 105531" d="M801.235,460.234a49.533,49.533,0,0,1,1.1-5c.151-.82.322-1.636.491-2.45-.183.352-.37.706-.553,1.063-.05.142-.107.286-.162.432A33.391,33.391,0,0,0,800.583,461a32.465,32.465,0,0,0,.683,13.666c.05.178.341-.117.327-.24A49.739,49.739,0,0,1,801.235,460.234Z" transform="translate(-771.1 -417.232)" fill="#b48055" opacity="0.3" style="mix-blend-mode: multiply;isolation: isolate"/>
              <path id="Trazado_105532" data-name="Trazado 105532" d="M813.852,456.013a27.552,27.552,0,0,0-3.592-4.116c-.375-.379-.937-.946-1.579-1.49-.567-.249-1.147-.473-1.723-.679a22.831,22.831,0,0,1,2.918,2.646,58.467,58.467,0,0,1,4.257,4.943.115.115,0,0,0,.126.034C814.134,456.9,814,456.457,813.852,456.013Z" transform="translate(-762.369 -421.154)" fill="#b48055" opacity="0.3" style="mix-blend-mode: multiply;isolation: isolate"/>
            </g>
          </g>
          <path id="Trazado_105533" data-name="Trazado 105533" d="M1012.237,462.926a27.529,27.529,0,0,0-12.761-.407c-12.381,4.767-18.992,2.182-18.992,2.182-107.368-9.641-134.781,38.357-136.87,41.335a43.2,43.2,0,0,0-2.991,4.785c-5.672,4.481-81.075,29.662-81.075,29.662,15.29,10.564,159.811,101.916,187.94,112.345,6.579,3.389,70.064,46.317,71.858,46.714,6.3,1.405,211.962-122.076,221.96-128.266S1018.905,464.832,1012.237,462.926Z" transform="translate(-712.971 -371.057)" fill="#fff"/>
          <path id="Trazado_105534" data-name="Trazado 105534" d="M990.175,462.924a27.275,27.275,0,0,0-9.806-.846c1.355.407,2.708.832,4.042,1.291,9.486,3.227,18.1,8.229,26.547,13.551,8.49,5.35,16.828,11.081,24.143,17.973,7.1,6.7,13.464,14.269,20.983,20.526,6.417,5.343,13.885,10,17.9,17.587.119.226-.091.61-.377.484a63.568,63.568,0,0,1-11.277-6.476c-3.7-2.493-7.45-4.863-11.328-7.059-8.007-4.536-16.282-8.544-24.429-12.8-18.686-9.756-37.16-19.861-56.321-28.677-9.573-4.406-19.278-8.654-29.168-12.306-2.713-1-5.457-1.922-8.224-2.74-86.248-.562-109.391,39.87-111.305,42.6a43.2,43.2,0,0,0-2.991,4.785c-2.795,2.208-22.543,9.452-41.847,16.223.142-.009.286-.03.427-.043a64.288,64.288,0,0,1,23.759,2.393c9.6,2.74,18.7,6.974,27.5,11.634,9.292,4.911,18.3,10.315,27.265,15.788,4.369,2.665,8.686,5.439,13.195,7.873,4.262,2.285,8.6,4.422,12.921,6.593,8.346,4.191,16.684,8.524,24,14.385.229.178.036.576-.238.571-17.155-.555-32.742-9.223-49.71-10.967,7.409,5.021,16,7.845,24.038,11.661,4.566,2.169,8.8,4.861,13.126,7.468q7,4.189,14.024,8.323c18.455,10.784,37.285,21.211,56.952,29.646,9.193,3.951,18.709,7.726,28.51,9.877,8.382,1.844,17.278,2.911,24.879,7.169a.328.328,0,0,1,.071.519c-3.949,4.052-9.609,6.042-15.009,7.274a115.3,115.3,0,0,1-18.885,2.374c-14.166.848-28.248,1.424-42.361-.544q-3.942-.555-7.845-1.321c18.789,12.082,62.459,41.5,63.945,41.826,6.3,1.405,211.962-122.076,221.96-128.266S996.843,464.83,990.175,462.924Zm-7.5,112.144c-1.913.811-4.234.482-6.225.178a79.952,79.952,0,0,1-9.01-2.022c-7.262-1.972-14.685-3.151-21.915-5.27-9.9-2.893-19.5-6.673-29.07-10.521-18.259-7.361-36.39-16.1-52.592-27.338-3.579-2.482-7.068-5.091-10.5-7.77a47.911,47.911,0,0,1-8.391-7.959,15.9,15.9,0,0,1-3.688-8.8c-.165-3.624,1.232-6.972,3.108-10.007a39.641,39.641,0,0,1,4.4-5.807c4.059-5.379,9.842-9.369,15.887-12.573,7.354-3.906,15.309-8.1,23.807-8.4,9.337-.329,18.188,3.773,25.734,8.967,7.7,5.293,14.427,11.819,21.166,18.254a215.464,215.464,0,0,1,19.831,21.124c11.038,13.8,18.544,29.776,25.832,45.773a32.908,32.908,0,0,1,2.907,8.131C984.19,572.466,984.284,574.381,982.675,575.069ZM1114.2,592.676c-.793,5.647-2.009,11.814-5.217,16.652a.331.331,0,0,1-.6-.08,22.785,22.785,0,0,1-.1-5.338c.094-2.514.229-5.039.073-7.539-.112-1.831-.215-4.712-1.807-5.971-2.4-1.9-6.223,1.714-7.9,3.128-3.067,2.589-6.209,5.08-9.239,7.717-3.558,3.1-7.071,6.271-10.761,9.212a246.735,246.735,0,0,1-22.055,15.162.336.336,0,0,1-.4-.528c9.243-8.837,17.516-19.04,23.309-30.492-2.267.624-4.335,1.8-6.593,2.473a.331.331,0,0,1-.37-.487,29.107,29.107,0,0,1,7.164-9.118.312.312,0,0,1-.028-.478,34.139,34.139,0,0,1,15.064-8.259c4.811-1.266,11.376-2.114,15.74.969C1114.8,582.777,1114.861,587.882,1114.2,592.676Zm23.522-28.373c-4.413.309-8.48,1.968-12.532,3.62-1.835.75-3.727,1.382-5.526,2.21a37.357,37.357,0,0,1-3.839,1.636c-1.083.363-5.334,1.394-5.605-.619-.178-1.312,1.017-2.237,2.244-2.857,6.3-6.3,17.71-9.57,25.428-4.616A.339.339,0,0,1,1137.717,564.3Z" transform="translate(-690.909 -371.055)" fill="#e0e0e0" opacity="0.5" style="mix-blend-mode: multiply;isolation: isolate"/>
          <path id="Trazado_105535" data-name="Trazado 105535" d="M902.865,535.072c-8.935-2.923-17.966-5.67-26.762-9.006-8.714-3.3-17.219-7.022-25.588-11.12-8.611-4.2-16.792-9.212-25.215-13.768-8.195-4.436-16.49-8.869-24.118-14.246-.082-.05-.224.123-.149.183,7.53,5.489,15.743,10.032,23.883,14.545,8.222,4.561,16.268,9.445,24.692,13.627a273.54,273.54,0,0,0,25.6,11.131c9.02,3.391,18.3,6.12,27.507,8.926C902.829,535.376,903,535.116,902.865,535.072Z" transform="translate(-659.68 -338.972)" fill="#e0e0e0" style="mix-blend-mode: multiply;isolation: isolate"/>
          <path id="Trazado_105536" data-name="Trazado 105536" d="M889.775,512.473a255.669,255.669,0,0,0-26.266-26.106c-4.664-4.013-9.4-8.039-14.385-11.655a61.693,61.693,0,0,0-7.591-4.7c-2.857-1.49-5.544-3.35-8.382-4.89-.066-.041-.187.112-.121.151,5.165,2.978,10.4,6.074,15.242,9.552,5,3.579,9.66,7.7,14.315,11.707a295.181,295.181,0,0,1,26.792,26.431C889.549,513.159,889.958,512.677,889.775,512.473Z" transform="translate(-618.558 -366.995)" fill="#e0e0e0" style="mix-blend-mode: multiply;isolation: isolate"/>
          <path id="Trazado_105537" data-name="Trazado 105537" d="M940.051,519.765c-1.4-4.883-5.58-7.287-10.452-7.507a21.727,21.727,0,0,0-7.45,1.026,39.4,39.4,0,0,0-4.518,1.849c-.75.347-1.494.7-2.244,1.049-.384.178-.763.347-1.143.516-.341.153-1.086.818-1.1.215,0-.094-.151.009-.151.075,0,.112-.009.224-.009.336,0,.043.023.071.071.057,2.66-1.031,5.219-2.3,7.891-3.3a22.6,22.6,0,0,1,7.5-1.291c5.485-.1,9.877,2.786,11.22,8.181,1.115,4.468.281,9.187-.43,13.65-1.035,6.565-3.659,12.836-6.421,18.839-.167.366.235.384.375.094a72.727,72.727,0,0,0,6.673-19.157C940.693,529.6,941.408,524.537,940.051,519.765Z" transform="translate(-515.773 -306.437)" fill="#e0e0e0" style="mix-blend-mode: multiply;isolation: isolate"/>
          <path id="Trazado_105538" data-name="Trazado 105538" d="M974.048,581.668c-20.361-4.038-39.82-11.371-58.638-20.021a317.053,317.053,0,0,1-53.881-31.678c-9.221-6.7-18.41-13.416-27.779-19.913-.08-.059-.219.114-.144.178q12.642,9.056,25.137,18.286c8.325,6.168,16.773,12.041,25.647,17.393a333.763,333.763,0,0,0,55.341,26.659,205.345,205.345,0,0,0,34.036,9.6C974,582.21,974.308,581.719,974.048,581.668Z" transform="translate(-617.818 -309.256)" fill="#e0e0e0" style="mix-blend-mode: multiply;isolation: isolate"/>
          <path id="Trazado_105539" data-name="Trazado 105539" d="M836.889,442.889a34.842,34.842,0,0,0-10.345-8.764c-4.481-2.518-8.985-2.564-13.956-1.689a59.808,59.808,0,0,0-24.237,10.471,47.119,47.119,0,0,0-9.381,9.033c-1.929,2.457-5.034,6.732-3.432,10a31.056,31.056,0,0,0,8.074,9.735c1.714,1.451,4.111,3.245,6.49,2.388,1.46-.526,3.259-5.208,4-6.467a48.428,48.428,0,0,1,3.54-5.183,35.893,35.893,0,0,1,8.912-8,59.192,59.192,0,0,1,10.181-5.153c1.865-.747,3.771-1.4,5.695-2a40.632,40.632,0,0,1,12.118-1.929C836.207,445.327,838.493,444.943,836.889,442.889Z" transform="translate(-692.991 -409.66)" fill="#efcfb1" opacity="0.6" style="mix-blend-mode: multiply;isolation: isolate"/>
          <path id="Trazado_105540" data-name="Trazado 105540" d="M836.889,441.2a34.849,34.849,0,0,0-10.345-8.766c-4.481-2.521-8.985-2.566-13.956-1.687a59.684,59.684,0,0,0-24.237,10.471,47.1,47.1,0,0,0-9.381,9.029c-1.929,2.459-5.034,6.725-3.432,10a31.031,31.031,0,0,0,8.074,9.735c1.714,1.453,4.111,3.245,6.49,2.388,1.46-.523,3.259-5.21,4-6.467a47.48,47.48,0,0,1,3.54-5.178,35.7,35.7,0,0,1,8.912-7.994,58.592,58.592,0,0,1,10.181-5.164c1.865-.745,3.771-1.4,5.695-2a40.777,40.777,0,0,1,12.118-1.929C836.207,443.64,838.493,443.251,836.889,441.2Z" transform="translate(-692.991 -411.83)" fill="#ebf7e7"/>
          <path id="Trazado_105541" data-name="Trazado 105541" d="M779.681,447.916c2.509-2.006,5.075-3.953,7.772-5.708,5.155-3.346,10.72-6.744,16.634-8.533,5.558-1.691,11.73-2.29,17.381-.763A43.309,43.309,0,0,1,829,435.45a36.98,36.98,0,0,0-4.527-3.012c-4.481-2.521-8.985-2.566-13.956-1.687a59.684,59.684,0,0,0-24.237,10.471,47.1,47.1,0,0,0-9.381,9.029c-.064.075-.126.169-.192.249C777.657,449.6,778.651,448.747,779.681,447.916Z" transform="translate(-690.919 -411.83)" fill="#ebf7e7" style="mix-blend-mode: screen;isolation: isolate"/>
          <path id="Trazado_105542" data-name="Trazado 105542" d="M836.887,436.351a29.269,29.269,0,0,0-2.034-2.342,1.252,1.252,0,0,1-.1.334,2.768,2.768,0,0,1-2.347,1.371c-2.224.119-4.406-.505-6.639-.4a33.055,33.055,0,0,0-5.891.782,42.505,42.505,0,0,0-20.4,11.7,45.986,45.986,0,0,0-7.194,9.484c-1.287,2.253-2.754,5.039-5.507,5.642-2.946.642-6.182-2.459-7.909-4.458a18.508,18.508,0,0,1-3.665-6.152,4.887,4.887,0,0,0,.336,3.09,31.031,31.031,0,0,0,8.074,9.735c1.714,1.453,4.111,3.245,6.49,2.388,1.46-.523,3.259-5.21,4-6.467a47.48,47.48,0,0,1,3.54-5.178,35.7,35.7,0,0,1,8.912-7.994,58.592,58.592,0,0,1,10.181-5.164c1.865-.745,3.771-1.4,5.695-2a40.777,40.777,0,0,1,12.118-1.929C836.206,438.787,838.491,438.4,836.887,436.351Z" transform="translate(-692.99 -406.978)" fill="#a6d8d9" opacity="0.3" style="mix-blend-mode: multiply;isolation: isolate"/>
          <path id="Trazado_105543" data-name="Trazado 105543" d="M879,536.305c-7.132-3.864-14.532-7.484-21.294-11.979-4.8-3.19-9.552-6.472-14.479-9.479a72.632,72.632,0,0,0-7.2-3.99c-.549-.256-1.355-.679-2.194-.987,12.607,14.1,28.439,25.025,44.507,34.818,15.809,9.623,31.97,19.161,49.015,26.433,17,7.265,35.574,12.706,54.217,11.337-25.722-7.4-50.14-18.261-73.773-30.77C898.188,546.589,888.579,541.488,879,536.305Z" transform="translate(-617.489 -309.481)" fill="#e0e0e0" opacity="0.5" style="mix-blend-mode: multiply;isolation: isolate"/>
          <path id="Trazado_105544" data-name="Trazado 105544" d="M856.151,466.839c.727.393,1.46.784,2.2,1.181a331.681,331.681,0,0,1,35.706,22.192,266.737,266.737,0,0,1,40.629,35.809c10.944,11.97,20.59,25.45,26.266,40.722a85.119,85.119,0,0,0-4.479-14.139c-1.853-4.637-3.67-9.31-5.638-13.9a73.994,73.994,0,0,0-6.383-12.171,86.544,86.544,0,0,0-9.5-11.392,208.886,208.886,0,0,0-25.295-22.048c-13.7-7.226-27.413-14.4-41.495-20.88Q862.186,469.466,856.151,466.839Z" transform="translate(-588.816 -364.785)" fill="#e0e0e0" opacity="0.5" style="mix-blend-mode: multiply;isolation: isolate"/>
          <path id="Trazado_105545" data-name="Trazado 105545" d="M950.614,510.652A167.414,167.414,0,0,0,1000.626,520c-41.307-19.045-88.6-39.785-118.049-52.42,7.118,5.016,14.02,10.359,20.887,15.505C918.149,494.094,933.235,504.368,950.614,510.652Z" transform="translate(-554.853 -363.828)" fill="#e0e0e0" opacity="0.5" style="mix-blend-mode: multiply;isolation: isolate"/>
          <path id="Trazado_105546" data-name="Trazado 105546" d="M1032.3,491.561c7.118,4.794,14.282,9.529,21.376,14.376,6.979,4.771,14.532,10.165,19.2,17.377,2.566,3.972,3.732,8.734,1.878,13.256s-5.6,7.98-9.5,10.77a86.555,86.555,0,0,1-15.8,8.613c-4.9,2.146-9.913,4.026-14.925,5.882-3.5,1.291-6.936,2.749-10.453,3.974a41.913,41.913,0,0,1-7.3,1.789,9.076,9.076,0,0,1-3.2.183c-1.844-.411-1.933-2.477-2.116-4.036a58.117,58.117,0,0,0-2.079-10.631,21.82,21.82,0,0,0-4.705-8.526,17.932,17.932,0,0,0-1.415-1.346c-.222-.139-.446-.265-.692-.388a13.969,13.969,0,0,1,4.461,8.743,21.828,21.828,0,0,1-1.586,8.707,38.774,38.774,0,0,1-2.516,7.313,64.165,64.165,0,0,1-5.683,10.238,99.5,99.5,0,0,1-15.974,17.907,211.988,211.988,0,0,1-18.67,14.751c-7.372,5.267-14.719,10.578-22.235,15.649a215.463,215.463,0,0,1-25.839,15.322c-8.1,3.949-16.371,7.269-25.489,7.582a78.221,78.221,0,0,1-27.08-4.294c13.6,9,25.071,16.558,25.821,16.725,6.3,1.405,211.962-122.076,221.96-128.266C1113.8,530.7,1077.308,512.418,1032.3,491.561Z" transform="translate(-581.381 -333.012)" fill="#e0e0e0" opacity="0.5" style="mix-blend-mode: multiply;isolation: isolate"/>
          <path id="Trazado_105547" data-name="Trazado 105547" d="M927.3,525.542c0,.094-.014.187-.014.286a19.569,19.569,0,0,0,.416-2.852,12.236,12.236,0,0,0-2.075-7.592c.951,2.633.816,5.69.414,8.631a52.5,52.5,0,0,1-2.918,12.217c.487-.93.96-1.862,1.4-2.813.576-1.25,1.147-2.543,1.643-3.869a21.175,21.175,0,0,0,.473-4.008A.333.333,0,0,1,927.3,525.542Z" transform="translate(-502.75 -302.394)" fill="#e0e0e0" opacity="0.5" style="mix-blend-mode: multiply;isolation: isolate"/>
          <path id="Trazado_105548" data-name="Trazado 105548" d="M817.062,502.655c5.564,2.63,11.2,5.107,16.849,7.534a98.934,98.934,0,0,1-11.819-8.4c-6.86-5.681-13.528-13.06-16.095-21.677-.964,1.339-1.527,2.249-1.762,2.585a43.2,43.2,0,0,0-2.991,4.785c-1.165.923-5.272,2.708-11.056,4.979C799.605,493.939,808.648,498.683,817.062,502.655Z" transform="translate(-673.592 -347.721)" fill="#e0e0e0" opacity="0.5" style="mix-blend-mode: multiply;isolation: isolate"/>
        </g>
      </g>
    </g>
  </g>
</svg>
