<svg xmlns="http://www.w3.org/2000/svg" xmlns:xlink="http://www.w3.org/1999/xlink" width="721.866" height="316.375" viewBox="0 0 721.866 316.375">
  <defs>
    <linearGradient id="linear-gradient" y1="0.5" x2="1" y2="0.5" gradientUnits="objectBoundingBox">
      <stop offset="0" stop-color="#09b291"/>
      <stop offset="0.858" stop-color="#d0574e"/>
      <stop offset="1" stop-color="#e94b46"/>
    </linearGradient>
  </defs>
  <g id="Grupo_57428" data-name="Grupo 57428" transform="translate(-322.067 -5340)">
    <g id="Grupo_57417" data-name="Grupo 57417" transform="translate(-363.667 4976.628)">
      <circle id="Elipse_4716" data-name="Elipse 4716" cx="52.786" cy="52.786" r="52.786" transform="translate(1015.182 363.371)" fill="#09b291" opacity="0.52"/>
      <path id="Trazado_105329" data-name="Trazado 105329" d="M1073.738,363.687c-2.935,5.082-14.174,24.549-16.12,27.919a9.775,9.775,0,0,0-.28,9.265,5.677,5.677,0,0,1-.2,5.363l-1.9,3.3a2.887,2.887,0,1,0,5,2.887l2.041-3.535a5.288,5.288,0,0,1,4.322-2.613,9.774,9.774,0,0,0,7.967-4.879l11.129-19.275h0l7.212-12.491A52.433,52.433,0,0,0,1073.738,363.687Z" fill="#daecf7"/>
      <path id="Trazado_105330" data-name="Trazado 105330" d="M1063.343,407.583a5.879,5.879,0,0,0,0-5.175,10.152,10.152,0,0,1,.291-9.623c2.042-3.538,12.823-22.211,16.2-28.067a52.419,52.419,0,0,0-6.1-1.031c-2.935,5.082-14.174,24.549-16.12,27.919a9.775,9.775,0,0,0-.28,9.265,5.677,5.677,0,0,1-.2,5.363l-1.9,3.3a2.887,2.887,0,1,0,5,2.887l2.041-3.535A5.165,5.165,0,0,1,1063.343,407.583Z" fill="#b2d9ed"/>
      <path id="Trazado_105331" data-name="Trazado 105331" d="M1087.824,374.782c-2.489,0-2.489,1.1-4.977,1.1s-2.488-1.1-4.976-1.1-2.488,1.1-4.976,1.1c-2.687,0-2.6-1.328-5.578-1.076l-9.7,16.8a9.772,9.772,0,0,0-.279,9.265,5.68,5.68,0,0,1-.2,5.363l-1.9,3.3a2.887,2.887,0,1,0,5,2.887l2.041-3.535a5.287,5.287,0,0,1,4.322-2.612,9.772,9.772,0,0,0,7.967-4.88l11.129-19.274h0l4.052-7.019A5.217,5.217,0,0,0,1087.824,374.782Z" fill="#14c0eb"/>
      <path id="Trazado_105332" data-name="Trazado 105332" d="M1060.235,412.417l2.04-3.535a5.284,5.284,0,0,1,1.068-1.3,5.879,5.879,0,0,0,0-5.175,10.154,10.154,0,0,1,.291-9.624l9.768-16.919c-3.16.221-2.905-1.327-6.086-1.059l-9.7,16.8a9.775,9.775,0,0,0-.28,9.265,5.83,5.83,0,0,1-.434,5.765l-1.67,2.894a2.887,2.887,0,1,0,5,2.887Z" fill="#00addc"/>
      <path id="SVGCleanerId_0" data-name="SVGCleanerId 0" d="M1065.463,432.267h-16.246a.781.781,0,0,1-.781-.781V416.27a.781.781,0,0,1,.781-.781h16.246a.781.781,0,0,1,.781.781v15.216A.781.781,0,0,1,1065.463,432.267Z" fill="#daecf7"/>
      <g id="Grupo_57411" data-name="Grupo 57411">
        <path id="SVGCleanerId_0-2" data-name="SVGCleanerId 0" d="M1065.463,432.267h-16.246a.781.781,0,0,1-.781-.781V416.27a.781.781,0,0,1,.781-.781h16.246a.781.781,0,0,1,.781.781v15.216A.781.781,0,0,1,1065.463,432.267Z" fill="#daecf7"/>
      </g>
      <path id="Trazado_105333" data-name="Trazado 105333" d="M1056.954,431.486V416.27a.781.781,0,0,1,.781-.781h-8.518a.781.781,0,0,0-.781.781v15.216a.781.781,0,0,0,.781.781h8.518A.781.781,0,0,1,1056.954,431.486Z" fill="#b2d9ed"/>
      <path id="Trazado_105334" data-name="Trazado 105334" d="M1068.521,429.872a1.507,1.507,0,0,0-1.331-.8h-19.683a1.538,1.538,0,0,0-1.356.812l-4.386,8.207a5.083,5.083,0,0,0-.6,2.4v23.372a5.083,5.083,0,0,0,5.084,5.083h22.184a5.082,5.082,0,0,0,5.083-5.083V440.489a5.083,5.083,0,0,0-.6-2.4Z" fill="#7aa0ea"/>
      <path id="Trazado_105335" data-name="Trazado 105335" d="M1053.536,463.861V440.489a7.72,7.72,0,0,1,.371-2.4l2.709-8.207c.165-.5.487-.812.837-.812h-9.946a1.538,1.538,0,0,0-1.356.812l-4.386,8.207a5.083,5.083,0,0,0-.6,2.4v23.372a5.083,5.083,0,0,0,5.084,5.083h10.428C1054.942,468.944,1053.536,466.668,1053.536,463.861Z" fill="#6d85d2"/>
      <rect id="Rect치ngulo_5846" data-name="Rect치ngulo 5846" width="32.352" height="21.339" transform="translate(1041.165 441.609)" fill="#daecf7"/>
      <g id="Grupo_57412" data-name="Grupo 57412">
        <rect id="Rect치ngulo_5847" data-name="Rect치ngulo 5847" width="12.372" height="21.339" transform="translate(1041.165 441.609)" fill="#b2d9ed"/>
        <path id="Trazado_105336" data-name="Trazado 105336" d="M1066.244,426.481h-17.808a1.528,1.528,0,1,1,0-3.056h17.808a1.528,1.528,0,0,1,0,3.056Z" fill="#b2d9ed"/>
        <path id="Trazado_105337" data-name="Trazado 105337" d="M1066.244,421.138h-17.808a1.529,1.529,0,0,1,0-3.057h17.808a1.529,1.529,0,0,1,0,3.057Z" fill="#b2d9ed"/>
      </g>
      <g id="Grupo_57413" data-name="Grupo 57413">
        <path id="Trazado_105338" data-name="Trazado 105338" d="M1055.465,424.953a1.529,1.529,0,0,1,1.528-1.529h-8.557a1.528,1.528,0,0,0,0,3.057h8.557A1.528,1.528,0,0,1,1055.465,424.953Z" fill="#7bbedb"/>
        <path id="Trazado_105339" data-name="Trazado 105339" d="M1055.465,419.61a1.528,1.528,0,0,1,1.528-1.529h-8.557a1.529,1.529,0,0,0,0,3.057h8.557A1.528,1.528,0,0,1,1055.465,419.61Z" fill="#7bbedb"/>
      </g>
      <path id="Trazado_105340" data-name="Trazado 105340" d="M1057.341,457.785a3.926,3.926,0,0,1-3.4-5.884l3.057-5.293a.4.4,0,0,1,.687,0l3.057,5.293A3.928,3.928,0,0,1,1057.341,457.785Z" fill="#14c0eb"/>
      <g id="Grupo_57414" data-name="Grupo 57414">
        <path id="Trazado_105341" data-name="Trazado 105341" d="M1056.6,453.264l.836-6.6a.417.417,0,0,1,.087-.211.4.4,0,0,0-.53.152l-3.056,5.293a3.927,3.927,0,0,0,4.818,5.621A4.245,4.245,0,0,1,1056.6,453.264Z" fill="#00addc"/>
        <path id="Trazado_105342" data-name="Trazado 105342" d="M1071.669,398.386a1.376,1.376,0,0,0-1.376,2.383l3.356,1.937a9.9,9.9,0,0,0,.916-1.316l.577-1Z" fill="#00addc"/>
        <path id="Trazado_105343" data-name="Trazado 105343" d="M1079.624,384.85a1.375,1.375,0,0,0,.5,1.879l2.176,1.256,1.376-2.383-2.176-1.256A1.377,1.377,0,0,0,1079.624,384.85Z" fill="#00addc"/>
        <path id="Trazado_105344" data-name="Trazado 105344" d="M1075.465,389.06a1.375,1.375,0,0,0,.5,1.879l3.473,2.005,1.375-2.383-3.472-2.005A1.376,1.376,0,0,0,1075.465,389.06Z" fill="#00addc"/>
        <path id="Trazado_105345" data-name="Trazado 105345" d="M1081.191,379.143a1.375,1.375,0,0,0,.5,1.879l3.473,2.005.526-.911h0l.849-1.471-3.472-2.005A1.375,1.375,0,0,0,1081.191,379.143Z" fill="#00addc"/>
        <path id="Trazado_105346" data-name="Trazado 105346" d="M1073.949,394.68a1.376,1.376,0,0,0,.5,1.879l2.176,1.256,1.375-2.383-2.176-1.256A1.375,1.375,0,0,0,1073.949,394.68Z" fill="#00addc"/>
      </g>
      <g id="Grupo_57415" data-name="Grupo 57415">
        <path id="Trazado_105347" data-name="Trazado 105347" d="M1069.431,383.395a1.376,1.376,0,1,1,1.376-1.377A1.38,1.38,0,0,1,1069.431,383.395Z" fill="#73e5ff"/>
        <path id="Trazado_105348" data-name="Trazado 105348" d="M1070.519,390.873a2.477,2.477,0,1,1,2.72-2.466A2.474,2.474,0,0,1,1070.519,390.873Z" fill="#73e5ff"/>
      </g>
      <path id="Trazado_105349" data-name="Trazado 105349" d="M1089.389,449.676l-1.9-24.318a4.282,4.282,0,0,0-8.538,0l-1.9,24.318Z" fill="#daecf7"/>
      <path id="Trazado_105350" data-name="Trazado 105350" d="M1085.129,421.859a4.28,4.28,0,0,0-6.177,3.5l-1.9,24.318h5.828l1-24.318A5.254,5.254,0,0,1,1085.129,421.859Z" fill="#b2d9ed"/>
      <path id="Trazado_105351" data-name="Trazado 105351" d="M1091.607,455.333h-16.771a3.032,3.032,0,1,1,0-6.064h16.771a3.032,3.032,0,0,1,0,6.064Z" fill="#ef525a"/>
      <path id="Trazado_105352" data-name="Trazado 105352" d="M1079.986,452.3a3.032,3.032,0,0,1,3.032-3.032h-8.182a3.032,3.032,0,1,0,0,6.064h8.182A3.032,3.032,0,0,1,1079.986,452.3Z" fill="#dd4050"/>
      <path id="Trazado_105353" data-name="Trazado 105353" d="M1096.691,455.129h-26.94a2.706,2.706,0,0,0-2.7,2.706v8.4a2.7,2.7,0,0,0,2.383,2.684A52.522,52.522,0,0,0,1099.4,458.57v-.735A2.707,2.707,0,0,0,1096.691,455.129Z" fill="#fb6467"/>
      <path id="Trazado_105354" data-name="Trazado 105354" d="M1076.771,466.239v-8.4a2.707,2.707,0,0,1,2.706-2.706h-9.726a2.707,2.707,0,0,0-2.706,2.706v8.4a2.7,2.7,0,0,0,2.384,2.684,52.821,52.821,0,0,0,8.072-.84A2.69,2.69,0,0,1,1076.771,466.239Z" fill="#ef525a"/>
      <path id="Trazado_105355" data-name="Trazado 105355" d="M1073.516,462.432a1.529,1.529,0,0,0-1.529,1.529v4.832c1.028-.077,2.047-.187,3.057-.322v-4.51A1.528,1.528,0,0,0,1073.516,462.432Z" fill="#dd4050"/>
      <g id="Grupo_57416" data-name="Grupo 57416">
        <path id="Trazado_105356" data-name="Trazado 105356" d="M1079.986,462.432a1.528,1.528,0,0,0-1.528,1.529V467.9c1.03-.207,2.049-.447,3.057-.713v-3.226A1.53,1.53,0,0,0,1079.986,462.432Z" fill="#ef525a"/>
        <path id="Trazado_105357" data-name="Trazado 105357" d="M1086.456,462.432a1.528,1.528,0,0,0-1.528,1.529v2.2c1.034-.35,2.053-.735,3.057-1.147v-1.052A1.529,1.529,0,0,0,1086.456,462.432Z" fill="#ef525a"/>
      </g>
    </g>
    <g id="Grupo_57418" data-name="Grupo 57418" transform="translate(-363.667 4976.628)">
      <path id="Trazado_105358" data-name="Trazado 105358" d="M1044.149,491.808V477.589h4.375a6.637,6.637,0,0,1,3.355.845,5.883,5.883,0,0,1,2.309,2.4,7.4,7.4,0,0,1,.831,3.54v.654a7.429,7.429,0,0,1-.816,3.526,5.827,5.827,0,0,1-2.3,2.392,6.688,6.688,0,0,1-3.349.86Zm2.93-11.846v9.492h1.416a3.178,3.178,0,0,0,2.627-1.123,5.071,5.071,0,0,0,.928-3.213v-.752a5.149,5.149,0,0,0-.9-3.286,3.17,3.17,0,0,0-2.627-1.118Z" fill="#12263f"/>
      <path id="Trazado_105359" data-name="Trazado 105359" d="M1056.522,486.427a6.275,6.275,0,0,1,.606-2.8,4.437,4.437,0,0,1,1.743-1.9,5.092,5.092,0,0,1,2.642-.674,4.813,4.813,0,0,1,3.491,1.308,5.252,5.252,0,0,1,1.509,3.555l.019.723a5.521,5.521,0,0,1-1.357,3.9,5.261,5.261,0,0,1-7.29.005,5.62,5.62,0,0,1-1.363-3.984Zm2.823.2a3.959,3.959,0,0,0,.566,2.3,2.035,2.035,0,0,0,3.223.009,4.314,4.314,0,0,0,.576-2.518,3.906,3.906,0,0,0-.576-2.289,1.873,1.873,0,0,0-1.621-.812,1.843,1.843,0,0,0-1.6.807A4.4,4.4,0,0,0,1059.345,486.627Z" fill="#12263f"/>
      <path id="Trazado_105360" data-name="Trazado 105360" d="M1073.993,488.888a.911.911,0,0,0-.513-.816,5.813,5.813,0,0,0-1.645-.532q-3.769-.791-3.77-3.2a2.906,2.906,0,0,1,1.167-2.349,4.712,4.712,0,0,1,3.052-.942,5.062,5.062,0,0,1,3.218.947,2.983,2.983,0,0,1,1.206,2.461h-2.822a1.365,1.365,0,0,0-.391-1,1.651,1.651,0,0,0-1.221-.395,1.69,1.69,0,0,0-1.1.322,1.018,1.018,0,0,0-.391.82.87.87,0,0,0,.445.757,4.572,4.572,0,0,0,1.5.5,12.187,12.187,0,0,1,1.777.474,2.92,2.92,0,0,1,2.236,2.842,2.754,2.754,0,0,1-1.24,2.338,5.345,5.345,0,0,1-3.2.894,5.584,5.584,0,0,1-2.358-.474,3.956,3.956,0,0,1-1.617-1.3,3.019,3.019,0,0,1-.586-1.782h2.676a1.479,1.479,0,0,0,.557,1.153,2.215,2.215,0,0,0,1.387.4,2.039,2.039,0,0,0,1.225-.308A.955.955,0,0,0,1073.993,488.888Z" fill="#12263f"/>
      <path id="Trazado_105361" data-name="Trazado 105361" d="M1078.534,478.507a1.391,1.391,0,0,1,.425-1.045,1.832,1.832,0,0,1,2.31,0,1.493,1.493,0,0,1-.005,2.1,1.811,1.811,0,0,1-2.3,0A1.39,1.39,0,0,1,1078.534,478.507Zm3,13.3H1078.7V481.241h2.832Z" fill="#12263f"/>
      <path id="Trazado_105362" data-name="Trazado 105362" d="M1089.579,488.888a.911.911,0,0,0-.513-.816,5.814,5.814,0,0,0-1.645-.532q-3.77-.791-3.77-3.2a2.906,2.906,0,0,1,1.167-2.349,4.712,4.712,0,0,1,3.052-.942,5.062,5.062,0,0,1,3.218.947,2.984,2.984,0,0,1,1.206,2.461h-2.822a1.365,1.365,0,0,0-.391-1,1.651,1.651,0,0,0-1.221-.395,1.69,1.69,0,0,0-1.1.322,1.018,1.018,0,0,0-.391.82.87.87,0,0,0,.445.757,4.563,4.563,0,0,0,1.5.5,12.23,12.23,0,0,1,1.777.474,2.92,2.92,0,0,1,2.236,2.842,2.754,2.754,0,0,1-1.24,2.338,5.348,5.348,0,0,1-3.2.894,5.592,5.592,0,0,1-2.359-.474,3.959,3.959,0,0,1-1.616-1.3,3.019,3.019,0,0,1-.586-1.782h2.676a1.476,1.476,0,0,0,.557,1.153,2.212,2.212,0,0,0,1.386.4,2.042,2.042,0,0,0,1.226-.308A.955.955,0,0,0,1089.579,488.888Z" fill="#12263f"/>
    </g>
    <text id="_0" data-name="0" transform="translate(364.319 5600.069)" font-size="20" font-family="SegoeUI, Segoe UI"><tspan x="0" y="0">0</tspan></text>
    <text id="X" transform="translate(1012.052 5600.069)" font-size="20" font-family="SegoeUI, Segoe UI"><tspan x="0" y="0">X</tspan></text>
    <g id="Grupo_57419" data-name="Grupo 57419" transform="translate(-363.667 4976.628)">
      <path id="Trazado_105363" data-name="Trazado 105363" d="M825.448,515a5.683,5.683,0,0,1-.21,1.655,3.687,3.687,0,0,1-.669,1.2q-.468.574-1.367,1.518a3.357,3.357,0,0,0-1.006,1.909l-.019.362a2.192,2.192,0,0,0,.566,1.626,2.222,2.222,0,0,0,1.631.561,2.269,2.269,0,0,0,1.587-.552,1.849,1.849,0,0,0,.61-1.44h1.807a3.37,3.37,0,0,1-1.118,2.568,4.814,4.814,0,0,1-5.845.015,3.565,3.565,0,0,1-1.045-2.73,5.1,5.1,0,0,1,1.563-3.4l1.064-1.1a3.3,3.3,0,0,0,.645-2.188Zm.078-3.091a1.088,1.088,0,0,1-.268.746,1.009,1.009,0,0,1-.8.3,1.025,1.025,0,0,1-.8-.3,1.078,1.078,0,0,1-.273-.746,1.027,1.027,0,0,1,.273-.726,1.038,1.038,0,0,1,.8-.294,1.022,1.022,0,0,1,.8.294A1.036,1.036,0,0,1,825.526,511.908Z" fill="#12263f"/>
      <path id="Trazado_105364" data-name="Trazado 105364" d="M838.856,515.067h-6.162v5.039h7.159v1.534h-9.034V507.421h8.936v1.533h-7.061v4.58h6.162Z" fill="#12263f"/>
      <path id="Trazado_105365" data-name="Trazado 105365" d="M842.616,521.64v-9.17h-1.67v-1.4h1.67v-1.084a3.6,3.6,0,0,1,.908-2.627,3.434,3.434,0,0,1,2.569-.927,4.722,4.722,0,0,1,1.24.165l-.1,1.456a5.142,5.142,0,0,0-.976-.088,1.768,1.768,0,0,0-1.358.514,2.09,2.09,0,0,0-.478,1.474v1.117h2.256v1.4h-2.256v9.17Z" fill="#12263f"/>
      <path id="Trazado_105366" data-name="Trazado 105366" d="M853.056,521.835a4.619,4.619,0,0,1-3.5-1.411,5.237,5.237,0,0,1-1.348-3.775v-.332a6.345,6.345,0,0,1,.6-2.807,4.7,4.7,0,0,1,1.68-1.934,4.22,4.22,0,0,1,2.339-.7,3.957,3.957,0,0,1,3.2,1.357,5.879,5.879,0,0,1,1.143,3.887v.752h-7.158a3.757,3.757,0,0,0,.913,2.524,2.868,2.868,0,0,0,2.221.962,3.146,3.146,0,0,0,1.621-.39,4.09,4.09,0,0,0,1.163-1.035l1.1.859A4.437,4.437,0,0,1,853.056,521.835Zm-.225-9.473a2.414,2.414,0,0,0-1.836.8,3.872,3.872,0,0,0-.918,2.232h5.293v-.137a3.44,3.44,0,0,0-.742-2.134A2.266,2.266,0,0,0,852.831,512.362Z" fill="#12263f"/>
      <path id="Trazado_105367" data-name="Trazado 105367" d="M863.505,520.36a2.6,2.6,0,0,0,1.689-.586,2.054,2.054,0,0,0,.8-1.464H867.7a3.264,3.264,0,0,1-.625,1.728,4.114,4.114,0,0,1-1.538,1.309,4.44,4.44,0,0,1-2.036.488,4.358,4.358,0,0,1-3.433-1.44,5.741,5.741,0,0,1-1.274-3.941v-.3a6.372,6.372,0,0,1,.566-2.744,4.313,4.313,0,0,1,1.626-1.865,4.628,4.628,0,0,1,2.505-.664,4.233,4.233,0,0,1,2.954,1.064,3.8,3.8,0,0,1,1.255,2.764h-1.709a2.488,2.488,0,0,0-.776-1.685,2.416,2.416,0,0,0-1.724-.659,2.527,2.527,0,0,0-2.134.992,4.658,4.658,0,0,0-.757,2.866v.342a4.562,4.562,0,0,0,.752,2.812A2.544,2.544,0,0,0,863.505,520.36Z" fill="#12263f"/>
      <path id="Trazado_105368" data-name="Trazado 105368" d="M872.187,508.515v2.558h1.972v1.4h-1.972v6.56a1.467,1.467,0,0,0,.263.954,1.111,1.111,0,0,0,.9.318,4.366,4.366,0,0,0,.859-.117v1.456a5.24,5.24,0,0,1-1.387.194,2.252,2.252,0,0,1-1.826-.732,3.151,3.151,0,0,1-.615-2.081V512.47h-1.924v-1.4h1.924v-2.558Z" fill="#12263f"/>
      <path id="Trazado_105369" data-name="Trazado 105369" d="M875.595,516.259a6.254,6.254,0,0,1,.61-2.793,4.557,4.557,0,0,1,1.7-1.914,4.632,4.632,0,0,1,2.486-.674,4.456,4.456,0,0,1,3.491,1.494,5.747,5.747,0,0,1,1.333,3.975v.127a6.279,6.279,0,0,1-.591,2.768,4.484,4.484,0,0,1-1.689,1.909,4.679,4.679,0,0,1-2.525.684,4.445,4.445,0,0,1-3.481-1.494,5.719,5.719,0,0,1-1.333-3.955Zm1.816.215a4.524,4.524,0,0,0,.816,2.822,2.764,2.764,0,0,0,4.37-.015,4.936,4.936,0,0,0,.81-3.022,4.51,4.51,0,0,0-.825-2.818,2.623,2.623,0,0,0-2.192-1.079,2.6,2.6,0,0,0-2.159,1.065A4.912,4.912,0,0,0,877.411,516.474Z" fill="#12263f"/>
      <path id="Trazado_105370" data-name="Trazado 105370" d="M893.632,518.837a1.332,1.332,0,0,0-.552-1.138,5.3,5.3,0,0,0-1.924-.7,9.1,9.1,0,0,1-2.177-.7,3.1,3.1,0,0,1-1.192-.977,2.338,2.338,0,0,1-.386-1.347,2.742,2.742,0,0,1,1.1-2.2,4.3,4.3,0,0,1,2.808-.9,4.417,4.417,0,0,1,2.915.928,2.944,2.944,0,0,1,1.118,2.373h-1.817a1.635,1.635,0,0,0-.629-1.28,2.361,2.361,0,0,0-1.587-.537,2.472,2.472,0,0,0-1.543.43,1.353,1.353,0,0,0-.557,1.123,1.1,1.1,0,0,0,.518.986,6.348,6.348,0,0,0,1.87.635,9.725,9.725,0,0,1,2.192.723,3.181,3.181,0,0,1,1.245,1.011,2.476,2.476,0,0,1,.4,1.44,2.7,2.7,0,0,1-1.132,2.27,4.75,4.75,0,0,1-2.94.855,5.317,5.317,0,0,1-2.246-.449,3.664,3.664,0,0,1-1.528-1.255,3.03,3.03,0,0,1-.552-1.743h1.807a1.872,1.872,0,0,0,.727,1.44,2.823,2.823,0,0,0,1.792.532,2.911,2.911,0,0,0,1.646-.415A1.273,1.273,0,0,0,893.632,518.837Z" fill="#12263f"/>
      <path id="Trazado_105371" data-name="Trazado 105371" d="M909.267,521.64a3.79,3.79,0,0,1-.254-1.114,4.032,4.032,0,0,1-3.008,1.309,3.735,3.735,0,0,1-2.564-.884,2.86,2.86,0,0,1-1-2.241,2.989,2.989,0,0,1,1.255-2.564,5.925,5.925,0,0,1,3.531-.913h1.757v-.83a2.024,2.024,0,0,0-.566-1.508,2.277,2.277,0,0,0-1.67-.562,2.638,2.638,0,0,0-1.621.488,1.439,1.439,0,0,0-.654,1.182h-1.817a2.5,2.5,0,0,1,.562-1.528,3.836,3.836,0,0,1,1.523-1.167,5.122,5.122,0,0,1,2.114-.43,4.182,4.182,0,0,1,2.862.913,3.289,3.289,0,0,1,1.074,2.515v4.863a5.951,5.951,0,0,0,.371,2.314v.157Zm-3-1.377a3.176,3.176,0,0,0,1.611-.44,2.654,2.654,0,0,0,1.1-1.142v-2.168h-1.416q-3.32,0-3.32,1.943a1.65,1.65,0,0,0,.566,1.328A2.176,2.176,0,0,0,906.269,520.263Z" fill="#12263f"/>
      <path id="Trazado_105372" data-name="Trazado 105372" d="M917.86,520.36a2.6,2.6,0,0,0,1.69-.586,2.061,2.061,0,0,0,.8-1.464h1.709a3.29,3.29,0,0,1-.625,1.728,4.116,4.116,0,0,1-1.539,1.309,4.443,4.443,0,0,1-2.036.488,4.356,4.356,0,0,1-3.432-1.44,5.736,5.736,0,0,1-1.275-3.941v-.3a6.373,6.373,0,0,1,.567-2.744,4.314,4.314,0,0,1,1.626-1.865,4.628,4.628,0,0,1,2.505-.664,4.236,4.236,0,0,1,2.954,1.064,3.807,3.807,0,0,1,1.255,2.764h-1.709a2.489,2.489,0,0,0-.777-1.685,2.417,2.417,0,0,0-1.723-.659,2.527,2.527,0,0,0-2.134.992,4.659,4.659,0,0,0-.757,2.866v.342a4.563,4.563,0,0,0,.752,2.812A2.543,2.543,0,0,0,917.86,520.36Z" fill="#12263f"/>
      <path id="Trazado_105373" data-name="Trazado 105373" d="M928.476,521.835a4.621,4.621,0,0,1-3.5-1.411,5.24,5.24,0,0,1-1.347-3.775v-.332a6.345,6.345,0,0,1,.6-2.807,4.694,4.694,0,0,1,1.68-1.934,4.22,4.22,0,0,1,2.339-.7,3.956,3.956,0,0,1,3.2,1.357,5.879,5.879,0,0,1,1.143,3.887v.752h-7.159a3.758,3.758,0,0,0,.914,2.524,2.868,2.868,0,0,0,2.221.962,3.148,3.148,0,0,0,1.621-.39,4.086,4.086,0,0,0,1.162-1.035l1.1.859A4.44,4.44,0,0,1,928.476,521.835Zm-.225-9.473a2.411,2.411,0,0,0-1.836.8,3.866,3.866,0,0,0-.918,2.232h5.293v-.137a3.446,3.446,0,0,0-.742-2.134A2.268,2.268,0,0,0,928.251,512.362Z" fill="#12263f"/>
      <path id="Trazado_105374" data-name="Trazado 105374" d="M943.612,516.474a6.329,6.329,0,0,1-1.1,3.886,3.535,3.535,0,0,1-2.988,1.475,3.876,3.876,0,0,1-3.028-1.221V525.7h-1.806V511.073h1.65l.088,1.172a3.722,3.722,0,0,1,3.066-1.367,3.6,3.6,0,0,1,3.013,1.435,6.4,6.4,0,0,1,1.108,3.995Zm-1.806-.205a4.671,4.671,0,0,0-.762-2.823,2.454,2.454,0,0,0-2.09-1.035,2.656,2.656,0,0,0-2.461,1.455v5.049a2.66,2.66,0,0,0,2.481,1.445,2.44,2.44,0,0,0,2.065-1.03A5.094,5.094,0,0,0,941.806,516.269Z" fill="#12263f"/>
      <path id="Trazado_105375" data-name="Trazado 105375" d="M948.358,508.515v2.558h1.973v1.4h-1.973v6.56a1.467,1.467,0,0,0,.264.954,1.111,1.111,0,0,0,.9.318,4.375,4.375,0,0,0,.859-.117v1.456a5.251,5.251,0,0,1-1.387.194,2.251,2.251,0,0,1-1.826-.732,3.151,3.151,0,0,1-.615-2.081V512.47h-1.924v-1.4h1.924v-2.558Z" fill="#12263f"/>
      <path id="Trazado_105376" data-name="Trazado 105376" d="M958.964,521.64a3.759,3.759,0,0,1-.254-1.114,4.034,4.034,0,0,1-3.008,1.309,3.729,3.729,0,0,1-2.563-.884,2.86,2.86,0,0,1-1-2.241,2.987,2.987,0,0,1,1.255-2.564,5.919,5.919,0,0,1,3.53-.913h1.758v-.83a2.025,2.025,0,0,0-.567-1.508,2.278,2.278,0,0,0-1.67-.562,2.64,2.64,0,0,0-1.621.488,1.439,1.439,0,0,0-.654,1.182h-1.816a2.493,2.493,0,0,1,.561-1.528,3.822,3.822,0,0,1,1.523-1.167,5.12,5.12,0,0,1,2.115-.43,4.179,4.179,0,0,1,2.861.913,3.29,3.29,0,0,1,1.074,2.515v4.863a5.952,5.952,0,0,0,.371,2.314v.157Zm-3-1.377a3.176,3.176,0,0,0,1.611-.44,2.662,2.662,0,0,0,1.1-1.142v-2.168h-1.416q-3.321,0-3.321,1.943a1.644,1.644,0,0,0,.567,1.328A2.172,2.172,0,0,0,955.966,520.263Z" fill="#12263f"/>
      <path id="Trazado_105377" data-name="Trazado 105377" d="M972.265,516.474a6.275,6.275,0,0,1-1.114,3.891,3.556,3.556,0,0,1-2.988,1.47,3.685,3.685,0,0,1-3.1-1.416l-.088,1.221h-1.66v-15h1.807v5.595a3.662,3.662,0,0,1,3.018-1.357,3.578,3.578,0,0,1,3.022,1.455,6.473,6.473,0,0,1,1.1,3.984Zm-1.807-.205a4.878,4.878,0,0,0-.713-2.852,2.359,2.359,0,0,0-2.051-1.006,2.653,2.653,0,0,0-2.568,1.66v4.571a2.728,2.728,0,0,0,2.588,1.66,2.344,2.344,0,0,0,2.021-1.006A5.191,5.191,0,0,0,970.458,516.269Z" fill="#12263f"/>
      <path id="Trazado_105378" data-name="Trazado 105378" d="M976.5,521.64H974.7v-15H976.5Z" fill="#12263f"/>
      <path id="Trazado_105379" data-name="Trazado 105379" d="M983.778,521.835a4.621,4.621,0,0,1-3.5-1.411,5.24,5.24,0,0,1-1.347-3.775v-.332a6.346,6.346,0,0,1,.6-2.807,4.694,4.694,0,0,1,1.68-1.934,4.22,4.22,0,0,1,2.339-.7,3.957,3.957,0,0,1,3.2,1.357,5.879,5.879,0,0,1,1.142,3.887v.752h-7.158a3.757,3.757,0,0,0,.913,2.524,2.87,2.87,0,0,0,2.222.962,3.149,3.149,0,0,0,1.621-.39,4.1,4.1,0,0,0,1.162-1.035l1.1.859A4.44,4.44,0,0,1,983.778,521.835Zm-.224-9.473a2.411,2.411,0,0,0-1.836.8,3.866,3.866,0,0,0-.918,2.232h5.293v-.137a3.446,3.446,0,0,0-.742-2.134A2.268,2.268,0,0,0,983.554,512.362Z" fill="#12263f"/>
      <path id="Trazado_105380" data-name="Trazado 105380" d="M996.142,518.837a1.332,1.332,0,0,0-.552-1.138,5.311,5.311,0,0,0-1.924-.7,9.1,9.1,0,0,1-2.178-.7,3.1,3.1,0,0,1-1.191-.977,2.338,2.338,0,0,1-.386-1.347,2.739,2.739,0,0,1,1.1-2.2,4.294,4.294,0,0,1,2.807-.9,4.415,4.415,0,0,1,2.915.928,2.944,2.944,0,0,1,1.119,2.373h-1.817a1.633,1.633,0,0,0-.63-1.28,2.361,2.361,0,0,0-1.587-.537,2.476,2.476,0,0,0-1.543.43,1.352,1.352,0,0,0-.556,1.123,1.1,1.1,0,0,0,.517.986,6.36,6.36,0,0,0,1.87.635,9.751,9.751,0,0,1,2.193.723,3.211,3.211,0,0,1,1.245,1.011,2.484,2.484,0,0,1,.4,1.44,2.7,2.7,0,0,1-1.133,2.27,4.747,4.747,0,0,1-2.939.855,5.31,5.31,0,0,1-2.246-.449,3.658,3.658,0,0,1-1.528-1.255,3.015,3.015,0,0,1-.552-1.743h1.806a1.872,1.872,0,0,0,.728,1.44,2.821,2.821,0,0,0,1.792.532,2.908,2.908,0,0,0,1.645-.415A1.274,1.274,0,0,0,996.142,518.837Z" fill="#12263f"/>
      <path id="Trazado_105381" data-name="Trazado 105381" d="M1002.421,517.619a5.8,5.8,0,0,1,.264-1.833,4.713,4.713,0,0,1,1-1.491l1.279-1.316a2.953,2.953,0,0,0,.82-1.989,2.262,2.262,0,0,0-.537-1.6,2.023,2.023,0,0,0-1.562-.58,2.35,2.35,0,0,0-1.6.527,1.785,1.785,0,0,0-.6,1.416h-1.807a3.29,3.29,0,0,1,1.128-2.554,4.222,4.222,0,0,1,2.886-.971,3.986,3.986,0,0,1,2.876.989,3.592,3.592,0,0,1,1.03,2.716,4.909,4.909,0,0,1-1.582,3.364l-1.065,1.053a3.279,3.279,0,0,0-.712,2.271Zm-.078,3.1a1.079,1.079,0,0,1,.268-.744,1.011,1.011,0,0,1,.8-.3,1.027,1.027,0,0,1,.8.3,1.06,1.06,0,0,1,.273.744,1.024,1.024,0,0,1-.273.734,1.047,1.047,0,0,1-.8.291,1.031,1.031,0,0,1-.8-.291A1.042,1.042,0,0,1,1002.343,520.722Z" fill="#12263f"/>
    </g>
    <g id="Grupo_57420" data-name="Grupo 57420" transform="translate(-363.667 4976.628)">
      <path id="Trazado_105382" data-name="Trazado 105382" d="M1174.544,515.067h-6.162v5.039h7.158v1.534h-9.033V507.421h8.935v1.533h-7.06v4.58h6.162Z" fill="#12263f"/>
      <path id="Trazado_105383" data-name="Trazado 105383" d="M1178.3,521.64v-9.17h-1.67v-1.4h1.67v-1.084a3.6,3.6,0,0,1,.908-2.627,3.43,3.43,0,0,1,2.568-.927,4.74,4.74,0,0,1,1.241.165l-.1,1.456a5.168,5.168,0,0,0-.977-.088,1.763,1.763,0,0,0-1.357.514,2.086,2.086,0,0,0-.479,1.474v1.117h2.256v1.4h-2.256v9.17Z" fill="#12263f"/>
      <path id="Trazado_105384" data-name="Trazado 105384" d="M1188.743,521.835a4.621,4.621,0,0,1-3.5-1.411,5.241,5.241,0,0,1-1.348-3.775v-.332a6.345,6.345,0,0,1,.6-2.807,4.686,4.686,0,0,1,1.68-1.934,4.215,4.215,0,0,1,2.339-.7,3.958,3.958,0,0,1,3.2,1.357,5.884,5.884,0,0,1,1.142,3.887v.752h-7.158a3.746,3.746,0,0,0,.913,2.524,2.867,2.867,0,0,0,2.222.962,3.151,3.151,0,0,0,1.621-.39,4.1,4.1,0,0,0,1.162-1.035l1.1.859A4.44,4.44,0,0,1,1188.743,521.835Zm-.224-9.473a2.41,2.41,0,0,0-1.836.8,3.865,3.865,0,0,0-.918,2.232h5.293v-.137a3.446,3.446,0,0,0-.743-2.134A2.268,2.268,0,0,0,1188.519,512.362Z" fill="#12263f"/>
      <path id="Trazado_105385" data-name="Trazado 105385" d="M1199.192,520.36a2.6,2.6,0,0,0,1.69-.586,2.064,2.064,0,0,0,.8-1.464h1.709a3.3,3.3,0,0,1-.625,1.728,4.137,4.137,0,0,1-1.538,1.309,4.45,4.45,0,0,1-2.037.488,4.354,4.354,0,0,1-3.432-1.44,5.736,5.736,0,0,1-1.275-3.941v-.3a6.357,6.357,0,0,1,.567-2.744,4.3,4.3,0,0,1,1.626-1.865,4.624,4.624,0,0,1,2.505-.664,4.238,4.238,0,0,1,2.954,1.064,3.81,3.81,0,0,1,1.255,2.764h-1.709a2.5,2.5,0,0,0-.777-1.685,2.417,2.417,0,0,0-1.723-.659,2.526,2.526,0,0,0-2.134.992,4.652,4.652,0,0,0-.757,2.866v.342a4.556,4.556,0,0,0,.752,2.812A2.541,2.541,0,0,0,1199.192,520.36Z" fill="#12263f"/>
      <path id="Trazado_105386" data-name="Trazado 105386" d="M1207.874,508.515v2.558h1.973v1.4h-1.973v6.56a1.468,1.468,0,0,0,.264.954,1.106,1.106,0,0,0,.9.318,4.4,4.4,0,0,0,.86-.117v1.456a5.25,5.25,0,0,1-1.387.194,2.249,2.249,0,0,1-1.826-.732,3.145,3.145,0,0,1-.616-2.081V512.47h-1.923v-1.4h1.923v-2.558Z" fill="#12263f"/>
      <path id="Trazado_105387" data-name="Trazado 105387" d="M1211.282,516.259a6.228,6.228,0,0,1,.611-2.793,4.537,4.537,0,0,1,1.7-1.914,4.624,4.624,0,0,1,2.485-.674,4.454,4.454,0,0,1,3.491,1.494,5.747,5.747,0,0,1,1.333,3.975v.127a6.308,6.308,0,0,1-.59,2.768,4.487,4.487,0,0,1-1.69,1.909,4.675,4.675,0,0,1-2.524.684,4.446,4.446,0,0,1-3.482-1.494,5.724,5.724,0,0,1-1.333-3.955Zm1.817.215a4.518,4.518,0,0,0,.815,2.822,2.764,2.764,0,0,0,4.37-.015,4.943,4.943,0,0,0,.811-3.022,4.523,4.523,0,0,0-.825-2.818,2.627,2.627,0,0,0-2.193-1.079,2.594,2.594,0,0,0-2.158,1.065A4.906,4.906,0,0,0,1213.1,516.474Z" fill="#12263f"/>
      <path id="Trazado_105388" data-name="Trazado 105388" d="M1229.319,518.837a1.333,1.333,0,0,0-.551-1.138,5.324,5.324,0,0,0-1.924-.7,9.1,9.1,0,0,1-2.178-.7,3.091,3.091,0,0,1-1.191-.977,2.331,2.331,0,0,1-.386-1.347,2.739,2.739,0,0,1,1.1-2.2,4.292,4.292,0,0,1,2.807-.9,4.421,4.421,0,0,1,2.915.928,2.946,2.946,0,0,1,1.118,2.373h-1.816a1.634,1.634,0,0,0-.63-1.28,2.361,2.361,0,0,0-1.587-.537,2.472,2.472,0,0,0-1.543.43,1.352,1.352,0,0,0-.556,1.123,1.092,1.092,0,0,0,.517.986,6.35,6.35,0,0,0,1.87.635,9.766,9.766,0,0,1,2.193.723,3.209,3.209,0,0,1,1.245,1.011,2.491,2.491,0,0,1,.405,1.44,2.7,2.7,0,0,1-1.133,2.27,4.751,4.751,0,0,1-2.939.855,5.307,5.307,0,0,1-2.246-.449,3.648,3.648,0,0,1-1.529-1.255,3.021,3.021,0,0,1-.551-1.743h1.806a1.866,1.866,0,0,0,.728,1.44,2.821,2.821,0,0,0,1.792.532,2.912,2.912,0,0,0,1.645-.415A1.275,1.275,0,0,0,1229.319,518.837Z" fill="#12263f"/>
      <path id="Trazado_105389" data-name="Trazado 105389" d="M1244.954,521.64a3.792,3.792,0,0,1-.254-1.114,4.034,4.034,0,0,1-3.008,1.309,3.729,3.729,0,0,1-2.563-.884,2.856,2.856,0,0,1-1-2.241,2.986,2.986,0,0,1,1.255-2.564,5.919,5.919,0,0,1,3.53-.913h1.758v-.83a2.029,2.029,0,0,0-.567-1.508,2.275,2.275,0,0,0-1.669-.562,2.639,2.639,0,0,0-1.622.488,1.439,1.439,0,0,0-.654,1.182h-1.816a2.488,2.488,0,0,1,.561-1.528,3.818,3.818,0,0,1,1.524-1.167,5.108,5.108,0,0,1,2.114-.43,4.18,4.18,0,0,1,2.861.913,3.3,3.3,0,0,1,1.075,2.515v4.863a5.932,5.932,0,0,0,.371,2.314v.157Zm-3-1.377a3.173,3.173,0,0,0,1.611-.44,2.668,2.668,0,0,0,1.1-1.142v-2.168h-1.416q-3.321,0-3.32,1.943a1.644,1.644,0,0,0,.566,1.328A2.17,2.17,0,0,0,1241.956,520.263Z" fill="#12263f"/>
      <path id="Trazado_105390" data-name="Trazado 105390" d="M1248.87,516.269a6.194,6.194,0,0,1,1.152-3.912,3.922,3.922,0,0,1,5.957-.21V506.64h1.807v15h-1.66l-.088-1.133a3.677,3.677,0,0,1-3.017,1.328,3.609,3.609,0,0,1-2.994-1.5,6.264,6.264,0,0,1-1.157-3.926Zm1.807.205a4.683,4.683,0,0,0,.742,2.812,2.4,2.4,0,0,0,2.051,1.016,2.636,2.636,0,0,0,2.509-1.543v-4.854a2.657,2.657,0,0,0-2.49-1.494,2.409,2.409,0,0,0-2.07,1.026A5.157,5.157,0,0,0,1250.677,516.474Z" fill="#12263f"/>
      <path id="Trazado_105391" data-name="Trazado 105391" d="M1264.075,519.188l2.617-8.115h1.846l-3.789,10.567h-1.377l-3.828-10.567h1.846Z" fill="#12263f"/>
      <path id="Trazado_105392" data-name="Trazado 105392" d="M1274.661,521.835a4.619,4.619,0,0,1-3.5-1.411,5.24,5.24,0,0,1-1.348-3.775v-.332a6.345,6.345,0,0,1,.6-2.807,4.687,4.687,0,0,1,1.68-1.934,4.218,4.218,0,0,1,2.339-.7,3.956,3.956,0,0,1,3.2,1.357,5.884,5.884,0,0,1,1.142,3.887v.752h-7.158a3.752,3.752,0,0,0,.913,2.524,2.868,2.868,0,0,0,2.222.962,3.151,3.151,0,0,0,1.621-.39,4.1,4.1,0,0,0,1.162-1.035l1.1.859A4.44,4.44,0,0,1,1274.661,521.835Zm-.224-9.473a2.411,2.411,0,0,0-1.836.8,3.86,3.86,0,0,0-.918,2.232h5.293v-.137a3.441,3.441,0,0,0-.743-2.134A2.266,2.266,0,0,0,1274.437,512.362Z" fill="#12263f"/>
      <path id="Trazado_105393" data-name="Trazado 105393" d="M1285.979,512.694a5.361,5.361,0,0,0-.888-.068,2.381,2.381,0,0,0-2.412,1.514v7.5h-1.807V511.073h1.758l.029,1.221a2.815,2.815,0,0,1,2.52-1.416,1.844,1.844,0,0,1,.8.137Z" fill="#12263f"/>
      <path id="Trazado_105394" data-name="Trazado 105394" d="M1293.792,518.837a1.332,1.332,0,0,0-.552-1.138,5.311,5.311,0,0,0-1.924-.7,9.085,9.085,0,0,1-2.177-.7,3.1,3.1,0,0,1-1.192-.977,2.337,2.337,0,0,1-.385-1.347,2.741,2.741,0,0,1,1.1-2.2,4.3,4.3,0,0,1,2.808-.9,4.417,4.417,0,0,1,2.915.928,2.946,2.946,0,0,1,1.118,2.373h-1.816a1.634,1.634,0,0,0-.63-1.28,2.363,2.363,0,0,0-1.587-.537,2.474,2.474,0,0,0-1.543.43,1.353,1.353,0,0,0-.557,1.123,1.1,1.1,0,0,0,.518.986,6.338,6.338,0,0,0,1.87.635,9.741,9.741,0,0,1,2.192.723,3.2,3.2,0,0,1,1.245,1.011,2.477,2.477,0,0,1,.406,1.44,2.7,2.7,0,0,1-1.133,2.27,4.751,4.751,0,0,1-2.94.855,5.317,5.317,0,0,1-2.246-.449,3.658,3.658,0,0,1-1.528-1.255,3.023,3.023,0,0,1-.552-1.743h1.807a1.868,1.868,0,0,0,.727,1.44,2.823,2.823,0,0,0,1.792.532,2.911,2.911,0,0,0,1.646-.415A1.275,1.275,0,0,0,1293.792,518.837Z" fill="#12263f"/>
      <path id="Trazado_105395" data-name="Trazado 105395" d="M1297.474,516.259a6.241,6.241,0,0,1,.61-2.793,4.557,4.557,0,0,1,1.7-1.914,4.63,4.63,0,0,1,2.486-.674,4.457,4.457,0,0,1,3.491,1.494,5.752,5.752,0,0,1,1.333,3.975v.127a6.293,6.293,0,0,1-.591,2.768,4.483,4.483,0,0,1-1.689,1.909,4.681,4.681,0,0,1-2.525.684,4.442,4.442,0,0,1-3.481-1.494,5.718,5.718,0,0,1-1.333-3.955Zm1.816.215a4.524,4.524,0,0,0,.815,2.822,2.765,2.765,0,0,0,4.371-.015,4.942,4.942,0,0,0,.81-3.022,4.517,4.517,0,0,0-.825-2.818,2.624,2.624,0,0,0-2.192-1.079,2.6,2.6,0,0,0-2.159,1.065A4.906,4.906,0,0,0,1299.29,516.474Z" fill="#12263f"/>
      <path id="Trazado_105396" data-name="Trazado 105396" d="M1315.511,518.837a1.332,1.332,0,0,0-.552-1.138,5.311,5.311,0,0,0-1.924-.7,9.109,9.109,0,0,1-2.178-.7,3.1,3.1,0,0,1-1.191-.977,2.338,2.338,0,0,1-.386-1.347,2.739,2.739,0,0,1,1.1-2.2,4.294,4.294,0,0,1,2.808-.9,4.419,4.419,0,0,1,2.915.928,2.946,2.946,0,0,1,1.118,2.373H1315.4a1.633,1.633,0,0,0-.63-1.28,2.358,2.358,0,0,0-1.586-.537,2.472,2.472,0,0,0-1.543.43,1.35,1.35,0,0,0-.557,1.123,1.1,1.1,0,0,0,.517.986,6.358,6.358,0,0,0,1.871.635,9.758,9.758,0,0,1,2.192.723,3.2,3.2,0,0,1,1.245,1.011,2.477,2.477,0,0,1,.405,1.44,2.7,2.7,0,0,1-1.132,2.27,4.752,4.752,0,0,1-2.94.855,5.31,5.31,0,0,1-2.246-.449,3.658,3.658,0,0,1-1.528-1.255,3.023,3.023,0,0,1-.552-1.743h1.807a1.869,1.869,0,0,0,.727,1.44,2.821,2.821,0,0,0,1.792.532,2.911,2.911,0,0,0,1.646-.415A1.275,1.275,0,0,0,1315.511,518.837Z" fill="#12263f"/>
    </g>
    <g id="Grupo_57421" data-name="Grupo 57421" transform="translate(-363.667 4976.628)">
      <path id="Trazado_105397" data-name="Trazado 105397" d="M694.477,657.218h-1.508l-5.727-8.766v8.766h-1.508V645.843h1.508l5.742,8.8v-8.8h1.493Z" fill="#12263f"/>
      <path id="Trazado_105398" data-name="Trazado 105398" d="M696.922,646.522a.862.862,0,0,1,.215-.593.806.806,0,0,1,.636-.242.819.819,0,0,1,.641.242.847.847,0,0,1,.219.593.819.819,0,0,1-.219.586.83.83,0,0,1-.641.235.817.817,0,0,1-.636-.235A.834.834,0,0,1,696.922,646.522Zm1.562,10.7h-1.445v-8.453h1.445Z" fill="#12263f"/>
      <path id="Trazado_105399" data-name="Trazado 105399" d="M702.164,648.765l.047,1.062a3.083,3.083,0,0,1,2.531-1.219q2.68,0,2.7,3.024v5.586H706v-5.594a1.95,1.95,0,0,0-.418-1.352,1.672,1.672,0,0,0-1.277-.437,2.089,2.089,0,0,0-1.235.375,2.558,2.558,0,0,0-.828.984v6.024H700.8v-8.453Z" fill="#12263f"/>
      <path id="Trazado_105400" data-name="Trazado 105400" d="M709.281,652.921a4.974,4.974,0,0,1,.914-3.145,3.151,3.151,0,0,1,4.836-.074l.071-.937h1.32v8.25a3.438,3.438,0,0,1-.973,2.586,3.592,3.592,0,0,1-2.613.945,4.342,4.342,0,0,1-1.789-.391,3.083,3.083,0,0,1-1.336-1.07l.75-.867a2.828,2.828,0,0,0,2.273,1.148,2.215,2.215,0,0,0,1.645-.594,2.268,2.268,0,0,0,.59-1.671v-.727a2.969,2.969,0,0,1-2.367,1,2.889,2.889,0,0,1-2.4-1.2A5.231,5.231,0,0,1,709.281,652.921Zm1.453.164a3.794,3.794,0,0,0,.586,2.246,1.905,1.905,0,0,0,1.641.816,2.117,2.117,0,0,0,2.008-1.242v-3.859a2.141,2.141,0,0,0-1.992-1.211,1.922,1.922,0,0,0-1.649.82A4.135,4.135,0,0,0,710.734,653.085Z" fill="#12263f"/>
      <path id="Trazado_105401" data-name="Trazado 105401" d="M723.82,656.382a3.069,3.069,0,0,1-2.476.992,2.631,2.631,0,0,1-2.059-.785,3.4,3.4,0,0,1-.715-2.324v-5.5h1.446v5.461q0,1.922,1.562,1.921a2.162,2.162,0,0,0,2.2-1.234v-6.148h1.446v8.453h-1.375Zm-1.172-11.164h1.75l-2.093,2.3-1.164,0Z" fill="#12263f"/>
      <path id="Trazado_105402" data-name="Trazado 105402" d="M728.789,648.765l.047,1.062a3.083,3.083,0,0,1,2.531-1.219q2.68,0,2.7,3.024v5.586h-1.445v-5.594a1.95,1.95,0,0,0-.418-1.352,1.672,1.672,0,0,0-1.277-.437,2.089,2.089,0,0,0-1.235.375,2.558,2.558,0,0,0-.828.984v6.024h-1.445v-8.453Z" fill="#12263f"/>
      <path id="Trazado_105403" data-name="Trazado 105403" d="M743.719,657.374a3.692,3.692,0,0,1-2.8-1.129,4.189,4.189,0,0,1-1.078-3.019v-.266a5.076,5.076,0,0,1,.48-2.246,3.755,3.755,0,0,1,1.344-1.547,3.382,3.382,0,0,1,1.871-.559,3.169,3.169,0,0,1,2.563,1.086,4.706,4.706,0,0,1,.914,3.11v.6h-5.727a3.013,3.013,0,0,0,.731,2.02,2.294,2.294,0,0,0,1.777.769,2.519,2.519,0,0,0,1.3-.312,3.257,3.257,0,0,0,.929-.828l.883.687A3.547,3.547,0,0,1,743.719,657.374Zm-.18-7.578a1.929,1.929,0,0,0-1.469.637,3.1,3.1,0,0,0-.734,1.785h4.234v-.11a2.751,2.751,0,0,0-.593-1.707A1.816,1.816,0,0,0,743.539,649.8Z" fill="#12263f"/>
      <path id="Trazado_105404" data-name="Trazado 105404" d="M749.4,657.218v-7.336h-1.336v-1.117H749.4V647.9a2.879,2.879,0,0,1,.727-2.1,2.745,2.745,0,0,1,2.055-.742,3.811,3.811,0,0,1,.992.132l-.078,1.165a4.134,4.134,0,0,0-.782-.071,1.41,1.41,0,0,0-1.085.411,1.672,1.672,0,0,0-.383,1.18v.894h1.8v1.117h-1.8v7.336Z" fill="#12263f"/>
      <path id="Trazado_105405" data-name="Trazado 105405" d="M757.75,657.374a3.692,3.692,0,0,1-2.8-1.129,4.189,4.189,0,0,1-1.078-3.019v-.266a5.075,5.075,0,0,1,.48-2.246,3.755,3.755,0,0,1,1.344-1.547,3.383,3.383,0,0,1,1.871-.559,3.169,3.169,0,0,1,2.563,1.086,4.706,4.706,0,0,1,.914,3.11v.6H755.32a3.013,3.013,0,0,0,.731,2.02,2.3,2.3,0,0,0,1.777.769,2.519,2.519,0,0,0,1.3-.312,3.273,3.273,0,0,0,.93-.828l.882.687A3.547,3.547,0,0,1,757.75,657.374Zm-.18-7.578a1.925,1.925,0,0,0-1.468.637,3.093,3.093,0,0,0-.735,1.785H759.6v-.11a2.752,2.752,0,0,0-.594-1.707A1.816,1.816,0,0,0,757.57,649.8Z" fill="#12263f"/>
      <path id="Trazado_105406" data-name="Trazado 105406" d="M766.109,656.194a2.084,2.084,0,0,0,1.352-.468,1.648,1.648,0,0,0,.641-1.172h1.367a2.626,2.626,0,0,1-.5,1.383,3.283,3.283,0,0,1-1.231,1.046,3.537,3.537,0,0,1-1.629.391,3.485,3.485,0,0,1-2.746-1.152,4.6,4.6,0,0,1-1.019-3.153v-.242a5.087,5.087,0,0,1,.453-2.2,3.455,3.455,0,0,1,1.3-1.492,3.687,3.687,0,0,1,2-.532,3.392,3.392,0,0,1,2.363.852,3.039,3.039,0,0,1,1,2.211H768.1a1.984,1.984,0,0,0-.622-1.348,1.933,1.933,0,0,0-1.378-.527,2.024,2.024,0,0,0-1.707.793,3.721,3.721,0,0,0-.606,2.293v.273a3.65,3.65,0,0,0,.6,2.25A2.03,2.03,0,0,0,766.109,656.194Z" fill="#12263f"/>
      <path id="Trazado_105407" data-name="Trazado 105407" d="M773.055,646.718v2.047h1.578v1.117h-1.578v5.249a1.173,1.173,0,0,0,.211.763.887.887,0,0,0,.718.253,3.519,3.519,0,0,0,.688-.093v1.165a4.234,4.234,0,0,1-1.11.155,1.8,1.8,0,0,1-1.46-.586,2.513,2.513,0,0,1-.493-1.664v-5.242H770.07v-1.117h1.539v-2.047Z" fill="#12263f"/>
      <path id="Trazado_105408" data-name="Trazado 105408" d="M775.781,652.913a4.984,4.984,0,0,1,.489-2.234,3.659,3.659,0,0,1,1.359-1.532,3.706,3.706,0,0,1,1.988-.539,3.564,3.564,0,0,1,2.793,1.2,4.6,4.6,0,0,1,1.067,3.179v.1A5.04,5.04,0,0,1,783,655.3a3.588,3.588,0,0,1-1.352,1.527,3.745,3.745,0,0,1-2.019.547,3.555,3.555,0,0,1-2.785-1.2,4.576,4.576,0,0,1-1.067-3.164Zm1.453.172a3.618,3.618,0,0,0,.653,2.258,2.211,2.211,0,0,0,3.5-.012,3.956,3.956,0,0,0,.648-2.418,3.6,3.6,0,0,0-.66-2.254,2.1,2.1,0,0,0-1.754-.863,2.076,2.076,0,0,0-1.726.851A3.923,3.923,0,0,0,777.234,653.085Z" fill="#12263f"/>
      <path id="Trazado_105409" data-name="Trazado 105409" d="M695.988,672.113a4.984,4.984,0,0,1,.489-2.234,3.649,3.649,0,0,1,1.359-1.531,3.7,3.7,0,0,1,1.988-.539,3.563,3.563,0,0,1,2.793,1.2,4.6,4.6,0,0,1,1.067,3.18v.1a5.036,5.036,0,0,1-.473,2.215,3.588,3.588,0,0,1-1.352,1.527,3.736,3.736,0,0,1-2.019.547,3.555,3.555,0,0,1-2.785-1.195,4.577,4.577,0,0,1-1.067-3.164Zm1.453.172a3.614,3.614,0,0,0,.653,2.258,2.21,2.21,0,0,0,3.5-.012,3.957,3.957,0,0,0,.648-2.418,3.608,3.608,0,0,0-.66-2.254,2.1,2.1,0,0,0-1.754-.863,2.074,2.074,0,0,0-1.726.852A3.919,3.919,0,0,0,697.441,672.285Z" fill="#12263f"/>
      <path id="Trazado_105410" data-name="Trazado 105410" d="M712.652,672.285a5.03,5.03,0,0,1-.89,3.113,2.844,2.844,0,0,1-2.391,1.176,2.948,2.948,0,0,1-2.476-1.133l-.071.977H705.5v-12h1.445V668.9a2.932,2.932,0,0,1,2.414-1.086,2.859,2.859,0,0,1,2.418,1.164,5.177,5.177,0,0,1,.879,3.187Zm-1.445-.164a3.9,3.9,0,0,0-.57-2.281,1.889,1.889,0,0,0-1.641-.805,2.123,2.123,0,0,0-2.055,1.328v3.657a2.183,2.183,0,0,0,2.071,1.328,1.878,1.878,0,0,0,1.617-.8A4.149,4.149,0,0,0,711.207,672.121Z" fill="#12263f"/>
      <path id="Trazado_105411" data-name="Trazado 105411" d="M719.4,674.176a1.061,1.061,0,0,0-.442-.91,4.242,4.242,0,0,0-1.539-.559,7.315,7.315,0,0,1-1.742-.562,2.482,2.482,0,0,1-.953-.782,1.871,1.871,0,0,1-.309-1.078,2.2,2.2,0,0,1,.879-1.758,3.434,3.434,0,0,1,2.246-.718,3.529,3.529,0,0,1,2.332.742,2.356,2.356,0,0,1,.9,1.9h-1.453a1.3,1.3,0,0,0-.5-1.023,1.891,1.891,0,0,0-1.27-.43,1.972,1.972,0,0,0-1.234.344,1.081,1.081,0,0,0-.446.9.876.876,0,0,0,.415.789,5.083,5.083,0,0,0,1.5.508,7.832,7.832,0,0,1,1.754.578,2.55,2.55,0,0,1,1,.809,1.988,1.988,0,0,1,.324,1.152,2.165,2.165,0,0,1-.906,1.817,3.8,3.8,0,0,1-2.352.683,4.271,4.271,0,0,1-1.8-.359,2.927,2.927,0,0,1-1.223-1,2.431,2.431,0,0,1-.441-1.4h1.445a1.5,1.5,0,0,0,.582,1.153,2.26,2.26,0,0,0,1.434.426,2.33,2.33,0,0,0,1.316-.332A1.021,1.021,0,0,0,719.4,674.176Z" fill="#12263f"/>
      <path id="Trazado_105412" data-name="Trazado 105412" d="M726.23,676.574a3.69,3.69,0,0,1-2.8-1.129,4.188,4.188,0,0,1-1.079-3.019v-.266a5.075,5.075,0,0,1,.481-2.246,3.74,3.74,0,0,1,1.344-1.547,3.382,3.382,0,0,1,1.871-.558,3.164,3.164,0,0,1,2.562,1.086,4.7,4.7,0,0,1,.914,3.109v.6H723.8a3.008,3.008,0,0,0,.73,2.02,2.3,2.3,0,0,0,1.778.77,2.515,2.515,0,0,0,1.3-.313,3.229,3.229,0,0,0,.93-.828l.883.687A3.549,3.549,0,0,1,726.23,676.574ZM726.051,669a1.929,1.929,0,0,0-1.469.637,3.1,3.1,0,0,0-.734,1.785h4.234v-.109a2.74,2.74,0,0,0-.594-1.707A1.812,1.812,0,0,0,726.051,669Z" fill="#12263f"/>
      <path id="Trazado_105413" data-name="Trazado 105413" d="M735.285,669.262a4.375,4.375,0,0,0-.711-.055,1.9,1.9,0,0,0-1.929,1.211v6H731.2v-8.453H732.6l.024.976a2.254,2.254,0,0,1,2.016-1.132,1.47,1.47,0,0,1,.64.109Z" fill="#12263f"/>
      <path id="Trazado_105414" data-name="Trazado 105414" d="M739.543,674.457l2.094-6.492h1.476l-3.031,8.453h-1.1l-3.062-8.453H737.4Z" fill="#12263f"/>
      <path id="Trazado_105415" data-name="Trazado 105415" d="M749.6,676.418a3.088,3.088,0,0,1-.2-.891A3.219,3.219,0,0,1,747,676.574a2.982,2.982,0,0,1-2.051-.707,2.289,2.289,0,0,1-.8-1.793,2.391,2.391,0,0,1,1-2.051,4.738,4.738,0,0,1,2.825-.73h1.406v-.664a1.621,1.621,0,0,0-.453-1.207,1.818,1.818,0,0,0-1.336-.449,2.112,2.112,0,0,0-1.3.39,1.151,1.151,0,0,0-.523.946h-1.454a2,2,0,0,1,.45-1.223,3.069,3.069,0,0,1,1.218-.934,4.11,4.11,0,0,1,1.692-.343,3.341,3.341,0,0,1,2.289.73,2.628,2.628,0,0,1,.859,2.012v3.89a4.772,4.772,0,0,0,.3,1.852v.125Zm-2.4-1.1a2.543,2.543,0,0,0,1.289-.351,2.13,2.13,0,0,0,.883-.914v-1.735h-1.133q-2.655,0-2.656,1.555a1.317,1.317,0,0,0,.453,1.063A1.749,1.749,0,0,0,747.207,675.316Z" fill="#12263f"/>
      <path id="Trazado_105416" data-name="Trazado 105416" d="M760.246,672.285a5.023,5.023,0,0,1-.891,3.113,2.841,2.841,0,0,1-2.39,1.176,2.949,2.949,0,0,1-2.477-1.133l-.07.977H753.09v-12h1.445V668.9a2.932,2.932,0,0,1,2.414-1.086,2.859,2.859,0,0,1,2.418,1.164,5.177,5.177,0,0,1,.879,3.187Zm-1.445-.164a3.9,3.9,0,0,0-.571-2.281,1.886,1.886,0,0,0-1.64-.805,2.123,2.123,0,0,0-2.055,1.328v3.657a2.183,2.183,0,0,0,2.07,1.328,1.878,1.878,0,0,0,1.618-.8A4.157,4.157,0,0,0,758.8,672.121Z" fill="#12263f"/>
      <path id="Trazado_105417" data-name="Trazado 105417" d="M763.637,676.418h-1.446v-12h1.446Z" fill="#12263f"/>
      <path id="Trazado_105418" data-name="Trazado 105418" d="M769.457,676.574a3.694,3.694,0,0,1-2.8-1.129,4.187,4.187,0,0,1-1.078-3.019v-.266a5.075,5.075,0,0,1,.48-2.246,3.754,3.754,0,0,1,1.344-1.547,3.381,3.381,0,0,1,1.871-.558,3.166,3.166,0,0,1,2.563,1.086,4.7,4.7,0,0,1,.914,3.109v.6h-5.727a3.014,3.014,0,0,0,.731,2.02,2.3,2.3,0,0,0,1.777.77,2.516,2.516,0,0,0,1.3-.313,3.244,3.244,0,0,0,.93-.828l.883.687A3.549,3.549,0,0,1,769.457,676.574Zm-.18-7.578a1.925,1.925,0,0,0-1.468.637,3.1,3.1,0,0,0-.735,1.785h4.235v-.109a2.747,2.747,0,0,0-.594-1.707A1.814,1.814,0,0,0,769.277,669Z" fill="#12263f"/>
    </g>
    <g id="Grupo_57422" data-name="Grupo 57422" transform="translate(-363.667 4976.628)">
      <path id="Trazado_105419" data-name="Trazado 105419" d="M878.4,653.608a4.185,4.185,0,0,1-1.332,2.786,4.369,4.369,0,0,1-2.98.98,4.008,4.008,0,0,1-3.231-1.445,5.815,5.815,0,0,1-1.214-3.867v-1.094a6.469,6.469,0,0,1,.566-2.789,4.223,4.223,0,0,1,1.606-1.848,4.463,4.463,0,0,1,2.406-.644,4.107,4.107,0,0,1,2.906,1.011,4.24,4.24,0,0,1,1.273,2.8H876.89a3.275,3.275,0,0,0-.848-1.975,2.568,2.568,0,0,0-1.824-.611,2.683,2.683,0,0,0-2.254,1.064,4.876,4.876,0,0,0-.817,3.026v1.1a5.016,5.016,0,0,0,.774,2.949,2.5,2.5,0,0,0,2.164,1.094,2.884,2.884,0,0,0,1.918-.566,3.152,3.152,0,0,0,.887-1.973Z" fill="#12263f"/>
      <path id="Trazado_105420" data-name="Trazado 105420" d="M885.437,657.218a3.012,3.012,0,0,1-.2-.891,3.223,3.223,0,0,1-2.406,1.047,2.981,2.981,0,0,1-2.051-.707,2.287,2.287,0,0,1-.8-1.793,2.391,2.391,0,0,1,1-2.051,4.734,4.734,0,0,1,2.825-.73h1.406v-.664a1.623,1.623,0,0,0-.453-1.207,1.822,1.822,0,0,0-1.336-.45,2.1,2.1,0,0,0-1.3.391,1.148,1.148,0,0,0-.523.945h-1.454a1.992,1.992,0,0,1,.45-1.222,3.062,3.062,0,0,1,1.218-.934,4.1,4.1,0,0,1,1.692-.344,3.345,3.345,0,0,1,2.289.731,2.635,2.635,0,0,1,.859,2.012v3.89a4.753,4.753,0,0,0,.3,1.852v.125Zm-2.4-1.1a2.543,2.543,0,0,0,1.289-.351,2.136,2.136,0,0,0,.883-.914v-1.735h-1.133q-2.656,0-2.656,1.555a1.31,1.31,0,0,0,.453,1.062A1.741,1.741,0,0,0,883.038,656.116Z" fill="#12263f"/>
      <path id="Trazado_105421" data-name="Trazado 105421" d="M890.28,648.765l.039.937a3.121,3.121,0,0,1,2.508-1.094,2.419,2.419,0,0,1,2.414,1.36,3.2,3.2,0,0,1,1.1-.985,3.238,3.238,0,0,1,1.6-.375q2.779,0,2.828,2.946v5.664h-1.446V651.64a1.942,1.942,0,0,0-.414-1.356,1.821,1.821,0,0,0-1.39-.449,1.915,1.915,0,0,0-1.336.48,1.94,1.94,0,0,0-.617,1.293v5.61h-1.454v-5.539a1.612,1.612,0,0,0-1.8-1.844,1.933,1.933,0,0,0-1.946,1.211v6.172h-1.445v-8.453Z" fill="#12263f"/>
      <path id="Trazado_105422" data-name="Trazado 105422" d="M910.1,653.085a5.023,5.023,0,0,1-.891,3.113,2.847,2.847,0,0,1-2.391,1.176,2.946,2.946,0,0,1-2.476-1.133l-.071.977h-1.328v-12h1.446v4.476a2.931,2.931,0,0,1,2.414-1.086,2.865,2.865,0,0,1,2.418,1.164,5.18,5.18,0,0,1,.879,3.188Zm-1.446-.164a3.906,3.906,0,0,0-.57-2.281,1.892,1.892,0,0,0-1.641-.8,2.12,2.12,0,0,0-2.054,1.328v3.656a2.179,2.179,0,0,0,2.07,1.328,1.879,1.879,0,0,0,1.617-.8A4.157,4.157,0,0,0,908.655,652.921Z" fill="#12263f"/>
      <path id="Trazado_105423" data-name="Trazado 105423" d="M911.929,646.522a.857.857,0,0,1,.215-.593.805.805,0,0,1,.636-.242.822.822,0,0,1,.641.242.856.856,0,0,1,.219.593.783.783,0,0,1-.86.821.816.816,0,0,1-.636-.235A.829.829,0,0,1,911.929,646.522Zm1.562,10.7h-1.445v-8.453h1.445Z" fill="#12263f"/>
      <path id="Trazado_105424" data-name="Trazado 105424" d="M915.421,652.913a4.984,4.984,0,0,1,.488-2.234,3.641,3.641,0,0,1,1.36-1.532,3.7,3.7,0,0,1,1.988-.539,3.567,3.567,0,0,1,2.793,1.2,4.6,4.6,0,0,1,1.066,3.179v.1a5.053,5.053,0,0,1-.472,2.215,3.6,3.6,0,0,1-1.352,1.527,3.751,3.751,0,0,1-2.02.547,3.555,3.555,0,0,1-2.785-1.2,4.576,4.576,0,0,1-1.066-3.164Zm1.453.172a3.618,3.618,0,0,0,.652,2.258,2.211,2.211,0,0,0,3.5-.012,3.956,3.956,0,0,0,.649-2.418,3.616,3.616,0,0,0-.66-2.254,2.1,2.1,0,0,0-1.754-.863,2.078,2.078,0,0,0-1.727.851A3.929,3.929,0,0,0,916.874,653.085Z" fill="#12263f"/>
      <path id="Trazado_105425" data-name="Trazado 105425" d="M929.851,654.976a1.066,1.066,0,0,0-.442-.911,4.27,4.27,0,0,0-1.539-.558,7.249,7.249,0,0,1-1.742-.563,2.464,2.464,0,0,1-.953-.781,1.866,1.866,0,0,1-.309-1.078,2.2,2.2,0,0,1,.879-1.758,3.432,3.432,0,0,1,2.246-.719,3.526,3.526,0,0,1,2.332.743,2.359,2.359,0,0,1,.9,1.9h-1.453a1.3,1.3,0,0,0-.5-1.023,1.888,1.888,0,0,0-1.27-.43,1.97,1.97,0,0,0-1.234.344,1.08,1.08,0,0,0-.445.9.874.874,0,0,0,.414.789,5.063,5.063,0,0,0,1.5.508,7.812,7.812,0,0,1,1.754.578,2.564,2.564,0,0,1,1,.809,2,2,0,0,1,.324,1.152,2.166,2.166,0,0,1-.906,1.816,3.8,3.8,0,0,1-2.352.684,4.263,4.263,0,0,1-1.8-.359,2.92,2.92,0,0,1-1.222-1,2.417,2.417,0,0,1-.442-1.395h1.445a1.5,1.5,0,0,0,.582,1.153,2.258,2.258,0,0,0,1.434.425,2.325,2.325,0,0,0,1.316-.332A1.019,1.019,0,0,0,929.851,654.976Z" fill="#12263f"/>
      <path id="Trazado_105426" data-name="Trazado 105426" d="M864.894,672.285A5.023,5.023,0,0,1,864,675.4a2.844,2.844,0,0,1-2.391,1.176,2.946,2.946,0,0,1-2.476-1.133l-.071.977h-1.328v-12h1.446V668.9a2.928,2.928,0,0,1,2.414-1.086,2.862,2.862,0,0,1,2.418,1.164,5.177,5.177,0,0,1,.879,3.187Zm-1.446-.164a3.906,3.906,0,0,0-.57-2.281,1.892,1.892,0,0,0-1.641-.805,2.121,2.121,0,0,0-2.054,1.328v3.657a2.18,2.18,0,0,0,2.07,1.328,1.88,1.88,0,0,0,1.617-.8A4.156,4.156,0,0,0,863.448,672.121Z" fill="#12263f"/>
      <path id="Trazado_105427" data-name="Trazado 105427" d="M866.722,665.723a.858.858,0,0,1,.215-.594.8.8,0,0,1,.636-.242.823.823,0,0,1,.641.242.856.856,0,0,1,.219.594.782.782,0,0,1-.86.82.819.819,0,0,1-.636-.234A.833.833,0,0,1,866.722,665.723Zm1.562,10.7h-1.445v-8.453h1.445Z" fill="#12263f"/>
      <path id="Trazado_105428" data-name="Trazado 105428" d="M870.214,672.113a4.983,4.983,0,0,1,.488-2.234,3.631,3.631,0,0,1,1.36-1.531,3.691,3.691,0,0,1,1.988-.539,3.566,3.566,0,0,1,2.793,1.2,4.6,4.6,0,0,1,1.066,3.18v.1a5.051,5.051,0,0,1-.472,2.215,3.6,3.6,0,0,1-1.352,1.527,3.742,3.742,0,0,1-2.02.547,3.555,3.555,0,0,1-2.785-1.195,4.576,4.576,0,0,1-1.066-3.164Zm1.453.172a3.614,3.614,0,0,0,.652,2.258,2.21,2.21,0,0,0,3.5-.012,3.956,3.956,0,0,0,.649-2.418,3.62,3.62,0,0,0-.66-2.254A2.1,2.1,0,0,0,874.05,669a2.076,2.076,0,0,0-1.727.852A3.926,3.926,0,0,0,871.667,672.285Z" fill="#12263f"/>
      <path id="Trazado_105429" data-name="Trazado 105429" d="M879.37,672.121a4.962,4.962,0,0,1,.914-3.152,3.227,3.227,0,0,1,4.82-.153l.063-.851h1.328v11.7H885.05v-4.031a3.035,3.035,0,0,1-2.328.937,2.915,2.915,0,0,1-2.442-1.191,5.07,5.07,0,0,1-.91-3.16Zm1.445.164a3.756,3.756,0,0,0,.614,2.281,1.95,1.95,0,0,0,1.652.829,2.164,2.164,0,0,0,1.969-1.141v-4.141A2.172,2.172,0,0,0,883.1,669a1.963,1.963,0,0,0-1.664.832A4.092,4.092,0,0,0,880.815,672.285Z" fill="#12263f"/>
      <path id="Trazado_105430" data-name="Trazado 105430" d="M894.034,675.582a3.07,3.07,0,0,1-2.476.992,2.625,2.625,0,0,1-2.059-.785,3.393,3.393,0,0,1-.715-2.324v-5.5h1.445v5.461q0,1.921,1.563,1.922a2.163,2.163,0,0,0,2.2-1.235v-6.148h1.445v8.453h-1.375Z" fill="#12263f"/>
      <path id="Trazado_105431" data-name="Trazado 105431" d="M899.222,664.426h1.75l-2.094,2.3-1.164,0Zm-.016,11.992h-1.453v-8.453h1.453Z" fill="#12263f"/>
      <path id="Trazado_105432" data-name="Trazado 105432" d="M902.948,667.965l.039.937a3.12,3.12,0,0,1,2.508-1.093,2.418,2.418,0,0,1,2.414,1.359,3.2,3.2,0,0,1,1.1-.984,3.237,3.237,0,0,1,1.6-.375q2.781,0,2.829,2.945v5.664h-1.446V670.84a1.942,1.942,0,0,0-.414-1.356,1.825,1.825,0,0,0-1.39-.449,1.911,1.911,0,0,0-1.336.481,1.944,1.944,0,0,0-.618,1.293v5.609h-1.453v-5.539a1.612,1.612,0,0,0-1.8-1.844,1.933,1.933,0,0,0-1.946,1.211v6.172h-1.445v-8.453Z" fill="#12263f"/>
      <path id="Trazado_105433" data-name="Trazado 105433" d="M915.62,665.723a.858.858,0,0,1,.215-.594.807.807,0,0,1,.637-.242.82.82,0,0,1,.64.242.852.852,0,0,1,.219.594.856.856,0,1,1-1.711,0Zm1.563,10.7h-1.446v-8.453h1.446Z" fill="#12263f"/>
      <path id="Trazado_105434" data-name="Trazado 105434" d="M922.886,675.4a2.084,2.084,0,0,0,1.351-.469,1.653,1.653,0,0,0,.641-1.172h1.367a2.627,2.627,0,0,1-.5,1.383,3.316,3.316,0,0,1-1.23,1.047,3.562,3.562,0,0,1-1.629.39,3.48,3.48,0,0,1-2.746-1.152,4.589,4.589,0,0,1-1.02-3.152v-.243a5.09,5.09,0,0,1,.453-2.2,3.448,3.448,0,0,1,1.3-1.492,3.682,3.682,0,0,1,2-.531,3.4,3.4,0,0,1,2.363.851,3.048,3.048,0,0,1,1,2.211h-1.367a2,2,0,0,0-.621-1.348,1.935,1.935,0,0,0-1.379-.527,2.024,2.024,0,0,0-1.707.793,3.72,3.72,0,0,0-.606,2.293v.273a3.65,3.65,0,0,0,.6,2.25A2.03,2.03,0,0,0,922.886,675.4Z" fill="#12263f"/>
      <path id="Trazado_105435" data-name="Trazado 105435" d="M927.487,672.113a4.97,4.97,0,0,1,.489-2.234,3.636,3.636,0,0,1,1.359-1.531,3.691,3.691,0,0,1,1.988-.539,3.564,3.564,0,0,1,2.793,1.2,4.6,4.6,0,0,1,1.067,3.18v.1a5.051,5.051,0,0,1-.473,2.215,3.588,3.588,0,0,1-1.352,1.527,3.738,3.738,0,0,1-2.019.547,3.553,3.553,0,0,1-2.785-1.195,4.577,4.577,0,0,1-1.067-3.164Zm1.453.172a3.608,3.608,0,0,0,.653,2.258,2.21,2.21,0,0,0,3.5-.012,3.957,3.957,0,0,0,.648-2.418,3.614,3.614,0,0,0-.66-2.254,2.1,2.1,0,0,0-1.754-.863,2.073,2.073,0,0,0-1.726.852A3.919,3.919,0,0,0,928.94,672.285Z" fill="#12263f"/>
      <path id="Trazado_105436" data-name="Trazado 105436" d="M941.917,674.176a1.062,1.062,0,0,0-.441-.91,4.256,4.256,0,0,0-1.539-.559,7.3,7.3,0,0,1-1.743-.562,2.482,2.482,0,0,1-.953-.782,1.862,1.862,0,0,1-.308-1.078,2.2,2.2,0,0,1,.879-1.758,3.43,3.43,0,0,1,2.246-.718,3.533,3.533,0,0,1,2.332.742,2.361,2.361,0,0,1,.894,1.9h-1.453a1.3,1.3,0,0,0-.5-1.023,1.892,1.892,0,0,0-1.269-.43,1.971,1.971,0,0,0-1.235.344,1.08,1.08,0,0,0-.445.9.875.875,0,0,0,.414.789,5.061,5.061,0,0,0,1.5.508,7.833,7.833,0,0,1,1.754.578,2.565,2.565,0,0,1,1,.809,1.988,1.988,0,0,1,.324,1.152,2.165,2.165,0,0,1-.906,1.817,3.8,3.8,0,0,1-2.352.683,4.26,4.26,0,0,1-1.8-.359,2.909,2.909,0,0,1-1.223-1,2.416,2.416,0,0,1-.441-1.4h1.445a1.494,1.494,0,0,0,.582,1.153,2.255,2.255,0,0,0,1.433.426,2.336,2.336,0,0,0,1.317-.332A1.023,1.023,0,0,0,941.917,674.176Z" fill="#12263f"/>
    </g>
    <g id="Grupo_57423" data-name="Grupo 57423" transform="translate(-363.667 4976.628)">
      <path id="Trazado_105437" data-name="Trazado 105437" d="M1047.644,653.608a4.189,4.189,0,0,1-1.332,2.786,4.372,4.372,0,0,1-2.981.98,4,4,0,0,1-3.23-1.445,5.816,5.816,0,0,1-1.215-3.867v-1.094a6.468,6.468,0,0,1,.566-2.789,4.235,4.235,0,0,1,1.606-1.848,4.466,4.466,0,0,1,2.406-.644,4.107,4.107,0,0,1,2.906,1.011,4.241,4.241,0,0,1,1.274,2.8h-1.508a3.269,3.269,0,0,0-.848-1.975,2.565,2.565,0,0,0-1.824-.611,2.684,2.684,0,0,0-2.254,1.064,4.883,4.883,0,0,0-.816,3.026v1.1a5.016,5.016,0,0,0,.773,2.949,2.5,2.5,0,0,0,2.164,1.094,2.885,2.885,0,0,0,1.918-.566,3.147,3.147,0,0,0,.887-1.973Z" fill="#12263f"/>
      <path id="Trazado_105438" data-name="Trazado 105438" d="M1054.683,657.218a3.045,3.045,0,0,1-.2-.891,3.222,3.222,0,0,1-2.406,1.047,2.984,2.984,0,0,1-2.051-.707,2.287,2.287,0,0,1-.8-1.793,2.392,2.392,0,0,1,1-2.051,4.731,4.731,0,0,1,2.824-.73h1.406v-.664a1.623,1.623,0,0,0-.453-1.207,1.819,1.819,0,0,0-1.336-.45,2.1,2.1,0,0,0-1.3.391,1.15,1.15,0,0,0-.523.945h-1.453a1.99,1.99,0,0,1,.449-1.222,3.071,3.071,0,0,1,1.219-.934,4.1,4.1,0,0,1,1.691-.344,3.341,3.341,0,0,1,2.289.731,2.632,2.632,0,0,1,.859,2.012v3.89a4.753,4.753,0,0,0,.3,1.852v.125Zm-2.4-1.1a2.542,2.542,0,0,0,1.289-.351,2.136,2.136,0,0,0,.883-.914v-1.735h-1.133q-2.655,0-2.656,1.555a1.313,1.313,0,0,0,.453,1.062A1.744,1.744,0,0,0,1052.284,656.116Z" fill="#12263f"/>
      <path id="Trazado_105439" data-name="Trazado 105439" d="M1059.526,648.765l.039.937a3.125,3.125,0,0,1,2.508-1.094,2.416,2.416,0,0,1,2.414,1.36,3.145,3.145,0,0,1,2.7-1.36q2.781,0,2.828,2.946v5.664h-1.446V651.64a1.937,1.937,0,0,0-.414-1.356,1.82,1.82,0,0,0-1.39-.449,1.918,1.918,0,0,0-1.336.48,1.944,1.944,0,0,0-.617,1.293v5.61h-1.454v-5.539a1.612,1.612,0,0,0-1.8-1.844,1.934,1.934,0,0,0-1.946,1.211v6.172h-1.445v-8.453Z" fill="#12263f"/>
      <path id="Trazado_105440" data-name="Trazado 105440" d="M1079.347,653.085a5.023,5.023,0,0,1-.891,3.113,2.847,2.847,0,0,1-2.391,1.176,2.947,2.947,0,0,1-2.476-1.133l-.07.977h-1.329v-12h1.446v4.476a2.931,2.931,0,0,1,2.414-1.086,2.863,2.863,0,0,1,2.418,1.164,5.181,5.181,0,0,1,.879,3.188Zm-1.446-.164a3.906,3.906,0,0,0-.57-2.281,1.889,1.889,0,0,0-1.641-.8,2.121,2.121,0,0,0-2.054,1.328v3.656a2.18,2.18,0,0,0,2.07,1.328,1.878,1.878,0,0,0,1.617-.8A4.149,4.149,0,0,0,1077.9,652.921Z" fill="#12263f"/>
      <path id="Trazado_105441" data-name="Trazado 105441" d="M1081.175,646.522a.857.857,0,0,1,.215-.593.806.806,0,0,1,.636-.242.821.821,0,0,1,.641.242.851.851,0,0,1,.219.593.856.856,0,1,1-1.711,0Zm1.562,10.7h-1.445v-8.453h1.445Z" fill="#12263f"/>
      <path id="Trazado_105442" data-name="Trazado 105442" d="M1084.667,652.913a5,5,0,0,1,.488-2.234,3.647,3.647,0,0,1,1.36-1.532,3.7,3.7,0,0,1,1.988-.539,3.565,3.565,0,0,1,2.793,1.2,4.6,4.6,0,0,1,1.066,3.179v.1a5.04,5.04,0,0,1-.472,2.215,3.6,3.6,0,0,1-1.352,1.527,3.747,3.747,0,0,1-2.019.547,3.557,3.557,0,0,1-2.786-1.2,4.576,4.576,0,0,1-1.066-3.164Zm1.453.172a3.624,3.624,0,0,0,.652,2.258,2.212,2.212,0,0,0,3.5-.012,3.956,3.956,0,0,0,.648-2.418,3.61,3.61,0,0,0-.66-2.254,2.1,2.1,0,0,0-1.754-.863,2.078,2.078,0,0,0-1.727.851A3.929,3.929,0,0,0,1086.12,653.085Z" fill="#12263f"/>
      <path id="Trazado_105443" data-name="Trazado 105443" d="M1099.1,654.976a1.066,1.066,0,0,0-.442-.911,4.263,4.263,0,0,0-1.539-.558,7.263,7.263,0,0,1-1.742-.563,2.47,2.47,0,0,1-.953-.781,1.865,1.865,0,0,1-.309-1.078,2.2,2.2,0,0,1,.879-1.758,3.435,3.435,0,0,1,2.246-.719,3.526,3.526,0,0,1,2.332.743,2.356,2.356,0,0,1,.9,1.9h-1.453a1.3,1.3,0,0,0-.5-1.023,1.886,1.886,0,0,0-1.27-.43,1.97,1.97,0,0,0-1.234.344,1.08,1.08,0,0,0-.445.9.874.874,0,0,0,.414.789,5.073,5.073,0,0,0,1.5.508,7.8,7.8,0,0,1,1.754.578,2.55,2.55,0,0,1,1,.809,1.989,1.989,0,0,1,.324,1.152,2.163,2.163,0,0,1-.906,1.816,3.8,3.8,0,0,1-2.352.684,4.267,4.267,0,0,1-1.8-.359,2.932,2.932,0,0,1-1.222-1,2.424,2.424,0,0,1-.442-1.395h1.446a1.5,1.5,0,0,0,.582,1.153,2.255,2.255,0,0,0,1.433.425,2.328,2.328,0,0,0,1.317-.332A1.018,1.018,0,0,0,1099.1,654.976Z" fill="#12263f"/>
      <path id="Trazado_105444" data-name="Trazado 105444" d="M1034.437,671.4h-4.774v5.023h-1.5V665.043h7.047v1.227h-5.547v3.9h4.774Z" fill="#12263f"/>
      <path id="Trazado_105445" data-name="Trazado 105445" d="M1036.788,665.723a.858.858,0,0,1,.215-.594.807.807,0,0,1,.637-.242.818.818,0,0,1,.64.242.852.852,0,0,1,.219.594.856.856,0,1,1-1.711,0Zm1.563,10.7h-1.446v-8.453h1.446Z" fill="#12263f"/>
      <path id="Trazado_105446" data-name="Trazado 105446" d="M1045.585,674.176a1.062,1.062,0,0,0-.441-.91,4.248,4.248,0,0,0-1.54-.559,7.315,7.315,0,0,1-1.742-.562,2.488,2.488,0,0,1-.953-.782,1.862,1.862,0,0,1-.308-1.078,2.2,2.2,0,0,1,.878-1.758,3.434,3.434,0,0,1,2.247-.718,3.533,3.533,0,0,1,2.332.742,2.358,2.358,0,0,1,.894,1.9H1045.5a1.3,1.3,0,0,0-.5-1.023,1.89,1.89,0,0,0-1.269-.43,1.971,1.971,0,0,0-1.235.344,1.08,1.08,0,0,0-.445.9.875.875,0,0,0,.414.789,5.073,5.073,0,0,0,1.5.508,7.815,7.815,0,0,1,1.754.578,2.551,2.551,0,0,1,1,.809,1.988,1.988,0,0,1,.324,1.152,2.163,2.163,0,0,1-.906,1.817,3.8,3.8,0,0,1-2.352.683,4.263,4.263,0,0,1-1.8-.359,2.914,2.914,0,0,1-1.223-1,2.423,2.423,0,0,1-.441-1.4h1.445a1.5,1.5,0,0,0,.582,1.153,2.257,2.257,0,0,0,1.433.426,2.336,2.336,0,0,0,1.317-.332A1.02,1.02,0,0,0,1045.585,674.176Z" fill="#12263f"/>
      <path id="Trazado_105447" data-name="Trazado 105447" d="M1048.921,665.723a.858.858,0,0,1,.215-.594.807.807,0,0,1,.636-.242.819.819,0,0,1,.641.242.852.852,0,0,1,.219.594.856.856,0,1,1-1.711,0Zm1.562,10.7h-1.445v-8.453h1.445Z" fill="#12263f"/>
      <path id="Trazado_105448" data-name="Trazado 105448" d="M1052.413,672.113a5,5,0,0,1,.488-2.234,3.645,3.645,0,0,1,1.36-1.531,3.694,3.694,0,0,1,1.988-.539,3.564,3.564,0,0,1,2.793,1.2,4.6,4.6,0,0,1,1.066,3.18v.1a5.035,5.035,0,0,1-.472,2.215,3.6,3.6,0,0,1-1.352,1.527,3.739,3.739,0,0,1-2.019.547,3.557,3.557,0,0,1-2.786-1.195,4.581,4.581,0,0,1-1.066-3.164Zm1.453.172a3.614,3.614,0,0,0,.653,2.258,2.21,2.21,0,0,0,3.5-.012,3.957,3.957,0,0,0,.648-2.418,3.614,3.614,0,0,0-.66-2.254,2.1,2.1,0,0,0-1.754-.863,2.076,2.076,0,0,0-1.727.852A3.926,3.926,0,0,0,1053.866,672.285Z" fill="#12263f"/>
      <path id="Trazado_105449" data-name="Trazado 105449" d="M1063.491,676.418h-1.445v-12h1.445Z" fill="#12263f"/>
      <path id="Trazado_105450" data-name="Trazado 105450" d="M1065.421,672.113a5,5,0,0,1,.488-2.234,3.637,3.637,0,0,1,1.36-1.531,3.693,3.693,0,0,1,1.988-.539,3.564,3.564,0,0,1,2.793,1.2,4.6,4.6,0,0,1,1.066,3.18v.1a5.037,5.037,0,0,1-.472,2.215,3.594,3.594,0,0,1-1.352,1.527,3.739,3.739,0,0,1-2.02.547,3.556,3.556,0,0,1-2.785-1.195,4.576,4.576,0,0,1-1.066-3.164Zm1.453.172a3.62,3.62,0,0,0,.652,2.258,2.21,2.21,0,0,0,3.5-.012,3.95,3.95,0,0,0,.649-2.418,3.614,3.614,0,0,0-.66-2.254,2.1,2.1,0,0,0-1.754-.863,2.076,2.076,0,0,0-1.727.852A3.926,3.926,0,0,0,1066.874,672.285Zm3.039-7.867h1.75l-2.094,2.3-1.164,0Z" fill="#12263f"/>
      <path id="Trazado_105451" data-name="Trazado 105451" d="M1074.585,672.121a4.969,4.969,0,0,1,.914-3.144,3.152,3.152,0,0,1,4.836-.075l.07-.937h1.321v8.25a3.44,3.44,0,0,1-.973,2.586,3.592,3.592,0,0,1-2.613.945,4.335,4.335,0,0,1-1.789-.391,3.077,3.077,0,0,1-1.336-1.07l.75-.867a2.825,2.825,0,0,0,2.273,1.148,2.22,2.22,0,0,0,1.645-.593,2.27,2.27,0,0,0,.589-1.672v-.727a2.969,2.969,0,0,1-2.367,1,2.887,2.887,0,0,1-2.4-1.195A5.224,5.224,0,0,1,1074.585,672.121Zm1.453.164a3.787,3.787,0,0,0,.586,2.246,1.906,1.906,0,0,0,1.641.817,2.115,2.115,0,0,0,2.007-1.243v-3.859a2.139,2.139,0,0,0-1.992-1.211,1.921,1.921,0,0,0-1.648.82A4.128,4.128,0,0,0,1076.038,672.285Z" fill="#12263f"/>
      <path id="Trazado_105452" data-name="Trazado 105452" d="M1083.913,665.723a.858.858,0,0,1,.215-.594.807.807,0,0,1,.637-.242.818.818,0,0,1,.64.242.852.852,0,0,1,.219.594.856.856,0,1,1-1.711,0Zm1.563,10.7h-1.446v-8.453h1.446Z" fill="#12263f"/>
      <path id="Trazado_105453" data-name="Trazado 105453" d="M1091.179,675.4a2.084,2.084,0,0,0,1.351-.469,1.65,1.65,0,0,0,.641-1.172h1.367a2.618,2.618,0,0,1-.5,1.383,3.316,3.316,0,0,1-1.23,1.047,3.556,3.556,0,0,1-1.629.39,3.48,3.48,0,0,1-2.746-1.152,4.59,4.59,0,0,1-1.02-3.152v-.243a5.09,5.09,0,0,1,.453-2.2,3.448,3.448,0,0,1,1.3-1.492,3.687,3.687,0,0,1,2-.531,3.393,3.393,0,0,1,2.363.851,3.045,3.045,0,0,1,1,2.211h-1.367a2,2,0,0,0-.621-1.348,1.934,1.934,0,0,0-1.379-.527,2.024,2.024,0,0,0-1.707.793,3.727,3.727,0,0,0-.606,2.293v.273a3.65,3.65,0,0,0,.6,2.25A2.031,2.031,0,0,0,1091.179,675.4Z" fill="#12263f"/>
      <path id="Trazado_105454" data-name="Trazado 105454" d="M1095.78,672.113a4.983,4.983,0,0,1,.489-2.234,3.635,3.635,0,0,1,1.359-1.531,3.693,3.693,0,0,1,1.988-.539,3.563,3.563,0,0,1,2.793,1.2,4.6,4.6,0,0,1,1.067,3.18v.1A5.037,5.037,0,0,1,1103,674.5a3.588,3.588,0,0,1-1.352,1.527,3.736,3.736,0,0,1-2.019.547,3.555,3.555,0,0,1-2.785-1.195,4.576,4.576,0,0,1-1.067-3.164Zm1.453.172a3.615,3.615,0,0,0,.653,2.258,2.21,2.21,0,0,0,3.5-.012,3.957,3.957,0,0,0,.648-2.418,3.607,3.607,0,0,0-.66-2.254,2.1,2.1,0,0,0-1.754-.863,2.073,2.073,0,0,0-1.726.852A3.919,3.919,0,0,0,1097.233,672.285Z" fill="#12263f"/>
      <path id="Trazado_105455" data-name="Trazado 105455" d="M1110.21,674.176a1.062,1.062,0,0,0-.441-.91,4.248,4.248,0,0,0-1.54-.559,7.315,7.315,0,0,1-1.742-.562,2.488,2.488,0,0,1-.953-.782,1.862,1.862,0,0,1-.308-1.078,2.2,2.2,0,0,1,.878-1.758,3.434,3.434,0,0,1,2.247-.718,3.533,3.533,0,0,1,2.332.742,2.358,2.358,0,0,1,.894,1.9h-1.453a1.3,1.3,0,0,0-.5-1.023,1.89,1.89,0,0,0-1.269-.43,1.971,1.971,0,0,0-1.235.344,1.08,1.08,0,0,0-.445.9.875.875,0,0,0,.414.789,5.073,5.073,0,0,0,1.5.508,7.815,7.815,0,0,1,1.754.578,2.551,2.551,0,0,1,1,.809,1.988,1.988,0,0,1,.324,1.152,2.163,2.163,0,0,1-.906,1.817,3.8,3.8,0,0,1-2.352.683,4.263,4.263,0,0,1-1.8-.359,2.914,2.914,0,0,1-1.223-1,2.423,2.423,0,0,1-.441-1.4h1.445a1.5,1.5,0,0,0,.582,1.153,2.257,2.257,0,0,0,1.433.426,2.336,2.336,0,0,0,1.317-.332A1.02,1.02,0,0,0,1110.21,674.176Z" fill="#12263f"/>
    </g>
    <g id="Grupo_57424" data-name="Grupo 57424" transform="translate(-363.667 4976.628)">
      <path id="Trazado_105456" data-name="Trazado 105456" d="M1187.43,645.843l3.718,9.281,3.719-9.281h1.946v11.375h-1.5v-4.43l.14-4.781-3.734,9.211h-1.149l-3.726-9.188.148,4.758v4.43h-1.5V645.843Z" fill="#12263f"/>
      <path id="Trazado_105457" data-name="Trazado 105457" d="M1204.453,657.218a3.02,3.02,0,0,1-.2-.891,3.226,3.226,0,0,1-2.406,1.047,2.979,2.979,0,0,1-2.051-.707,2.288,2.288,0,0,1-.8-1.793,2.39,2.39,0,0,1,1-2.051,4.731,4.731,0,0,1,2.824-.73h1.407v-.664a1.624,1.624,0,0,0-.454-1.207,1.819,1.819,0,0,0-1.335-.45,2.1,2.1,0,0,0-1.3.391,1.149,1.149,0,0,0-.524.945h-1.453a1.991,1.991,0,0,1,.449-1.222,3.057,3.057,0,0,1,1.219-.934,4.1,4.1,0,0,1,1.691-.344,3.346,3.346,0,0,1,2.29.731,2.642,2.642,0,0,1,.859,2.012v3.89a4.753,4.753,0,0,0,.3,1.852v.125Zm-2.4-1.1a2.542,2.542,0,0,0,1.289-.351,2.136,2.136,0,0,0,.883-.914v-1.735h-1.133q-2.658,0-2.656,1.555a1.31,1.31,0,0,0,.453,1.062A1.739,1.739,0,0,0,1202.055,656.116Z" fill="#12263f"/>
      <path id="Trazado_105458" data-name="Trazado 105458" d="M1209.305,648.765l.047,1.062a3.08,3.08,0,0,1,2.531-1.219q2.679,0,2.7,3.024v5.586h-1.445v-5.594a1.955,1.955,0,0,0-.418-1.352,1.676,1.676,0,0,0-1.278-.437,2.084,2.084,0,0,0-1.234.375,2.53,2.53,0,0,0-.828.984v6.024h-1.445v-8.453Z" fill="#12263f"/>
      <path id="Trazado_105459" data-name="Trazado 105459" d="M1216.773,646.522a.862.862,0,0,1,.215-.593.809.809,0,0,1,.637-.242.823.823,0,0,1,.641.242.855.855,0,0,1,.218.593.856.856,0,1,1-1.711,0Zm1.563,10.7h-1.445v-8.453h1.445Z" fill="#12263f"/>
      <path id="Trazado_105460" data-name="Trazado 105460" d="M1221.359,657.218v-7.336h-1.336v-1.117h1.336V647.9a2.879,2.879,0,0,1,.727-2.1,2.743,2.743,0,0,1,2.055-.742,3.817,3.817,0,0,1,.992.132l-.078,1.165a4.151,4.151,0,0,0-.782-.071,1.408,1.408,0,0,0-1.085.411,1.668,1.668,0,0,0-.383,1.18v.894h1.8v1.117h-1.8v7.336Z" fill="#12263f"/>
      <path id="Trazado_105461" data-name="Trazado 105461" d="M1229.711,657.374a3.691,3.691,0,0,1-2.8-1.129,4.189,4.189,0,0,1-1.078-3.019v-.266a5.074,5.074,0,0,1,.48-2.246,3.746,3.746,0,0,1,1.344-1.547,3.38,3.38,0,0,1,1.871-.559,3.171,3.171,0,0,1,2.563,1.086,4.706,4.706,0,0,1,.914,3.11v.6h-5.727a3,3,0,0,0,.731,2.02,2.294,2.294,0,0,0,1.777.769,2.525,2.525,0,0,0,1.3-.312,3.288,3.288,0,0,0,.93-.828l.882.687A3.549,3.549,0,0,1,1229.711,657.374Zm-.18-7.578a1.923,1.923,0,0,0-1.468.637,3.086,3.086,0,0,0-.735,1.785h4.235v-.11a2.763,2.763,0,0,0-.594-1.707A1.819,1.819,0,0,0,1229.531,649.8Z" fill="#12263f"/>
      <path id="Trazado_105462" data-name="Trazado 105462" d="M1239.6,654.976a1.066,1.066,0,0,0-.442-.911,4.271,4.271,0,0,0-1.539-.558,7.249,7.249,0,0,1-1.742-.563,2.463,2.463,0,0,1-.953-.781,1.865,1.865,0,0,1-.309-1.078,2.2,2.2,0,0,1,.879-1.758,3.432,3.432,0,0,1,2.246-.719,3.526,3.526,0,0,1,2.332.743,2.359,2.359,0,0,1,.9,1.9h-1.453a1.3,1.3,0,0,0-.5-1.023,1.888,1.888,0,0,0-1.27-.43,1.969,1.969,0,0,0-1.234.344,1.08,1.08,0,0,0-.445.9.874.874,0,0,0,.414.789,5.061,5.061,0,0,0,1.5.508,7.814,7.814,0,0,1,1.754.578,2.565,2.565,0,0,1,1,.809,2,2,0,0,1,.324,1.152,2.166,2.166,0,0,1-.906,1.816,3.8,3.8,0,0,1-2.352.684,4.264,4.264,0,0,1-1.8-.359,2.919,2.919,0,0,1-1.222-1,2.417,2.417,0,0,1-.442-1.395h1.445a1.5,1.5,0,0,0,.582,1.153,2.258,2.258,0,0,0,1.434.425,2.324,2.324,0,0,0,1.316-.332A1.019,1.019,0,0,0,1239.6,654.976Z" fill="#12263f"/>
      <path id="Trazado_105463" data-name="Trazado 105463" d="M1244.891,646.718v2.047h1.578v1.117h-1.578v5.249a1.173,1.173,0,0,0,.211.763.885.885,0,0,0,.718.253,3.54,3.54,0,0,0,.688-.093v1.165a4.241,4.241,0,0,1-1.11.155,1.8,1.8,0,0,1-1.46-.586,2.513,2.513,0,0,1-.493-1.664v-5.242h-1.539v-1.117h1.539v-2.047Z" fill="#12263f"/>
      <path id="Trazado_105464" data-name="Trazado 105464" d="M1253.375,657.218a3.02,3.02,0,0,1-.2-.891,3.226,3.226,0,0,1-2.406,1.047,2.979,2.979,0,0,1-2.051-.707,2.288,2.288,0,0,1-.8-1.793,2.39,2.39,0,0,1,1-2.051,4.731,4.731,0,0,1,2.824-.73h1.406v-.664a1.623,1.623,0,0,0-.453-1.207,1.82,1.82,0,0,0-1.336-.45,2.1,2.1,0,0,0-1.3.391,1.149,1.149,0,0,0-.524.945h-1.453a1.99,1.99,0,0,1,.449-1.222,3.057,3.057,0,0,1,1.219-.934,4.1,4.1,0,0,1,1.691-.344,3.342,3.342,0,0,1,2.289.731,2.639,2.639,0,0,1,.86,2.012v3.89a4.735,4.735,0,0,0,.3,1.852v.125Zm-2.4-1.1a2.545,2.545,0,0,0,1.289-.351,2.127,2.127,0,0,0,.882-.914v-1.735h-1.132q-2.658,0-2.657,1.555a1.311,1.311,0,0,0,.454,1.062A1.739,1.739,0,0,0,1250.977,656.116Z" fill="#12263f"/>
      <path id="Trazado_105465" data-name="Trazado 105465" d="M1260.25,656.194a2.086,2.086,0,0,0,1.352-.468,1.657,1.657,0,0,0,.64-1.172h1.367a2.626,2.626,0,0,1-.5,1.383,3.288,3.288,0,0,1-1.23,1.046,3.549,3.549,0,0,1-1.629.391,3.483,3.483,0,0,1-2.746-1.152,4.592,4.592,0,0,1-1.02-3.153v-.242a5.073,5.073,0,0,1,.454-2.2,3.44,3.44,0,0,1,1.3-1.492,3.687,3.687,0,0,1,2-.532,3.394,3.394,0,0,1,2.363.852,3.046,3.046,0,0,1,1,2.211h-1.367a2,2,0,0,0-.621-1.348,1.935,1.935,0,0,0-1.379-.527,2.024,2.024,0,0,0-1.707.793,3.72,3.72,0,0,0-.6,2.293v.273a3.65,3.65,0,0,0,.6,2.25A2.03,2.03,0,0,0,1260.25,656.194Z" fill="#12263f"/>
      <path id="Trazado_105466" data-name="Trazado 105466" d="M1265.242,646.522a.857.857,0,0,1,.215-.593.809.809,0,0,1,.637-.242.82.82,0,0,1,.64.242.851.851,0,0,1,.219.593.856.856,0,1,1-1.711,0Zm1.563,10.7h-1.446v-8.453h1.446Z" fill="#12263f"/>
      <path id="Trazado_105467" data-name="Trazado 105467" d="M1268.734,652.913a4.971,4.971,0,0,1,.489-2.234,3.645,3.645,0,0,1,1.359-1.532,3.7,3.7,0,0,1,1.988-.539,3.566,3.566,0,0,1,2.793,1.2,4.6,4.6,0,0,1,1.067,3.179v.1a5.054,5.054,0,0,1-.473,2.215,3.588,3.588,0,0,1-1.352,1.527,3.745,3.745,0,0,1-2.019.547,3.553,3.553,0,0,1-2.785-1.2,4.576,4.576,0,0,1-1.067-3.164Zm1.454.172a3.612,3.612,0,0,0,.652,2.258,2.211,2.211,0,0,0,3.5-.012,3.957,3.957,0,0,0,.648-2.418,3.61,3.61,0,0,0-.66-2.254,2.1,2.1,0,0,0-1.754-.863,2.075,2.075,0,0,0-1.726.851A3.923,3.923,0,0,0,1270.188,653.085Z" fill="#12263f"/>
      <path id="Trazado_105468" data-name="Trazado 105468" d="M1279.609,648.765l.047,1.062a3.083,3.083,0,0,1,2.532-1.219q2.679,0,2.7,3.024v5.586h-1.446v-5.594a1.949,1.949,0,0,0-.418-1.352,1.672,1.672,0,0,0-1.277-.437,2.082,2.082,0,0,0-1.234.375,2.533,2.533,0,0,0-.828.984v6.024h-1.446v-8.453Z" fill="#12263f"/>
      <path id="Trazado_105469" data-name="Trazado 105469" d="M1290.578,657.374a3.692,3.692,0,0,1-2.8-1.129,4.193,4.193,0,0,1-1.078-3.019v-.266a5.063,5.063,0,0,1,.481-2.246,3.739,3.739,0,0,1,1.343-1.547,3.385,3.385,0,0,1,1.871-.559,3.17,3.17,0,0,1,2.563,1.086,4.706,4.706,0,0,1,.914,3.11v.6h-5.727a3,3,0,0,0,.731,2.02,2.3,2.3,0,0,0,1.777.769,2.521,2.521,0,0,0,1.3-.312,3.275,3.275,0,0,0,.93-.828l.883.687A3.551,3.551,0,0,1,1290.578,657.374Zm-.18-7.578a1.922,1.922,0,0,0-1.468.637,3.086,3.086,0,0,0-.735,1.785h4.235v-.11a2.765,2.765,0,0,0-.594-1.707A1.82,1.82,0,0,0,1290.4,649.8Z" fill="#12263f"/>
      <path id="Trazado_105470" data-name="Trazado 105470" d="M1300.469,654.976a1.066,1.066,0,0,0-.442-.911,4.27,4.27,0,0,0-1.539-.558,7.25,7.25,0,0,1-1.742-.563,2.465,2.465,0,0,1-.953-.781,1.866,1.866,0,0,1-.309-1.078,2.195,2.195,0,0,1,.879-1.758,3.432,3.432,0,0,1,2.246-.719,3.526,3.526,0,0,1,2.332.743,2.359,2.359,0,0,1,.9,1.9h-1.453a1.3,1.3,0,0,0-.5-1.023,1.888,1.888,0,0,0-1.27-.43,1.97,1.97,0,0,0-1.234.344,1.08,1.08,0,0,0-.445.9.874.874,0,0,0,.414.789,5.064,5.064,0,0,0,1.5.508,7.776,7.776,0,0,1,1.754.578,2.564,2.564,0,0,1,1,.809,1.988,1.988,0,0,1,.324,1.152,2.166,2.166,0,0,1-.906,1.816,3.8,3.8,0,0,1-2.352.684,4.267,4.267,0,0,1-1.8-.359,2.927,2.927,0,0,1-1.222-1,2.418,2.418,0,0,1-.442-1.395h1.446a1.492,1.492,0,0,0,.582,1.153,2.254,2.254,0,0,0,1.433.425,2.328,2.328,0,0,0,1.317-.332A1.02,1.02,0,0,0,1300.469,654.976Z" fill="#12263f"/>
      <path id="Trazado_105471" data-name="Trazado 105471" d="M1210.137,672.285a5.069,5.069,0,0,1-.883,3.11,2.831,2.831,0,0,1-2.391,1.179,3.1,3.1,0,0,1-2.422-.976v4.07H1203v-11.7h1.32l.071.937a2.976,2.976,0,0,1,2.453-1.093,2.883,2.883,0,0,1,2.41,1.148,5.119,5.119,0,0,1,.887,3.2Zm-1.446-.164a3.737,3.737,0,0,0-.609-2.258,1.966,1.966,0,0,0-1.672-.828,2.126,2.126,0,0,0-1.969,1.164v4.039a2.129,2.129,0,0,0,1.985,1.157,1.954,1.954,0,0,0,1.652-.825A4.082,4.082,0,0,0,1208.691,672.121Z" fill="#12263f"/>
      <path id="Trazado_105472" data-name="Trazado 105472" d="M1217.191,676.418a3.021,3.021,0,0,1-.2-.891,3.221,3.221,0,0,1-2.406,1.047,2.979,2.979,0,0,1-2.051-.707,2.287,2.287,0,0,1-.8-1.793,2.39,2.39,0,0,1,1-2.051,4.734,4.734,0,0,1,2.825-.73h1.406v-.664a1.628,1.628,0,0,0-.453-1.207,1.821,1.821,0,0,0-1.336-.449,2.11,2.11,0,0,0-1.3.39,1.15,1.15,0,0,0-.524.946H1211.9a1.993,1.993,0,0,1,.45-1.223,3.055,3.055,0,0,1,1.218-.934,4.1,4.1,0,0,1,1.692-.343,3.345,3.345,0,0,1,2.289.73,2.635,2.635,0,0,1,.859,2.012v3.89a4.753,4.753,0,0,0,.3,1.852v.125Zm-2.4-1.1a2.543,2.543,0,0,0,1.289-.351,2.136,2.136,0,0,0,.883-.914v-1.735h-1.133q-2.656,0-2.656,1.555a1.314,1.314,0,0,0,.453,1.063A1.745,1.745,0,0,0,1214.793,675.316Z" fill="#12263f"/>
      <path id="Trazado_105473" data-name="Trazado 105473" d="M1222.637,665.918v2.047h1.578v1.117h-1.578v5.249a1.173,1.173,0,0,0,.211.763.887.887,0,0,0,.718.254,3.559,3.559,0,0,0,.688-.094v1.165a4.241,4.241,0,0,1-1.109.155,1.8,1.8,0,0,1-1.461-.586,2.511,2.511,0,0,1-.493-1.664v-5.242h-1.539v-1.117h1.539v-2.047Z" fill="#12263f"/>
      <path id="Trazado_105474" data-name="Trazado 105474" d="M1225.363,672.113a4.97,4.97,0,0,1,.489-2.234,3.635,3.635,0,0,1,1.359-1.531,3.691,3.691,0,0,1,1.988-.539,3.564,3.564,0,0,1,2.793,1.2,4.6,4.6,0,0,1,1.067,3.18v.1a5.051,5.051,0,0,1-.473,2.215,3.589,3.589,0,0,1-1.352,1.527,3.739,3.739,0,0,1-2.019.547,3.553,3.553,0,0,1-2.785-1.195,4.576,4.576,0,0,1-1.067-3.164Zm1.453.172a3.608,3.608,0,0,0,.653,2.258,2.21,2.21,0,0,0,3.5-.012,3.963,3.963,0,0,0,.648-2.418,3.614,3.614,0,0,0-.66-2.254A2.1,2.1,0,0,0,1229.2,669a2.073,2.073,0,0,0-1.726.852A3.919,3.919,0,0,0,1226.816,672.285Z" fill="#12263f"/>
      <path id="Trazado_105475" data-name="Trazado 105475" d="M1236.441,676.418H1235v-12h1.445Z" fill="#12263f"/>
      <path id="Trazado_105476" data-name="Trazado 105476" d="M1238.371,672.113a4.983,4.983,0,0,1,.488-2.234,3.645,3.645,0,0,1,1.36-1.531,3.691,3.691,0,0,1,1.988-.539A3.566,3.566,0,0,1,1245,669a4.6,4.6,0,0,1,1.066,3.18v.1a5.051,5.051,0,0,1-.472,2.215,3.594,3.594,0,0,1-1.352,1.527,3.74,3.74,0,0,1-2.019.547,3.552,3.552,0,0,1-2.785-1.195,4.577,4.577,0,0,1-1.067-3.164Zm1.453.172a3.608,3.608,0,0,0,.653,2.258,2.21,2.21,0,0,0,3.5-.012,3.963,3.963,0,0,0,.648-2.418,3.62,3.62,0,0,0-.66-2.254,2.1,2.1,0,0,0-1.754-.863,2.076,2.076,0,0,0-1.727.852A3.926,3.926,0,0,0,1239.824,672.285Zm3.039-7.867h1.75l-2.093,2.3-1.165,0Z" fill="#12263f"/>
      <path id="Trazado_105477" data-name="Trazado 105477" d="M1247.535,672.121a4.969,4.969,0,0,1,.914-3.144,3.152,3.152,0,0,1,4.836-.075l.07-.937h1.321v8.25a3.436,3.436,0,0,1-.973,2.586,3.588,3.588,0,0,1-2.613.945,4.334,4.334,0,0,1-1.789-.391,3.066,3.066,0,0,1-1.336-1.07l.75-.867a2.823,2.823,0,0,0,2.273,1.148,2.22,2.22,0,0,0,1.645-.593,2.275,2.275,0,0,0,.59-1.672v-.727a2.971,2.971,0,0,1-2.368,1,2.884,2.884,0,0,1-2.4-1.195A5.224,5.224,0,0,1,1247.535,672.121Zm1.453.164a3.794,3.794,0,0,0,.586,2.246,1.906,1.906,0,0,0,1.641.817,2.118,2.118,0,0,0,2.008-1.243v-3.859a2.144,2.144,0,0,0-1.993-1.211,1.922,1.922,0,0,0-1.648.82A4.128,4.128,0,0,0,1248.988,672.285Z" fill="#12263f"/>
      <path id="Trazado_105478" data-name="Trazado 105478" d="M1256.863,665.723a.863.863,0,0,1,.215-.594.809.809,0,0,1,.637-.242.82.82,0,0,1,.64.242.852.852,0,0,1,.219.594.895.895,0,0,1-1.5.586A.838.838,0,0,1,1256.863,665.723Zm1.563,10.7h-1.446v-8.453h1.446Z" fill="#12263f"/>
      <path id="Trazado_105479" data-name="Trazado 105479" d="M1264.129,675.4a2.082,2.082,0,0,0,1.351-.469,1.653,1.653,0,0,0,.641-1.172h1.367a2.627,2.627,0,0,1-.5,1.383,3.3,3.3,0,0,1-1.23,1.047,3.562,3.562,0,0,1-1.629.39,3.483,3.483,0,0,1-2.746-1.152,4.589,4.589,0,0,1-1.02-3.152v-.243a5.09,5.09,0,0,1,.453-2.2,3.448,3.448,0,0,1,1.3-1.492,3.687,3.687,0,0,1,2-.531,3.4,3.4,0,0,1,2.363.851,3.048,3.048,0,0,1,1,2.211h-1.367a2,2,0,0,0-.621-1.348,1.935,1.935,0,0,0-1.379-.527,2.024,2.024,0,0,0-1.707.793,3.721,3.721,0,0,0-.6,2.293v.273a3.65,3.65,0,0,0,.6,2.25A2.031,2.031,0,0,0,1264.129,675.4Z" fill="#12263f"/>
      <path id="Trazado_105480" data-name="Trazado 105480" d="M1274.332,676.418a3.021,3.021,0,0,1-.2-.891,3.222,3.222,0,0,1-2.406,1.047,2.979,2.979,0,0,1-2.051-.707,2.287,2.287,0,0,1-.8-1.793,2.39,2.39,0,0,1,1-2.051,4.731,4.731,0,0,1,2.824-.73h1.406v-.664a1.625,1.625,0,0,0-.453-1.207,1.82,1.82,0,0,0-1.336-.449,2.107,2.107,0,0,0-1.3.39,1.15,1.15,0,0,0-.524.946h-1.453a1.992,1.992,0,0,1,.449-1.223,3.059,3.059,0,0,1,1.219-.934,4.1,4.1,0,0,1,1.691-.343,3.341,3.341,0,0,1,2.289.73,2.639,2.639,0,0,1,.86,2.012v3.89a4.735,4.735,0,0,0,.3,1.852v.125Zm-2.4-1.1a2.546,2.546,0,0,0,1.289-.351,2.128,2.128,0,0,0,.882-.914v-1.735h-1.132q-2.658,0-2.657,1.555a1.315,1.315,0,0,0,.454,1.063A1.744,1.744,0,0,0,1271.934,675.316Z" fill="#12263f"/>
      <path id="Trazado_105481" data-name="Trazado 105481" d="M1282.738,674.176a1.062,1.062,0,0,0-.441-.91,4.257,4.257,0,0,0-1.539-.559,7.269,7.269,0,0,1-1.742-.562,2.475,2.475,0,0,1-.953-.782,1.856,1.856,0,0,1-.309-1.078,2.2,2.2,0,0,1,.879-1.758,3.432,3.432,0,0,1,2.246-.718,3.533,3.533,0,0,1,2.332.742,2.358,2.358,0,0,1,.894,1.9h-1.453a1.3,1.3,0,0,0-.5-1.023,1.888,1.888,0,0,0-1.269-.43,1.968,1.968,0,0,0-1.234.344,1.081,1.081,0,0,0-.446.9.875.875,0,0,0,.414.789,5.082,5.082,0,0,0,1.5.508,7.833,7.833,0,0,1,1.754.578,2.55,2.55,0,0,1,1,.809,1.989,1.989,0,0,1,.325,1.152,2.166,2.166,0,0,1-.907,1.817,3.8,3.8,0,0,1-2.351.683,4.261,4.261,0,0,1-1.8-.359,2.908,2.908,0,0,1-1.223-1,2.416,2.416,0,0,1-.441-1.4h1.445a1.5,1.5,0,0,0,.582,1.153,2.258,2.258,0,0,0,1.434.426,2.332,2.332,0,0,0,1.316-.332A1.023,1.023,0,0,0,1282.738,674.176Z" fill="#12263f"/>
    </g>
    <g id="Grupo_57425" data-name="Grupo 57425" transform="translate(-363.667 4976.628)">
      <path id="Trazado_105482" data-name="Trazado 105482" d="M1354.8,648.794l4.184,10.441,4.183-10.441h2.19v12.8h-1.688v-4.984l.158-5.378-4.2,10.362h-1.293l-4.191-10.336.166,5.352v4.984h-1.688v-12.8Z" fill="#12263f"/>
      <path id="Trazado_105483" data-name="Trazado 105483" d="M1373.947,660.65a3.453,3.453,0,0,1-2.787,1.117,2.956,2.956,0,0,1-2.315-.883,3.823,3.823,0,0,1-.8-2.615v-6.188h1.625v6.144q0,2.162,1.758,2.162A2.433,2.433,0,0,0,1373.9,659v-6.917h1.627v9.51h-1.547Z" fill="#12263f"/>
      <path id="Trazado_105484" data-name="Trazado 105484" d="M1381.945,661.767a4.152,4.152,0,0,1-3.146-1.27,4.713,4.713,0,0,1-1.213-3.4v-.3a5.713,5.713,0,0,1,.54-2.527,4.212,4.212,0,0,1,1.512-1.74,3.8,3.8,0,0,1,2.1-.629,3.563,3.563,0,0,1,2.883,1.222,5.285,5.285,0,0,1,1.029,3.5v.677h-6.443a3.377,3.377,0,0,0,.822,2.271,2.583,2.583,0,0,0,2,.866,2.835,2.835,0,0,0,1.459-.351,3.648,3.648,0,0,0,1.045-.932l.994.774A4,4,0,0,1,1381.945,661.767Zm-.2-8.526a2.167,2.167,0,0,0-1.652.717,3.479,3.479,0,0,0-.826,2.008h4.763v-.123a3.093,3.093,0,0,0-.668-1.92A2.041,2.041,0,0,0,1381.742,653.241Z" fill="#12263f"/>
      <path id="Trazado_105485" data-name="Trazado 105485" d="M1392.131,653.54a4.871,4.871,0,0,0-.8-.061,2.145,2.145,0,0,0-2.172,1.362v6.75h-1.625v-9.51h1.582l.026,1.1a2.531,2.531,0,0,1,2.267-1.275,1.66,1.66,0,0,1,.721.123Z" fill="#12263f"/>
      <path id="Trazado_105486" data-name="Trazado 105486" d="M1396.271,649.778v2.3h1.776v1.257h-1.776v5.9a1.322,1.322,0,0,0,.237.858,1,1,0,0,0,.808.286,3.893,3.893,0,0,0,.774-.106v1.311a4.763,4.763,0,0,1-1.248.175,2.022,2.022,0,0,1-1.643-.66,2.831,2.831,0,0,1-.554-1.872v-5.9h-1.731v-1.257h1.731v-2.3Z" fill="#12263f"/>
      <path id="Trazado_105487" data-name="Trazado 105487" d="M1403.891,661.767a4.156,4.156,0,0,1-3.147-1.27,4.717,4.717,0,0,1-1.213-3.4v-.3a5.713,5.713,0,0,1,.541-2.527,4.226,4.226,0,0,1,1.512-1.74,3.8,3.8,0,0,1,2.1-.629,3.562,3.562,0,0,1,2.883,1.222,5.285,5.285,0,0,1,1.028,3.5v.677h-6.442a3.381,3.381,0,0,0,.821,2.271,2.582,2.582,0,0,0,2,.866,2.838,2.838,0,0,0,1.459-.351,3.651,3.651,0,0,0,1.046-.932l.993.774A4,4,0,0,1,1403.891,661.767Zm-.2-8.526a2.167,2.167,0,0,0-1.652.717,3.479,3.479,0,0,0-.826,2.008h4.764v-.123a3.1,3.1,0,0,0-.668-1.92A2.045,2.045,0,0,0,1403.689,653.241Z" fill="#12263f"/>
    </g>
    <g id="Grupo_57427" data-name="Grupo 57427" transform="translate(-363.667 4976.628)">
      <path id="Trazado_105488" data-name="Trazado 105488" d="M1405.074,615.2a5.1,5.1,0,0,0-3-4.5,20.86,20.86,0,0,0-41,0,5.1,5.1,0,0,0-3,4.5,4.484,4.484,0,0,0,3.058,4.242,20.993,20.993,0,0,0,20.442,16.258c.546,0,1.085-.029,1.621-.07a3.968,3.968,0,0,1-.121-.93v-7.8c1.812,0,7.292.021,9,0v5.975a21.042,21.042,0,0,0,9.942-13.432A4.484,4.484,0,0,0,1405.074,615.2Z" fill="#ffd581"/>
      <path id="Trazado_105489" data-name="Trazado 105489" d="M1370.074,621.7a1,1,0,0,1-.707-1.707l5.145-5.146a1,1,0,0,1,1.414,1.414l-5.145,5.146A.993.993,0,0,1,1370.074,621.7Z" fill="#b27821"/>
      <path id="Trazado_105490" data-name="Trazado 105490" d="M1375.219,621.7a1,1,0,0,1-.707-.293l-5.145-5.146a1,1,0,0,1,1.414-1.414l5.145,5.146a1,1,0,0,1-.707,1.707Z" fill="#b27821"/>
      <path id="Trazado_105491" data-name="Trazado 105491" d="M1389.074,621.7a1,1,0,0,1-.707-1.707l5.145-5.146a1,1,0,0,1,1.414,1.414l-5.145,5.146A.993.993,0,0,1,1389.074,621.7Z" fill="#b27821"/>
      <path id="Trazado_105492" data-name="Trazado 105492" d="M1394.219,621.7a1,1,0,0,1-.707-.293l-5.145-5.146a1,1,0,0,1,1.414-1.414l5.145,5.146a1,1,0,0,1-.707,1.707Z" fill="#b27821"/>
      <path id="Trazado_105493" data-name="Trazado 105493" d="M1402.074,610.7h0a20.99,20.99,0,0,0-20.658-17.325,20.657,20.657,0,0,0-20.342,17.324s16.906,4.33,28.242-4.726a1.2,1.2,0,0,1,1.758.25C1393.123,609.279,1396.9,612.983,1402.074,610.7Z" fill="#9d6019"/>
      <g id="Grupo_57426" data-name="Grupo 57426">
        <path id="Trazado_105494" data-name="Trazado 105494" d="M1383.074,626.9v7.8a4.012,4.012,0,0,0,4,4h1a4.012,4.012,0,0,0,4-4v-7.8C1390.366,626.923,1384.886,626.9,1383.074,626.9Z" fill="#fb7b76"/>
      </g>
      <path id="Trazado_105495" data-name="Trazado 105495" d="M1387.607,634.7a1,1,0,0,1-1-1v-.165a28.572,28.572,0,0,0-.214-4.713,1,1,0,0,1,.681-1.732c1.291,0,1.388,1.67,1.466,3.012.068,1.174.068,2.534.067,3.435v.164A1,1,0,0,1,1387.607,634.7Z" fill="#e64c3c"/>
      <path id="Trazado_105496" data-name="Trazado 105496" d="M1393.074,627.9h-22a1,1,0,0,1,0-2h22a1,1,0,0,1,0,2Z" fill="#cb8252"/>
    </g>
    <path id="Trazado_105329-2" data-name="Trazado 105329" d="M1391.372,565.546l-16.283-10.54v7.5H1244.881V537.963h-5.073v24.543H1069.864V537.963h-5.073v24.543H902.836V537.963h-5.073v24.543h-163.1V537.963h-5.073v55.412h5.073V567.583h163.1v25.8h5.073v-25.8h161.955v25.8h5.073v-25.8h169.944v25.8h5.073v-25.8h130.208v8.5Z" transform="translate(-363.667 4976.628)" fill="url(#linear-gradient)"/>
  </g>
</svg>
