<svg xmlns="http://www.w3.org/2000/svg" width="356.763" height="244.222" viewBox="0 0 356.763 244.222">
  <g id="Grupo_57359" data-name="Grupo 57359" transform="translate(-174.355 -133.639)">
    <g id="Grupo_57329" data-name="Grupo 57329" transform="translate(282.985 180.28)">
      <rect id="Rect치ngulo_5825" data-name="Rect치ngulo 5825" width="246.464" height="195.913" transform="translate(0.834 0.834)" fill="#e4b48d"/>
      <path id="Trazado_104922" data-name="Trazado 104922" d="M520.684,373.739H274.221a.833.833,0,0,1-.835-.833V176.993a.833.833,0,0,1,.835-.834H520.684a.832.832,0,0,1,.833.834V372.906A.832.832,0,0,1,520.684,373.739Zm-245.631-1.665h244.8V177.825h-244.8Z" transform="translate(-273.386 -176.159)" fill="#ea9a92"/>
    </g>
    <g id="Grupo_57332" data-name="Grupo 57332" transform="translate(174.355 133.639)">
      <g id="Grupo_57330" data-name="Grupo 57330">
        <path id="Trazado_104923" data-name="Trazado 104923" d="M283.742,376.954,175.114,330.313V134.4L283.742,181.04Z" transform="translate(-174.281 -133.565)" fill="#e3c19b"/>
        <path id="Trazado_104924" data-name="Trazado 104924" d="M283.815,377.86a.83.83,0,0,1-.329-.068L174.86,331.151a.832.832,0,0,1-.5-.765V134.473a.837.837,0,0,1,1.162-.767l108.628,46.643a.834.834,0,0,1,.5.766V377.028a.83.83,0,0,1-.833.833Zm-107.8-48.024,106.963,45.927v-194.1L176.02,135.737Z" transform="translate(-174.355 -133.639)" fill="#ea9a92"/>
      </g>
      <g id="Grupo_57331" data-name="Grupo 57331" transform="translate(7.297 11.665)">
        <path id="Trazado_104925" data-name="Trazado 104925" d="M257.832,176.94c-10.8-6.888-22.457-11.774-34.089-17.033-11.258-5.088-23.788-7.828-34.655-13.712-.259-.14-.418.253-.188.4,4.753,3.052,10.108,4.726,15.293,6.868,5.808,2.4,11.576,4.921,17.34,7.429,12.107,5.274,24.194,10.763,36.047,16.591C257.935,177.66,258.146,177.141,257.832,176.94Z" transform="translate(-180.253 -144.09)" fill="#cf9060"/>
        <path id="Trazado_104926" data-name="Trazado 104926" d="M269.555,187.812c-5.725-2.4-11.541-4.539-17.2-7.1-6.134-2.773-12.071-5.953-18.182-8.772-12.166-5.617-24.819-10.094-36.914-15.886-.275-.133-.455.278-.2.425,11.664,6.632,24.334,11.183,36.529,16.714,11.768,5.337,23.076,12.244,35.762,15.271A.346.346,0,0,0,269.555,187.812Z" transform="translate(-179.463 -143.134)" fill="#cf9060"/>
        <path id="Trazado_104927" data-name="Trazado 104927" d="M243.6,172.708c-10.821-5.02-21.672-10.017-32.636-14.721-9.856-4.229-20.336-8-29.665-13.295-.2-.112-.4.2-.216.336a72.952,72.952,0,0,0,12.909,6.947c5.454,2.444,10.725,5.271,16.192,7.692,10.934,4.843,21.765,10.124,33.234,13.619C243.751,173.389,243.906,172.85,243.6,172.708Z" transform="translate(-181.007 -144.235)" fill="#cf9060"/>
        <path id="Trazado_104928" data-name="Trazado 104928" d="M238.084,177.149c-8.662-5.239-18.6-8.343-27.969-12.073-4.727-1.88-9.32-4.1-13.95-6.2-4.611-2.1-9.394-3.7-13.9-6.056-.245-.127-.5.253-.265.412,3.471,2.395,7.345,3.908,11.219,5.518,5.057,2.1,9.954,4.586,14.986,6.748,9.815,4.219,19.966,7.6,29.641,12.162C238.182,177.813,238.385,177.331,238.084,177.149Z" transform="translate(-180.919 -143.447)" fill="#cf9060"/>
        <path id="Trazado_104929" data-name="Trazado 104929" d="M269.13,183.272c-12.475-5.535-25.723-9.6-38.638-13.919a.143.143,0,0,0-.122.259c6.383,3.23,13.045,5.408,19.738,7.9,6.2,2.307,12.351,4.95,18.869,6.244A.256.256,0,0,0,269.13,183.272Z" transform="translate(-176.23 -141.843)" fill="#cf9060"/>
        <path id="Trazado_104930" data-name="Trazado 104930" d="M247.447,168.254c-9.08-4.209-18.037-8.871-27.385-12.455-9.871-3.784-19.673-7.753-29.553-11.514a.157.157,0,0,0-.132.284,293.153,293.153,0,0,0,27.57,12.094c9.905,3.649,19.381,8.433,29.323,11.969C247.517,168.719,247.693,168.367,247.447,168.254Z" transform="translate(-180.107 -144.273)" fill="#cf9060"/>
      </g>
      <path id="Trazado_104931" data-name="Trazado 104931" d="M175.114,139.886V329.781l108.628,46.641V185.016C261.8,181.746,180.469,145.133,175.114,139.886Z" transform="translate(-174.281 -133.033)" fill="#e3c19b" opacity="0.5" style="mix-blend-mode: multiply;isolation: isolate"/>
      <path id="Trazado_104932" data-name="Trazado 104932" d="M175.114,145.749V329.213l108.628,46.641v-184.6C258.788,183.961,182.927,152.285,175.114,145.749Z" transform="translate(-174.281 -132.465)" fill="#e3c19b" opacity="0.5" style="mix-blend-mode: multiply;isolation: isolate"/>
    </g>
    <g id="Grupo_57335" data-name="Grupo 57335" transform="translate(174.355 153.918)">
      <g id="Grupo_57333" data-name="Grupo 57333">
        <path id="Trazado_104933" data-name="Trazado 104933" d="M175.114,152.887V328.521l108.628,46.641V197.7C267.369,190.561,194.717,161.31,175.114,152.887Z" transform="translate(-174.281 -152.052)" fill="#f7d9e7"/>
        <path id="Trazado_104934" data-name="Trazado 104934" d="M283.815,376.068a.83.83,0,0,1-.329-.068L174.86,329.359a.832.832,0,0,1-.5-.765V152.961a.832.832,0,0,1,.377-.7.816.816,0,0,1,.784-.068c9.619,4.132,32.33,13.411,54.292,22.384,22.614,9.241,46,18.792,54.339,22.427a.83.83,0,0,1,.5.763V375.236a.83.83,0,0,1-.833.833Zm-107.8-48.024,106.963,45.927V198.318c-8.73-3.781-31.637-13.139-53.8-22.2-21.13-8.632-42.951-17.548-53.159-21.9Z" transform="translate(-174.355 -152.126)" fill="#ea9a92"/>
      </g>
      <path id="Trazado_104935" data-name="Trazado 104935" d="M272.226,201.4a82.156,82.156,0,0,1-16.515-7.773c-5.446-3.258-12.048-9.071-18.4-10.217-8.532-1.536-17.353,1.868-25.738-.15a30.69,30.69,0,0,1-12.1-6.143c-7.726-6.186-14.682-14.648-24.358-15.884V327.712l108.628,46.641V202.48A24.191,24.191,0,0,1,272.226,201.4Z" transform="translate(-174.281 -151.244)" fill="#f7d9e7" style="mix-blend-mode: multiply;isolation: isolate"/>
      <path id="Trazado_104936" data-name="Trazado 104936" d="M270.618,210.219c-12.3-4.813-21.433-15.841-35.476-16.247-12.773-.371-22.427.865-33.1-7.144-7.915-5.933-16.746-15.271-26.927-13.939v153.7l108.628,46.641V212.595A32.11,32.11,0,0,1,270.618,210.219Z" transform="translate(-174.281 -150.126)" fill="#f7d9e7" style="mix-blend-mode: multiply;isolation: isolate"/>
      <g id="Grupo_57334" data-name="Grupo 57334" transform="translate(8.828 12.656)">
        <path id="Trazado_104937" data-name="Trazado 104937" d="M261.48,192.105c-11-5.984-23.416-10.41-35.216-14.568-11.736-4.133-23.77-8.409-34.988-13.826-.495-.239-.825.5-.355.767a206.274,206.274,0,0,0,33.006,14.561c12.5,4.379,24.685,9.508,37.268,13.681A.339.339,0,0,0,261.48,192.105Z" transform="translate(-181.599 -163.664)" fill="#fff" opacity="0.5"/>
        <path id="Trazado_104938" data-name="Trazado 104938" d="M262.2,199.687c-13.284-5.927-26.771-11.087-40.434-16.082-6.972-2.548-13.814-5.391-20.716-8.117-5.979-2.358-11.846-5.939-18.256-6.956-.37-.057-.568.5-.2.642,6.088,2.351,11.7,5.408,17.643,8.061,6.758,3.019,13.687,5.758,20.649,8.264,13.734,4.947,27.292,10.113,41.226,14.47C262.279,200.021,262.358,199.754,262.2,199.687Z" transform="translate(-182.403 -163.193)" fill="#fff" opacity="0.5"/>
        <path id="Trazado_104939" data-name="Trazado 104939" d="M272.569,211.364c-15.117-7.253-30.26-14.387-45.8-20.756-7.128-2.924-13.673-6.933-20.963-9.5-7.089-2.5-14.463-4.768-21.992-5.256a.363.363,0,0,0-.126.715,171.91,171.91,0,0,1,22.708,6.747c7.259,2.623,13.879,6.709,21.022,9.63,7.822,3.2,15.52,6.674,23.357,9.837,7.162,2.89,14.228,6.931,21.634,9.089C272.707,211.956,272.833,211.491,272.569,211.364Z" transform="translate(-182.306 -162.483)" fill="#fff" opacity="0.5"/>
        <path id="Trazado_104940" data-name="Trazado 104940" d="M231.235,199.14c-4.256-1.267-8.022-3.487-11.983-5.442-3.461-1.709-7.095-3.113-10.663-4.584-7.218-2.972-14.364-5.989-21.91-8.027-.189-.048-.275.244-.1.32,7.545,3.362,15.186,6.487,22.782,9.719,7.183,3.056,14.273,6.27,21.822,8.333C231.382,199.516,231.434,199.2,231.235,199.14Z" transform="translate(-182.007 -161.976)" fill="#fff" opacity="0.5"/>
        <path id="Trazado_104941" data-name="Trazado 104941" d="M275.054,202.36c-12.608-5.34-25.017-11.227-37.692-16.446-12.618-5.2-25.54-9.628-38.174-14.791a.3.3,0,0,0-.252.543c12.157,6.175,25.153,10.544,37.767,15.665,6.536,2.652,13.013,5.461,19.525,8.169,6.039,2.51,12.28,5.893,18.739,7.132A.145.145,0,0,0,275.054,202.36Z" transform="translate(-180.817 -162.944)" fill="#fff" opacity="0.5"/>
      </g>
    </g>
    <g id="Grupo_57338" data-name="Grupo 57338" transform="translate(174.355 185.203)">
      <g id="Grupo_57336" data-name="Grupo 57336">
        <path id="Trazado_104942" data-name="Trazado 104942" d="M260.525,213.926c-4.263-3.042-8.54-6.058-13.369-8.128a45.344,45.344,0,0,0-10.381-3.082c-6.608-1.106-13.344-1.011-19.966-1.987a52.351,52.351,0,0,1-22.9-9.689c-5.119-3.73-10.74-8.345-17.156-9.407-.545-.089-1.089-.154-1.636-.226v144.35L283.742,372.4V253.3c0-8.5,0-18.795,0-27.295,0-.439-7.051-2.605-7.63-2.823C270.389,221.018,265.469,217.455,260.525,213.926Z" transform="translate(-174.281 -180.573)" fill="#fbcfcf"/>
        <path id="Trazado_104943" data-name="Trazado 104943" d="M283.815,373.3a.83.83,0,0,1-.329-.068L174.86,326.595a.832.832,0,0,1-.5-.765V181.48a.826.826,0,0,1,.286-.626.808.808,0,0,1,.656-.2l.341.043c.439.058.878.113,1.319.188,5.907.977,11.161,4.865,15.8,8.295l1.713,1.257A51.412,51.412,0,0,0,217,199.977c3.094.455,6.279.682,9.361.9,3.486.249,7.092.5,10.622,1.093a46.273,46.273,0,0,1,10.57,3.137c5.05,2.166,9.554,5.383,13.528,8.219l.381.27c4.692,3.35,9.541,6.814,15.019,8.885.118.045.517.172,1.068.352,7.1,2.3,7.1,2.5,7.1,3.25l0,146.391a.83.83,0,0,1-.833.833ZM176.02,325.28l106.963,45.927,0-144.7c-1.08-.514-4.683-1.682-5.946-2.092-.592-.192-1.018-.328-1.145-.376-5.68-2.148-10.62-5.677-15.4-9.088l-.381-.272c-3.905-2.787-8.332-5.948-13.216-8.039a44.54,44.54,0,0,0-10.189-3.029c-3.451-.576-7.016-.827-10.464-1.071-3.114-.219-6.331-.446-9.483-.912a53.108,53.108,0,0,1-23.276-9.842l-1.72-1.267c-4.707-3.479-9.573-7.078-15.082-7.991-.219-.037-.443-.068-.666-.1Z" transform="translate(-174.355 -180.646)" fill="#ea9a92"/>
      </g>
      <g id="Grupo_57337" data-name="Grupo 57337" transform="translate(13.399 31.191)">
        <path id="Trazado_104944" data-name="Trazado 104944" d="M254.535,236.421c.075-1.876-3.682-2.044-3.075.167.348,1.265,2.29,1.875,2.906.5A1.872,1.872,0,0,0,254.535,236.421Z" transform="translate(-180.287 -206.571)" fill="#f9a8aa"/>
        <path id="Trazado_104945" data-name="Trazado 104945" d="M265.764,245.013a2.079,2.079,0,0,0-2.973,2.755,2.265,2.265,0,0,0,3.642.514A2.3,2.3,0,0,0,265.764,245.013Z" transform="translate(-179.207 -205.633)" fill="#f9a8aa"/>
        <path id="Trazado_104946" data-name="Trazado 104946" d="M229.233,221.925a1.993,1.993,0,0,0-.668-1.148,2.309,2.309,0,0,0-.815-.667A2.736,2.736,0,0,0,224,221.823a2.461,2.461,0,0,0,2.738,2.953A2.719,2.719,0,0,0,229.233,221.925Z" transform="translate(-182.949 -208.036)" fill="#f9a8aa"/>
        <path id="Trazado_104947" data-name="Trazado 104947" d="M206.263,252.051a1.942,1.942,0,0,0-2.623,1.079c-.792,2.041,2.039,3.3,3.383,1.838A1.693,1.693,0,0,0,206.263,252.051Z" transform="translate(-184.929 -204.93)" fill="#f9a8aa"/>
        <path id="Trazado_104948" data-name="Trazado 104948" d="M261.067,263.26a4.112,4.112,0,0,0-1.994-.846,5.287,5.287,0,0,0-4.039.953c-2.242,1.77-1.109,5.365,1.467,6.158a4.257,4.257,0,0,0,3.391-.612c1.241-.714,2.589-2.7,2.184-4.168A2.928,2.928,0,0,0,261.067,263.26Z" transform="translate(-180.05 -203.917)" fill="#f9a8aa"/>
        <path id="Trazado_104949" data-name="Trazado 104949" d="M236.472,247.043c-3.881.976-4.056,4.492-2.774,7.6a11.051,11.051,0,0,0,8.034,6.691c4.092.774,9.327-.966,9.284-5.838-.039-4.265-4.438-6.968-8.1-7.974A14.229,14.229,0,0,0,236.472,247.043Z" transform="translate(-182.071 -205.421)" fill="#f9a8aa"/>
        <path id="Trazado_104950" data-name="Trazado 104950" d="M200.476,213.45c-1.361-2.008-3.448-4.344-6.07-4.369-4.4-.044-6.862,3.349-5.586,7.431,1.076,3.443,4.615,7.086,8.234,7.94,2.619.618,4.574-.96,5.334-3.341C203.276,218.331,202.031,215.746,200.476,213.45Z" transform="translate(-186.385 -209.081)" fill="#f9a8aa"/>
        <path id="Trazado_104951" data-name="Trazado 104951" d="M213.734,229.646c-3.956-.543-8.951,1.954-7.845,6.52,1.563,6.462,11.16,7.608,15.405,3.239C226.216,234.339,217.711,230.194,213.734,229.646Z" transform="translate(-184.713 -207.094)" fill="#f9a8aa"/>
        <path id="Trazado_104952" data-name="Trazado 104952" d="M194.182,242.033a4.841,4.841,0,0,0-6.986,1.045c-2.373,4.262,2.453,10.295,7.006,7.272C197.072,248.441,196.416,244.176,194.182,242.033Z" transform="translate(-186.57 -205.989)" fill="#f9a8aa"/>
      </g>
      <path id="Trazado_104953" data-name="Trazado 104953" d="M280.971,246.721c-9.226-5.5-16.511-4.285-26.195-1.157-11.642,3.756-19.161-.3-26.173-9.733-4.754-6.4-10.344-13.735-18.781-15.189-7.872-1.357-15.163,2.176-22.862,1.6a23.327,23.327,0,0,1-11.847-4.14V322.2l108.628,46.641V248.56C282.84,247.907,281.921,247.289,280.971,246.721Z" transform="translate(-174.281 -177.016)" fill="#fbcfcf" opacity="0.5" style="mix-blend-mode: multiply;isolation: isolate"/>
      <path id="Trazado_104954" data-name="Trazado 104954" d="M260.242,265.753c-5.808,1.564-12.044,3.337-17.689.19-4.379-2.439-7.6-5.911-10.714-9.793-5.1-6.361-10.466-12.4-19.332-12.735-7.431-.278-15.992,1.856-23.17-.742a29.048,29.048,0,0,1-14.223-11.09v89.31l108.628,46.641V274.292C277.16,268.537,271.22,262.8,260.242,265.753Z" transform="translate(-174.281 -175.709)" fill="#fbcfcf" opacity="0.5" style="mix-blend-mode: multiply;isolation: isolate"/>
    </g>
    <g id="Grupo_57342" data-name="Grupo 57342" transform="translate(174.355 262.184)">
      <g id="Grupo_57339" data-name="Grupo 57339">
        <path id="Trazado_104955" data-name="Trazado 104955" d="M272.391,291.467c-7.3-4.652-13.677-2.92-21.518-4.771a33.139,33.139,0,0,1-12.61-6.331c-4.945-3.736-9.939-9.2-16.292-10.465-6.543-1.3-13.406-.7-19.553-3.659-9.612-4.627-17.878-10.826-27.3-14.657v67.37L283.742,365.6v-69A35.793,35.793,0,0,1,272.391,291.467Z" transform="translate(-174.281 -250.752)" fill="#fff"/>
        <path id="Trazado_104956" data-name="Trazado 104956" d="M283.815,366.5a.83.83,0,0,1-.329-.068L174.86,319.792a.832.832,0,0,1-.5-.765v-67.37a.84.84,0,0,1,.367-.692.849.849,0,0,1,.779-.081,117.928,117.928,0,0,1,15.379,8.079c3.837,2.26,7.807,4.6,11.974,6.6,3.878,1.867,8.009,2.264,12.384,2.686,2.288.219,4.656.449,6.967.906,5.037,1,9.123,4.423,13.076,7.733,1.229,1.029,2.388,2,3.557,2.885,4.427,3.346,8.105,5.194,12.3,6.183a49.9,49.9,0,0,0,7.77,1.043c4.687.373,9.119.723,14,3.837a34.911,34.911,0,0,0,11.081,5.015.835.835,0,0,1,.656.814v69a.83.83,0,0,1-.833.833Zm-107.8-48.024,106.963,45.927V297.33a37.966,37.966,0,0,1-10.968-5.086c-4.535-2.892-8.763-3.225-13.238-3.583a51.18,51.18,0,0,1-8.021-1.082,33.766,33.766,0,0,1-12.921-6.477c-1.2-.908-2.379-1.894-3.623-2.935-3.792-3.175-7.711-6.461-12.328-7.377-2.232-.441-4.556-.665-6.8-.883-4.327-.416-8.805-.846-12.949-2.84-4.233-2.037-8.229-4.392-12.1-6.668a126.348,126.348,0,0,0-14.015-7.491Z" transform="translate(-174.355 -250.825)" fill="#ea9a92"/>
      </g>
      <path id="Trazado_104957" data-name="Trazado 104957" d="M272.631,300.312c-1.107-.736-2.2-1.548-3.315-2.429-7.529-5.954-15.585-5.524-24.616-6.48-6.176-.655-11.078-3.461-15.444-7.748-3.937-3.863-7.948-7.889-13.984-7.279-2.481.25-5.185.758-7.669.263-6.688-1.331-11.36-5.482-17.03-8.959-4.077-2.5-9.507-5.628-14.484-5.421-.329.013-.652.06-.976.09V317.92l108.628,46.641V306.052A29.673,29.673,0,0,1,272.631,300.312Z" transform="translate(-174.281 -249.718)" fill="#fde6d5" style="mix-blend-mode: multiply;isolation: isolate"/>
      <path id="Trazado_104958" data-name="Trazado 104958" d="M271.025,314.884c-6.495-2.787-11.976-8.6-17.792-12.174a30.647,30.647,0,0,0-7.088-3.3,23.062,23.062,0,0,0-7.857-.907c-6.65.377-11.019-.735-16.514-4.52-5.83-4.013-9.9-8.343-17.05-10.087-5.636-1.373-11.429-1.977-17.052-3.383a31.667,31.667,0,0,1-12.558-5.827v42.029l108.628,46.641v-47.25c0,.342-5.988.364-6.552.328A18.828,18.828,0,0,1,271.025,314.884Z" transform="translate(-174.281 -248.512)" fill="#fde6d5" style="mix-blend-mode: multiply;isolation: isolate"/>
      <g id="Grupo_57340" data-name="Grupo 57340" transform="translate(3.932 9.613)" style="mix-blend-mode: multiply;isolation: isolate">
        <path id="Trazado_104959" data-name="Trazado 104959" d="M181,259.985a5.09,5.09,0,0,0-1.534.925c-2.747,2.457-1.344,6.393,1.9,7.524a7.69,7.69,0,0,0,3.372.41,5.964,5.964,0,0,0,2.647-1.1,4.551,4.551,0,0,0-2.214-8.062A9.609,9.609,0,0,0,181,259.985Zm1.47,7.212a3.294,3.294,0,0,1-2.455-2.748c-.267-1.627,1-2.752,2.524-3.107a4.758,4.758,0,0,1,4.381.793,2.871,2.871,0,0,1-.746,4.527A4.8,4.8,0,0,1,182.473,267.2Z" transform="translate(-177.933 -259.589)" fill="#e3bc52"/>
        <path id="Trazado_104960" data-name="Trazado 104960" d="M192.772,276.609a8.687,8.687,0,0,0-8.7-4.113c-6.353,1.01-7.732,8.562-4.32,13.135,3.34,4.471,11.246,5.428,14.184.131C195.575,282.811,194.767,279.247,192.772,276.609Zm-.293,7.688c-1.636,4.828-8.362,2.789-10.814.034a5.786,5.786,0,0,1,3.381-9.692c4.561-.743,7.489,4.087,7.8,8.055A8.235,8.235,0,0,1,192.479,284.3Z" transform="translate(-177.94 -258.348)" fill="#e3bc52"/>
        <path id="Trazado_104961" data-name="Trazado 104961" d="M195.114,267.335a2.691,2.691,0,0,0-1.836-1.592,4.252,4.252,0,0,0-3.742.867,3.611,3.611,0,0,0,3.04,6.326,3.943,3.943,0,0,0,2.924-3.552A4.454,4.454,0,0,0,195.114,267.335Zm-2.16,4.021a2.327,2.327,0,0,1-3.345-1.82,2.6,2.6,0,0,1,3.11-2.572C195.259,267.371,194.807,270.332,192.955,271.356Z" transform="translate(-176.945 -259.003)" fill="#e3bc52"/>
        <path id="Trazado_104962" data-name="Trazado 104962" d="M207.307,272.663c-1.11-4.559-6.691-4.325-9.811-2.185a5.783,5.783,0,0,0-2.645,4.214,4.407,4.407,0,0,0,1.156,3.234,5.117,5.117,0,0,0,3.686,1.223C202.972,279.243,208.3,276.74,207.307,272.663Zm-10.194,4.108c-2.067-1.891,1.21-5.152,3.1-5.861a6.43,6.43,0,0,1,3.214-.281,2.889,2.889,0,0,1,2.212,1.694c.745,2.33-1.455,3.861-3.281,4.6-1.456.589-3.458,1.054-4.877.132A2.917,2.917,0,0,1,197.114,276.771Z" transform="translate(-176.301 -258.676)" fill="#e3bc52"/>
        <path id="Trazado_104963" data-name="Trazado 104963" d="M214.762,271.827a3.251,3.251,0,0,0-2.426-.753,5.169,5.169,0,0,0-4.131,3.986,3.8,3.8,0,0,0,3.021,4.451c2.639.431,5.021-2.175,4.987-4.714A3.968,3.968,0,0,0,214.762,271.827Zm-1.553,5.417a2.107,2.107,0,0,1-2.818-.478,2.294,2.294,0,0,1,.456-3.29,2.481,2.481,0,0,1,3.6.634C215.117,275.426,214.472,276.5,213.209,277.244Z" transform="translate(-175.015 -258.477)" fill="#e3bc52"/>
        <path id="Trazado_104964" data-name="Trazado 104964" d="M201.512,281.43a5.883,5.883,0,0,0-2.807,3.659c-.758,3.473.9,7.246,4.546,8.123,2.5.6,5.291.541,7.378-1.124,3.541-2.821,3.662-8.542-.54-10.8A8.451,8.451,0,0,0,201.512,281.43Zm.554,2.294c2.284-2.109,7.46-2.018,8.587,1.127,1.619,4.527-2.3,6.454-5.288,6.519a6.2,6.2,0,0,1-3.6-1.682,3.96,3.96,0,0,1-1.006-3.589A4.289,4.289,0,0,1,202.066,283.724Z" transform="translate(-175.944 -257.592)" fill="#e3bc52"/>
        <path id="Trazado_104965" data-name="Trazado 104965" d="M216.52,292.565a3.475,3.475,0,0,0-3.614-1.461,4.221,4.221,0,0,0-2.873,6.068c1.73,2.8,6.476,1.639,7.114-1.47A5.076,5.076,0,0,0,216.52,292.565Zm-4.69,3.225a2.038,2.038,0,0,1,1.8-2.6c1.349-.154,2.319,1.916,1.5,2.894C214.418,296.946,212.29,297,211.829,295.79Z" transform="translate(-174.879 -256.539)" fill="#e3bc52"/>
        <path id="Trazado_104966" data-name="Trazado 104966" d="M234.128,284.9a6.21,6.21,0,0,0-.633-2.2,9.251,9.251,0,0,0-5.53-4.7,7.477,7.477,0,0,0-4.092.136,6.8,6.8,0,0,0-3.821,8.289c.147.449,1.8,3.6,2.3,3.422a6.037,6.037,0,0,0-3.569,4.089c-1.461,4.874,3.4,9.422,8.151,8.659,4.486-.723,5.613-6.227,3.617-9.739a5.448,5.448,0,0,0-1.264-1.456c.338.28,2.764-1.372,3.08-1.637A5.588,5.588,0,0,0,234.128,284.9Zm-12.792,9.253c1.292-3.408,6.154-2.243,7.429.6a3.994,3.994,0,0,1-.924,4.613,4.4,4.4,0,0,1-1.056.586C223.085,301.36,220.058,297.516,221.335,294.154Zm4.632-5.065c-2.78-.953-5.225-4.723-3.417-7.533a4.964,4.964,0,0,1,3.216-1.96,7.07,7.07,0,0,1,5.05,2.161,4.462,4.462,0,0,1-4.85,7.332Z" transform="translate(-174.007 -257.826)" fill="#e3bc52"/>
        <path id="Trazado_104967" data-name="Trazado 104967" d="M246.589,285.531a7.548,7.548,0,0,0-9.89-.126c-1.9,1.786-1.317,4.39,0,6.286a6.606,6.606,0,0,0,6.881,2.607C247.332,293.407,249.856,288.535,246.589,285.531ZM243,292.211c-3.394.622-7.706-2.712-4.73-5.635,2.715-2.664,10.374.078,7.048,4.271A3.746,3.746,0,0,1,243,292.211Z" transform="translate(-172.362 -257.259)" fill="#e3bc52"/>
        <path id="Trazado_104968" data-name="Trazado 104968" d="M248.795,301.529a10.283,10.283,0,0,0-3.619-4.587,12.02,12.02,0,0,0-6.9-2.486c-3.27.014-6.041,2.049-5.885,5.511.3,6.709,8.134,12.643,14.439,9.045,2.024-1.154,2.84-3.977,2.38-6.092A8.471,8.471,0,0,0,248.795,301.529Zm-8.139,5.7a11.13,11.13,0,0,1-3.368-2.277,10.182,10.182,0,0,1-2.15-3.059c-.666-1.688-1.011-4.564,1.31-4.9a11.711,11.711,0,0,1,7.682,1.959c2.232,1.451,3.707,4.6,2.195,7.112C245.037,308.207,242.735,308.114,240.655,307.226Z" transform="translate(-172.662 -256.209)" fill="#e3bc52"/>
        <path id="Trazado_104969" data-name="Trazado 104969" d="M265.937,304.123a13.115,13.115,0,0,0-1.127-4.137,12.492,12.492,0,0,0-3.975-5.156c-5.337-3.738-13.353-.216-11.381,6.848,1.585,5.673,6.985,10.081,13.061,8.544C265.475,309.474,266.2,306.8,265.937,304.123Zm-12.866.086a8.167,8.167,0,0,1-1.524-5.754c.453-2.9,4.007-3.366,6.256-2.646a8.312,8.312,0,0,1,4.636,4.3c.888,1.769,1.837,4.421,1.126,6.4a3.1,3.1,0,0,1-2.327,1.789,8.978,8.978,0,0,1-4.045-.579A10.741,10.741,0,0,1,253.072,304.208Z" transform="translate(-171.037 -256.32)" fill="#e3bc52"/>
        <path id="Trazado_104970" data-name="Trazado 104970" d="M270.114,311.667c-1.894-2.324-7.071-3.259-8.684-.071-1.371,2.708.511,6.175,3.089,7.341C269.582,321.234,273.63,315.989,270.114,311.667Zm-4.758,5.471a4.119,4.119,0,0,1-2.3-4.143c.373-2.379,4.2-1.274,5.33-.309C271.138,315.033,268.57,318.468,265.356,317.139Z" transform="translate(-169.892 -254.746)" fill="#e3bc52"/>
        <path id="Trazado_104971" data-name="Trazado 104971" d="M266.461,290.617a3.675,3.675,0,0,0-3.977,1.587,4.587,4.587,0,0,0,.11,4.7c1.127,1.947,3.5,4.073,5.853,3.133C273.874,297.86,269.943,291.635,266.461,290.617Zm-2.1,5.87a3.913,3.913,0,0,1-.506-1.34c-.219-1.268.114-3.047,1.785-2.827a4.507,4.507,0,0,1,3.61,3.636,2.3,2.3,0,0,1-.74,2.294,2.539,2.539,0,0,1-2.752-.356A5.56,5.56,0,0,1,264.363,296.487Z" transform="translate(-169.803 -256.594)" fill="#e3bc52"/>
      </g>
      <g id="Grupo_57341" data-name="Grupo 57341" transform="translate(5.492 9.641)">
        <path id="Trazado_104972" data-name="Trazado 104972" d="M182.423,260.011a5.14,5.14,0,0,0-1.536.924c-2.743,2.457-1.342,6.394,1.9,7.525a7.727,7.727,0,0,0,3.37.41,6,6,0,0,0,2.649-1.1,4.554,4.554,0,0,0-2.216-8.065A9.625,9.625,0,0,0,182.423,260.011Zm1.47,7.212a3.3,3.3,0,0,1-2.457-2.749c-.264-1.628,1-2.753,2.526-3.107a4.761,4.761,0,0,1,4.381.793,2.872,2.872,0,0,1-.746,4.528A4.81,4.81,0,0,1,183.893,267.223Z" transform="translate(-179.355 -259.614)" fill="#e4d700"/>
        <path id="Trazado_104973" data-name="Trazado 104973" d="M194.193,276.635a8.687,8.687,0,0,0-8.7-4.113c-6.351,1.01-7.73,8.56-4.318,13.132,3.338,4.472,11.244,5.43,14.181.132C197,282.836,196.187,279.272,194.193,276.635Zm-.294,7.688c-1.636,4.825-8.364,2.789-10.814.033a5.787,5.787,0,0,1,3.381-9.692c4.561-.743,7.487,4.087,7.8,8.056A8.1,8.1,0,0,1,193.9,284.323Z" transform="translate(-179.362 -258.373)" fill="#e4d700"/>
        <path id="Trazado_104974" data-name="Trazado 104974" d="M196.536,267.359a2.691,2.691,0,0,0-1.837-1.589,4.251,4.251,0,0,0-3.743.865A3.612,3.612,0,0,0,194,272.961a3.941,3.941,0,0,0,2.921-3.552A4.488,4.488,0,0,0,196.536,267.359Zm-2.161,4.022a2.329,2.329,0,0,1-3.347-1.82,2.608,2.608,0,0,1,3.112-2.573C196.677,267.4,196.227,270.357,194.375,271.381Z" transform="translate(-178.367 -259.029)" fill="#e4d700"/>
        <path id="Trazado_104975" data-name="Trazado 104975" d="M208.727,272.689c-1.11-4.56-6.692-4.325-9.809-2.186a5.766,5.766,0,0,0-2.645,4.214,4.39,4.39,0,0,0,1.152,3.233,5.118,5.118,0,0,0,3.688,1.224C204.394,279.268,209.719,276.764,208.727,272.689ZM198.534,276.8c-2.066-1.889,1.21-5.152,3.1-5.86a6.435,6.435,0,0,1,3.216-.281,2.874,2.874,0,0,1,2.208,1.694c.745,2.33-1.452,3.86-3.279,4.6-1.453.589-3.459,1.054-4.877.132A3.2,3.2,0,0,1,198.534,276.8Z" transform="translate(-177.723 -258.701)" fill="#e4d700"/>
        <path id="Trazado_104976" data-name="Trazado 104976" d="M216.183,271.852a3.256,3.256,0,0,0-2.426-.751,5.166,5.166,0,0,0-4.132,3.985,3.794,3.794,0,0,0,3.023,4.451c2.636.432,5.02-2.174,4.983-4.715A3.974,3.974,0,0,0,216.183,271.852Zm-1.554,5.418a2.11,2.11,0,0,1-2.819-.48,2.294,2.294,0,0,1,.457-3.289,2.48,2.48,0,0,1,3.6.634C216.536,275.451,215.892,276.525,214.629,277.27Z" transform="translate(-176.437 -258.502)" fill="#e4d700"/>
        <path id="Trazado_104977" data-name="Trazado 104977" d="M202.93,281.456a5.87,5.87,0,0,0-2.8,3.659c-.761,3.472.9,7.245,4.546,8.123,2.5.6,5.289.54,7.377-1.125,3.541-2.822,3.662-8.542-.54-10.8A8.453,8.453,0,0,0,202.93,281.456Zm.554,2.293c2.286-2.108,7.465-2.017,8.589,1.127,1.621,4.528-2.3,6.454-5.286,6.519a6.193,6.193,0,0,1-3.6-1.682,3.972,3.972,0,0,1-1.009-3.588A4.292,4.292,0,0,1,203.484,283.748Z" transform="translate(-177.366 -257.617)" fill="#e4d700"/>
        <path id="Trazado_104978" data-name="Trazado 104978" d="M217.938,292.59a3.473,3.473,0,0,0-3.613-1.461,4.222,4.222,0,0,0-2.873,6.068c1.729,2.8,6.48,1.639,7.114-1.47A5.085,5.085,0,0,0,217.938,292.59Zm-4.688,3.226a2.037,2.037,0,0,1,1.8-2.6c1.351-.152,2.319,1.916,1.5,2.894C215.838,296.97,213.709,297.024,213.249,295.816Z" transform="translate(-176.301 -256.564)" fill="#e4d700"/>
        <path id="Trazado_104979" data-name="Trazado 104979" d="M235.545,284.927a6.137,6.137,0,0,0-.632-2.2,9.246,9.246,0,0,0-5.529-4.7,7.5,7.5,0,0,0-4.093.135,6.8,6.8,0,0,0-3.82,8.292c.147.45,1.8,3.6,2.294,3.421a6.041,6.041,0,0,0-3.567,4.089c-1.462,4.875,3.4,9.422,8.152,8.659,4.483-.722,5.612-6.227,3.613-9.737a5.328,5.328,0,0,0-1.261-1.457c.338.28,2.765-1.371,3.081-1.637A5.578,5.578,0,0,0,235.545,284.927Zm-12.79,9.25c1.292-3.406,6.156-2.241,7.427.6a3.987,3.987,0,0,1-.919,4.611,4.507,4.507,0,0,1-1.059.588C224.507,301.386,221.481,297.541,222.755,294.178Zm4.632-5.063c-2.777-.953-5.225-4.723-3.417-7.534a4.964,4.964,0,0,1,3.216-1.958,7.047,7.047,0,0,1,5.048,2.161,4.613,4.613,0,0,1,.717,5.61A4.665,4.665,0,0,1,227.388,289.114Z" transform="translate(-175.429 -257.851)" fill="#e4d700"/>
        <path id="Trazado_104980" data-name="Trazado 104980" d="M248.009,285.557a7.546,7.546,0,0,0-9.89-.127c-1.9,1.786-1.317,4.39,0,6.285a6.608,6.608,0,0,0,6.881,2.61C248.752,293.432,251.275,288.56,248.009,285.557Zm-3.59,6.679c-3.394.622-7.71-2.71-4.731-5.635,2.713-2.664,10.373.078,7.047,4.271A3.747,3.747,0,0,1,244.419,292.236Z" transform="translate(-173.784 -257.285)" fill="#e4d700"/>
        <path id="Trazado_104981" data-name="Trazado 104981" d="M250.217,301.555a10.3,10.3,0,0,0-3.621-4.588,12.025,12.025,0,0,0-6.9-2.486c-3.27.014-6.041,2.049-5.886,5.512.3,6.708,8.135,12.642,14.44,9.044,2.022-1.153,2.838-3.977,2.383-6.093A9.172,9.172,0,0,0,250.217,301.555Zm-8.141,5.7a11.094,11.094,0,0,1-3.366-2.276,10.209,10.209,0,0,1-2.151-3.06c-.666-1.687-1.011-4.563,1.308-4.9a11.723,11.723,0,0,1,7.686,1.959c2.23,1.45,3.7,4.6,2.192,7.113C246.454,308.233,244.155,308.14,242.076,307.251Z" transform="translate(-174.084 -256.234)" fill="#e4d700"/>
        <path id="Trazado_104982" data-name="Trazado 104982" d="M267.357,304.148a13.186,13.186,0,0,0-1.127-4.135,12.507,12.507,0,0,0-3.975-5.157c-5.337-3.738-13.351-.215-11.381,6.848,1.584,5.673,6.986,10.08,13.059,8.544C266.893,309.5,267.614,306.82,267.357,304.148Zm-12.864.087a8.155,8.155,0,0,1-1.526-5.756c.453-2.9,4.007-3.366,6.255-2.646a8.325,8.325,0,0,1,4.637,4.3c.888,1.77,1.835,4.422,1.125,6.4a3.094,3.094,0,0,1-2.325,1.79,8.965,8.965,0,0,1-4.043-.578A10.712,10.712,0,0,1,254.494,304.235Z" transform="translate(-172.459 -256.345)" fill="#e4d700"/>
        <path id="Trazado_104983" data-name="Trazado 104983" d="M271.534,311.693c-1.892-2.324-7.07-3.26-8.684-.072-1.371,2.708.512,6.175,3.089,7.341C271,321.259,275.052,316.014,271.534,311.693Zm-4.758,5.47a4.119,4.119,0,0,1-2.3-4.143c.375-2.378,4.2-1.272,5.33-.308C272.555,315.058,269.988,318.493,266.776,317.164Z" transform="translate(-171.314 -254.771)" fill="#e4d700"/>
        <path id="Trazado_104984" data-name="Trazado 104984" d="M267.884,290.643a3.679,3.679,0,0,0-3.98,1.585,4.587,4.587,0,0,0,.11,4.7c1.127,1.948,3.458,3.942,5.853,3.133C274.527,298.48,271.363,291.661,267.884,290.643Zm-2.1,5.869a3.862,3.862,0,0,1-.508-1.339c-.217-1.269.114-3.048,1.787-2.827a4.509,4.509,0,0,1,3.608,3.635,2.3,2.3,0,0,1-.738,2.293,2.539,2.539,0,0,1-2.753-.354A5.473,5.473,0,0,1,265.785,296.512Z" transform="translate(-171.225 -256.619)" fill="#e4d700"/>
      </g>
    </g>
    <g id="Grupo_57343" data-name="Grupo 57343" transform="translate(174.355 298.363)">
      <path id="Trazado_104985" data-name="Trazado 104985" d="M229.841,306.6c-10.962-4.269-22.109-8.094-33.04-12.44-7.325-2.915-14.42-6.5-21.687-9.6v31.805L283.742,362.4V330.256C265.77,322.377,248.142,313.728,229.841,306.6Z" transform="translate(-174.281 -283.734)" fill="#fdedcc"/>
      <path id="Trazado_104986" data-name="Trazado 104986" d="M283.815,363.3a.853.853,0,0,1-.325-.065L174.862,317.214a.839.839,0,0,1-.507-.769V284.64a.832.832,0,0,1,1.159-.766c3.075,1.312,6.166,2.729,9.156,4.1,4.081,1.875,8.3,3.81,12.513,5.489,5.891,2.341,11.95,4.571,17.809,6.724,5,1.842,10.174,3.745,15.226,5.714,12.169,4.738,24.228,10.232,35.889,15.548,5.9,2.69,12,5.47,18.042,8.117a.833.833,0,0,1,.5.763v32.142a.832.832,0,0,1-.833.833Zm-107.8-47.41,106.963,45.32V330.875c-5.886-2.588-11.819-5.292-17.566-7.909-11.639-5.307-23.678-10.792-35.8-15.514-5.037-1.961-10.2-3.861-15.2-5.7-5.87-2.161-11.938-4.393-17.849-6.743-4.256-1.694-8.495-3.641-12.594-5.523-2.6-1.193-5.281-2.425-7.954-3.583Z" transform="translate(-174.355 -283.807)" fill="#ea9a92"/>
    </g>
    <g id="Grupo_57345" data-name="Grupo 57345" transform="translate(175.021 300.977)">
      <path id="Trazado_104987" data-name="Trazado 104987" d="M261.022,332.207a.854.854,0,0,0,.342.056,30.986,30.986,0,0,0,10.752,5c3.686.886,7.331,1.361,10.843,2.671v-2.429a32.223,32.223,0,0,0-3.1-.977c-5.269-1.345-10.419-1.808-15.4-4.214a31.729,31.729,0,0,1-4.722-3.132c.135.015.271.038.41.053,7.322.736,14.49-.27,21.674.008-1.017-.435-4.4-2-5.848-2.609-3.882.143-7.46.517-11.045.556a35.286,35.286,0,0,1-17.56-4.075c-2.784-1.478-5.309-3.113-8.05-4.362.864.041,1.723.075,2.567.1a167.571,167.571,0,0,1,21.064,1.831s-1.018-.464-1.379-.625a42.425,42.425,0,0,0-13.719-2.74c-7.323-.207-14.821-.105-21.7-2.991-9.883-4.143-13.585-14.831-23.3-18.055-.144-.047-1.865-.652-1.734-.592,5.308,2.456,9.17,7.026,12.844,11.4.394.471.846.9,1.269,1.346-6.745-2.523-14.9-2.058-21.382-5.249a33.016,33.016,0,0,1-5.043-3.111c-.11-.082-.222-.17-.336-.247-5.084-3.861-9.157-8.91-13.508-13.636v1.543a111.453,111.453,0,0,0,8.661,10,32.67,32.67,0,0,0-5.554-.756c-1.04-.066-2.073-.14-3.108-.225v1.815c2.319.2,4.642.3,6.952.619a18.72,18.72,0,0,1,5.537,1.954c.963.759,1.964,1.491,3.03,2.18a30.155,30.155,0,0,0,9.86,3.969c3.576,2.307,6.543,5.433,10.015,7.79-1.3-.242-2.58-.441-3.791-.637-5.448-.882-11.045-.778-16.452-1.885-5.869-1.2-9.2-6.821-13.08-10.842a21.773,21.773,0,0,0-2.072-1.868v2.475c.839.792,1.66,1.606,2.423,2.468a50.993,50.993,0,0,0,6.305,6.583,27.492,27.492,0,0,0-8.728-1.474v1.642a31.076,31.076,0,0,1,8.6,1.568,25.966,25.966,0,0,1,6.246,3.427c3.935,3.725,8.134,6.994,13.576,8.526a71.531,71.531,0,0,1,8.453,6.715c2.3.928,7.049,2.977,7.367,3.111-1.075-.8-9.162-6.833-11.96-9.112a57.171,57.171,0,0,0,9.2-.077c4.887-.3,8.966.609,13.412,1.734a29,29,0,0,0,4.319,1.764c2.641,3.24,4.891,6.533,8.562,8.988.076.05.158.092.236.144-.048,0-.1-.008-.145-.008a58.1,58.1,0,0,0-12.129,1.439l.045.016c.567.237,1.138.468,1.7.7.34.145.669.293.993.453a67.146,67.146,0,0,1,6.7-.66,33.458,33.458,0,0,1,9.273,1.025c.585.184,1.178.351,1.773.5a49.154,49.154,0,0,1,7.245,2.9c9.075,4.434,16.537,11.122,24.527,17.091v-3.079c-2.715-2.372-5.731-4.514-8.4-6.465a120,120,0,0,0-14.179-8.951c4.8.448,9.631.465,14.451.516a51.118,51.118,0,0,1,8.124.758v-2.721c-6.772-.9-14.116-.252-20.333-.666-6.114-.4-12.059-1.384-17.566-4.173-3.364-1.7-5.645-4.576-8.215-7.108C244.8,331.425,253.408,329.263,261.022,332.207ZM206.165,309.17c-.513-.394-1.044-.737-1.578-1.074a73.19,73.19,0,0,1,14.238,3.646,37.6,37.6,0,0,0,6.587,4.175c.577.283,1.178.508,1.777.736a61.389,61.389,0,0,1-10.07-.788C212.586,314.954,209.669,311.854,206.165,309.17Zm14.95,14.393c-4.956-.242-9.805.655-14.768.023a23.762,23.762,0,0,1-12.4-5.651,25.785,25.785,0,0,0-2.917-2.606c-.332-.3-.665-.614-1-.914,3.832.9,8.15.79,11.884,1.152,5.386.523,10.366,2.211,15.626,3.159,2.142,1.786,4.33,3.575,6.612,5.206A21.488,21.488,0,0,0,221.115,323.562Zm-1.432-4.948c5.812.9,12.048.362,17.82.92,6.064,3.8,12.095,7.574,19.059,9.119l.144.115c-.831-.093-1.682-.142-2.522-.2-4.874-.32-9.769-.167-14.633-.633C231.758,327.193,226.032,322.5,219.684,318.614Z" transform="translate(-174.962 -286.19)" fill="#f65857"/>
      <g id="Grupo_57344" data-name="Grupo 57344" transform="translate(7.165 8.712)">
        <path id="Trazado_104988" data-name="Trazado 104988" d="M197.164,296.538c-.022-.019-.05-.036-.075-.056a11.894,11.894,0,0,0-3.413-1.837c-1.322-.537-3.341-.943-4.357.348-1.384,1.765.833,3.747,2.171,4.594,1.431.908,5.084,2.274,6.621.92C199.632,299.165,198.381,297.574,197.164,296.538Z" transform="translate(-180.778 -294.132)" fill="#f65857"/>
        <path id="Trazado_104989" data-name="Trazado 104989" d="M195.317,307.731c-.941-1.456-2.847-2.48-4.346-3.264S187.1,302.74,185.4,303.3c-1.266.42-1.173,1.8-.539,2.692a10.124,10.124,0,0,0,6.443,3.538,5.081,5.081,0,0,0,3.422.364A1.454,1.454,0,0,0,195.317,307.731Z" transform="translate(-181.211 -293.26)" fill="#f65857"/>
        <path id="Trazado_104990" data-name="Trazado 104990" d="M188.751,315.244c-1.689-1.58-3.905-2.8-6.256-2.109-1.379.406-1.166,1.541-.369,2.438.816,1.842,3.771,2.579,5.548,2.668.748.038,1.769-.038,2.1-.845C190.113,316.548,189.307,315.765,188.751,315.244Z" transform="translate(-181.494 -292.309)" fill="#f65857"/>
        <path id="Trazado_104991" data-name="Trazado 104991" d="M209.506,316.682c-1.14-1.394-3.54-1.966-5.208-2.321-1.392-.3-5.519-1.442-5.935.918-.31,1.763,1.946,3.073,3.216,3.708a11.3,11.3,0,0,0,3.7.991,6.514,6.514,0,0,0,3.15-.05A1.972,1.972,0,0,0,209.506,316.682Z" transform="translate(-179.862 -292.224)" fill="#f65857"/>
        <path id="Trazado_104992" data-name="Trazado 104992" d="M214.7,310.793c-.162-.663-.989-1.15-1.548-1.427a4.142,4.142,0,0,0-2.019-.491,2.586,2.586,0,0,0-.792.106,1.1,1.1,0,0,0-.667,1.384c.373,1.46,2.423,2.474,3.83,2.239A1.4,1.4,0,0,0,214.7,310.793Z" transform="translate(-178.767 -292.704)" fill="#f65857"/>
        <path id="Trazado_104993" data-name="Trazado 104993" d="M224.767,306.6a9.5,9.5,0,0,0-5.09-1.572c-1.459,0-2.776,1.3-1.81,2.75a6.454,6.454,0,0,0,2.762,2.181c1.751,1.124,4.368,1.551,5.6.362C227.644,308.96,225.854,307.36,224.767,306.6Z" transform="translate(-178 -293.076)" fill="#f65857"/>
        <path id="Trazado_104994" data-name="Trazado 104994" d="M223.53,325.378a14.634,14.634,0,0,0-5.323-.439c-1.387.172-2.051,1.331-1.162,2.39,1.1,1.314,10.665,5.255,10.276,1.5C227.131,326.99,225.465,325.931,223.53,325.378Z" transform="translate(-178.087 -291.154)" fill="#f65857"/>
        <path id="Trazado_104995" data-name="Trazado 104995" d="M232.383,317.522c-1.71-.668-5.13-1.439-6.5.318-1.673,2.148,1.5,4.718,3.9,4.787,2.661.971,7.443,1.97,7.188-1.132C236.817,319.525,233.919,318.124,232.383,317.522Z" transform="translate(-177.236 -291.939)" fill="#f65857"/>
        <path id="Trazado_104996" data-name="Trazado 104996" d="M249.5,317.812c-1.223-.011-3.794-.173-3.637,1.763.067.819.768,1.344,1.652,1.691l.005.008c1.329,1.286,3.814,1.568,5.522,1.719,1.246.113,2.987.072,3.716-1.124C258.845,318.437,251.061,317.822,249.5,317.812Z" transform="translate(-175.255 -291.838)" fill="#f65857"/>
        <path id="Trazado_104997" data-name="Trazado 104997" d="M256.423,331.921c-1.32-1.938-5.151-2.273-7.209-2.629-1.645-.286-3.76-.81-5.2.336-1.637,1.311-.374,3.282.862,4.278,2.124,1.708,5.645,2.166,8.282,2.118,1.625-.032,3.781-.869,3.56-2.587A1.732,1.732,0,0,0,256.423,331.921Z" transform="translate(-175.509 -290.76)" fill="#f65857"/>
        <path id="Trazado_104998" data-name="Trazado 104998" d="M274.242,328.44c-1.493-2.1-6.986-2.072-8.854-1.845-1.2.147-2.3,1.087-1.424,2.289a2.111,2.111,0,0,0,.8.627,7.024,7.024,0,0,0,3.364,1.427c1.167.273,4.916,1.161,6.119-.146Z" transform="translate(-173.531 -290.996)" fill="#f65857"/>
        <path id="Trazado_104999" data-name="Trazado 104999" d="M274.21,343.1a21.717,21.717,0,0,0-3.63-1.813c-1.5-.607-7.523-1.755-6.48,1.793.974,3.319,6.849,4.511,9.747,4.074.122.016.241.013.362.023Z" transform="translate(-173.499 -289.626)" fill="#f65857"/>
      </g>
    </g>
    <g id="Grupo_57346" data-name="Grupo 57346" transform="translate(294.336 186.973)">
      <path id="Trazado_105000" data-name="Trazado 105000" d="M309.822,182.274c-4.752.066-9.5.188-14.243.456-3.948.222-7.831.09-11.684,1.108-.273.071-.174.514.1.478,8.419-1.045,17.5-.223,25.981-.114,9.539.124,19.035.408,28.568-.146.215-.012.242-.371.018-.385C328.961,183.04,319.46,182.138,309.822,182.274Z" transform="translate(-283.734 -182.26)" fill="#cf9060"/>
      <path id="Trazado_105001" data-name="Trazado 105001" d="M298.667,187.684c-4.122.216-8.184-.224-12.232.762-.238.057-.139.414.088.407,15.865-.591,31.743.94,47.618-.366.286-.025.326-.491.024-.517-7.678-.627-15.37-.619-23.066-.613Q304.879,187.362,298.667,187.684Z" transform="translate(-283.485 -181.767)" fill="#cf9060"/>
      <path id="Trazado_105002" data-name="Trazado 105002" d="M380.112,189.47c-5.5.242-11.014.325-16.52.416-5.463.091-10.968-.231-16.362.781-.46.087-.423.8.059.74,4.962-.595,9.933.112,14.908.2,5.532.1,11.065.144,16.6.033,11.881-.238,23.724-.169,35.605-.041,23.221.255,46.544,1.2,69.757.607.382-.009.417-.647.032-.67-22.768-1.224-45.546-2.05-68.344-2.232C403.921,189.208,392.029,188.946,380.112,189.47Z" transform="translate(-277.61 -181.592)" fill="#cf9060"/>
      <path id="Trazado_105003" data-name="Trazado 105003" d="M430.734,183.5c-24.532.429-49.107.425-73.63,1.135-.659.02-.551.981.081,1,24.605.738,49.133.744,73.74.212,11.939-.257,23.882.1,35.821.315q8.994.161,17.992.138c6.318-.015,12.445-.8,18.727-1.281.216-.018.178-.314-.026-.324-11.713-.528-23.513-.4-35.243-.746C455.711,183.585,443.223,183.283,430.734,183.5Z" transform="translate(-276.665 -182.147)" fill="#cf9060"/>
    </g>
    <g id="Grupo_57347" data-name="Grupo 57347" transform="translate(174.356 133.641)">
      <path id="Trazado_105004" data-name="Trazado 105004" d="M421.626,134.418,175.114,134.4,283.746,181.04H530.21Z" transform="translate(-174.282 -133.567)" fill="#e28e6d"/>
      <path id="Trazado_105005" data-name="Trazado 105005" d="M530.283,181.946H283.82a.841.841,0,0,1-.329-.067L174.86,135.239a.833.833,0,0,1,.328-1.6h0l246.512.018a.848.848,0,0,1,.328.068l108.585,46.622a.832.832,0,0,1-.329,1.6ZM283.99,180.28H526.233L421.527,135.325l-242.285-.02Z" transform="translate(-174.355 -133.641)" fill="#be5945"/>
    </g>
    <path id="Trazado_105006" data-name="Trazado 105006" d="M390.393,168.9c-8.228-3.119-19.868-12.888-14.182-22.983,2.566-4.551,7.229-7.264,12.716-8.9-4.061.588-8.134,1.232-12.25,1.911-9.914,1.639-17.986,4.029-27.577-.06a62.6,62.6,0,0,0-22.711-4.474c-4.8-.093-9.62,0-14.423.014,2.986.278,8.451.183,10.739,2.551,2.426,2.513-.5,4.278-2.927,5.2-5.843,2.236-12.774,2.029-18.925,2.259-7.332.275-14.665.555-21.865,2.089-13.528,2.885-25.975,7.765-39.877,9.246a144.01,144.01,0,0,0-14.4,2.173c.778.314,1.554.625,2.328.952a32.792,32.792,0,0,1,3.535,1.379c4.152,1.872,8.362,3.556,12.334,5.713.032-.065.043-.124.078-.19,4.177-7.957,16.106-9.13,23.783-10.717,12.47-2.581,25.025-4.8,37.677-6.266,12.932-1.5,26.2-2.757,39.168-1.052a20.917,20.917,0,0,1,8.521,3.017,37.618,37.618,0,0,1,4.526,2.2c4.745,2.741,9.857,5.861,12.981,10.526,8.082,12.062-12.175,11.7-19.133,10.673-6.664-.981-13.223-3.105-19.931-3.7a79.613,79.613,0,0,0-19.3.811c-10.864,1.689-21.922,5.178-32.671,1.353-6.43-2.286-12.609-3.557-19.467-2.774-1.856.212-3.724.36-5.593.434A248.812,248.812,0,0,1,278.3,181.228q18.448-.067,36.9-.138,25.372-.092,50.746-.152,26.043-.059,52.084-.067l107.374.174C515.9,180.757,405.245,174.527,390.393,168.9Z" transform="translate(4.881 0.069)" fill="#e28e6d" opacity="0.3" style="mix-blend-mode: multiply;isolation: isolate"/>
    <path id="Trazado_105007" data-name="Trazado 105007" d="M520.611,180.96l-246.464.075V372.44H520.611Z" transform="translate(9.673 4.587)" fill="#e3c19b" opacity="0.5" style="mix-blend-mode: multiply;isolation: isolate"/>
    <path id="Trazado_105008" data-name="Trazado 105008" d="M520.611,187.186l-246.464.051v184.6H520.611Z" transform="translate(9.673 5.19)" fill="#e3c19b" opacity="0.5" style="mix-blend-mode: multiply;isolation: isolate"/>
    <g id="Grupo_57348" data-name="Grupo 57348" transform="translate(282.985 198.729)">
      <rect id="Rect치ngulo_5826" data-name="Rect치ngulo 5826" width="246.464" height="177.465" transform="translate(0.834 0.834)" fill="#f6bce2"/>
      <path id="Trazado_105009" data-name="Trazado 105009" d="M520.684,372.109H274.221a.833.833,0,0,1-.835-.833V193.811a.833.833,0,0,1,.835-.834H520.684a.832.832,0,0,1,.833.834V371.276A.832.832,0,0,1,520.684,372.109Zm-245.631-1.665h244.8v-175.8h-244.8Z" transform="translate(-273.386 -192.977)" fill="#ea9a92"/>
    </g>
    <path id="Trazado_105010" data-name="Trazado 105010" d="M520.61,200.283q-10.215.214-20.43.422c-52.951,1.079-105.869,2-158.827.8-12.413-.281-24.832-.475-37.246-.451q-5.418.012-10.833.1c-6.407.106-12.976-.211-19.127-2.15V370.692H520.61Z" transform="translate(9.673 6.336)" fill="#f7d9e7" style="mix-blend-mode: multiply;isolation: isolate"/>
    <path id="Trazado_105011" data-name="Trazado 105011" d="M520.61,208.711q-11.029-.257-22.068-.43c-41.388-.586-82.7,1.5-124.049,2.992-14.965.541-29.939.86-44.913.664-17.935-.237-37.817,1.01-55.433-2.786V369.8H520.61Z" transform="translate(9.673 7.225)" fill="#f7d9e7" style="mix-blend-mode: multiply;isolation: isolate"/>
    <g id="Grupo_57349" data-name="Grupo 57349" transform="translate(282.985 226.187)">
      <path id="Trazado_105012" data-name="Trazado 105012" d="M520.61,219.4c-9.007-.313-18.016-.533-27.03-.607-46.8-.365-93.406,4.619-140.141,6.121-26.439.849-52.992.53-79.292-2.527V368.776H520.61Z" transform="translate(-273.312 -217.935)" fill="#fab9bc"/>
      <path id="Trazado_105013" data-name="Trazado 105013" d="M520.684,369.682H274.221a.833.833,0,0,1-.835-.833V222.456a.835.835,0,0,1,.279-.622.807.807,0,0,1,.649-.205,476.086,476.086,0,0,0,55.214,2.928c7.613,0,15.451-.134,23.957-.407,18.417-.592,37.128-1.743,55.222-2.856,27.817-1.714,56.6-3.492,84.954-3.264,8.328.067,17.177.265,27.054.607a.833.833,0,0,1,.8.834V368.85A.832.832,0,0,1,520.684,369.682Zm-245.631-1.665h244.8V220.272c-9.539-.325-18.12-.513-26.2-.576-28.335-.22-57.051,1.547-84.838,3.261-18.109,1.113-36.829,2.266-55.272,2.859-8.524.273-16.377.407-24.011.407a479.219,479.219,0,0,1-54.475-2.834Z" transform="translate(-273.386 -218.009)" fill="#ea9a92"/>
    </g>
    <g id="Grupo_57350" data-name="Grupo 57350" transform="translate(293.454 208.292)" opacity="0.5">
      <path id="Trazado_105014" data-name="Trazado 105014" d="M283.2,214.848c-.333.023-.372.566-.027.592,9.1.715,18.278,2.022,27.4,2.285,9.513.275,18.912-.646,28.414.428a.234.234,0,0,0,.08-.462c-8.827-1.754-18.008-.894-26.952-1.449C302.406,215.637,292.956,214.193,283.2,214.848Z" transform="translate(-282.93 -200.436)" fill="#fff"/>
      <path id="Trazado_105015" data-name="Trazado 105015" d="M287.753,210.67c-.231,0-.192.342.029.349,15.706.5,31.492,1.512,47.2.6.246-.015.275-.423.023-.439C319.289,210.238,303.482,210.2,287.753,210.67Z" transform="translate(-282.478 -200.854)" fill="#fff"/>
      <path id="Trazado_105016" data-name="Trazado 105016" d="M361.544,204.133c-5.139-.371-10.443-1.091-15.58-.4a.294.294,0,0,0-.026.58,192.063,192.063,0,0,0,29.422,1.745c10.89-.075,21.962-.06,32.83-.769.173-.01.193-.3.015-.308-9.9-.619-19.913-.053-29.833-.186C372.747,204.715,367.159,204.537,361.544,204.133Z" transform="translate(-276.846 -201.525)" fill="#fff"/>
      <path id="Trazado_105017" data-name="Trazado 105017" d="M375.091,211.164c-8.734.015-17.642-.96-26.341-.066-.321.033-.369.541-.031.58a202.194,202.194,0,0,0,25.028,1.041c3.913-.038,7.817-.156,11.723-.419,4.173-.281,8.261-1.263,12.45-1.368a.1.1,0,0,0,.008-.192C390.439,209.936,382.632,211.151,375.091,211.164Z" transform="translate(-276.576 -200.845)" fill="#fff"/>
      <path id="Trazado_105018" data-name="Trazado 105018" d="M416.83,202.264c-.342.016-.283.506.043.52,11.678.5,23.387.453,35.07.716,5.593.125,11.19-.036,16.782,0,5.8.035,11.757-.918,17.5.061.271.047.324-.336.072-.411-5.265-1.541-10.609-.779-16.014-1.055-5.642-.292-11.286-.282-16.935-.346C441.15,201.615,429.024,201.71,416.83,202.264Z" transform="translate(-269.974 -201.695)" fill="#fff"/>
      <path id="Trazado_105019" data-name="Trazado 105019" d="M413.035,208.563c-.293.026-.333.5-.025.528a396.646,396.646,0,0,0,56.687,1.436c.041,0,.033-.064-.008-.065q-14.412-.622-28.827-1.212C431.628,208.87,422.273,207.712,413.035,208.563Z" transform="translate(-270.342 -201.059)" fill="#fff"/>
      <path id="Trazado_105020" data-name="Trazado 105020" d="M499.421,213.2c-2.134-.055-4.271-.108-6.407-.125-.332,0-.34.51-.027.566,2.13.383,4.278.661,6.435.889Z" transform="translate(-262.592 -200.592)" fill="#fff"/>
    </g>
    <g id="Grupo_57351" data-name="Grupo 57351" transform="translate(297.103 241.902)">
      <path id="Trazado_105021" data-name="Trazado 105021" d="M318.477,276.745a1.877,1.877,0,0,0-.121,2.252,1.787,1.787,0,0,0,1.724.759,2,2,0,0,0,.382-.043.369.369,0,0,1,.051-.007l.094-.021-.056,0a1.564,1.564,0,0,0,1.19-1.7A1.875,1.875,0,0,0,318.477,276.745Z" transform="translate(-283.176 -228.091)" fill="#f8979a"/>
      <path id="Trazado_105022" data-name="Trazado 105022" d="M317.337,252.17a2.688,2.688,0,0,0,.565,4.785,2.122,2.122,0,0,0,2.135-.245,4.772,4.772,0,0,0,.622-.317,2.161,2.161,0,0,0,.168-3.438A2.445,2.445,0,0,0,317.337,252.17Z" transform="translate(-283.363 -230.454)" fill="#f8979a"/>
      <path id="Trazado_105023" data-name="Trazado 105023" d="M301.535,238.821a15.864,15.864,0,0,0-7.217,2.279,3.7,3.7,0,0,0-.149,6.212,6.3,6.3,0,0,0,3.952,1.007c3.419.072,7.544-.588,9.109-4.043C308.919,240.538,304.531,238.545,301.535,238.821Z" transform="translate(-285.646 -231.709)" fill="#f8979a"/>
      <path id="Trazado_105024" data-name="Trazado 105024" d="M293.711,267c-2.433.778-5.84,2.142-7.05,4.593-1.426,2.9,1.143,5.944,4.182,5.873a10.848,10.848,0,0,0,2.007-.272,17.843,17.843,0,0,0,5.083-.985c3.318-1.151,7.166-5.009,3.834-8.411C299.615,265.6,296.324,266.165,293.711,267Z" transform="translate(-286.256 -229.047)" fill="#f8979a"/>
      <path id="Trazado_105025" data-name="Trazado 105025" d="M362.482,259.62A1.866,1.866,0,0,0,363.9,262.7c.02,0,.039.011.059.015,2.218.489,2.842-3.161.744-3.463a.905.905,0,0,0-.126-.088A1.83,1.83,0,0,0,362.482,259.62Z" transform="translate(-278.911 -229.751)" fill="#f8979a"/>
      <path id="Trazado_105026" data-name="Trazado 105026" d="M355.43,282.695a4.437,4.437,0,0,0-1.953.759,2.674,2.674,0,0,0-.894,2.753,3.458,3.458,0,0,0,2.792,2.128,5.743,5.743,0,0,0,3.064-.555,2.261,2.261,0,0,0,1.1-3.352c-.059-.089-.137-.157-.2-.238a2.083,2.083,0,0,0-1.116-1.2A4.54,4.54,0,0,0,355.43,282.695Z" transform="translate(-279.841 -227.464)" fill="#f8979a"/>
      <path id="Trazado_105027" data-name="Trazado 105027" d="M390.122,281.452a3.266,3.266,0,0,0,.2,3.123,2.454,2.454,0,0,0,2.522,1.884c1.734-.021,3.8-.574,4.768-1.887a2.6,2.6,0,0,0,.615-2.07,3.518,3.518,0,0,0-3.391-3.182C393.023,279.165,390.966,279.646,390.122,281.452Z" transform="translate(-276.218 -227.784)" fill="#f8979a"/>
      <path id="Trazado_105028" data-name="Trazado 105028" d="M364.857,235.806c-2.468,1.112-4.5,3.168-4.61,5.993-.12,3.042,2,5.05,4.925,5.411,2.768.339,5.957-.652,8.495-1.643.111-.044.228-.1.347-.147,3.974-1.135,9.182-3.988,6.779-8.677C378.081,231.456,369.125,233.878,364.857,235.806Z" transform="translate(-279.085 -232.219)" fill="#f8979a"/>
      <path id="Trazado_105029" data-name="Trazado 105029" d="M417.821,238.614a2.907,2.907,0,0,0,1.871,1.983,5.49,5.49,0,0,0,2.223.555c2,.093,4.27-1.345,5.546-2.77,1.62-1.812,1.23-5.018-1.268-5.817C422.813,231.486,416.51,234.325,417.821,238.614Z" transform="translate(-273.521 -232.335)" fill="#f8979a"/>
      <path id="Trazado_105030" data-name="Trazado 105030" d="M436.093,259.109a2.789,2.789,0,0,0-.336-.186,3.29,3.29,0,0,0-1.736-.4c-.053,0-.1-.014-.148-.014a6.273,6.273,0,0,0-3.28,1.055,6.381,6.381,0,0,0-2.494,2.629c-1.18,2.592,1.175,4.918,3.731,4.724a7.441,7.441,0,0,0,5.112-2.853,3.5,3.5,0,0,0,.42-3.495,3.426,3.426,0,0,0-1.03-1.272c-.05-.045-.1-.1-.148-.138C436.155,259.136,436.122,259.131,436.093,259.109Z" transform="translate(-272.538 -229.798)" fill="#f8979a"/>
      <path id="Trazado_105031" data-name="Trazado 105031" d="M448.312,236.725c0,2.707,4.178,2.346,4.178-.338C452.49,233.68,448.312,234.042,448.312,236.725Z" transform="translate(-270.548 -232.123)" fill="#f8979a"/>
      <path id="Trazado_105032" data-name="Trazado 105032" d="M474.037,251.794a2.164,2.164,0,0,0-1.664,1.184,1.81,1.81,0,1,0,3.422,1.079c.012-.1.025-.194.035-.292C475.946,252.789,475.167,251.576,474.037,251.794Z" transform="translate(-268.235 -230.452)" fill="#f8979a"/>
      <path id="Trazado_105033" data-name="Trazado 105033" d="M499.249,245.892l-.05-.013c-.089-.013-.18,0-.271-.01a3.579,3.579,0,0,0-.393-.014,4.83,4.83,0,0,0-.488.011c-.037,0-.069.014-.1.02a3.826,3.826,0,0,0-2.459,1.244,2.024,2.024,0,0,0-.228.381,2.282,2.282,0,0,0,.016,3.347,4.389,4.389,0,0,0,3.977.912Z" transform="translate(-266.068 -231.025)" fill="#f8979a"/>
    </g>
    <path id="Trazado_105034" data-name="Trazado 105034" d="M520.61,234.054a41.136,41.136,0,0,0-20.9-.9c-12.695,2.491-24.832,7.752-37.741,9.216-15.126,1.711-28.014-4.8-42.843-5.829A59.968,59.968,0,0,0,393.17,240c-7.127,2.741-14.4,6.007-22.024,7.28-6.3,1.056-12.787,1.362-19.059-.121-6.362-1.5-12.325-4.273-18.688-5.708a45.2,45.2,0,0,0-29.251,3.7c-5.149,2.441-10.24,5.359-15.729,7.061-4.909,1.524-9.446,2.206-14.272,1.312V367.472H520.61Z" transform="translate(9.673 9.556)" fill="#fab9bc" opacity="0.5" style="mix-blend-mode: multiply;isolation: isolate"/>
    <path id="Trazado_105035" data-name="Trazado 105035" d="M520.61,270.347a99.633,99.633,0,0,1-16.554,3.956,49.861,49.861,0,0,1-24.912-3.765c-12.451-5.052-23.235-6.956-36.415-2.717-7.628,2.454-15.6,5.967-23.859,6.065-10.991.127-21.133-4.619-32.048-5.339-12.03-.8-21.222,2.624-32.139,6.552-9.789,3.524-17.872,4.581-27.822,1.022-10.639-3.8-23.374-9.318-34.594-3.4-5.16,2.724-11.7,7.921-18.12,6.3v85.226H520.61Z" transform="translate(9.673 12.78)" fill="#fbcfcf" opacity="0.5" style="mix-blend-mode: multiply;isolation: isolate"/>
    <g id="Grupo_57352" data-name="Grupo 57352" transform="translate(282.985 300.586)">
      <path id="Trazado_105036" data-name="Trazado 105036" d="M520.61,291.3c-3.7-.491-7.411-.989-11.148-1.459-21.258-2.671-42.831-4.517-64.213-2.177-11.769,1.289-23.7,4.015-35.675,4.426-12.022.411-24.053-1.434-36.017-2.366-17.481-1.362-34.059.581-51.345,3.044-10.1,1.439-20.281,2.723-30.51,2.467-6.07-.151-11.861-.148-17.555-2.034v69H520.61Z" transform="translate(-273.312 -285.76)" fill="#fdecea"/>
      <path id="Trazado_105037" data-name="Trazado 105037" d="M520.684,363.108H274.221a.833.833,0,0,1-.835-.833v-69a.833.833,0,0,1,1.095-.79c5.163,1.71,10.427,1.83,16,1.96l1.318.031c10.334.26,20.7-1.082,30.374-2.46,11.891-1.693,25.738-3.5,39.63-3.5,4.049,0,8.05.151,11.9.452,3.434.268,6.933.618,10.314.952,8.4.838,17.08,1.706,25.607,1.413a188.608,188.608,0,0,0,22.165-2.542c4.416-.684,8.983-1.391,13.452-1.88a188.753,188.753,0,0,1,20.713-1.076c15.777,0,31.638,1.74,43.693,3.255,3.518.441,7.014.909,10.5,1.372l.658.088a.833.833,0,0,1,.721.825v70.9A.832.832,0,0,1,520.684,363.108Zm-245.631-1.665h244.8V292.1c-3.458-.461-6.927-.925-10.42-1.363-12.007-1.507-27.8-3.24-43.484-3.24a187.127,187.127,0,0,0-20.533,1.065c-4.432.486-8.979,1.189-13.377,1.87a189.06,189.06,0,0,1-22.362,2.557c-8.63.294-17.379-.575-25.828-1.414-3.374-.337-6.86-.686-10.28-.951-3.8-.3-7.762-.446-11.768-.446-13.784,0-27.563,1.8-39.4,3.484-9.737,1.387-20.178,2.73-30.651,2.476l-1.314-.031c-5.312-.123-10.352-.241-15.384-1.7Z" transform="translate(-273.386 -285.834)" fill="#ea9a92"/>
    </g>
    <path id="Trazado_105038" data-name="Trazado 105038" d="M520.61,301.929q-5.3-.6-10.623-1.332c-7.013-.965-14.034-1.914-21.083-2.611-14.964-1.479-30.167-2.407-45.165-.78-14.466,1.568-28.733,6-43.405,5.431-14.233-.548-28.035-4.561-42.224-5.338-15.806-.861-30.888,2.884-46.4,5.182-7.508,1.11-17.306,2.583-26.361,1.79a43.872,43.872,0,0,1-11.2-1.523v58.507H520.61Z" transform="translate(9.673 15.771)" fill="#fde6d5" style="mix-blend-mode: multiply;isolation: isolate"/>
    <path id="Trazado_105039" data-name="Trazado 105039" d="M520.61,307.74a40.854,40.854,0,0,0-11.851,3.54c-10.356,4.874-20.754,9.426-32.427,6.514-7.092-1.77-13.75-4.673-20.69-6.912-3.13-1.008-6.79-2.66-10.452-3.549a22.2,22.2,0,0,0-5.028-.133c-10.252,1.1-19.347,7.372-29.5,9.233-8.944,1.64-15.97-2.208-23.983-5.606-10.907-4.627-21.346-3.594-32.423-.147-8.827,2.748-17.912,6.448-27.267,6.8a33.9,33.9,0,0,1-3.483-.057,60.432,60.432,0,0,1-6.711-.686c-10.233-1.324-20.162-5.082-30.564-5.193-3.67-.038-7.89.887-12.083,1.423v47.251H520.61Z" transform="translate(9.673 16.814)" fill="#fde6d5" style="mix-blend-mode: multiply;isolation: isolate"/>
    <g id="Grupo_57355" data-name="Grupo 57355" transform="translate(288.561 309.89)">
      <g id="Grupo_57353" data-name="Grupo 57353" transform="translate(0 0.543)" style="mix-blend-mode: multiply;isolation: isolate">
        <path id="Trazado_105040" data-name="Trazado 105040" d="M280.018,303.919c-.8,2.413,1,4.619,2.87,5.855a7.5,7.5,0,0,0,1.528.768c3.908,1.72,9.528,1.611,12.207-1.353,3.981-4.4-.761-8.45-5.152-9.181C287.905,299.412,281.384,299.783,280.018,303.919Zm10.392-1.592a8.221,8.221,0,0,1,4.2,1.46c2.248,1.682.086,3.923-1.652,4.642-2.89,1.2-6.089.57-9.009-.342-1.549-1.123-2.893-2.985-1.162-4.461C284.641,302.048,288.13,302.1,290.41,302.328Z" transform="translate(-278.338 -294.329)" fill="#e3bc52"/>
        <path id="Trazado_105041" data-name="Trazado 105041" d="M298.933,297.346c-1.336.18-3.306.523-4.032,1.847-.771,1.411-.083,2.727,1.208,3.539,2.169,1.365,7.023,2.23,8.9-.146a2.537,2.537,0,0,0,1.034-1.028c.656-1.3-.171-2.465-1.234-3.23C303.112,297.108,300.907,297.078,298.933,297.346Zm4.526,2.149c1.294.573,1.216,1.36.35,1.866a9.577,9.577,0,0,1-4.583.528,5.281,5.281,0,0,1-2.491-1.04c-1.451-1.086,3.03-1.842,3.051-1.846A6.353,6.353,0,0,1,303.459,299.495Z" transform="translate(-276.908 -294.579)" fill="#e3bc52"/>
        <path id="Trazado_105042" data-name="Trazado 105042" d="M308.7,301.878c-3.458.41-9.782,3.069-7.007,7.682a6.189,6.189,0,0,0,4.4,2.752c3.941,1.25,9.018.546,10.877-3.153a4.928,4.928,0,0,0-.814-5.3C314.242,301.769,311.358,301.564,308.7,301.878Zm5.742,6.906c-2.213,3.329-7.07,1.769-10.357,1.236a3.082,3.082,0,0,1-1.268-2.283c-.185-2.274,2.425-2.855,4.071-3.343C309.628,303.584,317.516,304.152,314.439,308.785Z" transform="translate(-276.285 -294.138)" fill="#e3bc52"/>
        <path id="Trazado_105043" data-name="Trazado 105043" d="M298.917,314.487c-1,1.093-.771,1.961-.041,2.594.449,1.924,3.945,2.278,5.478,2.064,2.591-.364,5.008-2.684,2.971-5.229C305.393,311.51,300.76,312.46,298.917,314.487Zm7.016,1.054c.459,1.233-1.812,1.486-2.536,1.531a5.49,5.49,0,0,1-3.494-.807c-.166-.354-.047-.754.589-1.182C301.783,314.213,305.238,313.658,305.933,315.541Z" transform="translate(-276.553 -293.097)" fill="#e3bc52"/>
        <path id="Trazado_105044" data-name="Trazado 105044" d="M286.558,312.384c-1.628.7-2.211,2.1-1.417,3.121a9.23,9.23,0,0,0-2.742.211c-3.858,1.048-5.685,6.19-1.671,8.432,3.362,1.879,9.035,2.132,11.641-1.158a3.537,3.537,0,0,0-.1-4.761,5.062,5.062,0,0,0,3.755-1.8c1.435-1.962-.54-3.8-2.267-4.473A10.053,10.053,0,0,0,286.558,312.384Zm4.638,8.831c-.349,2.951-5.489,2.63-7.476,2.248-3.274-.632-5.3-4.463-1.359-6.076a8.658,8.658,0,0,1,7.505.885A3.111,3.111,0,0,1,291.2,321.215Zm2.092-7.336c1.807.828.572,1.94-.839,2.207a6.377,6.377,0,0,0-2.048.562,7.363,7.363,0,0,0-4.127-1.091c-1.316-1.757,2.73-2.175,3.519-2.227A7.082,7.082,0,0,1,293.287,313.879Z" transform="translate(-278.47 -293.197)" fill="#e3bc52"/>
        <path id="Trazado_105045" data-name="Trazado 105045" d="M315.335,312.838c-2.954.559-5.678,2.7-3.958,5.895a4.223,4.223,0,0,0,2.879,1.956.4.4,0,0,0,.176.167c3.011,1.378,7.277-.054,8.221-3.348.442-1.548-.581-3.241-1.74-4.154C319.4,312.158,317.065,312.509,315.335,312.838Zm5.389,4.33c-.234,1.915-2.583,2.383-4.489,2.634a8.854,8.854,0,0,1-2.027-.5,2.858,2.858,0,0,1-1.924-2.023c-.324-1.594,1.084-2.239,2.307-2.691C316.713,313.8,321.123,313.892,320.724,317.167Z" transform="translate(-275.332 -293.094)" fill="#e3bc52"/>
        <path id="Trazado_105046" data-name="Trazado 105046" d="M325.5,307.584c-.043,2.915,2.306,4.361,5.1,5.032.026.015.032.045.063.059,3.907,1.709,12.448,1.131,13.77-4.087,1.379-5.443-4.97-7.559-9.154-7.566C331.237,301.02,325.57,302.8,325.5,307.584Zm15.3,1.881c-2.243,2-5.25,1.828-8.07,1.858a16.882,16.882,0,0,1-2.97-1.021c-5.884-2.769.6-6.283,3.57-6.793C336.068,303.037,346.086,304.742,340.8,309.465Z" transform="translate(-273.911 -294.209)" fill="#e3bc52"/>
        <path id="Trazado_105047" data-name="Trazado 105047" d="M352.816,307.689c-2.881.132-11.2,2.368-8.22,6.974a9.509,9.509,0,0,0,7.161,3.882c3.793.894,9.322-.038,10.467-3.968C363.795,309.189,356.659,307.514,352.816,307.689Zm6.9,4.457c1.823,2.283-2.248,3.905-3.4,4.347a12.1,12.1,0,0,1-4.984.626,12.822,12.822,0,0,1-2.987-.9c-2.143-.957-3.49-3.421-1.175-5.058a10.215,10.215,0,0,1,5.018-1.358C354.813,309.572,357.969,309.953,359.718,312.146Z" transform="translate(-272.122 -293.564)" fill="#e3bc52"/>
        <path id="Trazado_105048" data-name="Trazado 105048" d="M344.145,302.526c.394,2.61,3.357,3.28,5.985,3.14l0,0c2.638.663,7.711.016,8.471-3.252.873-3.772-3.046-5.645-6.193-5.8C349.018,296.438,343.5,298.24,344.145,302.526Zm8.953-3.967c2.066.264,5.259,2.38,2.559,4.4-1.451,1.086-3.256,1.3-4.966,1.663a6.817,6.817,0,0,1-4.361-1.127q-1.433-2.45.476-3.628a7.77,7.77,0,0,1,2.564-1.022A9.328,9.328,0,0,1,353.1,298.559Z" transform="translate(-272.109 -294.638)" fill="#e3bc52"/>
        <path id="Trazado_105049" data-name="Trazado 105049" d="M361.638,300.825c-.715,4.186,3.13,5.431,6.782,5.645,4.523,1.056,11.222.511,12.9-3.743,2.421-6.145-4.553-8.019-9.245-7.912C368.024,294.91,362.441,296.126,361.638,300.825Zm15.206,3.017c-3.148,1.58-7.269.8-10.648.878a3.839,3.839,0,0,1-2.961-3c-.629-3.654,4.366-4.575,6.855-4.8a23.762,23.762,0,0,1,5.111.12C378.8,297.516,380.721,301.9,376.843,303.842Z" transform="translate(-270.417 -294.811)" fill="#e3bc52"/>
        <path id="Trazado_105050" data-name="Trazado 105050" d="M396.918,301.346a8.194,8.194,0,0,0-1.777-1.025c-3.212-1.288-11.19-1.41-12.914,2.578a4.675,4.675,0,0,0,1.438,5.934c3.2,4.147,9.837,3.839,14.008,1.48,2.92-1.65,2.859-4.258,1.548-6.449a8.43,8.43,0,0,0,5.495,1.286,5.028,5.028,0,0,0-.924,4.177c.576,3.12,4.087,4.132,7.416,4.084a9.951,9.951,0,0,0,9.078-2.934c4.017-4.5-2.491-8.271-6.37-8.476a15.472,15.472,0,0,0-4.98.579c2.028-3.393-2.474-5.96-5.378-5.869C401.25,296.782,396.267,298.116,396.918,301.346Zm.309,3.089c2.209,2.908-1.461,4.4-3.354,5.022-2.75.906-5.289.3-7.784-.629-2.329-1.531-3.375-5.108-.169-6.506,2.31-1,5.275-.78,7.655-.273A6.228,6.228,0,0,1,397.227,304.435Zm17.334-.251c1.777.166,5.773,1.926,3.866,4.711a5.9,5.9,0,0,1-3.039,1.932,26.639,26.639,0,0,1-5.926.94,9.978,9.978,0,0,1-1.955-.667c-3.2-1.479-2.056-4.828.536-6.087A12.807,12.807,0,0,1,414.561,304.183Zm-9.1-5.458c1.81.644,2.275,2.965.356,3.906a8.384,8.384,0,0,1-4.541.465,11.941,11.941,0,0,1-1.3-.315c-1.14-.373-1.964-1.048-1.493-2.383.449-1.268,2.417-1.652,3.535-1.846A6.868,6.868,0,0,1,405.461,298.725Z" transform="translate(-268.461 -294.627)" fill="#e3bc52"/>
        <path id="Trazado_105051" data-name="Trazado 105051" d="M399.222,315.229a1.641,1.641,0,0,0,.143,1.45c.5,2.544,4.5,2.458,6.3,1.734,1.32-.531,2.408-1.428,2.289-2.954-.1-1.243-1.446-2-2.474-2.351C403.307,312.357,400.176,312.922,399.222,315.229Zm5.514-.875c.868.192,1.994,1.2.854,1.959a5.2,5.2,0,0,1-2.163.7,5.539,5.539,0,0,1-2.879-.663c-.227-.414-.185-.9.42-1.415A4.445,4.445,0,0,1,404.736,314.354Z" transform="translate(-266.776 -293.068)" fill="#e3bc52"/>
        <path id="Trazado_105052" data-name="Trazado 105052" d="M412.416,316.66c-.155,2.381,2.032,3.748,4.256,4.041a7.184,7.184,0,0,0,6.461-1.293c3.308-2.748.316-6.375-2.974-7.062C417.055,311.7,412.653,313.02,412.416,316.66Zm7.468-2.756c1.507.187,3.517,1.493,2.928,3.289-.34,1.037-1.708,1.671-2.634,1.991-1.9.658-3.741-.066-5.56-.49h0a2.593,2.593,0,0,1-.72-2.224C414.183,313.875,417.93,313.662,419.884,313.9Z" transform="translate(-265.487 -293.127)" fill="#e3bc52"/>
        <path id="Trazado_105053" data-name="Trazado 105053" d="M428.663,302.86c-2.58,2.045-2.117,6.18-.247,8.455a6.661,6.661,0,0,0,4.78,2.127,13.945,13.945,0,0,0,9.182-.224c2.781-1.1,5.563-4.568,4.4-7.74C444.211,298.431,433.762,298.82,428.663,302.86Zm14.164.553c4.06,2.625,1.044,6.8-2.034,8.051-1.911.773-4.347.527-6.3.212-3.234-.518-6.453-2.188-5.2-6.052a2.943,2.943,0,0,1,.816-1.254c.053-.048.112-.1.168-.145a4.589,4.589,0,0,1,.376-.286,7.168,7.168,0,0,1,.852-.5c.207-.1.422-.2.637-.3C435.392,301.769,440.248,301.748,442.827,303.413Z" transform="translate(-264.085 -294.311)" fill="#e3bc52"/>
        <path id="Trazado_105054" data-name="Trazado 105054" d="M445.706,300.806c-.451,2.748,2.234,4.176,4.724,4.274a28.276,28.276,0,0,0,3.064.172c2.158.049,4.586-.887,5.288-3.094.581-1.837-.5-3.385-1.994-4.319C454.223,296.241,446.332,297.028,445.706,300.806Zm10.379-.947c1.739,1.138-.008,2.706-1.186,3.178-1.96.788-9.427,1.055-7.567-2.392,1.175-1.033,4.109-1.4,5.056-1.459A6.4,6.4,0,0,1,456.086,299.86Z" transform="translate(-262.264 -294.593)" fill="#e3bc52"/>
        <path id="Trazado_105055" data-name="Trazado 105055" d="M445.59,310.032c-1.926,2.2-.088,5.54,1.758,6.953a8.636,8.636,0,0,0,4.735,1.587,14.647,14.647,0,0,0,2.323.3c3.369.131,6.316-.746,8.32-3.591,1.6-2.282.346-4.874-1.722-6.224C456.941,306.407,448.926,306.207,445.59,310.032Zm11.582-.174c2.737.587,5.274,3.153,2.295,5.643-1.691,1.412-4.143,1.483-6.229,1.573a10.129,10.129,0,0,1-4.375-1.017,3.615,3.615,0,0,1-2.221-3.521,3.1,3.1,0,0,1,1.345-2.135C450.35,308.625,454.512,309.286,457.173,309.858Z" transform="translate(-262.35 -293.619)" fill="#e3bc52"/>
        <path id="Trazado_105056" data-name="Trazado 105056" d="M462.761,299.455c-1.06,1.968.217,4.076,1.706,5.294a7.03,7.03,0,0,0,2.844,1.322c3.643,1.331,8.45.869,11.624-.2,4.949-1.659,5.862-8.2.384-9.846C474.446,294.562,465.532,294.3,462.761,299.455ZM476.32,297.6a7.889,7.889,0,0,1,3.62,1.165c1.957,3.052-.554,4.874-2.788,5.339a14.561,14.561,0,0,1-2.976.49,17.459,17.459,0,0,1-8.273-.829c-1.405-1.067-3-3.32.952-5.452C469.74,297.158,473.311,297.3,476.32,297.6Z" transform="translate(-260.644 -294.782)" fill="#e3bc52"/>
        <path id="Trazado_105057" data-name="Trazado 105057" d="M500.143,306.2c-.6.213-1.223.374-1.825.539-2.942.8-8.03.63-10.54-1.925a2.717,2.717,0,0,1,.059-3.247c1.611-2.417,6.942-1.915,9.294-1.51a11.915,11.915,0,0,1,3.012.988v-2.209c-4.248-1.608-11.693-2.106-14.223,2.252a3.581,3.581,0,0,0,.429,4.53c1.886,3.447,8.469,4.318,11.653,3.407.731-.207,1.451-.4,2.141-.618Z" transform="translate(-258.421 -294.533)" fill="#e3bc52"/>
        <path id="Trazado_105058" data-name="Trazado 105058" d="M498.814,315.771a4.11,4.11,0,0,0,1.383-.358v-.984a5.09,5.09,0,0,1-1.968.473c-.17.02-.339.049-.51.069a10.936,10.936,0,0,0-2.514-.927.582.582,0,0,0-.27-.238c-.658-.272-4.695-1.157-2.851-2.759,1.054-.918,3.426-.827,4.7-.738a4.8,4.8,0,0,1,3.409,1.332v-1.382A9.468,9.468,0,0,0,497,309.1c-1.762-.312-6.087-.208-6.676,2.114a2.992,2.992,0,0,0,.49,2.581c-2.991.315-6.276,1.53-6.06,4.376.329,4.4,5.977,5.563,9.5,4.942a6.516,6.516,0,0,0,4.382-2.706,2.993,2.993,0,0,0,.825-3.653A2.688,2.688,0,0,0,498.814,315.771Zm-1.769,4.061a.783.783,0,0,0-.048.149,8.452,8.452,0,0,1-2.652,1.186,7.551,7.551,0,0,1-7.291-1.914c-2.392-2.7,3.86-3.577,4.853-3.646a9.357,9.357,0,0,1,4.276.75C497.952,317.106,497.764,318.454,497.044,319.832Z" transform="translate(-258.475 -293.439)" fill="#e3bc52"/>
      </g>
      <g id="Grupo_57354" data-name="Grupo 57354" transform="translate(1.089)">
        <path id="Trazado_105059" data-name="Trazado 105059" d="M281.011,303.425c-.8,2.411,1,4.618,2.867,5.854a7.7,7.7,0,0,0,1.532.768c3.906,1.721,9.526,1.61,12.2-1.352,3.982-4.4-.759-8.449-5.15-9.181C288.9,298.917,282.377,299.287,281.011,303.425Zm10.392-1.594a8.242,8.242,0,0,1,4.2,1.462c2.245,1.682.083,3.922-1.652,4.64-2.895,1.2-6.091.57-9.009-.342-1.549-1.123-2.893-2.984-1.162-4.461C285.636,301.552,289.123,301.609,291.4,301.832Z" transform="translate(-279.331 -293.834)" fill="#e4d700"/>
        <path id="Trazado_105060" data-name="Trazado 105060" d="M299.927,296.85c-1.337.18-3.307.523-4.032,1.848-.771,1.411-.086,2.726,1.2,3.538,2.173,1.365,7.023,2.232,8.9-.145a2.543,2.543,0,0,0,1.035-1.027c.658-1.3-.173-2.467-1.232-3.233C304.106,296.612,301.9,296.583,299.927,296.85ZM304.454,299c1.292.573,1.213,1.361.348,1.866a9.55,9.55,0,0,1-4.583.528,5.292,5.292,0,0,1-2.493-1.039c-1.45-1.086,3.032-1.843,3.051-1.845A6.376,6.376,0,0,1,304.454,299Z" transform="translate(-277.901 -294.084)" fill="#e4d700"/>
        <path id="Trazado_105061" data-name="Trazado 105061" d="M309.69,301.383c-3.458.41-9.782,3.07-7.007,7.682a6.185,6.185,0,0,0,4.4,2.752c3.938,1.248,9.019.546,10.875-3.153a4.93,4.93,0,0,0-.812-5.3C315.235,301.273,312.352,301.068,309.69,301.383Zm5.743,6.905c-2.211,3.33-7.073,1.769-10.358,1.237a3.079,3.079,0,0,1-1.266-2.284c-.19-2.273,2.423-2.854,4.069-3.342C310.621,303.088,318.511,303.656,315.433,308.289Z" transform="translate(-277.278 -293.643)" fill="#e4d700"/>
        <path id="Trazado_105062" data-name="Trazado 105062" d="M299.911,313.991c-.995,1.095-.773,1.962-.041,2.6.448,1.924,3.946,2.278,5.477,2.064,2.589-.366,5.007-2.685,2.968-5.229C306.386,311.015,301.753,311.965,299.911,313.991Zm7.015,1.054c.459,1.233-1.813,1.487-2.536,1.532a5.488,5.488,0,0,1-3.492-.808c-.17-.353-.049-.754.587-1.181C302.776,313.717,306.231,313.162,306.926,315.045Z" transform="translate(-277.545 -292.602)" fill="#e4d700"/>
        <path id="Trazado_105063" data-name="Trazado 105063" d="M287.553,311.889c-1.63.7-2.216,2.1-1.419,3.12a9.23,9.23,0,0,0-2.742.211c-3.859,1.049-5.685,6.191-1.671,8.433,3.362,1.879,9.036,2.131,11.641-1.157a3.537,3.537,0,0,0-.1-4.763,5.048,5.048,0,0,0,3.753-1.8c1.436-1.961-.536-3.794-2.265-4.472A10.034,10.034,0,0,0,287.553,311.889Zm4.638,8.83c-.35,2.951-5.492,2.63-7.478,2.248-3.273-.631-5.294-4.463-1.357-6.076a8.65,8.65,0,0,1,7.5.886A3.112,3.112,0,0,1,292.191,320.719Zm2.089-7.334c1.809.826.573,1.939-.836,2.206a6.388,6.388,0,0,0-2.049.562,7.355,7.355,0,0,0-4.13-1.091c-1.313-1.757,2.731-2.176,3.522-2.227A7.049,7.049,0,0,1,294.279,313.385Z" transform="translate(-279.462 -292.702)" fill="#e4d700"/>
        <path id="Trazado_105064" data-name="Trazado 105064" d="M316.327,312.343c-2.953.558-5.677,2.7-3.956,5.895a4.222,4.222,0,0,0,2.877,1.955.416.416,0,0,0,.177.168c3.01,1.378,7.279-.054,8.221-3.348.442-1.547-.584-3.243-1.74-4.155C320.389,311.66,318.056,312.014,316.327,312.343Zm5.39,4.328c-.234,1.916-2.583,2.384-4.489,2.636a8.993,8.993,0,0,1-2.028-.5,2.877,2.877,0,0,1-1.925-2.025c-.319-1.593,1.087-2.238,2.309-2.69C317.7,313.308,322.118,313.4,321.717,316.671Z" transform="translate(-276.324 -292.599)" fill="#e4d700"/>
        <path id="Trazado_105065" data-name="Trazado 105065" d="M326.5,307.088c-.043,2.916,2.3,4.364,5.1,5.033.026.015.033.045.061.057,3.906,1.71,12.449,1.133,13.771-4.085,1.379-5.444-4.972-7.559-9.154-7.566C332.231,300.524,326.564,302.307,326.5,307.088Zm15.3,1.881c-2.243,2-5.249,1.829-8.07,1.859a16.8,16.8,0,0,1-2.97-1.022c-5.884-2.768.6-6.282,3.568-6.792C337.061,302.541,347.08,304.247,341.794,308.969Z" transform="translate(-274.904 -293.714)" fill="#e4d700"/>
        <path id="Trazado_105066" data-name="Trazado 105066" d="M353.807,307.193c-2.879.133-11.2,2.369-8.217,6.977a9.51,9.51,0,0,0,7.16,3.881c3.794.894,9.322-.039,10.467-3.968C364.787,308.694,357.65,307.019,353.807,307.193Zm6.9,4.458c1.826,2.282-2.248,3.9-3.4,4.346a12.115,12.115,0,0,1-4.987.629,12.916,12.916,0,0,1-2.986-.9c-2.142-.957-3.488-3.422-1.174-5.059a10.213,10.213,0,0,1,5.016-1.357C355.8,309.076,358.962,309.458,360.71,311.651Z" transform="translate(-273.114 -293.069)" fill="#e4d700"/>
        <path id="Trazado_105067" data-name="Trazado 105067" d="M345.138,302.03c.394,2.61,3.358,3.28,5.983,3.142h0c2.64.663,7.715.016,8.47-3.251.873-3.771-3.043-5.645-6.191-5.806C350.01,295.943,344.49,297.744,345.138,302.03Zm8.953-3.965c2.067.264,5.258,2.38,2.561,4.4-1.453,1.087-3.257,1.3-4.97,1.664A6.815,6.815,0,0,1,347.323,303q-1.435-2.447.475-3.628a7.835,7.835,0,0,1,2.565-1.021A9.352,9.352,0,0,1,354.091,298.064Z" transform="translate(-273.102 -294.143)" fill="#e4d700"/>
        <path id="Trazado_105068" data-name="Trazado 105068" d="M362.631,300.328c-.716,4.188,3.128,5.433,6.785,5.646,4.52,1.056,11.218.512,12.9-3.742,2.422-6.145-4.554-8.02-9.244-7.912C369.017,294.414,363.434,295.632,362.631,300.328Zm15.206,3.019c-3.148,1.578-7.27.8-10.647.878a3.835,3.835,0,0,1-2.961-3c-.63-3.654,4.365-4.576,6.855-4.8a23.611,23.611,0,0,1,5.109.12C379.792,297.02,381.714,301.4,377.836,303.347Z" transform="translate(-271.409 -294.316)" fill="#e4d700"/>
        <path id="Trazado_105069" data-name="Trazado 105069" d="M397.911,300.851a7.982,7.982,0,0,0-1.777-1.023c-3.21-1.29-11.188-1.411-12.916,2.576a4.676,4.676,0,0,0,1.442,5.936c3.194,4.147,9.835,3.838,14.006,1.479,2.918-1.649,2.861-4.256,1.549-6.448a8.432,8.432,0,0,0,5.5,1.286,5.011,5.011,0,0,0-.924,4.177c.574,3.119,4.084,4.132,7.414,4.084a9.946,9.946,0,0,0,9.078-2.935c4.016-4.5-2.491-8.27-6.372-8.475a15.452,15.452,0,0,0-4.977.578c2.027-3.392-2.472-5.959-5.378-5.869C402.246,296.286,397.26,297.62,397.911,300.851Zm.308,3.088c2.21,2.908-1.459,4.4-3.352,5.022-2.75.906-5.29.3-7.783-.626-2.331-1.531-3.38-5.111-.169-6.507,2.308-1,5.273-.781,7.654-.272A6.219,6.219,0,0,1,398.219,303.939Zm17.335-.25c1.777.167,5.773,1.926,3.866,4.71a5.891,5.891,0,0,1-3.038,1.933,26.769,26.769,0,0,1-5.925.94,9.924,9.924,0,0,1-1.955-.666c-3.2-1.479-2.059-4.83.535-6.088A12.809,12.809,0,0,1,415.554,303.689Zm-9.1-5.459c1.81.645,2.273,2.966.354,3.907a8.388,8.388,0,0,1-4.537.465,11.764,11.764,0,0,1-1.3-.316c-1.135-.372-1.964-1.046-1.491-2.38.448-1.269,2.417-1.654,3.535-1.848A6.893,6.893,0,0,1,406.454,298.229Z" transform="translate(-269.454 -294.132)" fill="#e4d700"/>
        <path id="Trazado_105070" data-name="Trazado 105070" d="M400.214,314.733a1.65,1.65,0,0,0,.144,1.451c.5,2.544,4.5,2.458,6.3,1.734,1.317-.533,2.408-1.428,2.288-2.954-.094-1.243-1.446-1.994-2.474-2.351C404.3,311.861,401.171,312.426,400.214,314.733Zm5.513-.875c.87.193,2,1.2.857,1.96a5.184,5.184,0,0,1-2.165.7,5.526,5.526,0,0,1-2.877-.664c-.226-.414-.185-.9.419-1.415A4.452,4.452,0,0,1,405.727,313.858Z" transform="translate(-267.769 -292.573)" fill="#e4d700"/>
        <path id="Trazado_105071" data-name="Trazado 105071" d="M413.41,316.165c-.156,2.38,2.03,3.749,4.255,4.04a7.184,7.184,0,0,0,6.461-1.293c3.309-2.747.314-6.374-2.973-7.061C418.047,311.2,413.648,312.525,413.41,316.165Zm7.467-2.755c1.5.184,3.515,1.493,2.928,3.289-.341,1.036-1.709,1.671-2.636,1.991-1.9.657-3.738-.067-5.556-.491l0,0a2.6,2.6,0,0,1-.72-2.223C415.174,313.38,418.925,313.166,420.876,313.41Z" transform="translate(-266.48 -292.632)" fill="#e4d700"/>
        <path id="Trazado_105072" data-name="Trazado 105072" d="M429.656,302.365c-2.578,2.046-2.117,6.179-.245,8.453a6.644,6.644,0,0,0,4.778,2.129,13.938,13.938,0,0,0,9.182-.225c2.78-1.1,5.563-4.568,4.4-7.74C445.206,297.935,434.755,298.326,429.656,302.365Zm14.164.552c4.059,2.625,1.044,6.8-2.036,8.053-1.906.774-4.343.524-6.3.212-3.233-.518-6.453-2.188-5.2-6.053a2.964,2.964,0,0,1,.816-1.254c.052-.049.11-.1.169-.145a4.351,4.351,0,0,1,.376-.286,7.424,7.424,0,0,1,.851-.5c.21-.1.42-.2.637-.3C436.385,301.274,441.244,301.253,443.82,302.917Z" transform="translate(-265.078 -293.816)" fill="#e4d700"/>
        <path id="Trazado_105073" data-name="Trazado 105073" d="M446.7,300.31c-.453,2.748,2.234,4.177,4.726,4.275a27.693,27.693,0,0,0,3.064.172c2.157.049,4.584-.887,5.287-3.1.581-1.836-.5-3.385-2-4.319C455.218,295.746,447.325,296.532,446.7,300.31Zm10.377-.946c1.74,1.136-.005,2.705-1.184,3.178-1.961.786-9.429,1.056-7.567-2.393,1.175-1.032,4.109-1.4,5.058-1.459A6.381,6.381,0,0,1,457.076,299.365Z" transform="translate(-263.257 -294.098)" fill="#e4d700"/>
        <path id="Trazado_105074" data-name="Trazado 105074" d="M446.582,309.537c-1.923,2.2-.087,5.538,1.758,6.953a8.656,8.656,0,0,0,4.739,1.587,14.7,14.7,0,0,0,2.321.3c3.37.132,6.316-.746,8.318-3.591,1.6-2.282.348-4.875-1.719-6.225C457.935,305.911,449.919,305.712,446.582,309.537Zm11.584-.174c2.735.588,5.275,3.153,2.294,5.642-1.689,1.412-4.144,1.483-6.228,1.574a10.118,10.118,0,0,1-4.373-1.018,3.618,3.618,0,0,1-2.225-3.52,3.106,3.106,0,0,1,1.349-2.135C451.345,308.13,455.5,308.792,458.166,309.363Z" transform="translate(-263.343 -293.124)" fill="#e4d700"/>
        <path id="Trazado_105075" data-name="Trazado 105075" d="M463.753,298.96c-1.059,1.968.218,4.077,1.708,5.293a7.008,7.008,0,0,0,2.842,1.322c3.642,1.331,8.449.868,11.626-.194,4.95-1.661,5.863-8.2.384-9.848C475.44,294.067,466.525,293.8,463.753,298.96Zm13.56-1.857a7.884,7.884,0,0,1,3.62,1.164c1.956,3.052-.555,4.875-2.789,5.339a14.5,14.5,0,0,1-2.974.491,17.456,17.456,0,0,1-8.273-.828c-1.407-1.068-3-3.322.95-5.453C470.732,296.663,474.306,296.806,477.314,297.1Z" transform="translate(-261.637 -294.287)" fill="#e4d700"/>
        <path id="Trazado_105076" data-name="Trazado 105076" d="M500.046,306.052c-.247.064-.495.129-.736.2-2.942.8-8.027.629-10.539-1.927a2.71,2.71,0,0,1,.058-3.246c1.611-2.417,6.942-1.915,9.3-1.51a11.179,11.179,0,0,1,1.922.537v-2.125c-4.333-1.292-10.808-1.389-13.134,2.618a3.583,3.583,0,0,0,.428,4.53c1.888,3.445,8.469,4.317,11.652,3.408.355-.1.706-.2,1.054-.3Z" transform="translate(-259.414 -294.038)" fill="#e4d700"/>
        <path id="Trazado_105077" data-name="Trazado 105077" d="M500.1,315.626a3.529,3.529,0,0,0-.292-.35c.1-.008.193-.039.292-.053V314.3c-.321.058-.635.089-.878.113-.172.016-.338.048-.511.067a11.014,11.014,0,0,0-2.514-.926.582.582,0,0,0-.27-.238c-.658-.271-4.695-1.156-2.853-2.759,1.055-.918,3.427-.827,4.706-.74a6.726,6.726,0,0,1,2.32.516v-1.111a10.707,10.707,0,0,0-2.1-.612c-1.764-.314-6.086-.211-6.677,2.113a2.993,2.993,0,0,0,.491,2.581c-2.989.314-6.276,1.53-6.059,4.376.329,4.4,5.979,5.563,9.5,4.939a6.489,6.489,0,0,0,4.378-2.7,2.976,2.976,0,0,0,.466-.512Zm-2.063,3.711a.691.691,0,0,0-.048.149,8.466,8.466,0,0,1-2.652,1.184,7.543,7.543,0,0,1-7.291-1.912c-2.392-2.7,3.86-3.577,4.851-3.648a9.338,9.338,0,0,1,4.277.753C498.942,316.611,498.757,317.959,498.037,319.337Z" transform="translate(-259.468 -292.944)" fill="#e4d700"/>
      </g>
    </g>
    <g id="Grupo_57356" data-name="Grupo 57356" transform="translate(282.985 343.961)">
      <rect id="Rect치ngulo_5827" data-name="Rect치ngulo 5827" width="246.464" height="32.234" transform="translate(0.834 0.832)" fill="#fcd2aa"/>
      <path id="Trazado_105078" data-name="Trazado 105078" d="M520.684,359.275H274.221a.833.833,0,0,1-.835-.833V326.209a.833.833,0,0,1,.835-.833H520.684a.832.832,0,0,1,.833.833v32.234A.832.832,0,0,1,520.684,359.275ZM275.053,357.61h244.8V327.043h-244.8Z" transform="translate(-273.386 -325.376)" fill="#ea9a92"/>
    </g>
    <g id="Grupo_57357" data-name="Grupo 57357" transform="translate(284.618 344.793)">
      <rect id="Rect치ngulo_5828" data-name="Rect치ngulo 5828" width="245.665" height="2.686" transform="translate(0 0)" fill="#f53e58"/>
      <rect id="Rect치ngulo_5829" data-name="Rect치ngulo 5829" width="245.665" height="2.683" transform="translate(0 29.801)" fill="#f53e58"/>
      <rect id="Rect치ngulo_5830" data-name="Rect치ngulo 5830" width="245.665" height="2.685" transform="translate(0 23.842)" fill="#f53e58"/>
      <rect id="Rect치ngulo_5831" data-name="Rect치ngulo 5831" width="245.665" height="2.682" transform="translate(0 17.882)" fill="#f53e58"/>
      <rect id="Rect치ngulo_5832" data-name="Rect치ngulo 5832" width="245.665" height="2.681" transform="translate(0 11.922)" fill="#f53e58"/>
      <rect id="Rect치ngulo_5833" data-name="Rect치ngulo 5833" width="245.665" height="2.68" transform="translate(0 5.961)" fill="#f53e58"/>
    </g>
    <rect id="Rect치ngulo_5834" data-name="Rect치ngulo 5834" width="246.464" height="21.755" transform="translate(283.819 355.272)" fill="#fce0b8" style="mix-blend-mode: multiply;isolation: isolate"/>
    <rect id="Rect치ngulo_5835" data-name="Rect치ngulo 5835" width="246.464" height="10.174" transform="translate(283.819 366.853)" fill="#fce0b8" style="mix-blend-mode: multiply;isolation: isolate"/>
    <path id="Trazado_105079" data-name="Trazado 105079" d="M238.477,317.561a27.36,27.36,0,0,1-3.327-.029c-5.73-.422-9.6-2.509-13.821-5.547-3.241-1.285-6.463-2.637-9.745-3.839-4.975-.932-11.174-1.475-15.783-3.382-6.28-2.181-10.861-6.462-14.98-11.585a29.427,29.427,0,0,1-5.707-6.925v29.953l108.628,46.027v-32.2c-1.232-.541-2.771-1.208-4.574-1.98C265.24,330.9,248.975,326.705,238.477,317.561Z" transform="translate(0.074 14.793)" fill="#fdedcc" style="mix-blend-mode: multiply;isolation: isolate"/>
    <path id="Trazado_105080" data-name="Trazado 105080" d="M273.675,341.426c-1.071.023-2.155.008-3.244-.011a34.889,34.889,0,0,1-14.624-1.231c-6.994-.725-13.123-4.479-17.793-9.947-.307-.259-.619-.511-.924-.773-1.957-1.413-3.942-2.846-6.038-4.225a95.543,95.543,0,0,0-13.2-1.757c-6.261-.351-11.988-.027-17.89-2.431-5.873-2.391-10.578-6.919-15.015-11.721a11.121,11.121,0,0,1-2.669-2.726c-1.991-1.887-3.838-3.958-5.69-5.861-.509-.354-1-.7-1.475-1.069v15.233l108.628,46.027V342.817A30.315,30.315,0,0,0,273.675,341.426Z" transform="translate(0.074 16.094)" fill="#fce0b8" style="mix-blend-mode: multiply;isolation: isolate"/>
    <g id="Grupo_57358" data-name="Grupo 57358" transform="translate(239.891 134.592)" opacity="0.5">
      <path id="Trazado_105081" data-name="Trazado 105081" d="M417.118,135.864v-.576c-8.8.171-23.6.793-31.781,2.894a155.043,155.043,0,0,0-15.84,4.773,91.373,91.373,0,0,0-14.811,7.629c.309-.191-4.126-4.663-4.462-4.987a29.521,29.521,0,0,0-8.736-5.847,60.33,60.33,0,0,0-14.435-4.087c-10.71-1.806-21.492-1.089-32.249-.552-.171.009-.141.251.022.26,9.825.455,19.762.4,29.537,1.611a54.127,54.127,0,0,1,14.8,3.936,57,57,0,0,1,6.765,3.484c2.5,1.5,4.219,2.492,5.792,4.968.118.186.26.387.412.589-1.169-.548-2.35-1.073-3.563-1.532-7.319-2.777-15.681-2.8-23.394-2.6a281.954,281.954,0,0,0-29.07,2.57,363.032,363.032,0,0,0-58.074,12.479c-1.331.4-2.63.864-3.935,1.315q1.4.61,2.784,1.243c.613-.2,1.214-.42,1.833-.612a351,351,0,0,1,57.566-12.27q13.092-1.747,26.294-2.447c9.276-.489,18.892-.353,27.589,3.253,8.251,3.425,15.474,9.238,22.318,14.861,6.05,4.968,11.663,11.668,19.159,14.429.582.216,2.992-.1,2.424-.364-9.3-4.233-15.756-11.812-22.482-17.364a101.334,101.334,0,0,0-16.455-11.484c9.209-5.266,19.362-8.436,29.585-11.116C395.184,137.578,406.289,136.759,417.118,135.864Z" transform="translate(-234.1 -134.508)" fill="#be5945"/>
    </g>
    <path id="Trazado_105082" data-name="Trazado 105082" d="M385.684,173.813c-12.3-4.508-33.159-19.227-15.188-30.394,1.648-1.023,3.366-1.93,5.077-2.838-9.253,1.864-18.2,5.233-27.541,2.094-6.418-2.157-12.626-4.274-19.089-5.806,3.2.893,6.121,2.262,6.71,4.456,1.108,4.122-11.285,4.994-13.661,5.44,16.9-.077,38.514,3.2,47.581,19.774,8.9,16.265-20.926,11.183-28.087,10.3-18.178-2.242-35.886-.665-54.085.328-6.384.348-12.832.676-19.3.9q3.006,1.435,6,2.913,35.672-.123,71.34-.248,34.19-.1,68.383-.09L521.2,180.8C511.756,180.456,403.105,180.2,385.684,173.813Z" transform="translate(9.087 0.313)" fill="#e28e6d" opacity="0.5" style="mix-blend-mode: multiply;isolation: isolate"/>
  </g>
</svg>
