<svg xmlns="http://www.w3.org/2000/svg" width="612.079" height="321.683" viewBox="0 0 612.079 321.683">
  <g id="Grupo_58918" data-name="Grupo 58918" transform="translate(-876.885 -711.504)">
    <circle id="Elipse_4830" data-name="Elipse 4830" cx="23.874" cy="23.874" r="23.874" transform="translate(994.254 829.565)" fill="#f4af02"/>
    <circle id="Elipse_4831" data-name="Elipse 4831" cx="10.117" cy="10.117" r="10.117" transform="translate(1008.011 822.914)" fill="#353535"/>
    <circle id="Elipse_4832" data-name="Elipse 4832" cx="10.117" cy="10.117" r="10.117" transform="translate(1008.011 867.196)" fill="#353535"/>
    <circle id="Elipse_4833" data-name="Elipse 4833" cx="10.117" cy="10.117" r="10.117" transform="translate(1030.152 843.322)" fill="#353535"/>
    <circle id="Elipse_4834" data-name="Elipse 4834" cx="10.117" cy="10.117" r="10.117" transform="translate(1184.743 839.276)" fill="#f9f9f9" stroke="#353535" stroke-miterlimit="10" stroke-width="1"/>
    <circle id="Elipse_4835" data-name="Elipse 4835" cx="10.117" cy="10.117" r="10.117" transform="translate(1198.913 839.101)" fill="#f9f9f9" stroke="#353535" stroke-miterlimit="10" stroke-width="1"/>
    <circle id="Elipse_4836" data-name="Elipse 4836" cx="10.117" cy="10.117" r="10.117" transform="translate(1263.046 914.527)" fill="#f9f9f9" stroke="#353535" stroke-miterlimit="10" stroke-width="1"/>
    <circle id="Elipse_4837" data-name="Elipse 4837" cx="10.117" cy="10.117" r="10.117" transform="translate(1277.216 914.352)" fill="#f9f9f9" stroke="#353535" stroke-miterlimit="10" stroke-width="1"/>
    <circle id="Elipse_4838" data-name="Elipse 4838" cx="10.117" cy="10.117" r="10.117" transform="translate(1079.348 982.138)" fill="#f4af02"/>
    <circle id="Elipse_4839" data-name="Elipse 4839" cx="10.117" cy="10.117" r="10.117" transform="translate(1188.797 854.492)" fill="#f9f9f9" stroke="#353535" stroke-miterlimit="10" stroke-width="1"/>
    <circle id="Elipse_4840" data-name="Elipse 4840" cx="10.117" cy="10.117" r="10.117" transform="translate(1275.189 782.486)" fill="#f9f9f9" stroke="#353535" stroke-miterlimit="10" stroke-width="1"/>
    <circle id="Elipse_4841" data-name="Elipse 4841" cx="10.117" cy="10.117" r="10.117" transform="translate(1117.472 843.322)" fill="#353535"/>
    <circle id="Elipse_4842" data-name="Elipse 4842" cx="10.117" cy="10.117" r="10.117" transform="translate(1079.348 951.822)" fill="#353535"/>
    <circle id="Elipse_4843" data-name="Elipse 4843" cx="10.117" cy="10.117" r="10.117" transform="translate(1079.348 1012.453)" fill="#f9f9f9" stroke="#353535" stroke-miterlimit="10" stroke-width="1"/>
    <circle id="Elipse_4844" data-name="Elipse 4844" cx="10.117" cy="10.117" r="10.117" transform="translate(1285.306 792.602)" fill="#353535"/>
    <circle id="Elipse_4845" data-name="Elipse 4845" cx="10.117" cy="10.117" r="10.117" transform="translate(1386.106 769.694)" fill="#353535"/>
    <circle id="Elipse_4846" data-name="Elipse 4846" cx="10.117" cy="10.117" r="10.117" transform="translate(985.87 843.322)" fill="#fc0008"/>
    <circle id="Elipse_4847" data-name="Elipse 4847" cx="23.874" cy="23.874" r="23.874" transform="translate(915.407 892.467)" fill="#f4af02"/>
    <circle id="Elipse_4848" data-name="Elipse 4848" cx="10.117" cy="10.117" r="10.117" transform="translate(929.164 885.815)" fill="#353535"/>
    <circle id="Elipse_4849" data-name="Elipse 4849" cx="10.117" cy="10.117" r="10.117" transform="translate(951.305 906.224)" fill="#353535"/>
    <circle id="Elipse_4850" data-name="Elipse 4850" cx="10.117" cy="10.117" r="10.117" transform="translate(907.023 906.224)" fill="#fc0008"/>
    <path id="Trazado_108293" data-name="Trazado 108293" d="M985.817,800.972,980.8,790.289l-.272-.047-1.351,6.417a7.735,7.735,0,0,1-3.673-4.441,9.916,9.916,0,0,1-.362-1.845c.034-.286.063-.573.1-.858a39.863,39.863,0,0,0,.208-5.732c-.014-1.732-.294-2.743-2.21-3.082-1.951-.344-3.923-.6-5.882-.892-1.933-.293-3.937-.466-5.842-.913a4.081,4.081,0,0,1-1.927-.935,2.4,2.4,0,0,1-.483-.668c.329-.893.737-1.755,1.055-2.652a14.256,14.256,0,0,0,.549-4.949c0-1.687.163-3.442-.535-5.024a8.495,8.495,0,0,0-3.026-3.472c-5.741-3.949-14.332-1.025-19.313-6.495-2.8-3.08-1.517-7.228-2.676-10.866-.783-2.46-4.339-5.436-6.69-3.025-.275.282-.025,2.1-.025,2.5,0,.589,0,1.179.007,1.768a2.853,2.853,0,0,1,.018.732c2.042-2.093,5.117-.02,6.261,2.028,1.708,3.056.412,6.949,1.923,10.116,3.261,6.836,12.8,4.743,18.57,7.187a10.243,10.243,0,0,1,3.82,2.749,7.434,7.434,0,0,1,1.1,1.748,30.986,30.986,0,0,0-1.443,3.985,26.393,26.393,0,0,0-.182,5.6c.012,1.388.058,2.87,1.2,3.849,1.295,1.112,3.425,1.1,5.03,1.342l6.17.934c.894.135,1.81.226,2.693.423a2.724,2.724,0,0,1,1.186.488,1.425,1.425,0,0,1,.226.249c-.067.842-.094,1.684-.1,2.529a37.23,37.23,0,0,0,.214,6.686,9.364,9.364,0,0,0,1.076,2.977l-4.919,1.376.088.241,10.978,4.333q5.043,3,10.083,6.009Q989.133,805.815,985.817,800.972Zm-25.172-29.661c.023.251.015.384,0,0Z" fill="#4f4f4f" opacity="0.67"/>
    <path id="Trazado_108294" data-name="Trazado 108294" d="M972.866,809.472l-5.013-10.684-.272-.046-1.351,6.417a7.738,7.738,0,0,1-3.674-4.442,10.077,10.077,0,0,1-.362-1.845c.034-.286.064-.572.1-.858a39.99,39.99,0,0,0,.208-5.731c-.014-1.732-.294-2.744-2.211-3.082-1.95-.345-3.922-.6-5.881-.893-1.934-.292-3.937-.465-5.842-.913a4.054,4.054,0,0,1-1.927-.935,2.4,2.4,0,0,1-.483-.668c.329-.893.737-1.755,1.054-2.652a14.256,14.256,0,0,0,.55-4.949c0-1.686.163-3.442-.536-5.023A8.495,8.495,0,0,0,944.2,769.7c-5.741-3.948-14.333-1.024-19.313-6.495-2.8-3.08-1.518-7.228-2.676-10.866-.783-2.46-4.339-5.436-6.691-3.025-.274.282-.025,2.095-.025,2.5,0,.59,0,1.179.008,1.768a2.9,2.9,0,0,1,.017.732c2.042-2.093,5.118-.02,6.262,2.029,1.707,3.056.412,6.948,1.923,10.115,3.26,6.836,12.8,4.744,18.57,7.187a10.233,10.233,0,0,1,3.819,2.749,7.407,7.407,0,0,1,1.1,1.748,31.1,31.1,0,0,0-1.444,3.985,26.331,26.331,0,0,0-.181,5.6c.011,1.389.058,2.871,1.2,3.849,1.295,1.113,3.425,1.1,5.029,1.342l6.171.934c.894.135,1.81.226,2.693.423a2.722,2.722,0,0,1,1.185.489,1.428,1.428,0,0,1,.227.248c-.068.842-.094,1.684-.1,2.529a37.241,37.241,0,0,0,.214,6.687,9.366,9.366,0,0,0,1.076,2.976l-4.92,1.377.089.241,10.978,4.332,10.083,6.009ZM947.694,779.81c.023.251.014.384,0,0Z" fill="#4f4f4f" opacity="0.67"/>
    <path id="Trazado_108295" data-name="Trazado 108295" d="M958.3,823.344l-5.014-10.683-.271-.047-1.352,6.417a7.735,7.735,0,0,1-3.673-4.441,9.992,9.992,0,0,1-.362-1.845c.034-.286.064-.573.1-.858a40,40,0,0,0,.208-5.732c-.015-1.732-.294-2.743-2.211-3.082-1.951-.344-3.923-.6-5.881-.892-1.934-.293-3.938-.466-5.842-.913a4.072,4.072,0,0,1-1.927-.935,2.418,2.418,0,0,1-.484-.668c.329-.893.738-1.755,1.055-2.652a14.283,14.283,0,0,0,.55-4.949c0-1.687.162-3.442-.536-5.024a8.5,8.5,0,0,0-3.025-3.472c-5.742-3.949-14.333-1.025-19.314-6.495-2.8-3.08-1.517-7.228-2.675-10.866-.784-2.46-4.339-5.436-6.691-3.025-.275.282-.025,2.095-.025,2.5,0,.589,0,1.179.007,1.768a2.853,2.853,0,0,1,.018.732c2.042-2.094,5.117-.02,6.262,2.028,1.707,3.056.412,6.949,1.922,10.116,3.261,6.836,12.8,4.743,18.57,7.187a10.228,10.228,0,0,1,3.82,2.749,7.406,7.406,0,0,1,1.1,1.748,31.032,31.032,0,0,0-1.444,3.984,26.34,26.34,0,0,0-.181,5.6c.011,1.388.057,2.87,1.2,3.849,1.294,1.112,3.424,1.1,5.029,1.342l6.171.934c.894.135,1.809.226,2.692.423a2.724,2.724,0,0,1,1.186.488,1.434,1.434,0,0,1,.227.249c-.068.842-.094,1.684-.1,2.529a37.134,37.134,0,0,0,.215,6.686,9.315,9.315,0,0,0,1.076,2.977l-4.92,1.376.089.241,10.977,4.333q5.043,3,10.084,6.009Zm-25.172-29.661c.022.251.014.384,0,0Z" fill="#4f4f4f" opacity="0.67"/>
    <g id="Grupo_58884" data-name="Grupo 58884">
      <path id="Trazado_108296" data-name="Trazado 108296" d="M881.587,719.827h-3.006V725h-1.7v-12.8h4.236a5.014,5.014,0,0,1,3.326.984,3.543,3.543,0,0,1,1.165,2.866,3.456,3.456,0,0,1-.645,2.083,3.868,3.868,0,0,1-1.8,1.327l3.006,5.431V725h-1.811Zm-3.006-1.38h2.593a2.929,2.929,0,0,0,2-.651,2.208,2.208,0,0,0,.742-1.743,2.321,2.321,0,0,0-.707-1.823,3,3,0,0,0-2.044-.643h-2.584Z" fill="#212121"/>
      <path id="Trazado_108297" data-name="Trazado 108297" d="M893.593,725a3.426,3.426,0,0,1-.229-1,3.629,3.629,0,0,1-2.707,1.178,3.353,3.353,0,0,1-2.306-.795,2.572,2.572,0,0,1-.9-2.018,2.684,2.684,0,0,1,1.13-2.306,5.322,5.322,0,0,1,3.177-.823h1.582v-.747a1.824,1.824,0,0,0-.51-1.357,2.049,2.049,0,0,0-1.5-.506,2.371,2.371,0,0,0-1.459.439,1.3,1.3,0,0,0-.589,1.064h-1.634a2.245,2.245,0,0,1,.5-1.375,3.445,3.445,0,0,1,1.372-1.051,4.608,4.608,0,0,1,1.9-.387,3.758,3.758,0,0,1,2.575.823,2.963,2.963,0,0,1,.967,2.262v4.377a5.343,5.343,0,0,0,.334,2.083V725Zm-2.7-1.239a2.856,2.856,0,0,0,1.45-.4,2.392,2.392,0,0,0,.993-1.028V720.39h-1.275q-2.988,0-2.988,1.749a1.48,1.48,0,0,0,.51,1.2A1.96,1.96,0,0,0,890.9,723.765Z" fill="#212121"/>
      <path id="Trazado_108298" data-name="Trazado 108298" d="M897.117,720.17a5.574,5.574,0,0,1,1.037-3.52,3.529,3.529,0,0,1,5.362-.189V711.5h1.626V725h-1.5l-.079-1.02a3.309,3.309,0,0,1-2.715,1.2,3.246,3.246,0,0,1-2.694-1.354,5.629,5.629,0,0,1-1.042-3.533Zm1.626.184a4.222,4.222,0,0,0,.668,2.532,2.161,2.161,0,0,0,1.846.914,2.373,2.373,0,0,0,2.259-1.389v-4.368a2.391,2.391,0,0,0-2.242-1.345,2.171,2.171,0,0,0-1.863.923A4.645,4.645,0,0,0,898.743,720.354Z" fill="#212121"/>
      <path id="Trazado_108299" data-name="Trazado 108299" d="M907.673,712.972a.969.969,0,0,1,.241-.668.907.907,0,0,1,.717-.273.923.923,0,0,1,.721.273.959.959,0,0,1,.246.668.93.93,0,0,1-.246.659.94.94,0,0,1-.721.264.924.924,0,0,1-.717-.264A.939.939,0,0,1,907.673,712.972ZM909.431,725H907.8v-9.51h1.626Z" fill="#212121"/>
      <path id="Trazado_108300" data-name="Trazado 108300" d="M917.9,725a3.433,3.433,0,0,1-.228-1,3.629,3.629,0,0,1-2.707,1.178,3.356,3.356,0,0,1-2.307-.795,2.574,2.574,0,0,1-.9-2.018,2.683,2.683,0,0,1,1.13-2.306,5.318,5.318,0,0,1,3.176-.823h1.582v-.747a1.824,1.824,0,0,0-.509-1.357,2.049,2.049,0,0,0-1.5-.506,2.369,2.369,0,0,0-1.459.439,1.3,1.3,0,0,0-.589,1.064h-1.635a2.24,2.24,0,0,1,.505-1.375,3.448,3.448,0,0,1,1.371-1.051,4.612,4.612,0,0,1,1.9-.387,3.761,3.761,0,0,1,2.576.823,2.959,2.959,0,0,1,.966,2.262v4.377a5.361,5.361,0,0,0,.334,2.083V725Zm-2.7-1.239a2.854,2.854,0,0,0,1.45-.4,2.393,2.393,0,0,0,.993-1.028V720.39h-1.274q-2.988,0-2.988,1.749a1.48,1.48,0,0,0,.51,1.2A1.957,1.957,0,0,0,915.205,723.765Z" fill="#212121"/>
      <path id="Trazado_108301" data-name="Trazado 108301" d="M925.638,723.853a2.338,2.338,0,0,0,1.52-.528,1.854,1.854,0,0,0,.721-1.318h1.538a2.947,2.947,0,0,1-.563,1.556,3.7,3.7,0,0,1-1.384,1.177,3.993,3.993,0,0,1-1.832.44,3.92,3.92,0,0,1-3.09-1.3,5.168,5.168,0,0,1-1.147-3.547v-.273a5.72,5.72,0,0,1,.51-2.469,3.878,3.878,0,0,1,1.463-1.679,4.164,4.164,0,0,1,2.255-.6,3.82,3.82,0,0,1,2.659.958,3.429,3.429,0,0,1,1.129,2.488h-1.538a2.244,2.244,0,0,0-.7-1.516,2.181,2.181,0,0,0-1.552-.594,2.277,2.277,0,0,0-1.921.893,4.189,4.189,0,0,0-.681,2.579v.308a4.108,4.108,0,0,0,.677,2.531A2.287,2.287,0,0,0,925.638,723.853Z" fill="#212121"/>
      <path id="Trazado_108302" data-name="Trazado 108302" d="M931.254,712.972a.969.969,0,0,1,.241-.668.908.908,0,0,1,.717-.273.922.922,0,0,1,.721.273.959.959,0,0,1,.246.668,1.007,1.007,0,0,1-1.684.659A.939.939,0,0,1,931.254,712.972ZM933.012,725h-1.626v-9.51h1.626Z" fill="#212121"/>
      <path id="Trazado_108303" data-name="Trazado 108303" d="M935.183,720.161a5.609,5.609,0,0,1,.549-2.514,4.084,4.084,0,0,1,1.53-1.722,4.159,4.159,0,0,1,2.236-.607,4.016,4.016,0,0,1,3.143,1.345,5.183,5.183,0,0,1,1.2,3.577v.114a5.694,5.694,0,0,1-.531,2.493,4.043,4.043,0,0,1-1.522,1.717,4.2,4.2,0,0,1-2.271.616,4,4,0,0,1-3.133-1.345,5.143,5.143,0,0,1-1.2-3.56Zm1.634.193a4.073,4.073,0,0,0,.734,2.541,2.487,2.487,0,0,0,3.933-.013,4.448,4.448,0,0,0,.73-2.721,4.059,4.059,0,0,0-.743-2.535,2.363,2.363,0,0,0-1.973-.972,2.335,2.335,0,0,0-1.942.958A4.411,4.411,0,0,0,936.817,720.354Zm3.419-8.85h1.969l-2.355,2.584-1.31,0Z" fill="#212121"/>
      <path id="Trazado_108304" data-name="Trazado 108304" d="M947.417,715.494l.053,1.2a3.465,3.465,0,0,1,2.847-1.371q3.015,0,3.041,3.4V725h-1.626v-6.293a2.185,2.185,0,0,0-.47-1.521,1.883,1.883,0,0,0-1.437-.492,2.346,2.346,0,0,0-1.388.422,2.864,2.864,0,0,0-.932,1.108V725h-1.626v-9.51Z" fill="#212121"/>
      <path id="Trazado_108305" data-name="Trazado 108305" d="M969.53,712.207v8.7a4.081,4.081,0,0,1-1.138,2.962,4.586,4.586,0,0,1-3.063,1.292l-.448.018a4.789,4.789,0,0,1-3.349-1.134,4.052,4.052,0,0,1-1.265-3.12v-8.719h1.67v8.666a2.668,2.668,0,0,0,2.944,2.927,2.956,2.956,0,0,0,2.192-.765,2.92,2.92,0,0,0,.761-2.153v-8.675Z" fill="#212121"/>
      <path id="Trazado_108306" data-name="Trazado 108306" d="M976.43,722.763l3.656-10.556h1.846L977.186,725h-1.495l-4.737-12.8h1.837Z" fill="#212121"/>
    </g>
    <g id="Grupo_58885" data-name="Grupo 58885">
      <path id="Trazado_108307" data-name="Trazado 108307" d="M1123.651,878.6h-3.005v5.176h-1.7v-12.8h4.237a5.015,5.015,0,0,1,3.326.984,3.542,3.542,0,0,1,1.165,2.865,3.449,3.449,0,0,1-.646,2.083,3.856,3.856,0,0,1-1.8,1.327l3.006,5.432v.1h-1.81Zm-3.005-1.38h2.592a2.929,2.929,0,0,0,2-.652,2.205,2.205,0,0,0,.742-1.744,2.322,2.322,0,0,0-.707-1.822,3,3,0,0,0-2.044-.643h-2.583Z" fill="#212121"/>
      <path id="Trazado_108308" data-name="Trazado 108308" d="M1135.657,883.772a3.386,3.386,0,0,1-.228-1,3.627,3.627,0,0,1-2.707,1.177,3.352,3.352,0,0,1-2.307-.8,2.567,2.567,0,0,1-.9-2.016,2.688,2.688,0,0,1,1.13-2.308,5.318,5.318,0,0,1,3.176-.821h1.582v-.747a1.83,1.83,0,0,0-.509-1.359,2.049,2.049,0,0,0-1.5-.505,2.37,2.37,0,0,0-1.459.44,1.293,1.293,0,0,0-.589,1.063h-1.635a2.247,2.247,0,0,1,.505-1.376,3.443,3.443,0,0,1,1.371-1.049,4.612,4.612,0,0,1,1.9-.387,3.762,3.762,0,0,1,2.576.821,2.964,2.964,0,0,1,.966,2.264v4.377a5.364,5.364,0,0,0,.334,2.083v.14Zm-2.7-1.239a2.863,2.863,0,0,0,1.45-.4,2.394,2.394,0,0,0,.993-1.029v-1.951h-1.274q-2.988,0-2.988,1.749a1.485,1.485,0,0,0,.509,1.2A1.961,1.961,0,0,0,1132.959,882.533Z" fill="#212121"/>
      <path id="Trazado_108309" data-name="Trazado 108309" d="M1139.182,878.938a5.568,5.568,0,0,1,1.037-3.52,3.529,3.529,0,0,1,5.361-.189v-4.957h1.626v13.5h-1.494l-.079-1.019a3.312,3.312,0,0,1-2.716,1.2,3.245,3.245,0,0,1-2.693-1.353,5.625,5.625,0,0,1-1.042-3.533Zm1.626.185a4.212,4.212,0,0,0,.668,2.531,2.157,2.157,0,0,0,1.845.914,2.373,2.373,0,0,0,2.259-1.388v-4.368a2.389,2.389,0,0,0-2.241-1.345,2.167,2.167,0,0,0-1.863.923A4.638,4.638,0,0,0,1140.808,879.123Z" fill="#212121"/>
      <path id="Trazado_108310" data-name="Trazado 108310" d="M1149.737,871.74a.969.969,0,0,1,.242-.668.909.909,0,0,1,.716-.272.923.923,0,0,1,.721.272.963.963,0,0,1,.246.668.927.927,0,0,1-.246.659.938.938,0,0,1-.721.264.923.923,0,0,1-.716-.264A.932.932,0,0,1,1149.737,871.74Zm1.758,12.032h-1.626v-9.509h1.626Z" fill="#212121"/>
      <path id="Trazado_108311" data-name="Trazado 108311" d="M1157.911,882.621a2.347,2.347,0,0,0,1.521-.527,1.858,1.858,0,0,0,.72-1.319h1.538a2.943,2.943,0,0,1-.562,1.556,3.714,3.714,0,0,1-1.385,1.178,3.989,3.989,0,0,1-1.832.439,3.919,3.919,0,0,1-3.09-1.3,5.169,5.169,0,0,1-1.146-3.546v-.272a5.723,5.723,0,0,1,.51-2.47,3.879,3.879,0,0,1,1.462-1.678,4.156,4.156,0,0,1,2.255-.6,3.818,3.818,0,0,1,2.66.958,3.424,3.424,0,0,1,1.128,2.487h-1.538a2.244,2.244,0,0,0-.7-1.516,2.174,2.174,0,0,0-1.552-.593,2.279,2.279,0,0,0-1.921.891,4.2,4.2,0,0,0-.68,2.581v.307a4.1,4.1,0,0,0,.677,2.531A2.285,2.285,0,0,0,1157.911,882.621Z" fill="#212121"/>
      <path id="Trazado_108312" data-name="Trazado 108312" d="M1169.39,883.772a3.407,3.407,0,0,1-.229-1,3.627,3.627,0,0,1-2.707,1.177,3.353,3.353,0,0,1-2.307-.8,2.57,2.57,0,0,1-.9-2.016,2.688,2.688,0,0,1,1.13-2.308,5.322,5.322,0,0,1,3.177-.821h1.582v-.747a1.827,1.827,0,0,0-.51-1.359,2.049,2.049,0,0,0-1.5-.505,2.372,2.372,0,0,0-1.459.44,1.3,1.3,0,0,0-.589,1.063h-1.635a2.247,2.247,0,0,1,.505-1.376,3.445,3.445,0,0,1,1.371-1.049,4.616,4.616,0,0,1,1.9-.387,3.759,3.759,0,0,1,2.575.821,2.968,2.968,0,0,1,.967,2.264v4.377a5.346,5.346,0,0,0,.334,2.083v.14Zm-2.7-1.239a2.865,2.865,0,0,0,1.451-.4,2.394,2.394,0,0,0,.993-1.029v-1.951h-1.275q-2.988,0-2.988,1.749a1.482,1.482,0,0,0,.51,1.2A1.959,1.959,0,0,0,1166.691,882.533Z" fill="#212121"/>
      <path id="Trazado_108313" data-name="Trazado 108313" d="M1175.076,883.772h-1.626v-13.5h1.626Z" fill="#212121"/>
      <path id="Trazado_108314" data-name="Trazado 108314" d="M1122.518,904.221a2.34,2.34,0,0,0,1.52-.528,1.853,1.853,0,0,0,.721-1.318h1.538a2.949,2.949,0,0,1-.563,1.556,3.7,3.7,0,0,1-1.384,1.177,4,4,0,0,1-1.832.44,3.92,3.92,0,0,1-3.09-1.3,5.168,5.168,0,0,1-1.147-3.547v-.272a5.725,5.725,0,0,1,.51-2.47,3.883,3.883,0,0,1,1.463-1.679,4.163,4.163,0,0,1,2.255-.6,3.815,3.815,0,0,1,2.659.958,3.425,3.425,0,0,1,1.129,2.487h-1.538a2.246,2.246,0,0,0-.7-1.516,2.18,2.18,0,0,0-1.552-.594,2.277,2.277,0,0,0-1.921.893,4.189,4.189,0,0,0-.681,2.579v.308a4.109,4.109,0,0,0,.677,2.531A2.287,2.287,0,0,0,1122.518,904.221Z" fill="#212121"/>
      <path id="Trazado_108315" data-name="Trazado 108315" d="M1129.892,905.372h-1.626v-13.5h1.626Z" fill="#212121"/>
      <path id="Trazado_108316" data-name="Trazado 108316" d="M1132.063,900.529a5.6,5.6,0,0,1,.549-2.513,4.081,4.081,0,0,1,1.53-1.723,4.159,4.159,0,0,1,2.236-.606,4.015,4.015,0,0,1,3.143,1.344,5.183,5.183,0,0,1,1.2,3.577v.115a5.679,5.679,0,0,1-.532,2.492,4.042,4.042,0,0,1-1.521,1.718,4.207,4.207,0,0,1-2.271.615,4,4,0,0,1-3.133-1.345,5.141,5.141,0,0,1-1.2-3.559Zm1.634.194a4.066,4.066,0,0,0,.734,2.54,2.487,2.487,0,0,0,3.933-.013,4.446,4.446,0,0,0,.73-2.721,4.061,4.061,0,0,0-.743-2.535,2.364,2.364,0,0,0-1.973-.972,2.335,2.335,0,0,0-1.942.958A4.413,4.413,0,0,0,1133.7,900.723Z" fill="#212121"/>
      <path id="Trazado_108317" data-name="Trazado 108317" d="M1147.355,897.321a4.871,4.871,0,0,0-.8-.061,2.142,2.142,0,0,0-2.171,1.362v6.75h-1.626v-9.51h1.582l.026,1.1a2.531,2.531,0,0,1,2.268-1.274,1.659,1.659,0,0,1,.72.123Z" fill="#212121"/>
      <path id="Trazado_108318" data-name="Trazado 108318" d="M1148.243,900.529a5.606,5.606,0,0,1,.55-2.513,4.078,4.078,0,0,1,1.529-1.723,4.164,4.164,0,0,1,2.237-.606,4.013,4.013,0,0,1,3.142,1.344,5.178,5.178,0,0,1,1.2,3.577v.115a5.678,5.678,0,0,1-.531,2.492,4.042,4.042,0,0,1-1.521,1.718,4.21,4.21,0,0,1-2.272.615,4,4,0,0,1-3.133-1.345,5.145,5.145,0,0,1-1.2-3.559Zm1.635.194a4.072,4.072,0,0,0,.733,2.54,2.488,2.488,0,0,0,3.934-.013,4.453,4.453,0,0,0,.729-2.721,4.061,4.061,0,0,0-.743-2.535,2.361,2.361,0,0,0-1.972-.972,2.337,2.337,0,0,0-1.943.958A4.42,4.42,0,0,0,1149.878,900.723Z" fill="#212121"/>
    </g>
    <g id="Grupo_58886" data-name="Grupo 58886">
      <path id="Trazado_108319" data-name="Trazado 108319" d="M1122.677,966.266a3.424,3.424,0,0,1-.229-1,3.627,3.627,0,0,1-2.707,1.177,3.353,3.353,0,0,1-2.306-.795,2.571,2.571,0,0,1-.9-2.017,2.689,2.689,0,0,1,1.13-2.308,5.322,5.322,0,0,1,3.177-.821h1.582v-.747a1.825,1.825,0,0,0-.51-1.358,2.048,2.048,0,0,0-1.5-.505,2.372,2.372,0,0,0-1.459.439,1.3,1.3,0,0,0-.589,1.064h-1.634a2.248,2.248,0,0,1,.5-1.376,3.443,3.443,0,0,1,1.372-1.05,4.608,4.608,0,0,1,1.9-.387,3.762,3.762,0,0,1,2.575.821,2.968,2.968,0,0,1,.967,2.264v4.377a5.348,5.348,0,0,0,.334,2.083v.141Zm-2.7-1.24a2.854,2.854,0,0,0,1.45-.4,2.4,2.4,0,0,0,.993-1.028v-1.952h-1.275q-2.988,0-2.988,1.749a1.481,1.481,0,0,0,.51,1.2A1.96,1.96,0,0,0,1119.979,965.026Zm1.5-12.26h1.969l-2.355,2.584-1.31-.005Z" fill="#212121"/>
      <path id="Trazado_108320" data-name="Trazado 108320" d="M1128.8,954.453v2.3h1.775v1.257H1128.8v5.9a1.318,1.318,0,0,0,.237.858,1,1,0,0,0,.809.287,3.969,3.969,0,0,0,.773-.106v1.311a4.763,4.763,0,0,1-1.248.174,2.025,2.025,0,0,1-1.644-.659,2.831,2.831,0,0,1-.553-1.872v-5.9h-1.732v-1.257h1.732v-2.3Z" fill="#212121"/>
      <path id="Trazado_108321" data-name="Trazado 108321" d="M1131.87,961.423a5.606,5.606,0,0,1,.55-2.514,4.082,4.082,0,0,1,1.529-1.722,4.157,4.157,0,0,1,2.237-.607,4.012,4.012,0,0,1,3.142,1.345,5.177,5.177,0,0,1,1.2,3.577v.114a5.668,5.668,0,0,1-.531,2.491,4.033,4.033,0,0,1-1.521,1.719,4.21,4.21,0,0,1-2.272.615,4,4,0,0,1-3.133-1.344,5.148,5.148,0,0,1-1.2-3.56Zm1.635.193a4.068,4.068,0,0,0,.733,2.54,2.488,2.488,0,0,0,3.934-.013,4.452,4.452,0,0,0,.729-2.72,4.062,4.062,0,0,0-.743-2.536,2.469,2.469,0,0,0-3.915-.013A4.417,4.417,0,0,0,1133.505,961.616Z" fill="#212121"/>
      <path id="Trazado_108322" data-name="Trazado 108322" d="M1144.1,956.756l.044,1.055a3.509,3.509,0,0,1,2.821-1.231,2.72,2.72,0,0,1,2.716,1.529,3.586,3.586,0,0,1,1.235-1.107,3.647,3.647,0,0,1,1.8-.422q3.129,0,3.182,3.314v6.372h-1.626V959.99a2.187,2.187,0,0,0-.466-1.525,2.052,2.052,0,0,0-1.565-.505,2.16,2.16,0,0,0-1.5.54,2.2,2.2,0,0,0-.694,1.455v6.311H1148.4v-6.232a1.814,1.814,0,0,0-2.03-2.074,2.175,2.175,0,0,0-2.188,1.362v6.944h-1.626v-9.51Z" fill="#212121"/>
      <path id="Trazado_108323" data-name="Trazado 108323" d="M1157.912,961.423a5.606,5.606,0,0,1,.55-2.514,4.082,4.082,0,0,1,1.529-1.722,4.157,4.157,0,0,1,2.237-.607,4.012,4.012,0,0,1,3.142,1.345,5.177,5.177,0,0,1,1.2,3.577v.114a5.668,5.668,0,0,1-.531,2.491,4.033,4.033,0,0,1-1.521,1.719,4.21,4.21,0,0,1-2.272.615,4,4,0,0,1-3.133-1.344,5.148,5.148,0,0,1-1.2-3.56Zm1.635.193a4.068,4.068,0,0,0,.733,2.54,2.488,2.488,0,0,0,3.934-.013,4.452,4.452,0,0,0,.729-2.72,4.062,4.062,0,0,0-.743-2.536,2.469,2.469,0,0,0-3.915-.013A4.417,4.417,0,0,0,1159.547,961.616Z" fill="#212121"/>
      <path id="Trazado_108324" data-name="Trazado 108324" d="M1176.879,965.114a2.343,2.343,0,0,0,1.52-.527,1.855,1.855,0,0,0,.721-1.318h1.538a2.95,2.95,0,0,1-.562,1.555,3.713,3.713,0,0,1-1.385,1.178,3.993,3.993,0,0,1-1.832.439,3.922,3.922,0,0,1-3.09-1.3,5.167,5.167,0,0,1-1.146-3.546v-.273a5.739,5.739,0,0,1,.509-2.47,3.881,3.881,0,0,1,1.463-1.678,4.156,4.156,0,0,1,2.255-.6,3.814,3.814,0,0,1,2.659.958,3.429,3.429,0,0,1,1.129,2.487h-1.538a2.244,2.244,0,0,0-.7-1.516,2.175,2.175,0,0,0-1.552-.593,2.276,2.276,0,0,0-1.921.892,4.19,4.19,0,0,0-.68,2.58v.307a4.11,4.11,0,0,0,.676,2.532A2.289,2.289,0,0,0,1176.879,965.114Z" fill="#212121"/>
      <path id="Trazado_108325" data-name="Trazado 108325" d="M1184.253,966.266h-1.626v-13.5h1.626Z" fill="#212121"/>
      <path id="Trazado_108326" data-name="Trazado 108326" d="M1186.424,961.423a5.593,5.593,0,0,1,.55-2.514,4.081,4.081,0,0,1,1.529-1.722,4.15,4.15,0,0,1,2.236-.607,4.012,4.012,0,0,1,3.143,1.345,5.176,5.176,0,0,1,1.2,3.577v.114a5.683,5.683,0,0,1-.531,2.491,4.043,4.043,0,0,1-1.522,1.719,4.206,4.206,0,0,1-2.271.615,4,4,0,0,1-3.133-1.344,5.143,5.143,0,0,1-1.2-3.56Zm1.635.193a4.068,4.068,0,0,0,.733,2.54,2.488,2.488,0,0,0,3.934-.013,4.451,4.451,0,0,0,.729-2.72,4.062,4.062,0,0,0-.743-2.536,2.358,2.358,0,0,0-1.973-.971,2.334,2.334,0,0,0-1.942.958A4.418,4.418,0,0,0,1188.059,961.616Z" fill="#212121"/>
      <path id="Trazado_108327" data-name="Trazado 108327" d="M1201.717,958.215a4.875,4.875,0,0,0-.8-.062,2.143,2.143,0,0,0-2.171,1.363v6.75h-1.626v-9.51h1.582l.027,1.1A2.532,2.532,0,0,1,1201,956.58a1.661,1.661,0,0,1,.721.123Z" fill="#212121"/>
      <path id="Trazado_108328" data-name="Trazado 108328" d="M1202.6,961.423a5.606,5.606,0,0,1,.55-2.514,4.084,4.084,0,0,1,1.53-1.722,4.151,4.151,0,0,1,2.236-.607,4.013,4.013,0,0,1,3.143,1.345,5.181,5.181,0,0,1,1.2,3.577v.114a5.668,5.668,0,0,1-.532,2.491,4.033,4.033,0,0,1-1.521,1.719,4.207,4.207,0,0,1-2.271.615,4,4,0,0,1-3.133-1.344,5.143,5.143,0,0,1-1.2-3.56Zm1.635.193a4.062,4.062,0,0,0,.734,2.54,2.487,2.487,0,0,0,3.933-.013,4.445,4.445,0,0,0,.73-2.72,4.062,4.062,0,0,0-.743-2.536,2.361,2.361,0,0,0-1.973-.971,2.332,2.332,0,0,0-1.942.958A4.411,4.411,0,0,0,1204.239,961.616Z" fill="#212121"/>
    </g>
    <g id="Grupo_58887" data-name="Grupo 58887">
      <path id="Trazado_108329" data-name="Trazado 108329" d="M1122.677,1027.626a3.424,3.424,0,0,1-.229-1,3.628,3.628,0,0,1-2.707,1.178,3.353,3.353,0,0,1-2.306-.8,2.569,2.569,0,0,1-.9-2.017,2.686,2.686,0,0,1,1.13-2.307,5.321,5.321,0,0,1,3.177-.822h1.582v-.747a1.827,1.827,0,0,0-.51-1.358,2.049,2.049,0,0,0-1.5-.505,2.372,2.372,0,0,0-1.459.439,1.3,1.3,0,0,0-.589,1.064h-1.634a2.248,2.248,0,0,1,.5-1.376,3.452,3.452,0,0,1,1.372-1.05,4.607,4.607,0,0,1,1.9-.387,3.758,3.758,0,0,1,2.575.822,2.966,2.966,0,0,1,.967,2.263v4.377a5.345,5.345,0,0,0,.334,2.083v.141Zm-2.7-1.239a2.855,2.855,0,0,0,1.45-.4,2.386,2.386,0,0,0,.993-1.028v-1.951h-1.275q-2.988,0-2.988,1.749a1.479,1.479,0,0,0,.51,1.2A1.96,1.96,0,0,0,1119.979,1026.387Zm1.5-12.261h1.969l-2.355,2.584-1.31-.005Z" fill="#212121"/>
      <path id="Trazado_108330" data-name="Trazado 108330" d="M1128.8,1015.813v2.3h1.775v1.257H1128.8v5.9a1.323,1.323,0,0,0,.237.859,1,1,0,0,0,.809.286,3.9,3.9,0,0,0,.773-.106v1.311a4.76,4.76,0,0,1-1.248.175,2.028,2.028,0,0,1-1.644-.659,2.834,2.834,0,0,1-.553-1.872v-5.9h-1.732v-1.257h1.732v-2.3Z" fill="#212121"/>
      <path id="Trazado_108331" data-name="Trazado 108331" d="M1131.87,1022.783a5.6,5.6,0,0,1,.55-2.513,4.079,4.079,0,0,1,1.529-1.723,4.166,4.166,0,0,1,2.237-.607,4.015,4.015,0,0,1,3.142,1.345,5.178,5.178,0,0,1,1.2,3.577v.115a5.674,5.674,0,0,1-.531,2.491,4.045,4.045,0,0,1-1.521,1.719,4.21,4.21,0,0,1-2.272.615,4,4,0,0,1-3.133-1.345,5.147,5.147,0,0,1-1.2-3.56Zm1.635.194a4.071,4.071,0,0,0,.733,2.54,2.487,2.487,0,0,0,3.934-.014,4.452,4.452,0,0,0,.729-2.72,4.064,4.064,0,0,0-.743-2.536,2.469,2.469,0,0,0-3.915-.013A4.419,4.419,0,0,0,1133.505,1022.977Z" fill="#212121"/>
      <path id="Trazado_108332" data-name="Trazado 108332" d="M1144.1,1018.116l.044,1.055a3.512,3.512,0,0,1,2.821-1.231,2.719,2.719,0,0,1,2.716,1.53,3.6,3.6,0,0,1,1.235-1.108,3.647,3.647,0,0,1,1.8-.422q3.129,0,3.182,3.314v6.372h-1.626v-6.275a2.189,2.189,0,0,0-.466-1.526,2.052,2.052,0,0,0-1.565-.505,2.16,2.16,0,0,0-1.5.54,2.2,2.2,0,0,0-.694,1.455v6.311H1148.4V1021.4a1.814,1.814,0,0,0-2.03-2.075,2.174,2.174,0,0,0-2.188,1.363v6.943h-1.626v-9.51Z" fill="#212121"/>
      <path id="Trazado_108333" data-name="Trazado 108333" d="M1157.912,1022.783a5.6,5.6,0,0,1,.55-2.513,4.079,4.079,0,0,1,1.529-1.723,4.166,4.166,0,0,1,2.237-.607,4.015,4.015,0,0,1,3.142,1.345,5.178,5.178,0,0,1,1.2,3.577v.115a5.674,5.674,0,0,1-.531,2.491,4.045,4.045,0,0,1-1.521,1.719,4.21,4.21,0,0,1-2.272.615,4,4,0,0,1-3.133-1.345,5.146,5.146,0,0,1-1.2-3.56Zm1.635.194a4.071,4.071,0,0,0,.733,2.54,2.487,2.487,0,0,0,3.934-.014,4.452,4.452,0,0,0,.729-2.72,4.064,4.064,0,0,0-.743-2.536,2.469,2.469,0,0,0-3.915-.013A4.419,4.419,0,0,0,1159.547,1022.977Z" fill="#212121"/>
      <path id="Trazado_108334" data-name="Trazado 108334" d="M1172.634,1022.783a5.593,5.593,0,0,1,.55-2.513,4.079,4.079,0,0,1,1.529-1.723,4.159,4.159,0,0,1,2.236-.607,4.016,4.016,0,0,1,3.143,1.345,5.178,5.178,0,0,1,1.2,3.577v.115a5.688,5.688,0,0,1-.531,2.491,4.055,4.055,0,0,1-1.522,1.719,4.207,4.207,0,0,1-2.271.615,4,4,0,0,1-3.133-1.345,5.141,5.141,0,0,1-1.2-3.56Zm1.635.194a4.071,4.071,0,0,0,.733,2.54,2.487,2.487,0,0,0,3.934-.014,4.452,4.452,0,0,0,.729-2.72,4.064,4.064,0,0,0-.743-2.536,2.361,2.361,0,0,0-1.973-.971,2.335,2.335,0,0,0-1.942.958A4.419,4.419,0,0,0,1174.269,1022.977Z" fill="#212121"/>
      <path id="Trazado_108335" data-name="Trazado 108335" d="M1186.336,1021.588l2.109-3.472h1.9l-3.112,4.7,3.208,4.808h-1.88l-2.2-3.56-2.2,3.56h-1.89l3.208-4.808-3.111-4.7h1.881Z" fill="#212121"/>
      <path id="Trazado_108336" data-name="Trazado 108336" d="M1193.851,1014.135h1.968l-2.355,2.584-1.31-.005Zm-.018,13.491H1192.2v-9.51h1.635Z" fill="#212121"/>
      <path id="Trazado_108337" data-name="Trazado 108337" d="M1196.127,1022.792a5.594,5.594,0,0,1,1.028-3.538,3.545,3.545,0,0,1,5.441-.083l.079-1.055h1.485v9.281a3.871,3.871,0,0,1-1.094,2.91,4.04,4.04,0,0,1-2.94,1.063,4.892,4.892,0,0,1-2.013-.439,3.475,3.475,0,0,1-1.5-1.2l.844-.976a3.18,3.18,0,0,0,2.558,1.292,2.49,2.49,0,0,0,1.849-.668,2.55,2.55,0,0,0,.664-1.881v-.817a3.341,3.341,0,0,1-2.663,1.125,3.246,3.246,0,0,1-2.7-1.345A5.871,5.871,0,0,1,1196.127,1022.792Zm1.635.185a4.257,4.257,0,0,0,.659,2.526,2.143,2.143,0,0,0,1.846.919,2.38,2.38,0,0,0,2.258-1.4v-4.341a2.409,2.409,0,0,0-2.241-1.363,2.161,2.161,0,0,0-1.854.923A4.64,4.64,0,0,0,1197.762,1022.977Z" fill="#212121"/>
      <path id="Trazado_108338" data-name="Trazado 108338" d="M1210.559,1027.8a4.156,4.156,0,0,1-3.147-1.271,4.713,4.713,0,0,1-1.213-3.4v-.3a5.726,5.726,0,0,1,.54-2.527,4.23,4.23,0,0,1,1.512-1.741,3.8,3.8,0,0,1,2.1-.628,3.562,3.562,0,0,1,2.883,1.222,5.289,5.289,0,0,1,1.029,3.5v.677h-6.443a3.379,3.379,0,0,0,.822,2.271,2.581,2.581,0,0,0,2,.867,2.833,2.833,0,0,0,1.459-.352,3.639,3.639,0,0,0,1.046-.932l.994.774A4,4,0,0,1,1210.559,1027.8Zm-.2-8.526a2.17,2.17,0,0,0-1.652.716,3.485,3.485,0,0,0-.826,2.009h4.764v-.123a3.1,3.1,0,0,0-.668-1.921A2.044,2.044,0,0,0,1210.356,1019.276Z" fill="#212121"/>
      <path id="Trazado_108339" data-name="Trazado 108339" d="M1217.687,1018.116l.052,1.2a3.465,3.465,0,0,1,2.848-1.372q3.015,0,3.041,3.4v6.284H1222v-6.293a2.181,2.181,0,0,0-.471-1.52,1.877,1.877,0,0,0-1.436-.493,2.347,2.347,0,0,0-1.389.422,2.871,2.871,0,0,0-.932,1.108v6.776h-1.626v-9.51Z" fill="#212121"/>
      <path id="Trazado_108340" data-name="Trazado 108340" d="M1225.649,1022.783a5.606,5.606,0,0,1,.55-2.513,4.074,4.074,0,0,1,1.53-1.723,4.159,4.159,0,0,1,2.236-.607,4.012,4.012,0,0,1,3.142,1.345,5.179,5.179,0,0,1,1.2,3.577v.115a5.674,5.674,0,0,1-.532,2.491,4.046,4.046,0,0,1-1.521,1.719,4.208,4.208,0,0,1-2.272.615,3.994,3.994,0,0,1-3.132-1.345,5.142,5.142,0,0,1-1.2-3.56Zm1.635.194a4.065,4.065,0,0,0,.734,2.54,2.486,2.486,0,0,0,3.933-.014,4.446,4.446,0,0,0,.73-2.72,4.064,4.064,0,0,0-.743-2.536,2.363,2.363,0,0,0-1.973-.971,2.338,2.338,0,0,0-1.943.958A4.419,4.419,0,0,0,1227.284,1022.977Z" fill="#212121"/>
    </g>
    <g id="Grupo_58888" data-name="Grupo 58888">
      <path id="Trazado_108341" data-name="Trazado 108341" d="M1122.17,997.089a3.424,3.424,0,0,1-.229-1,3.627,3.627,0,0,1-2.707,1.178,3.349,3.349,0,0,1-2.306-.8,2.569,2.569,0,0,1-.9-2.017,2.686,2.686,0,0,1,1.13-2.307,5.328,5.328,0,0,1,3.177-.822h1.582v-.747a1.823,1.823,0,0,0-.51-1.357,2.045,2.045,0,0,0-1.5-.506,2.372,2.372,0,0,0-1.459.439,1.3,1.3,0,0,0-.589,1.064h-1.634a2.245,2.245,0,0,1,.505-1.376,3.456,3.456,0,0,1,1.371-1.05,4.612,4.612,0,0,1,1.9-.387,3.762,3.762,0,0,1,2.575.822,2.964,2.964,0,0,1,.967,2.263v4.377a5.343,5.343,0,0,0,.334,2.083v.141Zm-2.7-1.239a2.856,2.856,0,0,0,1.45-.4,2.392,2.392,0,0,0,.993-1.028v-1.951h-1.274q-2.99,0-2.989,1.749a1.48,1.48,0,0,0,.51,1.2A1.96,1.96,0,0,0,1119.472,995.85Zm1.5-12.261h1.968l-2.355,2.584-1.31,0Z" fill="#212121"/>
      <path id="Trazado_108342" data-name="Trazado 108342" d="M1128.3,985.276v2.3h1.775v1.257H1128.3v5.9a1.324,1.324,0,0,0,.237.859,1,1,0,0,0,.809.286,3.894,3.894,0,0,0,.773-.106v1.311a4.719,4.719,0,0,1-1.248.175,2.023,2.023,0,0,1-1.643-.66,2.825,2.825,0,0,1-.554-1.872v-5.9h-1.732v-1.257h1.732v-2.3Z" fill="#212121"/>
      <path id="Trazado_108343" data-name="Trazado 108343" d="M1131.363,992.246a5.61,5.61,0,0,1,.55-2.514,4.081,4.081,0,0,1,1.529-1.722,4.156,4.156,0,0,1,2.237-.607,4.012,4.012,0,0,1,3.142,1.345,5.179,5.179,0,0,1,1.2,3.577v.114a5.683,5.683,0,0,1-.532,2.493,4.04,4.04,0,0,1-1.521,1.717,4.2,4.2,0,0,1-2.272.616,4,4,0,0,1-3.133-1.345,5.148,5.148,0,0,1-1.2-3.56Zm1.635.193a4.068,4.068,0,0,0,.733,2.54,2.487,2.487,0,0,0,3.934-.012,4.457,4.457,0,0,0,.73-2.721,4.057,4.057,0,0,0-.744-2.535,2.468,2.468,0,0,0-3.915-.014A4.418,4.418,0,0,0,1133,992.439Z" fill="#212121"/>
      <path id="Trazado_108344" data-name="Trazado 108344" d="M1143.589,987.579l.044,1.055a3.51,3.51,0,0,1,2.821-1.231,2.72,2.72,0,0,1,2.716,1.53,3.587,3.587,0,0,1,1.235-1.108,3.647,3.647,0,0,1,1.8-.422q3.129,0,3.182,3.314v6.372h-1.626v-6.276a2.178,2.178,0,0,0-.466-1.524,2.047,2.047,0,0,0-1.564-.506,2.152,2.152,0,0,0-1.5.541,2.192,2.192,0,0,0-.695,1.454v6.311H1147.9v-6.232a1.815,1.815,0,0,0-2.031-2.074,2.174,2.174,0,0,0-2.188,1.363v6.943h-1.626v-9.51Z" fill="#212121"/>
      <path id="Trazado_108345" data-name="Trazado 108345" d="M1157.405,992.246a5.61,5.61,0,0,1,.55-2.514,4.081,4.081,0,0,1,1.529-1.722,4.156,4.156,0,0,1,2.237-.607,4.012,4.012,0,0,1,3.142,1.345,5.179,5.179,0,0,1,1.2,3.577v.114a5.683,5.683,0,0,1-.532,2.493,4.04,4.04,0,0,1-1.521,1.717,4.2,4.2,0,0,1-2.272.616,4,4,0,0,1-3.133-1.345,5.148,5.148,0,0,1-1.2-3.56Zm1.635.193a4.068,4.068,0,0,0,.733,2.54,2.487,2.487,0,0,0,3.934-.012,4.457,4.457,0,0,0,.73-2.721,4.057,4.057,0,0,0-.744-2.535,2.468,2.468,0,0,0-3.915-.014A4.418,4.418,0,0,0,1159.04,992.439Z" fill="#212121"/>
      <path id="Trazado_108346" data-name="Trazado 108346" d="M1176.372,995.938a2.342,2.342,0,0,0,1.521-.528,1.855,1.855,0,0,0,.72-1.318h1.538a2.939,2.939,0,0,1-.562,1.555,3.7,3.7,0,0,1-1.385,1.178,3.991,3.991,0,0,1-1.832.44,3.925,3.925,0,0,1-3.09-1.3,5.174,5.174,0,0,1-1.146-3.547v-.273a5.721,5.721,0,0,1,.51-2.469,3.876,3.876,0,0,1,1.462-1.679,4.164,4.164,0,0,1,2.255-.6,3.818,3.818,0,0,1,2.659.958,3.425,3.425,0,0,1,1.129,2.488h-1.538a2.249,2.249,0,0,0-.7-1.517,2.182,2.182,0,0,0-1.552-.593,2.279,2.279,0,0,0-1.921.892,4.194,4.194,0,0,0-.68,2.58v.308a4.109,4.109,0,0,0,.676,2.531A2.288,2.288,0,0,0,1176.372,995.938Z" fill="#212121"/>
      <path id="Trazado_108347" data-name="Trazado 108347" d="M1187.851,997.089a3.428,3.428,0,0,1-.229-1,3.628,3.628,0,0,1-2.707,1.178,3.353,3.353,0,0,1-2.307-.8,2.571,2.571,0,0,1-.9-2.017,2.686,2.686,0,0,1,1.13-2.307,5.326,5.326,0,0,1,3.177-.822h1.582v-.747a1.823,1.823,0,0,0-.51-1.357,2.045,2.045,0,0,0-1.5-.506,2.372,2.372,0,0,0-1.459.439,1.3,1.3,0,0,0-.589,1.064H1181.9a2.245,2.245,0,0,1,.505-1.376,3.454,3.454,0,0,1,1.371-1.05,4.616,4.616,0,0,1,1.9-.387,3.764,3.764,0,0,1,2.575.822,2.967,2.967,0,0,1,.967,2.263v4.377a5.343,5.343,0,0,0,.334,2.083v.141Zm-2.7-1.239a2.857,2.857,0,0,0,1.451-.4,2.391,2.391,0,0,0,.993-1.028v-1.951h-1.275q-2.988,0-2.988,1.749a1.48,1.48,0,0,0,.51,1.2A1.959,1.959,0,0,0,1185.152,995.85Z" fill="#212121"/>
      <path id="Trazado_108348" data-name="Trazado 108348" d="M1196.367,989.038a4.876,4.876,0,0,0-.8-.061,2.143,2.143,0,0,0-2.171,1.362v6.75h-1.625v-9.51h1.582l.026,1.1a2.531,2.531,0,0,1,2.267-1.275,1.66,1.66,0,0,1,.721.123Z" fill="#212121"/>
      <path id="Trazado_108349" data-name="Trazado 108349" d="M1205.912,992.439a5.648,5.648,0,0,1-1,3.5,3.2,3.2,0,0,1-2.689,1.324,3.314,3.314,0,0,1-2.786-1.275l-.08,1.1h-1.494v-13.5h1.626v5.036a3.3,3.3,0,0,1,2.716-1.222,3.224,3.224,0,0,1,2.721,1.31,5.831,5.831,0,0,1,.988,3.586Zm-1.626-.184a4.4,4.4,0,0,0-.641-2.567,2.126,2.126,0,0,0-1.846-.9,2.388,2.388,0,0,0-2.312,1.494v4.114a2.454,2.454,0,0,0,2.329,1.494,2.113,2.113,0,0,0,1.82-.906A4.674,4.674,0,0,0,1204.286,992.255Z" fill="#212121"/>
      <path id="Trazado_108350" data-name="Trazado 108350" d="M1207.529,992.246a5.61,5.61,0,0,1,.55-2.514,4.081,4.081,0,0,1,1.529-1.722,4.156,4.156,0,0,1,2.237-.607,4.012,4.012,0,0,1,3.142,1.345,5.179,5.179,0,0,1,1.2,3.577v.114a5.683,5.683,0,0,1-.532,2.493,4.04,4.04,0,0,1-1.521,1.717,4.2,4.2,0,0,1-2.272.616,4,4,0,0,1-3.133-1.345,5.148,5.148,0,0,1-1.2-3.56Zm1.635.193a4.068,4.068,0,0,0,.733,2.54,2.487,2.487,0,0,0,3.934-.012,4.457,4.457,0,0,0,.73-2.721,4.051,4.051,0,0,0-.744-2.535,2.468,2.468,0,0,0-3.915-.014A4.418,4.418,0,0,0,1209.164,992.439Z" fill="#212121"/>
      <path id="Trazado_108351" data-name="Trazado 108351" d="M1219.764,987.579l.052,1.2a3.466,3.466,0,0,1,2.848-1.371q3.015,0,3.041,3.4v6.284h-1.626V990.8a2.185,2.185,0,0,0-.471-1.521,1.881,1.881,0,0,0-1.436-.492,2.352,2.352,0,0,0-1.389.422,2.854,2.854,0,0,0-.931,1.108v6.776h-1.626v-9.51Z" fill="#212121"/>
      <path id="Trazado_108352" data-name="Trazado 108352" d="M1227.727,992.246a5.61,5.61,0,0,1,.549-2.514,4.084,4.084,0,0,1,1.53-1.722,4.15,4.15,0,0,1,2.236-.607,4.016,4.016,0,0,1,3.143,1.345,5.183,5.183,0,0,1,1.2,3.577v.114a5.7,5.7,0,0,1-.531,2.493,4.05,4.05,0,0,1-1.522,1.717,4.2,4.2,0,0,1-2.271.616,4,4,0,0,1-3.133-1.345,5.143,5.143,0,0,1-1.2-3.56Zm1.634.193a4.062,4.062,0,0,0,.734,2.54,2.486,2.486,0,0,0,3.933-.012,4.45,4.45,0,0,0,.73-2.721,4.057,4.057,0,0,0-.743-2.535,2.36,2.36,0,0,0-1.973-.972,2.335,2.335,0,0,0-1.942.958A4.412,4.412,0,0,0,1229.361,992.439Z" fill="#212121"/>
    </g>
    <g id="Grupo_58889" data-name="Grupo 58889">
      <path id="Trazado_108353" data-name="Trazado 108353" d="M1193.041,823.58a7.909,7.909,0,0,1-.633,3.282,4.789,4.789,0,0,1-1.793,2.141,4.948,4.948,0,0,1-7.2-2.123,7.579,7.579,0,0,1-.664-3.186v-.923a7.815,7.815,0,0,1,.642-3.26,4.744,4.744,0,0,1,4.5-2.918,4.969,4.969,0,0,1,2.712.742,4.791,4.791,0,0,1,1.8,2.153,7.956,7.956,0,0,1,.633,3.283Zm-1.679-.826a5.733,5.733,0,0,0-.914-3.494,3.013,3.013,0,0,0-2.557-1.217,2.982,2.982,0,0,0-2.519,1.217,5.618,5.618,0,0,0-.944,3.38v.94a5.745,5.745,0,0,0,.926,3.467,3.248,3.248,0,0,0,5.085.07,5.7,5.7,0,0,0,.923-3.414Z" fill="#212121"/>
      <path id="Trazado_108354" data-name="Trazado 108354" d="M1196.847,828.238h5.563v1.327h-7.55v-1.2l5.247-6.97h-5.168v-1.344h7.207v1.151Z" fill="#212121"/>
      <path id="Trazado_108355" data-name="Trazado 108355" d="M1203.667,824.723a5.606,5.606,0,0,1,.55-2.514,4.091,4.091,0,0,1,1.529-1.723,4.161,4.161,0,0,1,2.236-.606,4.013,4.013,0,0,1,3.143,1.345,5.175,5.175,0,0,1,1.2,3.577v.114a5.681,5.681,0,0,1-.531,2.491,4.029,4.029,0,0,1-1.522,1.719,4.207,4.207,0,0,1-2.271.615,4,4,0,0,1-3.133-1.345,5.141,5.141,0,0,1-1.2-3.559Zm1.635.193a4.07,4.07,0,0,0,.733,2.54,2.487,2.487,0,0,0,3.934-.014,4.447,4.447,0,0,0,.729-2.719,4.062,4.062,0,0,0-.743-2.536,2.358,2.358,0,0,0-1.973-.971,2.334,2.334,0,0,0-1.942.958A4.417,4.417,0,0,0,1205.3,824.916Z" fill="#212121"/>
      <path id="Trazado_108356" data-name="Trazado 108356" d="M1215.9,820.056l.053,1.195a3.467,3.467,0,0,1,2.848-1.371q3.015,0,3.041,3.4v6.284h-1.626v-6.293a2.182,2.182,0,0,0-.471-1.52,1.882,1.882,0,0,0-1.436-.492,2.34,2.34,0,0,0-1.389.422,2.86,2.86,0,0,0-.932,1.107v6.776h-1.626v-9.509Z" fill="#212121"/>
      <path id="Trazado_108357" data-name="Trazado 108357" d="M1223.864,824.723a5.608,5.608,0,0,1,.55-2.514,4.091,4.091,0,0,1,1.529-1.723,4.164,4.164,0,0,1,2.237-.606,4.011,4.011,0,0,1,3.142,1.345,5.175,5.175,0,0,1,1.2,3.577v.114a5.668,5.668,0,0,1-.531,2.491,4.033,4.033,0,0,1-1.521,1.719,4.208,4.208,0,0,1-2.272.615,4,4,0,0,1-3.133-1.345,5.146,5.146,0,0,1-1.2-3.559Zm1.635.193a4.07,4.07,0,0,0,.733,2.54,2.487,2.487,0,0,0,3.934-.014,4.447,4.447,0,0,0,.73-2.719,4.062,4.062,0,0,0-.744-2.536,2.469,2.469,0,0,0-3.915-.013A4.417,4.417,0,0,0,1225.5,824.916Z" fill="#212121"/>
    </g>
    <g id="Grupo_58890" data-name="Grupo 58890">
      <path id="Trazado_108358" data-name="Trazado 108358" d="M1236.771,735.621l4.184,10.442,4.184-10.442h2.188v12.8h-1.687v-4.983l.158-5.379-4.2,10.362h-1.292l-4.193-10.336.167,5.353v4.983h-1.687v-12.8Z" fill="#212121"/>
      <path id="Trazado_108359" data-name="Trazado 108359" d="M1249.621,743.575a5.6,5.6,0,0,1,.55-2.513,4.079,4.079,0,0,1,1.529-1.723,4.166,4.166,0,0,1,2.237-.607,4.015,4.015,0,0,1,3.142,1.345,5.178,5.178,0,0,1,1.2,3.577v.115a5.674,5.674,0,0,1-.531,2.491,4.045,4.045,0,0,1-1.521,1.719,4.21,4.21,0,0,1-2.272.615,4,4,0,0,1-3.133-1.345,5.146,5.146,0,0,1-1.2-3.56Zm1.635.194a4.072,4.072,0,0,0,.733,2.54,2.487,2.487,0,0,0,3.934-.014,4.451,4.451,0,0,0,.729-2.72,4.064,4.064,0,0,0-.743-2.536,2.361,2.361,0,0,0-1.972-.971,2.337,2.337,0,0,0-1.943.958A4.419,4.419,0,0,0,1251.256,743.769Z" fill="#212121"/>
      <path id="Trazado_108360" data-name="Trazado 108360" d="M1261.855,738.908l.053,1.2a3.465,3.465,0,0,1,2.848-1.372q3.015,0,3.041,3.4v6.284h-1.626v-6.293a2.185,2.185,0,0,0-.471-1.521,1.88,1.88,0,0,0-1.436-.492,2.347,2.347,0,0,0-1.389.422,2.873,2.873,0,0,0-.932,1.108v6.776h-1.626v-9.51Z" fill="#212121"/>
      <path id="Trazado_108361" data-name="Trazado 108361" d="M1269.818,743.575a5.6,5.6,0,0,1,.55-2.513,4.079,4.079,0,0,1,1.529-1.723,4.166,4.166,0,0,1,2.237-.607,4.012,4.012,0,0,1,3.142,1.345,5.179,5.179,0,0,1,1.2,3.577v.115a5.674,5.674,0,0,1-.532,2.491,4.045,4.045,0,0,1-1.521,1.719,4.208,4.208,0,0,1-2.272.615,3.994,3.994,0,0,1-3.132-1.345,5.142,5.142,0,0,1-1.2-3.56Zm1.635.194a4.066,4.066,0,0,0,.734,2.54,2.486,2.486,0,0,0,3.933-.014,4.452,4.452,0,0,0,.73-2.72,4.058,4.058,0,0,0-.744-2.536,2.469,2.469,0,0,0-3.915-.013A4.419,4.419,0,0,0,1271.453,743.769Zm3.419-8.851h1.969l-2.356,2.584-1.309-.005Z" fill="#212121"/>
      <path id="Trazado_108362" data-name="Trazado 108362" d="M1283.7,742.38l2.109-3.472h1.9l-3.111,4.7,3.208,4.808h-1.881l-2.2-3.56-2.2,3.56h-1.889l3.208-4.808-3.112-4.7h1.881Z" fill="#212121"/>
      <path id="Trazado_108363" data-name="Trazado 108363" d="M1289.444,736.386a.965.965,0,0,1,.242-.668.906.906,0,0,1,.716-.273.921.921,0,0,1,.721.273.959.959,0,0,1,.246.668.963.963,0,1,1-1.925,0Zm1.758,12.032h-1.626v-9.51h1.626Z" fill="#212121"/>
      <path id="Trazado_108364" data-name="Trazado 108364" d="M1293.408,743.584a5.577,5.577,0,0,1,1.037-3.521,3.53,3.53,0,0,1,5.362-.188v-4.957h1.626v13.5h-1.495l-.079-1.02a3.31,3.31,0,0,1-2.715,1.2,3.246,3.246,0,0,1-2.694-1.354,5.63,5.63,0,0,1-1.042-3.533Zm1.626.185a4.22,4.22,0,0,0,.668,2.531,2.16,2.16,0,0,0,1.846.914,2.373,2.373,0,0,0,2.259-1.389v-4.368a2.393,2.393,0,0,0-2.242-1.345,2.17,2.17,0,0,0-1.863.923A4.648,4.648,0,0,0,1295.034,743.769Z" fill="#212121"/>
      <path id="Trazado_108365" data-name="Trazado 108365" d="M1303.524,743.575a5.606,5.606,0,0,1,.55-2.513,4.074,4.074,0,0,1,1.53-1.723,4.159,4.159,0,0,1,2.236-.607,4.012,4.012,0,0,1,3.142,1.345,5.179,5.179,0,0,1,1.2,3.577v.115a5.674,5.674,0,0,1-.532,2.491,4.046,4.046,0,0,1-1.521,1.719,4.208,4.208,0,0,1-2.272.615,3.994,3.994,0,0,1-3.132-1.345,5.142,5.142,0,0,1-1.2-3.56Zm1.635.194a4.066,4.066,0,0,0,.734,2.54,2.486,2.486,0,0,0,3.933-.014,4.445,4.445,0,0,0,.73-2.72,4.064,4.064,0,0,0-.743-2.536,2.363,2.363,0,0,0-1.973-.971,2.338,2.338,0,0,0-1.943.958A4.419,4.419,0,0,0,1305.159,743.769Z" fill="#212121"/>
      <path id="Trazado_108366" data-name="Trazado 108366" d="M1233.941,765.184a5.568,5.568,0,0,1,1.038-3.52,3.527,3.527,0,0,1,5.361-.189v-4.957h1.626v13.5h-1.494l-.079-1.02a3.312,3.312,0,0,1-2.716,1.2,3.248,3.248,0,0,1-2.694-1.353,5.629,5.629,0,0,1-1.042-3.533Zm1.626.184a4.219,4.219,0,0,0,.668,2.531,2.16,2.16,0,0,0,1.846.914,2.372,2.372,0,0,0,2.259-1.388v-4.368a2.39,2.39,0,0,0-2.241-1.345,2.172,2.172,0,0,0-1.864.923A4.645,4.645,0,0,0,1235.567,765.368Z" fill="#212121"/>
      <path id="Trazado_108367" data-name="Trazado 108367" d="M1248.435,770.193a4.155,4.155,0,0,1-3.147-1.269,4.715,4.715,0,0,1-1.213-3.4v-.3a5.723,5.723,0,0,1,.54-2.527,4.227,4.227,0,0,1,1.512-1.74,3.8,3.8,0,0,1,2.105-.629,3.559,3.559,0,0,1,2.883,1.222,5.285,5.285,0,0,1,1.029,3.5v.677H1245.7a3.381,3.381,0,0,0,.822,2.272,2.582,2.582,0,0,0,2,.865,2.832,2.832,0,0,0,1.459-.351,3.654,3.654,0,0,0,1.046-.932l.994.773A3.994,3.994,0,0,1,1248.435,770.193Zm-.2-8.525a2.167,2.167,0,0,0-1.652.717,3.476,3.476,0,0,0-.826,2.008h4.764v-.123a3.1,3.1,0,0,0-.668-1.92A2.045,2.045,0,0,0,1248.232,761.668Z" fill="#212121"/>
      <path id="Trazado_108368" data-name="Trazado 108368" d="M1262.3,768.866a2.342,2.342,0,0,0,1.52-.527,1.855,1.855,0,0,0,.721-1.318h1.538a2.95,2.95,0,0,1-.562,1.555,3.713,3.713,0,0,1-1.385,1.178,3.992,3.992,0,0,1-1.832.439,3.918,3.918,0,0,1-3.09-1.3,5.165,5.165,0,0,1-1.146-3.546v-.273a5.739,5.739,0,0,1,.509-2.47,3.887,3.887,0,0,1,1.463-1.678,4.155,4.155,0,0,1,2.255-.6,3.814,3.814,0,0,1,2.659.958,3.429,3.429,0,0,1,1.129,2.487h-1.538a2.241,2.241,0,0,0-.7-1.515,2.176,2.176,0,0,0-1.552-.594,2.277,2.277,0,0,0-1.921.893,4.187,4.187,0,0,0-.68,2.579v.307a4.11,4.11,0,0,0,.676,2.532A2.29,2.29,0,0,0,1262.3,768.866Z" fill="#212121"/>
      <path id="Trazado_108369" data-name="Trazado 108369" d="M1269.669,770.018h-1.626v-13.5h1.626Z" fill="#212121"/>
      <path id="Trazado_108370" data-name="Trazado 108370" d="M1271.84,765.175a5.593,5.593,0,0,1,.55-2.514,4.091,4.091,0,0,1,1.529-1.723,4.16,4.16,0,0,1,2.236-.606,4.013,4.013,0,0,1,3.143,1.345,5.176,5.176,0,0,1,1.2,3.577v.114a5.686,5.686,0,0,1-.531,2.492,4.039,4.039,0,0,1-1.522,1.718,4.207,4.207,0,0,1-2.271.615,4,4,0,0,1-3.133-1.344,5.143,5.143,0,0,1-1.2-3.56Zm1.635.193a4.068,4.068,0,0,0,.733,2.54,2.489,2.489,0,0,0,3.934-.012,4.454,4.454,0,0,0,.729-2.721,4.059,4.059,0,0,0-.743-2.535,2.359,2.359,0,0,0-1.973-.972,2.334,2.334,0,0,0-1.942.958A4.418,4.418,0,0,0,1273.475,765.368Z" fill="#212121"/>
      <path id="Trazado_108371" data-name="Trazado 108371" d="M1287.133,761.967a4.882,4.882,0,0,0-.8-.062,2.143,2.143,0,0,0-2.171,1.363v6.75h-1.626v-9.51h1.582l.027,1.1a2.532,2.532,0,0,1,2.267-1.274,1.661,1.661,0,0,1,.721.123Z" fill="#212121"/>
      <path id="Trazado_108372" data-name="Trazado 108372" d="M1288.021,765.175a5.607,5.607,0,0,1,.549-2.514,4.093,4.093,0,0,1,1.53-1.723,4.159,4.159,0,0,1,2.236-.606,4.013,4.013,0,0,1,3.143,1.345,5.181,5.181,0,0,1,1.2,3.577v.114a5.672,5.672,0,0,1-.532,2.492,4.031,4.031,0,0,1-1.521,1.718,4.207,4.207,0,0,1-2.271.615,4,4,0,0,1-3.133-1.344,5.144,5.144,0,0,1-1.2-3.56Zm1.634.193a4.062,4.062,0,0,0,.734,2.54,2.488,2.488,0,0,0,3.933-.012,4.448,4.448,0,0,0,.73-2.721,4.059,4.059,0,0,0-.743-2.535,2.361,2.361,0,0,0-1.973-.972,2.333,2.333,0,0,0-1.942.958A4.411,4.411,0,0,0,1289.655,765.368Z" fill="#212121"/>
    </g>
    <g id="Grupo_58891" data-name="Grupo 58891">
      <path id="Trazado_108373" data-name="Trazado 108373" d="M1392.284,733.736h-3.006v5.177h-1.7v-12.8h4.236a5.011,5.011,0,0,1,3.327.985,3.542,3.542,0,0,1,1.165,2.865,3.449,3.449,0,0,1-.646,2.083,3.86,3.86,0,0,1-1.8,1.327l3.006,5.432v.105h-1.81Zm-3.006-1.38h2.593a2.924,2.924,0,0,0,2-.651,2.206,2.206,0,0,0,.742-1.743,2.319,2.319,0,0,0-.707-1.822,3,3,0,0,0-2.044-.644h-2.584Z" fill="#212121"/>
      <path id="Trazado_108374" data-name="Trazado 108374" d="M1404.29,738.913a3.383,3.383,0,0,1-.228-1,3.631,3.631,0,0,1-2.708,1.178,3.353,3.353,0,0,1-2.306-.795,2.571,2.571,0,0,1-.9-2.018,2.685,2.685,0,0,1,1.13-2.306,5.321,5.321,0,0,1,3.177-.823h1.582V732.4a1.824,1.824,0,0,0-.51-1.357,2.046,2.046,0,0,0-1.5-.506,2.372,2.372,0,0,0-1.459.44,1.3,1.3,0,0,0-.588,1.063h-1.635a2.241,2.241,0,0,1,.505-1.375,3.458,3.458,0,0,1,1.371-1.051,4.611,4.611,0,0,1,1.9-.386,3.758,3.758,0,0,1,2.575.822,2.964,2.964,0,0,1,.967,2.263v4.376a5.339,5.339,0,0,0,.334,2.083v.141Zm-2.7-1.239a2.854,2.854,0,0,0,1.45-.4,2.387,2.387,0,0,0,.993-1.028V734.3h-1.274q-2.988,0-2.989,1.749a1.479,1.479,0,0,0,.51,1.2A1.962,1.962,0,0,0,1401.592,737.674Z" fill="#212121"/>
      <path id="Trazado_108375" data-name="Trazado 108375" d="M1407.814,734.079a5.563,5.563,0,0,1,1.038-3.519,3.528,3.528,0,0,1,5.361-.19v-4.957h1.626v13.5h-1.494l-.079-1.019a3.315,3.315,0,0,1-2.716,1.2,3.246,3.246,0,0,1-2.694-1.354,5.629,5.629,0,0,1-1.042-3.533Zm1.626.185a4.218,4.218,0,0,0,.668,2.531,2.162,2.162,0,0,0,1.846.914,2.373,2.373,0,0,0,2.259-1.389v-4.368a2.391,2.391,0,0,0-2.241-1.345,2.172,2.172,0,0,0-1.864.923A4.65,4.65,0,0,0,1409.44,734.264Z" fill="#212121"/>
      <path id="Trazado_108376" data-name="Trazado 108376" d="M1418.37,726.881a.971.971,0,0,1,.241-.668.909.909,0,0,1,.717-.273.92.92,0,0,1,.721.273.96.96,0,0,1,.246.668,1.007,1.007,0,0,1-1.684.659A.938.938,0,0,1,1418.37,726.881Zm1.758,12.032H1418.5V729.4h1.626Z" fill="#212121"/>
      <path id="Trazado_108377" data-name="Trazado 108377" d="M1426.544,737.762a2.338,2.338,0,0,0,1.52-.528,1.853,1.853,0,0,0,.721-1.318h1.538a2.955,2.955,0,0,1-.562,1.556,3.71,3.71,0,0,1-1.385,1.177,3.993,3.993,0,0,1-1.832.44,3.921,3.921,0,0,1-3.09-1.3,5.167,5.167,0,0,1-1.146-3.547v-.272a5.739,5.739,0,0,1,.509-2.47,3.89,3.89,0,0,1,1.463-1.679,4.163,4.163,0,0,1,2.255-.6,3.814,3.814,0,0,1,2.659.958,3.425,3.425,0,0,1,1.129,2.487h-1.538a2.246,2.246,0,0,0-.7-1.516,2.181,2.181,0,0,0-1.552-.594,2.277,2.277,0,0,0-1.921.893,4.189,4.189,0,0,0-.68,2.579v.308a4.109,4.109,0,0,0,.676,2.531A2.288,2.288,0,0,0,1426.544,737.762Z" fill="#212121"/>
      <path id="Trazado_108378" data-name="Trazado 108378" d="M1438.022,738.913a3.451,3.451,0,0,1-.228-1,3.629,3.629,0,0,1-2.707,1.178,3.356,3.356,0,0,1-2.307-.795,2.573,2.573,0,0,1-.9-2.018,2.685,2.685,0,0,1,1.13-2.306,5.319,5.319,0,0,1,3.177-.823h1.582V732.4a1.824,1.824,0,0,0-.51-1.357,2.049,2.049,0,0,0-1.5-.506,2.37,2.37,0,0,0-1.459.44,1.293,1.293,0,0,0-.589,1.063h-1.635a2.24,2.24,0,0,1,.505-1.375,3.456,3.456,0,0,1,1.371-1.051,4.613,4.613,0,0,1,1.9-.386,3.759,3.759,0,0,1,2.575.822,2.967,2.967,0,0,1,.967,2.263v4.376a5.339,5.339,0,0,0,.334,2.083v.141Zm-2.7-1.239a2.854,2.854,0,0,0,1.45-.4,2.389,2.389,0,0,0,.994-1.028V734.3h-1.275q-2.988,0-2.988,1.749a1.479,1.479,0,0,0,.51,1.2A1.957,1.957,0,0,0,1435.324,737.674Z" fill="#212121"/>
      <path id="Trazado_108379" data-name="Trazado 108379" d="M1443.709,738.913h-1.626v-13.5h1.626Z" fill="#212121"/>
      <path id="Trazado_108380" data-name="Trazado 108380" d="M1454.581,737.762a2.343,2.343,0,0,0,1.521-.528,1.856,1.856,0,0,0,.72-1.318h1.538a2.945,2.945,0,0,1-.562,1.556,3.71,3.71,0,0,1-1.385,1.177,3.99,3.99,0,0,1-1.832.44,3.921,3.921,0,0,1-3.09-1.3,5.173,5.173,0,0,1-1.146-3.547v-.272a5.739,5.739,0,0,1,.509-2.47,3.89,3.89,0,0,1,1.463-1.679,4.163,4.163,0,0,1,2.255-.6,3.814,3.814,0,0,1,2.659.958,3.421,3.421,0,0,1,1.129,2.487h-1.538a2.246,2.246,0,0,0-.7-1.516,2.179,2.179,0,0,0-1.552-.594,2.277,2.277,0,0,0-1.921.893,4.189,4.189,0,0,0-.68,2.579v.308a4.109,4.109,0,0,0,.676,2.531A2.288,2.288,0,0,0,1454.581,737.762Z" fill="#212121"/>
      <path id="Trazado_108381" data-name="Trazado 108381" d="M1461.955,738.913h-1.626v-13.5h1.626Z" fill="#212121"/>
      <path id="Trazado_108382" data-name="Trazado 108382" d="M1464.126,734.07a5.6,5.6,0,0,1,.55-2.513,4.085,4.085,0,0,1,1.529-1.723,4.162,4.162,0,0,1,2.236-.606,4.015,4.015,0,0,1,3.143,1.344,5.178,5.178,0,0,1,1.2,3.577v.115a5.689,5.689,0,0,1-.531,2.492,4.044,4.044,0,0,1-1.522,1.718,4.207,4.207,0,0,1-2.271.615,4,4,0,0,1-3.133-1.345,5.14,5.14,0,0,1-1.2-3.559Zm1.635.194a4.072,4.072,0,0,0,.733,2.54,2.488,2.488,0,0,0,3.934-.013,4.453,4.453,0,0,0,.729-2.721,4.06,4.06,0,0,0-.743-2.535,2.362,2.362,0,0,0-1.973-.972,2.337,2.337,0,0,0-1.942.958A4.419,4.419,0,0,0,1465.761,734.264Z" fill="#212121"/>
      <path id="Trazado_108383" data-name="Trazado 108383" d="M1479.419,730.862a4.876,4.876,0,0,0-.8-.061,2.143,2.143,0,0,0-2.171,1.362v6.75h-1.626V729.4h1.582l.027,1.1a2.53,2.53,0,0,1,2.267-1.274,1.66,1.66,0,0,1,.721.123Z" fill="#212121"/>
      <path id="Trazado_108384" data-name="Trazado 108384" d="M1480.307,734.07a5.606,5.606,0,0,1,.549-2.513,4.087,4.087,0,0,1,1.53-1.723,4.159,4.159,0,0,1,2.236-.606,4.015,4.015,0,0,1,3.143,1.344,5.183,5.183,0,0,1,1.2,3.577v.115a5.689,5.689,0,0,1-.531,2.492,4.051,4.051,0,0,1-1.522,1.718,4.207,4.207,0,0,1-2.271.615,4,4,0,0,1-3.133-1.345,5.141,5.141,0,0,1-1.2-3.559Zm1.634.194a4.072,4.072,0,0,0,.734,2.54,2.487,2.487,0,0,0,3.933-.013,4.446,4.446,0,0,0,.73-2.721,4.061,4.061,0,0,0-.743-2.535,2.363,2.363,0,0,0-1.973-.972,2.335,2.335,0,0,0-1.942.958A4.419,4.419,0,0,0,1481.941,734.264Z" fill="#212121"/>
      <path id="Trazado_108385" data-name="Trazado 108385" d="M1389.1,760.514h-1.626v-13.5h1.626Z" fill="#212121"/>
      <path id="Trazado_108386" data-name="Trazado 108386" d="M1391.713,748.481a.973.973,0,0,1,.241-.668.91.91,0,0,1,.717-.272.925.925,0,0,1,.721.272.962.962,0,0,1,.246.668.93.93,0,0,1-.246.66.942.942,0,0,1-.721.263.927.927,0,0,1-.717-.263A.94.94,0,0,1,1391.713,748.481Zm1.758,12.033h-1.626V751h1.626Z" fill="#212121"/>
      <path id="Trazado_108387" data-name="Trazado 108387" d="M1404.123,755.864a5.654,5.654,0,0,1-1,3.5,3.2,3.2,0,0,1-2.689,1.323,3.312,3.312,0,0,1-2.786-1.274l-.08,1.1h-1.494v-13.5h1.626v5.036a3.3,3.3,0,0,1,2.716-1.222,3.224,3.224,0,0,1,2.721,1.31,5.831,5.831,0,0,1,.988,3.586Zm-1.626-.184a4.394,4.394,0,0,0-.642-2.567,2.123,2.123,0,0,0-1.845-.9,2.388,2.388,0,0,0-2.312,1.494v4.113a2.454,2.454,0,0,0,2.329,1.495,2.113,2.113,0,0,0,1.82-.906A4.674,4.674,0,0,0,1402.5,755.68Z" fill="#212121"/>
      <path id="Trazado_108388" data-name="Trazado 108388" d="M1410.768,752.463a4.881,4.881,0,0,0-.8-.062,2.142,2.142,0,0,0-2.171,1.363v6.75h-1.626V751h1.582l.026,1.1a2.532,2.532,0,0,1,2.268-1.275,1.664,1.664,0,0,1,.721.123Z" fill="#212121"/>
      <path id="Trazado_108389" data-name="Trazado 108389" d="M1416.208,760.689a4.152,4.152,0,0,1-3.146-1.27,4.713,4.713,0,0,1-1.213-3.4v-.3a5.717,5.717,0,0,1,.54-2.528,4.224,4.224,0,0,1,1.511-1.74,3.8,3.8,0,0,1,2.106-.628,3.562,3.562,0,0,1,2.883,1.222,5.291,5.291,0,0,1,1.028,3.5v.677h-6.442a3.369,3.369,0,0,0,.822,2.271,2.58,2.58,0,0,0,2,.866,2.838,2.838,0,0,0,1.459-.351,3.682,3.682,0,0,0,1.046-.932l.993.774A3.994,3.994,0,0,1,1416.208,760.689Zm-.2-8.525a2.166,2.166,0,0,0-1.652.716,3.48,3.48,0,0,0-.827,2.009h4.764v-.123a3.1,3.1,0,0,0-.668-1.921A2.041,2.041,0,0,0,1416.006,752.164Z" fill="#212121"/>
    </g>
    <g id="Grupo_58892" data-name="Grupo 58892">
      <path id="Trazado_108390" data-name="Trazado 108390" d="M1309.2,911.672l4.184,10.441,4.183-10.441h2.189v12.8h-1.688v-4.984l.158-5.379-4.2,10.363h-1.292l-4.192-10.336.167,5.352v4.984h-1.688v-12.8Z" fill="#212121"/>
      <path id="Trazado_108391" data-name="Trazado 108391" d="M1322.054,919.626a5.593,5.593,0,0,1,.55-2.514,4.081,4.081,0,0,1,1.529-1.722,4.15,4.15,0,0,1,2.236-.607,4.012,4.012,0,0,1,3.143,1.345,5.176,5.176,0,0,1,1.2,3.577v.114a5.7,5.7,0,0,1-.531,2.493,4.043,4.043,0,0,1-1.522,1.717,4.207,4.207,0,0,1-2.271.616,4,4,0,0,1-3.133-1.345,5.143,5.143,0,0,1-1.2-3.56Zm1.634.193a4.068,4.068,0,0,0,.734,2.54,2.488,2.488,0,0,0,3.933-.012,4.448,4.448,0,0,0,.73-2.721,4.059,4.059,0,0,0-.743-2.535,2.36,2.36,0,0,0-1.973-.972,2.333,2.333,0,0,0-1.942.958A4.418,4.418,0,0,0,1323.688,919.819Z" fill="#212121"/>
      <path id="Trazado_108392" data-name="Trazado 108392" d="M1334.517,924.469h-1.626v-13.5h1.626Z" fill="#212121"/>
      <path id="Trazado_108393" data-name="Trazado 108393" d="M1341.064,924.645a4.154,4.154,0,0,1-3.146-1.27,4.713,4.713,0,0,1-1.213-3.4v-.3a5.726,5.726,0,0,1,.54-2.527,4.219,4.219,0,0,1,1.512-1.74,3.8,3.8,0,0,1,2.105-.629,3.559,3.559,0,0,1,2.883,1.222,5.285,5.285,0,0,1,1.028,3.5v.677h-6.442a3.376,3.376,0,0,0,.822,2.272,2.582,2.582,0,0,0,2,.865,2.832,2.832,0,0,0,1.459-.351,3.666,3.666,0,0,0,1.046-.932l.993.774A3.994,3.994,0,0,1,1341.064,924.645Zm-.2-8.526a2.167,2.167,0,0,0-1.652.717,3.476,3.476,0,0,0-.826,2.008h4.763v-.123a3.087,3.087,0,0,0-.668-1.92A2.041,2.041,0,0,0,1340.862,916.119Zm.791-5.15h1.969l-2.355,2.584-1.31,0Z" fill="#212121"/>
      <path id="Trazado_108394" data-name="Trazado 108394" d="M1350.469,923.317a2.337,2.337,0,0,0,1.52-.527,1.855,1.855,0,0,0,.721-1.318h1.538a2.949,2.949,0,0,1-.562,1.555,3.7,3.7,0,0,1-1.385,1.178,3.994,3.994,0,0,1-1.832.44,3.921,3.921,0,0,1-3.09-1.3,5.169,5.169,0,0,1-1.147-3.547v-.273a5.721,5.721,0,0,1,.51-2.469,3.879,3.879,0,0,1,1.463-1.679,4.156,4.156,0,0,1,2.255-.6,3.82,3.82,0,0,1,2.659.958,3.429,3.429,0,0,1,1.129,2.488h-1.538a2.241,2.241,0,0,0-.7-1.516,2.176,2.176,0,0,0-1.552-.594,2.277,2.277,0,0,0-1.921.893,4.187,4.187,0,0,0-.681,2.579v.307a4.109,4.109,0,0,0,.677,2.532A2.288,2.288,0,0,0,1350.469,923.317Z" fill="#212121"/>
      <path id="Trazado_108395" data-name="Trazado 108395" d="M1361.947,923.528a3.454,3.454,0,0,1-2.786,1.117,2.951,2.951,0,0,1-2.315-.883,3.818,3.818,0,0,1-.8-2.616v-6.187h1.626V921.1q0,2.161,1.758,2.162a2.433,2.433,0,0,0,2.478-1.389v-6.917h1.626v9.51h-1.547Z" fill="#212121"/>
      <path id="Trazado_108396" data-name="Trazado 108396" d="M1367.766,924.469h-1.626v-13.5h1.626Z" fill="#212121"/>
      <path id="Trazado_108397" data-name="Trazado 108397" d="M1376.238,924.469a3.432,3.432,0,0,1-.228-1,3.628,3.628,0,0,1-2.707,1.178,3.356,3.356,0,0,1-2.307-.8,2.576,2.576,0,0,1-.9-2.018,2.686,2.686,0,0,1,1.13-2.307,5.325,5.325,0,0,1,3.176-.822h1.582v-.747a1.828,1.828,0,0,0-.509-1.357,2.049,2.049,0,0,0-1.5-.506,2.37,2.37,0,0,0-1.459.439,1.3,1.3,0,0,0-.589,1.064h-1.635a2.24,2.24,0,0,1,.505-1.375,3.449,3.449,0,0,1,1.371-1.051,4.612,4.612,0,0,1,1.9-.387,3.767,3.767,0,0,1,2.576.822,2.962,2.962,0,0,1,.966,2.263v4.377a5.361,5.361,0,0,0,.334,2.083v.141Zm-2.7-1.24a2.852,2.852,0,0,0,1.45-.4,2.392,2.392,0,0,0,.993-1.028v-1.952h-1.274q-2.988,0-2.988,1.75a1.483,1.483,0,0,0,.509,1.2A1.961,1.961,0,0,0,1373.54,923.229Z" fill="#212121"/>
      <path id="Trazado_108398" data-name="Trazado 108398" d="M1384.219,919.635a5.568,5.568,0,0,1,1.037-3.52,3.527,3.527,0,0,1,5.361-.189v-4.957h1.626v13.5h-1.494l-.079-1.02a3.312,3.312,0,0,1-2.716,1.2,3.247,3.247,0,0,1-2.693-1.354,5.623,5.623,0,0,1-1.042-3.533Zm1.626.184a4.218,4.218,0,0,0,.668,2.532,2.159,2.159,0,0,0,1.845.914,2.371,2.371,0,0,0,2.259-1.389v-4.368a2.389,2.389,0,0,0-2.241-1.345,2.169,2.169,0,0,0-1.863.923A4.638,4.638,0,0,0,1385.845,919.819Z" fill="#212121"/>
      <path id="Trazado_108399" data-name="Trazado 108399" d="M1398.712,924.645a4.156,4.156,0,0,1-3.147-1.27,4.716,4.716,0,0,1-1.212-3.4v-.3a5.713,5.713,0,0,1,.54-2.527,4.224,4.224,0,0,1,1.511-1.74,3.8,3.8,0,0,1,2.106-.629,3.561,3.561,0,0,1,2.883,1.222,5.29,5.29,0,0,1,1.028,3.5v.677h-6.442a3.371,3.371,0,0,0,.822,2.272,2.579,2.579,0,0,0,2,.865,2.838,2.838,0,0,0,1.459-.351,3.682,3.682,0,0,0,1.046-.932l.993.774A4,4,0,0,1,1398.712,924.645Zm-.2-8.526a2.17,2.17,0,0,0-1.653.717,3.482,3.482,0,0,0-.826,2.008h4.764v-.123a3.1,3.1,0,0,0-.668-1.92A2.043,2.043,0,0,0,1398.51,916.119Z" fill="#212121"/>
      <path id="Trazado_108400" data-name="Trazado 108400" d="M1306.339,941.227a5.592,5.592,0,0,1,.55-2.514,4.091,4.091,0,0,1,1.529-1.723,4.159,4.159,0,0,1,2.236-.606,4.012,4.012,0,0,1,3.143,1.345,5.175,5.175,0,0,1,1.2,3.577v.114a5.681,5.681,0,0,1-.531,2.491,4.042,4.042,0,0,1-1.522,1.719,4.207,4.207,0,0,1-2.271.615,4,4,0,0,1-3.133-1.345,5.141,5.141,0,0,1-1.2-3.559Zm1.635.193a4.07,4.07,0,0,0,.733,2.54,2.487,2.487,0,0,0,3.934-.014,4.446,4.446,0,0,0,.729-2.719,4.067,4.067,0,0,0-.743-2.537,2.36,2.36,0,0,0-1.973-.97,2.334,2.334,0,0,0-1.942.958A4.414,4.414,0,0,0,1307.974,941.42Z" fill="#212121"/>
      <path id="Trazado_108401" data-name="Trazado 108401" d="M1320.041,940.031l2.109-3.471h1.9l-3.111,4.7,3.208,4.807h-1.881l-2.2-3.559-2.2,3.559h-1.89l3.208-4.807-3.111-4.7h1.881Z" fill="#212121"/>
      <path id="Trazado_108402" data-name="Trazado 108402" d="M1327.556,932.578h1.968l-2.355,2.584-1.31-.005Zm-.018,13.491H1325.9V936.56h1.635Z" fill="#212121"/>
      <path id="Trazado_108403" data-name="Trazado 108403" d="M1329.832,941.235a5.6,5.6,0,0,1,1.028-3.538,3.547,3.547,0,0,1,5.441-.083l.079-1.054h1.485v9.281a3.871,3.871,0,0,1-1.094,2.909,4.038,4.038,0,0,1-2.94,1.063,4.9,4.9,0,0,1-2.013-.439,3.467,3.467,0,0,1-1.5-1.2l.844-.976a3.177,3.177,0,0,0,2.558,1.292,2.485,2.485,0,0,0,1.849-.668,2.549,2.549,0,0,0,.664-1.88v-.818a3.341,3.341,0,0,1-2.663,1.125,3.246,3.246,0,0,1-2.7-1.345A5.872,5.872,0,0,1,1329.832,941.235Zm1.635.185a4.264,4.264,0,0,0,.659,2.526,2.141,2.141,0,0,0,1.846.919,2.381,2.381,0,0,0,2.258-1.4v-4.342a2.409,2.409,0,0,0-2.241-1.362,2.158,2.158,0,0,0-1.854.923A4.637,4.637,0,0,0,1331.467,941.42Z" fill="#212121"/>
      <path id="Trazado_108404" data-name="Trazado 108404" d="M1344.264,946.245a4.16,4.16,0,0,1-3.147-1.27,4.717,4.717,0,0,1-1.213-3.4v-.3a5.726,5.726,0,0,1,.54-2.527,4.233,4.233,0,0,1,1.512-1.74,3.8,3.8,0,0,1,2.106-.628,3.56,3.56,0,0,1,2.882,1.221,5.29,5.29,0,0,1,1.029,3.5v.676h-6.443a3.374,3.374,0,0,0,.823,2.272,2.58,2.58,0,0,0,2,.866,2.828,2.828,0,0,0,1.459-.352,3.66,3.66,0,0,0,1.045-.931l.994.773A3.994,3.994,0,0,1,1344.264,946.245Zm-.2-8.525a2.167,2.167,0,0,0-1.653.716,3.479,3.479,0,0,0-.826,2.008h4.764v-.123a3.1,3.1,0,0,0-.668-1.921A2.043,2.043,0,0,0,1344.062,937.72Z" fill="#212121"/>
      <path id="Trazado_108405" data-name="Trazado 108405" d="M1351.392,936.56l.052,1.2a3.467,3.467,0,0,1,2.848-1.371q3.015,0,3.041,3.4v6.284h-1.626v-6.293a2.182,2.182,0,0,0-.471-1.52,1.88,1.88,0,0,0-1.436-.492,2.343,2.343,0,0,0-1.389.422,2.869,2.869,0,0,0-.932,1.107v6.776h-1.625V936.56Z" fill="#212121"/>
      <path id="Trazado_108406" data-name="Trazado 108406" d="M1359.354,941.227a5.605,5.605,0,0,1,.55-2.514,4.093,4.093,0,0,1,1.53-1.723,4.16,4.16,0,0,1,2.236-.606,4.012,4.012,0,0,1,3.143,1.345,5.18,5.18,0,0,1,1.2,3.577v.114a5.668,5.668,0,0,1-.532,2.491,4.04,4.04,0,0,1-1.521,1.719,4.207,4.207,0,0,1-2.271.615,4,4,0,0,1-3.133-1.345,5.141,5.141,0,0,1-1.2-3.559Zm1.635.193a4.064,4.064,0,0,0,.734,2.54,2.486,2.486,0,0,0,3.933-.014,4.44,4.44,0,0,0,.73-2.719,4.067,4.067,0,0,0-.743-2.537,2.362,2.362,0,0,0-1.973-.97,2.333,2.333,0,0,0-1.942.958A4.407,4.407,0,0,0,1360.989,941.42Z" fill="#212121"/>
    </g>
    <g id="Grupo_58893" data-name="Grupo 58893">
      <path id="Trazado_108407" data-name="Trazado 108407" d="M1163.332,851.461h6.97v3.005h-6.97v7.9h-3.193v-7.9h-6.97v-3.005h6.97v-7.3h3.193Z"/>
    </g>
    <g id="Grupo_58894" data-name="Grupo 58894">
      <path id="Trazado_108408" data-name="Trazado 108408" d="M1006.533,812.54a4.713,4.713,0,0,1-1.5,3.134,4.915,4.915,0,0,1-3.353,1.1,4.51,4.51,0,0,1-3.635-1.626,6.541,6.541,0,0,1-1.366-4.35v-1.231a7.286,7.286,0,0,1,.637-3.137,4.748,4.748,0,0,1,1.806-2.078,5.024,5.024,0,0,1,2.707-.726,4.626,4.626,0,0,1,3.27,1.139,4.762,4.762,0,0,1,1.432,3.15h-1.7a3.686,3.686,0,0,0-.954-2.222,2.886,2.886,0,0,0-2.052-.687,3.021,3.021,0,0,0-2.536,1.2,5.5,5.5,0,0,0-.918,3.4v1.241a5.642,5.642,0,0,0,.87,3.316,2.812,2.812,0,0,0,2.435,1.231,3.25,3.25,0,0,0,2.158-.636,3.543,3.543,0,0,0,1-2.22Z" fill="#212121"/>
      <path id="Trazado_108409" data-name="Trazado 108409" d="M1015.894,810.949h-5.371V816.6h-1.687V803.8h7.928v1.38h-6.241v4.385h5.371Z" fill="#212121"/>
      <path id="Trazado_108410" data-name="Trazado 108410" d="M1032.654,812.54a4.713,4.713,0,0,1-1.5,3.134,4.915,4.915,0,0,1-3.353,1.1,4.51,4.51,0,0,1-3.635-1.626,6.542,6.542,0,0,1-1.366-4.35v-1.231a7.285,7.285,0,0,1,.637-3.137,4.748,4.748,0,0,1,1.806-2.078,5.024,5.024,0,0,1,2.707-.726,4.625,4.625,0,0,1,3.27,1.139,4.758,4.758,0,0,1,1.432,3.15h-1.7A3.68,3.68,0,0,0,1030,805.7a2.886,2.886,0,0,0-2.052-.687,3.021,3.021,0,0,0-2.536,1.2,5.5,5.5,0,0,0-.918,3.4v1.241a5.642,5.642,0,0,0,.87,3.316,2.811,2.811,0,0,0,2.435,1.231,3.25,3.25,0,0,0,2.158-.636,3.543,3.543,0,0,0,1-2.22Z" fill="#212121"/>
      <path id="Trazado_108411" data-name="Trazado 108411" d="M1036.768,816.6h-1.688V803.8h1.688Z" fill="#212121"/>
    </g>
    <g id="Grupo_58895" data-name="Grupo 58895">
      <path id="Trazado_108412" data-name="Trazado 108412" d="M1042.938,816.853h.827a1.813,1.813,0,0,0,1.224-.411,1.368,1.368,0,0,0,.447-1.076,1.343,1.343,0,0,0-1.517-1.521,1.572,1.572,0,0,0-1.138.407,1.426,1.426,0,0,0-.426,1.078h-1.1a2.21,2.21,0,0,1,.752-1.709,2.744,2.744,0,0,1,1.911-.681,2.711,2.711,0,0,1,1.921.649,2.342,2.342,0,0,1,.7,1.8,1.9,1.9,0,0,1-.365,1.093,2.193,2.193,0,0,1-1,.791,2.131,2.131,0,0,1,1.1.749,2.08,2.08,0,0,1,.39,1.279,2.362,2.362,0,0,1-.761,1.848,2.851,2.851,0,0,1-1.979.684,2.929,2.929,0,0,1-1.984-.66,2.192,2.192,0,0,1-.763-1.741h1.105a1.418,1.418,0,0,0,.446,1.093,1.7,1.7,0,0,0,1.2.411,1.667,1.667,0,0,0,1.218-.416,1.6,1.6,0,0,0,.422-1.2,1.459,1.459,0,0,0-.463-1.159,2.02,2.02,0,0,0-1.338-.416h-.827Z"/>
    </g>
    <g id="Grupo_58896" data-name="Grupo 58896">
      <path id="Trazado_108413" data-name="Trazado 108413" d="M926.294,958.938a4.71,4.71,0,0,1-1.5,3.133,4.912,4.912,0,0,1-3.354,1.1,4.51,4.51,0,0,1-3.634-1.626,6.537,6.537,0,0,1-1.367-4.351v-1.23a7.273,7.273,0,0,1,.638-3.138,4.748,4.748,0,0,1,1.806-2.078,5.031,5.031,0,0,1,2.707-.726,4.623,4.623,0,0,1,3.269,1.139,4.763,4.763,0,0,1,1.433,3.15h-1.7a3.683,3.683,0,0,0-.954-2.221,2.888,2.888,0,0,0-2.052-.688,3.021,3.021,0,0,0-2.536,1.2,5.485,5.485,0,0,0-.918,3.4v1.24a5.646,5.646,0,0,0,.87,3.317,2.81,2.81,0,0,0,2.434,1.231,3.251,3.251,0,0,0,2.159-.637,3.542,3.542,0,0,0,1-2.219Z" fill="#212121"/>
      <path id="Trazado_108414" data-name="Trazado 108414" d="M935.654,957.347h-5.37V963H928.6V950.2h7.927v1.38h-6.24v4.386h5.37Z" fill="#212121"/>
      <path id="Trazado_108415" data-name="Trazado 108415" d="M952.415,958.938a4.71,4.71,0,0,1-1.5,3.133,4.912,4.912,0,0,1-3.354,1.1,4.509,4.509,0,0,1-3.634-1.626,6.542,6.542,0,0,1-1.367-4.351v-1.23a7.272,7.272,0,0,1,.638-3.138,4.755,4.755,0,0,1,1.806-2.078,5.031,5.031,0,0,1,2.707-.726,4.622,4.622,0,0,1,3.269,1.139,4.763,4.763,0,0,1,1.433,3.15h-1.7a3.683,3.683,0,0,0-.954-2.221,2.888,2.888,0,0,0-2.052-.688,3.022,3.022,0,0,0-2.536,1.2,5.486,5.486,0,0,0-.918,3.4v1.24a5.646,5.646,0,0,0,.87,3.317,2.811,2.811,0,0,0,2.434,1.231,3.251,3.251,0,0,0,2.159-.637,3.542,3.542,0,0,0,1-2.219Z" fill="#212121"/>
      <path id="Trazado_108416" data-name="Trazado 108416" d="M956.528,963h-1.687V950.2h1.687Z" fill="#212121"/>
    </g>
    <g id="Grupo_58897" data-name="Grupo 58897">
      <path id="Trazado_108417" data-name="Trazado 108417" d="M966.772,968.112H961.1v-.791l3-3.329a7.122,7.122,0,0,0,.918-1.227,2.054,2.054,0,0,0,.253-.978,1.549,1.549,0,0,0-.411-1.111,1.431,1.431,0,0,0-1.093-.435,1.7,1.7,0,0,0-1.276.467,1.785,1.785,0,0,0-.455,1.3h-1.1a2.552,2.552,0,0,1,.769-1.932,2.858,2.858,0,0,1,2.061-.737,2.745,2.745,0,0,1,1.908.633,2.158,2.158,0,0,1,.7,1.685,4.952,4.952,0,0,1-1.629,3.044l-2.318,2.515h4.345Z"/>
    </g>
    <g id="Grupo_58901" data-name="Grupo 58901">
      <g id="Grupo_58900" data-name="Grupo 58900">
        <path id="Trazado_108418" data-name="Trazado 108418" d="M1116.4,862.169a37.473,37.473,0,0,1-18.018-4.187l-2.015-1.069,1.182,1.951c.533.881,1.088,1.747,1.7,2.648.444.66.906,1.321,1.376,1.973a41.09,41.09,0,0,1-10.042,3.23,38.709,38.709,0,0,1-5.758.649c-.763.046-1.518.038-2.317.031l-.593-.005-.537-.027c-.8-.041-1.626-.083-2.437-.178a45.307,45.307,0,0,1-22.679-9.005l-2.082-1.14,1.208,2.032a49.046,49.046,0,0,0,20.716,15.051,52.084,52.084,0,0,0,6.424,2,51.279,51.279,0,0,0,6.742,1.13,53.271,53.271,0,0,0,13.9-.48l.028-.005.028-.007c.025-.007.637-.167,1.241-.368l.3-.1c-.069.756-.15,1.521-.241,2.281-.136,1.136-.29,2.222-.46,3.227l-.333,1.967,1.4-1.42a49.835,49.835,0,0,0,12.07-19.36l.272-.839h0Z" fill="#fff"/>
        <g id="Grupo_58899" data-name="Grupo 58899">
          <g id="Grupo_58898" data-name="Grupo 58898">
            <path id="Trazado_108419" data-name="Trazado 108419" d="M1104.682,881.91c.182-1.077.335-2.169.465-3.257s.238-2.167.324-3.241l-1.2.381c-.6.2-1.21.359-1.21.359a52.61,52.61,0,0,1-13.729.474,50.79,50.79,0,0,1-6.662-1.117,51.523,51.523,0,0,1-6.343-1.975,48.641,48.641,0,0,1-20.447-14.854,45.621,45.621,0,0,0,23,9.131c1,.118,2.008.154,3,.208,1,.005,1.992.033,2.981-.027a39.075,39.075,0,0,0,5.84-.658,41.981,41.981,0,0,0,10.878-3.608q-.939-1.273-1.809-2.566c-.58-.859-1.138-1.727-1.68-2.622a38.141,38.141,0,0,0,18.514,4.26A49.19,49.19,0,0,1,1104.682,881.91Z" fill="#09b291"/>
          </g>
          <path id="Trazado_108420" data-name="Trazado 108420" d="M1104.682,881.91c.182-1.077.335-2.169.465-3.257s.238-2.167.324-3.241l-1.2.381c-.6.2-1.21.359-1.21.359a52.61,52.61,0,0,1-13.729.474,50.79,50.79,0,0,1-6.662-1.117,51.523,51.523,0,0,1-6.343-1.975,48.641,48.641,0,0,1-20.447-14.854l.544.506c.359.325.86.832,1.56,1.407a45.75,45.75,0,0,0,6.045,4.422,49.146,49.146,0,0,0,9.578,4.495,46.168,46.168,0,0,0,23.971,1.626,49.229,49.229,0,0,0,10.1-3.161,45.7,45.7,0,0,0,6.587-3.565c.771-.475,1.336-.91,1.736-1.183l.607-.429A49.19,49.19,0,0,1,1104.682,881.91Z" fill="#231f20" opacity="0.5" style="mix-blend-mode: overlay;isolation: isolate"/>
        </g>
      </g>
    </g>
    <g id="Grupo_58905" data-name="Grupo 58905">
      <g id="Grupo_58904" data-name="Grupo 58904">
        <path id="Trazado_108421" data-name="Trazado 108421" d="M1275.826,810.485a37.48,37.48,0,0,1-16.253,8.833l-2.217.538,2.18.675c.983.3,1.973.583,3.025.853.771.2,1.555.387,2.34.562a41.086,41.086,0,0,1-5.365,9.083,38.61,38.61,0,0,1-3.875,4.309c-.539.54-1.109,1.036-1.712,1.561l-.446.39-.42.336c-.624.5-1.27,1.018-1.94,1.485a45.3,45.3,0,0,1-22.938,8.325l-2.313.529,2.252.719a49.064,49.064,0,0,0,25.485-2.5,52.092,52.092,0,0,0,6.131-2.77,51.209,51.209,0,0,0,5.791-3.632,53.213,53.213,0,0,0,10.071-9.584l.019-.022.016-.024c.014-.022.365-.549.683-1.1l.164-.275c.451.612.9,1.237,1.335,1.866.653.94,1.258,1.854,1.8,2.719l1.057,1.691.105-1.992a49.851,49.851,0,0,0-3.829-22.49l-.354-.808h0Z" fill="#fff"/>
        <g id="Grupo_58903" data-name="Grupo 58903">
          <g id="Grupo_58902" data-name="Grupo 58902">
            <path id="Trazado_108422" data-name="Trazado 108422" d="M1280.171,833.027c-.579-.926-1.189-1.844-1.815-2.744s-1.261-1.778-1.91-2.638l-.646,1.084c-.316.546-.667,1.071-.667,1.071a52.635,52.635,0,0,1-9.952,9.471,50.891,50.891,0,0,1-5.723,3.588,51.622,51.622,0,0,1-6.054,2.735,48.641,48.641,0,0,1-25.153,2.468,45.621,45.621,0,0,0,23.261-8.441c.826-.577,1.6-1.219,2.383-1.839.752-.661,1.511-1.3,2.212-2a39.045,39.045,0,0,0,3.929-4.37,41.914,41.914,0,0,0,5.738-9.92q-1.547-.328-3.056-.717c-1-.258-2-.536-3-.846a38.154,38.154,0,0,0,16.672-9.107A49.2,49.2,0,0,1,1280.171,833.027Z" fill="#09b291"/>
          </g>
          <path id="Trazado_108423" data-name="Trazado 108423" d="M1280.171,833.027c-.579-.926-1.189-1.844-1.815-2.744s-1.261-1.778-1.91-2.638l-.646,1.084c-.316.546-.667,1.071-.667,1.071a52.635,52.635,0,0,1-9.952,9.471,50.891,50.891,0,0,1-5.723,3.588,51.622,51.622,0,0,1-6.054,2.735,48.641,48.641,0,0,1-25.153,2.468l.743.018c.485,0,1.2.051,2.1.016a45.633,45.633,0,0,0,7.456-.708,49.182,49.182,0,0,0,10.147-3,46.189,46.189,0,0,0,19-14.7,49.1,49.1,0,0,0,5.451-9.068,45.641,45.641,0,0,0,2.559-7.039c.261-.867.4-1.567.512-2.037l.17-.724A49.2,49.2,0,0,1,1280.171,833.027Z" fill="#231f20" opacity="0.5" style="mix-blend-mode: overlay;isolation: isolate"/>
        </g>
      </g>
    </g>
    <g id="Grupo_58909" data-name="Grupo 58909">
      <g id="Grupo_58908" data-name="Grupo 58908">
        <path id="Trazado_108424" data-name="Trazado 108424" d="M1275.826,904.9a37.46,37.46,0,0,0-16.253-8.833l-2.217-.539,2.18-.674c.983-.3,1.973-.583,3.025-.854.771-.2,1.555-.386,2.34-.561a41.117,41.117,0,0,0-5.365-9.084,38.6,38.6,0,0,0-3.875-4.308c-.539-.54-1.109-1.036-1.712-1.561l-.446-.391-.42-.335c-.624-.5-1.27-1.018-1.94-1.486a45.313,45.313,0,0,0-22.938-8.324l-2.313-.53,2.252-.718a49.064,49.064,0,0,1,25.485,2.5,52.112,52.112,0,0,1,6.131,2.77,51.061,51.061,0,0,1,5.791,3.632,53.18,53.18,0,0,1,10.071,9.584l.019.022.016.024c.014.022.365.548.683,1.1l.164.275c.451-.612.9-1.237,1.335-1.867.653-.939,1.258-1.853,1.8-2.718l1.057-1.692.105,1.993a49.85,49.85,0,0,1-3.829,22.49l-.354.808h0Z" fill="#fff"/>
        <g id="Grupo_58907" data-name="Grupo 58907">
          <g id="Grupo_58906" data-name="Grupo 58906">
            <path id="Trazado_108425" data-name="Trazado 108425" d="M1280.171,882.354c-.579.926-1.189,1.844-1.815,2.744s-1.261,1.778-1.91,2.638l-.646-1.084c-.316-.547-.667-1.072-.667-1.072a52.664,52.664,0,0,0-9.952-9.47,50.751,50.751,0,0,0-5.723-3.588,51.462,51.462,0,0,0-6.054-2.735,48.642,48.642,0,0,0-25.153-2.469,45.632,45.632,0,0,1,23.261,8.442c.826.577,1.6,1.218,2.383,1.839.752.661,1.511,1.3,2.212,2a39.224,39.224,0,0,1,3.929,4.37,41.94,41.94,0,0,1,5.738,9.921q-1.547.328-3.056.717c-1,.258-2,.536-3,.845a38.146,38.146,0,0,1,16.672,9.108A49.2,49.2,0,0,0,1280.171,882.354Z" fill="#09b291"/>
          </g>
          <path id="Trazado_108426" data-name="Trazado 108426" d="M1280.171,882.354c-.579.926-1.189,1.844-1.815,2.744s-1.261,1.778-1.91,2.638l-.646-1.084c-.316-.547-.667-1.072-.667-1.072a52.664,52.664,0,0,0-9.952-9.47,50.751,50.751,0,0,0-5.723-3.588,51.462,51.462,0,0,0-6.054-2.735,48.642,48.642,0,0,0-25.153-2.469l.743-.018c.485,0,1.2-.05,2.1-.015a45.633,45.633,0,0,1,7.456.708,49.182,49.182,0,0,1,10.147,3,46.163,46.163,0,0,1,19,14.7,49.131,49.131,0,0,1,5.451,9.067,45.646,45.646,0,0,1,2.559,7.04c.261.867.4,1.567.512,2.037l.17.724A49.2,49.2,0,0,0,1280.171,882.354Z" fill="#231f20" opacity="0.5" style="mix-blend-mode: overlay;isolation: isolate"/>
        </g>
      </g>
    </g>
    <g id="Grupo_58913" data-name="Grupo 58913">
      <g id="Grupo_58912" data-name="Grupo 58912">
        <path id="Trazado_108427" data-name="Trazado 108427" d="M1373.413,784.27a37.464,37.464,0,0,0-18.2,3.28l-2.067.967,1.279-1.89c.576-.852,1.174-1.689,1.826-2.559.477-.637.971-1.274,1.473-1.9a41.152,41.152,0,0,0-9.868-3.729,38.692,38.692,0,0,0-5.718-.936c-.76-.084-1.514-.114-2.313-.146l-.593-.026h-.537c-.8,0-1.628,0-2.443.055a45.3,45.3,0,0,0-23.1,7.86l-2.136,1.034,1.307-1.97a49.064,49.064,0,0,1,21.444-13.995,52.176,52.176,0,0,1,6.516-1.676,51.193,51.193,0,0,1,6.791-.79,53.189,53.189,0,0,1,13.852,1.174l.028.006.028.009c.025.008.628.2,1.221.429l.3.112c-.031-.76-.074-1.527-.127-2.291-.078-1.141-.178-2.233-.3-3.246l-.233-1.981,1.328,1.488a49.827,49.827,0,0,1,11.085,19.94l.23.851h0Z" fill="#fff"/>
        <g id="Grupo_58911" data-name="Grupo 58911">
          <g id="Grupo_58910" data-name="Grupo 58910">
            <path id="Trazado_108428" data-name="Trazado 108428" d="M1362.7,763.967c.128,1.085.226,2.183.3,3.277s.13,2.175.162,3.253l-1.183-.441c-.589-.229-1.191-.419-1.191-.419a52.628,52.628,0,0,0-13.689-1.161,50.961,50.961,0,0,0-6.709.782,51.715,51.715,0,0,0-6.434,1.655,48.648,48.648,0,0,0-21.165,13.813,45.617,45.617,0,0,1,23.426-7.969c1.006-.067,2.014-.053,3.01-.057,1,.045,1.992.067,2.977.175a39.163,39.163,0,0,1,5.8.951,41.891,41.891,0,0,1,10.683,4.148q-1,1.224-1.934,2.471c-.622.83-1.223,1.668-1.809,2.535a38.148,38.148,0,0,1,18.7-3.328A49.206,49.206,0,0,0,1362.7,763.967Z" fill="#09b291"/>
          </g>
          <path id="Trazado_108429" data-name="Trazado 108429" d="M1362.7,763.967c.128,1.085.226,2.183.3,3.277s.13,2.175.162,3.253l-1.183-.441c-.589-.229-1.191-.419-1.191-.419a52.628,52.628,0,0,0-13.689-1.161,50.961,50.961,0,0,0-6.709.782,51.715,51.715,0,0,0-6.434,1.655,48.648,48.648,0,0,0-21.165,13.813l.569-.479c.375-.306.9-.787,1.628-1.326a45.679,45.679,0,0,1,6.26-4.114,49.238,49.238,0,0,1,9.79-4.011,46.191,46.191,0,0,1,24.023-.424,49.19,49.19,0,0,1,9.925,3.663,45.657,45.657,0,0,1,6.4,3.89c.746.513,1.289.975,1.675,1.268l.585.459A49.206,49.206,0,0,0,1362.7,763.967Z" fill="#231f20" opacity="0.5" style="mix-blend-mode: overlay;isolation: isolate"/>
        </g>
      </g>
    </g>
    <g id="Grupo_58917" data-name="Grupo 58917">
      <g id="Grupo_58916" data-name="Grupo 58916">
        <path id="Trazado_108430" data-name="Trazado 108430" d="M972.565,935a37.474,37.474,0,0,0,15.938-9.39l1.6-1.624-.544,2.216c-.245,1-.515,1.992-.825,3.034-.227.763-.469,1.532-.723,2.295a41.093,41.093,0,0,0,10.549.075,38.694,38.694,0,0,0,5.688-1.1c.742-.185,1.46-.418,2.22-.665l.565-.182.5-.187c.75-.278,1.526-.565,2.272-.9a45.3,45.3,0,0,0,18.941-15.383l1.645-1.711-.543,2.3a49.068,49.068,0,0,1-15.259,20.564,52.158,52.158,0,0,1-5.531,3.831,51.323,51.323,0,0,1-6.094,3.1,53.237,53.237,0,0,1-13.4,3.7l-.028,0-.029,0c-.026,0-.658.031-1.294.021h-.32c.292.7.6,1.406.913,2.1.47,1.043.942,2.032,1.4,2.941l.907,1.777-1.762-.936a49.837,49.837,0,0,1-17.313-14.857l-.511-.719h0Z" fill="#fff"/>
        <g id="Grupo_58915" data-name="Grupo 58915">
          <g id="Grupo_58914" data-name="Grupo 58914">
            <path id="Trazado_108431" data-name="Trazado 108431" d="M989.657,950.331c-.5-.974-.969-1.97-1.419-2.969s-.876-2-1.279-2.995l1.262,0c.631.011,1.262-.02,1.262-.02a52.643,52.643,0,0,0,13.242-3.659,50.929,50.929,0,0,0,6.022-3.06,51.6,51.6,0,0,0,5.46-3.784,48.652,48.652,0,0,0,15.061-20.295,45.631,45.631,0,0,1-19.209,15.6c-.919.411-1.869.748-2.8,1.1-.954.3-1.891.628-2.852.868a39.075,39.075,0,0,1-5.77,1.119,41.876,41.876,0,0,1-11.458-.185q.514-1.5.957-2.989c.3-.994.569-1.989.818-3a38.153,38.153,0,0,1-16.389,9.608A49.214,49.214,0,0,0,989.657,950.331Z" fill="#09b291"/>
          </g>
          <path id="Trazado_108432" data-name="Trazado 108432" d="M989.657,950.331c-.5-.974-.969-1.97-1.419-2.969s-.876-2-1.279-2.995l1.262,0c.631.011,1.262-.02,1.262-.02a52.643,52.643,0,0,0,13.242-3.659,50.929,50.929,0,0,0,6.022-3.06,51.6,51.6,0,0,0,5.46-3.784,48.652,48.652,0,0,0,15.061-20.295l-.367.646c-.246.418-.572,1.051-1.068,1.809a45.685,45.685,0,0,1-4.444,6.029,49.148,49.148,0,0,1-7.792,7.157,46.14,46.14,0,0,1-22.384,8.729,49.19,49.19,0,0,1-10.58.007,45.574,45.574,0,0,1-7.353-1.429c-.878-.222-1.546-.467-2.01-.608l-.708-.228A49.214,49.214,0,0,0,989.657,950.331Z" fill="#231f20" opacity="0.5" style="mix-blend-mode: overlay;isolation: isolate"/>
        </g>
      </g>
    </g>
  </g>
</svg>
