<svg xmlns="http://www.w3.org/2000/svg" xmlns:xlink="http://www.w3.org/1999/xlink" width="509" height="297.752" viewBox="0 0 509 297.752">
  <defs>
    <linearGradient id="linear-gradient" x1="-0.034" y1="0.646" x2="1.081" y2="0.276" gradientUnits="objectBoundingBox">
      <stop offset="0" stop-color="#9a8a62"/>
      <stop offset="0.054" stop-color="#918563"/>
      <stop offset="0.275" stop-color="#737468"/>
      <stop offset="0.464" stop-color="#606a6b"/>
      <stop offset="0.597" stop-color="#5a676d"/>
      <stop offset="0.685" stop-color="#5f6a6b"/>
      <stop offset="0.802" stop-color="#707368"/>
      <stop offset="0.932" stop-color="#8b8164"/>
      <stop offset="1" stop-color="#9c8b61"/>
    </linearGradient>
    <linearGradient id="linear-gradient-2" y1="0.5" x2="1" y2="0.5" gradientUnits="objectBoundingBox">
      <stop offset="0" stop-color="#7e9193"/>
      <stop offset="0.522" stop-color="#9faeaf"/>
      <stop offset="1" stop-color="#7e9193"/>
    </linearGradient>
    <linearGradient id="linear-gradient-9" y1="0.5" x2="1" y2="0.5" gradientUnits="objectBoundingBox">
      <stop offset="0" stop-color="#a3a29f"/>
      <stop offset="0.057" stop-color="#959490"/>
      <stop offset="0.17" stop-color="#807f7a"/>
      <stop offset="0.279" stop-color="#74726d"/>
      <stop offset="0.376" stop-color="#706e69"/>
      <stop offset="0.507" stop-color="#76746f"/>
      <stop offset="0.687" stop-color="#868581"/>
      <stop offset="0.801" stop-color="#959490"/>
      <stop offset="1" stop-color="#d9d8d7"/>
    </linearGradient>
    <radialGradient id="radial-gradient" cx="0.5" cy="0.5" r="1.041" gradientTransform="translate(0.478 0.01) scale(0.362 0.98)" gradientUnits="objectBoundingBox">
      <stop offset="0" stop-color="#ca9089"/>
      <stop offset="1" stop-color="#be776e"/>
    </radialGradient>
    <radialGradient id="radial-gradient-2" cx="0.5" cy="0.5" r="0.453" gradientTransform="translate(-0.223 0.01) scale(1.29 0.98)" xlink:href="#radial-gradient"/>
  </defs>
  <g id="Grupo_58883" data-name="Grupo 58883" transform="translate(-955.656 -377.87)">
    <g id="Grupo_58852" data-name="Grupo 58852" transform="translate(1263.656 482.576)">
      <path id="Trazado_108051" data-name="Trazado 108051" d="M1136.8,507.075c-2.12-10.893-1.074-20.2,5.068-29.444A106.533,106.533,0,0,0,1149.6,463.8c2.315-5.068,2.662-10.782,2.976-16.347q-.863,3.13-1.723,6.259a73.313,73.313,0,0,1-2.484,7.861c-3.466,8.655-10.117,15.749-13.542,24.423a36.523,36.523,0,0,0-1.325,22.576C1133.97,508.386,1136.331,507.257,1136.8,507.075Z" transform="translate(-1132.314 -430.845)" fill="#448d46"/>
      <path id="Trazado_108052" data-name="Trazado 108052" d="M1141.7,477.893c-.161-2.763,1.44-5.335,3.464-8.268a42.5,42.5,0,0,0,3.867-7.1,53.306,53.306,0,0,0,3.548-15.076q-.863,3.13-1.723,6.259a73.313,73.313,0,0,1-2.484,7.861c-3.466,8.655-10.117,15.749-13.542,24.423a36.523,36.523,0,0,0-1.325,22.576c.464-.183,2.825-1.313,3.29-1.494C1134.7,496.285,1135.71,487.048,1141.7,477.893Z" transform="translate(-1132.314 -430.845)" fill="#448d46" opacity="0.55" style="mix-blend-mode: multiply;isolation: isolate"/>
      <path id="Trazado_108053" data-name="Trazado 108053" d="M1152.466,465.368c-3.78-.844-3.328-2.584-5.281-3.454a12.57,12.57,0,0,0-7.293-.584,7.866,7.866,0,0,1,1.47-1.763,12.7,12.7,0,0,1,5.609-2.134,5.66,5.66,0,0,1,1.646-.009,4.775,4.775,0,0,1,3.44,3.133A10.787,10.787,0,0,1,1152.466,465.368Z" transform="translate(-1126.68 -423.471)" fill="#448d46"/>
      <path id="Trazado_108054" data-name="Trazado 108054" d="M1150.3,461.606c-.5-2.3-1.8-3.52-3.243-3.511-2.08.014-3.886.87-5.707,1.318a8.762,8.762,0,0,0-.781,1.048,10.221,10.221,0,0,1,5.933.474c1.51.671,1.852,1.975,4.455,2.694A6.976,6.976,0,0,1,1150.3,461.606Z" transform="translate(-1126.177 -422.931)" fill="#448d46" opacity="0.55" style="mix-blend-mode: multiply;isolation: isolate"/>
      <path id="Trazado_108055" data-name="Trazado 108055" d="M1141.136,455.148a3.1,3.1,0,0,0-2.985-.309,6.6,6.6,0,0,0-2.474,1.881c-1.142,1.276-2.117,2.957-1.733,4.625,1.28-.467,2.49-1.128,3.8-1.491a4.914,4.914,0,0,1,3.951.349c.541.35.968.849,1.491,1.227s1.709.961,2.307.725c-.9-1.693-2.3-3.715-3.2-5.408A4.819,4.819,0,0,0,1141.136,455.148Z" transform="translate(-1131.165 -425.53)" fill="#448d46"/>
      <path id="Trazado_108056" data-name="Trazado 108056" d="M1138.7,455.784c-1.815,0-3.224,2.708-4.58,4.043a35.06,35.06,0,0,1,3.442-1.348,4.915,4.915,0,0,1,3.951.349c.541.35.968.849,1.49,1.227s1.709.961,2.307.725h0C1143,459.1,1141.61,455.784,1138.7,455.784Z" transform="translate(-1130.975 -424.649)" fill="#448d46" opacity="0.55" style="mix-blend-mode: multiply;isolation: isolate"/>
      <path id="Trazado_108057" data-name="Trazado 108057" d="M1143.787,451.3a8.8,8.8,0,0,1,2.5-2.713c5.489-4.312,12.719-6.8,19.552-5.38,2.281.474,4.491,1.369,6.817,1.491-3.668,1.048-5.684,4.9-8.674,7.272a16.179,16.179,0,0,1-8.181,3.192A15.148,15.148,0,0,1,1143.787,451.3Z" transform="translate(-1123.785 -434.299)" fill="#448d46"/>
      <path id="Trazado_108058" data-name="Trazado 108058" d="M1144.075,450.532a6.943,6.943,0,0,1,1.967-2.132c4.315-3.389,10-5.349,15.374-4.231a35.907,35.907,0,0,0,5.361,1.172c-2.885.825-4.468,3.855-6.82,5.719a12.7,12.7,0,0,1-6.433,2.511A11.915,11.915,0,0,1,1144.075,450.532Z" transform="translate(-1123.57 -433.519)" fill="#448d46" opacity="0.55" style="mix-blend-mode: multiply;isolation: isolate"/>
      <path id="Trazado_108059" data-name="Trazado 108059" d="M1150.467,455.34c-.119-4-2.626-7.572-5.618-10.231s-6.517-4.648-9.614-7.183a27.054,27.054,0,0,1,.591,5.126,23.215,23.215,0,0,0,.358,5.52,8.24,8.24,0,0,0,4.394,5.272C1143.612,455.27,1145.732,455.779,1150.467,455.34Z" transform="translate(-1130.142 -437.926)" fill="#448d46"/>
      <path id="Trazado_108060" data-name="Trazado 108060" d="M1148.638,453.335c-.091-3.065-2.012-5.8-4.3-7.839s-4.991-3.562-7.364-5.5a20.811,20.811,0,0,1,.453,3.928,17.713,17.713,0,0,0,.274,4.228,6.312,6.312,0,0,0,3.367,4.04C1143.385,453.283,1145.012,453.672,1148.638,453.335Z" transform="translate(-1128.853 -436.388)" fill="#448d46" opacity="0.55" style="mix-blend-mode: multiply;isolation: isolate"/>
      <path id="Trazado_108061" data-name="Trazado 108061" d="M1165.179,444.876c-2.847.108-5.551,1.2-8.245,2.134a76.454,76.454,0,0,1-8.294,2.355,19.579,19.579,0,0,1-3.074.5,1.221,1.221,0,0,1-.966-.234c3.147-.807,6.282-1.667,9.371-2.669C1157.619,445.78,1161.378,444.376,1165.179,444.876Z" transform="translate(-1123.179 -432.836)" fill="#1e5905"/>
      <path id="Trazado_108062" data-name="Trazado 108062" d="M1151.712,447.73a10.8,10.8,0,0,1,5.11-4.739,11.076,11.076,0,0,0-3.218,3.02C1153.1,446.727,1152.573,447.575,1151.712,447.73Z" transform="translate(-1117.892 -434.16)" fill="#1e5905"/>
      <path id="Trazado_108063" data-name="Trazado 108063" d="M1151.7,445.978a5.684,5.684,0,0,1,4.041.023,13.184,13.184,0,0,0,4.021.882,4.924,4.924,0,0,1-2,.227,12.677,12.677,0,0,1-1.426-.223Z" transform="translate(-1117.902 -432.212)" fill="#1e5905"/>
      <path id="Trazado_108064" data-name="Trazado 108064" d="M1152.144,444.622a5.669,5.669,0,0,0-1.07,1.212,15.316,15.316,0,0,0-.821,2.415.721.721,0,0,1-.145.258.758.758,0,0,1-.3.171,7.875,7.875,0,0,1-1.407.39c1.308-.9,1.735-2.629,2.77-3.834a9.423,9.423,0,0,1,2.089-1.656Z" transform="translate(-1120.353 -433.724)" fill="#1e5905"/>
      <path id="Trazado_108065" data-name="Trazado 108065" d="M1152.374,448.2a9.688,9.688,0,0,0-3.606-1.32,3.014,3.014,0,0,1,2.368-.2,18.22,18.22,0,0,1,2.253.94,23.263,23.263,0,0,0,4.1,1.189A7.25,7.25,0,0,1,1152.374,448.2Z" transform="translate(-1120.081 -431.528)" fill="#1e5905"/>
      <path id="Trazado_108066" data-name="Trazado 108066" d="M1148.188,447.889a6.11,6.11,0,0,1-.488.71.829.829,0,0,1-.654.4l-.755.15a9.183,9.183,0,0,0,1.912-2.474,6.627,6.627,0,0,1,.345-.708,3.076,3.076,0,0,1,.6-.68,6.381,6.381,0,0,1,.748-.567,6.183,6.183,0,0,0-1.193,1.885A11.873,11.873,0,0,1,1148.188,447.889Z" transform="translate(-1121.923 -432.871)" fill="#1e5905"/>
      <path id="Trazado_108067" data-name="Trazado 108067" d="M1146.664,447.546c-.057-.071.037-.169.122-.207a3.194,3.194,0,0,1,2.547.082,12.058,12.058,0,0,1,2.221,1.384,6.654,6.654,0,0,0,2.324,1.18,4.257,4.257,0,0,1-1.745-.082,8.013,8.013,0,0,1-1.8-1.182A9.2,9.2,0,0,0,1146.664,447.546Z" transform="translate(-1121.658 -431.098)" fill="#1e5905"/>
      <path id="Trazado_108068" data-name="Trazado 108068" d="M1146.394,451.111a17.361,17.361,0,0,1-8.84-10.053c1.765,2.082,3,4.615,5.025,6.44,1.611,1.452,3.658,2.394,5.115,4a.852.852,0,0,1,.288.587Z" transform="translate(-1128.419 -435.597)" fill="#1e5905"/>
      <path id="Trazado_108069" data-name="Trazado 108069" d="M1139.241,445.333a8.224,8.224,0,0,1,.348-3.961c.147,1.526-.315,3.088.025,4.582C1139.339,445.633,1139.307,445.752,1139.241,445.333Z" transform="translate(-1127.239 -435.364)" fill="#1e5905"/>
      <path id="Trazado_108070" data-name="Trazado 108070" d="M1141.132,442.343a14.309,14.309,0,0,0,.066,4.5,1.052,1.052,0,0,1,.014.669l-.544-.668a1.455,1.455,0,0,1-.2-.291,1.264,1.264,0,0,1-.1-.377A5.992,5.992,0,0,1,1141.132,442.343Z" transform="translate(-1126.365 -434.642)" fill="#1e5905"/>
      <path id="Trazado_108071" data-name="Trazado 108071" d="M1142.251,448.047l-.275-1.018c-.047-.171-.094-.343-.127-.518a4.394,4.394,0,0,1,.514-2.865c-.146,1.56.4,3.095.584,4.652C1142.512,448.26,1142.683,448.093,1142.251,448.047Z" transform="translate(-1125.273 -433.673)" fill="#1e5905"/>
      <path id="Trazado_108072" data-name="Trazado 108072" d="M1139.878,444.534a8.569,8.569,0,0,1,1.951.068,1.959,1.959,0,0,0-1.566-.95c-1.447-.246-3.03-.056-4.292-.8A5.662,5.662,0,0,0,1139.878,444.534Z" transform="translate(-1129.596 -434.267)" fill="#1e5905"/>
      <path id="Trazado_108073" data-name="Trazado 108073" d="M1140.694,445.207a11.952,11.952,0,0,1-3.947-.063,5.72,5.72,0,0,0,3.592.865c1.252-.057,2.485-.342,3.731-.476a2.384,2.384,0,0,0-1.632-.546A11.58,11.58,0,0,0,1140.694,445.207Z" transform="translate(-1129.019 -432.676)" fill="#1e5905"/>
      <path id="Trazado_108074" data-name="Trazado 108074" d="M1140.9,446.5a7.945,7.945,0,0,1-2.268-.34,5.693,5.693,0,0,0,1.7.9,4.766,4.766,0,0,0,1.156.126,31.209,31.209,0,0,0,4.165-.314c-.455-.1-.792-.507-1.243-.61a1.937,1.937,0,0,0-.635-.007l-1.606.157C1141.744,446.461,1141.321,446.5,1140.9,446.5Z" transform="translate(-1127.621 -431.8)" fill="#1e5905"/>
      <path id="Trazado_108075" data-name="Trazado 108075" d="M1142.462,458.627a9.609,9.609,0,0,0-2.293-1.937,3.229,3.229,0,0,0-2.894-.2c-.924.46-1.487,1.482-2.439,1.88,1.1-.27,2.052-1.011,3.164-1.243a3.652,3.652,0,0,1,2.675.486c1.084.689,1.808,1.954,3.04,2.321Q1143.09,459.282,1142.462,458.627Z" transform="translate(-1130.439 -424.315)" fill="#1e5905"/>
      <path id="Trazado_108076" data-name="Trazado 108076" d="M1138.993,458.47a7.738,7.738,0,0,1-.628-1.744,2.567,2.567,0,0,1-.132-1.147,6.443,6.443,0,0,0,.549,1.817l.185.443c.19.464.384.929.619,1.372A3.491,3.491,0,0,1,1138.993,458.47Z" transform="translate(-1127.932 -424.801)" fill="#1e5905"/>
      <path id="Trazado_108077" data-name="Trazado 108077" d="M1137.827,457.636a1.076,1.076,0,0,1,.541.218.284.284,0,0,0-.063-.218q-.395-.656-.793-1.311a3.252,3.252,0,0,1-.539-1.262,2.9,2.9,0,0,0,.593,2.455.433.433,0,0,0,.084.078A.471.471,0,0,0,1137.827,457.636Z" transform="translate(-1128.901 -425.185)" fill="#1e5905"/>
      <path id="Trazado_108078" data-name="Trazado 108078" d="M1135.345,455.693a2.035,2.035,0,0,0,2.354,1.362A25.461,25.461,0,0,1,1135.345,455.693Z" transform="translate(-1130.061 -424.717)" fill="#1e5905"/>
      <path id="Trazado_108079" data-name="Trazado 108079" d="M1134.245,457.025a6.3,6.3,0,0,0,2.763-.052c.2-.033.429-.1.49-.284l-2.231.147A2.978,2.978,0,0,0,1134.245,457.025Z" transform="translate(-1130.879 -423.977)" fill="#1e5905"/>
      <path id="Trazado_108080" data-name="Trazado 108080" d="M1149.325,462.235c-.425-.478-.663-1.109-1.128-1.55a3.809,3.809,0,0,0-1.71-.8,22.508,22.508,0,0,0-5.281-.73,12.156,12.156,0,0,1,6.214.378,3.406,3.406,0,0,1,1.679,1.191c.471.708.539,1.7,1.227,2.2A2.562,2.562,0,0,1,1149.325,462.235Z" transform="translate(-1125.703 -422.309)" fill="#1e5905"/>
      <path id="Trazado_108081" data-name="Trazado 108081" d="M1142.621,459.935a13.062,13.062,0,0,0,1.935-1.325c.141-.117.281-.237.42-.356l.671-.577a10.621,10.621,0,0,1-1.707,1.967,1.859,1.859,0,0,1-.619.408A.7.7,0,0,1,1142.621,459.935Z" transform="translate(-1124.651 -423.242)" fill="#1e5905"/>
      <path id="Trazado_108082" data-name="Trazado 108082" d="M1146.753,458.093a6.652,6.652,0,0,1-1.758,2.052.429.429,0,0,1-.265.119.469.469,0,0,1-.145-.038l-.535-.213a12.826,12.826,0,0,0,1.7-1.156Z" transform="translate(-1123.588 -422.932)" fill="#1e5905"/>
      <path id="Trazado_108083" data-name="Trazado 108083" d="M1145.215,459.891a12.5,12.5,0,0,0,2.75-.7,9.552,9.552,0,0,1-1.864.99,1.053,1.053,0,0,1-.551.1A.382.382,0,0,1,1145.215,459.891Z" transform="translate(-1122.725 -422.119)" fill="#1e5905"/>
      <path id="Trazado_108084" data-name="Trazado 108084" d="M1145.676,460.126l2.265.535a2.726,2.726,0,0,1-1.787.063.858.858,0,0,1-.413-.185A.323.323,0,0,1,1145.676,460.126Z" transform="translate(-1122.417 -421.421)" fill="#1e5905"/>
    </g>
    <g id="Grupo_58853" data-name="Grupo 58853" transform="translate(1015.248 408.145)">
      <path id="Trazado_108085" data-name="Trazado 108085" d="M999.277,540.911c-4.465-22.948-2.263-42.56,10.679-62.029a224.215,224.215,0,0,0,16.3-29.142c4.876-10.681,5.611-22.717,6.27-34.439q-1.815,6.593-3.628,13.186a154.977,154.977,0,0,1-5.232,16.561c-7.3,18.233-21.318,33.18-28.53,51.45a76.973,76.973,0,0,0-2.793,47.562C993.325,543.674,998.3,541.3,999.277,540.911Z" transform="translate(-989.836 -380.317)" fill="#448d46"/>
      <path id="Trazado_108086" data-name="Trazado 108086" d="M1009.607,479.432c-.335-5.82,3.037-11.238,7.3-17.414a89.6,89.6,0,0,0,8.144-14.957,112.129,112.129,0,0,0,7.476-31.761q-1.815,6.593-3.628,13.186a155,155,0,0,1-5.232,16.561c-7.3,18.233-21.318,33.18-28.53,51.45a76.962,76.962,0,0,0-2.791,47.562c.978-.385,5.951-2.763,6.93-3.149C994.854,518.179,996.99,498.72,1009.607,479.432Z" transform="translate(-989.836 -380.317)" fill="#448d46" opacity="0.55" style="mix-blend-mode: multiply;isolation: isolate"/>
      <path id="Trazado_108087" data-name="Trazado 108087" d="M1032.289,453.049c-7.962-1.778-7.009-5.445-11.123-7.279-4.482-2-10.571-2.268-15.367-1.227a16.6,16.6,0,0,1,3.1-3.714,26.758,26.758,0,0,1,11.815-4.5,11.858,11.858,0,0,1,3.468-.017c3.374.57,6.039,3.4,7.248,6.6S1032.607,449.643,1032.289,453.049Z" transform="translate(-977.967 -364.782)" fill="#448d46"/>
      <path id="Trazado_108088" data-name="Trazado 108088" d="M1027.724,445.122c-1.042-4.836-3.785-7.415-6.831-7.4-4.38.028-8.187,1.831-12.023,2.774a18.886,18.886,0,0,0-1.644,2.209,21.563,21.563,0,0,1,12.5,1c3.178,1.417,3.9,4.163,9.383,5.677A14.8,14.8,0,0,1,1027.724,445.122Z" transform="translate(-976.906 -363.644)" fill="#448d46" opacity="0.55" style="mix-blend-mode: multiply;isolation: isolate"/>
      <path id="Trazado_108089" data-name="Trazado 108089" d="M1008.42,431.517a6.537,6.537,0,0,0-6.289-.652,13.961,13.961,0,0,0-5.211,3.965c-2.4,2.69-4.46,6.229-3.649,9.746,2.7-.985,5.245-2.376,8.011-3.142s5.912-.826,8.32.734c1.138.739,2.042,1.791,3.14,2.587s3.6,2.024,4.863,1.527c-1.9-3.567-4.845-7.827-6.742-11.392A10.139,10.139,0,0,0,1008.42,431.517Z" transform="translate(-987.416 -369.12)" fill="#448d46"/>
      <path id="Trazado_108090" data-name="Trazado 108090" d="M1003.277,432.856c-3.823,0-6.791,5.706-9.648,8.519a73.607,73.607,0,0,1,7.251-2.838c2.767-.765,5.914-.826,8.322.734,1.138.737,2.042,1.789,3.14,2.586s3.6,2.024,4.863,1.529v0C1012.345,439.846,1009.42,432.856,1003.277,432.856Z" transform="translate(-987.015 -367.265)" fill="#448d46" opacity="0.55" style="mix-blend-mode: multiply;isolation: isolate"/>
      <path id="Trazado_108091" data-name="Trazado 108091" d="M1014.005,423.4c.952-2.1,3.45-4.289,5.265-5.715,11.563-9.08,26.8-14.326,41.19-11.333,4.807,1,9.462,2.884,14.365,3.138-7.729,2.209-11.974,10.323-18.274,15.32a34.045,34.045,0,0,1-17.236,6.726A31.911,31.911,0,0,1,1014.005,423.4Z" transform="translate(-971.866 -387.594)" fill="#448d46"/>
      <path id="Trazado_108092" data-name="Trazado 108092" d="M1014.613,421.793c.748-1.655,2.713-3.372,4.141-4.495,9.092-7.14,21.07-11.266,32.389-8.911,3.78.786,7.441,2.266,11.3,2.469-6.078,1.737-9.417,8.118-14.37,12.046a26.776,26.776,0,0,1-13.554,5.29A25.088,25.088,0,0,1,1014.613,421.793Z" transform="translate(-971.414 -385.951)" fill="#448d46" opacity="0.55" style="mix-blend-mode: multiply;isolation: isolate"/>
      <path id="Trazado_108093" data-name="Trazado 108093" d="M1028.079,431.921c-.249-8.428-5.534-15.953-11.835-21.555s-13.73-9.793-20.254-15.132a57.1,57.1,0,0,1,1.247,10.8c.075,3.895-.242,7.861.753,11.627a17.357,17.357,0,0,0,9.256,11.106C1013.636,431.775,1018.1,432.849,1028.079,431.921Z" transform="translate(-985.26 -395.235)" fill="#448d46"/>
      <path id="Trazado_108094" data-name="Trazado 108094" d="M1024.226,427.7c-.19-6.458-4.239-12.224-9.068-16.514s-10.517-7.5-15.517-11.594a43.74,43.74,0,0,1,.955,8.275c.057,2.985-.185,6.024.577,8.909a13.3,13.3,0,0,0,7.093,8.51C1013.16,427.586,1016.584,428.409,1024.226,427.7Z" transform="translate(-982.546 -391.996)" fill="#448d46" opacity="0.55" style="mix-blend-mode: multiply;isolation: isolate"/>
      <path id="Trazado_108095" data-name="Trazado 108095" d="M1059.073,409.879c-6,.225-11.693,2.532-17.37,4.495a161,161,0,0,1-17.473,4.962,41.021,41.021,0,0,1-6.475,1.05,2.576,2.576,0,0,1-2.033-.492c6.627-1.7,13.231-3.51,19.74-5.621C1043.146,411.779,1051.063,408.822,1059.073,409.879Z" transform="translate(-970.59 -384.511)" fill="#1e5905"/>
      <path id="Trazado_108096" data-name="Trazado 108096" d="M1030.7,415.89c2.606-4.251,6.091-8.241,10.764-9.985a23.35,23.35,0,0,0-6.781,6.364C1033.62,413.775,1032.516,415.562,1030.7,415.89Z" transform="translate(-959.453 -387.302)" fill="#1e5905"/>
      <path id="Trazado_108097" data-name="Trazado 108097" d="M1030.674,412.2c2.614-1.269,5.726-.772,8.512.045s5.569,1.946,8.472,1.862a10.339,10.339,0,0,1-4.218.474,26.589,26.589,0,0,1-3-.471Q1035.556,413.156,1030.674,412.2Z" transform="translate(-959.473 -383.197)" fill="#1e5905"/>
      <path id="Trazado_108098" data-name="Trazado 108098" d="M1031.612,409.342a11.974,11.974,0,0,0-2.256,2.552c-.914,1.546-1.086,3.412-1.73,5.089a1.586,1.586,0,0,1-.3.544,1.677,1.677,0,0,1-.629.359,16.794,16.794,0,0,1-2.964.823c2.753-1.9,3.654-5.541,5.836-8.078a19.771,19.771,0,0,1,4.4-3.489Z" transform="translate(-964.636 -386.382)" fill="#1e5905"/>
      <path id="Trazado_108099" data-name="Trazado 108099" d="M1032.094,416.871c-2.465-1.142-4.878-2.7-7.594-2.781a6.349,6.349,0,0,1,4.986-.413,38.39,38.39,0,0,1,4.748,1.981,48.989,48.989,0,0,0,8.639,2.5C1039.338,419.261,1035.453,418.426,1032.094,416.871Z" transform="translate(-964.064 -381.757)" fill="#1e5905"/>
      <path id="Trazado_108100" data-name="Trazado 108100" d="M1023.275,416.223a12.473,12.473,0,0,1-1.027,1.5,1.751,1.751,0,0,1-1.377.854l-1.59.316a19.424,19.424,0,0,0,4.027-5.213,14.688,14.688,0,0,1,.727-1.491,6.556,6.556,0,0,1,1.274-1.433,13.154,13.154,0,0,1,1.578-1.193,13.077,13.077,0,0,0-2.516,3.968A23.908,23.908,0,0,1,1023.275,416.223Z" transform="translate(-967.944 -384.585)" fill="#1e5905"/>
      <path id="Trazado_108101" data-name="Trazado 108101" d="M1020.068,415.5c-.124-.152.077-.356.255-.438a6.739,6.739,0,0,1,5.367.173,25.307,25.307,0,0,1,4.681,2.918,14.1,14.1,0,0,0,4.9,2.486,9.012,9.012,0,0,1-3.675-.173c-1.438-.481-2.526-1.642-3.783-2.49C1025.545,416.451,1022.76,415.959,1020.068,415.5Z" transform="translate(-967.387 -380.851)" fill="#1e5905"/>
      <path id="Trazado_108102" data-name="Trazado 108102" d="M1019.5,423.01c-3.982-2.441-8.025-4.931-11.151-8.4-3.314-3.681-5.417-8.266-7.471-12.774,3.719,4.383,6.317,9.72,10.585,13.568,3.393,3.058,7.706,5.042,10.776,8.423a1.784,1.784,0,0,1,.607,1.236Z" transform="translate(-981.629 -390.329)" fill="#1e5905"/>
      <path id="Trazado_108103" data-name="Trazado 108103" d="M1004.427,410.841a17.291,17.291,0,0,1,.738-8.346c.307,3.213-.668,6.5.049,9.652C1004.636,411.47,1004.567,411.72,1004.427,410.841Z" transform="translate(-979.145 -389.837)" fill="#1e5905"/>
      <path id="Trazado_108104" data-name="Trazado 108104" d="M1008.415,404.54a30.135,30.135,0,0,0,.136,9.478,2.212,2.212,0,0,1,.033,1.41q-.575-.7-1.149-1.407a3.08,3.08,0,0,1-.424-.614,2.745,2.745,0,0,1-.2-.792A12.65,12.65,0,0,1,1008.415,404.54Z" transform="translate(-977.303 -388.317)" fill="#1e5905"/>
      <path id="Trazado_108105" data-name="Trazado 108105" d="M1010.769,416.557q-.29-1.072-.582-2.144c-.1-.361-.2-.724-.265-1.09a9.254,9.254,0,0,1,1.084-6.034c-.31,3.286.842,6.517,1.227,9.8C1011.322,417.005,1011.681,416.653,1010.769,416.557Z" transform="translate(-975.003 -386.273)" fill="#1e5905"/>
      <path id="Trazado_108106" data-name="Trazado 108106" d="M1005.772,409.157a17.927,17.927,0,0,1,4.108.145c-.525-1.236-1.972-1.777-3.3-2-3.048-.52-6.383-.119-9.043-1.695A11.92,11.92,0,0,0,1005.772,409.157Z" transform="translate(-984.108 -387.526)" fill="#1e5905"/>
      <path id="Trazado_108107" data-name="Trazado 108107" d="M1007.489,410.573a25.163,25.163,0,0,1-8.314-.133,12.024,12.024,0,0,0,7.565,1.82c2.64-.12,5.234-.72,7.861-1a5.034,5.034,0,0,0-3.436-1.149A24.735,24.735,0,0,0,1007.489,410.573Z" transform="translate(-982.893 -384.175)" fill="#1e5905"/>
      <path id="Trazado_108108" data-name="Trazado 108108" d="M1007.914,413.309a16.716,16.716,0,0,1-4.779-.718,11.938,11.938,0,0,0,3.585,1.9,10.092,10.092,0,0,0,2.436.265,65.746,65.746,0,0,0,8.773-.661c-.957-.206-1.665-1.067-2.619-1.287a4.133,4.133,0,0,0-1.335-.014l-3.382.333C1009.7,413.219,1008.808,413.306,1007.914,413.309Z" transform="translate(-979.948 -382.331)" fill="#1e5905"/>
      <path id="Trazado_108109" data-name="Trazado 108109" d="M1011.214,438.845a20.137,20.137,0,0,0-4.831-4.08,6.8,6.8,0,0,0-6.1-.413c-1.946.966-3.129,3.119-5.136,3.956,2.326-.567,4.324-2.13,6.667-2.619a7.7,7.7,0,0,1,5.633,1.023c2.287,1.454,3.811,4.122,6.407,4.892Z" transform="translate(-985.886 -366.56)" fill="#1e5905"/>
      <path id="Trazado_108110" data-name="Trazado 108110" d="M1003.905,438.512a16.39,16.39,0,0,1-1.323-3.67,5.37,5.37,0,0,1-.277-2.417,13.629,13.629,0,0,0,1.158,3.827c.129.31.258.622.385.933.4.976.809,1.956,1.308,2.889A7.145,7.145,0,0,1,1003.905,438.512Z" transform="translate(-980.605 -367.584)" fill="#1e5905"/>
      <path id="Trazado_108111" data-name="Trazado 108111" d="M1001.45,436.758a2.291,2.291,0,0,1,1.138.462.625.625,0,0,0-.133-.462L1000.784,434a6.867,6.867,0,0,1-1.135-2.659,6.1,6.1,0,0,0,1.25,5.169.69.69,0,0,0,.176.166A.909.909,0,0,0,1001.45,436.758Z" transform="translate(-982.645 -368.393)" fill="#1e5905"/>
      <path id="Trazado_108112" data-name="Trazado 108112" d="M996.22,432.666a4.285,4.285,0,0,0,4.958,2.866A53.883,53.883,0,0,1,996.22,432.666Z" transform="translate(-985.089 -367.406)" fill="#1e5905"/>
      <path id="Trazado_108113" data-name="Trazado 108113" d="M993.9,435.469a13.271,13.271,0,0,0,5.822-.108c.413-.07.9-.2,1.03-.6l-4.7.31A6.226,6.226,0,0,0,993.9,435.469Z" transform="translate(-986.811 -365.848)" fill="#1e5905"/>
      <path id="Trazado_108114" data-name="Trazado 108114" d="M1025.676,446.448c-.9-1.008-1.4-2.336-2.376-3.266a8.046,8.046,0,0,0-3.6-1.688,47.493,47.493,0,0,0-11.129-1.538c4.371-.675,8.965-.793,13.094.8a7.217,7.217,0,0,1,3.537,2.509c.99,1.491,1.133,3.585,2.585,4.631A5.357,5.357,0,0,1,1025.676,446.448Z" transform="translate(-975.909 -362.335)" fill="#1e5905"/>
      <path id="Trazado_108115" data-name="Trazado 108115" d="M1011.548,441.6a27.756,27.756,0,0,0,4.08-2.791c.3-.246.591-.5.886-.751l1.414-1.215a22.163,22.163,0,0,1-3.6,4.144,3.86,3.86,0,0,1-1.3.86A1.479,1.479,0,0,1,1011.548,441.6Z" transform="translate(-973.693 -364.3)" fill="#1e5905"/>
      <path id="Trazado_108116" data-name="Trazado 108116" d="M1020.253,437.721a13.994,13.994,0,0,1-3.7,4.326.695.695,0,0,1-.865.166q-.562-.222-1.125-.448a27.059,27.059,0,0,0,3.578-2.434Z" transform="translate(-971.452 -363.647)" fill="#1e5905"/>
      <path id="Trazado_108117" data-name="Trazado 108117" d="M1017.012,441.512a26.349,26.349,0,0,0,5.794-1.487,19.944,19.944,0,0,1-3.926,2.087,2.167,2.167,0,0,1-1.159.216A.81.81,0,0,1,1017.012,441.512Z" transform="translate(-969.634 -361.935)" fill="#1e5905"/>
      <path id="Trazado_108118" data-name="Trazado 108118" d="M1017.984,442.005l4.774,1.126a5.762,5.762,0,0,1-3.766.132,1.808,1.808,0,0,1-.87-.389A.686.686,0,0,1,1017.984,442.005Z" transform="translate(-968.985 -360.462)" fill="#1e5905"/>
    </g>
    <g id="Grupo_58854" data-name="Grupo 58854" transform="translate(955.656 443.095)">
      <path id="Trazado_108119" data-name="Trazado 108119" d="M1009.346,529.214c-12.785-12.637-19.89-26.046-20.115-44.019a172.155,172.155,0,0,0-2.282-25.575c-1.534-8.9-6.287-16.858-10.951-24.587q1.705,4.972,3.414,9.947a118.622,118.622,0,0,1,3.857,12.785c3.269,14.745.851,30.312,4.193,45.041a59.171,59.171,0,0,0,18.849,31.412C1006.765,533.548,1008.891,529.884,1009.346,529.214Z" transform="translate(-940.532 -400.596)" fill="#448d46"/>
      <path id="Trazado_108120" data-name="Trazado 108120" d="M989.25,485.7c-2.737-3.552-2.945-8.452-2.915-14.223a68.872,68.872,0,0,0-1.313-13.031A86.094,86.094,0,0,0,976,435.033Q977.7,440,979.41,444.98a118.246,118.246,0,0,1,3.858,12.785c3.269,14.745.851,30.312,4.193,45.039a59.169,59.169,0,0,0,18.849,31.414c.455-.67,2.58-4.334,3.035-5C996.681,516.7,989.6,503.414,989.25,485.7Z" transform="translate(-940.532 -400.596)" fill="#448d46" opacity="0.55" style="mix-blend-mode: multiply;isolation: isolate"/>
      <path id="Trazado_108121" data-name="Trazado 108121" d="M1002.235,454.814c-5.827,2.324-6.812-.417-10.22.2a20.365,20.365,0,0,0-10.29,5.884,12.813,12.813,0,0,1,.356-3.7,20.582,20.582,0,0,1,5.555-7.98,9.133,9.133,0,0,1,2.193-1.513,7.728,7.728,0,0,1,7.464,1.048A17.457,17.457,0,0,1,1002.235,454.814Z" transform="translate(-936.281 -391.585)" fill="#448d46"/>
      <path id="Trazado_108122" data-name="Trazado 108122" d="M996.52,451c-2.76-2.62-5.619-3.068-7.544-1.736-2.77,1.918-4.406,4.714-6.432,6.976a14.556,14.556,0,0,0-.087,2.115,16.564,16.564,0,0,1,8.37-4.786c2.633-.478,4.282.952,8.421-.465A11.32,11.32,0,0,1,996.52,451Z" transform="translate(-935.735 -390.559)" fill="#448d46" opacity="0.55" style="mix-blend-mode: multiply;isolation: isolate"/>
      <path id="Trazado_108123" data-name="Trazado 108123" d="M977.478,450.415a5.029,5.029,0,0,0-4.275,2.314,10.727,10.727,0,0,0-1.592,4.777c-.359,2.751-.129,5.889,1.909,7.771,1.285-1.794,2.3-3.783,3.726-5.469a7.947,7.947,0,0,1,5.6-3.14c1.043-.026,2.071.251,3.116.281s3.163-.275,3.75-1.138c-2.751-1.444-6.47-2.868-9.221-4.312A7.808,7.808,0,0,0,977.478,450.415Z" transform="translate(-943.898 -389.166)" fill="#448d46"/>
      <path id="Trazado_108124" data-name="Trazado 108124" d="M975.022,453.206c-2.429,1.658-1.839,6.568-2.434,9.593a56.445,56.445,0,0,1,3.374-4.946,7.947,7.947,0,0,1,5.6-3.142c1.044-.026,2.073.251,3.115.281s3.165-.275,3.75-1.139h0C983.809,453.714,978.92,450.544,975.022,453.206Z" transform="translate(-943.067 -387.873)" fill="#448d46" opacity="0.55" style="mix-blend-mode: multiply;isolation: isolate"/>
      <path id="Trazado_108125" data-name="Trazado 108125" d="M976.036,450.484c-.308-1.749.331-4.219.867-5.912,3.405-10.78,10.8-20.716,21.241-25.056,3.487-1.449,7.258-2.272,10.484-4.235-3.951,4.754-3.128,11.748-4.962,17.651a26.184,26.184,0,0,1-8.029,11.744A24.538,24.538,0,0,1,976.036,450.484Z" transform="translate(-940.563 -415.281)" fill="#448d46"/>
      <path id="Trazado_108126" data-name="Trazado 108126" d="M976.423,447.025a11.244,11.244,0,0,1,.68-4.65c2.678-8.477,8.5-16.289,16.7-19.7,2.741-1.138,5.708-1.785,8.243-3.33-3.107,3.74-2.46,9.239-3.9,13.88a20.589,20.589,0,0,1-6.313,9.237A19.3,19.3,0,0,1,976.423,447.025Z" transform="translate(-940.263 -412.262)" fill="#448d46" opacity="0.55" style="mix-blend-mode: multiply;isolation: isolate"/>
      <path id="Trazado_108127" data-name="Trazado 108127" d="M991.941,439.623c-3.813-5.244-10.431-7.732-16.863-8.555s-12.963-.267-19.422-.828a43.835,43.835,0,0,1,5.475,6.318c1.736,2.441,3.257,5.1,5.521,7.058a13.351,13.351,0,0,0,10.693,3.039C982.7,445.792,986.008,444.537,991.941,439.623Z" transform="translate(-955.656 -404.159)" fill="#448d46"/>
      <path id="Trazado_108128" data-name="Trazado 108128" d="M987.662,438.611c-2.92-4.017-7.99-5.923-12.917-6.554s-9.932-.2-14.881-.635a33.52,33.52,0,0,1,4.195,4.842,28.835,28.835,0,0,0,4.23,5.406A10.222,10.222,0,0,0,976.481,444C980.587,443.338,983.119,442.375,987.662,438.611Z" transform="translate(-952.527 -403.28)" fill="#448d46" opacity="0.55" style="mix-blend-mode: multiply;isolation: isolate"/>
      <path id="Trazado_108129" data-name="Trazado 108129" d="M1000.171,420.143c-3.714,2.744-6.329,6.677-9.082,10.386a124.257,124.257,0,0,1-8.942,10.728,32.032,32.032,0,0,1-3.658,3.475,1.988,1.988,0,0,1-1.5.568c3.471-3.954,6.88-7.966,10.1-12.129C990.882,428.255,994.627,422.945,1000.171,420.143Z" transform="translate(-939.798 -411.666)" fill="#1e5905"/>
      <path id="Trazado_108130" data-name="Trazado 108130" d="M984.823,430.3c-.187-3.83.3-7.875,2.507-11.007a17.978,17.978,0,0,0-1.547,6.981C985.76,427.687,985.834,429.3,984.823,430.3Z" transform="translate(-933.998 -412.301)" fill="#1e5905"/>
      <path id="Trazado_108131" data-name="Trazado 108131" d="M984.894,428.389c1.109-1.939,3.3-2.973,5.426-3.661s4.378-1.179,6.186-2.491a7.97,7.97,0,0,1-2.474,2.131,20.463,20.463,0,0,1-2.11,1Z" transform="translate(-933.918 -410.11)" fill="#1e5905"/>
      <path id="Trazado_108132" data-name="Trazado 108132" d="M982.256,425.644a9.214,9.214,0,0,0-.328,2.6,24.848,24.848,0,0,0,1.109,3.982,1.227,1.227,0,0,1,.044.476,1.3,1.3,0,0,1-.244.5,12.788,12.788,0,0,1-1.526,1.806c.924-2.4-.082-5.1.2-7.657a15.211,15.211,0,0,1,1.283-4.123Q982.527,424.435,982.256,425.644Z" transform="translate(-936.582 -409.372)" fill="#1e5905"/>
      <path id="Trazado_108133" data-name="Trazado 108133" d="M987.83,430.422c-2.062.345-4.268.4-6.029,1.527a4.877,4.877,0,0,1,2.987-2.423,29.6,29.6,0,0,1,3.872-.8,37.74,37.74,0,0,0,6.573-2.155A11.744,11.744,0,0,1,987.83,430.422Z" transform="translate(-936.218 -406.889)" fill="#1e5905"/>
      <path id="Trazado_108134" data-name="Trazado 108134" d="M980.358,433.143a9.568,9.568,0,0,1,0,1.395,1.8,1.8,0,0,1-.1.617,1.841,1.841,0,0,1-.4.523l-.874.889a14.942,14.942,0,0,0,.3-5.056,11.035,11.035,0,0,1-.185-1.262,5.008,5.008,0,0,1,.188-1.463,9.81,9.81,0,0,1,.485-1.44,10.049,10.049,0,0,0,.122,3.609A18.327,18.327,0,0,1,980.358,433.143Z" transform="translate(-938.317 -406.311)" fill="#1e5905"/>
      <path id="Trazado_108135" data-name="Trazado 108135" d="M979.6,433.847c-.145-.042-.106-.26-.028-.389a5.173,5.173,0,0,1,3.482-2.216,19.428,19.428,0,0,1,4.237-.178,10.8,10.8,0,0,0,4.188-.544,6.947,6.947,0,0,1-2.408,1.486,13.055,13.055,0,0,1-3.482.057A14.887,14.887,0,0,0,979.6,433.847Z" transform="translate(-937.93 -403.951)" fill="#1e5905"/>
      <path id="Trazado_108136" data-name="Trazado 108136" d="M982.625,437.686c-3.586.176-7.234.349-10.724-.5-3.7-.9-7.025-2.9-10.281-4.873,4.261,1.17,8.224,3.433,12.6,4.026,3.48.471,7.078-.139,10.494.676a1.379,1.379,0,0,1,.922.521Z" transform="translate(-951.222 -402.618)" fill="#1e5905"/>
      <path id="Trazado_108137" data-name="Trazado 108137" d="M967.524,436.667a13.3,13.3,0,0,1-3.151-5.619c1.588,1.907,2.4,4.42,4.218,6.107C967.93,436.976,967.994,437.164,967.524,436.667Z" transform="translate(-949.175 -403.559)" fill="#1e5905"/>
      <path id="Trazado_108138" data-name="Trazado 108138" d="M967.114,431.08a23.18,23.18,0,0,0,4.2,5.959,1.7,1.7,0,0,1,.631.882l-1.339-.4a2.3,2.3,0,0,1-.533-.206,2.061,2.061,0,0,1-.472-.415A9.717,9.717,0,0,1,967.114,431.08Z" transform="translate(-947.137 -403.535)" fill="#1e5905"/>
      <path id="Trazado_108139" data-name="Trazado 108139" d="M973.955,437.6l-1.3-1.111c-.218-.187-.438-.373-.641-.577a7.118,7.118,0,0,1-1.927-4.3c1.227,2.221,3.36,3.775,5.028,5.689C974.5,437.643,974.576,437.263,973.955,437.6Z" transform="translate(-944.926 -403.141)" fill="#1e5905"/>
      <path id="Trazado_108140" data-name="Trazado 108140" d="M967.9,436.253a13.76,13.76,0,0,1,2.671-1.691,3.169,3.169,0,0,0-2.962.159c-2.16.992-4.1,2.692-6.477,2.845A9.169,9.169,0,0,0,967.9,436.253Z" transform="translate(-951.582 -401.176)" fill="#1e5905"/>
      <path id="Trazado_108141" data-name="Trazado 108141" d="M969.546,437.549a19.329,19.329,0,0,1-5.335,3.52,9.248,9.248,0,0,0,5.591-2.124c1.625-1.222,3.013-2.727,4.559-4.045a3.865,3.865,0,0,0-2.682.76A19.175,19.175,0,0,0,969.546,437.549Z" transform="translate(-949.296 -400.716)" fill="#1e5905"/>
      <path id="Trazado_108142" data-name="Trazado 108142" d="M971.065,438.876a12.867,12.867,0,0,1-3.346,1.614,9.171,9.171,0,0,0,3.1-.345,7.734,7.734,0,0,0,1.662-.887,50.135,50.135,0,0,0,5.284-4.224c-.7.286-1.52.045-2.221.319a3.231,3.231,0,0,0-.854.572l-2,1.676C972.16,438.042,971.631,438.485,971.065,438.876Z" transform="translate(-946.687 -400.596)" fill="#1e5905"/>
      <path id="Trazado_108143" data-name="Trazado 108143" d="M983.4,453.169a15.469,15.469,0,0,0-4.836-.5,5.228,5.228,0,0,0-4.052,2.38c-.816,1.459-.635,3.339-1.546,4.74,1.231-1.369,1.822-3.227,3.1-4.554a5.92,5.92,0,0,1,4.021-1.792c2.082-.068,4.207.964,6.189.328Z" transform="translate(-942.787 -387.517)" fill="#1e5905"/>
      <path id="Trazado_108144" data-name="Trazado 108144" d="M979.434,454.3A12.55,12.55,0,0,1,977,452.544a4.113,4.113,0,0,1-1.222-1.416,10.435,10.435,0,0,0,2.394,1.928l.649.425c.68.446,1.362.891,2.083,1.268A5.447,5.447,0,0,1,979.434,454.3Z" transform="translate(-940.696 -388.63)" fill="#1e5905"/>
      <path id="Trazado_108145" data-name="Trazado 108145" d="M977.089,454.267a1.778,1.778,0,0,1,.924-.2.483.483,0,0,0-.284-.235l-2.26-1.027a5.32,5.32,0,0,1-1.874-1.2,4.692,4.692,0,0,0,3.037,2.741.551.551,0,0,0,.183.03A.725.725,0,0,0,977.089,454.267Z" transform="translate(-942.319 -388.275)" fill="#1e5905"/>
      <path id="Trazado_108146" data-name="Trazado 108146" d="M972.032,454.049a3.3,3.3,0,0,0,4.392-.329A41.108,41.108,0,0,1,972.032,454.049Z" transform="translate(-943.481 -386.702)" fill="#1e5905"/>
      <path id="Trazado_108147" data-name="Trazado 108147" d="M971.646,457.961a10.209,10.209,0,0,0,3.649-2.593c.232-.225.486-.52.394-.828l-2.851,2.235A4.816,4.816,0,0,0,971.646,457.961Z" transform="translate(-943.768 -386.093)" fill="#1e5905"/>
      <path id="Trazado_108148" data-name="Trazado 108148" d="M996.625,452.065c-1.006-.251-1.9-.879-2.924-1.044a6.2,6.2,0,0,0-3.021.492,36.405,36.405,0,0,0-7.732,3.848,19.715,19.715,0,0,1,8.658-5.171,5.548,5.548,0,0,1,3.335.059c1.274.518,2.275,1.785,3.649,1.818A4.115,4.115,0,0,1,996.625,452.065Z" transform="translate(-935.366 -389.497)" fill="#1e5905"/>
      <path id="Trazado_108149" data-name="Trazado 108149" d="M984.761,454.118a21.5,21.5,0,0,0,1.379-3.543c.082-.286.16-.574.237-.861q.186-.69.37-1.384a16.975,16.975,0,0,1-.488,4.191,2.974,2.974,0,0,1-.455,1.112A1.138,1.138,0,0,1,984.761,454.118Z" transform="translate(-934.017 -390.71)" fill="#1e5905"/>
      <path id="Trazado_108150" data-name="Trazado 108150" d="M988.737,447.751a10.79,10.79,0,0,1-.474,4.352.7.7,0,0,1-.248.4.7.7,0,0,1-.23.08l-.908.2a20.741,20.741,0,0,0,1.215-3.1Q988.416,448.719,988.737,447.751Z" transform="translate(-932.444 -391.14)" fill="#1e5905"/>
      <path id="Trazado_108151" data-name="Trazado 108151" d="M988.795,451.583a20.144,20.144,0,0,0,3.034-3.456,15.376,15.376,0,0,1-1.588,3.028,1.681,1.681,0,0,1-.643.64A.62.62,0,0,1,988.795,451.583Z" transform="translate(-931.018 -390.861)" fill="#1e5905"/>
      <path id="Trazado_108152" data-name="Trazado 108152" d="M989.874,451l3.52-1.355a4.439,4.439,0,0,1-2.334,1.717,1.413,1.413,0,0,1-.722.131A.526.526,0,0,1,989.874,451Z" transform="translate(-930.216 -389.732)" fill="#1e5905"/>
    </g>
    <g id="Grupo_58865" data-name="Grupo 58865" transform="translate(971.06 555.093)">
      <g id="Grupo_58864" data-name="Grupo 58864">
        <path id="Trazado_108153" data-name="Trazado 108153" d="M1269.254,481.844q-68.343.364-136.682.729c-23.4.124-46.809.249-70.2.825-25.582.631-51.75,1.923-75.424,11.437-10.386,4.174-21.241,11.493-22.362,22.437-1.248,12.2,10.651,22.238,22.754,25.347s24.951,1.674,37.293,3.712c8.745,1.444,36.66,12.593,20.981,23.516-2.842,1.979-6.237,3.6-7.785,6.658-1.932,3.824-.113,8.663,3.13,11.509,9.681,8.5,27.4,10.259,39.667,10.815a132.9,132.9,0,0,0,46.666-6.2c11.577-3.735,22.674-9.083,34.648-11.3,22.031-4.089,40.063,4.411,61.118,7.866,17.709,2.908,36.423,4.833,54.449,3.33,9.078-.755,18.634-2.535,25.385-8.533,6.665-5.923,9.443-14.922,14.869-21.959,5.649-7.328,16.174-15.355,25.373-17.644,10.673-2.659,21.525-3.846,32.127-7.4,11.289-3.782,23.952-10.993,24.276-22.679.188-6.829-4.284-13.151-10.027-17.022s-12.637-5.7-19.424-7.258a357.1,357.1,0,0,0-110.385-7.743Z" transform="translate(-964.491 -478.436)" fill="url(#linear-gradient)"/>
        <path id="Trazado_108154" data-name="Trazado 108154" d="M1185.41,529.362c.657-1.513,2.99-2.4,2.6-4-.26-1.055-1.564-1.43-2.652-1.62l-21.881-3.8c-1.621-.281-3.734-.33-4.42,1.14-.671,1.444.739,3.006,2.172,3.747,2.814,1.451,6.1,1.665,9.173,2.453s6.281,2.49,7.221,5.468a2.893,2.893,0,0,0-3.873,1.789,13.538,13.538,0,0,1-.319,1.853c-.365.9-1.334,1.4-2.092,2.024-2.2,1.825-2.819,5.087-5.173,6.726-2.926,2.036-6.907.65-10.435-.01-6.336-1.189-12.867.282-19.309-.038a2.428,2.428,0,0,1-1.677-.534,3.209,3.209,0,0,1-.556-1.735c-.657-3.548-4.981-5.1-8.653-5.326s-7.732.078-10.609-2.167l6.937-2.727a1.693,1.693,0,0,0,.98-.7c.588-1.207-1.986-2.131-1.609-3.416a49.569,49.569,0,0,1,11.531-2.167c2.713-.183,5.6-.187,7.9-1.611s3.478-4.943,1.5-6.772c-2.948,2.692-7.282,3.278-11.313,3.307s-8.173-.345-12,.908a8.145,8.145,0,0,0-4.231,2.831,4.25,4.25,0,0,0-.2,4.8c-3.241,1.189-6.929,3.731-6.182,7.042.591,2.627,3.708,3.864,6.444,4.092s5.656-.084,8.064,1.207c2.286,1.224,3.625,3.649,5.687,5.21,4.092,3.1,9.852,2.171,15.02,2.3,5.391.133,10.672,1.58,16.058,1.838,4.784.228,10.243-.886,12.718-4.9.633-1.025,1.029-2.185,1.742-3.157,2-2.728,5.809-3.283,9.148-4.04s7.121-2.561,7.5-5.9a6.534,6.534,0,0,1-3.886-.729A2.88,2.88,0,0,1,1185.41,529.362Z" transform="translate(-857.689 -450.949)" opacity="0.75" fill="url(#linear-gradient-2)"/>
        <g id="Grupo_58856" data-name="Grupo 58856" transform="translate(298.765)">
          <path id="Trazado_108155" data-name="Trazado 108155" d="M1249.87,500.794a1.977,1.977,0,0,0-1.039-1.247c-5.832-3.8-13.106-4.618-20.071-5.332q-7.61-.777-15.222-1.557l12.07,4.885a20.094,20.094,0,0,0,7.129,1.9,16.857,16.857,0,0,1,3.778.1c1.226.3,2.4,1.372,2.221,2.6-.175,1.186-1.43,1.853-2.481,2.464s-2.156,1.677-1.783,2.817c-3.03-.415-6.329-.781-8.968.737-1.323.76-2.357,1.939-3.682,2.7-2.087,1.2-4.636,1.229-7.054,1.227l-16.338-.014a27.657,27.657,0,0,1-4.592-.26c-1.778-.3-3.477-.947-5.237-1.334a18.349,18.349,0,0,0-8.053.047c-1.74.4-4.143.76-4.8-.87-.181-.45-.16-.962-.363-1.4-.5-1.076-1.984-1.2-3.185-1.138a127.736,127.736,0,0,0-14.051,1.449,7.334,7.334,0,0,1-3.058.066,2.336,2.336,0,0,1-1.855-2.13c.057-1.236,1.463-2.38.9-3.489a2.243,2.243,0,0,0-1.179-.9,20.735,20.735,0,0,0-6.329-1.658,5.178,5.178,0,0,1-2.094-.467,1.462,1.462,0,0,1-.748-1.784,1.907,1.907,0,0,1,.677-.682c2.751-1.9,6.247-2.355,9.589-2.753l6.7-.8c-7.731-.5-15.871-.926-22.836,2.4a3.733,3.733,0,0,0-1.86,1.512,2.7,2.7,0,0,0,1.114,3.218,8.241,8.241,0,0,0,3.551,1.128l5.164.811c1.58.246,3.576.95,3.539,2.518a9.8,9.8,0,0,1-.661,2.016c-.368,1.471.762,2.983,2.171,3.607a10.277,10.277,0,0,0,4.563.527l11.732-.42a4.877,4.877,0,0,1,3.429.737c.452.391.736.936,1.158,1.358a5.931,5.931,0,0,0,2.992,1.292,35.317,35.317,0,0,0,8.367,1.193c3.231-.059,6.435-1,9.652-.7,3.848.361,7.451,2.488,11.312,2.272,2.472-.138,4.789-1.233,7.241-1.574,3.637-.507,7.5.645,10.938-.633,1.531-.57,2.845-1.583,4.315-2.289,3.584-1.716,7.788-1.48,11.753-1.046a6.606,6.606,0,0,0,3.18-.16,2.116,2.116,0,0,0,1.395-2.5c-.305-.785-1.25-1.3-1.271-2.141-.023-.79.781-1.329,1.487-1.709q2.628-1.418,5.255-2.837C1249.146,502.166,1249.967,501.589,1249.87,500.794Z" transform="translate(-1135.853 -469.75)" opacity="0.75" fill="url(#linear-gradient-2)"/>
          <path id="Trazado_108156" data-name="Trazado 108156" d="M1208.979,494.528l9.7.394c2.54.1,5.213.246,7.359,1.583,1.37.853,2.493,2.5,1.9,3.982-.737,1.834-3.278,1.949-5.288,1.963a20.739,20.739,0,0,0-8.494,1.705,36.115,36.115,0,0,1-3.48,1.616c-2.571.863-5.38.46-8.072.1-7.371-.983-14.8-1.555-22.219-2.021-5.833-.366-11.676-.666-17.52-.661a41.214,41.214,0,0,1-7.818-.427c-.767-.147-1.736-.752-1.379-1.433a11.777,11.777,0,0,1-9.263-4.136,41,41,0,0,1,16.544-1.412l-4.16,2.033a1.4,1.4,0,0,0-.753.628c-.326.807.91,1.3,1.8,1.323l42.039,1.09a35.747,35.747,0,0,0,6.831-.26,17.728,17.728,0,0,0,9.059-4.437,2.465,2.465,0,0,0-2.952-1.33Z" transform="translate(-1129.494 -468.36)" opacity="0.75" fill="url(#linear-gradient-2)"/>
          <g id="Grupo_58855" data-name="Grupo 58855" transform="translate(22.366)">
            <path id="Trazado_108157" data-name="Trazado 108157" d="M1213.348,509.678s-6.1-14.614-12.473-18.864-25.488-9.434-27.249-11.294c0,0-11.525,10.762-13.965,13.419s-9.083,12.886-10.98,16.739c0,0,5.016,3.986,18.98,2.525s15.592,2.789,31.046,1.728S1213.348,509.678,1213.348,509.678Z" transform="translate(-1148.681 -479.519)" fill="#624c4d"/>
            <path id="Trazado_108158" data-name="Trazado 108158" d="M1208.363,509.678s-6.1-14.614-12.473-18.866-25.488-9.432-27.249-11.293c0,0-9.84,9.19-13.254,12.677.005.023.007.047.014.07.994,4.409,2.973,4.859,6.679,3.335,3.942-1.62,7.83-3.724,12.224-3.548,3.905.157,6.234,3.314,7.059,6.719.751,3.1-1.29,6.955.926,9.767a26.53,26.53,0,0,0,6.086,5.558c1.592.016,3.349-.031,5.346-.167C1209.177,512.866,1208.363,509.678,1208.363,509.678Z" transform="translate(-1143.695 -479.519)" fill="#624c4d" opacity="0.32" style="mix-blend-mode: multiply;isolation: isolate"/>
            <path id="Trazado_108159" data-name="Trazado 108159" d="M1180.641,499.447c-.216-3.853.746-10.905-5.457-8.628-2.233.819-4.369,1.859-6.6,2.69-7.148,2.671-10.323.3-12.093-3.9a128.71,128.71,0,0,0-7.814,12.567s5.016,3.986,18.98,2.525a47.173,47.173,0,0,1,15.749.856A10.66,10.66,0,0,1,1180.641,499.447Z" transform="translate(-1148.681 -472.017)" fill="#624c4d" opacity="0.32" style="mix-blend-mode: multiply;isolation: isolate"/>
            <path id="Trazado_108160" data-name="Trazado 108160" d="M1202.242,509.387s-6.1-14.614-12.473-18.864c-5.717-3.815-21.654-8.37-26.151-10.613,1.522,4.127,2.525,7.267,6.24,10.6a111.81,111.81,0,0,1,8.206,7.947c3.794,4.181,8.421,9.441,10.3,15.121C1202.99,512.461,1202.242,509.387,1202.242,509.387Z" transform="translate(-1137.575 -479.228)" fill="#bd9389"/>
            <path id="Trazado_108161" data-name="Trazado 108161" d="M1167.673,484c2.572,1.58,5.485,4.768,8.872,4.062a10.4,10.4,0,0,1,4.988.033c1.369.411,6.758,3.225,10.949,4.835a15.517,15.517,0,0,0-2.713-2.408c-5.717-3.813-21.654-8.369-26.151-10.611.41,1.111.783,2.144,1.18,3.133A6.6,6.6,0,0,1,1167.673,484Z" transform="translate(-1137.575 -479.228)" fill="#624c4d" opacity="0.32" style="mix-blend-mode: multiply;isolation: isolate"/>
            <path id="Trazado_108162" data-name="Trazado 108162" d="M1192.165,493.329c-3.025,3.618-6.97,5.5-11.444,1.112a18.314,18.314,0,0,1-2.169-3.067,7.6,7.6,0,0,0-5.647-1.02q-.677-.086-1.349-.178c.2.216.411.425.61.645,3.794,4.181,8.421,9.441,10.3,15.121,14.628-1.116,13.88-4.19,13.88-4.19A88.179,88.179,0,0,0,1192.165,493.329Z" transform="translate(-1131.675 -471.595)" fill="#624c4d" opacity="0.32" style="mix-blend-mode: multiply;isolation: isolate"/>
          </g>
        </g>
        <g id="Grupo_58858" data-name="Grupo 58858" transform="translate(14.87 12.892)">
          <path id="Trazado_108163" data-name="Trazado 108163" d="M1031.027,501.273a2.187,2.187,0,0,1,1.355.873,1.456,1.456,0,0,1,.068,1.027c-.411,1.576-2.309,2.3-3.968,2.348s-3.356-.336-4.96.082a23.79,23.79,0,0,0-2.565,1.039c-4.6,1.787-9.725-.5-14.675-.537-2.741-.018-5.7.624-8.076-.717-1.571-.887-2.807-2.6-4.62-2.636-.582-.011-1.156.166-1.738.139a1.3,1.3,0,0,1-1.311-.912,12.73,12.73,0,0,1,4.613-.056,61.527,61.527,0,0,0,12.844-.094c.507-.057,1.132-.225,1.219-.718.1-.593-.662-.935-1.269-1.032-3.837-.621-7.767-.178-11.652-.4-4.669-.272-9.6-1.468-13.856.425a1.938,1.938,0,0,0-1.011.8c-.387.772.284,1.639.942,2.211a20.465,20.465,0,0,0,4.495,2.96,41.225,41.225,0,0,0,7.239,2.448c8.85,2.4,18.092,4.815,27.1,3.091,1.543-.3,3.065-.711,4.631-.863,3.157-.307,6.758.352,9.174-1.665.612-.509,1.088-1.158,1.67-1.7,1.763-1.648,4.463-2.336,5.675-4.406a2.14,2.14,0,0,0,.193-2.1,2.939,2.939,0,0,0-2.115-1.091,97.665,97.665,0,0,0-14.059-1.682,5.123,5.123,0,0,0-3.22.575Q1027.089,499.975,1031.027,501.273Z" transform="translate(-966.856 -478.613)" opacity="0.75" fill="url(#linear-gradient-2)"/>
          <path id="Trazado_108164" data-name="Trazado 108164" d="M1062.673,500.243a4.2,4.2,0,0,0-2.418-.91,62.5,62.5,0,0,0-12.222-.061l-6.073.37a11.567,11.567,0,0,1-1.51,3.74c2.525.244,5.1.267,7.631.347,1.041.033,2.349.276,2.593,1.269a1.89,1.89,0,0,1-.228,1.262,7.877,7.877,0,0,1-4.526,3.477c-6.517,2.436-13.943,1.421-20.517,3.7-2.087.725-4.055,1.775-6.184,2.375a8.421,8.421,0,0,1-6.448-.4c-1.818-1.058-2.863-3.013-4.362-4.474-2.817-2.746-7.051-3.569-11.024-3.59s-7.952.626-11.906.244a1.256,1.256,0,0,1-.448-.1c-.337-.173-.432-.591-.554-.945a3.647,3.647,0,0,0-3.914-2.312c-.209-.567.619-.922,1.233-.975l28.5-2.49c-.242-1.328-1.981-1.7-3.356-1.763a129.5,129.5,0,0,0-21.513.861l2.314-.371q-4.537.526-9.077,1.048c-2.227.258-4.92.882-5.534,3-.595,2.049,1.26,3.975,3.112,5.089a21.144,21.144,0,0,0,11.061,3c2.91-.031,5.78-.661,8.684-.8s6,.275,8.271,2.059a44.079,44.079,0,0,1,3.129,3.194,12.57,12.57,0,0,0,11.224,3.131c2.178-.485,4.177-1.545,6.324-2.155,5.972-1.7,12.387.213,18.573-.41a12.505,12.505,0,0,0,3.82-.912,17.057,17.057,0,0,0,3.316-2.127l9.7-7.338a8.768,8.768,0,0,0,2.593-2.61A2.911,2.911,0,0,0,1062.673,500.243Z" transform="translate(-973.02 -478.013)" opacity="0.75" fill="url(#linear-gradient-2)"/>
          <g id="Grupo_58857" data-name="Grupo 58857" transform="translate(24.329)">
            <path id="Trazado_108165" data-name="Trazado 108165" d="M1005.334,514.094c8.438,1.594,12.511-2.2,19.192-4.566l-20.575-22.416-16.828,14.833,10.168,11.078A77.485,77.485,0,0,1,1005.334,514.094Z" transform="translate(-986.864 -486.766)" fill="#4e728d"/>
            <path id="Trazado_108166" data-name="Trazado 108166" d="M1010.825,513.383c3.011-1.044,5.762-2.638,9.2-3.855l-20.575-22.416-6.282,5.966C998.908,499.947,1010.825,513.383,1010.825,513.383Z" transform="translate(-982.366 -486.766)" fill="#829bab" opacity="0.32" style="mix-blend-mode: screen;isolation: isolate"/>
            <path id="Trazado_108167" data-name="Trazado 108167" d="M1016.934,509.8c.246-.094.5-.187.748-.276l-20.575-22.416-.779.687C997.745,489.365,1016.934,509.8,1016.934,509.8Z" transform="translate(-980.02 -486.766)" fill="#829bab" opacity="0.32" style="mix-blend-mode: screen;isolation: isolate"/>
            <path id="Trazado_108168" data-name="Trazado 108168" d="M996.2,488.15l-1.827,1.878c6.1,7.307,18.937,21.2,18.937,21.2.921-.417,1.852-.851,2.821-1.275C1013,507.628,1000.128,492.622,996.2,488.15Z" transform="translate(-981.471 -485.994)" fill="#a7b9c4" opacity="0.32" style="mix-blend-mode: screen;isolation: isolate"/>
            <path id="Trazado_108169" data-name="Trazado 108169" d="M992.833,492.176,988.6,495.9c2,2.2,10.053,11.563,12.187,13.88,1.131.157,2.268.326,3.44.547a19.357,19.357,0,0,0,5.717.277Z" transform="translate(-985.762 -483.001)" fill="#224e6a" opacity="0.32" style="mix-blend-mode: multiply;isolation: isolate"/>
            <path id="Trazado_108170" data-name="Trazado 108170" d="M997.988,508.513c2.2.213,4.427.493,6.763.935,8.438,1.594,12.511-2.2,19.192-4.566L1022.4,503.2a31.149,31.149,0,0,1-10.062,1.03,16.829,16.829,0,0,1-2.369-.34c-6.59-.846-12.4-5.635-17.332-10.527l-4.73,4.169Z" transform="translate(-986.281 -482.119)" fill="#1d4a67" opacity="0.32" style="mix-blend-mode: multiply;isolation: isolate"/>
            <path id="Trazado_108171" data-name="Trazado 108171" d="M1004.062,487.26c1.158,1.26-1.67,5.605-6.318,9.7s-9.352,6.4-10.51,5.133,1.67-5.605,6.317-9.7S1002.9,486,1004.062,487.26Z" transform="translate(-986.974 -486.914)" fill="#1d1e20"/>
            <path id="Trazado_108172" data-name="Trazado 108172" d="M1002.566,487.717c.846.921-1.782,4.585-5.865,8.186s-8.081,5.773-8.927,4.852,1.78-4.585,5.865-8.186S1001.721,486.8,1002.566,487.717Z" transform="translate(-986.497 -486.473)" fill="#1d4a67"/>
            <path id="Trazado_108173" data-name="Trazado 108173" d="M997.849,489.194c.394.431-1.156,2.427-3.464,4.462s-4.5,3.335-4.894,2.906,1.158-2.429,3.466-4.462S997.455,488.765,997.849,489.194Z" transform="translate(-985.149 -485.279)" fill="#829bab" opacity="0.32" style="mix-blend-mode: screen;isolation: isolate"/>
          </g>
        </g>
        <g id="Grupo_58861" data-name="Grupo 58861" transform="translate(266.339 21.179)">
          <g id="Grupo_58860" data-name="Grupo 58860">
            <g id="Grupo_58859" data-name="Grupo 58859">
              <path id="Trazado_108174" data-name="Trazado 108174" d="M1178.075,502.133l-7.372-5.644s-11.924,17.993-14.239,18-10.039-2.615-20.4,10.534c-1.641,2.082-10.987,15.029-18.814,25.906a13.566,13.566,0,0,0,14.534,3.5,10.189,10.189,0,0,1,7.427.5c4.144,2.164,6.266,1.33,10.892.584a15.977,15.977,0,0,1,7.513,1.032c5.434-7.452,10.339-14.424,11.057-15.986,4.632-10.09.362-15.545.211-17.808C1168.683,519.743,1178.075,502.133,1178.075,502.133Z" transform="translate(-1117.254 -488.081)" fill="#417a16"/>
              <path id="Trazado_108175" data-name="Trazado 108175" d="M1167.977,500.732l-2.423-2.359c-3.386,7.086-6.378,11.993-11.371,20.378-.005.007-10.519,17.227-23.345,35.544,3.1,1.14,5.234.46,9.171-.176a16.066,16.066,0,0,1,7.575,1.051c4.786-6.449,8.977-12.22,9.647-13.392,6.719-11.774,1.724-17.972,1.559-20.421C1158.584,518.343,1167.977,500.732,1167.977,500.732Z" transform="translate(-1107.155 -486.68)" fill="#417a16" opacity="0.55" style="mix-blend-mode: multiply;isolation: isolate"/>
              <path id="Trazado_108176" data-name="Trazado 108176" d="M1145.476,502.688c2.392-3.395,4.251-6.2,4.251-6.2l7.371,5.642s-1.389,2.607-3.088,5.984c-.14.279-3.145-.4-5.387-1.878A8.4,8.4,0,0,1,1145.476,502.688Z" transform="translate(-1096.276 -488.08)" fill="#184001"/>
              <path id="Trazado_108177" data-name="Trazado 108177" d="M1166.668,502.017l-5.452,8.1s-7.654-.382-16.636-10.056l5.232-8.393Z" transform="translate(-1096.938 -491.665)" fill="#417a16"/>
              <path id="Trazado_108178" data-name="Trazado 108178" d="M1152.459,493.052l4.465,2.741a40.393,40.393,0,0,0-6.465,9.39,37.245,37.245,0,0,1-4.153-3.225A40.259,40.259,0,0,1,1152.459,493.052Z" transform="translate(-1095.655 -490.636)" fill="#8ccf58"/>
              <path id="Trazado_108179" data-name="Trazado 108179" d="M1147.581,491.669s3.851-.2,9.924,2.861,7.211,5.679,6.932,7.488c0,0-3.621.772-9.755-2.669S1147.581,491.669,1147.581,491.669Z" transform="translate(-1094.707 -491.666)" fill="#62913e"/>
              <path id="Trazado_108180" data-name="Trazado 108180" d="M1138.764,543.3a11.431,11.431,0,0,1,3.552.038c5.042-7.061,9.49-13.3,9.716-13.78,4.969-10.682,1.2-16.622,1.2-16.622-3.1,6.388-12.483,19.8-20.719,31.138A32.931,32.931,0,0,0,1138.764,543.3Z" transform="translate(-1105.912 -475.857)" fill="#184001"/>
            </g>
            <path id="Trazado_108181" data-name="Trazado 108181" d="M1127.891,545.224c8.658-12.426,21.612-30.767,25.859-35.616-5.138.551-9.573,3.8-13.134,7.469-2.085,2.15-12.408,15.766-21.1,26.982A13.094,13.094,0,0,0,1127.891,545.224Z" transform="translate(-1115.569 -478.327)" fill="#8ccf58"/>
          </g>
          <path id="Trazado_108182" data-name="Trazado 108182" d="M1130.054,533.17c4.144,2.164,6.266,1.33,10.892.584a16.088,16.088,0,0,1,7.575,1.051c2.523-3.4,4.868-6.594,6.63-9.04a137.347,137.347,0,0,1-25.577,7.225C1129.73,533.056,1129.908,533.093,1130.054,533.17Z" transform="translate(-1108.094 -466.315)" fill="#637c58" opacity="0.55" style="mix-blend-mode: multiply;isolation: isolate"/>
        </g>
        <path id="Trazado_108183" data-name="Trazado 108183" d="M1038.071,548.791c-2.6.007-4.964-1.344-7.319-2.422a37.689,37.689,0,0,0-12.232-3.246,1.513,1.513,0,0,1,.148-2.071c.518-.579,1.252-.931,1.8-1.482a8.3,8.3,0,0,0,1.564-3.28c2.664-7.61,12.2-12.128,19.942-9.448,2.692.931,5.3,2.872,5.828,5.619.175.9.176,1.954.9,2.531s1.766.365,2.685.246a10.853,10.853,0,0,1,11.218,6.587c.7,1.834.644,4.3-1.076,5.3a5.039,5.039,0,0,1-2.624.485c-4.8-.068-9.668-1.41-14.344-.338C1042.388,547.771,1040.3,548.786,1038.071,548.791Z" transform="translate(-924.583 -444.913)" fill="#ca90a6"/>
        <path id="Trazado_108184" data-name="Trazado 108184" d="M1041.286,546.578a61.585,61.585,0,0,1-4.587-7.525c-1.043-1.811-2.889-3.794-3.342-5.868-.413-1.885-.61-3.937.436-5.694a11.005,11.005,0,0,1,1.105-1.316c-5.682.847-10.988,4.664-12.869,10.035a8.3,8.3,0,0,1-1.564,3.28c-.546.551-1.28.9-1.8,1.482a1.512,1.512,0,0,0-.148,2.071,37.69,37.69,0,0,1,12.232,3.246c2.355,1.077,4.72,2.429,7.319,2.422a14.57,14.57,0,0,0,4.3-.894A14.665,14.665,0,0,1,1041.286,546.578Z" transform="translate(-924.583 -444.832)" fill="#ca90a6" opacity="0.32" style="mix-blend-mode: multiply;isolation: isolate"/>
        <path id="Trazado_108185" data-name="Trazado 108185" d="M1030.726,531.026c2.73,3.6,6.962,8.276,8.927,5.361a9.456,9.456,0,0,1,2.268-2.436,3.341,3.341,0,0,1-2.554-.262c-.727-.577-.729-1.632-.9-2.532a6.145,6.145,0,0,0-1.714-3.093c-.047-.044-.1-.07-.145-.117C1035.949,527.3,1033.339,529.161,1030.726,531.026Z" transform="translate(-915.247 -443.61)" fill="#ca90a6" style="mix-blend-mode: multiply;isolation: isolate"/>
        <path id="Trazado_108186" data-name="Trazado 108186" d="M1058.283,541.813a4.529,4.529,0,0,1-1.278-.4,1.852,1.852,0,0,1-.392.619c-2.314,2.668-6.155,1.567-8.714.232q-1.117-.829-2.19-1.707a4.2,4.2,0,0,1-2.422.739c-3.379-.089-5.978-1.515-7.408-4.409-.134.035-.291.068-.469.1a6.374,6.374,0,0,1-2.99.867,8.44,8.44,0,0,1-3.9-.868c-2.791-1.6-3.752-5.271-2.938-8.173l0,0,0,0a14.137,14.137,0,0,0-3.548,5.438,8.3,8.3,0,0,1-1.564,3.28c-.546.551-1.28.9-1.8,1.482a1.512,1.512,0,0,0-.148,2.071,37.69,37.69,0,0,1,12.232,3.246c2.355,1.077,4.72,2.429,7.319,2.422,2.233-.005,4.317-1.02,6.491-1.518,4.676-1.072,9.542.27,14.344.338a5.038,5.038,0,0,0,2.624-.485c1.339-.781,1.662-2.448,1.411-4.013A7.458,7.458,0,0,1,1058.283,541.813Z" transform="translate(-924.583 -442.872)" fill="#ca90a6" style="mix-blend-mode: multiply;isolation: isolate"/>
        <path id="Trazado_108187" data-name="Trazado 108187" d="M1018.091,535.737a1.767,1.767,0,0,1,1.456-1.56,8.74,8.74,0,0,1,2.321-.056,9.062,9.062,0,0,0,5.239-1.538,65.928,65.928,0,0,0-10.485,1.444,10.476,10.476,0,0,0-4.388,1.759,3.34,3.34,0,0,0-1.367,2.308,3.238,3.238,0,0,0,2.014,2.887,9.889,9.889,0,0,0,3.693.69q4.122.235,8.243.472a6.66,6.66,0,0,1,2,.321,7.439,7.439,0,0,1,2.068,1.435,27.137,27.137,0,0,0,11.547,5.759,16.045,16.045,0,0,0,6.676.275,32.7,32.7,0,0,0,5.194-1.817,36,36,0,0,1,14.642-2.336c3.774.187,7.514.969,11.294.927,3-.033,6.554-1.041,7.431-3.858.577-1.855,3.616-2.171,2.312-3.63-.671-.752-9.073-1.388-10-1.808-4.148-1.88-5.227-.316-9.758-.893q2.693,1.41,5.389,2.817a2.124,2.124,0,0,1,.926.736c.556.982-.781,2.047-1.925,2.047s-2.3-.5-3.405-.192a7.406,7.406,0,0,0-1.154.516c-3.872,1.838-8.552-.452-12.755.45-2.2.471-4.092,1.777-6.151,2.659a16.681,16.681,0,0,1-7.544,1.311,6.517,6.517,0,0,1-2.95-.751,10.958,10.958,0,0,1-2.586-2.729,14.28,14.28,0,0,0-10.044-5.082c-2.418-.146-5.107.256-7.044-1.172A1.916,1.916,0,0,1,1018.091,535.737Z" transform="translate(-930.015 -440.067)" opacity="0.75" fill="url(#linear-gradient-2)"/>
        <g id="Grupo_58863" data-name="Grupo 58863" transform="translate(220.614 19.571)">
          <g id="Grupo_58862" data-name="Grupo 58862" transform="translate(8.609)">
            <path id="Trazado_108188" data-name="Trazado 108188" d="M1130.766,491.687c3.12.594,6.54,1.369,8.416,3.883,2.09,2.8,1.5,6.765,3,9.913.954,2.008,2.7,3.557,3.817,5.485s1.412,4.685-.317,6.114c-1.665,1.376-4.16.776-6.257.2a73.424,73.424,0,0,0-30.038-1.886,5.723,5.723,0,0,1-3.391-.171,6.141,6.141,0,0,1-1.635-1.452c-2.123-2.321-4.791-4.165-6.613-6.719s-2.592-6.254-.615-8.695c1.438-1.777,3.911-2.394,6.221-2.542s4.672.056,6.9-.546c2.817-.76,5.138-2.73,7.88-3.717C1122.139,490.107,1126.578,490.888,1130.766,491.687Z" transform="translate(-1095.966 -490.745)" fill="#a290a6"/>
            <path id="Trazado_108189" data-name="Trazado 108189" d="M1134.673,512.771c-.621-3.041-3.644-2.134-6.076-1.785-2.307.329-4.245-.88-4.4-3.283-.216-3.426-3.387-10.66,1.048-12.972,1.3-.678,7.38-.975,10.1-1.853a26.739,26.739,0,0,0-4.585-1.191c-4.188-.8-8.627-1.58-12.632-.138-2.743.987-5.063,2.957-7.881,3.717-2.232.6-4.594.4-6.9.546s-4.783.764-6.221,2.542c-1.975,2.441-1.208,6.141.615,8.695s4.49,4.4,6.613,6.719a6.143,6.143,0,0,0,1.635,1.452,5.723,5.723,0,0,0,3.391.171,73.5,73.5,0,0,1,26.7,1.055A10.1,10.1,0,0,1,1134.673,512.771Z" transform="translate(-1095.965 -490.745)" fill="#a290a6" opacity="0.32" style="mix-blend-mode: multiply;isolation: isolate"/>
            <path id="Trazado_108190" data-name="Trazado 108190" d="M1116.436,500.238c2.945-.3,6.118-.187,7.89,1.893.26.307.469.595.68.886-.281-2.46-.48-4.955-.6-7.443a13.336,13.336,0,0,1-2.266.689,61.282,61.282,0,0,1-6.685.469C1115.988,496.683,1116.274,498.421,1116.436,500.238Z" transform="translate(-1081.477 -487.154)" fill="#a290a6" style="mix-blend-mode: multiply;isolation: isolate"/>
            <path id="Trazado_108191" data-name="Trazado 108191" d="M1120.651,503.818a14.205,14.205,0,0,1,.757-3.074,3.849,3.849,0,0,1-2.9-.544c-2.317-1.712-2.491-3.335-3.269-5.926.127.425-1.679.232-2.985.15a6.754,6.754,0,0,1-2.936-1.1,5.613,5.613,0,0,1-.751-.5c-.059-.021-.119-.033-.178-.054a14.636,14.636,0,0,1,1.13,2.756c.565,2.01-.612,3.1-1.691,4.3a6.872,6.872,0,0,1,1.876.581c1.5.859,2.092,1.951,4.045,2.178,2.734.316,3.832,1.649,6.169,2.739.319.148.689.281,1.051.413A5.328,5.328,0,0,1,1120.651,503.818Z" transform="translate(-1087.145 -489.239)" fill="#a290a6" style="mix-blend-mode: multiply;isolation: isolate"/>
            <path id="Trazado_108192" data-name="Trazado 108192" d="M1145.76,510.96a3.59,3.59,0,0,1-3.921,1.564c-2.965-.539-4.924-3.143-7.821-1.057a5.2,5.2,0,0,1-4.95.394,7.182,7.182,0,0,1-3.156-4.4c-.927-3.3-3.9-1.852-6.364-.9-2.643,1.016-6.531,1.037-7.479-2.338-.771-2.746.765-.746-2.469-1.3a5.069,5.069,0,0,1-3.595-1.913,3.335,3.335,0,0,1-.893-3.311c.745-1.749,1.383-3.105,3-4.162-1.574.143-3.182.094-4.767.2-2.31.148-4.783.764-6.221,2.542-1.975,2.441-1.208,6.141.615,8.695s4.49,4.4,6.613,6.719a6.144,6.144,0,0,0,1.635,1.452,5.723,5.723,0,0,0,3.391.171,73.425,73.425,0,0,1,30.038,1.886c2.1.581,4.593,1.18,6.257-.2,1.515-1.252,1.475-3.524.691-5.363A7.732,7.732,0,0,1,1145.76,510.96Z" transform="translate(-1095.965 -488.667)" fill="#a290a6" style="mix-blend-mode: multiply;isolation: isolate"/>
          </g>
          <path id="Trazado_108193" data-name="Trazado 108193" d="M1161.74,503.642a1.558,1.558,0,0,0-.656-1.928,4.757,4.757,0,0,0-2.165-.594,6.178,6.178,0,0,0-2.587.085c-.586.192-7.157.305-7.685.619l.837,1.2c.324.438,3.876.371,5.04.76,1.107.371.1,1.142-1.737,1.48a7.9,7.9,0,0,0-2.669,1.1c-.741.534-1.643.985-1.785,1.85-.059.366.028.783-.2,1.081a1.3,1.3,0,0,1-1.03.345,28.042,28.042,0,0,1-6.32-.279c-2.232-.441-4.324-1.417-6.555-1.862-1.635-.326-6.334,1.05-8,1.016-2.519-.047-2.021-1.5-4.542-1.553a7.562,7.562,0,0,0-3.358.445c-.715.335-1.308.886-2.024,1.217a7.449,7.449,0,0,1-2.952.481,2.292,2.292,0,0,1-1.564-.336.807.807,0,0,1-.151-.174,3.1,3.1,0,0,0-1.981-1.548l-9.615-1.827c1.064-.406,5.067-.532,6.13-.938l-1.367-1.252c-3.149.153-6.229.654-9.378.809a6.656,6.656,0,0,0-3.977,1.057.936.936,0,0,0-.417.7c.012.323.3.56.577.736,4.249,2.751,9.865,1.578,14.893,2.476a2.685,2.685,0,0,1,2.055,1.834,2.4,2.4,0,0,0,.774,1.109,5.338,5.338,0,0,0,2.566.915,15.6,15.6,0,0,0,6.512-.185c1.229-.338,2.391-.889,3.621-1.222,4.863-1.318,9.983.881,15.024.689a43.026,43.026,0,0,1,5.574-.3c1.975.181,3.857,1,5.837,1.091.774.037,1.721-.164,1.951-.887a4.9,4.9,0,0,0,.054-1.039,2.879,2.879,0,0,1,.814-1.538,14.4,14.4,0,0,1,8.458-4.711C1160.494,504.44,1161.376,504.3,1161.74,503.642Z" transform="translate(-1091.028 -483.101)" opacity="0.75" fill="url(#linear-gradient-2)"/>
        </g>
      </g>
    </g>
    <g id="Grupo_58877" data-name="Grupo 58877" transform="translate(1032.678 377.87)">
      <g id="Grupo_58867" data-name="Grupo 58867" transform="translate(28.732)">
        <rect id="Rectngulo_6365" data-name="Rectngulo 6365" width="6.425" height="84.485" transform="translate(24.839 40.753)" fill="url(#linear-gradient-9)"/>
        <rect id="Rectngulo_6366" data-name="Rectngulo 6366" width="6.425" height="13.103" transform="translate(24.839 40.753)" fill="#a39d99" style="mix-blend-mode: multiply;isolation: isolate"/>
        <path id="Trazado_108194" data-name="Trazado 108194" d="M1016.8,422.053l24.48-42.4a3.566,3.566,0,0,1,6.177,0l24.48,42.4a3.568,3.568,0,0,1-3.089,5.351h-48.959A3.568,3.568,0,0,1,1016.8,422.053Z" transform="translate(-1016.313 -377.87)" fill="#1d1e20"/>
        <path id="Trazado_108195" data-name="Trazado 108195" d="M1018.544,420.07l22.527-39.021a2.136,2.136,0,0,1,3.7,0L1067.3,420.07a2.134,2.134,0,0,1-1.848,3.2h-45.057A2.134,2.134,0,0,1,1018.544,420.07Z" transform="translate(-1014.869 -376.3)" fill="#f3a92c"/>
        <path id="Trazado_108196" data-name="Trazado 108196" d="M1059.454,401.932c-6.67.945-13.54.5-18.753-3.393a45.554,45.554,0,0,1-8.873-8.234l-12.382,21.141a1.967,1.967,0,0,0,1.728,2.95H1063.3a1.967,1.967,0,0,0,1.728-2.95Z" transform="translate(-1014.184 -368.625)" fill="#c47e2c" opacity="0.55" style="mix-blend-mode: multiply;isolation: isolate"/>
        <g id="Grupo_58866" data-name="Grupo 58866" transform="translate(17.039 20.024)">
          <path id="Trazado_108197" data-name="Trazado 108197" d="M1033.249,397.49a1.987,1.987,0,1,0-1.986-1.986A1.986,1.986,0,0,0,1033.249,397.49Z" transform="translate(-1022.237 -386.261)" fill="#1d1e20"/>
          <path id="Trazado_108198" data-name="Trazado 108198" d="M1034.689,396.455a3.1,3.1,0,0,1-1.421-.267l-4.055,6.414s1.675,1.714,5.476,1.714,5.476-1.714,5.476-1.714l-4.055-6.414A3.1,3.1,0,0,1,1034.689,396.455Z" transform="translate(-1023.761 -384.275)" fill="#1d1e20"/>
          <path id="Trazado_108199" data-name="Trazado 108199" d="M1041.244,393.241c-1.9-3.292-4.223-3.886-4.223-3.886l-3.527,6.719a3.912,3.912,0,0,1,1.421,2.462l7.582.305S1043.144,396.531,1041.244,393.241Z" transform="translate(-1020.578 -389.355)" fill="#1d1e20"/>
          <path id="Trazado_108200" data-name="Trazado 108200" d="M1034.254,397.171a3.1,3.1,0,0,1,.942-1.1l-3.527-6.719s-2.322.595-4.223,3.886-1.254,5.6-1.254,5.6l7.582-.305A3.1,3.1,0,0,1,1034.254,397.171Z" transform="translate(-1026.086 -389.355)" fill="#1d1e20"/>
        </g>
      </g>
      <g id="Grupo_58876" data-name="Grupo 58876" transform="translate(0 65.092)">
        <path id="Trazado_108201" data-name="Trazado 108201" d="M1176.557,500.6c.068-.058.139-.112.212-.162a5.171,5.171,0,0,1,2.95-.6c11.2-.026,22.942,1.123,34.024-.343,1.576-.209,3.145-.472,4.7-.807,3.667-.788,7.692-2.352,9.071-5.851,1.158-2.938-.043-6.414-2.242-8.674s-5.222-3.51-8.231-4.435c-14.724-4.523-30.521-2.544-45.875-1.36-47.815,3.686-95.97-.783-143.8,2.767-8.963.664-18.014.94-26.2,5.166a2.374,2.374,0,0,0-1.269,1.142c-.366,1.025.718,1.977,1.726,2.385,2.8,1.13,6.182.941,8.5,2.875a2.086,2.086,0,0,1,.778,1.1c.35,1.609-2.153,2.216-2.964,3.649a2.774,2.774,0,0,0,1.2,3.492,7.157,7.157,0,0,0,3.947.772c10.042-.145,20.137-3.909,29.937-1.712a5.5,5.5,0,0,0-1.5,3.621c2.765,1.9,6.353,2.021,9.706,1.893,5.738-.22,11.455-.969,17.194-.91a39.61,39.61,0,0,1,11.856,1.451c2.472.805,7.633,3.721,3.2,6.339-1.569.926-3.511.86-5.269,1.341s-3.567,2.038-3.129,3.806c.363,1.464,2.029,2.151,3.508,2.453,2.718.555,5.551.157,8.285.76,5.352,1.184,0,2.45.619,5.382a2.356,2.356,0,0,0,1.118,1.33c4.181,2.833,9.564,3.023,14.615,2.929,6.3-.117,13.148-1.613,19.386-.868,4.645.553,10.365,2.211,14.626-.847a2.975,2.975,0,0,0,1.3-3.1c-.623-2.066-3.661-3.107-3.407-5.614.2-1.918,2.675-3.485,4.265-4.169,3.083-1.325,10.8.279,12.794-2.912,1.022-1.637-2.683-2.966-2.323-4.861a2.441,2.441,0,0,1,1.456-1.5,18.616,18.616,0,0,1,10.729-1.825c2.221.267,4.4.9,6.637.945s4.652-.609,6-2.4A14.563,14.563,0,0,1,1176.557,500.6Z" transform="translate(-999.833 -369.335)" fill="#1d1e20"/>
        <path id="Trazado_108202" data-name="Trazado 108202" d="M1068.185,502.7a24.557,24.557,0,0,1-7.642.638c-2.413-.054-4.969-.124-7.178-1.526-2.348-1.491.363-2.75,1.607-3.049a23.235,23.235,0,0,1,8.271-.464c.924.113,8.175.846,6.4,3.558a1.983,1.983,0,0,1-1.128.739Z" transform="translate(-960.721 -353.554)" fill="#52534f"/>
        <path id="Trazado_108203" data-name="Trazado 108203" d="M1080.021,498.452a21.562,21.562,0,0,1-6.711.56c-2.12-.047-4.364-.108-6.3-1.339-2.061-1.309.319-2.415,1.412-2.678a20.393,20.393,0,0,1,7.263-.408c.812.1,7.181.745,5.618,3.126a1.751,1.751,0,0,1-.992.649C1080.212,498.393,1080.116,498.423,1080.021,498.452Z" transform="translate(-950.496 -356.3)" fill="#52534f"/>
        <path id="Trazado_108204" data-name="Trazado 108204" d="M1077.62,501a10.831,10.831,0,0,1-3.4.284,5.967,5.967,0,0,1-3.194-.678c-1.044-.664.162-1.224.717-1.357a10.338,10.338,0,0,1,3.679-.207c.411.052,3.639.377,2.847,1.585a.891.891,0,0,1-.5.328C1077.718,500.967,1077.669,500.983,1077.62,501Z" transform="translate(-947.209 -352.933)" fill="#52534f"/>
        <path id="Trazado_108205" data-name="Trazado 108205" d="M1100.651,489.894a9.06,9.06,0,0,1-3.4.342,5.122,5.122,0,0,1-3.194-.819c-1.044-.8.16-1.477.715-1.637a8.6,8.6,0,0,1,3.68-.249c.412.061,3.639.455,2.845,1.913a.888.888,0,0,1-.5.4C1100.748,489.857,1100.7,489.876,1100.651,489.894Z" transform="translate(-930.086 -361.503)" fill="#52534f"/>
        <g id="Grupo_58872" data-name="Grupo 58872" transform="translate(25.102 17.913)">
          <g id="Grupo_58869" data-name="Grupo 58869">
            <path id="Trazado_108206" data-name="Trazado 108206" d="M1051.362,430.4h-34.8v88.379s3.389,5.407,34.8,5.407,34.8-5.407,34.8-5.407V430.4Z" transform="translate(-1012.499 -421.817)" fill="#5a676d"/>
            <path id="Trazado_108207" data-name="Trazado 108207" d="M1042.268,430.4v93.567a109,109,0,0,0,15.367-1.6V430.4Z" transform="translate(-993.386 -421.817)" fill="#9fafbb"/>
            <path id="Trazado_108208" data-name="Trazado 108208" d="M1048.972,430.4h-6.7v93.567c2.467-.112,4.692-.263,6.7-.443Z" transform="translate(-993.386 -421.817)" fill="#7e9193"/>
            <path id="Trazado_108209" data-name="Trazado 108209" d="M1018.764,430.4v90.513c3.388,1.2,9.647,2.563,21.091,3.067V430.4Z" transform="translate(-1010.861 -421.817)" fill="#0d1c21"/>
            <path id="Trazado_108210" data-name="Trazado 108210" d="M1036.482,430.4h-10.546v92.959c2.96.31,6.447.556,10.546.7Z" transform="translate(-1005.529 -421.817)" fill="#323f43"/>
            <path id="Trazado_108211" data-name="Trazado 108211" d="M1052.261,446.8s-25.708-.492-34.737-2.887a1.77,1.77,0,0,0-2.174,1.784v.038a1.813,1.813,0,0,0,1.287,1.77c3.424.966,14.014,3.327,35.624,3.327s32.2-2.361,35.626-3.327a1.813,1.813,0,0,0,1.287-1.77V445.7a1.769,1.769,0,0,0-2.174-1.784C1077.97,446.312,1052.261,446.8,1052.261,446.8Z" transform="translate(-1013.399 -411.814)" fill="#2c4251"/>
            <path id="Trazado_108212" data-name="Trazado 108212" d="M1052.261,471.664s-25.708-.492-34.737-2.887a1.769,1.769,0,0,0-2.174,1.782v.04a1.813,1.813,0,0,0,1.287,1.77c3.424.964,14.014,3.327,35.624,3.327s32.2-2.362,35.626-3.327a1.813,1.813,0,0,0,1.287-1.77v-.04a1.769,1.769,0,0,0-2.174-1.782C1077.97,471.173,1052.261,471.664,1052.261,471.664Z" transform="translate(-1013.399 -393.33)" fill="#2c4251"/>
            <g id="Grupo_58868" data-name="Grupo 58868" transform="translate(23.183 43.371)">
              <path id="Trazado_108213" data-name="Trazado 108213" d="M1058.817,466a15.644,15.644,0,1,1-15.644-15.646A15.645,15.645,0,0,1,1058.817,466Z" transform="translate(-1027.528 -450.355)" fill="#f3a92c"/>
              <path id="Trazado_108214" data-name="Trazado 108214" d="M1037.505,462.506a2.227,2.227,0,1,0-2.228-2.226A2.227,2.227,0,0,0,1037.505,462.506Z" transform="translate(-1021.767 -444.633)" fill="#1d1e20"/>
              <path id="Trazado_108215" data-name="Trazado 108215" d="M1039.12,461.345a3.461,3.461,0,0,1-1.594-.3l-4.547,7.192s1.88,1.921,6.141,1.921,6.141-1.921,6.141-1.921l-4.547-7.192A3.461,3.461,0,0,1,1039.12,461.345Z" transform="translate(-1023.475 -442.407)" fill="#1d1e20"/>
              <path id="Trazado_108216" data-name="Trazado 108216" d="M1046.469,457.741c-2.13-3.689-4.735-4.357-4.735-4.357l-3.954,7.535a4.369,4.369,0,0,1,1.592,2.758l8.5.342S1048.6,461.432,1046.469,457.741Z" transform="translate(-1019.906 -448.103)" fill="#1d1e20"/>
              <path id="Trazado_108217" data-name="Trazado 108217" d="M1038.631,462.148a3.451,3.451,0,0,1,1.057-1.229l-3.956-7.535s-2.6.668-4.734,4.357-1.407,6.278-1.407,6.278l8.5-.342A3.472,3.472,0,0,1,1038.631,462.148Z" transform="translate(-1026.082 -448.103)" fill="#1d1e20"/>
            </g>
            <path id="Trazado_108218" data-name="Trazado 108218" d="M1092.044,431.466c0,3.309-17.419,5.989-38.908,5.989s-38.906-2.68-38.906-5.989,17.419-5.987,38.906-5.987S1092.044,428.159,1092.044,431.466Z" transform="translate(-1014.231 -425.479)" fill="#94a2a9"/>
            <ellipse id="Elipse_4820" data-name="Elipse 4820" cx="31.104" cy="4.237" rx="31.104" ry="4.237" transform="translate(7.802 1.468)" fill="#5a676d"/>
            <ellipse id="Elipse_4821" data-name="Elipse 4821" cx="31.104" cy="4.237" rx="31.104" ry="4.237" transform="translate(7.802 1.468)" fill="#5a676d"/>
            <path id="Trazado_108219" data-name="Trazado 108219" d="M1019.787,430.771c4.333,1.63,15.761,2.8,29.219,2.8s24.888-1.166,29.221-2.8c-4.333-1.63-15.761-2.8-29.221-2.8S1024.12,429.14,1019.787,430.771Z" transform="translate(-1010.1 -423.624)" fill="#31444b"/>
            <path id="Trazado_108220" data-name="Trazado 108220" d="M1053.137,434.395s-27.111.207-38.906-5.482V434.9s8.911,4.972,38.906,4.972,38.908-4.972,38.908-4.972v-5.989C1080.25,434.6,1053.137,434.395,1053.137,434.395Z" transform="translate(-1014.231 -422.926)" fill="#2c4251"/>
          </g>
          <g id="Grupo_58871" data-name="Grupo 58871" transform="translate(100.241)">
            <path id="Trazado_108221" data-name="Trazado 108221" d="M1108.858,430.4h-34.8v88.379s3.391,5.407,34.8,5.407,34.8-5.407,34.8-5.407V430.4Z" transform="translate(-1069.994 -421.817)" fill="#5a676d"/>
            <path id="Trazado_108222" data-name="Trazado 108222" d="M1099.763,430.4v93.567a109,109,0,0,0,15.367-1.6V430.4Z" transform="translate(-1050.881 -421.817)" fill="#9fafbb"/>
            <path id="Trazado_108223" data-name="Trazado 108223" d="M1106.469,430.4h-6.706v93.567c2.469-.112,4.692-.263,6.706-.443Z" transform="translate(-1050.881 -421.817)" fill="#7e9193"/>
            <path id="Trazado_108224" data-name="Trazado 108224" d="M1076.259,430.4v90.513c3.388,1.2,9.647,2.563,21.093,3.067V430.4Z" transform="translate(-1068.356 -421.817)" fill="#0d1c21"/>
            <path id="Trazado_108225" data-name="Trazado 108225" d="M1093.977,430.4h-10.546v92.959c2.96.31,6.447.556,10.546.7Z" transform="translate(-1063.023 -421.817)" fill="#323f43"/>
            <path id="Trazado_108226" data-name="Trazado 108226" d="M1109.758,446.8s-25.709-.492-34.739-2.887a1.77,1.77,0,0,0-2.174,1.784v.038a1.815,1.815,0,0,0,1.287,1.77c3.424.966,14.014,3.327,35.626,3.327s32.2-2.361,35.624-3.327a1.813,1.813,0,0,0,1.287-1.77V445.7a1.769,1.769,0,0,0-2.172-1.784C1135.467,446.312,1109.758,446.8,1109.758,446.8Z" transform="translate(-1070.894 -411.814)" fill="#2c4251"/>
            <path id="Trazado_108227" data-name="Trazado 108227" d="M1109.758,471.664s-25.709-.492-34.739-2.887a1.769,1.769,0,0,0-2.174,1.782v.04a1.815,1.815,0,0,0,1.287,1.77c3.424.964,14.014,3.327,35.626,3.327s32.2-2.362,35.624-3.327a1.813,1.813,0,0,0,1.287-1.77v-.04a1.768,1.768,0,0,0-2.172-1.782C1135.467,471.173,1109.758,471.664,1109.758,471.664Z" transform="translate(-1070.894 -393.33)" fill="#2c4251"/>
            <g id="Grupo_58870" data-name="Grupo 58870" transform="translate(23.183 43.371)">
              <path id="Trazado_108228" data-name="Trazado 108228" d="M1116.312,466a15.644,15.644,0,1,1-15.644-15.646A15.645,15.645,0,0,1,1116.312,466Z" transform="translate(-1085.023 -450.355)" fill="#f3a92c"/>
              <path id="Trazado_108229" data-name="Trazado 108229" d="M1095,462.506a2.227,2.227,0,1,0-2.227-2.226A2.227,2.227,0,0,0,1095,462.506Z" transform="translate(-1079.261 -444.633)" fill="#1d1e20"/>
              <path id="Trazado_108230" data-name="Trazado 108230" d="M1096.614,461.345a3.455,3.455,0,0,1-1.592-.3l-4.549,7.192s1.881,1.921,6.14,1.921,6.141-1.921,6.141-1.921l-4.547-7.192A3.462,3.462,0,0,1,1096.614,461.345Z" transform="translate(-1080.97 -442.407)" fill="#1d1e20"/>
              <path id="Trazado_108231" data-name="Trazado 108231" d="M1103.964,457.741c-2.131-3.689-4.734-4.357-4.734-4.357l-3.956,7.535a4.38,4.38,0,0,1,1.594,2.758l8.5.342S1106.094,461.432,1103.964,457.741Z" transform="translate(-1077.401 -448.103)" fill="#1d1e20"/>
              <path id="Trazado_108232" data-name="Trazado 108232" d="M1096.126,462.148a3.472,3.472,0,0,1,1.057-1.229l-3.956-7.535s-2.6.668-4.734,4.357-1.405,6.278-1.405,6.278l8.5-.342A3.471,3.471,0,0,1,1096.126,462.148Z" transform="translate(-1083.576 -448.103)" fill="#1d1e20"/>
            </g>
            <path id="Trazado_108233" data-name="Trazado 108233" d="M1149.539,431.466c0,3.309-17.419,5.989-38.906,5.989s-38.908-2.68-38.908-5.989,17.419-5.987,38.908-5.987S1149.539,428.159,1149.539,431.466Z" transform="translate(-1071.726 -425.479)" fill="#94a2a9"/>
            <ellipse id="Elipse_4822" data-name="Elipse 4822" cx="31.104" cy="4.237" rx="31.104" ry="4.237" transform="translate(7.803 1.468)" fill="#5a676d"/>
            <ellipse id="Elipse_4823" data-name="Elipse 4823" cx="31.104" cy="4.237" rx="31.104" ry="4.237" transform="translate(7.803 1.468)" fill="#5a676d"/>
            <path id="Trazado_108234" data-name="Trazado 108234" d="M1077.282,430.771c4.333,1.63,15.761,2.8,29.221,2.8s24.886-1.166,29.219-2.8c-4.333-1.63-15.761-2.8-29.219-2.8S1081.615,429.14,1077.282,430.771Z" transform="translate(-1067.595 -423.624)" fill="#31444b"/>
            <path id="Trazado_108235" data-name="Trazado 108235" d="M1110.634,434.395s-27.113.207-38.908-5.482V434.9s8.911,4.972,38.908,4.972,38.906-4.972,38.906-4.972v-5.989C1137.745,434.6,1110.634,434.395,1110.634,434.395Z" transform="translate(-1071.726 -422.926)" fill="#2c4251"/>
          </g>
        </g>
        <g id="Grupo_58873" data-name="Grupo 58873" transform="translate(25.102 17.913)" opacity="0.35" style="mix-blend-mode: multiply;isolation: isolate">
          <path id="Trazado_108236" data-name="Trazado 108236" d="M1053.137,425.479c-21.487,0-38.906,2.68-38.906,5.987v5.989a21.692,21.692,0,0,0,4.061,1.477v18.641a1.768,1.768,0,0,0-2.11,1.792v.038a1.813,1.813,0,0,0,1.287,1.77c.237.066.516.141.823.221v39.523a1.768,1.768,0,0,0-2.11,1.791v.04a1.813,1.813,0,0,0,1.287,1.77c.237.066.516.141.823.221v17.705s2.174,3.44,19,4.831l.045,0q.868.073,1.789.136l.1.007c.612.042,1.24.082,1.886.119l.08,0c3.44.192,7.372.307,11.9.307,31.414,0,34.8-5.406,34.8-5.406V504.739c.307-.08.586-.155.823-.221a1.813,1.813,0,0,0,1.287-1.77v-.04a1.768,1.768,0,0,0-2.11-1.791V461.395c.307-.08.586-.155.823-.221a1.813,1.813,0,0,0,1.287-1.77v-.038a1.768,1.768,0,0,0-2.11-1.792V438.956a21.841,21.841,0,0,0,4.148-1.5v-5.989C1092.044,428.159,1074.625,425.479,1053.137,425.479Z" transform="translate(-1014.231 -425.479)" fill="#2c4251"/>
          <path id="Trazado_108237" data-name="Trazado 108237" d="M1149.539,437.455v-5.989c0-3.307-17.419-5.987-38.906-5.987s-38.908,2.68-38.908,5.987v5.989a21.7,21.7,0,0,0,4.061,1.477v18.641a1.769,1.769,0,0,0-2.11,1.792v.038a1.815,1.815,0,0,0,1.287,1.77c.237.066.516.141.823.221v39.523a1.768,1.768,0,0,0-2.11,1.791v.04a1.815,1.815,0,0,0,1.287,1.77c.237.066.516.141.823.221v17.705s2.176,3.44,19,4.831l.045,0q.868.073,1.789.136l.1.007c.612.042,1.24.082,1.888.119l.08,0c3.438.192,7.37.307,11.9.307,31.412,0,34.8-5.406,34.8-5.406V504.739c.307-.08.587-.155.823-.221a1.813,1.813,0,0,0,1.287-1.77v-.04a1.768,1.768,0,0,0-2.109-1.791V461.395c.307-.08.587-.155.823-.221a1.813,1.813,0,0,0,1.287-1.77v-.038a1.768,1.768,0,0,0-2.109-1.792V438.956A21.847,21.847,0,0,0,1149.539,437.455Z" transform="translate(-971.485 -425.479)" fill="#2c4251" opacity="0.32"/>
        </g>
        <g id="Grupo_58875" data-name="Grupo 58875" transform="translate(64.741)">
          <path id="Trazado_108238" data-name="Trazado 108238" d="M1084.1,421.457h-44.178V533.646s4.3,6.864,44.178,6.864,44.18-6.864,44.18-6.864V421.457Z" transform="translate(-1034.769 -410.556)" fill="#5a676d"/>
          <path id="Trazado_108239" data-name="Trazado 108239" d="M1072.557,421.457V540.233a137.993,137.993,0,0,0,19.508-2.035V421.457Z" transform="translate(-1010.506 -410.556)" fill="#9fafbb"/>
          <path id="Trazado_108240" data-name="Trazado 108240" d="M1081.068,421.457h-8.511V540.233c3.133-.141,5.956-.335,8.511-.563Z" transform="translate(-1010.506 -410.556)" fill="#7e9193"/>
          <path id="Trazado_108241" data-name="Trazado 108241" d="M1042.72,421.457v114.9c4.3,1.527,12.246,3.252,26.775,3.893V421.457Z" transform="translate(-1032.689 -410.556)" fill="#0d1c21"/>
          <path id="Trazado_108242" data-name="Trazado 108242" d="M1065.212,421.457h-13.387v118c3.757.394,8.184.7,13.387.882Z" transform="translate(-1025.92 -410.556)" fill="#323f43"/>
          <path id="Trazado_108243" data-name="Trazado 108243" d="M1085.243,442.275s-32.635-.624-44.1-3.665a2.246,2.246,0,0,0-2.758,2.263v.051a2.3,2.3,0,0,0,1.634,2.246c4.347,1.226,17.789,4.223,45.222,4.223s40.878-3,45.224-4.223a2.3,2.3,0,0,0,1.633-2.246v-.051a2.246,2.246,0,0,0-2.76-2.263C1117.879,441.65,1085.243,442.275,1085.243,442.275Z" transform="translate(-1035.911 -397.857)" fill="#2c4251"/>
          <path id="Trazado_108244" data-name="Trazado 108244" d="M1085.243,473.834s-32.635-.624-44.1-3.665a2.246,2.246,0,0,0-2.758,2.263v.051a2.3,2.3,0,0,0,1.634,2.246c4.347,1.226,17.789,4.223,45.222,4.223s40.878-3,45.224-4.223a2.3,2.3,0,0,0,1.633-2.246v-.051a2.246,2.246,0,0,0-2.76-2.263C1117.879,473.209,1085.243,473.834,1085.243,473.834Z" transform="translate(-1035.911 -374.394)" fill="#2c4251"/>
          <g id="Grupo_58874" data-name="Grupo 58874" transform="translate(26.492 52.122)">
            <circle id="Elipse_4824" data-name="Elipse 4824" cx="19.86" cy="19.86" r="19.86" transform="translate(0 39.202) rotate(-80.745)" fill="#f3a92c"/>
            <path id="Trazado_108245" data-name="Trazado 108245" d="M1066.511,462.208a2.828,2.828,0,1,0-2.828-2.828A2.827,2.827,0,0,0,1066.511,462.208Z" transform="translate(-1043.596 -436.586)" fill="#1d1e20"/>
            <path id="Trazado_108246" data-name="Trazado 108246" d="M1068.559,460.735a4.408,4.408,0,0,1-2.022-.382l-5.771,9.131s2.385,2.439,7.793,2.439,7.8-2.439,7.8-2.439l-5.773-9.131A4.407,4.407,0,0,1,1068.559,460.735Z" transform="translate(-1045.765 -433.76)" fill="#1d1e20"/>
            <path id="Trazado_108247" data-name="Trazado 108247" d="M1077.889,456.159c-2.7-4.683-6.01-5.53-6.01-5.53l-5.021,9.563a5.538,5.538,0,0,1,2.022,3.5l10.794.434S1080.593,460.842,1077.889,456.159Z" transform="translate(-1041.235 -440.989)" fill="#1d1e20"/>
            <path id="Trazado_108248" data-name="Trazado 108248" d="M1067.94,461.752a4.4,4.4,0,0,1,1.341-1.56l-5.021-9.563s-3.3.847-6.009,5.53-1.784,7.969-1.784,7.969l10.792-.434A4.422,4.422,0,0,1,1067.94,461.752Z" transform="translate(-1049.074 -440.989)" fill="#1d1e20"/>
          </g>
          <ellipse id="Elipse_4825" data-name="Elipse 4825" cx="49.388" cy="7.602" rx="49.388" ry="7.602" fill="#94a2a9"/>
          <path id="Trazado_108249" data-name="Trazado 108249" d="M1121.614,421.653c0,2.971-17.677,5.38-39.483,5.38s-39.484-2.409-39.484-5.38,17.679-5.379,39.484-5.379S1121.614,418.682,1121.614,421.653Z" transform="translate(-1032.743 -414.41)" fill="#5a676d"/>
          <path id="Trazado_108250" data-name="Trazado 108250" d="M1121.614,421.653c0,2.971-17.677,5.38-39.483,5.38s-39.484-2.409-39.484-5.38,17.679-5.379,39.484-5.379S1121.614,418.682,1121.614,421.653Z" transform="translate(-1032.743 -414.41)" fill="#5a676d"/>
          <path id="Trazado_108251" data-name="Trazado 108251" d="M1044.019,421.922c5.5,2.07,20.008,3.551,37.092,3.551s31.594-1.482,37.093-3.551c-5.5-2.068-20.008-3.55-37.093-3.55S1049.518,419.854,1044.019,421.922Z" transform="translate(-1031.723 -412.85)" fill="#31444b"/>
          <path id="Trazado_108252" data-name="Trazado 108252" d="M1086.354,426.521s-34.416.263-49.387-6.956v7.6s11.312,6.311,49.387,6.311,49.388-6.311,49.388-6.311v-7.6C1120.771,426.785,1086.354,426.521,1086.354,426.521Z" transform="translate(-1036.966 -411.963)" fill="#2c4251"/>
        </g>
        <path id="Trazado_108253" data-name="Trazado 108253" d="M1118.215,492.319a8.524,8.524,0,0,0-2.209.282c-1.292.347-2.716,1.156-2.554,2.7s2.476,2.326,3.773,2.507a10.6,10.6,0,0,0,3.926-.3,5.087,5.087,0,0,0,2.19-.966,2.09,2.09,0,0,0,.725-2.157c-.323-.948-1.417-1.355-2.391-1.594A14.39,14.39,0,0,0,1118.215,492.319Z" transform="translate(-915.369 -357.872)" fill="#1d1e20"/>
        <path id="Trazado_108254" data-name="Trazado 108254" d="M1037.532,499.036a7.288,7.288,0,0,0,4.909.635,2.673,2.673,0,0,0,1.341-.638,2.2,2.2,0,0,0-.577-3.177,4.938,4.938,0,0,0-3.56-.5,5.4,5.4,0,0,0-2.814,1.126,1.568,1.568,0,0,0-.527.795C1036.14,498.029,1036.846,498.682,1037.532,499.036Z" transform="translate(-972.736 -355.696)" fill="#1d1e20"/>
        <path id="Trazado_108255" data-name="Trazado 108255" d="M1086.195,511.605a8.868,8.868,0,0,0,5.694.469,2.241,2.241,0,0,0,1.26-.715c.638-.872-.216-2.308-1.346-2.887a7.6,7.6,0,0,0-6.5.6,1.5,1.5,0,0,0-.588.762C1084.517,510.591,1085.365,511.251,1086.195,511.605Z" transform="translate(-936.749 -346.231)" fill="#1d1e20"/>
        <path id="Trazado_108256" data-name="Trazado 108256" d="M1035.461,500.643a3.63,3.63,0,0,0,1.75-.349,1.468,1.468,0,0,0,.8-1.484c-.176-.856-1.231-1.172-2.1-1.217a10.893,10.893,0,0,0-3.414.371,1.347,1.347,0,0,0-.9.558c-.282.535.2,1.163.725,1.47A6.061,6.061,0,0,0,1035.461,500.643Z" transform="translate(-976.278 -353.96)" fill="#1d1e20"/>
        <path id="Trazado_108257" data-name="Trazado 108257" d="M1033.473,495.948c-3.07-1.756-9.486-.9-10.422-.73a12.753,12.753,0,0,0-4.681,1.628,2.725,2.725,0,0,0-1.442,2.021c-.036,1.21,1.208,2.026,2.336,2.465a22.483,22.483,0,0,0,12.6.663c1.407-.289,3-.849,3.466-2.207C1035.827,498.342,1034.8,496.707,1033.473,495.948Z" transform="translate(-987.125 -355.983)" fill="#1d1e20"/>
        <path id="Trazado_108258" data-name="Trazado 108258" d="M1086.32,510.4c-2.427-1.388-7.5-.713-8.24-.577a10.061,10.061,0,0,0-3.7,1.288,2.158,2.158,0,0,0-1.14,1.6c-.028.957.955,1.6,1.848,1.949a17.776,17.776,0,0,0,9.962.525c1.112-.23,2.369-.671,2.739-1.745A2.754,2.754,0,0,0,1086.32,510.4Z" transform="translate(-945.259 -345.069)" fill="#1d1e20"/>
        <path id="Trazado_108259" data-name="Trazado 108259" d="M1128.143,487.784a8.979,8.979,0,0,0,4.034-.624,3.081,3.081,0,0,0,1.817-3.337,3.005,3.005,0,0,0-2.188-1.937,8.1,8.1,0,0,0-3.041-.051,60.847,60.847,0,0,0-7.227,1.311,7.323,7.323,0,0,0-3.555,1.644,1.448,1.448,0,0,0-.518,1.259,1.5,1.5,0,0,0,.812.894,9.883,9.883,0,0,0,4.906.842Q1125.664,487.785,1128.143,487.784Z" transform="translate(-912.391 -365.755)" fill="#52534f"/>
        <path id="Trazado_108260" data-name="Trazado 108260" d="M1011.99,489.7a14.829,14.829,0,0,0,10.489.174,3.545,3.545,0,0,0-1.438-4.156,7.336,7.336,0,0,0-4.582-1,16.452,16.452,0,0,0-4.176.774c-1.078.347-2.3,1.076-2.253,2.207C1010.074,488.686,1011.075,489.326,1011.99,489.7Z" transform="translate(-992.253 -363.537)" fill="#52534f"/>
        <path id="Trazado_108261" data-name="Trazado 108261" d="M1021.638,487.292c.094.858,1.1,1.25,1.951,1.409a21.62,21.62,0,0,0,2.781.337c1,.056,2.241-.1,2.619-1.034a1.659,1.659,0,0,0-.451-1.74,3.377,3.377,0,0,0-1.7-.811,7.251,7.251,0,0,0-3.547.126C1022.461,485.82,1021.542,486.432,1021.638,487.292Z" transform="translate(-983.627 -363.098)" fill="#52534f"/>
      </g>
    </g>
    <path id="Trazado_108262" data-name="Trazado 108262" d="M1115.242,534.971a115.513,115.513,0,0,0-19.105,3.787c.357-.785,3.881-1.519,1.074-2.352a39.329,39.329,0,0,0-28.64-1.97,9.961,9.961,0,0,1-4.671.8c-1.571-.279-3.028-1.853-2.49-3.327.648-1.775,3.714-2.723,2.983-4.467a2.463,2.463,0,0,0-1.48-1.154c-6.535-2.57-14.814.119-20.453-4.015a2.539,2.539,0,0,1-1.058-1.3c-.406-1.581,1.8-2.462,3.461-2.589,3.591-.275,7.2-.33,10.783-.732,7.786-.877,15.541-3.4,23.3-2.3a5.138,5.138,0,0,0,.943-3.2c-.256-1.585-1.979-2.593-3.613-2.708a16.814,16.814,0,0,0-4.824.785c-8.332,1.886-17.37-1.029-25.479,1.635-1.855.61-3.616,1.5-5.52,1.94-2.812.647-5.78.274-8.611.833-3.45.682-7.061,3.531-5.347,7.375a6.913,6.913,0,0,0,3.8,3.374,32.613,32.613,0,0,0,9.439,2.322,22.468,22.468,0,0,1,6.142.945c1.149.446,4.726,1.2,6.025,2.062.879.581-.989,1.808-1.973,2.193-2.087.816-4.282,3.342-3.539,4.962.961,2.09,3.377,3.112,5.644,3.682a22.474,22.474,0,0,0,8.226.647,52.034,52.034,0,0,0,7.509-1.9,54.651,54.651,0,0,1,15.7-2.014,5.094,5.094,0,0,1,2.793.617,1.786,1.786,0,0,1,.609,2.467c-.272-.005-3.641,1.43-3.9,1.478-2.486.476.741,2.589,3.225,3.072a17.4,17.4,0,0,0,6.076-.131c12.061-1.845,24.433-5.741,36.193-2.53,3.037.83,5.952,2.123,9.064,2.617s6.617.037,8.826-2.169l-2.254-3.044c5.771-3.846,13.995-1.065,20.294-4.008,1.852-.865,3.641-2.926,2.673-4.7-1.022-1.874-4.357-1.818-4.939-3.863-.368-1.294.715-2.579,1.923-3.212a34.217,34.217,0,0,0,3.728-1.677,4.856,4.856,0,0,0-.059-7.692,9,9,0,0,0-3.515-1.172,61.436,61.436,0,0,0-22.965.35c-.158.88,1.076,1.273,1.984,1.332a42.861,42.861,0,0,1,11.8,2.462c1.079.391,2.369,1.4,1.789,2.369l-10.6,2.253c.1,2.532,2.962,3.912,5.347,4.89s5.128,2.832,4.634,5.318l-8.589.148a5.891,5.891,0,0,0-2.8.516,13.668,13.668,0,0,0-2.059,1.9c-3.061,2.68-7.778.785-11.73-.305C1125.91,534.169,1120.5,534.383,1115.242,534.971Z" transform="translate(52.339 97.805)" opacity="0.75" fill="url(#linear-gradient-2)"/>
    <g id="Grupo_58879" data-name="Grupo 58879" transform="translate(1114.687 580.468)">
      <path id="Trazado_108263" data-name="Trazado 108263" d="M1105.741,541.34c.133.01.242.054.373.068,4.6-4.549,11.218-11.735,12.1-16.321l-18.917,2.148,15.285-26.933s-14.6-11.887-38.656-2.819c-18.429,6.946-26.353,27.169-29.055,36.257C1066.757,533.022,1085.954,539.75,1105.741,541.34Z" transform="translate(-1046.871 -494.073)" fill="#d2cbb1"/>
      <path id="Trazado_108264" data-name="Trazado 108264" d="M1072.275,523.743c8.818.1,17.449-4.3,19.515-3.9l7.973-14.049c-11.7-7.256-25.7-5.886-30.315-4.324-7.3,2.474-13.416,7.478-8.618,15.494C1063.871,522.048,1066.057,523.671,1072.275,523.743Z" transform="translate(-1037.761 -489.5)" fill="#c5bc9b"/>
      <path id="Trazado_108265" data-name="Trazado 108265" d="M1104.1,528.535c-6.177-1.184-10.641-1.111-16.588.826-2.819.917-5.93,2.045-8.954,2.023-5.387-.042-10.323-1.761-13.583-6.2-6.271-8.54-7.312-17.442-2.394-24.177-9.164,8.954-13.777,21.089-15.705,27.575,19.886-.718,39.084,6.01,58.87,7.6.133.01.242.054.373.068a97.339,97.339,0,0,0,7.349-8.027A20.1,20.1,0,0,1,1104.1,528.535Z" transform="translate(-1046.871 -488.917)" fill="#bdc5b8" opacity="0.55" style="mix-blend-mode: multiply;isolation: isolate"/>
      <path id="Trazado_108266" data-name="Trazado 108266" d="M1073.724,523.723c4,.645,8.013,1.189,12.052,1.513.133.01.242.054.373.068a88.337,88.337,0,0,0,8.536-9.572C1088.175,519.614,1080.874,522.815,1073.724,523.723Z" transform="translate(-1026.906 -477.97)" fill="#bdc5b8" opacity="0.55" style="mix-blend-mode: multiply;isolation: isolate"/>
      <g id="Grupo_58878" data-name="Grupo 58878">
        <path id="Trazado_108267" data-name="Trazado 108267" d="M1075.342,499.729c21.609-8.144,35.548.594,38.168,2.462l1.072-1.888s-14.6-11.887-38.656-2.819c-18.429,6.946-26.353,27.169-29.055,36.257.044,0,.086,0,.127,0C1050.252,523.912,1058.3,506.152,1075.342,499.729Z" transform="translate(-1046.871 -494.073)" fill="#f1efe7"/>
      </g>
      <ellipse id="Elipse_4826" data-name="Elipse 4826" cx="6.282" cy="6.156" rx="6.282" ry="6.156" transform="translate(28.805 17.068)" fill="#f3a92c"/>
      <path id="Trazado_108268" data-name="Trazado 108268" d="M1073.109,509.184a4.286,4.286,0,1,1-4.285-4.2A4.244,4.244,0,0,1,1073.109,509.184Z" transform="translate(-1033.736 -485.96)" fill="#1d1e20"/>
      <path id="Trazado_108269" data-name="Trazado 108269" d="M1069.5,507.395a1.756,1.756,0,1,1-1.756-1.721A1.739,1.739,0,0,1,1069.5,507.395Z" transform="translate(-1032.657 -485.448)" fill="#929083"/>
      <path id="Trazado_108270" data-name="Trazado 108270" d="M1075.369,518.587a38.4,38.4,0,0,1,7.6-5.117c6.355-3.342,15.426-6.519,18.167-2.776,4.524,6.179-14.579,6.055-17.135,6.918C1081.117,518.587,1075.369,518.587,1075.369,518.587Z" transform="translate(-1025.683 -482.972)" fill="url(#radial-gradient)"/>
      <path id="Trazado_108271" data-name="Trazado 108271" d="M1075.246,527.475s.57-10.853,12.246-25.052c11.1-13.5,14.438-1.41,11.15,4.634C1095.852,512.187,1074.461,531.605,1075.246,527.475Z" transform="translate(-1025.79 -492.432)" fill="url(#radial-gradient-2)"/>
    </g>
    <path id="Trazado_108272" data-name="Trazado 108272" d="M1132.317,520.61c1.59.539,8.7,3.8,2.356,4.777-3.309,1.238-4.979-.122-7.673.581a79.654,79.654,0,0,1-11.77,2.444,49.607,49.607,0,0,1-16.893-1.383,21.782,21.782,0,0,0-4.749-.86c-2.516-.044-4.911.919-7.387,1.339-6.9,1.17-13.894-1.913-20.891-1.438-3.206.218-7.324.783-8.82-1.866a7.332,7.332,0,0,0-1.109-2.049,3.887,3.887,0,0,0-1.827-.739l-13.878-2.994c-.6-1.1,1-2.075,2.277-2.42l4.587-1.243c2.15-.584,4.462-1.166,6.59-.518a23.86,23.86,0,0,1,3.571,1.8c2.295,1.142,4.941,2.1,7.521,1.785,4.153-.5,8.06.788,12.046.626,6.3-.256,12.809-3.041,18.636-.8a36.437,36.437,0,0,1,4.36,2.275,33.94,33.94,0,0,0,12.82,3.965,3.2,3.2,0,0,0,2.384-.234s1.482-1.6,2.163-2.361c1.719-1.909,5.251-2.619,7.928-2.509A27.9,27.9,0,0,1,1132.317,520.61Z" transform="translate(62.371 101.178)" opacity="0.75" fill="url(#linear-gradient-2)"/>
    <g id="Grupo_58882" data-name="Grupo 58882" transform="translate(1234.055 428.962)">
      <g id="Grupo_58881" data-name="Grupo 58881">
        <g id="Grupo_58880" data-name="Grupo 58880">
          <path id="Trazado_108273" data-name="Trazado 108273" d="M1176.375,460.291v40.341s7.45,5.689,7.642,6.4c.4,1.464-4.709-1.865-7.2-2.755s-15.55,7.464-12.8,3.51c1.606-2.3,7.818-4.376,7.818-4.376-.744-.193-10.987,2.847-14.126,2.2-4.089-.844,13.95-3.686,14.839-5.286s-4.444-40.029-4.444-40.029Z" transform="translate(-1084.275 -367.684)" fill="#1d1e20"/>
          <path id="Trazado_108274" data-name="Trazado 108274" d="M1181.573,460.75v40.339s7.45,5.691,7.641,6.4c.4,1.466-4.709-1.866-7.2-2.753s-15.55,7.462-12.8,3.51c1.606-2.307,7.82-4.376,7.82-4.376-.746-.2-10.989,2.847-14.128,2.2-4.087-.844,13.95-3.687,14.839-5.286s-4.442-40.029-4.442-40.029Z" transform="translate(-1080.41 -367.342)" fill="#1d1e20"/>
          <path id="Trazado_108275" data-name="Trazado 108275" d="M1138.1,421.681s9.063-15.993,26.656-14.394,17.365,24.145,21.1,27.876a48.284,48.284,0,0,0,3.583,3.26c7.511,5.508,28.748,18.174,33.606,21.464,5.51,3.733,27.012,14.572,32.165,16.171s67.173,19.014,71.793,21.326-.534,6.219-14.572,3.909-65.041-14.75-65.4-13.861-32.519,15.815-43.182,17.058-41.392-3.253-50.644-22.39c-7.82-16.173-4.089-26.3-5.154-32.343S1137.578,422.518,1138.1,421.681Z" transform="translate(-1098.425 -407.175)" fill="#e2e3e2"/>
          <path id="Trazado_108276" data-name="Trazado 108276" d="M1138.548,417.113c3.47,1.794,7.086,3.543,8.761,6.2,4.083,6.474,4.416,14.358,8.278,20.993,7.145,12.276,17.189,19.637,30.828,23.391,11.941,3.286,27.981,9.563,39.706,2.016a33.672,33.672,0,0,0,9.75-9.879c7.636,3.928,16.024,7.915,18.993,8.836,5.154,1.6,67.173,19.014,71.793,21.326s-.533,6.219-14.572,3.909-65.041-14.75-65.4-13.861-32.519,15.815-43.182,17.058-41.392-3.253-50.645-22.39c-7.82-16.173-4.089-26.3-5.154-32.343C1146.861,437.569,1140.762,423.236,1138.548,417.113Z" transform="translate(-1098.079 -399.786)" fill="#b8bab1" style="mix-blend-mode: multiply;isolation: isolate"/>
          <path id="Trazado_108277" data-name="Trazado 108277" d="M1170.433,428.755a69.129,69.129,0,0,1,7.923-1.5c9.1,6.44,25.045,14.617,29.009,17.3.7.472,1.658,1.062,2.805,1.729,1.7,1.219,3.1,2.2,3.987,2.8,4.826,3.269,21.919,11.99,29.552,15.179-7.631,4.3-15.181,11.059-24.022,10.559-14.073-.8-25.4-1.757-38.105-8.874-3.67-2.057-8.332-4.031-12.689-6.428a18.429,18.429,0,0,1-5.271-6.749C1159.142,442.265,1157.561,432.285,1170.433,428.755Z" transform="translate(-1081.856 -392.249)" fill="#848389"/>
          <path id="Trazado_108278" data-name="Trazado 108278" d="M1177.651,461.275c-.755-.377-1.534-.755-2.326-1.138-2.366-1.147-4.842-2.335-7.241-3.654h0a18.445,18.445,0,0,1-5.271-6.747c-2.586-6.065-3.5-12.666-1.356-17.85,6.2,9.362,18.014,15.433,29.381,18.444,11,2.912,23.155,6.512,34.594,7.115a33.4,33.4,0,0,0,8.257-.467c3.55,1.731,6.838,3.259,9.211,4.251-3.457,1.947-6.9,4.4-10.452,6.451-.077.044-.155.087-.232.132-.424.242-.847.476-1.273.7-.143.078-.288.152-.43.227q-.552.29-1.109.56-.266.128-.533.251c-.343.16-.689.312-1.036.459-.2.084-.4.166-.593.244-.333.131-.668.253-1,.371-.209.073-.42.148-.633.216-.33.106-.663.2-1,.288-.216.059-.432.12-.65.173-.34.08-.684.143-1.027.2-.214.038-.427.085-.642.115-.375.056-.751.085-1.13.117-.188.014-.373.04-.561.049a16.167,16.167,0,0,1-1.719,0c-14.073-.8-25.4-1.757-38.1-8.874-.853-.478-1.766-.95-2.709-1.424C1177.928,461.416,1177.792,461.345,1177.651,461.275Z" transform="translate(-1081.936 -388.803)" fill="#6a6971"/>
          <path id="Trazado_108279" data-name="Trazado 108279" d="M1146.933,417.2a3,3,0,1,0,3-3A3,3,0,0,0,1146.933,417.2Z" transform="translate(-1091.845 -401.953)" fill="#1d1e20"/>
          <path id="Trazado_108280" data-name="Trazado 108280" d="M1147.583,416.719a1.871,1.871,0,1,0,1.871-1.871A1.871,1.871,0,0,0,1147.583,416.719Z" transform="translate(-1091.362 -401.469)" fill="#d5d6d6"/>
          <circle id="Elipse_4827" data-name="Elipse 4827" cx="1.521" cy="1.521" r="1.521" transform="translate(56.388 13.729)" fill="#646868"/>
          <path id="Trazado_108281" data-name="Trazado 108281" d="M1149.724,414.2s7.887,9.546,7.887,10.745-4.493,5-4.493,5-9.851-2.54-16.9-3.905c-2.969-.575-7.591-.786-10.329-1.132-1.846-.232-2.284-1.911,1.465-3.993C1133.356,417.58,1142.5,414.116,1149.724,414.2Z" transform="translate(-1108.516 -401.953)" fill="#5b7586"/>
          <path id="Trazado_108282" data-name="Trazado 108282" d="M1157.068,420.959c0,1.2-4.493,5-4.493,5s-9.85-2.54-16.9-3.905c-2.969-.575-7.591-.786-10.328-1.132-.865-.108,3.395-1.36,12.058-1.36A189.578,189.578,0,0,1,1157.068,420.959Z" transform="translate(-1107.973 -397.967)" fill="#1d1e20"/>
          <path id="Trazado_108283" data-name="Trazado 108283" d="M1162.757,425.159c.268,1.006.706,2.16.11,3.014-.8,1.147-2.727.568-3.515-.588s-.927-2.633-1.555-3.883c-.373-.744-.913-1.4-1.229-2.172a2.25,2.25,0,0,1,.206-2.354,3.189,3.189,0,0,1,5.448.907,10.407,10.407,0,0,1,.262,3.266A8.348,8.348,0,0,0,1162.757,425.159Z" transform="translate(-1084.854 -399.114)" fill="#1d1e20"/>
          <path id="Trazado_108284" data-name="Trazado 108284" d="M1147.476,435.613a14.284,14.284,0,0,1,1.166-2.171c.83-1.75.211-3.8.129-5.738a2.726,2.726,0,0,1,.385-1.763,2.134,2.134,0,0,1,2.366-.558,6.28,6.28,0,0,1,2.125,1.463,9.777,9.777,0,0,0,.413,4.259,18.048,18.048,0,0,0,1,1.819c.879,1.578,1.311,3.619.345,5.145a4.485,4.485,0,0,1-4.9,1.55C1148.7,439.149,1146.986,437.413,1147.476,435.613Z" transform="translate(-1091.504 -393.734)" fill="#1d1e20"/>
          <path id="Trazado_108285" data-name="Trazado 108285" d="M1153.572,449.876l-2.891-1a2.04,2.04,0,0,1-1.721-1.836q-.782-3.138-1.564-6.28a3.534,3.534,0,0,1-.036-2.343c.64-1.344,2.713-1.278,3.851-.317s1.66,2.437,2.4,3.728a11.482,11.482,0,0,0,3.863,4.01,4.121,4.121,0,0,1,1.848,1.646c.507,1.222-.595,2.626-1.879,2.943A6.979,6.979,0,0,1,1153.572,449.876Z" transform="translate(-1091.669 -384.708)" fill="#1d1e20"/>
          <path id="Trazado_108286" data-name="Trazado 108286" d="M1154.555,481.8c-1.923-.745-2.882-2.927-3.165-4.969s-.094-4.155-.659-6.137c-.934-3.276-3.834-5.87-4.144-9.261a1.992,1.992,0,0,1,.171-1.177,2.181,2.181,0,0,1,1.93-.793c2.606-.058,5.169.692,7.776.743s5.518-.837,6.709-3.156a36.15,36.15,0,0,0,1.123-3.6c.453-1.173,1.5-2.308,2.755-2.162.924.108,1.634.877,2.517,1.163,1.886.61,3.7-1.09,4.781-2.749s2.205-3.639,4.154-4c1.323-.244,2.64.359,3.974.534a6.481,6.481,0,0,0,6.794-4.32c.725-2.28.424-5.358,2.566-6.423,1.916-.954,4.076.638,6.2.91,3.126.4,5.931-2.117,9.078-2.307,2.965-.178,5.608,1.705,8.043,3.409,30.607,21.41,69.263,26.572,104.773,38.158,1.24.4,2.7,1.088,2.782,2.387.077,1.154-1.018,2.028-2.064,2.526-5.067,2.416-11.036,1.13-16.49-.2l-61.093-14.91c-.778,2.284,1.053,5.063-.253,7.091-1.069,1.66-3.508,1.62-5.41,1.088s-3.93-1.362-5.767-.642c-1.508,2.275-.959,5.265-1.173,7.987s-2.2,5.912-4.859,5.307c-3.208-.729-3.255-5.909-6.264-7.242-2.91-1.29-5.957,2.418-5.516,5.572.223,1.6.984,3.112,1.048,4.728s-.99,3.5-2.606,3.44c-1.487-.052-2.418-1.679-2.62-3.154s.012-3.032-.553-4.408-2.434-2.382-3.546-1.395c.106,2.308.192,4.728-.825,6.8s-3.531,3.611-5.668,2.73c-3.553-1.464-4.029-8.21-7.828-7.619a4.888,4.888,0,0,1-7.734,5c-1.639-1.259-2.308-3.386-3.527-5.056s-3.756-2.872-5.283-1.477c-1.43,1.3-.847,3.872-2.179,5.276-1.245,1.311-3.573.828-4.828-.473s-1.754-3.131-2.323-4.847c-1.051-3.175-2.876-6.555-6.1-7.431C1160.507,479.409,1157.3,482.861,1154.555,481.8Z" transform="translate(-1092.115 -387.166)" fill="#1d1e20"/>
          <path id="Trazado_108287" data-name="Trazado 108287" d="M1191.768,484.82c0,1.215,2.169,2.2,4.845,2.2s4.843-.985,4.843-2.2-2.169-2.2-4.843-2.2S1191.768,483.605,1191.768,484.82Z" transform="translate(-1058.511 -351.082)" fill="#52534f"/>
          <path id="Trazado_108288" data-name="Trazado 108288" d="M1202.334,483.68c0,.758,1.233,1.376,2.751,1.376s2.751-.617,2.751-1.376-1.233-1.376-2.751-1.376S1202.334,482.919,1202.334,483.68Z" transform="translate(-1050.655 -351.317)" fill="#52534f"/>
          <path id="Trazado_108289" data-name="Trazado 108289" d="M1184.582,495.263c0,1.029,1.355,1.864,3.027,1.864s3.025-.835,3.025-1.864-1.354-1.862-3.025-1.862S1184.582,494.234,1184.582,495.263Z" transform="translate(-1063.854 -343.067)" fill="#52534f"/>
          <ellipse id="Elipse_4828" data-name="Elipse 4828" cx="3.132" cy="1.692" rx="3.132" ry="1.692" transform="translate(0 164.636)" fill="#52534f"/>
          <path id="Trazado_108290" data-name="Trazado 108290" d="M1160.335,502.7c0,1.569,2.474,2.842,5.527,2.842s5.525-1.273,5.525-2.842-2.474-2.844-5.525-2.844S1160.335,501.129,1160.335,502.7Z" transform="translate(-1081.881 -338.268)" fill="#1d1e20"/>
          <ellipse id="Elipse_4829" data-name="Elipse 4829" cx="3.553" cy="2.072" rx="3.553" ry="2.072" transform="translate(97.876 164.431)" fill="#1d1e20"/>
          <path id="Trazado_108291" data-name="Trazado 108291" d="M1200.365,491.4c0,1.276,1.768,2.31,3.947,2.31s3.947-1.034,3.947-2.31-1.766-2.31-3.947-2.31S1200.365,490.121,1200.365,491.4Z" transform="translate(-1052.119 -346.274)" fill="#1d1e20"/>
          <path id="Trazado_108292" data-name="Trazado 108292" d="M1118.652,487.823c0,1.206,1.484,2.185,3.316,2.185s3.316-.978,3.316-2.185-1.486-2.185-3.316-2.185S1118.652,486.616,1118.652,487.823Z" transform="translate(-1112.871 -348.839)" fill="#1d1e20"/>
        </g>
      </g>
    </g>
  </g>
</svg>
