<svg xmlns="http://www.w3.org/2000/svg" width="450.525" height="446.734" viewBox="0 0 450.525 446.734">
  <g id="Grupo_53463" data-name="Grupo 53463" transform="translate(-658.512 696.577)">
    <path id="Trazado_101061" data-name="Trazado 101061" d="M705.245-506.3c32.373-80.29,208.189-179.2,342.6-134.691C1066.275-465.2,924.458-249.843,924.458-249.843,857.661-296.6,720.983-475.47,705.245-506.3Z" fill="#6bd1bd"/>
    <path id="Trazado_101062" data-name="Trazado 101062" d="M986.623-562.5l111.705,1,1.2,12.386H991.22Z" fill="#4b4b4b"/>
    <g id="Grupo_53300" data-name="Grupo 53300">
      <path id="Trazado_101063" data-name="Trazado 101063" d="M1002.513-562.385l-10.394-39.43,15.035-14.838V-620.4l11.843-.749.748,4.2,15.586,11.989-6.292,42.817Z" fill="#f5f5e6"/>
      <path id="Trazado_101064" data-name="Trazado 101064" d="M1033.722-604.314l-5.55,37.745-.428,2.912-24.074-.216-9.885-37.485,14.868-14.669v-2.968l2.66-.167h0l6.441-.409.617,3.451Z" fill="#b4dc32"/>
      <path id="Trazado_101065" data-name="Trazado 101065" d="M1026.136-610.146a51.551,51.551,0,0,1-25.045,1.58l-7.3,7.207,9.883,37.486,24.074.215,5.978-40.652Z" fill="#dc6400"/>
      <path id="Trazado_101066" data-name="Trazado 101066" d="M1016.445-619.385v3.031l12.142,12.544-6.071,41.311-2.624.35,3.9-40.567-9.144-13.489v-3.364Z" fill="#fff" opacity="0.3"/>
      <path id="Trazado_101067" data-name="Trazado 101067" d="M1004.008-629.721l1.348,10.82,15.288-.668,1.349-11.623Z" fill="#4a4a4a"/>
      <path id="Trazado_101068" data-name="Trazado 101068" d="M1028.172-566.569l-.428,2.912-24.074-.216-9.885-37.485,14.868-14.669v-2.968l2.66-.167h0v3.408l-10.489,15.436,5.245,32.65Z" fill="#b4b432" opacity="0.3" style="mix-blend-mode: multiply;isolation: isolate"/>
    </g>
    <path id="Trazado_101069" data-name="Trazado 101069" d="M1039.939-562.022a86.451,86.451,0,0,0-8.507,12.908h5.731a96.928,96.928,0,0,1,9.56-12.848Z" fill="#3c3c3c"/>
    <path id="Trazado_101070" data-name="Trazado 101070" d="M1069.313-561.76c-2.614,4.089-4.9,8.344-7.087,12.646h12.786c3.412-4.191,6.76-8.369,10.2-12.5Z" fill="#3c3c3c"/>
    <g id="Grupo_53301" data-name="Grupo 53301">
      <path id="Trazado_101071" data-name="Trazado 101071" d="M1039.076-562.058v-17.126c0-8.793,7.295-10.991,7.295-10.991l-.8-3.83h6.793l-.4,3.83s6.307,1.227,6.494,10.291,0,18.124,0,18.124Z" fill="#f5f5e6"/>
      <path id="Trazado_101072" data-name="Trazado 101072" d="M1040.577-563.536v-15.648c0-7.52,5.978-9.479,6.234-9.559l1.3-.405-.271-1.334-.421-2.023h3.286l-.371,3.539,1.347.262c.194.042,5.123,1.193,5.283,8.851.143,6.784.067,13.632.024,16.572Z" fill="#b4dc32"/>
      <path id="Trazado_101073" data-name="Trazado 101073" d="M1040.577-574.183v10.647l16.41.255c.031-2,.076-5.826.053-10.2A80.089,80.089,0,0,1,1040.577-574.183Z" fill="#326400"/>
      <path id="Trazado_101074" data-name="Trazado 101074" d="M1042.144-601.891l3,9.6,8.167.205,2.847-9.807C1050.686-604.214,1044.767-603.24,1042.144-601.891Z" fill="#f5f5e6"/>
      <path id="Trazado_101075" data-name="Trazado 101075" d="M1044.5-580.159l.452,12.065,8.243,1.124.449-13.189Z" fill="#f5f5e6"/>
      <path id="Trazado_101076" data-name="Trazado 101076" d="M1049.594-589.076c4.346,3.071,5.47,3.479,5.769,7.883s.376,16.622.376,16.622h-2.1s.223-14.73,0-16.622S1052.291-586.979,1049.594-589.076Z" fill="#fff" opacity="0.3"/>
    </g>
    <g id="Grupo_53302" data-name="Grupo 53302">
      <path id="Trazado_101077" data-name="Trazado 101077" d="M1061.954-562.151V-584.5c0-11.475,7.3-14.343,7.3-14.343l-.8-5h6.8l-.4,5s6.3,1.6,6.494,13.43,0,23.652,0,23.652Z" fill="#f5f5e6"/>
      <path id="Trazado_101078" data-name="Trazado 101078" d="M1063.453-564.075V-584.5c0-9.813,5.983-12.37,6.236-12.475l1.3-.529-.269-1.739-.424-2.641h3.287l-.37,4.618,1.348.342c.2.055,5.12,1.558,5.283,11.551.143,8.855.069,17.79.026,21.628Z" fill="#006432"/>
      <path id="Trazado_101079" data-name="Trazado 101079" d="M1065.019-610.36l3,9.6,8.172.2,2.847-9.807C1073.564-612.681,1067.643-611.708,1065.019-610.36Z" fill="#3c3c3c"/>
      <path id="Trazado_101080" data-name="Trazado 101080" d="M1077.734-594.128a25.386,25.386,0,0,1-11.354-.128c-1.492,1.89-2.927,4.951-2.927,9.757v20.424l16.414.331c.043-3.838.117-12.773-.026-21.628C1079.773-589.684,1078.816-592.413,1077.734-594.128Z" fill="#649600"/>
      <path id="Trazado_101081" data-name="Trazado 101081" d="M1072.472-597.409c4.348,4.01,5.472,4.542,5.771,10.29s.376,21.689.376,21.689h-2.1s.228-19.223,0-21.689S1075.172-594.67,1072.472-597.409Z" fill="#fff" opacity="0.3"/>
      <path id="Trazado_101082" data-name="Trazado 101082" d="M1066.9-587.278l.822,15.661h6.9l.6-15.285Z" fill="#f5f5e6"/>
    </g>
    <g id="Grupo_53446" data-name="Grupo 53446">
      <g id="Grupo_53304" data-name="Grupo 53304">
        <g id="Grupo_53303" data-name="Grupo 53303">
          <path id="Trazado_101083" data-name="Trazado 101083" d="M896.753-696.562c-21.8.366-50.572,15.008-47.084,61.541,3.037,40.511,27.37,48.26,24.528,53.165s-12.944,10.522-21.334,12.353-29.492,14.854-39.613,20.264c-16.346,8.74-26.331,65.145-22.479,93.69,2.822,20.907,13.29,33.13,33.516,40.627s67.307-4.143,81.585-6.94c3.185,1.292,42.843,15.381,65.357,15.531,24.766.166,39.33-27.511,39.637-57.756.388-38.24-13.9-75.847-29.135-88.908-5.318-4.56-18.913-10.737-26.811-16.74-11.973-9.1-17.539-18.1-14.209-22.831,5.528-7.85,14.786-15.076,15.291-43.905C956.712-676.9,934.993-697.2,896.753-696.562Z" fill="#fff"/>
        </g>
      </g>
      <g id="Grupo_53306" data-name="Grupo 53306">
        <g id="Grupo_53305" data-name="Grupo 53305">
          <path id="Trazado_101084" data-name="Trazado 101084" d="M874.045-590.608s6.093,13.662,13.186,24.112S900.409-535.1,900.409-535.1s6.226-21.109,11.215-30.682c3.661-7.026,14.243-26.719,14.243-26.719Z" fill="#bebfbf"/>
        </g>
      </g>
      <g id="Grupo_53308" data-name="Grupo 53308">
        <g id="Grupo_53307" data-name="Grupo 53307">
          <path id="Trazado_101085" data-name="Trazado 101085" d="M864.3-652.859c-.631-1.058,6.364-24.28,36.106-23.673s35.294,13.182,39.643,25.863S864.3-652.859,864.3-652.859Z" fill="#bebfbf"/>
        </g>
      </g>
      <g id="Grupo_53405" data-name="Grupo 53405">
        <g id="Grupo_53310" data-name="Grupo 53310">
          <g id="Grupo_53309" data-name="Grupo 53309">
            <path id="Trazado_101086" data-name="Trazado 101086" d="M895.851-664.053c-16.507,2.949-23.882-.365-26.692,16.934s-4.327,34.212,3.811,44.6,17.244,17.244,29.174,17.117,19.714-3.306,25.332-13.254,9.36-27.484,10.047-42.449S911.568-666.86,895.851-664.053Z" fill="#bebfbf"/>
          </g>
        </g>
        <g id="Grupo_53312" data-name="Grupo 53312">
          <g id="Grupo_53311" data-name="Grupo 53311">
            <path id="Trazado_101087" data-name="Trazado 101087" d="M910.5-644.056s.655,7.838,1.016,9.027a8.268,8.268,0,0,0,2.388.171s5.589-2.7,5.694-3.533,1.014-4.891,4.321-5.458c3.984-.683,4.977-2.4,4.977-2.4s-2.884-3.733-9.586-2.48S910.5-644.056,910.5-644.056Z" fill="#999"/>
          </g>
        </g>
        <g id="Grupo_53314" data-name="Grupo 53314">
          <g id="Grupo_53313" data-name="Grupo 53313">
            <path id="Trazado_101088" data-name="Trazado 101088" d="M894.659-644.056s-.655,7.838-1.016,9.027a8.274,8.274,0,0,1-2.389.171s-5.588-2.7-5.693-3.533-1.014-4.891-4.322-5.458c-3.983-.683-4.976-2.4-4.976-2.4s2.883-3.733,9.586-2.48S894.659-644.056,894.659-644.056Z" fill="#999"/>
          </g>
        </g>
        <g id="Grupo_53325" data-name="Grupo 53325">
          <g id="Grupo_53316" data-name="Grupo 53316">
            <g id="Grupo_53315" data-name="Grupo 53315">
              <path id="Trazado_101089" data-name="Trazado 101089" d="M911.872-634.811a6.281,6.281,0,0,1,2.557-3.171c1.841-1.022,8.079-2.556,10.84-.2s2.25,2.352,2.25,2.352a8.726,8.726,0,0,1-7.862,4.423C913.93-631.411,911.77-633.789,911.872-634.811Z" fill="#fff"/>
            </g>
          </g>
          <g id="Grupo_53318" data-name="Grupo 53318">
            <g id="Grupo_53317" data-name="Grupo 53317">
              <path id="Trazado_101090" data-name="Trazado 101090" d="M922.15-636.064a3.452,3.452,0,0,1-3.451,3.452,3.452,3.452,0,0,1-3.452-3.452,3.452,3.452,0,0,1,3.452-3.452A3.452,3.452,0,0,1,922.15-636.064Z" fill="#4c90e3"/>
            </g>
          </g>
          <g id="Grupo_53320" data-name="Grupo 53320">
            <g id="Grupo_53319" data-name="Grupo 53319">
              <path id="Trazado_101091" data-name="Trazado 101091" d="M920.233-636a1.764,1.764,0,0,1-1.765,1.764A1.764,1.764,0,0,1,916.7-636a1.764,1.764,0,0,1,1.764-1.764A1.764,1.764,0,0,1,920.233-636Z" fill="#424242"/>
            </g>
          </g>
          <g id="Grupo_53322" data-name="Grupo 53322">
            <g id="Grupo_53321" data-name="Grupo 53321">
              <path id="Trazado_101092" data-name="Trazado 101092" d="M928.254-636.47c-1.748-3.038-5.653-4.108-9.172-3.685-2.737.329-6.017,1.479-7.322,4.565-.5,1.188-.156,1.418.266.612,2.623-5.007,11.633-5.983,14.759-.834a7.65,7.65,0,0,1-3.292,3.4c-.447.255-.23.735.46.46a10.208,10.208,0,0,0,3.835-3.183C928.133-635.63,928.486-636.068,928.254-636.47Z" fill="#3f3f3f"/>
            </g>
          </g>
          <g id="Grupo_53324" data-name="Grupo 53324">
            <g id="Grupo_53323" data-name="Grupo 53323">
              <path id="Trazado_101093" data-name="Trazado 101093" d="M920.77-637.215a1.176,1.176,0,0,1-1.176,1.176,1.176,1.176,0,0,1-1.177-1.176,1.177,1.177,0,0,1,1.177-1.176A1.177,1.177,0,0,1,920.77-637.215Z" fill="#fff"/>
            </g>
          </g>
        </g>
        <g id="Grupo_53327" data-name="Grupo 53327">
          <g id="Grupo_53326" data-name="Grupo 53326">
            <path id="Trazado_101094" data-name="Trazado 101094" d="M929.52-647.085c-2.618-2.618-7.684-4.106-11.547-3.415a10.112,10.112,0,0,0-5.53,2.765,5.2,5.2,0,0,0-1.2,1.96,4.215,4.215,0,0,0-1.118-1.716,9.76,9.76,0,0,0-.2,3.958c.123.8.776,1.279,1.336.746,2.879-2.736,8.379-7.62,17-2.55C929.642-644.523,930.618-645.987,929.52-647.085Z" fill="#424242"/>
          </g>
        </g>
        <g id="Grupo_53338" data-name="Grupo 53338">
          <g id="Grupo_53329" data-name="Grupo 53329">
            <g id="Grupo_53328" data-name="Grupo 53328">
              <path id="Trazado_101095" data-name="Trazado 101095" d="M893.182-634.811a6.281,6.281,0,0,0-2.557-3.171c-1.841-1.022-8.079-2.556-10.84-.2s-2.25,2.352-2.25,2.352a8.726,8.726,0,0,0,7.862,4.423C891.124-631.411,893.284-633.789,893.182-634.811Z" fill="#fff"/>
            </g>
          </g>
          <g id="Grupo_53331" data-name="Grupo 53331">
            <g id="Grupo_53330" data-name="Grupo 53330">
              <path id="Trazado_101096" data-name="Trazado 101096" d="M882.9-636.064a3.452,3.452,0,0,0,3.452,3.452,3.452,3.452,0,0,0,3.451-3.452,3.452,3.452,0,0,0-3.451-3.452A3.452,3.452,0,0,0,882.9-636.064Z" fill="#4c90e3"/>
            </g>
          </g>
          <g id="Grupo_53333" data-name="Grupo 53333">
            <g id="Grupo_53332" data-name="Grupo 53332">
              <path id="Trazado_101097" data-name="Trazado 101097" d="M884.822-636a1.764,1.764,0,0,0,1.764,1.764A1.764,1.764,0,0,0,888.35-636a1.764,1.764,0,0,0-1.764-1.764A1.764,1.764,0,0,0,884.822-636Z" fill="#424242"/>
            </g>
          </g>
          <g id="Grupo_53335" data-name="Grupo 53335">
            <g id="Grupo_53334" data-name="Grupo 53334">
              <path id="Trazado_101098" data-name="Trazado 101098" d="M876.8-636.47c1.748-3.038,5.653-4.108,9.172-3.685,2.737.329,6.017,1.479,7.322,4.565.5,1.188.157,1.418-.265.612-2.624-5.007-11.634-5.983-14.759-.834a7.65,7.65,0,0,0,3.292,3.4c.446.255.229.735-.461.46a10.2,10.2,0,0,1-3.834-3.183C876.921-635.63,876.568-636.068,876.8-636.47Z" fill="#3f3f3f"/>
            </g>
          </g>
          <g id="Grupo_53337" data-name="Grupo 53337">
            <g id="Grupo_53336" data-name="Grupo 53336">
              <path id="Trazado_101099" data-name="Trazado 101099" d="M884.284-637.215a1.176,1.176,0,0,0,1.177,1.176,1.176,1.176,0,0,0,1.176-1.176,1.177,1.177,0,0,0-1.176-1.176A1.177,1.177,0,0,0,884.284-637.215Z" fill="#fff"/>
            </g>
          </g>
        </g>
        <g id="Grupo_53340" data-name="Grupo 53340">
          <g id="Grupo_53339" data-name="Grupo 53339">
            <path id="Trazado_101100" data-name="Trazado 101100" d="M875.534-647.085c2.618-2.618,7.685-4.106,11.547-3.415a10.112,10.112,0,0,1,5.53,2.765,5.2,5.2,0,0,1,1.2,1.96,4.215,4.215,0,0,1,1.118-1.716,9.776,9.776,0,0,1,.2,3.958c-.124.8-.777,1.279-1.337.746-2.879-2.736-8.379-7.62-17-2.55C875.412-644.523,874.436-645.987,875.534-647.085Z" fill="#424242"/>
          </g>
        </g>
        <g id="Grupo_53343" data-name="Grupo 53343">
          <g id="Grupo_53342" data-name="Grupo 53342">
            <g id="Grupo_53341" data-name="Grupo 53341">
              <path id="Trazado_101101" data-name="Trazado 101101" d="M878.116-597.345s5.812-22.343,13.042-29.6c6.8-6.823,19.394-6.3,24.763,4.887,5.54,11.544,11.142,27.8,11.142,27.8Z" fill="#424242"/>
            </g>
          </g>
        </g>
        <g id="Grupo_53346" data-name="Grupo 53346">
          <g id="Grupo_53345" data-name="Grupo 53345">
            <g id="Grupo_53344" data-name="Grupo 53344">
              <path id="Trazado_101102" data-name="Trazado 101102" d="M930.31-655.789c-6.158-7.318-23.142-5.881-28.132-5.279-4.991-.6-21.975-2.039-28.133,5.279-7.252,8.62-13.128,30.832-7.495,41.771s19.087,25.894,19.087,25.894l1.594-7.507s-10.7-6.951-11.985-19.216-4.748-31.644,4.972-38.124c2.876-1.917,8.406-2.679,13.364-2.954,2.761-.154,13.926-.154,16.377-.042,5.154.236,11.143.973,14.177,3,9.721,6.48,6.259,25.858,4.973,38.124s-11.985,19.216-11.985,19.216l1.594,7.507s13.454-14.956,19.087-25.894S937.563-647.169,930.31-655.789Z" fill="#333"/>
            </g>
          </g>
        </g>
        <g id="Grupo_53350" data-name="Grupo 53350">
          <g id="Grupo_53349" data-name="Grupo 53349">
            <g id="Grupo_53348" data-name="Grupo 53348">
              <g id="Grupo_53347" data-name="Grupo 53347">
                <path id="Trazado_101103" data-name="Trazado 101103" d="M910.371-668.137h-17.6c-18.8,0-32.228,9.652-31.561,26.3s-.215,35.392,8.523,46.942,22.091,18.843,31.216,18.915c9.392.073,23.726-7.365,32.464-18.915s7.857-30.3,8.524-46.942S929.173-668.137,910.371-668.137ZM929.765-606.4c-4.487,10.807-20.99,20.405-20.99,20.405l-6.631.538v.056l-.344-.028-.345.028v-.056l-6.631-.538s-16.5-9.6-20.99-20.405-3.858-37.554-1.264-42.489c5.312-10.108,16.376-9.834,29.23-9.828s23.917-.28,29.229,9.828C933.623-643.954,934.252-617.208,929.765-606.4Z" fill="#424242"/>
              </g>
            </g>
          </g>
        </g>
        <g id="Grupo_53353" data-name="Grupo 53353">
          <g id="Grupo_53352" data-name="Grupo 53352">
            <g id="Grupo_53351" data-name="Grupo 53351">
              <path id="Trazado_101104" data-name="Trazado 101104" d="M916.368-609.426c-3-5.342-4.5-15.513-14.826-15.513s-11.313,10.171-14.311,15.513-6.743,16.706,0,23.2a20.9,20.9,0,0,0,14.311,6.125,21.764,21.764,0,0,0,14.826-6.125C923.111-592.72,919.366-604.084,916.368-609.426Z" fill="#ffc013"/>
            </g>
          </g>
        </g>
        <g id="Grupo_53356" data-name="Grupo 53356">
          <g id="Grupo_53355" data-name="Grupo 53355">
            <g id="Grupo_53354" data-name="Grupo 53354">
              <path id="Trazado_101105" data-name="Trazado 101105" d="M915.921-592.505a14.293,14.293,0,0,1-14.345,14.24,14.293,14.293,0,0,1-14.345-14.24,14.293,14.293,0,0,1,14.345-14.239A14.293,14.293,0,0,1,915.921-592.505Z" fill="#eaa906"/>
            </g>
          </g>
        </g>
        <g id="Grupo_53359" data-name="Grupo 53359">
          <g id="Grupo_53358" data-name="Grupo 53358">
            <g id="Grupo_53357" data-name="Grupo 53357">
              <path id="Trazado_101106" data-name="Trazado 101106" d="M846.62-598.086l5.6-5.859,26.837,31.286L868.488-566.5Z" fill="#eaa906"/>
            </g>
          </g>
        </g>
        <g id="Grupo_53380" data-name="Grupo 53380">
          <g id="Grupo_53363" data-name="Grupo 53363">
            <g id="Grupo_53362" data-name="Grupo 53362">
              <g id="Grupo_53361" data-name="Grupo 53361">
                <g id="Grupo_53360" data-name="Grupo 53360">
                  <path id="Trazado_101107" data-name="Trazado 101107" d="M878.116-597.345c6.812,9.194,6.3,21.362.946,24.686-7.919,4.914-21.251,4.6-28.063-4.594s-6.263-21.143,1.225-26.691S871.3-606.538,878.116-597.345Z" fill="#eaa906"/>
                </g>
              </g>
            </g>
          </g>
          <g id="Grupo_53367" data-name="Grupo 53367">
            <g id="Grupo_53366" data-name="Grupo 53366">
              <g id="Grupo_53365" data-name="Grupo 53365">
                <g id="Grupo_53364" data-name="Grupo 53364">
                  <ellipse id="Elipse_3963" data-name="Elipse 3963" cx="15.639" cy="19.2" rx="15.639" ry="19.2" transform="matrix(0.803, -0.595, 0.595, 0.803, 833.061, -588.04)" fill="#ffcd50"/>
                </g>
              </g>
            </g>
          </g>
          <g id="Grupo_53371" data-name="Grupo 53371">
            <g id="Grupo_53370" data-name="Grupo 53370">
              <g id="Grupo_53369" data-name="Grupo 53369">
                <g id="Grupo_53368" data-name="Grupo 53368">
                  <path id="Trazado_101108" data-name="Trazado 101108" d="M867-589.291c5,6.743,4.594,15.508-.9,19.577s-13.994,1.9-18.991-4.841-4.593-15.507.9-19.577S862.007-596.034,867-589.291Z" fill="#ffc013"/>
                </g>
              </g>
            </g>
          </g>
          <g id="Grupo_53375" data-name="Grupo 53375">
            <g id="Grupo_53374" data-name="Grupo 53374">
              <g id="Grupo_53373" data-name="Grupo 53373">
                <g id="Grupo_53372" data-name="Grupo 53372">
                  <path id="Trazado_101109" data-name="Trazado 101109" d="M858.812-571.892a11.3,11.3,0,0,1-8.81-4.8,11.859,11.859,0,0,1-2.426-7.532,8.039,8.039,0,0,1,3.137-6.259,8.029,8.029,0,0,1,6.9-1.179,11.857,11.857,0,0,1,6.5,4.513h0a11.849,11.849,0,0,1,2.425,7.533,8.035,8.035,0,0,1-3.136,6.26A7.628,7.628,0,0,1,858.812-571.892Zm-3.5-18.987a6.554,6.554,0,0,0-3.95,1.261,6.979,6.979,0,0,0-2.7,5.44,10.784,10.784,0,0,0,2.214,6.839c3.145,4.243,8.48,5.636,11.887,3.111a6.975,6.975,0,0,0,2.7-5.441,10.779,10.779,0,0,0-2.214-6.838h0a10.769,10.769,0,0,0-5.9-4.108A8.182,8.182,0,0,0,855.308-590.879Z" fill="#fff"/>
                </g>
              </g>
            </g>
          </g>
          <g id="Grupo_53379" data-name="Grupo 53379">
            <g id="Grupo_53378" data-name="Grupo 53378">
              <g id="Grupo_53377" data-name="Grupo 53377">
                <g id="Grupo_53376" data-name="Grupo 53376">
                  <path id="Trazado_101110" data-name="Trazado 101110" d="M862.841-601.972a28.839,28.839,0,0,1,11.2,11.364c2.841,5.252,4.67,14.273,0,20.873,2.167-1.257,5.017-2.924,5.017-2.924a20.742,20.742,0,0,0-1.362-19.846C871.652-602.243,862.841-601.972,862.841-601.972Z" fill="#424242"/>
                </g>
              </g>
            </g>
          </g>
        </g>
        <g id="Grupo_53404" data-name="Grupo 53404">
          <g id="Grupo_53384" data-name="Grupo 53384">
            <g id="Grupo_53383" data-name="Grupo 53383">
              <g id="Grupo_53382" data-name="Grupo 53382">
                <g id="Grupo_53381" data-name="Grupo 53381">
                  <path id="Trazado_101111" data-name="Trazado 101111" d="M925.451-597.345c-6.811,9.194-6.3,21.362-.945,24.686,7.92,4.914,21.251,4.6,28.063-4.594s6.263-21.143-1.226-26.691S932.263-606.538,925.451-597.345Z" fill="#eaa906"/>
                </g>
              </g>
            </g>
          </g>
          <g id="Grupo_53387" data-name="Grupo 53387">
            <g id="Grupo_53386" data-name="Grupo 53386">
              <g id="Grupo_53385" data-name="Grupo 53385">
                <path id="Trazado_101112" data-name="Trazado 101112" d="M957.94-597.35l-6.6-6.594-26.837,31.286,10.573,6.163Z" fill="#eaa906"/>
              </g>
            </g>
          </g>
          <g id="Grupo_53391" data-name="Grupo 53391">
            <g id="Grupo_53390" data-name="Grupo 53390">
              <g id="Grupo_53389" data-name="Grupo 53389">
                <g id="Grupo_53388" data-name="Grupo 53388">
                  <ellipse id="Elipse_3964" data-name="Elipse 3964" cx="19.2" cy="15.639" rx="19.2" ry="15.639" transform="translate(922.513 -575.806) rotate(-53.465)" fill="#ffcd50"/>
                </g>
              </g>
            </g>
          </g>
          <g id="Grupo_53395" data-name="Grupo 53395">
            <g id="Grupo_53394" data-name="Grupo 53394">
              <g id="Grupo_53393" data-name="Grupo 53393">
                <g id="Grupo_53392" data-name="Grupo 53392">
                  <path id="Trazado_101113" data-name="Trazado 101113" d="M936.565-589.291c-5,6.743-4.593,15.508.9,19.577s13.994,1.9,18.99-4.841,4.594-15.507-.9-19.577S941.561-596.034,936.565-589.291Z" fill="#ffc013"/>
                </g>
              </g>
            </g>
          </g>
          <g id="Grupo_53399" data-name="Grupo 53399">
            <g id="Grupo_53398" data-name="Grupo 53398">
              <g id="Grupo_53397" data-name="Grupo 53397">
                <g id="Grupo_53396" data-name="Grupo 53396">
                  <path id="Trazado_101114" data-name="Trazado 101114" d="M944.756-571.892a11.3,11.3,0,0,0,8.81-4.8,11.859,11.859,0,0,0,2.426-7.532,8.039,8.039,0,0,0-3.137-6.259,8.029,8.029,0,0,0-6.9-1.179,11.857,11.857,0,0,0-6.5,4.513h0a11.856,11.856,0,0,0-2.426,7.533,8.04,8.04,0,0,0,3.136,6.26A7.631,7.631,0,0,0,944.756-571.892Zm3.5-18.987a6.557,6.557,0,0,1,3.951,1.261,6.975,6.975,0,0,1,2.7,5.44,10.781,10.781,0,0,1-2.212,6.839c-3.146,4.243-8.481,5.636-11.889,3.111a6.974,6.974,0,0,1-2.7-5.441,10.774,10.774,0,0,1,2.214-6.838h0a10.769,10.769,0,0,1,5.9-4.108A8.18,8.18,0,0,1,948.259-590.879Z" fill="#fff"/>
                </g>
              </g>
            </g>
          </g>
          <g id="Grupo_53403" data-name="Grupo 53403">
            <g id="Grupo_53402" data-name="Grupo 53402">
              <g id="Grupo_53401" data-name="Grupo 53401">
                <g id="Grupo_53400" data-name="Grupo 53400">
                  <path id="Trazado_101115" data-name="Trazado 101115" d="M940.727-601.972a28.845,28.845,0,0,0-11.205,11.364c-2.841,5.252-4.669,14.273,0,20.873-2.166-1.257-5.016-2.924-5.016-2.924a20.744,20.744,0,0,1,1.361-19.846C931.916-602.243,940.727-601.972,940.727-601.972Z" fill="#424242"/>
                </g>
              </g>
            </g>
          </g>
        </g>
      </g>
      <g id="Grupo_53408" data-name="Grupo 53408">
        <g id="Grupo_53407" data-name="Grupo 53407">
          <g id="Grupo_53406" data-name="Grupo 53406">
            <path id="Trazado_101116" data-name="Trazado 101116" d="M976.5-357.068c-2.586-44.3-6.3-70.9-6.3-70.9L825.736-433.3v56.7c0,6.793.016,13.251.024,19.528Z" fill="#fff"/>
          </g>
        </g>
      </g>
      <g id="Grupo_53410" data-name="Grupo 53410">
        <g id="Grupo_53409" data-name="Grupo 53409">
          <path id="Trazado_101117" data-name="Trazado 101117" d="M990.943-472.964c-9.417-7.185-21.118-5.977-21.118-5.977s-2.005-18.9.312-32.314c3.643-21.075,9.106-27.568,9.106-27.568-19.12,4.621-25.186,44.584-27.525,51.974-4.25,13.429-49.625,8.475-66.953,7.071-14.224-1.153-31.892-9.455-35.754-21.658-2.339-7.39-7.721-32.766-26.841-37.387,0,0,7.966,7.455,11.608,28.529a87.906,87.906,0,0,1,1.062,23.445,24.405,24.405,0,0,0-22.761,8.8c-4.519,5.448-3.035,17.716-3.035,17.716s13.657-13.111,20.94-13.976,26.454,1.3,31.2,2.937c5.148,1.78,61.222,7.6,73.716,8.65,9.037.756,20.078-2.1,25.226-3.882,4.742-1.64,12.746-2.181,20.03-1.316s17.852,7.587,17.852,7.587S994.606-470.17,990.943-472.964Z" fill="#bebfbf"/>
        </g>
      </g>
      <g id="Grupo_53420" data-name="Grupo 53420">
        <g id="Grupo_53412" data-name="Grupo 53412">
          <g id="Grupo_53411" data-name="Grupo 53411">
            <path id="Trazado_101118" data-name="Trazado 101118" d="M950.216-464.49c-2.011-1.165-4.277-.65-6.448-.519-4.859.293-9.544-.9-14.181-2.2a27.069,27.069,0,0,1-8.86-4.031,80.944,80.944,0,0,0-8.663,6.507,110.187,110.187,0,0,1,14.453,3.389c8.749,2.486,21.737.114,21.737.114s7.284,6.146,10.357,11.381c2.845,4.846,6.063,5.2,7,2.491C961.1-447.122,953.177-462.776,950.216-464.49Z" fill="#eaa906"/>
          </g>
        </g>
        <g id="Grupo_53417" data-name="Grupo 53417">
          <g id="Grupo_53414" data-name="Grupo 53414">
            <g id="Grupo_53413" data-name="Grupo 53413">
              <path id="Trazado_101119" data-name="Trazado 101119" d="M973.862-468.4a36.1,36.1,0,0,1,7.511,5.779,12.768,12.768,0,0,0,7.276,4.063,4.2,4.2,0,0,0-.74-4.922c-6.081-7.082-15.375-15.471-34.988-17.894-11.806-1.459-24.2,4.866-32.194,10.134a27.069,27.069,0,0,0,8.86,4.031c4.637,1.3,9.322,2.5,14.181,2.2,2.171-.131,4.437-.646,6.448.519,2.961,1.714,10.883,17.368,15.394,17.129a7.82,7.82,0,0,0-.057-4.312c-1.252-5.121-6.675-13.029-6.675-13.029s1.44-1.42,3.489.228,4.324,3.469,8.422,9.5c2.329,3.429,4.121,5.338,6.385,5.116.858-.81,1.177-2.419.443-4.775a53.923,53.923,0,0,0-6.487-13.088A1.9,1.9,0,0,1,973.862-468.4Z" fill="#ffc013"/>
            </g>
          </g>
          <g id="Grupo_53416" data-name="Grupo 53416">
            <g id="Grupo_53415" data-name="Grupo 53415">
              <path id="Trazado_101120" data-name="Trazado 101120" d="M988.649-458.561a12.768,12.768,0,0,1-7.276-4.063,36.1,36.1,0,0,0-7.511-5.779,1.9,1.9,0,0,0-2.732.683s7.535,5.534,12.088,9.19C985.664-456.565,987.735-457.092,988.649-458.561Z" fill="#eaa906"/>
            </g>
          </g>
        </g>
        <g id="Grupo_53419" data-name="Grupo 53419">
          <g id="Grupo_53418" data-name="Grupo 53418">
            <path id="Trazado_101121" data-name="Trazado 101121" d="M971.623-455.505c-4.1-6.031-6.373-8.118-8.422-9.766s-4.323.569-4.323.569,8.589,7.921,12.5,12.861c2.072,2.613,4.526,3.178,5.793,1.984C974.91-449.635,973.953-452.075,971.623-455.505Z" fill="#eaa906"/>
          </g>
        </g>
      </g>
      <g id="Grupo_53422" data-name="Grupo 53422">
        <g id="Grupo_53421" data-name="Grupo 53421">
          <path id="Trazado_101122" data-name="Trazado 101122" d="M971.229-406.331s-25.356,1.306-50.815-6.77c-18.253-5.79-29.214-12.957-39.473-19.971-5.064,3.011-10.382,6.4-15.824,8.889,8.369,9.076,27.109,20.93,50.15,26.788,34.6,8.8,56.6,1.131,56.6,1.131Z" fill="#bebfbf"/>
        </g>
      </g>
      <g id="Grupo_53427" data-name="Grupo 53427">
        <g id="Grupo_53424" data-name="Grupo 53424">
          <g id="Grupo_53423" data-name="Grupo 53423">
            <path id="Trazado_101123" data-name="Trazado 101123" d="M853.126-454.154c7.272,3.688,14.7,6.7,18.35,8.119l7.323-23.018s-19.165-11.839-31.831-12.507c-8.578-.452-15.927,4.2-19.786,7.252A79.247,79.247,0,0,0,853.126-454.154Z" fill="#ffc013"/>
          </g>
        </g>
        <g id="Grupo_53426" data-name="Grupo 53426">
          <g id="Grupo_53425" data-name="Grupo 53425">
            <path id="Trazado_101124" data-name="Trazado 101124" d="M824.287-471.757s3.186,7.285,16.388,16.844,29.063,14.34,29.063,14.34l1.738-5.462c-3.655-1.422-11.078-4.431-18.35-8.119a79.247,79.247,0,0,1-25.944-20.154A31.553,31.553,0,0,0,824.287-471.757Z" fill="#eaa906"/>
          </g>
        </g>
      </g>
      <g id="Grupo_53429" data-name="Grupo 53429">
        <g id="Grupo_53428" data-name="Grupo 53428">
          <path id="Trazado_101125" data-name="Trazado 101125" d="M800.839-430.409s5.4-2.95,14.5.237,11.9,9.788,24.73,9.788,40.87-12.688,40.87-12.688l7.409,8.591s-17.485,14.333-42.28,13.657C808.26-411.856,800.839-430.409,800.839-430.409Z" fill="#bebfbf"/>
        </g>
      </g>
      <g id="Grupo_53431" data-name="Grupo 53431">
        <g id="Grupo_53430" data-name="Grupo 53430">
          <path id="Trazado_101126" data-name="Trazado 101126" d="M971.871-482.524s.974-5.691,5.3-7.056,11.974,0,11.974,0S979.311-487.76,971.871-482.524Z" fill="#bebfbf"/>
        </g>
      </g>
      <g id="Grupo_53433" data-name="Grupo 53433">
        <g id="Grupo_53432" data-name="Grupo 53432">
          <path id="Trazado_101127" data-name="Trazado 101127" d="M831.18-490.188s-.973-5.69-5.3-7.055-11.974,0-11.974,0S823.741-495.423,831.18-490.188Z" fill="#bebfbf"/>
        </g>
      </g>
      <g id="Grupo_53435" data-name="Grupo 53435">
        <g id="Grupo_53434" data-name="Grupo 53434">
          <path id="Trazado_101128" data-name="Trazado 101128" d="M824.287-490.188s-3.938-3.186-13.043,0-8.877,10.395-8.877,10.395a41.78,41.78,0,0,1,9.615-7.511A26.013,26.013,0,0,1,824.287-490.188Z" fill="#bebfbf"/>
        </g>
      </g>
      <g id="Grupo_53437" data-name="Grupo 53437">
        <g id="Grupo_53436" data-name="Grupo 53436">
          <path id="Trazado_101129" data-name="Trazado 101129" d="M977.689-483.131s3.938-3.187,13.042,0,8.878,10.394,8.878,10.394a41.807,41.807,0,0,0-9.615-7.511A26,26,0,0,0,977.689-483.131Z" fill="#bebfbf"/>
        </g>
      </g>
      <g id="Grupo_53439" data-name="Grupo 53439">
        <g id="Grupo_53438" data-name="Grupo 53438">
          <path id="Trazado_101130" data-name="Trazado 101130" d="M956.078-548.888a78.017,78.017,0,0,0-8.683,23.065c-2.428,12.747.91,34.219.91,34.219s1.426-25.721,2.989-34.219S956.078-548.888,956.078-548.888Z" fill="#bebfbf"/>
        </g>
      </g>
      <g id="Grupo_53441" data-name="Grupo 53441">
        <g id="Grupo_53440" data-name="Grupo 53440">
          <path id="Trazado_101131" data-name="Trazado 101131" d="M835.371-551.453a78.019,78.019,0,0,1,12.881,21.011c4.791,12.059,5.566,33.775,5.566,33.775s-6.255-24.989-9.4-33.039S835.371-551.453,835.371-551.453Z" fill="#bebfbf"/>
        </g>
      </g>
      <g id="Grupo_53443" data-name="Grupo 53443">
        <g id="Grupo_53442" data-name="Grupo 53442">
          <path id="Trazado_101132" data-name="Trazado 101132" d="M879.555-443.146s6.579,8.392,15.075,12.39,21.291,3.7,21.291,3.7-7.183-3.333-18.183-8.04S879.555-443.146,879.555-443.146Z" fill="#bebfbf"/>
        </g>
      </g>
      <g id="Grupo_53445" data-name="Grupo 53445">
        <g id="Grupo_53444" data-name="Grupo 53444">
          <path id="Trazado_101133" data-name="Trazado 101133" d="M829.377-430.7s11.186-1.247,18.188-2.6a150.621,150.621,0,0,1,17.552-1.8s-12.728,7.736-21.5,6.826A95.49,95.49,0,0,1,829.377-430.7Z" fill="#bebfbf"/>
        </g>
      </g>
    </g>
    <path id="Trazado_101134" data-name="Trazado 101134" d="M1058.022-371.522c-116.136-31.8-249.713-12.713-311.327,5.792l-22.963.427v7.867c124.419,72,275.477,48.807,358.334-6.667v-7.865Z" fill="#644600"/>
    <path id="Trazado_101135" data-name="Trazado 101135" d="M1082.066-371.968C999.209-316.494,848.149-293.3,723.732-365.3c37.73-17.257,162.578-43.137,282.891-24.875,11.674,1.773,23.3,3.96,34.8,6.61A397.47,397.47,0,0,1,1082.066-371.968Z" fill="#826400"/>
    <path id="Trazado_101136" data-name="Trazado 101136" d="M1002.11-390.838q-8.235-1.173-16.481-2.083c-1.344,22.982-15.008,44.658-37.979,63.292a84.488,84.488,0,0,1-10.279,7.208,370.8,370.8,0,0,0,52.6-9.6c6.8-9.717,10.549-20.318,12.833-31.075C1004.722-372.319,1005.636-381.856,1002.11-390.838Z" fill="#826400" opacity="0.2" style="mix-blend-mode: screen;isolation: isolate"/>
    <path id="Trazado_101137" data-name="Trazado 101137" d="M1038.632-384.2q-5.184-1.158-10.4-2.194c5.353,14.687,1.2,29.879-5.917,44.3q8.542-3.134,16.653-6.641C1044.907-360.2,1045.536-373.033,1038.632-384.2Z" fill="#826400" opacity="0.2" style="mix-blend-mode: screen;isolation: isolate"/>
    <path id="Trazado_101138" data-name="Trazado 101138" d="M983.681-378.39c-7.324,7.59-14.1,15.37-20.924,23.092l15.249-4.086c4.485-5.78,8.487-11.854,13.587-17.4Z" fill="#4b4b4b" opacity="0.2" style="mix-blend-mode: screen;isolation: isolate"/>
    <path id="Trazado_101139" data-name="Trazado 101139" d="M987.444-520.9A124.739,124.739,0,0,0,985-535.426c-4.59,5.163-9.084,10.419-13.4,15.843a88.844,88.844,0,0,1,2.457,15.562Q980.61-512.552,987.444-520.9Z" fill="#ffffdc" opacity="0.3"/>
    <path id="Trazado_101140" data-name="Trazado 101140" d="M988.193-507.948q-7.1,6.189-13.924,12.772c-.05,2.675-.223,5.364-.514,8.042,4.9-3.7,9.617-7.7,14.4-11.575Q988.28-503.317,988.193-507.948Z" fill="#ffffdc" opacity="0.3"/>
    <g id="Grupo_53448" data-name="Grupo 53448" opacity="0.69">
      <path id="Trazado_101141" data-name="Trazado 101141" d="M1072.331-541.566c.153-2.511-3.13-4.176-5.543-3.418-2.245.705-3.585,4.254-1.923,6.207C1067.033-536.233,1072.142-538.411,1072.331-541.566Z" fill="#f5f5e6"/>
      <g id="Grupo_53447" data-name="Grupo 53447">
        <rect id="Rectángulo_5024" data-name="Rectángulo 5024" width="26.245" height="1.498" transform="matrix(0.753, -0.657, 0.657, 0.753, 1047.515, -498.987)" fill="#f5f5e6"/>
        <rect id="Rectángulo_5025" data-name="Rectángulo 5025" width="1.499" height="25.733" transform="translate(1067.03 -541.414)" fill="#f5f5e6"/>
        <rect id="Rectángulo_5026" data-name="Rectángulo 5026" width="38.029" height="1.498" transform="translate(1067.623 -516.402) rotate(-12.209)" fill="#f5f5e6"/>
        <rect id="Rectángulo_5027" data-name="Rectángulo 5027" width="1.499" height="26.205" transform="translate(1067.119 -515.326) rotate(-28.297)" fill="#f5f5e6"/>
      </g>
      <path id="Trazado_101142" data-name="Trazado 101142" d="M1050.892-495.482a3.429,3.429,0,0,1-2.81,1.3c-5.307,0-5.088-9.122.376-8.437C1051.772-502.2,1052.673-497.744,1050.892-495.482Z" fill="#f5f5e6"/>
      <path id="Trazado_101143" data-name="Trazado 101143" d="M1069.566-507.155c4.69-.985,7.013-8.019,5.381-12.223-1.345-3.464-5.958-6.457-9.788-5.25C1056.388-521.865,1059.756-505.1,1069.566-507.155Z" fill="#f5f5e6"/>
      <path id="Trazado_101144" data-name="Trazado 101144" d="M1108.936-525c-.9-3.618-5.484-3.847-7.254-.653-.877,1.592-1.393,4.334.294,5.508C1105.024-518.027,1109.79-521.563,1108.936-525Z" fill="#f5f5e6"/>
      <path id="Trazado_101145" data-name="Trazado 101145" d="M1083.513-494.479c-2.083-4.025-6.866-1.913-7.175,2.1C1075.839-485.9,1086.643-488.437,1083.513-494.479Z" fill="#f5f5e6"/>
    </g>
    <g id="Grupo_53450" data-name="Grupo 53450" opacity="0.76">
      <g id="Grupo_53449" data-name="Grupo 53449">
        <rect id="Rectángulo_5028" data-name="Rectángulo 5028" width="1.499" height="51.804" transform="translate(697.889 -459.518) rotate(-0.626)" fill="#f5f5e6"/>
        <rect id="Rectángulo_5029" data-name="Rectángulo 5029" width="1.499" height="36.691" transform="translate(663.299 -415.313) rotate(-76.898)" fill="#f5f5e6"/>
        <rect id="Rectángulo_5030" data-name="Rectángulo 5030" width="42.547" height="1.499" transform="matrix(0.442, -0.897, 0.897, 0.442, 679.722, -369.894)" fill="#f5f5e6"/>
        <rect id="Rectángulo_5031" data-name="Rectángulo 5031" width="47.129" height="1.5" transform="translate(699.138 -408.471) rotate(-5.067)" fill="#f5f5e6"/>
      </g>
      <path id="Trazado_101146" data-name="Trazado 101146" d="M693.881-393.4a11.8,11.8,0,0,0,6.376,1.194c2.438-.444,4.642-3.04,6.527-5.009a18.372,18.372,0,0,0,5.1-11.111c.531-5.782-2.461-12.56-8.392-14.38C686.928-427.794,680.017-400.386,693.881-393.4Z" fill="#f5f5e6"/>
      <path id="Trazado_101147" data-name="Trazado 101147" d="M705.615-460.031c-.815-3.068-4.656-6.221-7.812-6.234-5.421-.024-8.351,8.27-5,12.178C697.652-448.428,707.712-452.129,705.615-460.031Z" fill="#f5f5e6"/>
      <path id="Trazado_101148" data-name="Trazado 101148" d="M668.349-416.5a6.117,6.117,0,0,0-4.964-4.579c-2.989-.382-4.711,2.348-4.864,5.105C658.151-409.359,669.467-409.074,668.349-416.5Z" fill="#f5f5e6"/>
      <path id="Trazado_101149" data-name="Trazado 101149" d="M684.019-373.393a6.151,6.151,0,0,0-6.614-1.049c-3.926,1.877-3.337,6.568-.3,8.9C682.983-361.041,689.7-368.317,684.019-373.393Z" fill="#f5f5e6"/>
      <path id="Trazado_101150" data-name="Trazado 101150" d="M749.829-416a6.151,6.151,0,0,0-6.614-1.05c-3.927,1.878-3.337,6.568-.3,8.9C748.793-403.649,755.507-410.925,749.829-416Z" fill="#f5f5e6"/>
    </g>
    <path id="Trazado_101151" data-name="Trazado 101151" d="M1052.146-365.517c-7.472,6.549-34.67,11.345-45.971-2.827,3.136-2.312,12.963-3.932,23.763-3.783A205.542,205.542,0,0,1,1052.146-365.517Z" fill="#96641e" opacity="0.3" style="mix-blend-mode: multiply;isolation: isolate"/>
    <g id="Grupo_53452" data-name="Grupo 53452">
      <path id="Trazado_101152" data-name="Trazado 101152" d="M1050.39-400.865l-.077.6-.314,2.376-.137,1.033-.572,4.334-1.7,12.88-.949,7.186-.171,1.3-.726,5.5c-11.337,5.435-29.621,2.33-34.876-1.058l-.845-4.945-.176-1.03-4.318-25.215-.4-2.363-.1-.593c.115-.064.232-.126.355-.186.06-.03.12-.061.184-.091q.232-.114.484-.219c.082-.036.163-.069.247-.1s.169-.068.257-.1l.022-.008.286-.105.269-.091c.095-.034.193-.064.29-.094l.2-.063c.238-.073.481-.142.732-.207l.032-.009.03-.007c.141-.037.283-.07.424-.1.074-.019.152-.038.228-.055a.312.312,0,0,1,.05-.013l.206-.044c.149-.033.3-.066.451-.1,5.481-1.107,13.233-1.049,20.5-.59,3.359.213,6.612.51,9.488.817C1045.946-401.572,1050.39-400.865,1050.39-400.865Z" fill="#dc6400"/>
      <path id="Trazado_101153" data-name="Trazado 101153" d="M1050.39-400.865l-.077.6-.314,2.376c-.464.125-.933.245-1.408.356a60.441,60.441,0,0,1-6.307,1.132c-10.1,1.307-21.472.632-30.109-.478l2.456,23.95.007.065.3,2.97c4.952,2.013,24.476,2.877,31.529-1.261l-.726,5.5c-11.337,5.435-29.621,2.33-34.876-1.058l-.845-4.945-.176-1.03-4.318-25.215-.4-2.363-.1-.593c.115-.064.232-.126.355-.186.06-.03.12-.061.184-.091q.232-.114.484-.219c.082-.036.163-.069.247-.1s.169-.068.257-.1l.022-.008.286-.105.269-.091c.095-.034.193-.064.29-.094l.2-.063c.238-.073.481-.142.732-.207l.032-.009.03-.007c.141-.037.283-.07.424-.1.074-.019.152-.038.228-.055a.312.312,0,0,1,.05-.013l.206-.044c.149-.033.3-.066.451-.1,5.481-1.107,13.233-1.049,20.5-.59,3.359.213,6.612.51,9.488.817C1045.946-401.572,1050.39-400.865,1050.39-400.865Z" fill="#b43c00" opacity="0.3" style="mix-blend-mode: multiply;isolation: isolate"/>
      <path id="Trazado_101154" data-name="Trazado 101154" d="M1057.058-416v13.132c-16.428,8.615-49.551,3.674-57.094,1.414l-2.827-16.384C1015.181-424.045,1050.993-418.81,1057.058-416Z" fill="#dc6400"/>
      <path id="Trazado_101155" data-name="Trazado 101155" d="M1057.058-416c-4.938,4.971-17.29,5.67-31.889,5.324s-25.8-2.667-28.032-7.162C1015.181-424.045,1050.993-418.81,1057.058-416Z" fill="#dc6400" opacity="0.3" style="mix-blend-mode: screen;isolation: isolate"/>
      <path id="Trazado_101156" data-name="Trazado 101156" d="M1052.342-415.36c-4.354,2.3-18.7,2.988-31.446,2.338-.575-.027-1.148-.06-1.713-.1-9.6-.584-17.971-1.941-19.957-3.934a109.383,109.383,0,0,1,17.239-1.683h0c.537-.015,1.081-.034,1.627-.047C1031.609-419.147,1047.046-418.206,1052.342-415.36Z" fill="#823c00"/>
      <g id="Grupo_53451" data-name="Grupo 53451">
        <path id="Trazado_101157" data-name="Trazado 101157" d="M1028.328-412.787q-.133-13.907-.206-24.956c-.12-16.764-.2-27.84-.47-31.458l2.33-.174c.274,3.7.354,14.8.481,31.615q.077,11.027.206,24.952Z" fill="#325014"/>
        <path id="Trazado_101158" data-name="Trazado 101158" d="M1030.18-412.764c-.606-21.929,5.2-35.768,7.5-39.248l1.952,1.285c-2.177,3.309-7.7,16.572-7.111,37.9Z" fill="#325014"/>
        <path id="Trazado_101159" data-name="Trazado 101159" d="M1029.5-412.749l-2.335-.1c.943-22.914-7.586-35.213-7.672-35.333l1.9-1.356C1021.764-449.017,1030.471-436.529,1029.5-412.749Z" fill="#325014"/>
        <path id="Trazado_101160" data-name="Trazado 101160" d="M1022.1-433.745s10.616-6.329,16.361-6.427c8.277.683,21.911,8.667,21.911,8.667-1.851,1.949-7.109,3.213-7.109,3.213l-12.026-2.725,3.943,3.6-5.551.974S1029.009-426.734,1022.1-433.745Z" fill="#326400"/>
        <path id="Trazado_101161" data-name="Trazado 101161" d="M1035.341-446.283l.973-12.1s10.712-11.1,14.217-16.652c3.116,4.089,1.459,11.783-2.046,16.652l5.065-2.278-.875,5.551A18.7,18.7,0,0,1,1035.341-446.283Z" fill="#326400"/>
        <path id="Trazado_101162" data-name="Trazado 101162" d="M1009.341-457.081s-6.039-3.054-8.472-13.863l6.815,2.728-7.69-6.817-1.17-7.985s13.147,7.694,17.818,12.562a61.423,61.423,0,0,1,6.721,13.375C1023.363-456.726,1009.341-457.081,1009.341-457.081Z" fill="#325014"/>
        <path id="Trazado_101163" data-name="Trazado 101163" d="M990.708-438.841l4.416-7.046-.652,7.046,7.532,7.336,8.44-6.3,4.8-10,1.17,5.713,3.762-1.789,1.82-4.982,3.116,2.574,4.933-2.574-2.953-7.122s-7.564-4.674-19.638-3.9c-11.685-1.427-18.7,4.767-18.7,4.767l-2.079,4.879S986.165-443.255,990.708-438.841Z" fill="#326400"/>
        <path id="Trazado_101164" data-name="Trazado 101164" d="M1029.207-464.029l-8.569-11s-2.144-7.382,0-12.356l3.807,3.4-1.082-6.232,5.354-10.127,6.624,9.836C1035.536-486.621,1032.808-472.7,1029.207-464.029Z" fill="#326400"/>
        <path id="Trazado_101165" data-name="Trazado 101165" d="M1037.676-471.818c-.682-3.41,3.021-15.29,5.894-17.724,3.943,6.913,1.7,10.614,1.7,10.614Z" fill="#325000"/>
      </g>
    </g>
    <path id="Trazado_101166" data-name="Trazado 101166" d="M810.372-368.658c-7.472,6.549-34.67,11.345-45.971-2.826,3.136-2.312,12.963-3.932,23.763-3.784A205.539,205.539,0,0,1,810.372-368.658Z" fill="#96641e" opacity="0.3" style="mix-blend-mode: multiply;isolation: isolate"/>
    <g id="Grupo_53454" data-name="Grupo 53454">
      <path id="Trazado_101167" data-name="Trazado 101167" d="M810.069-404.259l-.078.594-.313,2.376-.137,1.033-.572,4.335-1.7,12.88-.949,7.185-.171,1.3-.726,5.5c-11.337,5.435-29.621,2.33-34.876-1.058l-.846-4.946-.175-1.03L765.209-401.3l-.4-2.364-.1-.592c.115-.065.232-.127.354-.187l.184-.091c.156-.075.317-.149.485-.218.081-.037.163-.07.246-.1s.17-.067.258-.1l.022-.008.286-.1.269-.091c.1-.033.193-.064.29-.094l.2-.063c.238-.073.481-.142.731-.206.011,0,.021-.007.032-.009s.021-.006.031-.007c.14-.038.283-.071.424-.1.074-.02.152-.039.228-.055a.222.222,0,0,1,.049-.013l.207-.045c.149-.032.3-.066.451-.1,5.481-1.107,13.233-1.048,20.5-.589,3.358.212,6.611.509,9.488.816C805.624-404.967,810.069-404.259,810.069-404.259Z" fill="#dc6400"/>
      <path id="Trazado_101168" data-name="Trazado 101168" d="M810.069-404.259l-.078.594-.313,2.376c-.464.125-.933.245-1.408.356a60.152,60.152,0,0,1-6.308,1.132c-10.1,1.307-21.472.632-30.109-.478l2.457,23.951.007.065.3,2.97c4.953,2.013,24.477,2.877,31.53-1.262l-.726,5.5c-11.337,5.435-29.621,2.33-34.876-1.058l-.846-4.946-.175-1.03L765.209-401.3l-.4-2.364-.1-.592c.115-.065.232-.127.354-.187l.184-.091c.156-.075.317-.149.485-.218.081-.037.163-.07.246-.1s.17-.067.258-.1l.022-.008.286-.1.269-.091c.1-.033.193-.064.29-.094l.2-.063c.238-.073.481-.142.731-.206.011,0,.021-.007.032-.009s.021-.006.031-.007c.14-.038.283-.071.424-.1.074-.02.152-.039.228-.055a.222.222,0,0,1,.049-.013l.207-.045c.149-.032.3-.066.451-.1,5.481-1.107,13.233-1.048,20.5-.589,3.358.212,6.611.509,9.488.816C805.624-404.967,810.069-404.259,810.069-404.259Z" fill="#b43c00" opacity="0.3" style="mix-blend-mode: multiply;isolation: isolate"/>
      <path id="Trazado_101169" data-name="Trazado 101169" d="M816.737-419.39v13.132c-16.429,8.614-49.552,3.673-57.094,1.413l-2.827-16.384C774.86-427.44,810.672-422.2,816.737-419.39Z" fill="#dc6400"/>
      <path id="Trazado_101170" data-name="Trazado 101170" d="M816.737-419.39c-4.938,4.97-17.291,5.67-31.889,5.323s-25.8-2.667-28.032-7.162C774.86-427.44,810.672-422.2,816.737-419.39Z" fill="#dc6400" opacity="0.3" style="mix-blend-mode: screen;isolation: isolate"/>
      <path id="Trazado_101171" data-name="Trazado 101171" d="M812.021-418.754c-4.354,2.3-18.7,2.987-31.447,2.337-.575-.027-1.147-.06-1.713-.1-9.6-.584-17.97-1.942-19.956-3.935a109.5,109.5,0,0,1,17.238-1.683h0c.537-.015,1.081-.034,1.627-.046C791.288-422.542,806.724-421.6,812.021-418.754Z" fill="#823c00"/>
      <g id="Grupo_53453" data-name="Grupo 53453">
        <path id="Trazado_101172" data-name="Trazado 101172" d="M788.007-416.181q-.133-13.908-.206-24.956c-.12-16.764-.2-27.84-.47-31.458l2.33-.174c.274,3.7.354,14.8.481,31.614q.076,11.027.206,24.952Z" fill="#325014"/>
        <path id="Trazado_101173" data-name="Trazado 101173" d="M789.859-416.158c-.606-21.93,5.2-35.768,7.5-39.249l1.951,1.285c-2.176,3.309-7.7,16.572-7.111,37.9Z" fill="#325014"/>
        <path id="Trazado_101174" data-name="Trazado 101174" d="M789.174-416.143l-2.334-.1c.943-22.914-7.586-35.213-7.672-35.333l1.9-1.357C781.443-452.411,790.15-439.923,789.174-416.143Z" fill="#325014"/>
        <path id="Trazado_101175" data-name="Trazado 101175" d="M781.775-437.139s10.616-6.33,16.36-6.427c8.278.682,21.912,8.667,21.912,8.667-1.851,1.948-7.11,3.213-7.11,3.213l-12.025-2.726,3.943,3.6-5.552.974S788.688-430.129,781.775-437.139Z" fill="#326400"/>
        <path id="Trazado_101176" data-name="Trazado 101176" d="M795.02-449.678l.973-12.1s10.712-11.1,14.217-16.652c3.116,4.089,1.459,11.782-2.046,16.652l5.065-2.278-.876,5.55A18.7,18.7,0,0,1,795.02-449.678Z" fill="#326400"/>
        <path id="Trazado_101177" data-name="Trazado 101177" d="M769.02-460.476s-6.04-3.053-8.472-13.862l6.814,2.728-7.689-6.817-1.17-7.985s13.147,7.693,17.818,12.561a61.476,61.476,0,0,1,6.721,13.375C783.042-460.121,769.02-460.476,769.02-460.476Z" fill="#325014"/>
        <path id="Trazado_101178" data-name="Trazado 101178" d="M750.387-442.235l4.415-7.047-.651,7.047,7.532,7.336,8.44-6.3,4.8-10,1.17,5.714,3.762-1.79,1.82-4.981,3.115,2.573,4.934-2.573-2.953-7.123s-7.564-4.673-19.639-3.9c-11.685-1.428-18.7,4.766-18.7,4.766l-2.079,4.879S745.844-446.649,750.387-442.235Z" fill="#326400"/>
        <path id="Trazado_101179" data-name="Trazado 101179" d="M788.886-467.424l-8.57-11s-2.143-7.382,0-12.357l3.808,3.4-1.082-6.233,5.354-10.126,6.624,9.836C795.214-490.016,792.487-476.091,788.886-467.424Z" fill="#326400"/>
        <path id="Trazado_101180" data-name="Trazado 101180" d="M797.355-475.212c-.682-3.41,3.021-15.29,5.893-17.724,3.943,6.913,1.7,10.613,1.7,10.613Z" fill="#325000"/>
      </g>
    </g>
    <g id="Grupo_53462" data-name="Grupo 53462">
      <path id="Trazado_101181" data-name="Trazado 101181" d="M808.914-352.926c-2.02,4.085-24.954,7.154-33.942,1.107a3.026,3.026,0,0,1,.32-5.023,37.54,37.54,0,0,1,21.315-2.29c.72.252,10.391,1.846,10.587,1.917C809.887-356.236,811.159-354.291,808.914-352.926Z" fill="#96641e" opacity="0.3" style="mix-blend-mode: multiply;isolation: isolate"/>
      <path id="Trazado_101182" data-name="Trazado 101182" d="M856.314-341.836c-2.8,4.084-34.608,7.154-47.074,1.107-2.393-1.161-2.121-4.166.445-5.023,5.243-1.75,16.005-3.93,29.56-2.29,1,.252,14.411,1.845,14.683,1.917C857.663-345.146,859.427-343.2,856.314-341.836Z" fill="#96641e" opacity="0.3" style="mix-blend-mode: multiply;isolation: isolate"/>
      <path id="Trazado_101183" data-name="Trazado 101183" d="M913.161-330.163c-3.308,5.211-40.858,9.127-55.574,1.413a3.449,3.449,0,0,1,.524-6.408c6.19-2.234,18.895-5.015,34.9-2.923,1.18.322,17.014,2.355,17.334,2.446C914.753-334.385,916.836-331.9,913.161-330.163Z" fill="#96641e" opacity="0.3" style="mix-blend-mode: multiply;isolation: isolate"/>
      <path id="Trazado_101184" data-name="Trazado 101184" d="M960.01-332.131c-2.509,5.211-31,9.127-42.165,1.413-2.144-1.481-1.9-5.315.4-6.408,4.7-2.233,14.336-5.015,26.478-2.923.9.322,12.908,2.355,13.151,2.446C961.218-336.353,962.8-333.872,960.01-332.131Z" fill="#96641e" opacity="0.3" style="mix-blend-mode: multiply;isolation: isolate"/>
      <path id="Trazado_101185" data-name="Trazado 101185" d="M1021.316-345.663c-3.352,5.211-41.4,9.127-56.316,1.413a3.433,3.433,0,0,1,.531-6.408c6.273-2.234,19.147-5.015,35.364-2.923,1.2.322,17.241,2.355,17.566,2.446C1022.93-349.885,1025.04-347.4,1021.316-345.663Z" fill="#96641e" opacity="0.3" style="mix-blend-mode: multiply;isolation: isolate"/>
      <path id="Trazado_101186" data-name="Trazado 101186" d="M1000.372-366.272c-3.352,5.212-41.4,9.127-56.316,1.413a3.433,3.433,0,0,1,.531-6.408c6.273-2.233,19.148-5.014,35.365-2.922,1.195.321,17.24,2.354,17.565,2.445C1001.986-370.494,1004.1-368.013,1000.372-366.272Z" fill="#96641e" opacity="0.3" style="mix-blend-mode: multiply;isolation: isolate"/>
      <g id="Grupo_53455" data-name="Grupo 53455">
        <path id="Trazado_101187" data-name="Trazado 101187" d="M839.95-418.026c-2.505,2.114-.316,4.654-.316,4.654s6.838,8.038,9.8,11.846a18.259,18.259,0,0,1,3.528,11.566v45.075a3.608,3.608,0,0,1-3.595,3.6h-32.3a3.607,3.607,0,0,1-3.6-3.6v-36.4c0-1.63.005-8.143.014-8.555.3-14.51,7.084-14.709,8.024-23.11.418-3.738,1.48-13.679,2.01-16.182a3,3,0,0,1,2.5-2.644h13.01a2.578,2.578,0,0,1,2.149,2.639v8.331A3.207,3.207,0,0,1,839.95-418.026Z" fill="#e2e4f2" fill-rule="evenodd"/>
        <path id="Trazado_101188" data-name="Trazado 101188" d="M839.95-418.026c-2.505,2.114-.316,4.654-.316,4.654s6.838,8.038,9.8,11.846a18.259,18.259,0,0,1,3.528,11.566v45.075a3.608,3.608,0,0,1-3.595,3.6H821.7a3.607,3.607,0,0,1-3.6-3.6v-36.4c0-1.63,0-8.143.014-8.555.3-14.51,7.084-14.709,8.024-23.11.418-3.738,1.482-10.739,2.01-13.243a3,3,0,0,1,2.5-2.644h10.529v8.031A3.207,3.207,0,0,1,839.95-418.026Z" fill="#fff" fill-rule="evenodd"/>
        <path id="Rectángulo_5032" data-name="Rectángulo 5032" d="M.314,0H1.581A.314.314,0,0,1,1.9.314V3.748a.314.314,0,0,1-.314.314H.312A.312.312,0,0,1,0,3.75V.314A.314.314,0,0,1,.314,0Z" transform="translate(831.58 -430.175)" fill="#bcd79e"/>
        <path id="Rectángulo_5033" data-name="Rectángulo 5033" d="M1.294,0H6.525A1.294,1.294,0,0,1,7.819,1.294v7.1A1.294,1.294,0,0,1,6.525,9.686H1.295A1.295,1.295,0,0,1,0,8.391v-7.1A1.294,1.294,0,0,1,1.294,0Z" transform="translate(828.619 -437.545)" fill="#ccdfaa"/>
        <path id="Trazado_101189" data-name="Trazado 101189" d="M841.7-407.511s-1.332-1.748-4.235-.977-5.217,3.381-7.165,3.859,8.12,3.747,10.105,2.314A3.91,3.91,0,0,0,841.7-407.511Z" fill="#bcd79e" fill-rule="evenodd"/>
        <path id="Trazado_101190" data-name="Trazado 101190" d="M841.7-407.511c2.042,2.424,4.06,4.876,5.986,7.349,2.328,2.993,3.056,6.487,3.056,10.2v45.075a1.38,1.38,0,0,1-1.371,1.372h-32.3a1.383,1.383,0,0,1-1.374-1.372v-36.4c0-2.824-.042-5.689.014-8.509a25.35,25.35,0,0,1,1.931-9.975,43.062,43.062,0,0,1,3.261-5.4c3.457-4.675,9.87,1.149,15.749.993C841.729-404.308,841.778-406.83,841.7-407.511Z" fill="#bcd79e" fill-rule="evenodd"/>
        <path id="Trazado_101191" data-name="Trazado 101191" d="M841.7-407.511c2.042,2.424,4.06,4.876,5.986,7.349,2.328,2.993,3.056,6.487,3.056,10.2v45.075a1.38,1.38,0,0,1-1.371,1.372h-30.99a3.53,3.53,0,0,1-.274-1.372v-36.4c0-1.63,0-8.143.014-8.555.212-10.133,3.581-13.287,5.916-17.128,3.532-.313,8.223,2.909,12.616,2.792C841.729-404.308,841.778-406.83,841.7-407.511Z" fill="#ccdfaa" fill-rule="evenodd"/>
        <path id="Rectángulo_5034" data-name="Rectángulo 5034" d="M.762,0H4.844A.759.759,0,0,1,5.6.759V3.312a.762.762,0,0,1-.762.762H.76A.76.76,0,0,1,0,3.315V.762A.762.762,0,0,1,.762,0Z" transform="translate(853.885 -458.186)" fill="#6d6e7e"/>
        <path id="Rectángulo_5035" data-name="Rectángulo 5035" d="M1.545,0H7.782A1.543,1.543,0,0,1,9.325,1.543v6.6A1.543,1.543,0,0,1,7.782,9.685H1.543A1.543,1.543,0,0,1,0,8.142v-6.6A1.545,1.545,0,0,1,1.545,0Z" transform="translate(827.865 -444.578)" fill="#809b7f"/>
        <rect id="Rectángulo_5036" data-name="Rectángulo 5036" width="18.617" height="4.336" rx="1.951" transform="translate(822.315 -447.16)" fill="#809b7f"/>
        <path id="Trazado_101192" data-name="Trazado 101192" d="M851.4-454.181l3.252,1.284v6.993a16.842,16.842,0,0,0,3.04,9.678s.319.781-.434.781h-1.295a3.689,3.689,0,0,1-2.646-1.6c-1.216-1.588-6.189-13.223-6.189-13.223Z" fill="#9ab87e" fill-rule="evenodd"/>
        <path id="Trazado_101193" data-name="Trazado 101193" d="M851.4-454.181l3.252,1.284v3.107l-5.7,3.717c-1.032-2.335-1.828-4.2-1.828-4.2Z" fill="#809b7f" fill-rule="evenodd"/>
        <path id="Trazado_101194" data-name="Trazado 101194" d="M820.567-450.182v3.391c0,1.8,1.295,1.8,1.295,1.8H841.22a3.553,3.553,0,0,0,1.666-.768s5.791-5.1,6.927-6.081,3.757-1.057,3.757-1.057l-3.068-4.02L832.627-459.4h-3.25a3.6,3.6,0,0,0-2.168.6c-.61.635-5.528,6-5.528,6A4.04,4.04,0,0,0,820.567-450.182Z" fill="#8fad7d" fill-rule="evenodd"/>
        <path id="Rectángulo_5037" data-name="Rectángulo 5037" d="M1.6,0H12.658a1.6,1.6,0,0,1,1.6,1.6V8.082a1.6,1.6,0,0,1-1.6,1.6H1.6A1.6,1.6,0,0,1,0,8.084V1.6A1.6,1.6,0,0,1,1.6,0Z" transform="translate(825.397 -441.458)" fill="#8fad7d"/>
        <path id="Rectángulo_5038" data-name="Rectángulo 5038" d="M1.6,0H9.2a1.6,1.6,0,0,1,1.6,1.6v6.48a1.6,1.6,0,0,1-1.6,1.6H1.6A1.6,1.6,0,0,1,0,8.084V1.6A1.6,1.6,0,0,1,1.6,0Z" transform="translate(828.852 -441.458)" fill="#9ab87e"/>
        <path id="Rectángulo_5039" data-name="Rectángulo 5039" d="M1.217,0H25.066a1.217,1.217,0,0,1,1.217,1.217V5.29a1.216,1.216,0,0,1-1.216,1.216H1.216A1.216,1.216,0,0,1,0,5.29V1.217A1.217,1.217,0,0,1,1.217,0Z" transform="translate(830.615 -459.402)" fill="#9ab87e"/>
        <path id="Rectángulo_5040" data-name="Rectángulo 5040" d="M3.526,0h15.73a3.527,3.527,0,0,1,3.527,3.527v27.34a3.524,3.524,0,0,1-3.524,3.524H3.528A3.528,3.528,0,0,1,0,30.864V3.526A3.526,3.526,0,0,1,3.526,0Z" transform="translate(821.824 -388.221)" fill="#fff"/>
        <path id="Trazado_101195" data-name="Trazado 101195" d="M839.132-371.342l-3.264-8.6a.784.784,0,0,0-.733-.5l-7.064.042a.782.782,0,0,0-.482.133.779.779,0,0,0-.2,1.084l2.759,4.028h-1.827a.791.791,0,0,0-.366.092.783.783,0,0,0-.323,1.057l6.365,11.985a.786.786,0,0,0,.888.39.782.782,0,0,0,.556-.953l-2.054-7.7h5.02a.9.9,0,0,0,.276-.052A.779.779,0,0,0,839.132-371.342Z" fill="#ccdfaa" fill-rule="evenodd"/>
      </g>
      <g id="Grupo_53456" data-name="Grupo 53456">
        <rect id="Rectángulo_5041" data-name="Rectángulo 5041" width="4.897" height="44.745" transform="translate(955.23 -438.11)" fill="#e0ac9e"/>
        <path id="Trazado_101196" data-name="Trazado 101196" d="M983.79-471.677v1.338a4.915,4.915,0,0,0,1.482,3.267l11.664,11.666s3.849,3.515,3.849,7.237v75.746a5.853,5.853,0,0,1-5.836,5.837h-36.9a5.854,5.854,0,0,1-5.839-5.837v-21.515a2.964,2.964,0,0,1,3.215-2.875h7.088s2.876-.288,2.876-3.736v-30.524c0-3.449-2.876-3.736-2.876-3.736h-7.088c-3.133,0-3.072-1.663-3.215-2.875v-10.485c0-3.722,3.848-7.237,3.848-7.237l11.664-11.666a4.914,4.914,0,0,0,1.483-3.267v-4.716H983.79Z" fill="#a7b3da" fill-rule="evenodd"/>
        <path id="Rectángulo_5042" data-name="Rectángulo 5042" d="M1.6,0h14.21a1.6,1.6,0,0,1,1.6,1.6V8.081a1.6,1.6,0,0,1-1.6,1.6H1.6A1.6,1.6,0,0,1,0,8.081V1.6A1.6,1.6,0,0,1,1.6,0Z" transform="translate(967.788 -482.146)" fill="#e0ac9e"/>
        <path id="Trazado_101197" data-name="Trazado 101197" d="M980.912-480.542v6.478a1.608,1.608,0,0,1-1.6,1.6H983.6a1.464,1.464,0,0,0,.189-.012,1.609,1.609,0,0,0,1.415-1.591v-6.478a1.608,1.608,0,0,0-1.6-1.6h-4.293A1.608,1.608,0,0,1,980.912-480.542Z" fill="#d5a092" fill-rule="evenodd"/>
        <path id="Trazado_101198" data-name="Trazado 101198" d="M989.413-455.406s3.846,3.515,3.846,7.237v75.746a5.854,5.854,0,0,1-5.837,5.837h7.527a5.853,5.853,0,0,0,5.836-5.837v-75.746c0-3.722-3.849-7.237-3.849-7.237l-11.664-11.666a4.915,4.915,0,0,1-1.482-3.267v-2.134a1.464,1.464,0,0,1-.189.012h-7.334v2.122a4.892,4.892,0,0,0,1.482,3.267C979.255-465.562,989.413-455.406,989.413-455.406Z" fill="#a6aecf" fill-rule="evenodd"/>
        <path id="Trazado_101199" data-name="Trazado 101199" d="M968.213-465.443a.552.552,0,0,1,.781-.012.552.552,0,0,1,.013.783l-8.9,9.184a.555.555,0,0,1-.784.011.556.556,0,0,1-.012-.782l8.9-9.184ZM957.04-453.914a.554.554,0,0,1,.783-.01.555.555,0,0,1,.012.782l-.955.986a.555.555,0,0,1-.784.012.556.556,0,0,1-.012-.784Z" fill="#fffdf2" fill-rule="evenodd"/>
      </g>
      <g id="Grupo_53458" data-name="Grupo 53458">
        <path id="Trazado_101200" data-name="Trazado 101200" d="M860.086-417.233a13.543,13.543,0,0,1,3.909-10.154l13.96-13.961c3-3,4.641-1.537,4.641-1.537l5.538-1.32,4.3,6.95-.736,3.377v1.338a4.912,4.912,0,0,0,1.482,3.268c1.51,1.509,11.664,11.665,11.664,11.665s3.849,3.514,3.849,7.238v75.745a5.854,5.854,0,0,1-5.838,5.837H865.924a5.854,5.854,0,0,1-5.838-5.837Z" fill="#aece77" fill-rule="evenodd"/>
        <path id="Trazado_101201" data-name="Trazado 101201" d="M860.1-417.981a13.3,13.3,0,0,1,3.9-9.406l13.96-13.961c3-3,4.641-1.537,4.641-1.537l5.538-1.32,4.3,6.95-.736,3.377v1.338a4.912,4.912,0,0,0,1.482,3.268l-7.052-7.11s-2.5-2.352-5.732.587-17.051,17.932-17.051,17.932S861.372-415.78,860.1-417.981Z" fill="#8ebe5e" fill-rule="evenodd"/>
        <path id="Trazado_101202" data-name="Trazado 101202" d="M862.307-411.8s.3-2.3,5.442-2.4,15.384,5.291,19.255,5.291-11.514,5.145-17.1,4.508S862.555-408.375,862.307-411.8Z" fill="#457233" fill-rule="evenodd"/>
        <path id="Trazado_101203" data-name="Trazado 101203" d="M862.307-411.8v77.179a3.633,3.633,0,0,0,3.617,3.617h36.931a3.632,3.632,0,0,0,3.615-3.617V-407.49c0-9.8-16.821-1.079-30.343.882S862.307-411.8,862.307-411.8Z" fill="#5a8848" fill-rule="evenodd"/>
        <path id="Trazado_101204" data-name="Trazado 101204" d="M892.359-444.14l2.488,2.489a1.026,1.026,0,0,0,1.591-.127l5.86-7.893a1.46,1.46,0,0,0-.126-1.843l-1.22-1.22-1.22-1.221a1.46,1.46,0,0,0-1.842-.125L890-448.219a1.023,1.023,0,0,0-.127,1.589Z" fill="#131742" fill-rule="evenodd"/>
        <path id="Trazado_101205" data-name="Trazado 101205" d="M882.39-443.09l8.917,8.917a1.781,1.781,0,0,0,2.51,0l5.071-5.07a1.78,1.78,0,0,0,0-2.51l-8.917-8.917a1.778,1.778,0,0,0-2.508,0L882.39-445.6A1.778,1.778,0,0,0,882.39-443.09Z" fill="#457233" fill-rule="evenodd"/>
        <path id="Rectángulo_5043" data-name="Rectángulo 5043" d="M4.166,0h26.9a4.166,4.166,0,0,1,4.166,4.166V49.251a4.168,4.168,0,0,1-4.168,4.168H4.166A4.166,4.166,0,0,1,0,49.252V4.166A4.166,4.166,0,0,1,4.166,0Z" transform="translate(866.772 -397.648)" fill="#fff"/>
        <path id="Trazado_101206" data-name="Trazado 101206" d="M895.766-441.348l-3.622,3.623-.941.94a1.778,1.778,0,0,1-2.508,0l2.612,2.612a1.793,1.793,0,0,0,.391.3,1.782,1.782,0,0,0,2.119-.294l5.071-5.07a1.78,1.78,0,0,0,0-2.51l-1.416-1.416-1.2-1.2a1.776,1.776,0,0,1,0,2.508Z" fill="#131742" fill-rule="evenodd"/>
        <g id="Grupo_53457" data-name="Grupo 53457">
          <path id="Rectángulo_5044" data-name="Rectángulo 5044" d="M1.3,0h8.739a1.3,1.3,0,0,1,1.3,1.3V11.336a1.3,1.3,0,0,1-1.3,1.3H1.3a1.3,1.3,0,0,1-1.3-1.3V1.3A1.3,1.3,0,0,1,1.3,0Z" transform="translate(869.092 -359.755)" fill="#131742"/>
          <path id="Trazado_101207" data-name="Trazado 101207" d="M869.971-353.575l1.425-3.757a.336.336,0,0,1,.32-.218l3.085.018a.338.338,0,0,1,.211.059.338.338,0,0,1,.089.471l-1.205,1.761h.8a.337.337,0,0,1,.161.04.342.342,0,0,1,.139.462l-2.779,5.233a.345.345,0,0,1-.389.172.344.344,0,0,1-.242-.416l.9-3.363h-2.192a.433.433,0,0,1-.121-.024A.339.339,0,0,1,869.971-353.575Z" fill="#d1ac38" fill-rule="evenodd"/>
          <path id="Trazado_101208" data-name="Trazado 101208" d="M876.817-356.788a.17.17,0,0,1-.169-.171.169.169,0,0,1,.169-.168h1.951a.17.17,0,0,1,.17.168.171.171,0,0,1-.17.171Zm0,7.04a.169.169,0,0,1-.169-.168.17.17,0,0,1,.169-.171h1.951a.171.171,0,0,1,.17.171.17.17,0,0,1-.17.168Zm0-1.405a.17.17,0,0,1-.169-.171.171.171,0,0,1,.169-.172h1.951a.172.172,0,0,1,.17.172.171.171,0,0,1-.17.171Zm0-1.409a.17.17,0,0,1-.169-.171.171.171,0,0,1,.169-.172h1.951a.172.172,0,0,1,.17.172.171.171,0,0,1-.17.171Zm0-1.408a.171.171,0,0,1-.169-.172.17.17,0,0,1,.169-.171h1.951a.171.171,0,0,1,.17.171.172.172,0,0,1-.17.172Zm0-1.409a.17.17,0,0,1-.169-.171.17.17,0,0,1,.169-.169h1.951a.171.171,0,0,1,.17.169.171.171,0,0,1-.17.171Z" fill="#fff" fill-rule="evenodd"/>
        </g>
        <path id="Trazado_101209" data-name="Trazado 101209" d="M891.834-426.656a.555.555,0,0,1,.011-.783.555.555,0,0,1,.784.01l7.678,7.924a.555.555,0,0,1-.01.783.555.555,0,0,1-.784-.01l-7.679-7.924Zm9.623,9.931a.555.555,0,0,1,.011-.784.555.555,0,0,1,.784.011l.739.762a.555.555,0,0,1-.011.784.554.554,0,0,1-.783-.011Z" fill="#fff" fill-rule="evenodd"/>
        <path id="Trazado_101210" data-name="Trazado 101210" d="M883.119-389.074h2.539a1.7,1.7,0,0,1,1.693,1.692v7.122h7.123a1.7,1.7,0,0,1,1.692,1.693v2.539a1.7,1.7,0,0,1-1.692,1.692h-7.123v7.122a1.7,1.7,0,0,1-1.693,1.693h-2.539a1.7,1.7,0,0,1-1.691-1.693v-7.122H874.3a1.7,1.7,0,0,1-1.692-1.692v-2.539a1.7,1.7,0,0,1,1.692-1.693h7.123v-7.122A1.7,1.7,0,0,1,883.119-389.074Z" fill="#ce542b" fill-rule="evenodd"/>
        <path id="Trazado_101211" data-name="Trazado 101211" d="M895.787-394.238a.246.246,0,0,1-.246-.247.246.246,0,0,1,.246-.246H898.6a.246.246,0,0,1,.246.246.246.246,0,0,1-.246.247Zm0,10.175a.246.246,0,0,1-.246-.246.246.246,0,0,1,.246-.247H898.6a.246.246,0,0,1,.246.247.246.246,0,0,1-.246.246Zm0-2.034a.247.247,0,0,1-.246-.247.246.246,0,0,1,.246-.246H898.6a.246.246,0,0,1,.246.246.247.247,0,0,1-.246.247Zm0-2.035a.246.246,0,0,1-.246-.247.246.246,0,0,1,.246-.246H898.6a.246.246,0,0,1,.246.246.246.246,0,0,1-.246.247Zm0-2.035a.246.246,0,0,1-.246-.246.246.246,0,0,1,.246-.247H898.6a.246.246,0,0,1,.246.247.246.246,0,0,1-.246.246Zm0-2.035a.246.246,0,0,1-.246-.246.246.246,0,0,1,.246-.247H898.6a.246.246,0,0,1,.246.247.246.246,0,0,1-.246.246Z" fill="#131742" fill-rule="evenodd"/>
      </g>
      <g id="Grupo_53459" data-name="Grupo 53459">
        <path id="Trazado_101212" data-name="Trazado 101212" d="M931.226-407.5c2.505,2.116.318,4.656.318,4.656s-6.84,8.038-9.8,11.846a18.271,18.271,0,0,0-3.525,11.566v45.074a3.607,3.607,0,0,0,3.595,3.6h32.3a3.606,3.606,0,0,0,3.595-3.6v-36.394c0-1.632,0-8.144-.012-8.558-.306-14.508-7.086-14.707-8.026-23.108-.416-3.739-1.479-13.681-2.009-16.182a3,3,0,0,0-2.5-2.644H932.145a2.578,2.578,0,0,0-2.15,2.638v8.33A3.2,3.2,0,0,0,931.226-407.5Z" fill="#ced1e8" fill-rule="evenodd"/>
        <path id="Trazado_101213" data-name="Trazado 101213" d="M931.226-407.5c2.505,2.116.318,4.656.318,4.656s-6.84,8.038-9.8,11.846a18.271,18.271,0,0,0-3.525,11.566v45.074a3.607,3.607,0,0,0,3.595,3.6h27.666a3.606,3.606,0,0,0,3.595-3.6v-36.394c0-1.632-.006-8.144-.012-8.558-.306-14.508-7.086-14.707-8.026-23.108-.416-3.738-1.482-10.741-2.009-13.244a3.005,3.005,0,0,0-2.505-2.644H929.995v8.03A3.2,3.2,0,0,0,931.226-407.5Z" fill="#fff" fill-rule="evenodd"/>
        <path id="Rectángulo_5045" data-name="Rectángulo 5045" d="M.314,0H1.583A.316.316,0,0,1,1.9.316V3.747a.314.314,0,0,1-.314.314H.316A.316.316,0,0,1,0,3.745V.314A.314.314,0,0,1,.314,0Z" transform="translate(937.699 -419.647)" fill="#8fccee"/>
        <path id="Rectángulo_5046" data-name="Rectángulo 5046" d="M1.294,0H6.526a1.3,1.3,0,0,1,1.3,1.3v7.1A1.294,1.294,0,0,1,6.527,9.684H1.3A1.3,1.3,0,0,1,0,8.389v-7.1A1.294,1.294,0,0,1,1.294,0Z" transform="translate(934.738 -427.017)" fill="#bddff2"/>
        <path id="Trazado_101214" data-name="Trazado 101214" d="M929.481-396.985s1.332-1.746,4.234-.975,5.219,3.381,7.166,3.858-8.121,3.748-10.1,2.316A3.913,3.913,0,0,1,929.481-396.985Z" fill="#8fccee" fill-rule="evenodd"/>
        <path id="Trazado_101215" data-name="Trazado 101215" d="M929.481-396.985c-2.04,2.426-4.061,4.879-5.984,7.351a15.977,15.977,0,0,0-3.059,10.2v45.074a1.385,1.385,0,0,0,1.375,1.372h32.3a1.384,1.384,0,0,0,1.375-1.372v-36.394c0-2.826.043-5.69-.015-8.51a25.343,25.343,0,0,0-1.929-9.977,43.247,43.247,0,0,0-3.261-5.4c-3.457-4.676-9.87,1.149-15.749.992C929.447-393.78,929.4-396.3,929.481-396.985Z" fill="#8fccee" fill-rule="evenodd"/>
        <path id="Trazado_101216" data-name="Trazado 101216" d="M929.481-396.985c-2.04,2.426-4.061,4.879-5.984,7.351a15.977,15.977,0,0,0-3.059,10.2v45.074a1.385,1.385,0,0,0,1.375,1.372H952.8a3.576,3.576,0,0,0,.272-1.372v-36.394c0-1.632-.006-8.144-.012-8.558-.214-10.131-3.583-13.285-5.916-17.126-3.534-.314-8.225,2.909-12.616,2.791C929.447-393.78,929.4-396.3,929.481-396.985Z" fill="#bddff2" fill-rule="evenodd"/>
        <path id="Rectángulo_5047" data-name="Rectángulo 5047" d="M.761,0H4.846a.761.761,0,0,1,.761.761V3.31a.762.762,0,0,1-.762.762H.762A.762.762,0,0,1,0,3.31V.761A.761.761,0,0,1,.761,0Z" transform="translate(911.687 -447.658)" fill="#131742"/>
        <rect id="Rectángulo_5048" data-name="Rectángulo 5048" width="9.327" height="9.684" rx="1.543" transform="translate(933.985 -434.05)" fill="#131742"/>
        <rect id="Rectángulo_5049" data-name="Rectángulo 5049" width="18.615" height="4.338" rx="1.951" transform="translate(930.246 -436.633)" fill="#1d204d"/>
        <path id="Trazado_101217" data-name="Trazado 101217" d="M919.777-443.653l-3.256,1.284v6.993a16.837,16.837,0,0,1-3.04,9.678s-.315.779.438.779h1.295a3.685,3.685,0,0,0,2.646-1.6c1.215-1.586,6.185-13.222,6.185-13.222Z" fill="#c3322b" fill-rule="evenodd"/>
        <path id="Trazado_101218" data-name="Trazado 101218" d="M919.777-443.653l-3.256,1.284v3.107l5.7,3.718c1.032-2.335,1.825-4.2,1.825-4.2Z" fill="#a42429" fill-rule="evenodd"/>
        <path id="Trazado_101219" data-name="Trazado 101219" d="M950.609-439.654v3.391c0,1.8-1.295,1.8-1.295,1.8H929.958a3.559,3.559,0,0,1-1.666-.768s-5.793-5.1-6.929-6.08-3.754-1.057-3.754-1.057l3.068-4.02,17.874-2.485H941.8a3.584,3.584,0,0,1,2.168.6c.61.635,5.528,6,5.528,6A4.03,4.03,0,0,1,950.609-439.654Z" fill="#c3322b" fill-rule="evenodd"/>
        <path id="Rectángulo_5050" data-name="Rectángulo 5050" d="M1.6,0H12.659a1.6,1.6,0,0,1,1.6,1.6V8.083a1.6,1.6,0,0,1-1.6,1.6H1.6A1.6,1.6,0,0,1,0,8.081V1.6A1.6,1.6,0,0,1,1.6,0Z" transform="translate(931.517 -430.93)" fill="#a42429"/>
        <path id="Rectángulo_5051" data-name="Rectángulo 5051" d="M1.6,0h7.6a1.6,1.6,0,0,1,1.6,1.6V8.081a1.6,1.6,0,0,1-1.6,1.6H1.6A1.6,1.6,0,0,1,0,8.081V1.6A1.6,1.6,0,0,1,1.6,0Z" transform="translate(931.517 -430.93)" fill="#c3322b"/>
        <path id="Rectángulo_5052" data-name="Rectángulo 5052" d="M1.216,0H25.067a1.219,1.219,0,0,1,1.219,1.219V5.29A1.216,1.216,0,0,1,25.07,6.506H1.219A1.219,1.219,0,0,1,0,5.287V1.216A1.216,1.216,0,0,1,1.216,0Z" transform="translate(914.277 -448.874)" fill="#ce542b"/>
        <path id="Rectángulo_5053" data-name="Rectángulo 5053" d="M3.524,0h15.73a3.528,3.528,0,0,1,3.528,3.528V30.867a3.528,3.528,0,0,1-3.528,3.528H3.524A3.524,3.524,0,0,1,0,30.87V3.524A3.524,3.524,0,0,1,3.524,0Z" transform="translate(926.571 -377.694)" fill="#131742"/>
        <path id="Trazado_101220" data-name="Trazado 101220" d="M932.044-360.812l3.267-8.6a.776.776,0,0,1,.731-.5l7.065.04a.77.77,0,0,1,.481.135.781.781,0,0,1,.205,1.084l-2.759,4.026h1.825a.8.8,0,0,1,.368.092.784.784,0,0,1,.321,1.057l-6.363,11.985a.784.784,0,0,1-.888.389.782.782,0,0,1-.557-.952l2.054-7.7h-5.022a.71.71,0,0,1-.272-.052A.777.777,0,0,1,932.044-360.812Z" fill="#8fccee" fill-rule="evenodd"/>
      </g>
      <g id="Grupo_53460" data-name="Grupo 53460">
        <path id="Trazado_101221" data-name="Trazado 101221" d="M1003.334-433.737v1.693a4.943,4.943,0,0,0,2,3.563c7.839,5.877,14.7,9.708,16.566,14.071s-.851,6.639-.851,6.639-1.647,1.424-3.249,2.851a4.668,4.668,0,0,0-1.292,3.784s3.469,42.31,3.469,49.791-7.126,7.662-7.126,7.662H975.088s-7.125-.181-7.125-7.662,3.471-49.791,3.471-49.791a4.678,4.678,0,0,0-1.293-3.784c-1.6-1.427-3.25-2.851-3.25-2.851s-2.721-2.272-.85-6.639,8.727-8.194,16.566-14.071a4.943,4.943,0,0,0,2-3.563v-1.693h18.724Z" fill="#8fccee" fill-rule="evenodd"/>
        <path id="Trazado_101222" data-name="Trazado 101222" d="M974.226-400.838s.077-1.357,1.995-1.513,11.606-.312,18.474,5.631S975.324-387.747,974.226-400.838Z" fill="#6aa2d8" fill-rule="evenodd"/>
        <path id="Trazado_101223" data-name="Trazado 101223" d="M974.226-400.838q-1.038,12.668-1.98,25.348c-.365,4.934-.721,9.87-1.031,14.806-.193,3.058-.446,6.277-.446,9.339,0,1.767.485,3.292,2.1,4.177a6.078,6.078,0,0,0,2.224.677h37.678c2.835-.12,4.409-2.074,4.409-4.854,0-3.062-.254-6.281-.447-9.339-.309-4.936-.664-9.872-1.029-14.806q-.624-8.4-1.292-16.8c-1.112-9.765-10.586-9.287-24.694-4.584S974.226-400.838,974.226-400.838Z" fill="#fff" fill-rule="evenodd"/>
        <path id="Rectángulo_5054" data-name="Rectángulo 5054" d="M2.026,0H19.972A2.024,2.024,0,0,1,22,2.024v8.185a2.024,2.024,0,0,1-2.024,2.024H2.024A2.024,2.024,0,0,1,0,10.21V2.026A2.026,2.026,0,0,1,2.026,0Z" transform="translate(982.973 -445.003)" fill="#131742"/>
        <path id="Rectángulo_5055" data-name="Rectángulo 5055" d="M2.026,0H13.752a2.026,2.026,0,0,1,2.026,2.026v8.182a2.026,2.026,0,0,1-2.026,2.026H2.024A2.024,2.024,0,0,1,0,10.21V2.026A2.026,2.026,0,0,1,2.026,0Z" transform="translate(982.973 -445.003)" fill="#1d204d"/>
        <path id="Trazado_101224" data-name="Trazado 101224" d="M1002.945-432.77H992.193v.726a4.942,4.942,0,0,0,2.005,3.563c7.838,5.877,14.694,9.708,16.565,14.071s-.852,6.639-.852,6.639-1.647,1.424-3.248,2.851a4.668,4.668,0,0,0-1.292,3.784s.03.362.082,1.023c5.138.135,8.335,2.4,8.954,7.824q.666,8.4,1.292,16.8c.365,4.934.72,9.87,1.029,14.806.193,3.058.447,6.277.447,9.339,0,2.78-1.574,4.734-4.409,4.854h-5.387a8.025,8.025,0,0,1-5.662,2.808h11.137s7.126-.181,7.126-7.662-3.469-49.791-3.469-49.791a4.668,4.668,0,0,1,1.292-3.784c1.6-1.427,3.249-2.851,3.249-2.851s2.722-2.272.851-6.639-8.727-8.194-16.566-14.071a4.942,4.942,0,0,1-2.006-3.563v-.764A2.019,2.019,0,0,1,1002.945-432.77Z" fill="#71aee1" fill-rule="evenodd"/>
        <path id="Trazado_101225" data-name="Trazado 101225" d="M1014.407-392.289c-.619-5.423-3.816-7.689-8.954-7.824.53,6.5,3.39,41.98,3.39,48.768a7.708,7.708,0,0,1-1.464,4.854h5.387c2.835-.12,4.409-2.074,4.409-4.854,0-3.062-.254-6.281-.447-9.339-.309-4.936-.664-9.872-1.029-14.806Q1015.075-383.89,1014.407-392.289Z" fill="#8fccee" fill-rule="evenodd"/>
        <path id="Trazado_101226" data-name="Trazado 101226" d="M983.419-426.931a.7.7,0,0,1,.98.132.7.7,0,0,1-.131.98l-.814.621a.7.7,0,0,1-.98-.131.7.7,0,0,1,.13-.98l.815-.622Zm-3.344,2.551a.7.7,0,0,1,.981.132.7.7,0,0,1-.131.983l-10.932,8.347a.7.7,0,0,1-.982-.132.7.7,0,0,1,.132-.979Z" fill="#fff" fill-rule="evenodd"/>
        <path id="Rectángulo_5056" data-name="Rectángulo 5056" d="M1.644,0H12.679a1.643,1.643,0,0,1,1.643,1.643V14.322a1.644,1.644,0,0,1-1.644,1.644H1.641A1.641,1.641,0,0,1,0,14.324V1.644A1.644,1.644,0,0,1,1.644,0Z" transform="translate(974.575 -366.003)" fill="#131742"/>
        <path id="Trazado_101227" data-name="Trazado 101227" d="M984.334-362.252a.214.214,0,0,1-.214-.215.214.214,0,0,1,.214-.214H986.8a.215.215,0,0,1,.216.214.215.215,0,0,1-.216.215Zm0,8.9a.217.217,0,0,1-.214-.218.214.214,0,0,1,.214-.215H986.8a.216.216,0,0,1,.216.215.218.218,0,0,1-.216.218Zm0-1.78a.216.216,0,0,1-.214-.217.214.214,0,0,1,.214-.215H986.8a.215.215,0,0,1,.216.215.217.217,0,0,1-.216.217Zm0-1.779a.216.216,0,0,1-.214-.218.216.216,0,0,1,.214-.214H986.8a.217.217,0,0,1,.216.214.217.217,0,0,1-.216.218Zm0-1.779a.216.216,0,0,1-.214-.214.216.216,0,0,1,.214-.218H986.8a.217.217,0,0,1,.216.218.217.217,0,0,1-.216.214Zm0-1.779a.214.214,0,0,1-.214-.214.216.216,0,0,1,.214-.218H986.8a.217.217,0,0,1,.216.218.215.215,0,0,1-.216.214Z" fill="#fff" fill-rule="evenodd"/>
        <path id="Trazado_101228" data-name="Trazado 101228" d="M981.977-356.627h0a2.8,2.8,0,0,1,.191,1.02,2.784,2.784,0,0,1-2.785,2.786,2.785,2.785,0,0,1-2.785-2.786,2.8,2.8,0,0,1,.193-1.02h0l2.59-6.593Z" fill="#8fccee" fill-rule="evenodd"/>
      </g>
      <g id="Grupo_53461" data-name="Grupo 53461">
        <path id="Trazado_101229" data-name="Trazado 101229" d="M797.043-407.284v1.032a3.006,3.006,0,0,0,1.223,2.172c4.782,3.586,8.963,5.922,10.1,8.586s-.518,4.048-.518,4.048-1,.87-1.982,1.739a2.852,2.852,0,0,0-.789,2.309s2.117,25.808,2.117,30.371a4.454,4.454,0,0,1-4.346,4.672H779.815a4.456,4.456,0,0,1-4.348-4.672c0-4.563,2.119-30.371,2.119-30.371a2.852,2.852,0,0,0-.789-2.309c-.978-.869-1.984-1.739-1.984-1.739s-1.658-1.387-.517-4.048,5.323-5,10.1-8.586a3.007,3.007,0,0,0,1.222-2.172v-1.032h11.42Z" fill="#efc432" fill-rule="evenodd"/>
        <path id="Trazado_101230" data-name="Trazado 101230" d="M779.288-387.217s.048-.826,1.218-.922,7.078-.19,11.269,3.433S779.959-379.231,779.288-387.217Z" fill="#f0d1c6" fill-rule="evenodd"/>
        <path id="Trazado_101231" data-name="Trazado 101231" d="M779.288-387.217q-.633,7.727-1.206,15.461c-.224,3.01-.441,6.02-.631,9.033-.116,1.865-.271,3.828-.271,5.7a2.638,2.638,0,0,0,1.277,2.55,3.736,3.736,0,0,0,1.358.411H802.8a2.694,2.694,0,0,0,2.689-2.961c0-1.868-.155-3.831-.271-5.7-.19-3.013-.408-6.023-.63-9.033Q804.2-376.877,803.8-382c-.679-5.956-6.458-5.665-15.064-2.8S779.288-387.217,779.288-387.217Z" fill="#fff" fill-rule="evenodd"/>
        <rect id="Rectángulo_5057" data-name="Rectángulo 5057" width="13.418" height="7.463" rx="1.236" transform="translate(784.624 -414.157)" fill="#131742"/>
        <rect id="Rectángulo_5058" data-name="Rectángulo 5058" width="9.624" height="7.463" rx="1.236" transform="translate(784.624 -414.157)" fill="#1d204d"/>
        <path id="Trazado_101232" data-name="Trazado 101232" d="M796.807-406.694h-6.559v.442a3.006,3.006,0,0,0,1.223,2.172c4.78,3.586,8.963,5.922,10.1,8.586s-.519,4.048-.519,4.048-1,.87-1.982,1.739a2.852,2.852,0,0,0-.789,2.309s.018.221.052.625c3.134.083,5.083,1.464,5.461,4.771q.408,5.121.787,10.246c.222,3.01.44,6.02.63,9.033.116,1.865.271,3.828.271,5.7a2.694,2.694,0,0,1-2.689,2.961h-3.285a4.9,4.9,0,0,1-3.456,1.711h6.795a4.454,4.454,0,0,0,4.346-4.672c0-4.563-2.117-30.371-2.117-30.371a2.852,2.852,0,0,1,.789-2.309c.978-.869,1.982-1.739,1.982-1.739s1.66-1.387.519-4.048-5.325-5-10.1-8.586a3.006,3.006,0,0,1-1.223-2.172v-.465A1.226,1.226,0,0,1,796.807-406.694Z" fill="#df932f" fill-rule="evenodd"/>
        <path id="Trazado_101233" data-name="Trazado 101233" d="M803.8-382c-.378-3.307-2.327-4.688-5.461-4.771.322,3.963,2.066,25.6,2.066,29.746a4.712,4.712,0,0,1-.891,2.961H802.8a2.694,2.694,0,0,0,2.689-2.961c0-1.868-.155-3.831-.271-5.7-.19-3.013-.408-6.023-.63-9.033Q804.2-376.877,803.8-382Z" fill="#f0d1c6" fill-rule="evenodd"/>
        <path id="Trazado_101234" data-name="Trazado 101234" d="M784.9-403.134a.427.427,0,0,1,.6.08.429.429,0,0,1-.08.6l-.5.377a.427.427,0,0,1-.6-.08.427.427,0,0,1,.079-.6l.5-.38Zm-2.039,1.559a.428.428,0,0,1,.6.079.424.424,0,0,1-.08.6l-6.669,5.093a.427.427,0,0,1-.6-.08.427.427,0,0,1,.081-.6Z" fill="#fff" fill-rule="evenodd"/>
        <rect id="Rectángulo_5059" data-name="Rectángulo 5059" width="8.736" height="9.738" rx="1.001" transform="translate(779.501 -365.969)" fill="#131742"/>
        <path id="Trazado_101235" data-name="Trazado 101235" d="M785.456-363.678a.133.133,0,0,1-.132-.132.13.13,0,0,1,.132-.131h1.5a.13.13,0,0,1,.131.131.133.133,0,0,1-.131.132Zm0,5.423a.131.131,0,0,1-.132-.132.133.133,0,0,1,.132-.132h1.5a.134.134,0,0,1,.131.132.131.131,0,0,1-.131.132Zm0-1.084a.131.131,0,0,1-.132-.132.13.13,0,0,1,.132-.131h1.5a.131.131,0,0,1,.131.131.131.131,0,0,1-.131.132Zm0-1.087a.131.131,0,0,1-.132-.132.131.131,0,0,1,.132-.129h1.5a.131.131,0,0,1,.131.129.132.132,0,0,1-.131.132Zm0-1.084a.131.131,0,0,1-.132-.132.132.132,0,0,1,.132-.131h1.5a.133.133,0,0,1,.131.131.131.131,0,0,1-.131.132Zm0-1.084a.131.131,0,0,1-.132-.132.131.131,0,0,1,.132-.132h1.5a.132.132,0,0,1,.131.132.132.132,0,0,1-.131.132Z" fill="#fff" fill-rule="evenodd"/>
        <path id="Trazado_101236" data-name="Trazado 101236" d="M784.017-360.249h0a1.7,1.7,0,0,1,.117.622,1.7,1.7,0,0,1-1.7,1.7,1.7,1.7,0,0,1-1.7-1.7,1.722,1.722,0,0,1,.116-.622h0l1.58-4.02Z" fill="#8fccee" fill-rule="evenodd"/>
      </g>
    </g>
  </g>
</svg>
