<svg xmlns="http://www.w3.org/2000/svg" width="126" height="126" viewBox="0 0 126 126">
  <g id="Grupo_55669" data-name="Grupo 55669" transform="translate(-262 -5268)">
    <g id="Elipse_4272" data-name="Elipse 4272" transform="translate(262 5268)" fill="#fff" stroke="#09b291" stroke-width="5">
      <circle cx="63" cy="63" r="63" stroke="none"/>
      <circle cx="63" cy="63" r="60.5" fill="none"/>
    </g>
    <circle id="Elipse_4273" data-name="Elipse 4273" cx="9.5" cy="9.5" r="9.5" transform="translate(288 5297)" fill="#09b291"/>
    <circle id="Elipse_4282" data-name="Elipse 4282" cx="9.5" cy="9.5" r="9.5" transform="translate(288 5313)" fill="#09b291"/>
    <circle id="Elipse_4287" data-name="Elipse 4287" cx="9.5" cy="9.5" r="9.5" transform="translate(288 5329)" fill="#09b291"/>
    <circle id="Elipse_4292" data-name="Elipse 4292" cx="9.5" cy="9.5" r="9.5" transform="translate(288 5345)" fill="#09b291"/>
    <circle id="Elipse_4274" data-name="Elipse 4274" cx="9.5" cy="9.5" r="9.5" transform="translate(302 5297)" fill="#09b291"/>
    <circle id="Elipse_4281" data-name="Elipse 4281" cx="9.5" cy="9.5" r="9.5" transform="translate(302 5313)" fill="#09b291"/>
    <circle id="Elipse_4286" data-name="Elipse 4286" cx="9.5" cy="9.5" r="9.5" transform="translate(302 5329)" fill="#09b291"/>
    <circle id="Elipse_4291" data-name="Elipse 4291" cx="9.5" cy="9.5" r="9.5" transform="translate(302 5345)" fill="#09b291"/>
    <circle id="Elipse_4275" data-name="Elipse 4275" cx="9.5" cy="9.5" r="9.5" transform="translate(316 5297)" fill="#09b291"/>
    <circle id="Elipse_4280" data-name="Elipse 4280" cx="9.5" cy="9.5" r="9.5" transform="translate(316 5313)" fill="#09b291"/>
    <circle id="Elipse_4285" data-name="Elipse 4285" cx="9.5" cy="9.5" r="9.5" transform="translate(316 5329)" fill="#09b291"/>
    <circle id="Elipse_4290" data-name="Elipse 4290" cx="9.5" cy="9.5" r="9.5" transform="translate(316 5345)" fill="#09b291"/>
    <circle id="Elipse_4276" data-name="Elipse 4276" cx="9.5" cy="9.5" r="9.5" transform="translate(329 5297)" fill="#09b291"/>
    <circle id="Elipse_4279" data-name="Elipse 4279" cx="9.5" cy="9.5" r="9.5" transform="translate(329 5313)" fill="#09b291"/>
    <circle id="Elipse_4284" data-name="Elipse 4284" cx="9.5" cy="9.5" r="9.5" transform="translate(329 5329)" fill="#09b291"/>
    <circle id="Elipse_4289" data-name="Elipse 4289" cx="9.5" cy="9.5" r="9.5" transform="translate(329 5345)" fill="#09b291"/>
    <circle id="Elipse_4277" data-name="Elipse 4277" cx="9.5" cy="9.5" r="9.5" transform="translate(343 5297)" fill="#09b291"/>
    <circle id="Elipse_4278" data-name="Elipse 4278" cx="9.5" cy="9.5" r="9.5" transform="translate(343 5313)" fill="#09b291"/>
    <circle id="Elipse_4283" data-name="Elipse 4283" cx="9.5" cy="9.5" r="9.5" transform="translate(343 5329)" fill="#09b291"/>
    <circle id="Elipse_4288" data-name="Elipse 4288" cx="9.5" cy="9.5" r="9.5" transform="translate(343 5345)" fill="#09b291"/>
  </g>
</svg>
