<svg xmlns="http://www.w3.org/2000/svg" width="126" height="126" viewBox="0 0 126 126">
  <g id="Grupo_58920" data-name="Grupo 58920" transform="translate(-324 -2173)">
    <g id="Elipse_4269" data-name="Elipse 4269" transform="translate(324 2173)" fill="#fff" stroke="#09b291" stroke-width="5">
      <circle cx="63" cy="63" r="63" stroke="none"/>
      <circle cx="63" cy="63" r="60.5" fill="none"/>
    </g>
    <path id="Trazado_101237" data-name="Trazado 101237" d="M26.2,74.444a54.675,54.675,0,0,0,13.647,1.827c11.074,0,17.42-3.734,25.176-9.009L76.3,59.587l-1.228-1.842a11.03,11.03,0,0,0-13.407-4.075A20.353,20.353,0,0,0,44.963,40.652a28.822,28.822,0,0,1,6.6-16.4,11.17,11.17,0,0,0,13.974-1.479A23.624,23.624,0,0,0,72.445,5.937V0H66.508a23.574,23.574,0,0,0-16.77,6.975,11.17,11.17,0,0,0-1.371,14.139,32.773,32.773,0,0,0-5.716,9.613,32.771,32.771,0,0,0-5.716-9.613A11.178,11.178,0,0,0,35.564,6.975,23.574,23.574,0,0,0,18.795,0H12.858V5.937a23.624,23.624,0,0,0,6.906,16.838,11.17,11.17,0,0,0,13.974,1.479,28.823,28.823,0,0,1,6.6,16.4,20.069,20.069,0,0,0-13.129,7.093,14.341,14.341,0,0,0-6.348-2.331c-3.322-.21-6.351,1.519-10.168,4.042H.047V71.8H2.281C14.758,71.8,20.836,73.205,26.2,74.444ZM52.9,10.135a19.135,19.135,0,0,1,13.61-5.666h1.468V5.937a19.185,19.185,0,0,1-5.6,13.678,6.714,6.714,0,0,1-7.628,1.308l7.628-7.628-3.16-3.16L51.59,17.763A6.714,6.714,0,0,1,52.9,10.135ZM33.713,17.763l-7.628-7.628-3.16,3.16,7.628,7.628a6.714,6.714,0,0,1-7.628-1.308,19.185,19.185,0,0,1-5.6-13.678V4.469h1.468A19.135,19.135,0,0,1,32.4,10.135,6.714,6.714,0,0,1,33.713,17.763Zm8.939,27.225a15.84,15.84,0,0,1,15.09,11A34.618,34.618,0,0,1,52.9,58.4a11.171,11.171,0,0,0-10.245-6.7H34.778a5.034,5.034,0,0,1-2.832-.877l-.937-.633A15.615,15.615,0,0,1,42.651,44.988ZM4.516,53.926h7.529c2.261-1.423,5.884-4.217,8.537-4.051,2.064.13,4.723,1.84,8.858,4.641a9.486,9.486,0,0,0,5.338,1.644h7.873a6.706,6.706,0,0,1,5.961,3.63,28.112,28.112,0,0,1-7.588.87,34.274,34.274,0,0,1-9.863-1.746l-1.211-.4-1.413,4.24,1.211.4a38.61,38.61,0,0,0,11.973,1.985A36.97,36.97,0,0,0,62.168,58.46a6.569,6.569,0,0,1,7.648.135l-7.308,4.971C53.968,69.374,48.932,71.8,39.845,71.8A50.3,50.3,0,0,1,27.2,70.089,93.313,93.313,0,0,0,4.516,67.348V53.926Z" transform="translate(349.465 2201.729)" fill="#065949"/>
  </g>
</svg>
