<svg xmlns="http://www.w3.org/2000/svg" width="233.774" height="205" viewBox="0 0 233.774 205">
  <g id="Grupo_57042" data-name="Grupo 57042" transform="translate(-29.229 -40.683)">
    <g id="Background_Complete" data-name="Background Complete" transform="translate(37.701 40.683)">
      <g id="Grupo_56753" data-name="Grupo 56753" transform="translate(111.008 147.973)">
        <g id="Grupo_56727" data-name="Grupo 56727">
          <g id="Grupo_56726" data-name="Grupo 56726">
            <g id="Grupo_56725" data-name="Grupo 56725">
              <g id="Grupo_56724" data-name="Grupo 56724">
                <path id="Trazado_103784" data-name="Trazado 103784" d="M264.365,402.353c-8.344-3.951-11.673-13.341-12.85-22.089-.2-1.46-.615-2.964-.14-4.354a3,3,0,0,1,3.343-2.142c1.164.325,1.847,1.5,2.625,2.435a8.613,8.613,0,0,0,3.956,2.676,3.281,3.281,0,0,0,3.026-.234c1.136-.9.991-2.658.737-4.1q-.709-4.033-1.416-8.065a13.637,13.637,0,0,1-.29-4.363,4.542,4.542,0,0,1,2.3-3.5,2.755,2.755,0,0,1,3.671,1.252,13.521,13.521,0,0,1,.345,1.791,1.54,1.54,0,0,0,1.13,1.279c.605.072,1.114-.435,1.474-.931a19.467,19.467,0,0,0,2.567-5.787,27.008,27.008,0,0,1,2.307-5.914,7.92,7.92,0,0,1,4.789-3.863,4.742,4.742,0,0,1,5.334,2.379c.869,1.947.031,4.214-.983,6.08a32.692,32.692,0,0,1-5.629,7.532,2.693,2.693,0,0,0-.918,1.4c-.151,1.016.923,1.818,1.927,1.973a16.911,16.911,0,0,0,3.435-.191,3.293,3.293,0,0,1,3.058,1.224c.841,1.376-.131,3.132-1.175,4.351a28.006,28.006,0,0,1-7.374,6.1,9.447,9.447,0,0,0-2.787,1.99,2.71,2.71,0,0,0-.338,3.206,2.759,2.759,0,0,0,3.151.637,19.518,19.518,0,0,0,2.964-1.746c1.858-1.085,4.444-1.381,6,.119a4.635,4.635,0,0,1,1.17,3.959,10.684,10.684,0,0,1-1.585,3.939,28.159,28.159,0,0,1-10.447,10.338c-4.333,2.375-8.526,3.529-13.384,2.629" transform="translate(-251.157 -346.316)" fill="#f5f5f5"/>
              </g>
            </g>
          </g>
        </g>
        <g id="Grupo_56732" data-name="Grupo 56732" transform="translate(14.531 0.872)">
          <g id="Grupo_56731" data-name="Grupo 56731">
            <g id="Grupo_56730" data-name="Grupo 56730">
              <g id="Grupo_56729" data-name="Grupo 56729">
                <g id="Grupo_56728" data-name="Grupo 56728">
                  <path id="Trazado_103785" data-name="Trazado 103785" d="M281.17,397.449a131.337,131.337,0,0,1,2.78-14.8l.928-3.842c.307-1.26.612-2.51.986-3.714a65.66,65.66,0,0,1,2.544-6.8c.914-2.123,1.858-4.1,2.754-5.949s1.773-3.548,2.634-5.066a51.958,51.958,0,0,1,4.592-6.857c.6-.764,1.091-1.342,1.426-1.728l.384-.438a1.137,1.137,0,0,1,.138-.143,1.046,1.046,0,0,1-.117.161l-.364.455c-.322.4-.8.986-1.386,1.759a55.01,55.01,0,0,0-4.508,6.887c-.848,1.52-1.709,3.224-2.6,5.07s-1.823,3.83-2.728,5.949a66.391,66.391,0,0,0-2.519,6.775c-.37,1.2-.671,2.437-.978,3.7l-.926,3.84a134.519,134.519,0,0,0-2.8,14.767" transform="translate(-281.17 -348.117)" fill="#e0e0e0"/>
                </g>
              </g>
            </g>
          </g>
        </g>
        <g id="Grupo_56737" data-name="Grupo 56737" transform="translate(14.5 12.294)">
          <g id="Grupo_56736" data-name="Grupo 56736">
            <g id="Grupo_56735" data-name="Grupo 56735">
              <g id="Grupo_56734" data-name="Grupo 56734">
                <g id="Grupo_56733" data-name="Grupo 56733">
                  <path id="Trazado_103786" data-name="Trazado 103786" d="M285.9,387.24a2.981,2.981,0,0,1-.245-.592c-.143-.386-.332-.951-.555-1.653-.447-1.4-1-3.362-1.6-5.524s-1.178-4.109-1.646-5.5c-.232-.7-.425-1.259-.564-1.646a2.967,2.967,0,0,1-.187-.613,2.863,2.863,0,0,1,.284.574c.169.376.39.93.645,1.621.516,1.381,1.125,3.327,1.725,5.492l1.523,5.543c.187.665.346,1.226.473,1.676A2.932,2.932,0,0,1,285.9,387.24Z" transform="translate(-281.106 -371.71)" fill="#e0e0e0"/>
                </g>
              </g>
            </g>
          </g>
        </g>
        <g id="Grupo_56742" data-name="Grupo 56742" transform="translate(19.299 21.21)">
          <g id="Grupo_56741" data-name="Grupo 56741">
            <g id="Grupo_56740" data-name="Grupo 56740">
              <g id="Grupo_56739" data-name="Grupo 56739">
                <g id="Grupo_56738" data-name="Grupo 56738">
                  <path id="Trazado_103787" data-name="Trazado 103787" d="M309,390.128a4.055,4.055,0,0,1-.726.214c-.469.123-1.149.3-1.982.54-1.669.471-3.953,1.2-6.436,2.12s-4.694,1.852-6.274,2.571c-.793.354-1.427.658-1.866.865a4.032,4.032,0,0,1-.694.3,4.007,4.007,0,0,1,.647-.4c.426-.236,1.048-.567,1.833-.945,1.564-.766,3.772-1.727,6.262-2.653a66.386,66.386,0,0,1,6.48-2.05c.842-.219,1.531-.366,2.009-.457A4.051,4.051,0,0,1,309,390.128Z" transform="translate(-291.018 -390.124)" fill="#e0e0e0"/>
                </g>
              </g>
            </g>
          </g>
        </g>
        <g id="Grupo_56747" data-name="Grupo 56747" transform="translate(1.342 27.693)">
          <g id="Grupo_56746" data-name="Grupo 56746">
            <g id="Grupo_56745" data-name="Grupo 56745">
              <g id="Grupo_56744" data-name="Grupo 56744">
                <g id="Grupo_56743" data-name="Grupo 56743">
                  <path id="Trazado_103788" data-name="Trazado 103788" d="M267.288,425.646a.965.965,0,0,1-.166-.2l-.431-.618c-.372-.538-.89-1.331-1.517-2.319-1.256-1.975-2.9-4.759-4.682-7.854s-3.4-5.892-4.611-7.89l-1.443-2.363-.389-.645a.964.964,0,0,1-.12-.236,1.012,1.012,0,0,1,.166.206l.431.617c.372.538.89,1.331,1.517,2.319,1.255,1.975,2.9,4.759,4.682,7.856s3.4,5.89,4.611,7.889l1.443,2.363.389.645A.966.966,0,0,1,267.288,425.646Z" transform="translate(-253.928 -403.515)" fill="#e0e0e0"/>
                </g>
              </g>
            </g>
          </g>
        </g>
        <g id="Grupo_56752" data-name="Grupo 56752" transform="translate(14.701 37.698)">
          <g id="Grupo_56751" data-name="Grupo 56751">
            <g id="Grupo_56750" data-name="Grupo 56750">
              <g id="Grupo_56749" data-name="Grupo 56749">
                <g id="Grupo_56748" data-name="Grupo 56748">
                  <path id="Trazado_103789" data-name="Trazado 103789" d="M304.848,424.181a1,1,0,0,1-.228.142l-.676.361-2.5,1.3c-2.108,1.1-5,2.655-8.2,4.376s-6.109,3.251-8.24,4.308c-1.066.529-1.932.948-2.537,1.226l-.7.316a.982.982,0,0,1-.252.093,1.029,1.029,0,0,1,.228-.143l.676-.361,2.5-1.3c2.108-1.1,5-2.655,8.2-4.376s6.107-3.25,8.239-4.307c1.066-.529,1.932-.948,2.537-1.226l.7-.316A1,1,0,0,1,304.848,424.181Z" transform="translate(-281.522 -424.179)" fill="#e0e0e0"/>
                </g>
              </g>
            </g>
          </g>
        </g>
      </g>
      <g id="Grupo_56777" data-name="Grupo 56777" transform="translate(49.83 99.955)">
        <g id="Grupo_56755" data-name="Grupo 56755">
          <g id="Grupo_56754" data-name="Grupo 56754">
            <path id="Trazado_103790" data-name="Trazado 103790" d="M145.214,247.27s-5.753.8-2.523,13.4a150.585,150.585,0,0,0,5.969,19.093s.434,2.854-1.866,2.765-6.991-1.956-8.582.526c-1.65,2.575-.208,5.677,3.4,8.923s11.252,10.651,11.941,11.323,1.189,2.058-.388,2.248-12.774-1.123-13.08,4.228,11.232,12.745,12.478,13.577,1.442,1.484,1.163,2.208-4-.073-7.2-.316-6.953.035-6.871,3.137,6.14,10.94,23.815,16.768l8.367,2.164,6.185-6.091c12.442-13.841,13.8-23.653,12.334-26.386s-4.865-1.109-7.521.692-5.49,4.342-6.092,3.853-.756-1.152-.088-2.494,7.006-13.491,4.081-17.983-11.988,2.214-13.451,2.831-1.713-.85-1.454-1.758c.263-.926,3.218-11.15,4.735-15.76s1.228-8.019-1.483-9.433c-2.614-1.364-5.757,2.588-7.709,3.807s-2.994-1.472-2.994-1.472a150.517,150.517,0,0,0-4.308-19.534c-3.458-12.539-8.972-10.292-8.972-10.292" transform="translate(-137.532 -247.138)" fill="#ebebeb"/>
          </g>
        </g>
        <g id="Grupo_56758" data-name="Grupo 56758" transform="translate(10.554 11.42)">
          <g id="Grupo_56757" data-name="Grupo 56757">
            <g id="Grupo_56756" data-name="Grupo 56756">
              <path id="Trazado_103791" data-name="Trazado 103791" d="M183.072,361.563c-2.5-9.218-6.677-25.677-10.335-39.789S165.76,294.9,163.3,285.667l-2.92-10.928-.792-2.972c-.085-.333-.152-.59-.2-.775s-.059-.266-.059-.266.033.087.086.259.128.439.225.768l.84,2.959c.727,2.57,1.753,6.3,3,10.906,2.5,9.218,5.855,21.981,9.511,36.088s7.8,30.577,10.259,39.807" transform="translate(-159.332 -270.726)" fill="#e0e0e0"/>
            </g>
          </g>
        </g>
        <g id="Grupo_56761" data-name="Grupo 56761" transform="translate(7.135 38.791)">
          <g id="Grupo_56760" data-name="Grupo 56760">
            <g id="Grupo_56759" data-name="Grupo 56759">
              <path id="Trazado_103792" data-name="Trazado 103792" d="M152.269,327.26a2.808,2.808,0,0,1,.551.3c.347.2.839.513,1.443.9,1.207.778,2.847,1.895,4.634,3.16l4.564,3.255,1.388.977a2.821,2.821,0,0,1,.5.38,2.771,2.771,0,0,1-.553-.291c-.346-.2-.838-.514-1.439-.908-1.2-.79-2.824-1.928-4.611-3.193l-4.585-3.221-1.394-.971A2.817,2.817,0,0,1,152.269,327.26Z" transform="translate(-152.268 -327.259)" fill="#e0e0e0"/>
            </g>
          </g>
        </g>
        <g id="Grupo_56764" data-name="Grupo 56764" transform="translate(20.907 31.942)">
          <g id="Grupo_56763" data-name="Grupo 56763">
            <g id="Grupo_56762" data-name="Grupo 56762">
              <path id="Trazado_103793" data-name="Trazado 103793" d="M180.717,328.522c-.062-.04,2.091-3.522,4.81-7.777s4.974-7.673,5.037-7.633-2.091,3.521-4.811,7.777S180.779,328.562,180.717,328.522Z" transform="translate(-180.715 -313.112)" fill="#e0e0e0"/>
            </g>
          </g>
        </g>
        <g id="Grupo_56767" data-name="Grupo 56767" transform="translate(25.546 58.129)">
          <g id="Grupo_56766" data-name="Grupo 56766">
            <g id="Grupo_56765" data-name="Grupo 56765">
              <path id="Trazado_103794" data-name="Trazado 103794" d="M190.3,378.345a2.9,2.9,0,0,1,.459-.444l1.305-1.142c1.1-.965,2.614-2.306,4.231-3.845s3.038-2.978,4.056-4.03l1.207-1.245a2.948,2.948,0,0,1,.466-.436,2.876,2.876,0,0,1-.388.507c-.264.314-.653.762-1.146,1.3-.984,1.087-2.385,2.554-4.01,4.094s-3.16,2.865-4.293,3.8c-.569.463-1.033.832-1.361,1.078A2.9,2.9,0,0,1,190.3,378.345Z" transform="translate(-190.297 -367.203)" fill="#e0e0e0"/>
            </g>
          </g>
        </g>
        <g id="Grupo_56770" data-name="Grupo 56770" transform="translate(11.385 64.269)">
          <g id="Grupo_56769" data-name="Grupo 56769">
            <g id="Grupo_56768" data-name="Grupo 56768">
              <path id="Trazado_103795" data-name="Trazado 103795" d="M161.047,379.886a2.514,2.514,0,0,1,.573.139l1.532.474c1.29.411,3.066,1,5.022,1.659s3.723,1.277,5,1.734l1.5.554a2.532,2.532,0,0,1,.54.238,2.513,2.513,0,0,1-.574-.139l-1.532-.474c-1.29-.411-3.066-1-5.023-1.66s-3.722-1.277-5-1.734l-1.5-.555A2.477,2.477,0,0,1,161.047,379.886Z" transform="translate(-161.047 -379.883)" fill="#e0e0e0"/>
            </g>
          </g>
        </g>
        <g id="Grupo_56773" data-name="Grupo 56773" transform="translate(13.021 84.142)">
          <g id="Grupo_56772" data-name="Grupo 56772">
            <g id="Grupo_56771" data-name="Grupo 56771">
              <path id="Trazado_103796" data-name="Trazado 103796" d="M164.426,420.933a4,4,0,0,1,.732.185l1.966.6c1.656.518,3.938,1.251,6.453,2.076s4.789,1.587,6.43,2.151l1.939.681a4.067,4.067,0,0,1,.7.285,4.116,4.116,0,0,1-.732-.185l-1.966-.6c-1.656-.518-3.938-1.251-6.454-2.076s-4.787-1.587-6.429-2.151l-1.939-.681A4.08,4.08,0,0,1,164.426,420.933Z" transform="translate(-164.426 -420.93)" fill="#e0e0e0"/>
            </g>
          </g>
        </g>
        <g id="Grupo_56776" data-name="Grupo 56776" transform="translate(30.843 75.317)">
          <g id="Grupo_56775" data-name="Grupo 56775">
            <g id="Grupo_56774" data-name="Grupo 56774">
              <path id="Trazado_103797" data-name="Trazado 103797" d="M201.238,417.243a4.628,4.628,0,0,1,.567-.577l1.6-1.508c1.352-1.274,3.211-3.041,5.21-5.05s3.765-3.87,5.033-5.228l1.5-1.607a4.723,4.723,0,0,1,.574-.569,4.622,4.622,0,0,1-.5.639c-.333.4-.823.971-1.44,1.666-1.233,1.392-2.978,3.28-4.983,5.289s-3.886,3.761-5.271,5c-.695.618-1.262,1.113-1.662,1.445A4.7,4.7,0,0,1,201.238,417.243Z" transform="translate(-201.238 -402.703)" fill="#e0e0e0"/>
            </g>
          </g>
        </g>
      </g>
      <g id="Grupo_56778" data-name="Grupo 56778" transform="translate(8.392 0)">
        <path id="Trazado_103798" data-name="Trazado 103798" d="M82.332,72.72l-4.725-1.474A4.206,4.206,0,0,1,72.225,74a4,4,0,0,1-2.941-3.6,4.435,4.435,0,0,1,1.53-3.722c1.214-1.071,3.345-1.725,6.354-.17l3.324-10.653L75.819,54.4l-1.947,6.24a9.557,9.557,0,0,0-9.334,6.871c-2.155,6.909,3.54,10.447,6.192,11.274C72.759,79.418,79.821,81.083,82.332,72.72Z" transform="translate(-64.062 -47.759)" fill="#f5f5f5"/>
        <rect id="Rectángulo_5777" data-name="Rectángulo 5777" width="4.967" height="4.639" transform="matrix(-0.955, -0.298, 0.298, -0.955, 17.127, 5.908)" fill="#f5f5f5"/>
      </g>
      <g id="Grupo_56779" data-name="Grupo 56779" transform="translate(43.554 8.343)">
        <path id="Trazado_103799" data-name="Trazado 103799" d="M128.535,62.505l1.892-.5a1.663,1.663,0,0,1,1.224-2.053,1.583,1.583,0,0,1,1.741.586,1.753,1.753,0,0,1,.269,1.568A2.123,2.123,0,0,1,131.57,63.5l1.125,4.266,1.871-.494-.659-2.5a3.779,3.779,0,0,0,1.682-4.262,3.517,3.517,0,0,0-4.443-2.475A3.357,3.357,0,0,0,128.535,62.505Z" transform="translate(-128.349 -57.916)" fill="#ebebeb"/>
        <rect id="Rectángulo_5778" data-name="Rectángulo 5778" width="1.964" height="1.834" transform="matrix(0.967, -0.255, 0.255, 0.967, 4.572, 10.73)" fill="#ebebeb"/>
      </g>
      <g id="Grupo_56780" data-name="Grupo 56780" transform="translate(215.479 59.453)">
        <path id="Trazado_103800" data-name="Trazado 103800" d="M451.543,165.962l1.84.666a1.663,1.663,0,0,1,2.175-.991,1.582,1.582,0,0,1,1.1,1.472,1.754,1.754,0,0,1-.671,1.443,2.123,2.123,0,0,1-2.512-.046l-1.5,4.148,1.819.659.88-2.429a3.779,3.779,0,0,0,3.809-2.547,3.517,3.517,0,0,0-2.245-4.564A3.358,3.358,0,0,0,451.543,165.962Z" transform="translate(-451.03 -163.481)" fill="#ebebeb"/>
        <rect id="Rectángulo_5779" data-name="Rectángulo 5779" width="1.964" height="1.834" transform="translate(0.625 10.026) rotate(19.914)" fill="#ebebeb"/>
      </g>
      <g id="Grupo_56781" data-name="Grupo 56781" transform="translate(0 72.375)">
        <path id="Trazado_103801" data-name="Trazado 103801" d="M47.468,200.8l3.894-1.5a3.546,3.546,0,0,1,2.115-4.637,3.376,3.376,0,0,1,3.826.836,3.739,3.739,0,0,1,.938,3.26c-.241,1.344-1.307,2.89-4.109,3.439l3.382,8.78,3.85-1.483-1.982-5.143a8.057,8.057,0,0,0,2.57-9.427c-2.194-5.694-7.809-5.049-9.995-4.207C50.286,191.364,44.748,193.961,47.468,200.8Z" transform="translate(-46.729 -190.171)" fill="#f5f5f5"/>
        <rect id="Rectángulo_5780" data-name="Rectángulo 5780" width="4.187" height="3.911" transform="matrix(0.933, -0.359, 0.359, 0.933, 11.471, 22.622)" fill="#f5f5f5"/>
      </g>
      <g id="Grupo_56782" data-name="Grupo 56782" transform="translate(206.136 86.694)">
        <path id="Trazado_103802" data-name="Trazado 103802" d="M443.27,234.954l-2.759,1.063a2.513,2.513,0,0,1-1.5,3.286,2.393,2.393,0,0,1-2.711-.592,2.65,2.65,0,0,1-.665-2.31c.171-.952.926-2.048,2.912-2.437l-2.4-6.221-2.728,1.051,1.4,3.644a5.709,5.709,0,0,0-1.821,6.68c1.554,4.035,5.534,3.578,7.083,2.981C441.273,241.642,445.2,239.8,443.27,234.954Z" transform="translate(-431.9 -223.871)" fill="#f5f5f5"/>
        <rect id="Rectángulo_5781" data-name="Rectángulo 5781" width="2.967" height="2.771" transform="translate(3.765 2.586) rotate(158.931)" fill="#f5f5f5"/>
      </g>
    </g>
    <g id="Floor" transform="translate(29.229 245.396)">
      <g id="Grupo_56783" data-name="Grupo 56783">
        <path id="Trazado_103803" data-name="Trazado 103803" d="M263,463.637c0,.069-52.336.126-116.881.126-64.568,0-116.893-.057-116.893-.126s52.325-.126,116.893-.126C210.667,463.511,263,463.568,263,463.637Z" transform="translate(-29.229 -463.511)" fill="#263238"/>
      </g>
    </g>
    <g id="Plant" transform="translate(41.31 161.362)">
      <g id="Grupo_56809" data-name="Grupo 56809" transform="translate(0)">
        <g id="Grupo_56786" data-name="Grupo 56786" transform="translate(0 35.797)">
          <g id="Grupo_56785" data-name="Grupo 56785">
            <g id="Grupo_56784" data-name="Grupo 56784">
              <path id="Trazado_103804" data-name="Trazado 103804" d="M72.8,399.668c.459-1.78-.708-3.568-2.017-4.859s-2.873-2.449-3.554-4.157c-1.1-2.767.38-6.35-1.5-8.659-1.107-1.358-3.093-1.813-4.076-3.264a7.418,7.418,0,0,1-.885-2.593,26.34,26.34,0,0,0-6.551-12.257,22.859,22.859,0,0,0,2.57,11.813,15.022,15.022,0,0,1,1.951,4.487c.41,2.631-1.058,5.341-.412,7.924.739,2.954,4.058,4.931,4.215,7.972.133,2.571-2.108,4.827-1.941,7.4a6.938,6.938,0,0,0,1.144,3.049c1.988,3.3,4.908,5.581,9.334,5.507l5.421.19Z" transform="translate(-54.182 -363.879)" fill="#e8505b"/>
            </g>
          </g>
        </g>
        <g id="Grupo_56790" data-name="Grupo 56790" transform="translate(0 35.797)" opacity="0.3">
          <g id="Grupo_56789" data-name="Grupo 56789">
            <g id="Grupo_56788" data-name="Grupo 56788">
              <g id="Grupo_56787" data-name="Grupo 56787">
                <path id="Trazado_103805" data-name="Trazado 103805" d="M72.8,399.668c.459-1.78-.708-3.568-2.017-4.859s-2.873-2.449-3.554-4.157c-1.1-2.767.38-6.35-1.5-8.659-1.107-1.358-3.093-1.813-4.076-3.264a7.418,7.418,0,0,1-.885-2.593,26.34,26.34,0,0,0-6.551-12.257,22.859,22.859,0,0,0,2.57,11.813,15.022,15.022,0,0,1,1.951,4.487c.41,2.631-1.058,5.341-.412,7.924.739,2.954,4.058,4.931,4.215,7.972.133,2.571-2.108,4.827-1.941,7.4a6.938,6.938,0,0,0,1.144,3.049c1.988,3.3,4.908,5.581,9.334,5.507l5.421.19Z" transform="translate(-54.182 -363.879)"/>
              </g>
            </g>
          </g>
        </g>
        <g id="Grupo_56808" data-name="Grupo 56808" transform="translate(4.783)">
          <g id="Grupo_56799" data-name="Grupo 56799" transform="translate(15.883 17.174)">
            <g id="Grupo_56794" data-name="Grupo 56794">
              <g id="Grupo_56793" data-name="Grupo 56793">
                <g id="Grupo_56792" data-name="Grupo 56792">
                  <g id="Grupo_56791" data-name="Grupo 56791">
                    <path id="Trazado_103806" data-name="Trazado 103806" d="M99.615,392.517a4.332,4.332,0,0,0,1.493-.032,9.048,9.048,0,0,0,1.762-.443,7.468,7.468,0,0,0,2.176-1.191,3.037,3.037,0,0,0,.895-1.192,5.611,5.611,0,0,0,.255-1.62,15.647,15.647,0,0,1,.127-1.754,4.833,4.833,0,0,1,.662-1.743c.639-1.123,1.7-2.186,2.043-3.711a12.276,12.276,0,0,0-.147-4.752,10.089,10.089,0,0,1,.126-5.093c.581-1.7,1.771-3.226,2.365-5.138.592-1.93.316-4.007.441-6.054a8.032,8.032,0,0,1,.706-3.01c.439-.96,1.047-1.864,1.522-2.875a21.06,21.06,0,0,0,1.4-6.625q.192-1.715.389-3.464a16.948,16.948,0,0,1,.6-3.467,30.524,30.524,0,0,1,1.3-3.355,11.128,11.128,0,0,0,.629-1.753,17.605,17.605,0,0,0,.175-1.864,21.956,21.956,0,0,0-.144-3.753c-.147-1.251-.373-2.491-.507-3.745l-.024-.216-.028-.25-.222.111a8.371,8.371,0,0,0-2.918,2.463,13.277,13.277,0,0,0-1.793,3.3,40.738,40.738,0,0,0-1.688,7.1,19.278,19.278,0,0,1-2.228,6.557c-.594.965-1.313,1.847-1.941,2.789a7.662,7.662,0,0,0-1.345,3.09c-.321,2.293.943,4.308.68,6.338a7.035,7.035,0,0,1-.989,2.814c-.492.866-1.071,1.669-1.62,2.476a15.937,15.937,0,0,0-1.455,2.5,7.916,7.916,0,0,0-.666,2.718c-.132,1.828.127,3.562-.007,5.2a11.956,11.956,0,0,1-1.338,4.456c-.656,1.334-1.385,2.54-2,3.71a19.108,19.108,0,0,0-.822,1.727A8.507,8.507,0,0,0,97,384.482a10.826,10.826,0,0,0-.04,3.094,7.8,7.8,0,0,0,1.551,3.946,3.781,3.781,0,0,0,.439.475,2.181,2.181,0,0,0,.356.3c.2.149.31.217.31.217a6.851,6.851,0,0,1-1.05-1.038,7.85,7.85,0,0,1-1.472-3.92,10.762,10.762,0,0,1,.069-3.05,8.37,8.37,0,0,1,.479-1.673,18.805,18.805,0,0,1,.827-1.7c.616-1.16,1.353-2.361,2.023-3.7a12.173,12.173,0,0,0,1.385-4.534c.142-1.672-.109-3.413.029-5.2a7.658,7.658,0,0,1,.654-2.627A15.678,15.678,0,0,1,104,362.619c.549-.8,1.134-1.608,1.64-2.492a7.319,7.319,0,0,0,1.035-2.929c.261-2.163-.993-4.191-.667-6.323a7.356,7.356,0,0,1,1.3-2.955c.619-.924,1.342-1.807,1.954-2.8a19.571,19.571,0,0,0,2.279-6.666,40.515,40.515,0,0,1,1.677-7.04,12.951,12.951,0,0,1,1.746-3.218,8.029,8.029,0,0,1,2.8-2.361l-.25-.138c.008.069.016.144.025.218.136,1.269.363,2.512.508,3.748a21.644,21.644,0,0,1,.144,3.7,17.615,17.615,0,0,1-.167,1.809,10.877,10.877,0,0,1-.608,1.69,30.858,30.858,0,0,0-1.307,3.392,17.277,17.277,0,0,0-.611,3.525q-.194,1.75-.384,3.467a20.815,20.815,0,0,1-1.356,6.527c-.458.981-1.065,1.889-1.517,2.88a8.351,8.351,0,0,0-.727,3.121c-.118,2.092.154,4.137-.412,5.99s-1.745,3.383-2.342,5.133a10.316,10.316,0,0,0-.116,5.219,12.125,12.125,0,0,1,.176,4.662c-.314,1.456-1.344,2.509-2,3.665a5.022,5.022,0,0,0-.672,1.813,15.627,15.627,0,0,0-.114,1.775,5.5,5.5,0,0,1-.231,1.575,2.907,2.907,0,0,1-.841,1.141,7.456,7.456,0,0,1-2.123,1.2,9.361,9.361,0,0,1-1.737.471,6.962,6.962,0,0,1-1.1.106C99.745,392.513,99.615,392.517,99.615,392.517Z" transform="translate(-96.868 -325.415)" fill="#263238"/>
                  </g>
                </g>
              </g>
            </g>
            <g id="Grupo_56798" data-name="Grupo 56798" transform="translate(2.746 3.235)">
              <g id="Grupo_56797" data-name="Grupo 56797">
                <g id="Grupo_56796" data-name="Grupo 56796">
                  <g id="Grupo_56795" data-name="Grupo 56795">
                    <path id="Trazado_103807" data-name="Trazado 103807" d="M119.67,332.1a.647.647,0,0,0-.052.164l-.12.488c-.107.427-.234,1.072-.439,1.877s-.7,1.711-1.125,2.832c-.437,1.111-.881,2.4-1.288,3.845s-.78,3.052-1.163,4.771a20.076,20.076,0,0,1-1.735,5.294c-.444.881-.945,1.772-1.342,2.747a12.791,12.791,0,0,0-.78,3.111,62.938,62.938,0,0,1-1.169,6.558c-1.087,4.443-2.123,8.674-3.065,12.527-.966,3.839-1.836,7.3-2.569,10.217l-1.7,6.895q-.282,1.192-.446,1.879c-.043.2-.079.36-.107.49a.619.619,0,0,0-.025.17.649.649,0,0,0,.06-.161l.141-.483.509-1.863,1.81-6.868,2.642-10.2c.951-3.854,2-8.087,3.094-12.53a62.129,62.129,0,0,0,1.166-6.586,12.508,12.508,0,0,1,.751-3.036c.383-.95.876-1.837,1.32-2.727a20.226,20.226,0,0,0,1.731-5.377c.371-1.725.722-3.325,1.118-4.768s.815-2.729,1.233-3.841c.4-1.116.874-2.036,1.074-2.866s.291-1.464.376-1.9c.034-.2.063-.364.086-.5A.632.632,0,0,0,119.67,332.1Z" transform="translate(-102.539 -332.097)" fill="#263238"/>
                  </g>
                </g>
              </g>
            </g>
          </g>
          <g id="Grupo_56807" data-name="Grupo 56807">
            <g id="Grupo_56802" data-name="Grupo 56802">
              <g id="Grupo_56801" data-name="Grupo 56801">
                <g id="Grupo_56800" data-name="Grupo 56800">
                  <path id="Trazado_103808" data-name="Trazado 103808" d="M83.649,374.235c3.541-2.1,4.557-8.493,3.08-12.339s-4.063-7.359-4.461-11.459c-.306-3.152.725-6.386-.009-9.467-.991-4.157-5.049-7.378-5-11.651.026-2.4,1.39-4.654,1.282-7.049-.133-2.938-2.388-5.269-3.785-7.858-2.138-3.962-2.278-8.645-3.009-13.088s-2.424-9.2-6.361-11.383c-.581,3.772-1.573,6.354-1.262,11.463.112,1.835,2.244,5.347,2.534,9.369.173,2.4.293,4.811.441,7.216a23.132,23.132,0,0,0,1.133,6.914c.643,1.678,1.676,3.2,2.153,4.935.9,3.259-.282,6.789.443,10.092.614,2.8,2.551,5.205,2.946,8.042.556,3.986-2.024,8.127-.7,11.929.656,1.887,2.207,3.4,2.648,5.349.342,1.512-.031,3.112.278,4.63.5,2.446,5.164,4.346,7.656,4.2" transform="translate(-64.062 -289.942)" fill="#e8505b"/>
                </g>
              </g>
            </g>
            <g id="Grupo_56806" data-name="Grupo 56806" transform="translate(2.295 3.744)">
              <g id="Grupo_56805" data-name="Grupo 56805">
                <g id="Grupo_56804" data-name="Grupo 56804">
                  <g id="Grupo_56803" data-name="Grupo 56803">
                    <path id="Trazado_103809" data-name="Trazado 103809" d="M68.8,297.675a.988.988,0,0,0,.015.213c.02.159.047.363.08.62.081.545.172,1.344.357,2.379s.733,2.211,1.161,3.622c.452,1.407.9,3.031,1.3,4.849s.742,3.828,1.1,5.992a25.11,25.11,0,0,0,1.815,6.775c.5,1.132,1.054,2.265,1.472,3.472a15.592,15.592,0,0,1,.747,3.826,77.189,77.189,0,0,0,1.039,8.249l3.057,15.755,2.636,12.832,1.806,8.646.508,2.347c.059.252.105.453.141.609a.969.969,0,0,0,.06.2.965.965,0,0,0-.025-.212c-.027-.157-.062-.36-.107-.615-.106-.563-.255-1.353-.444-2.36-.405-2.07-.984-5.025-1.7-8.667l-2.562-12.847c-.932-4.843-1.955-10.164-3.029-15.75a78.235,78.235,0,0,1-1.042-8.222,15.869,15.869,0,0,0-.772-3.9c-.431-1.233-1-2.37-1.493-3.493A25.012,25.012,0,0,1,73.1,315.3c-.367-2.16-.72-4.177-1.142-6s-.883-3.449-1.354-4.856c-.45-1.417-1-2.577-1.215-3.591s-.317-1.823-.42-2.361c-.047-.255-.085-.457-.114-.614A.929.929,0,0,0,68.8,297.675Z" transform="translate(-68.802 -297.675)" fill="#263238"/>
                  </g>
                </g>
              </g>
            </g>
          </g>
        </g>
      </g>
    </g>
    <g id="Speech_Bubble" data-name="Speech Bubble" transform="translate(221.357 47.17)">
      <g id="Grupo_56817" data-name="Grupo 56817" transform="translate(0 0)">
        <g id="Grupo_56810" data-name="Grupo 56810" transform="translate(10.561 8.04)">
          <path id="Trazado_103810" data-name="Trazado 103810" d="M413.783,82.322h-1.927a1.638,1.638,0,0,1-1.681,1.648,1.56,1.56,0,0,1-1.511-1,1.728,1.728,0,0,1,.138-1.561,2.091,2.091,0,0,1,2.342-.8V76.267h-1.906v2.546a3.721,3.721,0,0,0-2.673,3.636,3.463,3.463,0,0,0,3.609,3.473A3.307,3.307,0,0,0,413.783,82.322Z" transform="translate(-406.565 -73.566)" fill="#e8505b"/>
          <rect id="Rectángulo_5782" data-name="Rectángulo 5782" width="1.934" height="1.806" transform="translate(4.584 1.806) rotate(180)" fill="#e8505b"/>
        </g>
        <g id="Grupo_56816" data-name="Grupo 56816">
          <g id="Grupo_56815" data-name="Grupo 56815">
            <g id="Grupo_56814" data-name="Grupo 56814">
              <g id="Grupo_56813" data-name="Grupo 56813">
                <g id="Grupo_56812" data-name="Grupo 56812">
                  <g id="Grupo_56811" data-name="Grupo 56811">
                    <path id="Trazado_103811" data-name="Trazado 103811" d="M413.087,68.3a1.373,1.373,0,0,0,0-.244c0-.177-.012-.414-.02-.717-.007-.157-.007-.335-.023-.528s-.057-.4-.089-.632l-.106-.738-.2-.824a13.348,13.348,0,0,0-1.742-4,14.1,14.1,0,0,0-10.6-6.476,14.555,14.555,0,0,0-1.932-.039c-.326.023-.659.016-.988.064l-.995.15a14.173,14.173,0,0,0-3.932,1.343,15.132,15.132,0,0,0-3.533,2.568,14.837,14.837,0,0,0-2.658,3.7,13.44,13.44,0,0,0-1.384,4.51,8.94,8.94,0,0,0-.1,1.2,10.821,10.821,0,0,0-.022,1.216,14.409,14.409,0,0,0,.308,2.436,14.234,14.234,0,0,0,2.04,4.848l-.015-.147-1.982,4.939-.118.292.3-.083,5.28-1.452-.13-.025a14.173,14.173,0,0,0,6.033,2.635,12.838,12.838,0,0,0,3.091.192,9.927,9.927,0,0,0,1.484-.14l.722-.112c.238-.045.468-.117.7-.173a14.126,14.126,0,0,0,8.033-5.51,13.5,13.5,0,0,0,1.73-3.279l.264-.739.178-.7.159-.642c.04-.206.061-.4.09-.591.047-.373.112-.7.126-.989s.017-.525.024-.726c0-.184.007-.33.01-.443a.676.676,0,0,0-.005-.15.7.7,0,0,0-.021.15c-.009.113-.02.258-.035.441q-.02.3-.048.721c-.022.285-.094.61-.149.979a14.045,14.045,0,0,1-10.417,11.23c-.228.054-.454.124-.687.167l-.71.107a9.762,9.762,0,0,1-1.458.131,12.585,12.585,0,0,1-3.03-.2,13.914,13.914,0,0,1-5.9-2.6l-.059-.045-.071.019-5.283,1.441.186.209q.972-2.413,1.988-4.936l.031-.077-.046-.07a13.942,13.942,0,0,1-1.993-4.74,14.162,14.162,0,0,1-.3-2.381,10.591,10.591,0,0,1,.021-1.189,8.645,8.645,0,0,1,.1-1.176,13.156,13.156,0,0,1,1.349-4.411,14.568,14.568,0,0,1,2.594-3.624,14.871,14.871,0,0,1,3.453-2.522,13.926,13.926,0,0,1,3.847-1.328l.975-.151c.322-.048.648-.043.969-.066a13.92,13.92,0,0,1,12.367,6.339,13.433,13.433,0,0,1,1.773,3.931l.216.814.12.73q.056.338.1.626c.021.192.026.368.039.524.022.3.039.537.052.713A1.345,1.345,0,0,0,413.087,68.3Z" transform="translate(-384.752 -54.081)" fill="#263238"/>
                  </g>
                </g>
              </g>
            </g>
          </g>
        </g>
      </g>
    </g>
    <g id="Question_Mark" data-name="Question Mark" transform="translate(82.856 66.066)">
      <g id="Grupo_56826" data-name="Grupo 56826" transform="translate(0 0)">
        <g id="Grupo_56820" data-name="Grupo 56820">
          <g id="Grupo_56818" data-name="Grupo 56818" transform="translate(11.581)">
            <path id="Trazado_103812" data-name="Trazado 103812" d="M145.06,145.531h27.962s0-23.477,24.4-23.9c12.671-.218,19.241,8.082,21.91,14.44a25.054,25.054,0,0,1-1.991,22.647c-4.742,7.819-14.956,15.676-33.8,12.356l-.179,62.3h27.648v-36.93s38.777-10.024,38.777-52.757c0-40.887-33.064-49.72-50.834-50.287-9.889-.316-13.473-.741-25.7,1C157.663,96.606,144.731,114.7,145.06,145.531Z" transform="translate(-145.054 -93.11)" fill="#e94b46"/>
            <rect id="Rectángulo_5783" data-name="Rectángulo 5783" width="28.059" height="26.206" transform="translate(38.227 153.25)" fill="#e8505b"/>
            <rect id="Rectángulo_5784" data-name="Rectángulo 5784" width="28.059" height="26.206" transform="translate(38.227 153.25)" fill="#e94b46" opacity="0.1"/>
          </g>
          <g id="Grupo_56819" data-name="Grupo 56819" transform="translate(0 0.192)">
            <path id="Trazado_103814" data-name="Trazado 103814" d="M121.139,145.735H149.1s0-23.477,24.4-23.9c12.671-.218,19.24,8.082,21.91,14.44a25.055,25.055,0,0,1-1.992,22.647c-4.742,7.819-15.135,14.926-33.979,11.607v63.045h27.648v-36.93s38.777-10.024,38.777-52.757c0-40.887-36.666-50.384-52.361-50.383C161.5,93.506,120.611,96.408,121.139,145.735Z" transform="translate(-121.134 -93.506)" fill="#a12622"/>
            <rect id="Rectángulo_5785" data-name="Rectángulo 5785" width="28.059" height="26.206" transform="translate(38.226 153.058)" fill="#a12622"/>
          </g>
        </g>
        <g id="Grupo_56821" data-name="Grupo 56821" transform="translate(27.799 28.369)">
          <path id="Trazado_103816" data-name="Trazado 103816" d="M206.275,151.99a2.6,2.6,0,0,1-.418-.026c-.274-.014-.672-.091-1.191-.1a24.363,24.363,0,0,0-4.384.182,31.415,31.415,0,0,0-6.329,1.489,27.014,27.014,0,0,0-3.527,1.517,18.75,18.75,0,0,0-3.449,2.234,17.105,17.105,0,0,0-2.823,2.982,27.589,27.589,0,0,0-4.62,9.2,24.213,24.213,0,0,0-.841,4.307c-.06.516-.075.919-.089,1.192a2.639,2.639,0,0,1-.038.417,2.565,2.565,0,0,1-.013-.418c0-.274,0-.68.043-1.2a22.41,22.41,0,0,1,.767-4.346,27.765,27.765,0,0,1,2.473-6.062,28.283,28.283,0,0,1,2.122-3.242,17.18,17.18,0,0,1,2.858-3.027,18.791,18.791,0,0,1,3.5-2.258,26.73,26.73,0,0,1,3.564-1.517,30.6,30.6,0,0,1,6.384-1.447,22.62,22.62,0,0,1,4.412-.1c.521.021.92.114,1.192.144A2.593,2.593,0,0,1,206.275,151.99Z" transform="translate(-178.552 -151.705)" fill="#263238"/>
        </g>
        <g id="Grupo_56822" data-name="Grupo 56822" transform="translate(50.446 0.201)">
          <path id="Trazado_103817" data-name="Trazado 103817" d="M272.533,116.986a.589.589,0,0,1-.091-.11l-.245-.336-.92-1.306c-.2-.282-.412-.605-.666-.941l-.873-1.059-1-1.218c-.364-.423-.789-.834-1.212-1.285s-.865-.929-1.357-1.392l-1.563-1.413c-.273-.242-.539-.5-.829-.739l-.9-.709c-.614-.474-1.225-.99-1.891-1.466a60.526,60.526,0,0,0-9.162-5.411l-2.551-1.154-2.535-.984c-.824-.342-1.667-.585-2.481-.854-.819-.254-1.607-.548-2.406-.735l-2.316-.608c-.75-.2-1.5-.317-2.208-.472-.716-.134-1.4-.312-2.071-.4l-1.925-.278c-1.223-.21-2.346-.252-3.326-.351-.491-.038-.947-.091-1.368-.11l-1.153-.031-1.6-.051-.415-.02a.591.591,0,0,1-.142-.015.6.6,0,0,1,.141-.011l.416,0,1.6,0,1.157.009c.422.013.88.058,1.373.09.983.086,2.11.115,3.339.314l1.934.263c.675.079,1.361.253,2.08.382.715.151,1.465.265,2.218.461l2.327.6c.8.184,1.595.477,2.417.73.818.268,1.664.51,2.493.851l2.546.984,2.563,1.158a59.453,59.453,0,0,1,9.19,5.451c.667.481,1.278,1,1.893,1.481l.9.718c.29.242.556.5.828.747l1.56,1.43c.49.47.919.962,1.351,1.409s.842.875,1.2,1.3l.99,1.235.859,1.075c.249.341.455.67.65.957l.883,1.335.224.35A.635.635,0,0,1,272.533,116.986Z" transform="translate(-225.328 -93.525)" fill="#263238"/>
        </g>
        <g id="Grupo_56823" data-name="Grupo 56823" transform="translate(66.066 83.694)">
          <path id="Trazado_103818" data-name="Trazado 103818" d="M286.263,265.978a1.932,1.932,0,0,1-.212.29l-.645.8c-.279.349-.628.77-1.055,1.24s-.893,1.024-1.455,1.592-1.159,1.211-1.844,1.855c-.667.664-1.423,1.326-2.211,2.032a60.557,60.557,0,0,1-11.309,7.8c-.94.485-1.828.957-2.686,1.344-.846.412-1.652.755-2.389,1.064s-1.414.565-2.006.794-1.109.409-1.534.545l-.979.318a1.947,1.947,0,0,1-.346.094,1.9,1.9,0,0,1,.33-.142l.962-.362c.42-.151.931-.34,1.517-.584s1.262-.493,1.986-.826,1.53-.671,2.369-1.089c.851-.394,1.732-.871,2.665-1.359,1.848-1.014,3.837-2.206,5.844-3.581s3.819-2.822,5.423-4.188c.788-.7,1.547-1.352,2.218-2.007.689-.636,1.3-1.257,1.86-1.827s1.046-1.1,1.479-1.563.8-.87,1.086-1.209l.68-.771A1.916,1.916,0,0,1,286.263,265.978Z" transform="translate(-257.591 -265.978)" fill="#263238"/>
        </g>
        <g id="Grupo_56824" data-name="Grupo 56824" transform="translate(65.336 103.329)">
          <path id="Trazado_103819" data-name="Trazado 103819" d="M256.21,341.271c-.07,0-.126-7.777-.126-17.368s.057-17.369.126-17.369.126,7.775.126,17.369S256.28,341.271,256.21,341.271Z" transform="translate(-256.084 -306.534)" fill="#263238"/>
        </g>
        <g id="Grupo_56825" data-name="Grupo 56825" transform="translate(66.403 153.303)">
          <path id="Trazado_103820" data-name="Trazado 103820" d="M258.413,434.129c-.07,0-.126-5.457-.126-12.188s.057-12.189.126-12.189.126,5.456.126,12.189S258.483,434.129,258.413,434.129Z" transform="translate(-258.287 -409.752)" fill="#263238"/>
        </g>
      </g>
    </g>
    <g id="Character" transform="translate(185.535 55.835)">
      <g id="Grupo_57041" data-name="Grupo 57041" transform="translate(0 0)">
        <g id="Grupo_56843" data-name="Grupo 56843" transform="translate(0 30.994)">
          <path id="Trazado_103821" data-name="Trazado 103821" d="M315.312,188.287c-.488.975,1.321,1.761,2.365,2.077a13.2,13.2,0,0,0,7.439-.706,6.663,6.663,0,0,0,2.527-2.834,19.861,19.861,0,0,0,1.283-3.625S317.486,183.947,315.312,188.287Z" transform="translate(-313.067 -160.345)" fill="#e8505b"/>
          <g id="Grupo_56827" data-name="Grupo 56827" transform="translate(2.163 22.853)" opacity="0.4">
            <path id="Trazado_103822" data-name="Trazado 103822" d="M315.312,188.287c-.488.975,1.321,1.761,2.365,2.077a13.2,13.2,0,0,0,7.439-.706,6.663,6.663,0,0,0,2.527-2.834,19.861,19.861,0,0,0,1.283-3.625S317.486,183.947,315.312,188.287Z" transform="translate(-315.23 -183.198)"/>
          </g>
          <g id="Grupo_56829" data-name="Grupo 56829" transform="translate(33.813 21.479)">
            <path id="Trazado_103823" data-name="Trazado 103823" d="M381.349,183.723a10.969,10.969,0,0,0,6.457,2.027,4.578,4.578,0,0,0,3.074-.967c.373-.341.652-.778,1.036-1.106.261-.223.566-.392.812-.632a1.039,1.039,0,0,0,.356-.919,1.916,1.916,0,0,0-.669-1.069,8.37,8.37,0,0,0-4.391-.684,15.058,15.058,0,0,0-4.43.869,5.043,5.043,0,0,0-2.992,2.033" transform="translate(-380.602 -180.36)" fill="#065949"/>
          </g>
          <path id="Trazado_103825" data-name="Trazado 103825" d="M322.991,178.217l24.135.316a.31.31,0,0,0,.3-.4l-2.831-8.831s.417-4.413.993-9.723c.875-8.058,2.039-18.191,2.054-18.163-1.649-4.626-11.389-5.415-11.389-5.415l-11.1.66-.391-.651-3.194,1.485a14.769,14.769,0,0,0-2,1.13c-2.108,1.413-7.2,4.648-8.122,8.259-2.143,8.348,1.487,17.668,1.487,17.668l2.33-1.822a16.36,16.36,0,0,1,1.85-1.236l4.677,12.532a2.21,2.21,0,0,0-1.015,1.609,2.49,2.49,0,0,0,2.221,2.587" transform="translate(-310.763 -135.996)" fill="#09b291"/>
          <g id="Grupo_56830" data-name="Grupo 56830" transform="translate(19.426 14.934)" opacity="0.3">
            <path id="Trazado_103826" data-name="Trazado 103826" d="M354.035,179.352c.765-4.114.361-8.345-.047-12.51-1.34,3.407-1.291,7.248-2.709,10.623a4.539,4.539,0,0,0-.378,1.118,1.249,1.249,0,0,0,.322,1.092c.385.352.96.163,1.479.1a5.649,5.649,0,0,0,1.332-.424" transform="translate(-350.887 -166.842)"/>
          </g>
          <g id="Grupo_56831" data-name="Grupo 56831" transform="translate(13.36 33.907)" opacity="0.4">
            <path id="Trazado_103827" data-name="Trazado 103827" d="M338.682,209.092c1.949.675,4-.578,6.048-.8a15.25,15.25,0,0,1,4.056.382,30.322,30.322,0,0,0,8.231.2,3.149,3.149,0,0,0,1.211-.313,1.46,1.46,0,0,0,.633-1.2c-4.558-.468-9.117-.747-13.674-1.214a8.6,8.6,0,0,0-3.419.108,8.2,8.2,0,0,0-3.411,2.576" transform="translate(-338.357 -206.03)"/>
          </g>
          <path id="Trazado_103828" data-name="Trazado 103828" d="M389.706,162.905c-1.973-4.436-8.92-16.715-8.92-16.715l-5.381,6.746,1.256,13.242s2.841-3.172,10.785-3.235A3.894,3.894,0,0,1,390.4,164.5Z" transform="translate(-344.108 -141.255)" fill="#09b291"/>
          <g id="Grupo_56832" data-name="Grupo 56832" transform="translate(11.718 13.45)">
            <path id="Trazado_103829" data-name="Trazado 103829" d="M336.545,169.633a36.5,36.5,0,0,1-1.57-5.857,36.546,36.546,0,0,1,1.57,5.857Z" transform="translate(-334.965 -163.776)" fill="#263238"/>
          </g>
          <g id="Grupo_56833" data-name="Grupo 56833" transform="translate(30.889 10.783)">
            <path id="Trazado_103830" data-name="Trazado 103830" d="M374.565,158.268a3.265,3.265,0,0,1,.5.423,13.622,13.622,0,0,1,1.2,1.317,12.707,12.707,0,0,1,2.569,5.257,9.83,9.83,0,0,1,.154,3.243c-.125.991-.315,1.862-.436,2.6s-.2,1.335-.242,1.751a4.333,4.333,0,0,1-.067.647,2.589,2.589,0,0,1-.031-.653,15.33,15.33,0,0,1,.164-1.773c.1-.744.271-1.622.381-2.6a9.962,9.962,0,0,0-.17-3.163,13.309,13.309,0,0,0-2.463-5.2C375.225,158.925,374.527,158.305,374.565,158.268Z" transform="translate(-374.563 -158.267)" fill="#263238"/>
          </g>
          <g id="Grupo_56834" data-name="Grupo 56834" transform="translate(13.315 37.238)">
            <path id="Trazado_103831" data-name="Trazado 103831" d="M350.912,216.838a2.255,2.255,0,0,1-.525.153,5.039,5.039,0,0,1-.63.122,8.474,8.474,0,0,1-.845.1,12.51,12.51,0,0,1-2.216-.013,13.166,13.166,0,0,1-5.162-1.6,12.473,12.473,0,0,1-1.834-1.245,8.416,8.416,0,0,1-.638-.563,5.047,5.047,0,0,1-.45-.458,2.261,2.261,0,0,1-.347-.424c.036-.035.556.547,1.545,1.3a13.927,13.927,0,0,0,1.835,1.181,13.916,13.916,0,0,0,5.074,1.575,13.919,13.919,0,0,0,2.181.065C350.144,216.973,350.9,216.789,350.912,216.838Z" transform="translate(-338.264 -212.91)" fill="#263238"/>
          </g>
          <g id="Grupo_56835" data-name="Grupo 56835" transform="translate(31.885 38.405)">
            <path id="Trazado_103832" data-name="Trazado 103832" d="M378.151,215.32a1.712,1.712,0,0,1,.186.707,4.362,4.362,0,0,1-.13,1.764,3.076,3.076,0,0,1-.948,1.5,1.336,1.336,0,0,1-.638.364c-.021-.036.214-.184.517-.494a3.43,3.43,0,0,0,.828-1.441A9.414,9.414,0,0,0,378.151,215.32Z" transform="translate(-376.619 -215.32)" fill="#263238"/>
          </g>
          <g id="Grupo_56836" data-name="Grupo 56836" transform="translate(31.063 40.11)">
            <path id="Trazado_103833" data-name="Trazado 103833" d="M375.963,218.843a2.631,2.631,0,0,1-1.037,2.672c-.054-.053.4-.534.679-1.274S375.888,218.846,375.963,218.843Z" transform="translate(-374.922 -218.843)" fill="#263238"/>
          </g>
          <g id="Grupo_56837" data-name="Grupo 56837" transform="translate(26.064 24.176)">
            <path id="Trazado_103834" data-name="Trazado 103834" d="M366.316,185.934a127.491,127.491,0,0,0-1.708,2.489,4.493,4.493,0,0,1,1.708-2.489Z" transform="translate(-364.598 -185.93)" fill="#263238"/>
          </g>
          <g id="Grupo_56838" data-name="Grupo 56838" transform="translate(3.156 9.402)">
            <path id="Trazado_103835" data-name="Trazado 103835" d="M325.344,158.469a12.2,12.2,0,0,1-1.07-.709,13.784,13.784,0,0,0-5.718-2.135,12.236,12.236,0,0,1-1.273-.166,4.465,4.465,0,0,1,1.293-.012,11.579,11.579,0,0,1,5.8,2.165A4.486,4.486,0,0,1,325.344,158.469Z" transform="translate(-317.282 -155.416)" fill="#263238"/>
          </g>
          <g id="Grupo_56839" data-name="Grupo 56839" transform="translate(32.391 4.772)">
            <path id="Trazado_103836" data-name="Trazado 103836" d="M381.955,145.855a14.123,14.123,0,0,0-4.285,5.09,2.988,2.988,0,0,1,.338-.939,9.6,9.6,0,0,1,3.079-3.658A2.992,2.992,0,0,1,381.955,145.855Z" transform="translate(-377.666 -145.853)" fill="#263238"/>
          </g>
          <g id="Grupo_56840" data-name="Grupo 56840" transform="translate(12.715 0.785)">
            <path id="Trazado_103837" data-name="Trazado 103837" d="M351.024,137.618a.92.92,0,0,1,.109.224,4.161,4.161,0,0,1,.226.679,5.743,5.743,0,0,1-.009,2.622,6.444,6.444,0,0,1-1.975,3.337,6.7,6.7,0,0,1-4.455,1.587,7.538,7.538,0,0,1-4.5-1.5,8.6,8.6,0,0,1-2.475-3,9.149,9.149,0,0,1-.825-2.491,6.65,6.65,0,0,1-.087-.708.919.919,0,0,1,0-.249c.026,0,.055.338.188.938a9.92,9.92,0,0,0,.887,2.429,8.616,8.616,0,0,0,2.455,2.895,7.392,7.392,0,0,0,4.36,1.437,6.526,6.526,0,0,0,4.3-1.509,6.36,6.36,0,0,0,1.955-3.2,5.941,5.941,0,0,0,.087-2.559C351.143,137.941,350.994,137.629,351.024,137.618Z" transform="translate(-337.026 -137.618)" fill="#263238"/>
          </g>
          <g id="Grupo_56841" data-name="Grupo 56841" transform="translate(26.075 24.34)" opacity="0.3">
            <path id="Trazado_103838" data-name="Trazado 103838" d="M366.952,186.967c-.007-.242-.039-.527-.249-.648a.476.476,0,0,0-.439.007,1.233,1.233,0,0,0-.351.29,5.922,5.922,0,0,0-1.294,2.067l2.373-.2C366.978,187.978,366.967,187.468,366.952,186.967Z" transform="translate(-364.62 -186.269)"/>
          </g>
          <g id="Grupo_56842" data-name="Grupo 56842" transform="translate(34.565 16.368)" opacity="0.3">
            <path id="Trazado_103839" data-name="Trazado 103839" d="M383.875,173.481a7.768,7.768,0,0,0-1.72-3.678,12.131,12.131,0,0,1,.105,7.536l.124-.321C383.043,175.677,384.057,174.838,383.875,173.481Z" transform="translate(-382.155 -169.803)"/>
          </g>
        </g>
        <g id="Grupo_56863" data-name="Grupo 56863" transform="translate(19.169 162.613)">
          <g id="Grupo_56844" data-name="Grupo 56844">
            <path id="Trazado_103840" data-name="Trazado 103840" d="M362.731,408.824l-1.448,21.716-9.441-.111-1.487-22.577Z" transform="translate(-350.355 -407.852)" fill="#ffbe9d"/>
          </g>
          <g id="Grupo_56862" data-name="Grupo 56862" transform="translate(0.816 19.604)">
            <g id="Grupo_56861" data-name="Grupo 56861">
              <g id="Grupo_56846" data-name="Grupo 56846">
                <g id="Grupo_56845" data-name="Grupo 56845">
                  <path id="Trazado_103841" data-name="Trazado 103841" d="M362.422,448.569l0,.628s10.642,4.283,10.754,6.3l-21.138-.124.329-7.032A12.091,12.091,0,0,0,362.422,448.569Z" transform="translate(-352.04 -448.344)" fill="#e8505b"/>
                </g>
              </g>
              <g id="Grupo_56849" data-name="Grupo 56849" transform="translate(1.836 2.227)">
                <g id="Grupo_56848" data-name="Grupo 56848">
                  <g id="Grupo_56847" data-name="Grupo 56847">
                    <path id="Trazado_103842" data-name="Trazado 103842" d="M356.452,452.978a.863.863,0,0,0-.6.982.829.829,0,0,0,.967.606.91.91,0,0,0,.633-1.043.861.861,0,0,0-1.076-.519" transform="translate(-355.832 -452.944)" fill="#fff"/>
                  </g>
                </g>
              </g>
              <g id="Grupo_56851" data-name="Grupo 56851" transform="translate(0 5.341)">
                <g id="Grupo_56850" data-name="Grupo 56850">
                  <path id="Trazado_103843" data-name="Trazado 103843" d="M352.04,461.067l.079-1.691,20.23.738s.939.415.828,1.077Z" transform="translate(-352.04 -459.376)" fill="#263238"/>
                </g>
              </g>
              <g id="Grupo_56854" data-name="Grupo 56854" transform="translate(8.524 0.815)">
                <g id="Grupo_56853" data-name="Grupo 56853">
                  <g id="Grupo_56852" data-name="Grupo 56852">
                    <path id="Trazado_103844" data-name="Trazado 103844" d="M371.579,450.125c0,.1-.52.147-1.03.476s-.782.761-.877.719c-.095-.02.062-.637.687-1.024S371.6,450.031,371.579,450.125Z" transform="translate(-369.646 -450.028)" fill="#263238"/>
                  </g>
                </g>
              </g>
              <g id="Grupo_56857" data-name="Grupo 56857" transform="translate(11.26 1.8)">
                <g id="Grupo_56856" data-name="Grupo 56856">
                  <g id="Grupo_56855" data-name="Grupo 56855">
                    <path id="Trazado_103845" data-name="Trazado 103845" d="M376.706,452.1c.023.1-.425.273-.778.708s-.457.9-.56.89c-.1.016-.165-.589.284-1.121S376.7,452.007,376.706,452.1Z" transform="translate(-375.296 -452.062)" fill="#263238"/>
                  </g>
                </g>
              </g>
              <g id="Grupo_56860" data-name="Grupo 56860" transform="translate(13.791 2.727)">
                <g id="Grupo_56859" data-name="Grupo 56859">
                  <g id="Grupo_56858" data-name="Grupo 56858">
                    <path id="Trazado_103846" data-name="Trazado 103846" d="M380.646,455.753c-.094.021-.234-.5.034-1.059s.752-.786.8-.7c.058.085-.257.387-.471.853S380.749,455.743,380.646,455.753Z" transform="translate(-380.525 -453.977)" fill="#263238"/>
                  </g>
                </g>
              </g>
            </g>
          </g>
        </g>
        <g id="Grupo_56970" data-name="Grupo 56970" transform="translate(5.039)">
          <path id="Trazado_103847" data-name="Trazado 103847" d="M349.733,76.76a3.43,3.43,0,0,0-1.294-3.866,5.62,5.62,0,0,0-4.194-.825,16.692,16.692,0,0,0-4.136,1.429,4.669,4.669,0,0,0-7.925,2.588,2.967,2.967,0,0,0-3.515,3.9l6.544,2.3,7.147,12.572a5.718,5.718,0,0,0,8.414-7.6,4.906,4.906,0,0,0,1-1.242,5.01,5.01,0,0,0,2.313-3.1A5.289,5.289,0,0,0,349.733,76.76Z" transform="translate(-324.949 -71.979)" fill="#263238"/>
          <g id="Grupo_56964" data-name="Grupo 56964" transform="translate(0 3.407)">
            <g id="Grupo_56941" data-name="Grupo 56941" transform="translate(4.299)">
              <g id="Grupo_56940" data-name="Grupo 56940">
                <g id="Grupo_56938" data-name="Grupo 56938" transform="translate(0 1.242)">
                  <g id="Grupo_56937" data-name="Grupo 56937">
                    <g id="Grupo_56936" data-name="Grupo 56936">
                      <g id="Grupo_56935" data-name="Grupo 56935">
                        <g id="Grupo_56920" data-name="Grupo 56920">
                          <g id="Grupo_56919" data-name="Grupo 56919">
                            <g id="Grupo_56918" data-name="Grupo 56918">
                              <g id="Grupo_56870" data-name="Grupo 56870">
                                <g id="Grupo_56869" data-name="Grupo 56869">
                                  <g id="Grupo_56868" data-name="Grupo 56868">
                                    <g id="Grupo_56867" data-name="Grupo 56867">
                                      <g id="Grupo_56866" data-name="Grupo 56866">
                                        <g id="Grupo_56865" data-name="Grupo 56865">
                                          <g id="Grupo_56864" data-name="Grupo 56864">
                                            <path id="Trazado_103848" data-name="Trazado 103848" d="M346.2,107.927c-.406-2.047-.689-3.448-.686-3.434s3.859-1.5,3.593-6.892a56.924,56.924,0,0,0-2.1-10.337c-.854-3.088-3.732-6.492-6.782-5.508l-9.22,4.5c-.926.3-1.088,1.169-.87,2.117l.015.462,3.588,14.843,1.515,6.634a5.6,5.6,0,0,0,6.256,4.251h0A5.6,5.6,0,0,0,346.2,107.927Z" transform="translate(-330.048 -81.583)" fill="#ffbe9d"/>
                                          </g>
                                        </g>
                                      </g>
                                    </g>
                                  </g>
                                </g>
                              </g>
                              <g id="Grupo_56886" data-name="Grupo 56886" transform="translate(13.846 7.767)">
                                <g id="Grupo_56877" data-name="Grupo 56877" transform="translate(1.713 1.017)">
                                  <g id="Grupo_56876" data-name="Grupo 56876">
                                    <g id="Grupo_56875" data-name="Grupo 56875">
                                      <g id="Grupo_56874" data-name="Grupo 56874">
                                        <g id="Grupo_56873" data-name="Grupo 56873">
                                          <g id="Grupo_56872" data-name="Grupo 56872">
                                            <g id="Grupo_56871" data-name="Grupo 56871">
                                              <path id="Trazado_103849" data-name="Trazado 103849" d="M363.522,100.208a.683.683,0,0,1-.5.81.653.653,0,0,1-.816-.458.685.685,0,0,1,.5-.811A.655.655,0,0,1,363.522,100.208Z" transform="translate(-362.184 -99.725)" fill="#263238"/>
                                            </g>
                                          </g>
                                        </g>
                                      </g>
                                    </g>
                                  </g>
                                </g>
                                <g id="Grupo_56885" data-name="Grupo 56885">
                                  <g id="Grupo_56884" data-name="Grupo 56884">
                                    <g id="Grupo_56883" data-name="Grupo 56883">
                                      <g id="Grupo_56882" data-name="Grupo 56882">
                                        <g id="Grupo_56881" data-name="Grupo 56881">
                                          <g id="Grupo_56880" data-name="Grupo 56880">
                                            <g id="Grupo_56879" data-name="Grupo 56879">
                                              <g id="Grupo_56878" data-name="Grupo 56878">
                                                <path id="Trazado_103850" data-name="Trazado 103850" d="M361.3,98.094c-.065.1-.65-.164-1.37-.011s-1.172.624-1.268.552c-.046-.031,0-.206.2-.422a1.873,1.873,0,0,1,.992-.55,1.8,1.8,0,0,1,1.113.118C361.224,97.9,361.332,98.047,361.3,98.094Z" transform="translate(-358.646 -97.625)" fill="#263238"/>
                                              </g>
                                            </g>
                                          </g>
                                        </g>
                                      </g>
                                    </g>
                                  </g>
                                </g>
                              </g>
                              <g id="Grupo_56902" data-name="Grupo 56902" transform="translate(6.884 9.473)">
                                <g id="Grupo_56893" data-name="Grupo 56893" transform="translate(1.669 0.917)">
                                  <g id="Grupo_56892" data-name="Grupo 56892">
                                    <g id="Grupo_56891" data-name="Grupo 56891">
                                      <g id="Grupo_56890" data-name="Grupo 56890">
                                        <g id="Grupo_56889" data-name="Grupo 56889">
                                          <g id="Grupo_56888" data-name="Grupo 56888">
                                            <g id="Grupo_56887" data-name="Grupo 56887">
                                              <path id="Trazado_103851" data-name="Trazado 103851" d="M349.053,103.526a.684.684,0,0,1-.5.81.654.654,0,0,1-.816-.458.683.683,0,0,1,.5-.81A.654.654,0,0,1,349.053,103.526Z" transform="translate(-347.715 -103.043)" fill="#263238"/>
                                            </g>
                                          </g>
                                        </g>
                                      </g>
                                    </g>
                                  </g>
                                </g>
                                <g id="Grupo_56901" data-name="Grupo 56901">
                                  <g id="Grupo_56900" data-name="Grupo 56900">
                                    <g id="Grupo_56899" data-name="Grupo 56899">
                                      <g id="Grupo_56898" data-name="Grupo 56898">
                                        <g id="Grupo_56897" data-name="Grupo 56897">
                                          <g id="Grupo_56896" data-name="Grupo 56896">
                                            <g id="Grupo_56895" data-name="Grupo 56895">
                                              <g id="Grupo_56894" data-name="Grupo 56894">
                                                <path id="Trazado_103852" data-name="Trazado 103852" d="M346.922,101.619c-.065.1-.651-.164-1.37-.011s-1.172.624-1.268.552c-.046-.031,0-.206.2-.422a1.874,1.874,0,0,1,.992-.55,1.806,1.806,0,0,1,1.113.118C346.845,101.429,346.954,101.572,346.922,101.619Z" transform="translate(-344.268 -101.15)" fill="#263238"/>
                                              </g>
                                            </g>
                                          </g>
                                        </g>
                                      </g>
                                    </g>
                                  </g>
                                </g>
                              </g>
                              <g id="Grupo_56910" data-name="Grupo 56910" transform="translate(11.592 8.567)">
                                <g id="Grupo_56909" data-name="Grupo 56909">
                                  <g id="Grupo_56908" data-name="Grupo 56908">
                                    <g id="Grupo_56907" data-name="Grupo 56907">
                                      <g id="Grupo_56906" data-name="Grupo 56906">
                                        <g id="Grupo_56905" data-name="Grupo 56905">
                                          <g id="Grupo_56904" data-name="Grupo 56904">
                                            <g id="Grupo_56903" data-name="Grupo 56903">
                                              <path id="Trazado_103853" data-name="Trazado 103853" d="M355.583,105.207a4.862,4.862,0,0,1,1.125-.457c.18-.058.346-.13.351-.262a.954.954,0,0,0-.237-.519l-.837-1.285A24.518,24.518,0,0,1,354,99.279a24.638,24.638,0,0,1,2.258,3.237l.816,1.3a1.086,1.086,0,0,1,.246.7.472.472,0,0,1-.246.332,1.28,1.28,0,0,1-.3.109A4.8,4.8,0,0,1,355.583,105.207Z" transform="translate(-353.992 -99.278)" fill="#263238"/>
                                            </g>
                                          </g>
                                        </g>
                                      </g>
                                    </g>
                                  </g>
                                </g>
                              </g>
                              <g id="Grupo_56917" data-name="Grupo 56917" transform="translate(8.091 22.513)">
                                <g id="Grupo_56916" data-name="Grupo 56916">
                                  <g id="Grupo_56915" data-name="Grupo 56915">
                                    <g id="Grupo_56914" data-name="Grupo 56914">
                                      <g id="Grupo_56913" data-name="Grupo 56913">
                                        <g id="Grupo_56912" data-name="Grupo 56912">
                                          <g id="Grupo_56911" data-name="Grupo 56911">
                                            <path id="Trazado_103854" data-name="Trazado 103854" d="M354.138,128.48a13.557,13.557,0,0,1-7.377-.4s2.535,3.312,7.653,1.728Z" transform="translate(-346.761 -128.082)" fill="#eb996e"/>
                                          </g>
                                        </g>
                                      </g>
                                    </g>
                                  </g>
                                </g>
                              </g>
                            </g>
                          </g>
                        </g>
                        <g id="Grupo_56927" data-name="Grupo 56927" transform="translate(6.381 8.518)">
                          <g id="Grupo_56926" data-name="Grupo 56926">
                            <g id="Grupo_56925" data-name="Grupo 56925">
                              <g id="Grupo_56924" data-name="Grupo 56924">
                                <g id="Grupo_56923" data-name="Grupo 56923">
                                  <g id="Grupo_56922" data-name="Grupo 56922">
                                    <g id="Grupo_56921" data-name="Grupo 56921">
                                      <path id="Trazado_103855" data-name="Trazado 103855" d="M346.521,99.575c-.047.207-.788.2-1.632.41-.848.191-1.509.526-1.644.362-.061-.079.036-.28.292-.506a2.925,2.925,0,0,1,2.5-.588C346.363,99.34,346.541,99.477,346.521,99.575Z" transform="translate(-343.228 -99.176)" fill="#263238"/>
                                    </g>
                                  </g>
                                </g>
                              </g>
                            </g>
                          </g>
                        </g>
                        <g id="Grupo_56934" data-name="Grupo 56934" transform="translate(13.295 5.456)">
                          <g id="Grupo_56933" data-name="Grupo 56933">
                            <g id="Grupo_56932" data-name="Grupo 56932">
                              <g id="Grupo_56931" data-name="Grupo 56931">
                                <g id="Grupo_56930" data-name="Grupo 56930">
                                  <g id="Grupo_56929" data-name="Grupo 56929">
                                    <g id="Grupo_56928" data-name="Grupo 56928">
                                      <path id="Trazado_103856" data-name="Trazado 103856" d="M360.44,93.343c-.115.195-.737.148-1.445.289-.711.119-1.28.383-1.453.241-.077-.07-.018-.254.211-.463a2.318,2.318,0,0,1,1.116-.514,2.29,2.29,0,0,1,1.219.087C360.372,93.1,360.489,93.249,360.44,93.343Z" transform="translate(-357.51 -92.852)" fill="#263238"/>
                                    </g>
                                  </g>
                                </g>
                              </g>
                            </g>
                          </g>
                        </g>
                      </g>
                    </g>
                  </g>
                </g>
                <g id="Grupo_56939" data-name="Grupo 56939" transform="translate(2.944)">
                  <path id="Trazado_103857" data-name="Trazado 103857" d="M336.409,81.467a3.647,3.647,0,0,0,4.944,2.652c.767-.311,1.557-.9,2.336-.614.818.3,1.075,1.384,1.835,1.809,1.085.608,2.393-.445,3.633-.341a4.932,4.932,0,0,1,2.449,1.426,2.537,2.537,0,0,0,2.637.649,10.8,10.8,0,0,0-.857-2.332,3.633,3.633,0,0,0-1.773-1.677c-.424-.166-.888-.224-1.293-.432-.874-.449-1.266-1.465-1.9-2.213a4,4,0,0,0-3.391-1.359,21.917,21.917,0,0,1-3.1.591c-.779-.033-1.524-.379-2.3-.366-1.517.026-2.657,1.354-3.5,2.617" transform="translate(-336.129 -79.017)" fill="#263238"/>
                </g>
              </g>
            </g>
            <path id="Trazado_103858" data-name="Trazado 103858" d="M333.795,84.153a5.011,5.011,0,0,1-2.588-.692,4.085,4.085,0,0,0-3.894-1.277,3.371,3.371,0,0,0-2.43,3.225,4.846,4.846,0,0,0-3.534,3.472,5.618,5.618,0,0,0,1.209,5.086,10.067,10.067,0,0,1,.794,1.151,8.23,8.23,0,0,0-.861,1.306c-1.106,2.449,1.9,3.388,1.9,3.388.008,1.647,1.526,1.639,2.5,1.634.936,0,1.512,2.591,2.27,2.49l-.77-8.019a1,1,0,0,0,.355.064c1.836.032,1.357-3.439.762-4.338a10.4,10.4,0,0,0,1.376-2.215,7.505,7.505,0,0,0,.071-3.712C331.591,85.623,334.1,84.175,333.795,84.153Z" transform="translate(-321.17 -80.594)" fill="#263238"/>
            <g id="Grupo_56963" data-name="Grupo 56963" transform="translate(4.427 14.55)">
              <g id="Grupo_56951" data-name="Grupo 56951">
                <g id="Grupo_56950" data-name="Grupo 56950">
                  <g id="Grupo_56949" data-name="Grupo 56949">
                    <g id="Grupo_56948" data-name="Grupo 56948">
                      <g id="Grupo_56947" data-name="Grupo 56947">
                        <g id="Grupo_56946" data-name="Grupo 56946">
                          <g id="Grupo_56945" data-name="Grupo 56945">
                            <g id="Grupo_56944" data-name="Grupo 56944">
                              <g id="Grupo_56943" data-name="Grupo 56943">
                                <g id="Grupo_56942" data-name="Grupo 56942">
                                  <path id="Trazado_103859" data-name="Trazado 103859" d="M333.378,110.267a1.554,1.554,0,0,0-2.5-.833,2.132,2.132,0,0,0-.449,2.282c.782,3.116,3.75,1.689,3.733,1.6C334.156,113.258,333.713,111.553,333.378,110.267Z" transform="translate(-330.313 -109.069)" fill="#ffbe9d"/>
                                </g>
                              </g>
                            </g>
                          </g>
                        </g>
                      </g>
                    </g>
                  </g>
                </g>
              </g>
              <g id="Grupo_56962" data-name="Grupo 56962" transform="translate(0.864 0.969)">
                <g id="Grupo_56961" data-name="Grupo 56961">
                  <g id="Grupo_56960" data-name="Grupo 56960">
                    <g id="Grupo_56959" data-name="Grupo 56959">
                      <g id="Grupo_56958" data-name="Grupo 56958">
                        <g id="Grupo_56957" data-name="Grupo 56957">
                          <g id="Grupo_56956" data-name="Grupo 56956">
                            <g id="Grupo_56955" data-name="Grupo 56955">
                              <g id="Grupo_56954" data-name="Grupo 56954">
                                <g id="Grupo_56953" data-name="Grupo 56953">
                                  <g id="Grupo_56952" data-name="Grupo 56952">
                                    <path id="Trazado_103860" data-name="Trazado 103860" d="M333.838,113.4c-.016-.006-.045.052-.126.117a.559.559,0,0,1-.4.11c-.359-.038-.768-.491-.924-1.05a1.856,1.856,0,0,1-.043-.815.647.647,0,0,1,.3-.519.285.285,0,0,1,.358.068c.063.076.06.144.077.145s.054-.069,0-.192a.359.359,0,0,0-.171-.165.425.425,0,0,0-.32,0,.788.788,0,0,0-.446.626,1.909,1.909,0,0,0,.03.916c.178.623.647,1.13,1.13,1.147a.6.6,0,0,0,.475-.207C333.852,113.481,333.851,113.407,333.838,113.4Z" transform="translate(-332.097 -111.071)" fill="#eb996e"/>
                                  </g>
                                </g>
                              </g>
                            </g>
                          </g>
                        </g>
                      </g>
                    </g>
                  </g>
                </g>
              </g>
            </g>
          </g>
          <g id="Grupo_56965" data-name="Grupo 56965" transform="translate(9.236 5.438)">
            <path id="Trazado_103861" data-name="Trazado 103861" d="M355.22,92.574c-.019-.024.282-.217.68-.7a4.581,4.581,0,0,0,.973-2.421,4.457,4.457,0,0,0-.174-1.8,3.854,3.854,0,0,0-1.107-1.72,4.55,4.55,0,0,0-4.45-.866c-.146.047-.281.12-.419.177s-.257.147-.381.216l-.192.108,0-.214a1.573,1.573,0,0,0-.392-1.017,2.5,2.5,0,0,0-.894-.639,3.3,3.3,0,0,0-2.078-.152c-1.336.3-2.47.914-3.54,1.037a3.424,3.424,0,0,1-2.415-.485,1.97,1.97,0,0,1-.473-.484.849.849,0,0,1-.108-.21,2.78,2.78,0,0,0,.634.616,3.41,3.41,0,0,0,2.338.392,8.4,8.4,0,0,0,1.626-.469,14.676,14.676,0,0,1,1.89-.619,4.194,4.194,0,0,1,1.094-.109,3.374,3.374,0,0,1,1.128.26,2.74,2.74,0,0,1,.987.7,1.823,1.823,0,0,1,.454,1.18l-.195-.106c.132-.075.265-.158.406-.232s.291-.138.446-.188a4.758,4.758,0,0,1,4.691.931,4.04,4.04,0,0,1,1.151,1.831,4.582,4.582,0,0,1,.151,1.877,4.527,4.527,0,0,1-1.075,2.465,3.233,3.233,0,0,1-.54.5A.97.97,0,0,1,355.22,92.574Z" transform="translate(-340.247 -83.212)" fill="#455a64"/>
          </g>
          <g id="Grupo_56966" data-name="Grupo 56966" transform="translate(9.621 2.027)">
            <path id="Trazado_103862" data-name="Trazado 103862" d="M355,77.995a3.453,3.453,0,0,0-1-.344,2.643,2.643,0,0,0-1.192.108,2.353,2.353,0,0,0-1.227.892l-.119.171-.073-.194a3.642,3.642,0,0,0-2.953-2.193,4.7,4.7,0,0,0-2.839.821,12.582,12.582,0,0,1-2.25,1.164,3.54,3.54,0,0,1-1.7.2,2.145,2.145,0,0,1-.452-.124c-.1-.043-.148-.069-.145-.077s.216.064.609.1a3.7,3.7,0,0,0,1.631-.271,13.6,13.6,0,0,0,2.194-1.2,7.707,7.707,0,0,1,1.356-.662,3.7,3.7,0,0,1,1.626-.208,3.819,3.819,0,0,1,3.13,2.366l-.191-.023a2.5,2.5,0,0,1,1.354-.939,2.675,2.675,0,0,1,1.265-.063,2.27,2.27,0,0,1,.759.29C354.929,77.919,355,77.987,355,77.995Z" transform="translate(-341.041 -76.166)" fill="#455a64"/>
          </g>
          <path id="Trazado_103863" data-name="Trazado 103863" d="M354.8,114.209a1.055,1.055,0,0,0-.851-.247,1.246,1.246,0,0,0-.816.6l-.013.018c-.007.014-.02.026-.027.04l.012-.008a.6.6,0,0,0-.091.366.879.879,0,0,0,.506.655,1.113,1.113,0,0,0,1.268-.183A.909.909,0,0,0,354.8,114.209Z" transform="translate(-337.595 -93.632)" fill="#e8505b"/>
          <g id="Grupo_56967" data-name="Grupo 56967" transform="translate(15.257 20.777)">
            <path id="Trazado_103864" data-name="Trazado 103864" d="M354.87,116.2c-.037.007-.085-.144-.214-.346a1.518,1.518,0,0,0-1.572-.715c-.238.036-.382.1-.4.067s.1-.151.359-.24a1.433,1.433,0,0,1,1.773.807C354.917,116.024,354.9,116.2,354.87,116.2Z" transform="translate(-352.682 -114.893)" fill="#263238"/>
          </g>
          <g id="Grupo_56968" data-name="Grupo 56968" transform="translate(5.687 21.951)">
            <path id="Trazado_103865" data-name="Trazado 103865" d="M334.792,118.049c.023-.015.138.242-.043.609a.986.986,0,0,1-.516.467,1,1,0,0,1-1.314-.828.986.986,0,0,1,.2-.667c.253-.322.535-.33.531-.3.016.038-.213.11-.383.4a.871.871,0,0,0-.115.543.808.808,0,0,0,1.006.633.871.871,0,0,0,.44-.338C334.785,118.288,334.751,118.05,334.792,118.049Z" transform="translate(-332.916 -117.318)" fill="#e8505b"/>
          </g>
          <g id="Grupo_56969" data-name="Grupo 56969" transform="translate(4.826 21.592)">
            <path id="Trazado_103866" data-name="Trazado 103866" d="M332.24,117.48c.028.013-.015.165-.225.268a.611.611,0,0,1-.4.04.645.645,0,0,1-.443-.819.611.611,0,0,1,.253-.315c.2-.12.352-.072.348-.042s-.119.063-.239.183a.46.46,0,0,0,.425.785C332.123,117.545,332.21,117.457,332.24,117.48Z" transform="translate(-331.137 -116.577)" fill="#e8505b"/>
          </g>
        </g>
        <g id="Grupo_56979" data-name="Grupo 56979" transform="translate(5.472 25.057)">
          <path id="Trazado_103867" data-name="Trazado 103867" d="M344.376,193.6s11.987.7,19.073.761c5.488.05,7.934-1.407,9.032-4.934.921-2.961-1.058-8.638-1.058-8.638a18.345,18.345,0,0,0-8.39,1.65l.637,2.6L344.342,186.7Z" transform="translate(-333.557 -153.168)" fill="#ffbe9d"/>
          <g id="Grupo_56971" data-name="Grupo 56971" transform="translate(29.999 31.797)">
            <path id="Trazado_103868" data-name="Trazado 103868" d="M388.17,192.254a6.99,6.99,0,0,0-4.142-2.824,1.709,1.709,0,0,1,.769.067,5.129,5.129,0,0,1,3.03,2.066A1.718,1.718,0,0,1,388.17,192.254Z" transform="translate(-384.028 -189.41)" fill="#eb996e"/>
          </g>
          <g id="Grupo_56978" data-name="Grupo 56978">
            <path id="Trazado_103869" data-name="Trazado 103869" d="M328.5,166.48h0a23.186,23.186,0,0,0-6.43,2.71l2.9,7.874a4.445,4.445,0,0,0,6.277,2.513c3.646-2.083,4.932-8.165,4.932-8.165l4.007-17.37-6.638-4.159-5.042,16.6" transform="translate(-322.065 -137.223)" fill="#ffbe9d"/>
            <g id="Grupo_56977" data-name="Grupo 56977" transform="translate(5.299)">
              <path id="Trazado_103870" data-name="Trazado 103870" d="M344.4,136.5l.268-5.713L343.188,125c-.082-.321-.122-.72.137-.916a.7.7,0,0,1,.895.028,56.261,56.261,0,0,1,2.341,5.5,29.667,29.667,0,0,1,3.462-1.851c.524-.086,1.178,1.495,1.219,1.619a9.211,9.211,0,0,1,.005,1.062s1.817.054,1.979.3a6.239,6.239,0,0,1,.21,1.541s.768.246.892.829.371,1.541.009,1.751-1.127.631-1.127.631-.308,2.964-.387,3.234a18.387,18.387,0,0,1-1.782,1.93Z" transform="translate(-338.228 -123.84)" fill="#ffbe9d"/>
              <g id="Grupo_56972" data-name="Grupo 56972">
                <path id="Trazado_103871" data-name="Trazado 103871" d="M333.011,166.208c.008-.016.181.1.556.225a3.788,3.788,0,0,0,1.711.136,4.774,4.774,0,0,0,2.478-1.143,11.487,11.487,0,0,0,2.3-2.917,13.1,13.1,0,0,0,.9-2,20.5,20.5,0,0,0,.621-2.321c.38-1.632.79-3.388,1.224-5.255l2.9-12.407.008-.033.025-.025c.333-.327.668-.663,1-1.009.165-.173.331-.349.488-.53a3.4,3.4,0,0,0,.22-.274c.057-.058.059-.175.081-.3.131-.969.233-1.971.341-2.979l.007-.064.057-.032.923-.517c.07-.042.174-.092.217-.127a.268.268,0,0,0,.087-.162,1.546,1.546,0,0,0,.006-.5,7.534,7.534,0,0,0-.215-1.053,1.3,1.3,0,0,0-.771-.622l-.084-.031,0-.084c-.012-.28-.031-.569-.062-.856-.017-.143-.035-.288-.064-.425a.834.834,0,0,0-.056-.18c-.015-.031-.008-.008-.03-.028a.483.483,0,0,0-.081-.034,8.546,8.546,0,0,0-1.773-.2l-.126-.006,0-.124c.009-.3.022-.632.008-.946a1,1,0,0,0-.113-.324c-.052-.117-.108-.232-.166-.345a4.154,4.154,0,0,0-.4-.64,1.07,1.07,0,0,0-.246-.241.235.235,0,0,0-.258-.03,6.272,6.272,0,0,0-.683.313c-.9.47-1.781.984-2.642,1.5l-.126.075-.054-.136-1.356-3.394-.663-1.661a.689.689,0,0,0-.532-.5.539.539,0,0,0-.63.231.563.563,0,0,0-.074.345c.014.108.067.271.1.4q.11.419.219.834l.432,1.645.839,3.2,0,.017v.017c-.1,1.988-.189,3.9-.276,5.712v.013l0,.013c-1.829,5.954-3.347,10.891-4.411,14.352l-1.244,4-.335,1.048c-.077.236-.125.356-.125.356s.027-.126.094-.366l.3-1.056,1.19-4.012,4.325-14.378,0,.025c.082-1.817.169-3.725.259-5.713l0,.034q-.414-1.564-.846-3.194l-.436-1.645-.221-.833c-.034-.148-.078-.26-.106-.439a.81.81,0,0,1,.1-.493.749.749,0,0,1,.392-.33.934.934,0,0,1,.5-.016.992.992,0,0,1,.443.226.979.979,0,0,1,.261.417l.665,1.661,1.359,3.394-.181-.061c.865-.515,1.741-1.028,2.657-1.5a6.427,6.427,0,0,1,.718-.328.55.55,0,0,1,.244-.034.528.528,0,0,1,.229.092,1.315,1.315,0,0,1,.306.3,4.389,4.389,0,0,1,.423.681c.06.118.118.236.172.357a1.185,1.185,0,0,1,.135.411c.015.343,0,.666-.008.972l-.122-.131a8.538,8.538,0,0,1,1.849.214.694.694,0,0,1,.125.054.311.311,0,0,1,.125.126,1.023,1.023,0,0,1,.08.245c.033.153.051.3.068.45.032.3.051.587.063.875l-.087-.115a1.53,1.53,0,0,1,.925.765,7.315,7.315,0,0,1,.232,1.121,1.76,1.76,0,0,1-.012.588.515.515,0,0,1-.176.3,2.57,2.57,0,0,1-.247.147l-.928.519.063-.1c-.109,1.011-.212,2.008-.346,2.989l-.031.188a.483.483,0,0,1-.09.211,3.294,3.294,0,0,1-.239.3c-.163.185-.33.363-.5.537-.335.348-.672.685-1.008,1.013l.033-.058L343,152.98l-1.249,5.249a20.48,20.48,0,0,1-.64,2.335,13.223,13.223,0,0,1-.922,2.018,11.493,11.493,0,0,1-2.357,2.93,4.816,4.816,0,0,1-2.544,1.135,3.73,3.73,0,0,1-1.735-.175,2.566,2.566,0,0,1-.412-.186A.851.851,0,0,1,333.011,166.208Z" transform="translate(-333.011 -123.734)" fill="#eb996e"/>
              </g>
              <g id="Grupo_56973" data-name="Grupo 56973" transform="translate(10.511 6.452)">
                <path id="Trazado_103872" data-name="Trazado 103872" d="M357.227,137.2c0,.036-.164.054-.42.066a4.845,4.845,0,0,0-.964.114,1.906,1.906,0,0,0-.822.439c-.177.165-.254.305-.29.29s-.009-.185.157-.409a1.629,1.629,0,0,1,.891-.565,2.814,2.814,0,0,1,1.035-.048C357.074,137.122,357.229,137.166,357.227,137.2Z" transform="translate(-354.72 -137.062)" fill="#eb996e"/>
              </g>
              <g id="Grupo_56974" data-name="Grupo 56974" transform="translate(11.545 6.061)">
                <path id="Trazado_103873" data-name="Trazado 103873" d="M356.909,136.836c-.065-.025-.069-.174-.009-.334s.161-.27.227-.246.069.174.009.334S356.974,136.861,356.909,136.836Z" transform="translate(-356.857 -136.253)" fill="#eb996e"/>
              </g>
              <g id="Grupo_56975" data-name="Grupo 56975" transform="translate(12.842 8.326)">
                <path id="Trazado_103874" data-name="Trazado 103874" d="M361.98,141.008a4.545,4.545,0,0,1-1.437.2.982.982,0,0,0-.8.385c-.128.2-.085.362-.122.372s-.154-.163-.037-.453a.791.791,0,0,1,.346-.384,1.535,1.535,0,0,1,.582-.17A4.088,4.088,0,0,1,361.98,141.008Z" transform="translate(-359.536 -140.932)" fill="#eb996e"/>
              </g>
              <g id="Grupo_56976" data-name="Grupo 56976" transform="translate(14.796 10.144)">
                <path id="Trazado_103875" data-name="Trazado 103875" d="M363.739,144.687c.07,0,.11.361.09.8s-.092.791-.162.788-.11-.361-.09-.8S363.67,144.684,363.739,144.687Z" transform="translate(-363.573 -144.687)" fill="#eb996e"/>
              </g>
            </g>
          </g>
        </g>
        <g id="Grupo_56981" data-name="Grupo 56981" transform="translate(27.747 45.457)">
          <path id="Trazado_103876" data-name="Trazado 103876" d="M368.074,168.654l.43-1.484a.405.405,0,0,1,.679-.171l.562.573.351-1.4a.405.405,0,0,1,.759-.077l.793,1.653Z" transform="translate(-368.074 -165.869)" fill="#fff"/>
          <g id="Grupo_56980" data-name="Grupo 56980" transform="translate(0.1 2.501)">
            <path id="Trazado_103877" data-name="Trazado 103877" d="M371.761,171.053a12.8,12.8,0,0,1-3.481.862,12.8,12.8,0,0,1,3.481-.862Z" transform="translate(-368.28 -171.036)" fill="#fff"/>
          </g>
        </g>
        <g id="Grupo_56982" data-name="Grupo 56982" transform="translate(1.239 39.699)">
          <path id="Trazado_103878" data-name="Trazado 103878" d="M314.62,153.977c.012.01-.18.186-.43.575a4.923,4.923,0,0,0-.657,1.828,13.213,13.213,0,0,0-.087,2.9c.053,1.1.142,2.3.276,3.558a62.445,62.445,0,0,0,1.022,6.4c.172.812.327,1.466.435,1.917l.124.52c.028.119.037.183.037.183s-.022-.061-.056-.178l-.143-.516c-.119-.449-.285-1.1-.466-1.911a56.719,56.719,0,0,1-1.053-6.405c-.134-1.261-.22-2.467-.269-3.564a12.929,12.929,0,0,1,.11-2.917,4.815,4.815,0,0,1,.694-1.837A2.918,2.918,0,0,1,314.62,153.977Z" transform="translate(-313.322 -153.977)" fill="#fff"/>
        </g>
        <g id="Grupo_56983" data-name="Grupo 56983" transform="translate(2.537 33.117)">
          <path id="Trazado_103879" data-name="Trazado 103879" d="M326.19,140.381a.616.616,0,0,1-.109.059l-.32.152c-.277.132-.677.327-1.158.593a41.736,41.736,0,0,0-3.638,2.274c-1.382.95-2.608,1.848-3.5,2.488l-1.063.752-.293.2a.588.588,0,0,1-.106.064.569.569,0,0,1,.094-.08l.282-.215,1.044-.779c.884-.654,2.1-1.562,3.488-2.514a36.357,36.357,0,0,1,3.662-2.253c.486-.259.892-.444,1.175-.566l.328-.135A.531.531,0,0,1,326.19,140.381Z" transform="translate(-316.002 -140.381)" fill="#fff"/>
        </g>
        <g id="Grupo_56984" data-name="Grupo 56984" transform="translate(26.834 32.333)">
          <path id="Trazado_103880" data-name="Trazado 103880" d="M375.169,142.7a.393.393,0,0,1-.081-.061l-.218-.189a8.667,8.667,0,0,0-.848-.633,17.229,17.229,0,0,0-3.112-1.575,31.615,31.615,0,0,0-3.319-1.1c-.431-.12-.783-.208-1.026-.268l-.28-.071a.382.382,0,0,1-.1-.032.392.392,0,0,1,.1.012l.284.053c.246.048.6.126,1.036.237a26.878,26.878,0,0,1,3.338,1.08,15.792,15.792,0,0,1,3.115,1.61A6.15,6.15,0,0,1,375.169,142.7Z" transform="translate(-366.188 -138.762)" fill="#fff"/>
        </g>
        <g id="Grupo_56985" data-name="Grupo 56985" transform="translate(11.073 69.088)">
          <path id="Trazado_103881" data-name="Trazado 103881" d="M335.422,218.813a.685.685,0,0,1-.189-.065,3.193,3.193,0,0,1-.48-.257,2.336,2.336,0,0,1-1.053-1.426,2.791,2.791,0,0,1,.187-1.772,2.443,2.443,0,0,1,.28-.468.66.66,0,0,1,.135-.147,5.637,5.637,0,0,0-.35.644,2.867,2.867,0,0,0-.154,1.721,2.357,2.357,0,0,0,.995,1.39C335.165,218.691,335.431,218.8,335.422,218.813Z" transform="translate(-333.633 -214.679)" fill="#fff"/>
        </g>
        <g id="Grupo_56986" data-name="Grupo 56986" transform="translate(11.315 67.981)">
          <path id="Trazado_103882" data-name="Trazado 103882" d="M334.139,212.392a4.193,4.193,0,0,1,.364,1.244,4.191,4.191,0,0,1-.364-1.244Z" transform="translate(-334.133 -212.392)" fill="#fff"/>
        </g>
        <g id="Grupo_57040" data-name="Grupo 57040" transform="translate(5.842 73.215)">
          <g id="Grupo_56987" data-name="Grupo 56987">
            <path id="Trazado_103883" data-name="Trazado 103883" d="M334.854,326.519l14.769-.074-.268-51.058-.138-51.935-20-.248-3.6,6.779a24.342,24.342,0,0,0-2.767,8.786c-.251,2.346,1.507,10,2.121,11.945l5.506,17.459Z" transform="translate(-322.829 -223.203)" fill="#263238"/>
            <path id="Trazado_103884" data-name="Trazado 103884" d="M370.08,223.8l16.227,44.237a20.406,20.406,0,0,1-2,17.284l-18.84,36.774-10.593-13.253L370.637,275.9l-13.9-22.515,2.338-29.537,6.546-.106Z" transform="translate(-339.359 -223.48)" fill="#263238"/>
          </g>
          <g id="Grupo_56988" data-name="Grupo 56988" transform="translate(25.036 15.138)">
            <path id="Trazado_103885" data-name="Trazado 103885" d="M374.543,254.471s.012.077.023.227.024.382.042.667c.032.6.078,1.46.137,2.565.108,2.239.264,5.459.456,9.434s.4,8.729.644,13.993c.118,2.634.243,5.4.372,8.264.092,1.432.05,2.893.067,4.374s.009,2.985.014,4.505c.02,12.168.039,23.181.052,31.166-.005,3.979-.01,7.2-.013,9.444-.007,1.106-.013,1.969-.016,2.568,0,.285-.008.506-.01.668s-.013.228-.013.228-.009-.077-.014-.228l-.014-.668c-.007-.6-.018-1.462-.031-2.567-.016-2.242-.039-5.465-.067-9.443-.032-7.984-.077-19-.126-31.162q-.007-2.282-.013-4.505c-.016-1.481.027-2.942-.063-4.374-.123-2.865-.243-5.629-.357-8.263-.222-5.265-.422-10.007-.59-13.994s-.287-7.2-.376-9.437c-.039-1.105-.069-1.968-.09-2.566-.007-.285-.013-.506-.017-.668S374.543,254.471,374.543,254.471Z" transform="translate(-374.54 -254.471)" fill="#455a64"/>
          </g>
          <g id="Grupo_56989" data-name="Grupo 56989" transform="translate(24.658 1.191)">
            <path id="Trazado_103886" data-name="Trazado 103886" d="M373.771,225.664a1.838,1.838,0,0,1,.1.481c.05.311.11.763.175,1.324.13,1.12.265,2.673.344,4.391s.081,3.278.053,4.405c-.014.564-.033,1.02-.055,1.334a1.838,1.838,0,0,1-.059.488,15.027,15.027,0,0,1-.064-1.822c-.018-1.125-.05-2.679-.127-4.393s-.185-3.264-.269-4.386A14.99,14.99,0,0,1,373.771,225.664Z" transform="translate(-373.759 -225.664)" fill="#455a64"/>
          </g>
          <g id="Grupo_56990" data-name="Grupo 56990" transform="translate(20.88 2.06)">
            <path id="Trazado_103887" data-name="Trazado 103887" d="M366.491,227.586a1.187,1.187,0,0,0-.327.552.627.627,0,0,0,.188.59.644.644,0,0,0,1.1-.5.628.628,0,0,0-.324-.528,1.178,1.178,0,0,0-.632-.112c-.006-.013.046-.064.172-.1a.827.827,0,0,1,1.016.729.867.867,0,0,1-1.493.684.826.826,0,0,1,.112-1.245C366.412,227.579,366.485,227.573,366.491,227.586Z" transform="translate(-365.956 -227.459)" fill="#455a64"/>
          </g>
          <g id="Grupo_56991" data-name="Grupo 56991" transform="translate(5.915 1.311)">
            <path id="Trazado_103888" data-name="Trazado 103888" d="M342.8,225.911a1.446,1.446,0,0,1,.133.463,4.59,4.59,0,0,1,.043,1.315,5.3,5.3,0,0,1-.559,1.876,4.966,4.966,0,0,1-3.784,2.716,5.3,5.3,0,0,1-1.956-.071,4.594,4.594,0,0,1-1.233-.461,1.442,1.442,0,0,1-.4-.274,8.347,8.347,0,0,0,1.665.561,5.083,5.083,0,0,0,6.086-4.368A8.4,8.4,0,0,0,342.8,225.911Z" transform="translate(-335.045 -225.911)" fill="#455a64"/>
          </g>
          <g id="Grupo_56992" data-name="Grupo 56992" transform="translate(28.739 1.269)">
            <path id="Trazado_103889" data-name="Trazado 103889" d="M386.113,230.1a1.959,1.959,0,0,1-.93-.11,4.322,4.322,0,0,1-2.935-3.234,1.959,1.959,0,0,1-.02-.936c.045,0,.047.356.194.9a4.679,4.679,0,0,0,2.818,3.105C385.763,230.024,386.118,230.06,386.113,230.1Z" transform="translate(-382.187 -225.825)" fill="#455a64"/>
          </g>
          <g id="Grupo_56993" data-name="Grupo 56993" transform="translate(32.35 51.786)">
            <path id="Trazado_103890" data-name="Trazado 103890" d="M395.729,331.621a3.065,3.065,0,0,1-.856.681,3.955,3.955,0,0,1-1.1.481,2.655,2.655,0,0,1-1.486-.039,4.326,4.326,0,0,1-2.069-1.646,3.838,3.838,0,0,1-.567-.932,5.97,5.97,0,0,1,.708.822,4.589,4.589,0,0,0,2,1.516,3.1,3.1,0,0,0,2.423-.357A10,10,0,0,1,395.729,331.621Z" transform="translate(-389.647 -330.165)" fill="#455a64"/>
          </g>
          <g id="Grupo_56994" data-name="Grupo 56994" transform="translate(31.881 52.057)">
            <path id="Trazado_103891" data-name="Trazado 103891" d="M391.532,334.735a24.007,24.007,0,0,1-2.851-4.009,24.061,24.061,0,0,1,2.851,4.009Z" transform="translate(-388.677 -330.724)" fill="#455a64"/>
          </g>
          <g id="Grupo_56995" data-name="Grupo 56995" transform="translate(9.363 15.515)">
            <path id="Trazado_103892" data-name="Trazado 103892" d="M342.728,256.589c-.064.026-.237-.253-.385-.623s-.215-.69-.151-.717.237.253.385.623S342.793,256.564,342.728,256.589Z" transform="translate(-342.168 -255.249)" fill="#fafafa"/>
          </g>
          <g id="Grupo_56996" data-name="Grupo 56996" transform="translate(19.172 17.123)">
            <path id="Trazado_103893" data-name="Trazado 103893" d="M362.553,259.642c-.07,0-.126-.24-.126-.535s.057-.536.126-.536.126.24.126.536S362.623,259.642,362.553,259.642Z" transform="translate(-362.427 -258.571)" fill="#fafafa"/>
          </g>
          <g id="Grupo_56997" data-name="Grupo 56997" transform="translate(15.266 21.946)">
            <path id="Trazado_103894" data-name="Trazado 103894" d="M354.54,269.87c-.069,0-.146-.291-.171-.661s.011-.673.08-.678.146.291.171.661S354.61,269.866,354.54,269.87Z" transform="translate(-354.361 -268.531)" fill="#fafafa"/>
          </g>
          <g id="Grupo_56998" data-name="Grupo 56998" transform="translate(7.422 26.291)">
            <path id="Trazado_103895" data-name="Trazado 103895" d="M339.142,278.249c-.058.043-.257-.136-.517-.322s-.488-.324-.465-.392.32-.026.614.188S339.2,278.21,339.142,278.249Z" transform="translate(-338.159 -277.506)" fill="#fafafa"/>
          </g>
          <g id="Grupo_56999" data-name="Grupo 56999" transform="translate(20.796 30.956)">
            <path id="Trazado_103896" data-name="Trazado 103896" d="M365.8,287.951c-.058-.039.015-.25.163-.472s.315-.37.373-.332-.015.25-.163.472S365.859,287.99,365.8,287.951Z" transform="translate(-365.782 -287.142)" fill="#fafafa"/>
          </g>
          <g id="Grupo_57000" data-name="Grupo 57000" transform="translate(13.011 31.319)">
            <path id="Trazado_103897" data-name="Trazado 103897" d="M349.829,289.678c-.07,0-.126-.4-.126-.893s.057-.893.126-.893.126.4.126.893S349.9,289.678,349.829,289.678Z" transform="translate(-349.703 -287.892)" fill="#fafafa"/>
          </g>
          <g id="Grupo_57001" data-name="Grupo 57001" transform="translate(9.661 37.808)">
            <path id="Trazado_103898" data-name="Trazado 103898" d="M343.77,302.021c-.041.057-.294-.058-.565-.255s-.458-.4-.417-.459.294.058.565.255S343.812,301.965,343.77,302.021Z" transform="translate(-342.783 -301.293)" fill="#fafafa"/>
          </g>
          <g id="Grupo_57002" data-name="Grupo 57002" transform="translate(17.598 40.392)">
            <path id="Trazado_103899" data-name="Trazado 103899" d="M359.984,306.665c.028.064-.129.2-.351.294s-.425.127-.453.063.129-.2.35-.294S359.956,306.6,359.984,306.665Z" transform="translate(-359.177 -306.631)" fill="#fafafa"/>
          </g>
          <g id="Grupo_57003" data-name="Grupo 57003" transform="translate(12.231 47.477)">
            <path id="Trazado_103900" data-name="Trazado 103900" d="M349,323.053c-.062.031-.313-.344-.559-.837s-.4-.918-.334-.949.312.343.559.837S349.06,323.022,349,323.053Z" transform="translate(-348.091 -321.265)" fill="#fafafa"/>
          </g>
          <g id="Grupo_57004" data-name="Grupo 57004" transform="translate(21.692 47.119)">
            <path id="Trazado_103901" data-name="Trazado 103901" d="M367.649,321.868c-.061-.033.048-.359.246-.729s.407-.643.468-.61-.049.359-.246.729S367.71,321.9,367.649,321.868Z" transform="translate(-367.632 -320.526)" fill="#fafafa"/>
          </g>
          <g id="Grupo_57005" data-name="Grupo 57005" transform="translate(17.673 54.262)">
            <path id="Trazado_103902" data-name="Trazado 103902" d="M359.617,336.978c-.072-.011-.066-.393-.14-.847s-.192-.817-.128-.849.3.31.377.81S359.682,336.992,359.617,336.978Z" transform="translate(-359.331 -335.28)" fill="#fafafa"/>
          </g>
          <g id="Grupo_57006" data-name="Grupo 57006" transform="translate(13.038 59.257)">
            <path id="Trazado_103903" data-name="Trazado 103903" d="M350.661,346.585c-.051.047-.293-.135-.539-.406s-.4-.529-.353-.576.293.135.54.406S350.713,346.539,350.661,346.585Z" transform="translate(-349.759 -345.596)" fill="#fafafa"/>
          </g>
          <g id="Grupo_57007" data-name="Grupo 57007" transform="translate(23.684 60.875)">
            <path id="Trazado_103904" data-name="Trazado 103904" d="M371.755,349.936c-.049-.048.128-.31.4-.583s.528-.455.577-.406-.128.31-.4.583S371.8,349.985,371.755,349.936Z" transform="translate(-371.747 -348.939)" fill="#fafafa"/>
          </g>
          <g id="Grupo_57008" data-name="Grupo 57008" transform="translate(18.032 66.676)">
            <path id="Trazado_103905" data-name="Trazado 103905" d="M360.124,362.531c-.069-.01-.07-.38,0-.824s.178-.8.247-.786.07.379,0,.824S360.193,362.542,360.124,362.531Z" transform="translate(-360.072 -360.921)" fill="#fafafa"/>
          </g>
          <g id="Grupo_57009" data-name="Grupo 57009" transform="translate(13.567 70.154)">
            <path id="Trazado_103906" data-name="Trazado 103906" d="M351.593,369.349c-.06.035-.272-.214-.473-.557s-.315-.65-.255-.685.272.215.473.558S351.653,369.314,351.593,369.349Z" transform="translate(-350.85 -368.103)" fill="#fafafa"/>
          </g>
          <g id="Grupo_57010" data-name="Grupo 57010" transform="translate(22.148 75.317)">
            <path id="Trazado_103907" data-name="Trazado 103907" d="M369.827,378.781c.04.057-.206.3-.551.549s-.657.4-.7.345.206-.3.551-.55S369.787,378.724,369.827,378.781Z" transform="translate(-368.574 -378.769)" fill="#fafafa"/>
          </g>
          <g id="Grupo_57011" data-name="Grupo 57011" transform="translate(15.804 78.638)">
            <path id="Trazado_103908" data-name="Trazado 103908" d="M355.5,387.418c-.068-.024.019-.414.059-.9s.028-.88.1-.893.2.4.152.915S355.559,387.443,355.5,387.418Z" transform="translate(-355.471 -385.628)" fill="#fafafa"/>
          </g>
          <g id="Grupo_57012" data-name="Grupo 57012" transform="translate(18.124 86.845)">
            <path id="Trazado_103909" data-name="Trazado 103909" d="M360.99,403.477c-.055.044-.259-.121-.456-.367s-.313-.482-.259-.525.259.122.456.368S361.045,403.434,360.99,403.477Z" transform="translate(-360.262 -402.578)" fill="#fafafa"/>
          </g>
          <g id="Grupo_57013" data-name="Grupo 57013" transform="translate(14.555 91.223)">
            <path id="Trazado_103910" data-name="Trazado 103910" d="M353.885,413.053c-.058.039-.324-.248-.6-.643s-.444-.746-.387-.786.324.248.6.643S353.942,413.013,353.885,413.053Z" transform="translate(-352.892 -411.621)" fill="#fafafa"/>
          </g>
          <g id="Grupo_57014" data-name="Grupo 57014" transform="translate(24.61 85.778)">
            <path id="Trazado_103911" data-name="Trazado 103911" d="M373.7,401.091c-.065-.025-.058-.2.016-.4s.187-.337.252-.313.058.2-.016.4S373.77,401.115,373.7,401.091Z" transform="translate(-373.66 -400.374)" fill="#fafafa"/>
          </g>
          <g id="Grupo_57015" data-name="Grupo 57015" transform="translate(20.619 96.583)">
            <path id="Trazado_103912" data-name="Trazado 103912" d="M365.435,424.3c-.064-.033.058-.378.152-.81s.134-.794.205-.8.146.383.041.852S365.493,424.333,365.435,424.3Z" transform="translate(-365.417 -422.693)" fill="#fafafa"/>
          </g>
          <g id="Grupo_57016" data-name="Grupo 57016" transform="translate(22.764 22.383)">
            <path id="Trazado_103913" data-name="Trazado 103913" d="M370.331,270.415c-.063.03-.217-.166-.343-.435s-.178-.512-.115-.542.217.165.343.435S370.394,270.385,370.331,270.415Z" transform="translate(-369.846 -269.435)" fill="#fafafa"/>
          </g>
          <g id="Grupo_57017" data-name="Grupo 57017" transform="translate(15.179 8.275)">
            <path id="Trazado_103914" data-name="Trazado 103914" d="M355.531,240.3c.038.061-.3.334-.662.721s-.613.742-.677.708.1-.467.493-.88S355.5,240.246,355.531,240.3Z" transform="translate(-354.18 -240.294)" fill="#fafafa"/>
          </g>
          <g id="Grupo_57018" data-name="Grupo 57018" transform="translate(21.877 6.85)">
            <path id="Trazado_103915" data-name="Trazado 103915" d="M368.649,238.608c-.07.015-.184-.273-.352-.605s-.326-.6-.273-.644.316.165.5.532S368.716,238.6,368.649,238.608Z" transform="translate(-368.014 -237.352)" fill="#fafafa"/>
          </g>
          <g id="Grupo_57019" data-name="Grupo 57019" transform="translate(3.85 11.683)">
            <path id="Trazado_103916" data-name="Trazado 103916" d="M330.806,248.676c-.065-.025,0-.347.148-.717s.318-.65.382-.624,0,.347-.148.717S330.871,248.7,330.806,248.676Z" transform="translate(-330.782 -247.334)" fill="#fafafa"/>
          </g>
          <g id="Grupo_57020" data-name="Grupo 57020" transform="translate(3.4 19.434)">
            <path id="Trazado_103917" data-name="Trazado 103917" d="M330.928,264.248c-.045.053-.32-.1-.616-.35s-.5-.49-.455-.543.32.1.617.35S330.972,264.194,330.928,264.248Z" transform="translate(-329.85 -263.344)" fill="#fafafa"/>
          </g>
          <g id="Grupo_57021" data-name="Grupo 57021" transform="translate(16.317 1.586)">
            <path id="Trazado_103918" data-name="Trazado 103918" d="M356.922,227.375c-.065.026-.2-.153-.3-.4s-.126-.468-.061-.493.2.153.3.4S356.987,227.349,356.922,227.375Z" transform="translate(-356.53 -226.48)" fill="#fafafa"/>
          </g>
          <g id="Grupo_57022" data-name="Grupo 57022" transform="translate(28.372 4.807)">
            <path id="Trazado_103919" data-name="Trazado 103919" d="M381.478,234.381c-.068-.015-.061-.306.014-.651s.192-.612.259-.6.062.306-.014.651S381.546,234.4,381.478,234.381Z" transform="translate(-381.431 -233.132)" fill="#fafafa"/>
          </g>
          <g id="Grupo_57023" data-name="Grupo 57023" transform="translate(31.151 10.069)">
            <path id="Trazado_103920" data-name="Trazado 103920" d="M387.191,245.519c-.064-.027.023-.388.2-.807s.365-.737.429-.711-.024.388-.2.807S387.256,245.546,387.191,245.519Z" transform="translate(-387.17 -244)" fill="#fafafa"/>
          </g>
          <g id="Grupo_57024" data-name="Grupo 57024" transform="translate(28.389 14.443)">
            <path id="Trazado_103921" data-name="Trazado 103921" d="M382.284,254.644c-.062.031-.293-.3-.515-.748s-.351-.828-.289-.86.293.3.515.747S382.346,254.613,382.284,254.644Z" transform="translate(-381.465 -253.035)" fill="#fafafa"/>
          </g>
          <g id="Grupo_57025" data-name="Grupo 57025" transform="translate(33.375 19.354)">
            <path id="Trazado_103922" data-name="Trazado 103922" d="M391.793,264.341c-.065-.025-.018-.305.106-.626s.276-.56.341-.535.018.3-.106.626S391.858,264.365,391.793,264.341Z" transform="translate(-391.764 -263.178)" fill="#fafafa"/>
          </g>
          <g id="Grupo_57026" data-name="Grupo 57026" transform="translate(29.184 24.17)">
            <path id="Trazado_103923" data-name="Trazado 103923" d="M383.577,273.847c-.059.037-.207-.093-.33-.29s-.175-.387-.116-.424.207.093.33.29S383.636,273.81,383.577,273.847Z" transform="translate(-383.107 -273.126)" fill="#fafafa"/>
          </g>
          <g id="Grupo_57027" data-name="Grupo 57027" transform="translate(29.286 32.655)">
            <path id="Trazado_103924" data-name="Trazado 103924" d="M384.487,291.908c-.051.047-.352-.194-.673-.539s-.539-.663-.488-.711.352.194.673.539S384.538,291.86,384.487,291.908Z" transform="translate(-383.319 -290.652)" fill="#fafafa"/>
          </g>
          <g id="Grupo_57028" data-name="Grupo 57028" transform="translate(34.376 27.475)">
            <path id="Trazado_103925" data-name="Trazado 103925" d="M394.824,281.207c-.055.043-.319-.2-.59-.547s-.447-.66-.392-.7.319.2.59.548S394.878,281.164,394.824,281.207Z" transform="translate(-393.831 -279.952)" fill="#fafafa"/>
          </g>
          <g id="Grupo_57029" data-name="Grupo 57029" transform="translate(38.046 34.363)">
            <path id="Trazado_103926" data-name="Trazado 103926" d="M401.43,295.7c-.063-.03.047-.394.245-.812s.41-.734.473-.7-.047.393-.245.812S401.493,295.726,401.43,295.7Z" transform="translate(-401.412 -294.179)" fill="#fafafa"/>
          </g>
          <g id="Grupo_57030" data-name="Grupo 57030" transform="translate(31.17 40.678)">
            <path id="Trazado_103927" data-name="Trazado 103927" d="M388.372,308.309c-.061.037-.286-.231-.6-.517s-.6-.49-.563-.554.394.054.733.369S388.431,308.277,388.372,308.309Z" transform="translate(-387.209 -307.222)" fill="#fafafa"/>
          </g>
          <g id="Grupo_57031" data-name="Grupo 57031" transform="translate(31.619 47.71)">
            <path id="Trazado_103928" data-name="Trazado 103928" d="M389.207,321.873c0,.07-.24.126-.536.126s-.535-.056-.535-.126.24-.126.535-.126S389.207,321.8,389.207,321.873Z" transform="translate(-388.136 -321.747)" fill="#fafafa"/>
          </g>
          <g id="Grupo_57032" data-name="Grupo 57032" transform="translate(38.566 44.711)">
            <path id="Trazado_103929" data-name="Trazado 103929" d="M402.5,316.981c-.061-.038.063-.339.156-.72s.129-.7.2-.708.151.346.044.77S402.557,317.019,402.5,316.981Z" transform="translate(-402.486 -315.553)" fill="#fafafa"/>
          </g>
          <g id="Grupo_57033" data-name="Grupo 57033" transform="translate(43.852 46.576)">
            <path id="Trazado_103930" data-name="Trazado 103930" d="M413.988,321c-.066.023-.244-.316-.4-.758s-.227-.818-.161-.84.245.316.4.757S414.054,320.981,413.988,321Z" transform="translate(-413.403 -319.405)" fill="#fafafa"/>
          </g>
          <g id="Grupo_57034" data-name="Grupo 57034" transform="translate(43.49 54.802)">
            <path id="Trazado_103931" data-name="Trazado 103931" d="M412.67,338.095c-.062-.032.087-.439.333-.907s.495-.823.557-.791-.088.439-.334.908S412.732,338.127,412.67,338.095Z" transform="translate(-412.656 -336.395)" fill="#fafafa"/>
          </g>
          <g id="Grupo_57035" data-name="Grupo 57035" transform="translate(37.486 59.8)">
            <path id="Trazado_103932" data-name="Trazado 103932" d="M400.93,348.314c-.064.027-.263-.309-.444-.749s-.275-.819-.211-.846.263.309.444.75S400.994,348.288,400.93,348.314Z" transform="translate(-400.255 -346.718)" fill="#fafafa"/>
          </g>
          <g id="Grupo_57036" data-name="Grupo 57036" transform="translate(31.351 63.156)">
            <path id="Trazado_103933" data-name="Trazado 103933" d="M388.476,353.775c0,.07-.2.126-.446.126s-.446-.057-.446-.126.2-.126.446-.126S388.476,353.705,388.476,353.775Z" transform="translate(-387.583 -353.649)" fill="#fafafa"/>
          </g>
          <g id="Grupo_57037" data-name="Grupo 57037" transform="translate(35.241 69.709)">
            <path id="Trazado_103934" data-name="Trazado 103934" d="M396.013,368.524c-.067.018-.2-.267-.3-.637s-.124-.684-.057-.7.2.267.3.638S396.081,368.507,396.013,368.524Z" transform="translate(-395.618 -367.184)" fill="#fafafa"/>
          </g>
          <g id="Grupo_57038" data-name="Grupo 57038" transform="translate(31.33 67.562)">
            <path id="Trazado_103935" data-name="Trazado 103935" d="M387.56,363.649c-.06-.036.012-.265.159-.511s.317-.417.376-.382-.012.264-.16.511S387.62,363.685,387.56,363.649Z" transform="translate(-387.539 -362.751)" fill="#fafafa"/>
          </g>
          <g id="Grupo_57039" data-name="Grupo 57039" transform="translate(31.018 75.513)">
            <path id="Trazado_103936" data-name="Trazado 103936" d="M387.139,380.691c-.069.008-.165-.325-.214-.744s-.033-.765.036-.774.165.325.214.744S387.208,380.682,387.139,380.691Z" transform="translate(-386.896 -379.173)" fill="#fafafa"/>
          </g>
        </g>
      </g>
    </g>
  </g>
</svg>
