<svg xmlns="http://www.w3.org/2000/svg" width="108" height="108" viewBox="0 0 108 108">
  <g id="Grupo_58945" data-name="Grupo 58945" transform="translate(-799 -1310)">
    <g id="Grupo_57064" data-name="Grupo 57064" transform="translate(798.738 1309.738)">
      <g id="Elipse_4293" data-name="Elipse 4293" transform="translate(0.261 0.262)" fill="#fff" stroke="#065949" stroke-width="3">
        <circle cx="54" cy="54" r="54" stroke="none"/>
        <circle cx="54" cy="54" r="52.5" fill="none"/>
      </g>
    </g>
    <g id="Icons" transform="translate(809.946 1320)">
      <g id="Grupo_57077" data-name="Grupo 57077" transform="translate(8 8)">
        <g id="Grupo_57066" data-name="Grupo 57066">
          <path id="Trazado_103982" data-name="Trazado 103982" d="M58.522,52.669a5.539,5.539,0,0,1,9.726,0l2.3,4.215A33.29,33.29,0,1,0,46.9,73.969Z" transform="translate(-8 -8)" fill="#fab400"/>
        </g>
        <g id="Grupo_57067" data-name="Grupo 57067" transform="translate(0 0)">
          <path id="Trazado_103983" data-name="Trazado 103983" d="M13.538,41.231A33.228,33.228,0,0,1,44,8.123C43.086,8.048,42.164,8,41.231,8a33.231,33.231,0,0,0,0,66.462c.933,0,1.855-.048,2.769-.123A33.228,33.228,0,0,1,13.538,41.231Z" transform="translate(-8 -8)" fill="#dc9600"/>
        </g>
        <g id="Grupo_57073" data-name="Grupo 57073" transform="translate(40.661 44.552)">
          <path id="Trazado_103989" data-name="Trazado 103989" d="M49.659,41.62,37.708,63.529a2.77,2.77,0,0,0,2.431,4.1h23.9a2.77,2.77,0,0,0,2.431-4.1L54.521,41.62A2.769,2.769,0,0,0,49.659,41.62Z" transform="translate(-37.366 -40.177)" fill="#fab400"/>
        </g>
        <g id="Grupo_57074" data-name="Grupo 57074" transform="translate(40.661 44.569)">
          <path id="Trazado_103990" data-name="Trazado 103990" d="M39.6,63.524,51.551,41.615a2.707,2.707,0,0,1,1.486-1.257,2.748,2.748,0,0,0-3.377,1.257L37.709,63.524a2.769,2.769,0,0,0,2.43,4.1h1.891A2.769,2.769,0,0,1,39.6,63.524Z" transform="translate(-37.366 -40.189)" fill="#dc9600"/>
        </g>
        <g id="Grupo_57075" data-name="Grupo 57075" transform="translate(30.462 7.615)">
          <path id="Trazado_103991" data-name="Trazado 103991" d="M52.1,76.6A5.1,5.1,0,0,1,47,71.5V51.1a5.1,5.1,0,1,1,10.2,0V71.5A5.1,5.1,0,0,1,52.1,76.6Z" transform="translate(-47.001 -45.999)" fill="#065949"/>
        </g>
        <g id="Grupo_57076" data-name="Grupo 57076" transform="translate(30.462 48.415)">
          <path id="Trazado_103992" data-name="Trazado 103992" d="M52.1,64.2a5.1,5.1,0,1,1,5.1-5.1A5.1,5.1,0,0,1,52.1,64.2Z" transform="translate(-47.001 -54)" fill="#065949"/>
        </g>
      </g>
    </g>
  </g>
</svg>
