<svg xmlns="http://www.w3.org/2000/svg" xmlns:xlink="http://www.w3.org/1999/xlink" width="259.533" height="263.334" viewBox="0 0 259.533 263.334">
  <defs>
    <linearGradient id="linear-gradient" x1="0.255" y1="0.183" x2="1.032" y2="1.188" gradientUnits="objectBoundingBox">
      <stop offset="0" stop-color="#69d1ff"/>
      <stop offset="1" stop-color="#3761a9"/>
    </linearGradient>
    <linearGradient id="linear-gradient-2" x1="-0.404" y1="-0.588" x2="1.174" y2="1.079" gradientUnits="objectBoundingBox">
      <stop offset="0" stop-color="#53d8ff"/>
      <stop offset="1" stop-color="#3840f7"/>
    </linearGradient>
    <linearGradient id="linear-gradient-3" x1="1.473" y1="-2.837" x2="-0.485" y2="3.393" xlink:href="#linear-gradient-2"/>
    <linearGradient id="linear-gradient-4" x1="-0.281" y1="1.359" x2="1.473" y2="-0.461" xlink:href="#linear-gradient-2"/>
    <linearGradient id="linear-gradient-5" x1="-3289.591" y1="0.5" x2="-3288.592" y2="0.5" gradientUnits="objectBoundingBox">
      <stop offset="0" stop-color="#2b3582"/>
      <stop offset="1" stop-color="#150e42"/>
    </linearGradient>
    <linearGradient id="linear-gradient-6" x1="-3296.24" y1="0.5" x2="-3295.239" y2="0.5" xlink:href="#linear-gradient-5"/>
    <linearGradient id="linear-gradient-7" x1="-3296.24" y1="0.5" x2="-3295.239" y2="0.5" xlink:href="#linear-gradient-5"/>
    <linearGradient id="linear-gradient-8" x1="-3291.25" y1="0.5" x2="-3290.25" y2="0.5" xlink:href="#linear-gradient-5"/>
    <linearGradient id="linear-gradient-9" x1="-3291.25" y1="0.5" x2="-3290.25" y2="0.5" xlink:href="#linear-gradient-5"/>
    <linearGradient id="linear-gradient-10" x1="-3291.25" y1="0.5" x2="-3290.251" y2="0.5" xlink:href="#linear-gradient-5"/>
    <linearGradient id="linear-gradient-11" x1="1.469" y1="-0.736" x2="-0.118" y2="1.289" gradientUnits="objectBoundingBox">
      <stop offset="0" stop-color="#fad228"/>
      <stop offset="1" stop-color="#c98f1d"/>
    </linearGradient>
    <linearGradient id="linear-gradient-12" x1="1.17" y1="-4.949" x2="-0.417" y2="7.961" xlink:href="#linear-gradient-11"/>
    <linearGradient id="linear-gradient-13" x1="1.767" y1="-9.804" x2="0.18" y2="3.105" xlink:href="#linear-gradient-11"/>
    <linearGradient id="linear-gradient-14" x1="-0.091" y1="-0.075" x2="1.025" y2="1.012" gradientUnits="objectBoundingBox">
      <stop offset="0" stop-color="#fad228"/>
      <stop offset="1" stop-color="#a0871d"/>
    </linearGradient>
    <linearGradient id="linear-gradient-15" x1="0.244" y1="-1.089" x2="1.36" y2="5.842" xlink:href="#linear-gradient-14"/>
    <linearGradient id="linear-gradient-16" x1="-0.424" y1="-5.24" x2="0.692" y2="1.691" xlink:href="#linear-gradient-14"/>
    <linearGradient id="linear-gradient-17" x1="0.755" y1="0.167" x2="-0.813" y2="2.211" gradientUnits="objectBoundingBox">
      <stop offset="0" stop-color="#09b291"/>
      <stop offset="1" stop-color="#065949"/>
    </linearGradient>
    <linearGradient id="linear-gradient-18" x1="0.459" y1="0.837" x2="-1.109" y2="13.864" gradientUnits="objectBoundingBox">
      <stop offset="0" stop-color="#09b291"/>
      <stop offset="1" stop-color="#098970"/>
    </linearGradient>
    <linearGradient id="linear-gradient-19" x1="1.05" y1="-4.066" x2="-0.519" y2="8.961" xlink:href="#linear-gradient-17"/>
    <linearGradient id="linear-gradient-20" x1="-297.82" y1="-0.484" x2="-300.655" y2="6.012" xlink:href="#linear-gradient-5"/>
    <linearGradient id="linear-gradient-21" x1="-1188.977" y1="0.5" x2="-1187.977" y2="0.5" gradientUnits="objectBoundingBox">
      <stop offset="0" stop-color="#f9b776"/>
      <stop offset="1" stop-color="#f47960"/>
    </linearGradient>
    <linearGradient id="linear-gradient-22" x1="-358.297" y1="0.031" x2="-361.195" y2="0.887" xlink:href="#linear-gradient-5"/>
    <linearGradient id="linear-gradient-23" x1="-742.529" y1="-2.223" x2="-749.547" y2="5.384" xlink:href="#linear-gradient-5"/>
    <linearGradient id="linear-gradient-24" x1="-1385.42" y1="0.5" x2="-1384.421" y2="0.5" xlink:href="#linear-gradient-21"/>
    <linearGradient id="linear-gradient-25" x1="-252.918" y1="-0.035" x2="-254.959" y2="0.806" xlink:href="#linear-gradient-5"/>
    <linearGradient id="linear-gradient-26" x1="-137.604" y1="0.5" x2="-136.604" y2="0.5" xlink:href="#linear-gradient-5"/>
    <linearGradient id="linear-gradient-27" x1="-231.129" y1="2.124" x2="-232.187" y2="3.524" gradientUnits="objectBoundingBox">
      <stop offset="0" stop-color="#53eac9"/>
      <stop offset="0.996" stop-color="#45aed8"/>
    </linearGradient>
    <linearGradient id="linear-gradient-28" x1="1192.111" y1="1.605" x2="1194.111" y2="4.278" xlink:href="#linear-gradient-21"/>
    <linearGradient id="linear-gradient-29" x1="-1653.33" y1="0.706" x2="-1651.311" y2="-1.072" xlink:href="#linear-gradient-21"/>
    <linearGradient id="linear-gradient-30" x1="-309.099" y1="1.066" x2="-305.05" y2="-1.521" gradientUnits="objectBoundingBox">
      <stop offset="0" stop-color="#9cfffb"/>
      <stop offset="1" stop-color="#9bfffa"/>
    </linearGradient>
    <linearGradient id="linear-gradient-31" x1="-466.265" y1="0.5" x2="-465.265" y2="0.5" xlink:href="#linear-gradient-21"/>
    <linearGradient id="linear-gradient-32" x1="-259.873" y1="0.5" x2="-258.873" y2="0.5" xlink:href="#linear-gradient-30"/>
    <linearGradient id="linear-gradient-33" x1="-344.822" y1="0.526" x2="-346.499" y2="1.012" xlink:href="#linear-gradient-27"/>
    <linearGradient id="linear-gradient-34" x1="-242.758" y1="2.473" x2="-243.865" y2="4.921" xlink:href="#linear-gradient-27"/>
    <linearGradient id="linear-gradient-35" x1="-874.503" y1="1.848" x2="-870.992" y2="-5.381" xlink:href="#linear-gradient-30"/>
    <linearGradient id="linear-gradient-36" x1="-516.23" y1="0.618" x2="-515.957" y2="0.482" xlink:href="#linear-gradient-27"/>
    <linearGradient id="linear-gradient-37" x1="-1092.174" y1="0.5" x2="-1091.174" y2="0.5" xlink:href="#linear-gradient-30"/>
    <linearGradient id="linear-gradient-38" x1="-185.268" y1="0.5" x2="-184.268" y2="0.5" xlink:href="#linear-gradient-30"/>
    <linearGradient id="linear-gradient-39" x1="-170.822" y1="-0.062" x2="-170.309" y2="2.428" gradientUnits="objectBoundingBox">
      <stop offset="0" stop-color="#fdf53f"/>
      <stop offset="1" stop-color="#d93c65"/>
    </linearGradient>
    <linearGradient id="linear-gradient-40" x1="-895.564" y1="-3.496" x2="-896.137" y2="1.804" xlink:href="#linear-gradient-2"/>
    <linearGradient id="linear-gradient-41" x1="-469.01" y1="-1.235" x2="-469.154" y2="1.146" xlink:href="#linear-gradient-2"/>
    <linearGradient id="linear-gradient-42" x1="-590.923" y1="0.5" x2="-589.923" y2="0.5" xlink:href="#linear-gradient-21"/>
    <linearGradient id="linear-gradient-43" x1="-371.492" y1="0.5" x2="-370.492" y2="0.5" xlink:href="#linear-gradient-27"/>
    <linearGradient id="linear-gradient-44" x1="-347.7" y1="0.5" x2="-346.7" y2="0.5" xlink:href="#linear-gradient-27"/>
    <linearGradient id="linear-gradient-45" x1="-502.304" y1="-239.992" x2="-503.513" y2="-238.698" xlink:href="#linear-gradient-21"/>
    <linearGradient id="linear-gradient-46" x1="-361.247" y1="-155.881" x2="-360.211" y2="-155.881" xlink:href="#linear-gradient-5"/>
    <linearGradient id="linear-gradient-47" x1="-1399.664" y1="-756.565" x2="-1396.976" y2="-759.107" xlink:href="#linear-gradient-21"/>
  </defs>
  <g id="Grupo_56271" data-name="Grupo 56271" transform="translate(-1880.5 -1116.13)">
    <path id="Trazado_102851" data-name="Trazado 102851" d="M2108.807,1337.91a99.238,99.238,0,0,1-17.428,14.146c-45.135,30.137-96.729,21.452-112.681,18.482-25.736-4.79-47.461-8.169-66.126-25.032-42.413-38.319-40.35-118.255-7.942-167.772,3.843-5.872,36.2-53.839,87.909-60.6,1.264-.166,2.208-.259,3.035-.347,8-.847,57.565-5.316,97.982,28.545a120.548,120.548,0,0,1,23.73,26.924C2148.855,1221.015,2148.954,1296.526,2108.807,1337.91Z" fill="#11f2c6" opacity="0.13"/>
    <g id="Grupo_56246" data-name="Grupo 56246" transform="translate(1882.413 1117.131)">
      <ellipse id="Elipse_4332" data-name="Elipse 4332" cx="113.73" cy="122.76" rx="113.73" ry="122.76" transform="matrix(0.044, -0.999, 0.999, 0.044, 0, 227.241)" fill="url(#linear-gradient)"/>
      <path id="Trazado_102852" data-name="Trazado 102852" d="M1919.183,1162.88c-2.695,4.326-4.772,9.2-4.383,14.278.453,5.884,3.43,11.393,3.583,17.293.259,10-7.464,18.378-9.873,28.092-2.693,10.857,7.46,23.228,11.5,29.288s2.307-4.916,4.76-9.2,7.742,18.01,16,22.9c4.433,2.624,9.633,4.372,12.822,8.418,4.649,5.9,3.362,14.3,2.663,21.781s.347,16.6,7.086,19.925c3.967,1.958,9.009,1.3,12.589,3.895,6.288,4.565,3.284,14.517,5.775,21.876,2.71,8,8.081,8.108,16.393,9.806s-1.047-16.563,2.846-22.945c2.047-3.355,5.171-6.024,6.785-9.606,2.239-4.969,1.608-11.607,5.95-14.9,3.255-2.468,7.784-1.8,11.869-1.837s9.053-1.809,9.516-5.867c.411-3.6-3.194-6.472-6.72-7.307s-7.286-.437-10.75-1.5c-9.908-3.051-14.529-16.915-24.875-17.564-8.845-.555-16.252,9.373-24.942,7.639-4.844-.967-8.161-5.257-11.756-8.644-4.62-4.352-10.353-7.618-14.02-12.8s-4.292-13.458.925-17.07c3.877-2.683,9.383-1.594,13.212,1.156s6.437,6.83,9.249,10.614a7.025,7.025,0,0,0,3.241,2.815c3.739,1.171,6.467-4.09,5.573-7.9s-3.589-7.17-3.716-11.086c-.223-6.9,7.209-11.281,13.729-13.555s14.2-4.985,16.121-11.619c.677-2.344.5-4.921,1.532-7.131,3.425-7.323,21.5-10.977,17.176-15.223s-18.029-5.168-20.7-13.72c-.956-3.061-1.94-7.107-5.134-7.4-5.2-.482-8.169,5.956-12.531,7.061-2.072.525-2.271,4.042-2.19,8.368a5.687,5.687,0,0,1-11.373.215,8.781,8.781,0,0,1,.661-3.519,15.913,15.913,0,0,1,4.043-5.24c6.71-6.407,26.732-13.447,22.54-16.174s-24.317-10.254-27.318-6.1,1.962.636,3.173,5.563-14.886,4.266-22.329,6.4a5.33,5.33,0,0,1-3.743.138c-1.286-.622-1.827-2.12-2.525-3.366-3.738-6.678-16.172-2.343-16.172-2.343A20.231,20.231,0,0,0,1919.183,1162.88Z" transform="translate(-1884.16 -1119.225)" fill="url(#linear-gradient-2)"/>
      <path id="Trazado_102853" data-name="Trazado 102853" d="M1979.951,1130.954c-1.808,3.369,3.567,3.314,4.1,7.1,4.839.527,6.825-7.1,11.609-7.991,2.7-.5,5.318,1.432,6.786,3.754s2.151,5.048,3.4,7.5a18.46,18.46,0,0,0,14.674,9.849,5.072,5.072,0,0,0,3.809-.862c2.917-2.57-1.255-7.4-.171-11.13,1.238-4.264,7.388-3.617,11.545-5.181,1.146-.432,9.965-2.785,10.106-4,.252-2.157-3.839-3.531-8.416-4.708-7.753-1.994-21.4-1.911-28.065-1.307-8.872.8-23.653.154-29.375,6.982Z" transform="translate(-1888.693 -1117.604)" fill="url(#linear-gradient-3)"/>
      <g id="Grupo_56244" data-name="Grupo 56244" transform="translate(190.957 47.921)">
        <path id="Trazado_102854" data-name="Trazado 102854" d="M2134.673,1278.68a111.831,111.831,0,0,0-.491-38.042c-.623-3.343-2.082-7.326-5.448-7.808-3.893-.556-8.658,3.915-11.1.829-1.075-1.362-.646-3.346-.037-4.971a32.939,32.939,0,0,1,7.333-11.494c1.994-2.027,4.276-3.824,5.811-6.218,3.284-5.12.979-12.6-3.669-16.524s-10.646,3.111-15.531.319-5.039-9.568-5.957-15.12c-.68-4.113-3.711-15.256-7.058-9.829s4.466,27.029,13.259,37.385c1.06,1.249,2.231,2.648,2.142,4.284-.215,3.908-5.907,3.733-9.738,4.533-4.741.99-12.009-1.549-8,6.713,2.115,4.357,12.219,10.322,9.5,13.237s-11.061,11.362-14.977,18.193-5.815,15.337-2.861,22.636,11.833,12.339,19.082,9.264c3.393-1.44,7.09-4.431,10.244-2.525,2.856,1.727,2.434,5.872,2.293,9.206s1.78,7.76,5.024,6.977a5.38,5.38,0,0,0,2.628-1.9C2131.7,1292.585,2133.576,1285.545,2134.673,1278.68Z" transform="translate(-2086.42 -1168.361)" fill="url(#linear-gradient-4)"/>
      </g>
      <ellipse id="Elipse_4333" data-name="Elipse 4333" cx="96.329" cy="91" rx="96.329" ry="91" transform="translate(24.657 19.799)" fill="#fff" opacity="0.2"/>
      <g id="Grupo_56245" data-name="Grupo 56245" transform="translate(19.033 9.687)" opacity="0.68">
        <path id="Trazado_102855" data-name="Trazado 102855" d="M2051.152,1238.851a344.783,344.783,0,0,1-4.917,59.912c-.891,4.938-1.924,9.852-3.156,14.719a141.677,141.677,0,0,1-4.411,14.4c-.876,2.357-1.834,4.684-2.912,6.96a54.033,54.033,0,0,1-3.669,6.608,27.025,27.025,0,0,1-4.933,5.764,14.043,14.043,0,0,1-3.223,2.081,9.634,9.634,0,0,1-3.756.887,9.461,9.461,0,0,1-3.8-.7,13.2,13.2,0,0,1-3.3-1.966,25.655,25.655,0,0,1-5.04-5.673,52.237,52.237,0,0,1-3.728-6.577c-1.092-2.268-2.063-4.591-2.948-6.943a138.33,138.33,0,0,1-4.458-14.389c-1.245-4.864-2.288-9.776-3.186-14.713-1.794-9.875-3.013-19.844-3.835-29.842s-1.22-20.03-1.264-30.061c-.021-5.016.1-10.03.279-15.042s.453-10.02.817-15.022c.731-10,1.829-19.983,3.466-29.881.822-4.948,1.78-9.875,2.934-14.758a142.02,142.02,0,0,1,4.172-14.464c.839-2.366,1.757-4.707,2.8-6.994a50.989,50.989,0,0,1,3.59-6.633,24.713,24.713,0,0,1,4.934-5.717,12.61,12.61,0,0,1,3.259-1.957,9.187,9.187,0,0,1,3.746-.669,9.92,9.92,0,0,1,3.7.87,14.5,14.5,0,0,1,3.219,2.015,27.515,27.515,0,0,1,5.042,5.619,53.725,53.725,0,0,1,3.831,6.5c1.136,2.241,2.15,4.544,3.084,6.874a137.058,137.058,0,0,1,4.735,14.288c1.334,4.839,2.461,9.73,3.436,14.652A315.622,315.622,0,0,1,2051.152,1238.851Zm-1.2,0c.015-10-.369-20-1.2-29.964a288.153,288.153,0,0,0-3.935-29.72c-.928-4.911-2.009-9.794-3.293-14.624a136.663,136.663,0,0,0-4.587-14.258c-.909-2.325-1.895-4.62-3-6.854a53.281,53.281,0,0,0-3.736-6.467,27.118,27.118,0,0,0-4.908-5.572,14.154,14.154,0,0,0-3.112-1.987,9.338,9.338,0,0,0-3.557-.864,8.724,8.724,0,0,0-3.589.672,12.182,12.182,0,0,0-3.139,1.924,24.249,24.249,0,0,0-4.79,5.655,50.382,50.382,0,0,0-3.5,6.6c-1.018,2.277-1.91,4.611-2.723,6.97a141.046,141.046,0,0,0-4.024,14.429c-1.106,4.873-2.018,9.792-2.793,14.73-1.543,9.879-2.55,19.84-3.191,29.819s-.882,19.984-.865,29.983q-.029,15,1.073,29.969c.756,9.969,1.911,19.913,3.635,29.759.865,4.922,1.873,9.819,3.081,14.666a137.7,137.7,0,0,0,4.34,14.325c.864,2.34,1.813,4.648,2.878,6.9a51.463,51.463,0,0,0,3.632,6.5,25,25,0,0,0,4.863,5.549,12.507,12.507,0,0,0,3.119,1.888,8.657,8.657,0,0,0,3.534.671,9,9,0,0,0,3.5-.853,13.364,13.364,0,0,0,3.053-2,26.356,26.356,0,0,0,4.764-5.644,53.277,53.277,0,0,0,3.574-6.539c1.051-2.257,1.986-4.571,2.841-6.913a140.692,140.692,0,0,0,4.289-14.341c1.194-4.85,2.192-9.75,3.047-14.673,1.711-9.848,2.852-19.793,3.609-29.762S2049.952,1248.851,2049.95,1238.851Z" transform="translate(-1908.299 -1127.581)" fill="#fff" style="mix-blend-mode: soft-light;isolation: isolate"/>
        <path id="Trazado_102856" data-name="Trazado 102856" d="M2097.874,1238.811a148.819,148.819,0,0,1-1.293,19.3,141.131,141.131,0,0,1-3.876,18.955,122.918,122.918,0,0,1-15.96,35.1,100.72,100.72,0,0,1-12.218,14.98,85.672,85.672,0,0,1-15.05,12.116,72.6,72.6,0,0,1-17.545,8.062,66.276,66.276,0,0,1-38.19.014,72.633,72.633,0,0,1-17.556-8.051,85.771,85.771,0,0,1-15.067-12.109,100.83,100.83,0,0,1-12.237-14.978,123.073,123.073,0,0,1-15.995-35.116,140.226,140.226,0,0,1-3.9-18.964,145.517,145.517,0,0,1,.009-38.635,139.989,139.989,0,0,1,3.907-18.959,122.992,122.992,0,0,1,16.013-35.1,100.82,100.82,0,0,1,12.238-14.964,85.588,85.588,0,0,1,15.062-12.091,72.893,72.893,0,0,1,17.546-8.027,65.881,65.881,0,0,1,38.141.012,72.842,72.842,0,0,1,17.535,8.039,85.491,85.491,0,0,1,15.045,12.1,100.69,100.69,0,0,1,12.219,14.966,122.872,122.872,0,0,1,15.978,35.086,141.218,141.218,0,0,1,3.886,18.95A148.849,148.849,0,0,1,2097.874,1238.811Zm-1.379,0a147.461,147.461,0,0,0-1.22-19.131,139.806,139.806,0,0,0-3.781-18.792,122.427,122.427,0,0,0-15.548-34.91,99.869,99.869,0,0,0-11.994-14.945,83.875,83.875,0,0,0-14.832-12.119,71.7,71.7,0,0,0-17.364-8.049,64.554,64.554,0,0,0-37.833.012,71.593,71.593,0,0,0-17.353,8.061,83.76,83.76,0,0,0-14.816,12.127,99.783,99.783,0,0,0-11.974,14.947,122.291,122.291,0,0,0-15.514,34.9,146.067,146.067,0,0,0,.021,75.793,122.261,122.261,0,0,0,15.531,34.881,99.771,99.771,0,0,0,11.976,14.934,83.545,83.545,0,0,0,14.812,12.109,71.861,71.861,0,0,0,17.342,8.037,64.182,64.182,0,0,0,37.784.013,71.881,71.881,0,0,0,17.353-8.026,83.638,83.638,0,0,0,14.828-12.1,99.854,99.854,0,0,0,12-14.931,122.448,122.448,0,0,0,15.566-34.891,139.912,139.912,0,0,0,3.79-18.787A147.5,147.5,0,0,0,2096.495,1238.811Z" transform="translate(-1904.438 -1127.541)" fill="#fff" style="mix-blend-mode: soft-light;isolation: isolate"/>
        <path id="Trazado_102857" data-name="Trazado 102857" d="M1912.447,1199.269l25.586-.167,25.586-.1,51.172-.077,51.172.084,25.586.1,25.586.181a.06.06,0,0,1,.06.061.061.061,0,0,1-.06.061l-25.586.18-25.586.1-51.172.084-51.172-.076-25.586-.1-25.586-.167a.09.09,0,0,1,0-.181Z" transform="translate(-1903.466 -1132.065)" fill="#fff" style="mix-blend-mode: soft-light;isolation: isolate"/>
        <path id="Trazado_102858" data-name="Trazado 102858" d="M1944.138,1153.515l18.165-.167,18.165-.1c6.055-.04,12.111-.036,18.166-.048l18.165-.028,36.33.084,18.165.1,18.166.181a.062.062,0,0,1,.06.062.06.06,0,0,1-.06.06l-18.166.181-18.165.1-36.33.084-18.165-.028c-6.055-.013-12.111-.008-18.166-.049l-18.165-.094-18.165-.168a.091.091,0,0,1,0-.182Z" transform="translate(-1905.474 -1129.166)" fill="#fff" style="mix-blend-mode: soft-light;isolation: isolate"/>
        <path id="Trazado_102859" data-name="Trazado 102859" d="M1902.954,1245.022l27.808-.167,27.809-.094,55.617-.077,55.617.084,27.808.1,27.808.181a.062.062,0,0,1,.061.062.06.06,0,0,1-.061.06l-27.808.181-27.808.1-55.617.084-55.617-.077-27.809-.1-27.808-.167a.091.091,0,0,1,0-.182Z" transform="translate(-1902.864 -1134.965)" fill="#fff" style="mix-blend-mode: soft-light;isolation: isolate"/>
        <path id="Trazado_102860" data-name="Trazado 102860" d="M1912.447,1290.776l25.586-.167,25.586-.1,51.172-.077,51.172.084,25.586.1,25.586.181a.06.06,0,0,1,.06.061.062.062,0,0,1-.06.061l-25.586.181-25.586.1-51.172.084-51.172-.076-25.586-.1-25.586-.168a.09.09,0,0,1,0-.181Z" transform="translate(-1903.466 -1137.864)" fill="#fff" style="mix-blend-mode: soft-light;isolation: isolate"/>
        <path id="Trazado_102861" data-name="Trazado 102861" d="M2093.353,1336.945H1948.031a.318.318,0,1,1,0-.635h145.322a.318.318,0,0,1,0,.635Z" transform="translate(-1905.706 -1140.771)" fill="#fff" style="mix-blend-mode: soft-light;isolation: isolate"/>
      </g>
    </g>
    <g id="Grupo_56248" data-name="Grupo 56248" transform="translate(2033.409 1150.301)">
      <path id="Trazado_102862" data-name="Trazado 102862" d="M2053.221,1239.086c-.849-2.571-2.64-4.706-4.406-6.758s-3.585-4.153-4.51-6.7-.765-5.674,1.115-7.622c2.439-2.528,6.713-2.227,9.447-4.433,2.983-2.406,3.12-6.993,1.884-10.621s-3.535-6.831-4.686-10.487c-1.963-6.237-.362-13.053,2.151-19.089a40.291,40.291,0,0,1,9.435-14.342c4.239-3.911,9.847-6.543,15.613-6.419,5.341.117,10.417,2.557,14.62,5.855,7.484,5.873,12.673,14.8,13.356,24.29s-3.394,19.351-11.012,25.049a15.592,15.592,0,0,1-6.125,2.97c-2.844.576-5.775.012-8.673-.137a6.285,6.285,0,0,0-3.611.614,6.412,6.412,0,0,0-1.885,2.055,47.185,47.185,0,0,1-3.921,5.69,8.858,8.858,0,0,1-5.918,3.221c-2.631.127-5.1-1.4-7.731-1.458a7.2,7.2,0,0,0-7.024,5.9c-.867,5.593,5.034,10.425,4.6,16.068-.11,1.433-3.28,6.864-3.577,4.806-.117-.81,1.218-2.987,1.326-4.056A10.627,10.627,0,0,0,2053.221,1239.086Z" transform="translate(-2043.755 -1152.612)" fill="#fff"/>
      <g id="Grupo_56247" data-name="Grupo 56247" transform="translate(15.319 5.195)">
        <path id="Trazado_102863" data-name="Trazado 102863" d="M2080.156,1158.159c-11.07,0-20.045,8.921-20.045,19.367a14.229,14.229,0,0,0,6.116,12.078,4.827,4.827,0,0,1,2.038,3.928v6.183a3.292,3.292,0,0,0,3.292,3.292h17.2a3.292,3.292,0,0,0,3.291-3.292v-6.183a4.826,4.826,0,0,1,2.037-3.928,14.228,14.228,0,0,0,6.117-12.078C2100.2,1167.08,2091.227,1158.159,2080.156,1158.159Zm-9.06,24.688a4.756,4.756,0,0,1-4.756-4.756c0-2.627,3.036-4.756,5.663-4.756s3.85,2.129,3.85,4.756A4.756,4.756,0,0,1,2071.1,1182.848Zm8.424,2.661c-.546,2.793-3.533,4.1-3.72,2.6-.154-1.23,2.178-2.459,3.26-2.961A.329.329,0,0,1,2079.52,1185.509Zm4.993,2.6c-.187,1.5-3.174.192-3.72-2.6a.329.329,0,0,1,.461-.36C2082.335,1185.65,2084.667,1186.88,2084.513,1188.109Zm4.7-5.035a4.756,4.756,0,0,1-4.756-4.756c0-2.627,1.223-4.756,3.851-4.756s5.663,2.129,5.663,4.756A4.756,4.756,0,0,1,2089.216,1183.074Z" transform="translate(-2060.111 -1158.159)" fill="#e94b46"/>
        <path id="Trazado_102864" data-name="Trazado 102864" d="M2073.936,1204.642a.226.226,0,0,1-.227-.226v-7.7a.227.227,0,1,1,.453,0v7.7A.227.227,0,0,1,2073.936,1204.642Z" transform="translate(-2060.973 -1160.588)" fill="url(#linear-gradient-5)"/>
        <path id="Trazado_102865" data-name="Trazado 102865" d="M2076.959,1204.642a.226.226,0,0,1-.227-.226v-7.7a.226.226,0,1,1,.453,0v7.7A.226.226,0,0,1,2076.959,1204.642Z" transform="translate(-2061.164 -1160.588)" fill="url(#linear-gradient-6)"/>
        <path id="Trazado_102866" data-name="Trazado 102866" d="M2079.981,1204.642a.226.226,0,0,1-.226-.226v-7.7a.226.226,0,1,1,.453,0v7.7A.226.226,0,0,1,2079.981,1204.642Z" transform="translate(-2061.356 -1160.588)" fill="url(#linear-gradient-7)"/>
        <path id="Trazado_102867" data-name="Trazado 102867" d="M2083,1204.642a.227.227,0,0,1-.227-.226v-7.7a.227.227,0,1,1,.453,0v7.7A.226.226,0,0,1,2083,1204.642Z" transform="translate(-2061.547 -1160.588)" fill="url(#linear-gradient-8)"/>
        <path id="Trazado_102868" data-name="Trazado 102868" d="M2086.027,1204.642a.227.227,0,0,1-.227-.226v-7.7a.227.227,0,1,1,.453,0v7.7A.226.226,0,0,1,2086.027,1204.642Z" transform="translate(-2061.739 -1160.588)" fill="url(#linear-gradient-9)"/>
        <path id="Trazado_102869" data-name="Trazado 102869" d="M2089.05,1204.642a.226.226,0,0,1-.227-.226v-7.7a.227.227,0,1,1,.453,0v7.7A.227.227,0,0,1,2089.05,1204.642Z" transform="translate(-2061.931 -1160.588)" fill="url(#linear-gradient-10)"/>
      </g>
    </g>
    <g id="Grupo_56253" data-name="Grupo 56253" transform="translate(2027.475 1259.627)">
      <ellipse id="Elipse_4334" data-name="Elipse 4334" cx="34.485" cy="7.9" rx="34.485" ry="7.9" transform="translate(0.042)" fill="#00382d"/>
      <ellipse id="Elipse_4335" data-name="Elipse 4335" cx="34.485" cy="7.9" rx="34.485" ry="7.9" transform="translate(0.042 97.178)" fill="#00382d"/>
      <g id="Grupo_56249" data-name="Grupo 56249" transform="translate(0.637 1.64)">
        <rect id="Rectángulo_5530" data-name="Rectángulo 5530" width="67.78" height="95.363" transform="translate(0 7.478)" fill="url(#linear-gradient-11)"/>
        <ellipse id="Elipse_4336" data-name="Elipse 4336" cx="33.89" cy="7.478" rx="33.89" ry="7.478" fill="url(#linear-gradient-12)"/>
        <ellipse id="Elipse_4337" data-name="Elipse 4337" cx="33.89" cy="7.478" rx="33.89" ry="7.478" transform="translate(0 95.165)" fill="url(#linear-gradient-13)"/>
      </g>
      <g id="Grupo_56250" data-name="Grupo 56250" transform="translate(0 26.338)">
        <path id="Trazado_102870" data-name="Trazado 102870" d="M2072.15,1357.613a277.75,277.75,0,0,1-34.172-2.122.637.637,0,0,1,.156-1.264,271.646,271.646,0,0,0,67.622,0,.637.637,0,0,1,.16,1.264A268.028,268.028,0,0,1,2072.15,1357.613Z" transform="translate(-2037.42 -1301.053)" fill="#00382d"/>
        <path id="Trazado_102871" data-name="Trazado 102871" d="M2072.15,1297.456a277.582,277.582,0,0,0-34.172,2.122.636.636,0,1,0,.156,1.263,271.646,271.646,0,0,1,67.622,0,.636.636,0,1,0,.16-1.263A267.868,267.868,0,0,0,2072.15,1297.456Z" transform="translate(-2037.42 -1297.456)" fill="#00382d"/>
      </g>
      <g id="Grupo_56252" data-name="Grupo 56252" transform="translate(18.115 40.24)">
        <g id="Grupo_56251" data-name="Grupo 56251">
          <path id="Trazado_102872" data-name="Trazado 102872" d="M2092.537,1335.588a2.658,2.658,0,0,0-3.529.6h0a.772.772,0,0,1-1.085.122l-2.585-2.064a2.56,2.56,0,0,1-1.87,2.5l2.461,1.965a.834.834,0,0,1,.131,1.172h0a2.619,2.619,0,0,0,.413,3.68h0a2.618,2.618,0,0,0,3.68-.413h0a2.616,2.616,0,0,1,2.987-3.741h0A2.619,2.619,0,0,0,2092.537,1335.588Z" transform="translate(-2058.453 -1313.69)" fill="#00382d"/>
          <path id="Trazado_102873" data-name="Trazado 102873" d="M2058.055,1320.844a2.659,2.659,0,0,0,3.529-.6h0a.772.772,0,0,1,1.085-.122l2.522,2.014a9.208,9.208,0,0,1,1.661-2.665l-2.188-1.747a.835.835,0,0,1-.132-1.173h0a2.619,2.619,0,0,0-4.093-3.268h0a2.617,2.617,0,0,1-2.987,3.742h0A2.62,2.62,0,0,0,2058.055,1320.844Z" transform="translate(-2056.768 -1312.299)" fill="#00382d"/>
          <path id="Trazado_102874" data-name="Trazado 102874" d="M2067.2,1336.462a2.5,2.5,0,0,1-1.15-2.749,2.219,2.219,0,0,0,.049-.345l-3.526,2.733a.772.772,0,0,1-1.083-.138l-.037-.049a2.618,2.618,0,0,0-3.673-.466h0a2.618,2.618,0,0,0-.466,3.674h0a2.617,2.617,0,0,1,2.933,3.783h0a2.617,2.617,0,0,0,3.673.465h0a2.617,2.617,0,0,0,.466-3.673h0a.834.834,0,0,1,.148-1.17Z" transform="translate(-2056.76 -1313.634)" fill="#00382d"/>
          <path id="Trazado_102875" data-name="Trazado 102875" d="M2084.329,1319.24a8.235,8.235,0,0,1,1.8,2.553l1.945-1.508a.772.772,0,0,1,1.083.137h0a2.659,2.659,0,0,0,3.636.572,2.618,2.618,0,0,0,.542-3.731h0a2.617,2.617,0,0,1-2.933-3.784,2.618,2.618,0,0,0-3.673-.465h0a2.619,2.619,0,0,0-.466,3.674h0a.835.835,0,0,1-.149,1.171Z" transform="translate(-2058.508 -1312.309)" fill="#00382d"/>
        </g>
        <path id="Trazado_102876" data-name="Trazado 102876" d="M2080.224,1319.059a9.331,9.331,0,0,0-10.261.379,8.032,8.032,0,0,0-2.6,10.36,4.489,4.489,0,0,1,.632,3.208,1.147,1.147,0,0,0,.84,1.433,9.313,9.313,0,0,0,1.856.324c1.086.1,1.381.437,1.185,1.492-.026.138-.064.274-.1.409a1.008,1.008,0,0,0,.719,1.37,7.929,7.929,0,0,0,5.314.19c1.543-.469,1.711-.78,1.265-2.078a1.014,1.014,0,0,1-.031-.208c-.1-.811.15-1.133.956-1.235.489-.062.987-.066,1.468-.166,1.219-.252,1.573-.764,1.394-1.992a3.005,3.005,0,0,1,.248-2.18c.864-1.359,1.081-2.881,1.108-5.233C2084.32,1322.791,2082.883,1320.529,2080.224,1319.059Zm-7.178,12.608a14.008,14.008,0,0,1-1.689.448c-1.047-.046-1.716-.45-1.895-1.2a1.931,1.931,0,0,1,1.054-2.3,5.986,5.986,0,0,1,1.692-.425,1.573,1.573,0,0,1,1.945,1.193A1.756,1.756,0,0,1,2073.045,1331.667Zm3.159,3.251-1.371.012a.773.773,0,0,1-.711-1.093l.815-1.792a.612.612,0,0,1,1.109-.01l.848,1.777A.773.773,0,0,1,2076.2,1334.918Zm5.18-4.088c-.18.747-.85,1.153-2.152,1.136a9.918,9.918,0,0,1-1.31-.3,1.791,1.791,0,0,1-1.243-2.337c.152-.636.53-1.13,1.178-1.129a7.748,7.748,0,0,1,2.4.32A1.878,1.878,0,0,1,2081.385,1330.831Z" transform="translate(-2057.375 -1312.641)" fill="#00382d"/>
      </g>
    </g>
    <g id="Grupo_56259" data-name="Grupo 56259" transform="translate(1906.013 1258.434)">
      <ellipse id="Elipse_4338" data-name="Elipse 4338" cx="34.485" cy="7.9" rx="34.485" ry="7.9" transform="translate(0.041)" fill="#065949"/>
      <ellipse id="Elipse_4339" data-name="Elipse 4339" cx="34.485" cy="7.9" rx="34.485" ry="7.9" transform="translate(0.041 97.178)" fill="#00382d"/>
      <g id="Grupo_56254" data-name="Grupo 56254" transform="translate(0.636 1.64)">
        <rect id="Rectángulo_5531" data-name="Rectángulo 5531" width="67.78" height="95.363" transform="translate(0 7.478)" fill="url(#linear-gradient-14)"/>
        <ellipse id="Elipse_4340" data-name="Elipse 4340" cx="33.89" cy="7.478" rx="33.89" ry="7.478" fill="url(#linear-gradient-15)"/>
        <ellipse id="Elipse_4341" data-name="Elipse 4341" cx="33.89" cy="7.478" rx="33.89" ry="7.478" transform="translate(0 95.165)" fill="url(#linear-gradient-16)"/>
      </g>
      <g id="Grupo_56255" data-name="Grupo 56255" transform="translate(0 26.338)">
        <path id="Trazado_102877" data-name="Trazado 102877" d="M1942.469,1356.339a277.758,277.758,0,0,1-34.172-2.122.637.637,0,0,1,.156-1.264,271.645,271.645,0,0,0,67.622,0,.637.637,0,0,1,.16,1.264A268.028,268.028,0,0,1,1942.469,1356.339Z" transform="translate(-1907.74 -1299.779)" fill="#00382d"/>
        <path id="Trazado_102878" data-name="Trazado 102878" d="M1942.469,1296.182a277.567,277.567,0,0,0-34.172,2.122.636.636,0,0,0,.156,1.263,271.633,271.633,0,0,1,67.622,0,.636.636,0,1,0,.16-1.263A267.845,267.845,0,0,0,1942.469,1296.182Z" transform="translate(-1907.74 -1296.182)" fill="#00382d"/>
      </g>
      <g id="Grupo_56258" data-name="Grupo 56258" transform="translate(18.114 40.24)">
        <g id="Grupo_56257" data-name="Grupo 56257">
          <g id="Grupo_56256" data-name="Grupo 56256">
            <path id="Trazado_102879" data-name="Trazado 102879" d="M1962.857,1334.314a2.66,2.66,0,0,0-3.53.6h0a.772.772,0,0,1-1.085.122l-2.584-2.064a2.563,2.563,0,0,1-1.871,2.5l2.462,1.965a.834.834,0,0,1,.131,1.172h0a2.618,2.618,0,0,0,.413,3.68h0a2.618,2.618,0,0,0,3.68-.413h0a2.616,2.616,0,0,1,2.987-3.741h0A2.62,2.62,0,0,0,1962.857,1334.314Z" transform="translate(-1928.772 -1312.416)" fill="#00382d"/>
            <path id="Trazado_102880" data-name="Trazado 102880" d="M1928.375,1319.57a2.658,2.658,0,0,0,3.529-.6h0a.771.771,0,0,1,1.085-.122l2.522,2.014a9.22,9.22,0,0,1,1.662-2.665l-2.189-1.747a.836.836,0,0,1-.132-1.173h0a2.619,2.619,0,0,0-4.093-3.268h0a2.617,2.617,0,0,1-2.987,3.742h0A2.62,2.62,0,0,0,1928.375,1319.57Z" transform="translate(-1927.087 -1311.025)" fill="#00382d"/>
            <path id="Trazado_102881" data-name="Trazado 102881" d="M1937.515,1335.188a2.5,2.5,0,0,1-1.15-2.749,2.252,2.252,0,0,0,.049-.345l-3.525,2.733a.773.773,0,0,1-1.084-.138l-.037-.049a2.618,2.618,0,0,0-3.673-.465h0a2.619,2.619,0,0,0-.465,3.674h0a2.617,2.617,0,0,1,2.932,3.783h0a2.619,2.619,0,0,0,3.674.466h0a2.618,2.618,0,0,0,.464-3.673h0a.835.835,0,0,1,.148-1.17Z" transform="translate(-1927.08 -1312.36)" fill="#00382d"/>
            <path id="Trazado_102882" data-name="Trazado 102882" d="M1954.648,1317.966a8.233,8.233,0,0,1,1.8,2.553l1.945-1.508a.772.772,0,0,1,1.083.137h0a2.659,2.659,0,0,0,3.636.572,2.619,2.619,0,0,0,.542-3.731h0a2.617,2.617,0,0,1-2.934-3.784,2.618,2.618,0,0,0-3.673-.466h0a2.619,2.619,0,0,0-.465,3.674h0a.836.836,0,0,1-.148,1.171Z" transform="translate(-1928.827 -1311.035)" fill="#00382d"/>
          </g>
          <path id="Trazado_102883" data-name="Trazado 102883" d="M1950.543,1317.785a9.332,9.332,0,0,0-10.261.379,8.032,8.032,0,0,0-2.6,10.36,4.492,4.492,0,0,1,.631,3.208,1.147,1.147,0,0,0,.84,1.433,9.322,9.322,0,0,0,1.856.324c1.087.1,1.381.436,1.185,1.492-.026.138-.064.274-.1.409a1.007,1.007,0,0,0,.718,1.37,7.935,7.935,0,0,0,5.314.19c1.545-.469,1.711-.78,1.266-2.077a1.007,1.007,0,0,1-.032-.208c-.1-.811.15-1.133.957-1.235.488-.062.986-.067,1.467-.166,1.219-.252,1.574-.764,1.395-1.992a3,3,0,0,1,.248-2.181c.863-1.359,1.08-2.881,1.107-5.233C1954.639,1321.517,1953.2,1319.255,1950.543,1317.785Zm-7.178,12.608a13.969,13.969,0,0,1-1.689.449c-1.048-.046-1.717-.45-1.895-1.2a1.93,1.93,0,0,1,1.053-2.3,5.983,5.983,0,0,1,1.693-.425,1.572,1.572,0,0,1,1.944,1.193A1.756,1.756,0,0,1,1943.365,1330.393Zm3.159,3.251-1.371.012a.773.773,0,0,1-.711-1.093l.816-1.792a.611.611,0,0,1,1.108-.01l.849,1.777A.773.773,0,0,1,1946.524,1333.644Zm5.181-4.087c-.18.746-.85,1.153-2.152,1.136a9.881,9.881,0,0,1-1.309-.3,1.79,1.79,0,0,1-1.243-2.337c.152-.636.529-1.129,1.177-1.129a7.753,7.753,0,0,1,2.4.32A1.879,1.879,0,0,1,1951.7,1329.557Z" transform="translate(-1927.693 -1311.367)" fill="#00382d"/>
        </g>
      </g>
    </g>
    <g id="Grupo_56265" data-name="Grupo 56265" transform="translate(1965.963 1252.99)">
      <ellipse id="Elipse_4342" data-name="Elipse 4342" cx="38.084" cy="8.725" rx="38.084" ry="8.725" transform="translate(0.046)" fill="#065949"/>
      <ellipse id="Elipse_4343" data-name="Elipse 4343" cx="38.084" cy="8.725" rx="38.084" ry="8.725" transform="translate(0.046 107.321)" fill="#065949"/>
      <g id="Grupo_56260" data-name="Grupo 56260" transform="translate(0.703 1.811)">
        <rect id="Rectángulo_5532" data-name="Rectángulo 5532" width="74.855" height="105.317" transform="translate(0 8.259)" fill="url(#linear-gradient-17)"/>
        <ellipse id="Elipse_4344" data-name="Elipse 4344" cx="37.427" cy="8.259" rx="37.427" ry="8.259" fill="url(#linear-gradient-18)"/>
        <ellipse id="Elipse_4345" data-name="Elipse 4345" cx="37.427" cy="8.259" rx="37.427" ry="8.259" transform="translate(0 105.098)" fill="url(#linear-gradient-19)"/>
      </g>
      <g id="Grupo_56262" data-name="Grupo 56262" transform="translate(0 29.087)">
        <g id="Grupo_56261" data-name="Grupo 56261">
          <path id="Trazado_102884" data-name="Trazado 102884" d="M2010.1,1359.741a306.641,306.641,0,0,1-37.738-2.344.7.7,0,1,1,.172-1.395,299.98,299.98,0,0,0,74.68,0,.7.7,0,0,1,.177,1.395A295.938,295.938,0,0,1,2010.1,1359.741Z" transform="translate(-1971.745 -1297.278)" fill="#065949"/>
          <path id="Trazado_102885" data-name="Trazado 102885" d="M2010.1,1293.305a306.663,306.663,0,0,0-37.738,2.343.7.7,0,1,0,.172,1.4,299.939,299.939,0,0,1,74.68,0,.7.7,0,0,0,.177-1.395A295.96,295.96,0,0,0,2010.1,1293.305Z" transform="translate(-1971.745 -1293.305)" fill="#065949"/>
        </g>
      </g>
      <g id="Grupo_56264" data-name="Grupo 56264" transform="translate(20.006 44.44)">
        <g id="Grupo_56263" data-name="Grupo 56263">
          <path id="Trazado_102886" data-name="Trazado 102886" d="M2032.616,1335.418a2.938,2.938,0,0,0-3.9.662h0a.853.853,0,0,1-1.2.135l-2.855-2.279a2.828,2.828,0,0,1-2.066,2.757l2.718,2.17a.921.921,0,0,1,.146,1.294h0a2.891,2.891,0,0,0,.456,4.064h0a2.891,2.891,0,0,0,4.064-.456h0a2.889,2.889,0,0,1,3.3-4.131h0A2.892,2.892,0,0,0,2032.616,1335.418Z" transform="translate(-1994.974 -1311.233)" fill="#00382d"/>
          <path id="Trazado_102887" data-name="Trazado 102887" d="M1994.534,1319.134a2.937,2.937,0,0,0,3.9-.662h0a.853.853,0,0,1,1.2-.135l2.786,2.224a10.186,10.186,0,0,1,1.834-2.944l-2.417-1.928a.923.923,0,0,1-.146-1.3h0a2.892,2.892,0,1,0-4.52-3.608h0a2.89,2.89,0,0,1-3.3,4.131h0A2.892,2.892,0,0,0,1994.534,1319.134Z" transform="translate(-1993.113 -1309.697)" fill="#00382d"/>
          <path id="Trazado_102888" data-name="Trazado 102888" d="M2004.629,1336.382a2.76,2.76,0,0,1-1.271-3.036,2.357,2.357,0,0,0,.054-.381l-3.893,3.019a.853.853,0,0,1-1.2-.152l-.042-.054a2.891,2.891,0,0,0-4.056-.513h0a2.891,2.891,0,0,0-.514,4.057h0a2.89,2.89,0,0,1,3.239,4.178h0a2.892,2.892,0,0,0,4.057.514h0a2.893,2.893,0,0,0,.514-4.057h0a.92.92,0,0,1,.163-1.292Z" transform="translate(-1993.104 -1311.172)" fill="#00382d"/>
          <path id="Trazado_102889" data-name="Trazado 102889" d="M2023.55,1317.362a9.114,9.114,0,0,1,1.984,2.82l2.149-1.665a.852.852,0,0,1,1.2.152h0a2.937,2.937,0,0,0,4.015.632,2.893,2.893,0,0,0,.6-4.121h0a2.89,2.89,0,0,1-3.239-4.178,2.892,2.892,0,0,0-4.057-.514h0a2.892,2.892,0,0,0-.514,4.057h0a.92.92,0,0,1-.164,1.292Z" transform="translate(-1995.034 -1309.709)" fill="#00382d"/>
        </g>
        <path id="Trazado_102890" data-name="Trazado 102890" d="M2019.016,1317.163a10.308,10.308,0,0,0-11.332.42,8.873,8.873,0,0,0-2.873,11.442,4.963,4.963,0,0,1,.7,3.542,1.265,1.265,0,0,0,.927,1.582,10.233,10.233,0,0,0,2.049.358c1.2.107,1.526.482,1.309,1.648-.028.153-.069.3-.112.452a1.112,1.112,0,0,0,.793,1.513,8.756,8.756,0,0,0,5.87.21c1.7-.518,1.889-.862,1.4-2.294a1.156,1.156,0,0,1-.035-.23c-.1-.895.166-1.25,1.056-1.364.54-.068,1.09-.073,1.62-.183,1.347-.278,1.738-.845,1.54-2.2a3.322,3.322,0,0,1,.274-2.408c.953-1.5,1.193-3.182,1.223-5.779C2023.54,1321.284,2021.954,1318.787,2019.016,1317.163Zm-7.928,13.925a15.492,15.492,0,0,1-1.866.5c-1.157-.052-1.895-.5-2.092-1.33a2.133,2.133,0,0,1,1.163-2.538,6.7,6.7,0,0,1,1.87-.47,1.738,1.738,0,0,1,2.149,1.319A1.939,1.939,0,0,1,2011.089,1331.088Zm3.489,3.59-1.514.014a.854.854,0,0,1-.786-1.207l.9-1.979a.675.675,0,0,1,1.224-.012l.938,1.962A.855.855,0,0,1,2014.578,1334.678Zm5.721-4.514c-.2.824-.938,1.273-2.376,1.254a10.766,10.766,0,0,1-1.447-.333,1.977,1.977,0,0,1-1.372-2.581c.168-.7.584-1.247,1.3-1.246a8.585,8.585,0,0,1,2.649.354A2.074,2.074,0,0,1,2020.3,1330.164Z" transform="translate(-1993.782 -1310.076)" fill="#00382d"/>
      </g>
    </g>
    <g id="Grupo_56270" data-name="Grupo 56270" transform="translate(2051.743 1263.117)">
      <path id="Trazado_102891" data-name="Trazado 102891" d="M2100.365,1390.055s.4,2.286.6,4.549a1.56,1.56,0,0,1-1.492,1.69c-3.014.125-9.461.37-11.774.266a.507.507,0,0,1-.447-.695,1.14,1.14,0,0,1,.582-.612l10.649-4.895Z" transform="translate(-2064.844 -1280.476)" fill="url(#linear-gradient-20)"/>
      <path id="Trazado_102892" data-name="Trazado 102892" d="M2101.374,1388.591l-.325,2.735s-1.865.868-3.14-.11l.773-3.048Z" transform="translate(-2065.521 -1280.357)" fill="url(#linear-gradient-21)"/>
      <path id="Trazado_102893" data-name="Trazado 102893" d="M2101.144,1333.726c.141.714.753,35.64-2.98,51.291a.532.532,0,0,0,.311.618,9.27,9.27,0,0,0,3.041.617.915.915,0,0,0,.907-.656c1.067-3.631,6.181-21.825,6.848-39.206.746-19.421,0-.661,0-.661l-.437-12Z" transform="translate(-2065.536 -1276.906)" fill="url(#linear-gradient-22)"/>
      <path id="Trazado_102894" data-name="Trazado 102894" d="M2114.045,1391.328a16.464,16.464,0,0,1,1.265,4.221.952.952,0,0,1-.837,1.14c-1,.1-2.527.223-3.755.214a.948.948,0,0,1-.938-1.057,8,8,0,0,1,1.867-4.388Z" transform="translate(-2066.273 -1280.557)" fill="url(#linear-gradient-23)"/>
      <path id="Trazado_102895" data-name="Trazado 102895" d="M2114.735,1387.562l-.759,4.135a2.676,2.676,0,0,1-2.233.154l.362-4.45Z" transform="translate(-2066.398 -1280.308)" fill="url(#linear-gradient-24)"/>
      <path id="Trazado_102896" data-name="Trazado 102896" d="M2116.1,1334.739c3.053,18.427-.662,45.543-1.916,50.851a.827.827,0,0,1-.668.629,5.568,5.568,0,0,1-2.388-.1.759.759,0,0,1-.545-.7c-.168-4.291.134-30.632-2.71-41.043a2.365,2.365,0,0,0-.912-1.3l-5.521-3.925-.423-6.346Z" transform="translate(-2065.718 -1276.848)" fill="url(#linear-gradient-25)"/>
      <path id="Trazado_102897" data-name="Trazado 102897" d="M2095.717,1297.592a86.043,86.043,0,0,1,19.247,2.4c2.728,15.915.477,34.271.477,34.271-7.084,1.858-15.075-1.135-15.075-1.135-1.177-6.652-6.671-25.373-6.671-25.373-4.47-.554-3.5-4.223-6.532-5.929,2.313-2.682-1.25-1.381-.777-3.4C2089.621,1299.435,2092.895,1297.638,2095.717,1297.592Z" transform="translate(-2064.788 -1274.616)" fill="url(#linear-gradient-26)"/>
      <path id="Trazado_102898" data-name="Trazado 102898" d="M2067.494,1283.155a1.752,1.752,0,0,1,2.037-.572c1.346,5.688,8.406,10.3,15.66,12.555a19.624,19.624,0,0,1-3.878,8.111C2069.275,1296.479,2067.494,1283.155,2067.494,1283.155Z" transform="translate(-2063.594 -1273.658)" fill="url(#linear-gradient-27)"/>
      <g id="Grupo_56266" data-name="Grupo 56266" transform="translate(0)">
        <path id="Trazado_102899" data-name="Trazado 102899" d="M2067.448,1282.836c-.094.3,1,.754,1.637-.468.021-.586.378-3.1.028-3.575a46.715,46.715,0,0,0-5.481-5.73.86.86,0,0,0-.108,1.2l1.754,1.828a8.5,8.5,0,0,0-1.025,2.024,2.459,2.459,0,0,0,.246,1.81c.308.554.728,1.276,1.125,1.84A2.429,2.429,0,0,0,2067.448,1282.836Z" transform="translate(-2063.33 -1273.062)" fill="url(#linear-gradient-28)"/>
        <path id="Trazado_102900" data-name="Trazado 102900" d="M2066.206,1277.556l1.6,1.355.5,1.349-1.426,1.581a18.429,18.429,0,0,0-.835-3.257C2065.69,1278.006,2065.875,1277.726,2066.206,1277.556Z" transform="translate(-2063.49 -1273.347)" fill="url(#linear-gradient-29)"/>
      </g>
      <path id="Trazado_102901" data-name="Trazado 102901" d="M2113.153,1309.017l3.509-8.86s8.547,5.807,9.953,13.17a20.24,20.24,0,0,0-7.43,1.991C2118.552,1311.841,2113.153,1309.017,2113.153,1309.017Z" transform="translate(-2066.487 -1274.779)" fill="url(#linear-gradient-30)"/>
      <path id="Trazado_102902" data-name="Trazado 102902" d="M2105.846,1289.661l2.911,8.419a.3.3,0,0,1-.138.365,6.842,6.842,0,0,1-7.1-.478,1.429,1.429,0,0,1-.658-1.02l-.942-7.287Z" transform="translate(-2065.648 -1274.114)" fill="url(#linear-gradient-31)"/>
      <path id="Trazado_102903" data-name="Trazado 102903" d="M2111.559,1298.945l-3.474-2.95-5.2,12.688,3.791,50.421,11.833.354a.3.3,0,0,0,.312-.313l-1.651-48.508s-.046-10.482-1.159-10.744S2111.559,1298.945,2111.559,1298.945Z" transform="translate(-2065.836 -1274.515)" fill="url(#linear-gradient-32)"/>
      <path id="Trazado_102904" data-name="Trazado 102904" d="M2102.337,1308.032l-2.013-12.037-1.723,1.515-3.632-.036-.778,10.182,5.183,52.1a.3.3,0,0,0,.344.27l6.408-.924Z" transform="translate(-2065.285 -1274.515)" fill="url(#linear-gradient-33)"/>
      <path id="Trazado_102905" data-name="Trazado 102905" d="M2094.572,1297.474s-5.837-.4-9.207-1.7c-3.957,7.033-4.986,7.24-4.986,7.24a22.217,22.217,0,0,0,12.938,4.628C2101.461,1308.018,2094.572,1297.474,2094.572,1297.474Z" transform="translate(-2064.41 -1274.501)" fill="url(#linear-gradient-34)"/>
      <path id="Trazado_102906" data-name="Trazado 102906" d="M2100.3,1309.4v1.234l-4.708-.274v-1.371Z" transform="translate(-2065.374 -1275.339)" fill="url(#linear-gradient-35)"/>
      <path id="Trazado_102907" data-name="Trazado 102907" d="M2103.176,1311.939a.184.184,0,0,0,.086-.021l3.993-2.145a.182.182,0,0,0,.094-.133l.54-3.642,1.416-.251a.181.181,0,0,0,.142-.125l1.542-5.005a.182.182,0,1,0-.347-.107l-1.509,4.9-1.435.255a.182.182,0,0,0-.149.153l-.546,3.68-3.913,2.1a.182.182,0,0,0,.087.342Z" transform="translate(-2065.843 -1274.793)" fill="url(#linear-gradient-36)"/>
      <path id="Trazado_102908" data-name="Trazado 102908" d="M2101.928,1310.507a.137.137,0,0,0,.068-.018.135.135,0,0,0,.05-.185l-2.088-3.66.343-2.061a.136.136,0,0,0-.069-.143l-1.662-.883.426-5.944a.137.137,0,0,0-.126-.146.128.128,0,0,0-.146.126l-.432,6.032a.136.136,0,0,0,.071.13l1.653.88-.335,2.012a.145.145,0,0,0,.016.09l2.112,3.7A.136.136,0,0,0,2101.928,1310.507Z" transform="translate(-2065.545 -1274.609)" fill="url(#linear-gradient-37)"/>
      <g id="Grupo_56268" data-name="Grupo 56268" transform="translate(16.367 27.591)">
        <path id="Trazado_102909" data-name="Trazado 102909" d="M2105.081,1317.968s9.6,5.423,12.833.792a3.638,3.638,0,0,0,.668-2.829,20.236,20.236,0,0,1,7.429-1.991,10.156,10.156,0,0,1-1.1,6.967c-5.671,10.375-21.1-.573-21.1-.573Z" transform="translate(-2082.262 -1303.244)" fill="url(#linear-gradient-38)"/>
        <g id="Grupo_56267" data-name="Grupo 56267">
          <path id="Trazado_102910" data-name="Trazado 102910" d="M2104.776,1324.226l-5.237-18.29a.536.536,0,0,0-.451-.384c-.949-.111-3.7-.422-6.873-.689a77.921,77.921,0,0,0-10.917-.363.535.535,0,0,0-.437.771c1.509,3.052,7.716,15.47,10.823,19.539a.536.536,0,0,0,.432.212l12.151-.113A.534.534,0,0,0,2104.776,1324.226Z" transform="translate(-2080.804 -1302.64)" fill="url(#linear-gradient-39)"/>
          <path id="Trazado_102911" data-name="Trazado 102911" d="M2092.129,1303.157l-3.8-.633a.272.272,0,0,0-.3.354l.376,1.139a.272.272,0,0,0,.222.185l3.654.488a.273.273,0,0,0,.3-.333l-.232-.995A.273.273,0,0,0,2092.129,1303.157Z" transform="translate(-2081.261 -1302.52)" fill="url(#linear-gradient-40)"/>
          <path id="Trazado_102912" data-name="Trazado 102912" d="M2094.853,1306.448l-.313-1.63a.378.378,0,0,0-.333-.3l-7.668-.778a.377.377,0,0,0-.4.463l.488,2.031a.375.375,0,0,0,.346.288l7.5.377A.377.377,0,0,0,2094.853,1306.448Z" transform="translate(-2081.141 -1302.597)" fill="url(#linear-gradient-41)"/>
          <path id="Trazado_102913" data-name="Trazado 102913" d="M2104.609,1320.426s.729-3,.436-4.064-.865-2.432-2.765-2.129a27.848,27.848,0,0,0-4.143,1.105,1.088,1.088,0,0,0,1.558.938l-.9.693s.128,1.11,1.348.517l-.833.92a.971.971,0,0,0,1.422.327C2101.634,1318.148,2102.063,1320.788,2104.609,1320.426Z" transform="translate(-2081.902 -1303.26)" fill="url(#linear-gradient-42)"/>
        </g>
      </g>
      <path id="Trazado_102914" data-name="Trazado 102914" d="M2114.225,1320.961a4.969,4.969,0,0,0,2.36-.48.182.182,0,0,0-.175-.318c-2.532,1.39-8.82-1-8.883-1.027a3.3,3.3,0,0,1-1.652-1.26.181.181,0,1,0-.323.165,3.6,3.6,0,0,0,1.852,1.437A22.957,22.957,0,0,0,2114.225,1320.961Z" transform="translate(-2066.004 -1275.896)" fill="url(#linear-gradient-43)"/>
      <path id="Trazado_102915" data-name="Trazado 102915" d="M2117.713,1326.065a.182.182,0,0,0,.006-.364,20.355,20.355,0,0,1-11.443-3.608.184.184,0,0,0-.256.025.182.182,0,0,0,.025.256,20.716,20.716,0,0,0,11.66,3.69Z" transform="translate(-2066.032 -1276.167)" fill="url(#linear-gradient-44)"/>
      <g id="Grupo_56269" data-name="Grupo 56269" transform="translate(29.306 1.546)">
        <path id="Trazado_102916" data-name="Trazado 102916" d="M2098.714,1279.57c-.094.131-3.048,10.425-3.048,10.425l5.914,1.561,4.249-9.34S2100.3,1277.37,2098.714,1279.57Z" transform="translate(-2094.685 -1274.984)" fill="url(#linear-gradient-45)"/>
        <path id="Trazado_102917" data-name="Trazado 102917" d="M2103.414,1282.636a.88.88,0,0,1,.082.77l-1.825,5.018a.844.844,0,0,1-.112.213,1.442,1.442,0,0,1-2.271.425,7.74,7.74,0,0,0-2.577-1.89.878.878,0,0,0-1.089.609,32.852,32.852,0,0,0-1,4.735.874.874,0,0,0,.7.955,24.338,24.338,0,0,0,5.473.507.879.879,0,0,0,.747-.5c.607-1.292,2.322-4.906,2.962-5.852.6-.879,2.013-.866,2.661-.808a.884.884,0,0,0,.671-.224,1.936,1.936,0,0,0,.156-3.031.878.878,0,0,1,.039-1.224,1.944,1.944,0,0,0,.206-2.849,2.741,2.741,0,0,0-3.19-.861.913.913,0,0,1-1.041-.34.581.581,0,0,0-.513-.264.854.854,0,0,1-.868-.851,2.25,2.25,0,0,0-1.724-2.292c-2.581-.83-4.219,1.656-4.4,3.521s2.673,2.607,4.354,2.5C2102.1,1280.813,2103.014,1282,2103.414,1282.636Z" transform="translate(-2094.619 -1274.712)" fill="url(#linear-gradient-46)"/>
        <path id="Trazado_102918" data-name="Trazado 102918" d="M2104.441,1290.237s.449-3.237,1.8-3.383,2.651.974,1.293,2.781C2105.845,1291.882,2104.441,1290.237,2104.441,1290.237Z" transform="translate(-2095.241 -1275.481)" fill="url(#linear-gradient-47)"/>
      </g>
    </g>
  </g>
</svg>
