<svg xmlns="http://www.w3.org/2000/svg" width="86" height="86" viewBox="0 0 86 86">
  <g id="Grupo_55677" data-name="Grupo 55677" transform="translate(-0.397 -0.362)">
    <g id="Elipse_4314" data-name="Elipse 4314" transform="translate(0.397 0.362)" fill="#fff" stroke="#fad228" stroke-width="3">
      <circle cx="43" cy="43" r="43" stroke="none"/>
      <circle cx="43" cy="43" r="41.5" fill="none"/>
    </g>
    <g id="Grupo_55673" data-name="Grupo 55673" transform="translate(5.506 6.883)">
      <ellipse id="Elipse_4315" data-name="Elipse 4315" cx="7" cy="6.5" rx="7" ry="6.5" transform="translate(11.891 6.479)" fill="#fad228"/>
      <circle id="Elipse_4319" data-name="Elipse 4319" cx="6.5" cy="6.5" r="6.5" transform="translate(-0.109 27.479)" fill="#fad228"/>
      <circle id="Elipse_4322" data-name="Elipse 4322" cx="6.5" cy="6.5" r="6.5" transform="translate(5.891 46.479)" fill="#fad228"/>
      <circle id="Elipse_4318" data-name="Elipse 4318" cx="6.5" cy="6.5" r="6.5" transform="translate(18.891 27.479)" fill="#fad228"/>
      <circle id="Elipse_4316" data-name="Elipse 4316" cx="6.5" cy="6.5" r="6.5" transform="translate(33.891 0.479)" fill="#fad228"/>
      <ellipse id="Elipse_4321" data-name="Elipse 4321" cx="6.5" cy="7" rx="6.5" ry="7" transform="translate(38.891 19.479)" fill="#fad228"/>
      <circle id="Elipse_4323" data-name="Elipse 4323" cx="6.5" cy="6.5" r="6.5" transform="translate(25.891 59.479)" fill="#fad228"/>
      <circle id="Elipse_4317" data-name="Elipse 4317" cx="6.5" cy="6.5" r="6.5" transform="translate(55.891 11.479)" fill="#fad228"/>
      <ellipse id="Elipse_4320" data-name="Elipse 4320" cx="6.5" cy="7" rx="6.5" ry="7" transform="translate(60.891 30.479)" fill="#fad228"/>
      <circle id="Elipse_4327" data-name="Elipse 4327" cx="6.5" cy="6.5" r="6.5" transform="translate(38.891 42.479)" fill="#fad228"/>
      <circle id="Elipse_4324" data-name="Elipse 4324" cx="6.5" cy="6.5" r="6.5" transform="translate(55.891 50.479)" fill="#fad228"/>
    </g>
  </g>
</svg>
