<svg xmlns="http://www.w3.org/2000/svg" width="59.824" height="64.813" viewBox="0 0 59.824 64.813">
  <g id="Grupo_57242" data-name="Grupo 57242" transform="translate(0)" opacity="0.7">
    <path id="Trazado_104692" data-name="Trazado 104692" d="M947.7,98.038v5.533c-.014.265-.039.53-.039.794q0,8.949,0,17.9c0,.265.026.53.039.794v5.213a1.068,1.068,0,0,1-.789.706c-.42.131-.833.284-1.254.413-4.452,1.355-8.925,2.644-13.353,4.076-4.733,1.53-9.423,3.2-14.132,4.8-1.222.416-2.447.823-3.671,1.234h-.4a1.9,1.9,0,0,0-.209-.1c-2.285-.812-4.583-1.592-6.855-2.439q-9.331-3.475-18.642-7a2.25,2.25,0,0,1-.517-.4v-6.014c.014-.265.039-.53.039-.794q0-9.871,0-19.743c0-.265-.026-.53-.039-.794V97.316c.068-.2.078-.453.212-.576a6.77,6.77,0,0,1,7.1-1.621,5.353,5.353,0,0,0,2.135.342,2.914,2.914,0,0,0,3.057-2.091,4.068,4.068,0,0,1,.372-.8A2.17,2.17,0,0,1,903.8,91.51c.595.237,1.193.471,1.765.754a2.781,2.781,0,0,0,1.6.222,7.06,7.06,0,0,0,2.376-.67,2.819,2.819,0,0,0,1.629-1.957,5.028,5.028,0,0,1,.208-.688,1.883,1.883,0,0,1,2.424-1.266c.773.2,1.528.473,2.291.713a1.18,1.18,0,0,0,1.621-.579c.261-.4.469-.839.73-1.241a1.36,1.36,0,0,1,1.865-.568c5.128,2.046,10.31,3.94,15.533,5.73,3.77,1.292,7.51,2.675,11.267,4.005a.747.747,0,0,1,.569.836C947.653,97.213,947.69,97.626,947.7,98.038Zm-33.921,33.844v-.431q0-8.3.005-16.6c0-.326-.027-.571-.376-.731a1.308,1.308,0,0,1-.5-.506,1.029,1.029,0,0,0-1.273-.484,2.228,2.228,0,0,1-2.1-.462,9.53,9.53,0,0,1-1.193-1.179,2.149,2.149,0,0,0-2.151-.758c-.315.056-.631.112-.945.177a3.07,3.07,0,0,1-3.379-1.253c-.3-.421-.639-.822-.976-1.218a1.87,1.87,0,0,0-2.073-.566c-.257.07-.5.181-.762.242a5.968,5.968,0,0,1-1.327.254,4.886,4.886,0,0,1-4.208-2.295c-.452-.66-.872-1.348-1.381-1.962a3.63,3.63,0,0,0-2.177-1.238v20.29c.809.341,1.578.612,2.3.982a10.617,10.617,0,0,0,3.228,1.143,10.255,10.255,0,0,1,4.973,2.049,6.553,6.553,0,0,0,4.278,1.327,7.228,7.228,0,0,1,4.127,1.04,8.885,8.885,0,0,0,3.449,1.216A4.241,4.241,0,0,1,913.783,131.881Zm3.062-4.056a.763.763,0,0,1,.927-.217,3.093,3.093,0,0,0,1.929.051.673.673,0,0,1,.552.109.334.334,0,0,0,.454.045c.935-.539,1.893-1.043,2.8-1.627a7.283,7.283,0,0,1,4.441-1.2c.9.045,1.814.006,2.722-.012.121,0,.311-.07.348-.157.141-.338.412-.412.726-.479.937-.2,1.876-.4,2.8-.65.4-.107.73-.169,1.008.266.636-.306,1.268-.585,1.878-.909a11.2,11.2,0,0,1,3.446-1.246c.659-.108,1.314-.233,1.973-.333a.393.393,0,0,0,.385-.352c.056-.2.3-.384.5-.51.325-.205.7-.338,1.022-.541a.858.858,0,0,0,.378-.441.842.842,0,0,1,.611-.686c0-.816.019-1.59,0-2.363-.065-2.24-.146-4.479-.226-6.718a.6.6,0,0,0-.1-.271,6.392,6.392,0,0,1-.41-.645,15.208,15.208,0,0,0-.795-1.824c-.247-.4-.41-.7-.009-1.147l-1.559-.367c.187.561.164.769-.174.984a4.868,4.868,0,0,0-1.694,2.085,12.552,12.552,0,0,1-2.037,3.054c-.485.518-.655.555-1.279.268a3.425,3.425,0,0,1-4.143.518,6.545,6.545,0,0,1-2.351-2.07,5.683,5.683,0,0,0-.626-.609,2.145,2.145,0,0,1-.195.422,4.9,4.9,0,0,0-.883,2.373,5.108,5.108,0,0,1-2.054,3.319c-.522.378-.8.343-1.18-.158a7.14,7.14,0,0,1-3,.3,7.793,7.793,0,0,1-4.764-1.507,1.812,1.812,0,0,0-.46-.236.265.265,0,0,0-.222.014,2.328,2.328,0,0,0-1.064,1.686c-.025.4-.084.8-.09,1.2-.016,1.095.041,2.194-.034,3.285a7.813,7.813,0,0,1-.466,2.577,3.348,3.348,0,0,0-.168,1.7q.006.12.024.239A5.439,5.439,0,0,0,916.845,127.825Zm-5.923-35.682c.193.095.308.164.432.21,1.537.567,3.056,1.195,4.618,1.684,5.548,1.738,11.026,3.675,16.472,5.7a18.369,18.369,0,0,0,2.132.671,2.337,2.337,0,0,0,2.338-.6c.548-.569,1.012-1.219,1.523-1.846-1.086-.339-2.142-.62-3.163-1-4.1-1.519-8.184-3.09-12.29-4.6-3.065-1.127-6.045-2.48-9.181-3.417-.878-.263-1.341-.063-1.553.826A4.122,4.122,0,0,1,910.922,92.143ZM900.757,95.01c.1.047.218.11.34.155.7.258,1.407.5,2.1.768,3.867,1.5,7.728,3.007,11.6,4.5,2.327.9,4.665,1.764,7,2.637a2.818,2.818,0,0,0,2.184.155c.885-.4,1.707-.946,2.643-1.477-.18-.073-.237-.1-.3-.119-5.005-1.661-9.858-3.714-14.72-5.743q-4.081-1.7-8.158-3.414a1.2,1.2,0,0,0-1.8.6,3.794,3.794,0,0,0-.187.354C901.232,93.941,901,94.461,900.757,95.01ZM889.31,99.182a2.289,2.289,0,0,0-.134.535c.009.352-.071.821.119,1.03.346.381.683.878,1.321.885a1.171,1.171,0,0,1,.479.193.65.65,0,0,0,.632.039.77.77,0,0,1,.889.174.684.684,0,0,1,.135.81.5.5,0,0,0,.1.378,11.19,11.19,0,0,1,.92,1.349,3.951,3.951,0,0,0,1.87,1.884,1.863,1.863,0,0,0,1.647.078c.26-.1.527-.189.777-.311a.444.444,0,0,0,.24-.266.571.571,0,0,1,.605-.57,1.127,1.127,0,0,1,.764.388.849.849,0,0,0,.556.373,3.035,3.035,0,0,1,.609.186c.365.178.714.388,1.072.586.209-.6.373-.743.817-.685a.629.629,0,0,1,.594.553.47.47,0,0,1-.077.372,6.538,6.538,0,0,1-.765.459l1.32,1.282c.221-.673.526-.9,1.017-.812.518.095.749.444.718,1.148.318-.081.618-.176.926-.231a2.609,2.609,0,0,1,2.756.912,9.524,9.524,0,0,0,1.337,1.362,1.142,1.142,0,0,0,1.081.235c.567-.153,1.17-.359,1.687.176.218-.729.215-.74-.3-1.126a.609.609,0,0,1-.035-.993,2.564,2.564,0,0,1,.44-.2.742.742,0,0,0-.456-.768c-.2-.1-.423-.161-.628-.257a.3.3,0,0,0-.457.137.649.649,0,0,1-.818.239.6.6,0,0,1-.474-.659c.031-.261-.1-.351-.306-.43-.734-.279-1.468-.559-2.193-.859-.355-.147-.681-.366-1.037-.507-1.374-.542-2.761-1.054-4.132-1.6-.989-.395-1.96-.834-2.942-1.246-.7-.292-1.4-.58-2.1-.848a.7.7,0,0,0-.446.022.855.855,0,0,1-1.172-.5.761.761,0,0,0-.376-.352c-.864-.349-1.74-.667-2.608-1.007-.259-.1-.512-.359-.751-.34a1.873,1.873,0,0,1-1.488-.579A5.349,5.349,0,0,0,889.31,99.182Zm48.48,1.2a3.457,3.457,0,0,1-3.326,1,13.768,13.768,0,0,1-1.8-.523c-4.55-1.6-9.086-3.246-13.647-4.814a77.19,77.19,0,0,1-8.876-3.175.5.5,0,0,0-.339-.029c-.473.157-.938.337-1.45.524l1.977.841a183.861,183.861,0,0,0,18.469,7.107,4.962,4.962,0,0,1,3.112,2.518,10.766,10.766,0,0,0,.7,1.118,1.376,1.376,0,0,0,1.42.621c.383-.056.765-.116,1.145-.188a1.846,1.846,0,0,0,1.5-1.338C937.057,102.838,937.414,101.627,937.79,100.383Zm-22.958,31.808a3.33,3.33,0,0,0,2.422-.629,6.528,6.528,0,0,1,2.81-.978,8.271,8.271,0,0,0,3.18-1.013,13.9,13.9,0,0,1,4.965-1.706c1.278-.2,2.573-.342,3.823-.659a11.249,11.249,0,0,0,3.046-1.16,9.342,9.342,0,0,1,5.061-1.375,4.549,4.549,0,0,0,3.1-1.083,3.56,3.56,0,0,1,2.885-.8,3.739,3.739,0,0,0,.509,0v-2.468a3.62,3.62,0,0,1-2.719,1.923c-.53.131-1.068.236-1.607.327a13.024,13.024,0,0,0-4.375,1.335,16.13,16.13,0,0,1-9.2,2.082,7.638,7.638,0,0,0-5.366,1.535c-.19.145-.4.264-.6.394a9.769,9.769,0,0,1-3.662,1.438,3.121,3.121,0,0,1-3.8-2.087c-.134-.332-.22-.684-.326-1.027-.038-.124-.072-.249-.108-.374l-.035.011Zm-16.36-35.778c.045.023.11.064.18.092,4.054,1.637,8.1,3.307,12.169,4.9,2.743,1.072,5.528,2.038,8.3,3.046a3.547,3.547,0,0,1,2.458,2.94c.071.434.15.869.254,1.3s.231.874.381,1.3a.758.758,0,0,0,.747.562.99.99,0,0,0,.979-.5,2.773,2.773,0,0,0,.271-.789c.133-.776.242-1.556.346-2.336a8,8,0,0,1,1.162-3.413,1.231,1.231,0,0,0-.364.152,3.887,3.887,0,0,1-3.524.412c-.879-.311-1.743-.665-2.615-1q-9.528-3.626-19.059-7.248a.453.453,0,0,0-.3-.023C899.389,96,898.932,96.209,898.472,96.413Zm18.085,8.452c-.326-.141-.587-.277-.862-.369-.846-.285-1.706-.53-2.546-.831-5.827-2.089-11.541-4.455-17.207-6.944a15.377,15.377,0,0,0-2.622-.812,2.83,2.83,0,0,0-1.879.212.611.611,0,0,0-.312.373c-.017.094.156.255.278.334a3.715,3.715,0,0,0,.613.292q7.652,3.107,15.307,6.209a50.044,50.044,0,0,0,6.419,2.223A2.938,2.938,0,0,0,916.556,104.864Zm29.212-7.831c-.187-.087-.314-.157-.449-.208-2.255-.858-4.493-1.766-6.771-2.561-4.971-1.737-9.966-3.4-14.848-5.385q-1.723-.7-3.475-1.324a2.367,2.367,0,0,0-.782,0c.153.21.262.5.467.615a22.084,22.084,0,0,0,2.71,1.447c6.115,2.482,12.232,4.962,18.487,7.081a7.554,7.554,0,0,1,3.406,1.774c.245.267.484.106.619-.134C945.365,97.924,945.552,97.486,945.769,97.033Zm-20.809,15.682c-.416.155-.872.367-1.351.494a2.525,2.525,0,0,1-2.947-1.132c-.245-.375-.39-.815-.605-1.211a.519.519,0,0,0-.326-.253.711.711,0,0,1-.675-.413.685.685,0,0,1,.224-.793.344.344,0,0,0,.106-.263,1.079,1.079,0,0,0-.917-.693c-.164-.01-.394-.034-.474-.141a.543.543,0,0,0-.712-.164,6.121,6.121,0,0,0-1.419.7,1.576,1.576,0,0,0-.547,1.991.721.721,0,0,0,.541.409,1,1,0,0,0,.937-.557.716.716,0,0,1,1.271-.085c.055.073.106.173.182.2a6.433,6.433,0,0,1,2.06,1.621,3.912,3.912,0,0,0,1.794,1A2.906,2.906,0,0,0,924.959,112.715ZM917.971,89.29c.164.073.3.137.432.189q3.946,1.491,7.894,2.979c3.192,1.207,6.379,2.428,9.577,3.621.815.3,1.66.529,2.491.79a.526.526,0,0,0-.3-.218c-3.165-1.2-6.346-2.36-9.491-3.611-3.379-1.344-6.9-2.393-9.924-4.542Zm7.368,43.325a2.616,2.616,0,0,0,.5-.125,1.219,1.219,0,0,0,.781-1.195,1.121,1.121,0,0,0-.691-1.12c-.525-.224-.922.063-1.287.4a1.3,1.3,0,0,0-.213.238,1.268,1.268,0,0,0-.07,1.328C924.535,132.494,924.846,132.614,925.339,132.615Zm-5.884,1.831a1.16,1.16,0,0,0,1.223-1.274c0-.624-.341-1.107-.8-1.048-1.243.16-1.572.325-1.6,1.29C918.255,134.1,918.67,134.445,919.455,134.446Zm19.039-5.945.082-.024a7.9,7.9,0,0,0-.363-1.2.652.652,0,0,0-1.038-.264,1.774,1.774,0,0,0-.765,1.5c.144.593.662.705,1.166.812a2.548,2.548,0,0,0,.276.043c.449.043.615-.1.641-.547C938.5,128.714,938.494,128.607,938.494,128.5Zm3.372-1.14c-.033.857.474,1.189,1.17.846a1.528,1.528,0,0,0,.872-1.173c.089-.53-.443-1.226-.888-1.186a.992.992,0,0,0-1.046.924C941.925,126.992,941.892,127.217,941.867,127.36Zm-12.454-24.578c.275.342.555.662.8,1.006.529.736,1.019,1.5,1.566,2.224a2.335,2.335,0,0,0,1.72,1.064,8.524,8.524,0,0,0,2.059-.17,2.062,2.062,0,0,0,1.53-1.406,4.594,4.594,0,0,1-2.866,1.059,2.462,2.462,0,0,1-2.565-1.175c-.147-.222-.288-.449-.43-.674-.249-.394-.481-.8-.752-1.18A1.687,1.687,0,0,0,929.412,102.782ZM942.9,104.6c-.291-.248-.512-.454-.751-.638-.69-.528-1.285-.47-1.7.292-.565,1.044-1.023,2.146-1.526,3.224l.1.053C939.981,106.157,940.855,104.672,942.9,104.6Zm-10.75,26.7a.79.79,0,0,0,.857-.833,1.451,1.451,0,0,0-1.68-1.165.737.737,0,0,0-.568,1.027A1.606,1.606,0,0,0,932.148,131.3ZM928.1,109.78a2.389,2.389,0,0,1,3.287-.506,2.735,2.735,0,0,0-1.109-1.432,1.1,1.1,0,0,0-1.482.2A3.66,3.66,0,0,0,928.1,109.78Zm-13.283,5.9c.474-2.01,2.031-3.023,4.028-2.024a2.173,2.173,0,0,0-1.641-.766,4.1,4.1,0,0,0-2.214.71.4.4,0,0,0-.165.282C914.8,114.478,914.812,115.078,914.812,115.677Zm8.963,18.671c-.142-.194-.212-.369-.341-.452a1.081,1.081,0,0,0-1.207-.021,1.325,1.325,0,0,0-.615,1.14c.031.22.111.349.37.253.461-.171.936-.307,1.388-.5C923.522,134.7,923.621,134.513,923.775,134.348ZM942.5,98.237l-.015.071c.31.526.616,1.054.933,1.575a4.385,4.385,0,0,0,.437.617.351.351,0,0,0,.561.036c.241-.28.436-.6.711-.99a1.742,1.742,0,0,1-1.484-.558A9.03,9.03,0,0,0,942.5,98.237Zm-43.519,33.241a.69.69,0,0,0,.753-.7c0-.578-.31-.991-.758-.995a.8.8,0,0,0-.785.877A.769.769,0,0,0,898.983,131.478Zm30.528.581c-.122-.2-.206-.53-.376-.583a.95.95,0,0,0-.756.149,1.6,1.6,0,0,0-.441.726.528.528,0,0,0,.386.646A1.093,1.093,0,0,0,929.511,132.06Zm-35.349-3.19a.754.754,0,0,0,.64-.784.79.79,0,0,0-.8-.777c-.4,0-.721.244-.721.54A1.016,1.016,0,0,0,894.162,128.87Zm12.44,3.183a.753.753,0,0,0-.664-.773.691.691,0,0,0-.656.757.672.672,0,0,0,.684.684A.614.614,0,0,0,906.6,132.053Zm10.348,2.195c-.008-.516-.2-.7-.561-.506a1.274,1.274,0,0,0-.671,1.032c-.027.293.151.439.458.4A.891.891,0,0,0,916.95,134.247Zm-4.386,2.11c-.021-.635-.432-1.073-.98-1a.455.455,0,0,0-.31.3,1.154,1.154,0,0,0,.833,1.087A.345.345,0,0,0,912.564,136.357ZM901.981,131a.843.843,0,0,0,.779.91.448.448,0,0,0,.494-.458,1.069,1.069,0,0,0-.837-.935C902.073,130.535,902,130.785,901.981,131ZM916.3,106.553l.048.138c.575-.2,1.141-.426,1.726-.585a1.6,1.6,0,0,1,2.141,1.009c.207.453.347.937.517,1.406l.1-.028c-.195-.642-.342-1.3-.6-1.919a1.167,1.167,0,0,0-1.411-.72C917.971,106.042,917.14,106.316,916.3,106.553Zm30.329.653v-2.057l-1.132.472a8.857,8.857,0,0,1,.621.708C946.307,106.595,946.45,106.894,946.628,107.206Zm-17.423-2.96c-.249-.538-.617-.71-1.026-.425a2.588,2.588,0,0,0-.735,1.151ZM917.041,136.63c.043.044.147.244.266.253.356.026.979-.46.956-.716a.438.438,0,0,0-.481-.425C917.352,135.736,917.039,136.052,917.041,136.63Zm-7.668-1.078a.711.711,0,0,0-.679-.742c-.3.01-.42.206-.439.472a.717.717,0,0,0,.7.686A.375.375,0,0,0,909.372,135.551Zm-20-8.372a1.545,1.545,0,0,0,.311.482.468.468,0,0,0,.454-.1,1.028,1.028,0,0,0,.126-.578.8.8,0,0,0-.159-.443.6.6,0,0,0-.374-.238c-.072-.006-.185.193-.236.317A3.582,3.582,0,0,0,889.369,127.179Zm6.09,3.563a.708.708,0,0,0,.658-.678c-.023-.268-.224-.341-.454-.345a.659.659,0,0,0-.7.616C894.987,130.63,895.19,130.733,895.459,130.743Zm38.833-18.995a2.543,2.543,0,0,0,3.165-1.486A4.223,4.223,0,0,1,934.291,111.748Zm2.269-3-.041-.13a10.65,10.65,0,0,1-1.114.307.536.536,0,0,0-.519.664A1.75,1.75,0,0,0,936.56,108.751Zm-30.94,21.4H903.77l.676.854ZM891.413,128.7c0,.466.207.789.435.76s.479-.113.476-.43-.323-.734-.556-.663C891.6,128.421,891.481,128.634,891.413,128.7Zm53.722-27.33a1.643,1.643,0,0,1-1.864.052c.163.432.349.781.77.8C944.612,102.25,944.887,101.807,945.135,101.373Zm-39.976,33.365.531.2.4-.83-.872-.355Zm41.48-21.08V109.23A17.537,17.537,0,0,0,946.639,113.658Zm-19.723,15.881.943,1.158.193-.121-.449-1.212Zm14.639-30.5a1.415,1.415,0,0,0-2.241.811C940.423,98.908,940.56,98.856,941.556,99.037ZM934.851,128.6c-.231-.23-.362-.47-.5-.477a.42.42,0,0,0-.453.483c.021.141.24.363.356.355C934.425,128.951,934.59,128.77,934.851,128.6Zm-27.04,4.708-.776.7.466.322.6-.48Zm20.374-27.427,1.551-.1C929.113,105.214,928.5,105.286,928.184,105.883ZM926.5,104.26a6.853,6.853,0,0,0-.96,3.167Zm13.886-2.868-1.076,2.013a10.669,10.669,0,0,1,.741-.826C940.462,102.268,940.447,101.893,940.386,101.392ZM922.95,131.672l-.137-.051c-.178.085-.361.162-.531.261-.069.04-.162.137-.151.191.016.089.1.223.169.233.17.023.431.051.5-.042A1.5,1.5,0,0,0,922.95,131.672Zm-12.4.807-.05.091c.07.044.153.138.209.124a1.2,1.2,0,0,1,1.391.5l.483-.265A5.283,5.283,0,0,0,910.554,132.478Zm25.344-2.815c-.371.421.156.518.242.749.03.081.354.053.544.075l.023-.127Zm-37.038-.949L897.91,128l.216.915Zm46.4-24.994a1,1,0,0,0,.745-1.163ZM896.564,127.2l-1.045-.282-.04.077.466.548Zm12.81,5.715-.325-.4c-.079.132-.218.263-.22.4,0,.114.151.232.235.348Zm-8.757-3.255.419.769.347-.563Zm-7.3.755.615.219c.04-.322.056-.572-.334-.607ZM890.065,96.55l-.581.365.78.26Zm28.375,15.512a.888.888,0,0,0-1.236-.241Zm21.624,14.43c-.2.152-.315.319-.165.538a.307.307,0,0,0,.3,0C940.376,126.826,940.258,126.658,940.064,126.493Zm-17.336-14.867-1.131-.571A1.184,1.184,0,0,0,922.728,111.626Zm18.782,17.425-.594-.654-.122.115C941.139,128.591,940.989,129.173,941.511,129.051Zm-3.259-22.588-.052-.125-.371.079.15.5.1-.023ZM924.579,114.2l.06.1,1.188-.746-.063-.1Z" transform="translate(-887.88 -74.685)" fill="#065949"/>
    <path id="Trazado_104693" data-name="Trazado 104693" d="M1032.376,53.7l.285-.566.974.233.1-.428-3.961-.947-.1.428.836.2,0,.634L1029.41,57l-1.873-.448-.1.44,1.45.347-3.447,14.413h0l-.073.3h0l-.984,4.114.973.233-.056.235-.338-.081a.052.052,0,0,0-.038.007.046.046,0,0,0-.024.032l-.045.183a.052.052,0,0,0,.039.062l.233.056c-.038.159-.119.5-.258,1.077-.182.762-.386,1.612-.389,1.623a.71.71,0,0,0,.188.655l-.076.321s0,0,0,.007a.045.045,0,0,0,0,.023.046.046,0,0,0,0,.011s0,0,0,0l.187.215-2.813,11.76c-.391,1.637-.283,1.674-.219,1.7.045.014.109,0,.215-.235a1.554,1.554,0,0,0,.091-.257l3.083-12.89.26-.094,0,0a.051.051,0,0,0,.028-.026l0-.009.078-.321a.715.715,0,0,0,.422-.377.838.838,0,0,0,.04-.12l.036-.152c.416-1.74.559-2.34.609-2.548l.234.056a.049.049,0,0,0,.038-.007.051.051,0,0,0,.021-.022l0-.009.044-.184a.052.052,0,0,0-.037-.062l-.339-.081.057-.235.974.233,4.5-18.833,1.45.346.105-.438-2.008-.48Z" transform="translate(-976.978 -51.989)" fill="#065949"/>
  </g>
</svg>
