<svg xmlns="http://www.w3.org/2000/svg" xmlns:xlink="http://www.w3.org/1999/xlink" width="161.884" height="193.143" viewBox="0 0 161.884 193.143">
  <defs>
    <clipPath id="clip-path">
      <path id="Trazado_105657" data-name="Trazado 105657" d="M821.9,511.649a80.942,80.942,0,1,1-161.884,0c0-44.7,30.11-112.2,74.813-112.2C810.312,399.448,821.9,466.946,821.9,511.649Z" transform="translate(-660.014 -399.448)" fill="none"/>
    </clipPath>
    <radialGradient id="radial-gradient" cx="0.029" cy="0.76" r="1.069" gradientTransform="matrix(0.925, 0.271, -0.258, 0.955, -14.445, -22.498)" gradientUnits="objectBoundingBox">
      <stop offset="0.335" stop-color="#f9cbc0"/>
      <stop offset="0.944" stop-color="#fff"/>
    </radialGradient>
    <linearGradient id="linear-gradient" x1="-10.282" y1="0.577" x2="-12.197" y2="0.786" gradientUnits="objectBoundingBox">
      <stop offset="0" stop-color="#fff"/>
      <stop offset="1" stop-color="#fa2a25"/>
    </linearGradient>
    <linearGradient id="linear-gradient-2" x1="-60.708" y1="-23.119" x2="-61.794" y2="-22.84" xlink:href="#linear-gradient"/>
  </defs>
  <g id="Grupo_57480" data-name="Grupo 57480" transform="translate(0 0)" clip-path="url(#clip-path)">
    <path id="Trazado_105550" data-name="Trazado 105550" d="M821.9,494.069a80.942,80.942,0,1,1-80.937-80.942A80.938,80.938,0,0,1,821.9,494.069Z" transform="translate(-660.014 -381.868)" fill="#09b291"/>
    <g id="Grupo_57479" data-name="Grupo 57479" transform="translate(13.981 36.46)">
      <g id="Grupo_57441" data-name="Grupo 57441" transform="translate(0 44.072)">
        <path id="Trazado_105551" data-name="Trazado 105551" d="M680.06,465.884l23.714-8.087.651,12.676s-21.088,7.962-26.332,2.891S680.06,465.884,680.06,465.884Z" transform="translate(-653.216 -404.99)" fill="#f4d9bf"/>
        <path id="Trazado_105552" data-name="Trazado 105552" d="M680.06,465.884l23.714-8.087.651,12.676s-21.088,7.962-26.332,2.891S680.06,465.884,680.06,465.884Z" transform="translate(-653.216 -404.99)" fill="#f4d9bf" style="mix-blend-mode: multiply;isolation: isolate"/>
        <path id="Trazado_105553" data-name="Trazado 105553" d="M688.568,466.241c2.975.1,2.5-1.161,4.374-8.592,2.048-5.638,2.717-7.212,1.259-9.072-1.474-1.858-3.389,2.187-5.777,7.756.219-12.034.1-22-2.411-21.634s-2.856,16.988-2.856,16.988-2.539-16.84-5.4-15.786.679,17.347.679,17.347-5.587-12.569-7.338-11.961,3.508,12.9,3.508,12.9-6.417-9.308-8.195-8.044c-1.776,1.241,5.505,10.935,5.505,10.935s1.414,10,6.5,10.836c1.483,7.379,11.1,34.708,12.194,34.731,4.294.1,9.57-6.3,9.659-9.932C698.856,489.342,691.745,472.932,688.568,466.241Z" transform="translate(-666.132 -434.689)" fill="#f4d9bf"/>
        <path id="Trazado_105554" data-name="Trazado 105554" d="M685.815,457.625c.51,3.279.6,6.894-1.106,9.7-1.437,2.361-4.058,3.825-6.531,2a11.759,11.759,0,0,1-2.674-2.838c1.517,3.953,2.715,6.682,3.057,6.687,4.294.1,9.57-6.3,9.659-9.932C687.814,462.266,686.935,460.214,685.815,457.625Z" transform="translate(-654.087 -405.211)" fill="#f4d9bf" style="mix-blend-mode: multiply;isolation: isolate"/>
        <path id="Trazado_105555" data-name="Trazado 105555" d="M687.2,473.151c4.735-1.259,8.492-2.678,8.492-2.678l-.651-12.676-12.059,4.116C683.1,465.848,684.937,469.724,687.2,473.151Z" transform="translate(-644.48 -404.99)" fill="#f4d9bf" style="mix-blend-mode: multiply;isolation: isolate"/>
        <path id="Trazado_105556" data-name="Trazado 105556" d="M681.162,444.074c-.944.754-2.911.407-4.068.679a9.157,9.157,0,0,0-3.053,1.268,4.722,4.722,0,0,0-2.178,4.7c.009.089.135-.023.13-.082-.046-3.784,3.083-5.153,6.234-5.6,1.1-.16,2.354.121,3-.909C681.263,444.065,681.21,444.035,681.162,444.074Z" transform="translate(-658.806 -422.649)" fill="#c39368" opacity="0.4"/>
        <path id="Trazado_105557" data-name="Trazado 105557" d="M681.335,442.514c-4.7-1.179-8.533.912-11.911,3.924-.037.034-.023.1.03.057a22.235,22.235,0,0,1,5.094-3.222c2-.811,4.547-.647,6.636-.491C681.292,442.79,681.484,442.551,681.335,442.514Z" transform="translate(-661.927 -425.061)" fill="#c39368" opacity="0.4"/>
      </g>
      <path id="Trazado_105558" data-name="Trazado 105558" d="M684.587,478.294a37.121,37.121,0,0,0,2.7,5.133c6.284-2.061,18.656-6.524,24.571-11.479,8.115-6.8,5.69-14.065,5.69-14.065s.121-5.635-8.1-3.723c-6.906,1.6-22.63,9-27.5,11.323C681.38,469.766,682.907,474.505,684.587,478.294Z" transform="translate(-645.957 -366.101)" fill="#e94b46"/>
      <path id="Trazado_105559" data-name="Trazado 105559" d="M711.174,471.95c8.115-6.8,5.69-14.065,5.69-14.065s.1-4.641-6.028-4.075c.128.018.258.027.384.046a6.534,6.534,0,0,1,4.111,1.794,4.168,4.168,0,0,1,.478,4.23c-2.29,6.284-8.558,9.3-14.283,11.856-3.469,1.554-7.027,2.861-10.549,4.271-1.828.727-4.351,2.111-6.28.889a7.075,7.075,0,0,1-2.338-2.621A39.164,39.164,0,0,0,683.9,478.3a37.121,37.121,0,0,0,2.7,5.133C692.888,481.367,705.26,476.9,711.174,471.95Z" transform="translate(-645.276 -366.103)" fill="#e94b46" style="mix-blend-mode: multiply;isolation: isolate"/>
      <g id="Grupo_57449" data-name="Grupo 57449" transform="translate(23.536)">
        <path id="Trazado_105560" data-name="Trazado 105560" d="M722.706,539.6c-.809,3.56-10.756,5.944-23.161,6.234-13.4-.295-18.147-3.245-19.017-5.928,2.678,1.714,7.628,3.634,16.8,3.938C707.941,544.184,718.666,540.962,722.706,539.6Z" transform="translate(-671.166 -255.786)" fill="#959090"/>
        <path id="Trazado_105561" data-name="Trazado 105561" d="M686.461,538.811c.2,0,.393-.023.6-.037,10.69-.75,14.239-3.092,14.239-3.092a17.985,17.985,0,0,0,11.618-1.188s2.957,8.087,2.164,11.659l0,0c-3.878,1.312-13.926,4.328-24.12,4.253C690.239,542.979,688.184,539.988,686.461,538.811Z" transform="translate(-663.541 -262.346)" fill="#283f8e"/>
        <path id="Trazado_105562" data-name="Trazado 105562" d="M687.064,538.774c10.69-.75,14.239-3.092,14.239-3.092a17.985,17.985,0,0,0,11.618-1.188s.437,1.2.932,2.866a4.815,4.815,0,0,0-1.764.137c-1.223.327-5.222.092-5.156,1.993a3.568,3.568,0,0,0,.327,1.008c1.554,4.134-2.978,2.075-3.947,1.682a.823.823,0,0,0-1.115.363c-.894,2.566-1.933,1.968-4.4,1.682-.58-.066-.53.436-.708.754-.585,1.035-5.432.313-4.088,2.473a4.02,4.02,0,0,0,4.346,1.8c3.924-.612,7.82-1.972,11.689-2.893a11.092,11.092,0,0,0,6.022-3.62,10.422,10.422,0,0,1,.023,3.412l0,0c-3.878,1.312-13.926,4.328-24.12,4.253-.722-7.432-2.776-10.423-4.5-11.6C686.662,538.806,686.854,538.788,687.064,538.774Z" transform="translate(-663.541 -262.346)" fill="#283f8e" style="mix-blend-mode: multiply;isolation: isolate"/>
        <g id="Grupo_57442" data-name="Grupo 57442" transform="translate(26.862 273.627)">
          <path id="Trazado_105563" data-name="Trazado 105563" d="M694.671,542.074c-.411.633-2.121.683-3.807-2.336a11.505,11.505,0,0,0-2.678-3.316c.889-.1,1.7-.213,2.463-.338C693.257,538.122,695.019,541.539,694.671,542.074Z" transform="translate(-688.186 -533.929)" fill="#f4f3f2"/>
          <path id="Trazado_105564" data-name="Trazado 105564" d="M696.023,542.141c-.745.53-1.593-.192-2.53-2.018a18.641,18.641,0,0,0-3.352-3.864c.937-.192,1.769-.388,2.477-.585C695.6,537.717,696.693,541.668,696.023,542.141Z" transform="translate(-685.673 -534.456)" fill="#f4f3f2"/>
          <path id="Trazado_105565" data-name="Trazado 105565" d="M698.979,541.741c-.528.366-1.447.487-2.889-1.851a17.409,17.409,0,0,0-4.056-4.1,16.955,16.955,0,0,0,1.575-.647C699.4,537.685,699.47,541.4,698.979,541.741Z" transform="translate(-683.24 -535.141)" fill="#f4f3f2"/>
        </g>
        <g id="Grupo_57444" data-name="Grupo 57444" transform="translate(36.206 272.452)">
          <path id="Trazado_105566" data-name="Trazado 105566" d="M710.311,550.021c15.948-2.148,24.847-7.15,28.231-9.445.021,2.969-1,3.794-3.362,4.927-3.115,1.5-21.746,7.745-36.511,6.588-4.07-.436-6.013-.994-6.369-2.642C695.171,550.555,700.3,550.926,710.311,550.021Z" transform="translate(-692.241 -526.981)" fill="#959090"/>
          <path id="Trazado_105567" data-name="Trazado 105567" d="M697.827,546.186c.557-.249,1.106-.5,1.645-.775,5.74-2.831,10.578-5.955,11.575-9.022,3.039,2.237,12.288,1.236,15.519-1.762,0,0,3.556,2.445,4.552,10.073a26.6,26.6,0,0,1,.322,3.521c-3.211,2.182-11.426,6.8-25.914,9.1C705.245,555.144,703.855,548.048,697.827,546.186Z" transform="translate(-685.139 -534.627)" fill="#283f8e"/>
          <path id="Trazado_105568" data-name="Trazado 105568" d="M699.472,545.411c5.74-2.831,10.578-5.955,11.575-9.022,3.039,2.237,12.288,1.236,15.519-1.762a8.827,8.827,0,0,1,2.29,2.815,9.352,9.352,0,0,0-1.661.942c-2.646,1.773-5.521.832-8.345,1.894-.478.174-.491.686-.322,1.088,1.3,3.119-1.271,2.477-2.262,4.5-.187.384.174,1.284.254,1.645.473,2.214-1.462,2.358-2.932,2.756-2.052.539-4.136.672-5.8-.912a11.089,11.089,0,0,0-1.026-.942c-.8-.617-1.593-1.307-2.635-.983-1.814.571,1.348,4.255,1.693,4.669,1.719,2.018,3.4,3.567,6.243,3.044,4.7-.857,9.488-2.918,13.855-4.792a21.569,21.569,0,0,0,5.466-3.33c.032.427.055.834.055,1.2-3.211,2.182-11.426,6.8-25.914,9.1-.281-2.178-1.67-9.273-7.7-11.136C698.385,545.937,698.933,545.683,699.472,545.411Z" transform="translate(-685.139 -534.627)" fill="#283f8e" style="mix-blend-mode: multiply;isolation: isolate"/>
          <path id="Trazado_105569" data-name="Trazado 105569" d="M692.778,547.626c1.271-3.709,6.876-5.526,12.185-7.941,6.028,1.863,7.418,8.958,7.7,11.136-.759.117-1.522.238-2.317.345-10.007.905-15.139.535-18.01-.571A5.811,5.811,0,0,1,692.778,547.626Z" transform="translate(-692.275 -528.126)" fill="#c6bfbf"/>
          <g id="Grupo_57443" data-name="Grupo 57443" transform="translate(15.83 4.509)">
            <path id="Trazado_105570" data-name="Trazado 105570" d="M709.641,543.432c.727,1.915.276,4.079-2.941.24a13.615,13.615,0,0,0-7.5-3.834q1.385-.72,2.664-1.458C706.526,539.124,709,541.77,709.641,543.432Z" transform="translate(-699.202 -534.314)" fill="#f4f3f2"/>
            <path id="Trazado_105571" data-name="Trazado 105571" d="M711.283,544.552c-.768.786-1.481.327-4.052-2.58-1.689-1.906-4.522-2.886-6.275-3.339.578-.361,1.12-.727,1.636-1.088C710.323,538.711,712,543.8,711.283,544.552Z" transform="translate(-696.948 -535.385)" fill="#f4f3f2"/>
            <path id="Trazado_105572" data-name="Trazado 105572" d="M709.81,540.723c-2.182-1.748-5.823-2.491-7.667-2.772a16.36,16.36,0,0,0,1.517-1.351,11.285,11.285,0,0,1,7.208,2.427C712.941,540.885,712.81,543.124,709.81,540.723Z" transform="translate(-695.422 -536.6)" fill="#f4f3f2"/>
          </g>
        </g>
        <path id="Trazado_105573" data-name="Trazado 105573" d="M680.541,542.341c.708-2.9,4.239-5.437,13.638-5.958,1.723,1.177,3.778,4.168,4.5,11.6-.416,0-.834,0-1.259-.009-9.171-.3-14.12-2.224-16.8-3.937A3.024,3.024,0,0,1,680.541,542.341Z" transform="translate(-671.259 -259.918)" fill="#c6bfbf"/>
        <path id="Trazado_105574" data-name="Trazado 105574" d="M736.52,483.32a181.566,181.566,0,0,1,3.965,45.567c-.992,5.635.5,6.842,1.364,8.122s.215,2.6-.16,4.232a5.53,5.53,0,0,0-.034,3.718c.48,1.732,1.485,7.258,1.673,17.295s-1.478,26.3-2.155,37.948c-5.615,4.44-12.324,6.618-18.448,2.589-2.169-30.976-5.347-45.567-6.609-54.347s-1.75-19.237-2.1-23.556c-2.054,14.845-3.24,18.017-1.147,21.467s1.3,2.617.034,4.893-.151,2.543.379,6.846,0,26.632-1.6,42.521c-7.742,4.982-13.656,1.3-13.656,1.3s-4.312-30.624-5.487-45.016-4.427-40.939-4.427-40.939,2-26.609,4.641-31.9C700.4,486.874,718.7,489.065,736.52,483.32Z" transform="translate(-661.424 -328.115)" fill="#2b89aa"/>
        <path id="Trazado_105575" data-name="Trazado 105575" d="M736.736,483.32a181.566,181.566,0,0,1,3.965,45.567c-.992,5.635.5,6.842,1.364,8.122s.215,2.6-.16,4.232a5.53,5.53,0,0,0-.034,3.718c.48,1.732,1.485,7.258,1.673,17.295s-1.478,26.3-2.155,37.948c-5.615,4.44-12.324,6.618-18.448,2.589-2.169-30.976-5.347-45.567-6.609-54.347s-1.75-19.237-2.1-23.556c-2.054,14.845-3.24,18.017-1.147,21.467s1.3,2.617.034,4.893-.151,2.543.379,6.846,0,26.632-1.6,42.521c-7.742,4.982-13.656,1.3-13.656,1.3s-4.312-30.624-5.487-45.016-4.427-40.939-4.427-40.939-1.428-27.345,1.223-32.635C697.2,486.138,718.912,489.065,736.736,483.32Z" transform="translate(-661.64 -328.115)" fill="#2b89aa"/>
        <path id="Trazado_105576" data-name="Trazado 105576" d="M736.736,483.32a181.566,181.566,0,0,1,3.965,45.567c-.992,5.635.5,6.842,1.364,8.122s.215,2.6-.16,4.232a5.53,5.53,0,0,0-.034,3.718c.48,1.732,1.485,7.258,1.673,17.295s-1.478,26.3-2.155,37.948c-5.615,4.44-12.324,6.618-18.448,2.589-2.169-30.976-5.347-45.567-6.609-54.347s-1.75-19.237-2.1-23.556c-2.054,14.845-3.24,18.017-1.147,21.467s1.3,2.617.034,4.893-.151,2.543.379,6.846,0,26.632-1.6,42.521c-7.742,4.982-13.656,1.3-13.656,1.3s-4.312-30.624-5.487-45.016-4.427-40.939-4.427-40.939-1.428-27.345,1.223-32.635C697.2,486.138,718.912,489.065,736.736,483.32Z" transform="translate(-661.64 -328.115)" fill="#206469"/>
        <path id="Trazado_105577" data-name="Trazado 105577" d="M705.349,527.741c-2.093-3.451-.907-6.622,1.147-21.467.075.932.156,2.155.254,3.579.018-.352.032-.708.027-1.067-.009-1.476-.117-2.687,1.156-3.645,1.641-1.236,3.521-2.018,5.114-3.334q2.331-1.93,4.518-4c-3.558,2.089-7.422,4.289-11.579,4.2-4.262-.094-8.172-1.92-12.029-3.59,2.527,2.313,6.09,4.079,7.224,7.4,1.463,4.271.2,8.979-.089,13.343a30.624,30.624,0,0,0-.18,4.036c.087,1.41.683,2.07,1.3,3.236,1.209,2.267.075,4.285-.651,6.5-1.666,5.066-3.714,10-5.24,15.1,2.052-2.294,3.709-4.918,5.7-7.278a.25.25,0,0,1,.418.11c1,3.5.768,7.23.482,10.816-.315,3.958-.512,7.9-.638,11.867-.142,4.472-.3,8.921-.711,13.382-.192,2.07.032,4.445-.338,6.6A17.936,17.936,0,0,0,704.161,582c1.6-15.889,2.134-38.213,1.6-42.521s-1.641-4.575-.379-6.846S707.447,531.2,705.349,527.741Z" transform="translate(-653.907 -309.502)" fill="#2b89aa" style="mix-blend-mode: multiply;isolation: isolate"/>
        <path id="Trazado_105578" data-name="Trazado 105578" d="M698.044,584.354c-1.01-16.465-3.348-32.823-4.641-49.262-.665-8.417-1.488-16.778-2.856-25.11-.809-4.936-1.719-9.856-2.536-14.783.1,3.281.224,5.489.224,5.489s3.254,26.54,4.427,40.939,5.487,45.016,5.487,45.016l.014.009C698.124,585.89,698.092,585.122,698.044,584.354Z" transform="translate(-661.55 -312.848)" fill="#2b89aa" style="mix-blend-mode: multiply;isolation: isolate"/>
        <path id="Trazado_105579" data-name="Trazado 105579" d="M707.655,557.922c-.308-2.735-.64-5.469-.93-8.2s-.432-5.5-.976-8.2a.255.255,0,0,1,.464-.192,36.627,36.627,0,0,0,3.93,6.031c-1.855-6.463-4.856-12.541-6.632-19.036-.964-3.535-1.451-7.173-2.061-10.779q-.71-4.23-1.419-8.462c.217,2.116.469,4.237.759,6.266,1.261,8.78,4.44,23.371,6.609,54.347a12.74,12.74,0,0,0,1.3.761C708.547,566.261,708.129,562.086,707.655,557.922Z" transform="translate(-646.099 -295.013)" fill="#2b89aa" style="mix-blend-mode: multiply;isolation: isolate"/>
        <path id="Trazado_105580" data-name="Trazado 105580" d="M743.522,562.253c-.187-10.037-1.193-15.562-1.673-17.295a5.53,5.53,0,0,1,.034-3.718c.375-1.629,1.026-2.955.16-4.232s-2.356-2.486-1.364-8.122a181.566,181.566,0,0,0-3.965-45.567c-17.825,5.745-39.534,2.818-47.19,0-1.04,2.07-1.451,7.53-1.568,13.4a12.434,12.434,0,0,1,4.87.064c2.214.325,4.433.713,6.634,1.134,5.658,1.063,11.193,2.884,16.943,3.387a50.887,50.887,0,0,0,17.027-1.4.256.256,0,0,1,.281.116c1.339,2.066,1.273,4.673,1.152,7.038-.16,3.156-.2,6.321-.219,9.484-.039,6.442.544,13.186-.745,19.541a2.606,2.606,0,0,0,.407.914c.427.58.973,1.033,1.449,1.568,1.54,1.732.782,3.643-.128,5.539-1.241,2.584-2.617,5.151-3.972,7.671a63.371,63.371,0,0,0-4.575,9.52,75.062,75.062,0,0,0,7.747-7.989c.158-.178.421-.018.434.183.4,5.03,1.058,10.053,1.284,15.1a120.435,120.435,0,0,1-.356,15.2c-.366,4.66-.777,9.276-.96,13.949-.08,2.08-.183,4.182-.441,6.252a23.773,23.773,0,0,0,6.579-3.789C742.043,588.552,743.709,572.292,743.522,562.253Z" transform="translate(-661.618 -328.115)" fill="#2b89aa" style="mix-blend-mode: multiply;isolation: isolate"/>
        <g id="Grupo_57445" data-name="Grupo 57445" transform="translate(74.831 200.365)" style="mix-blend-mode: multiply;isolation: isolate">
          <path id="Trazado_105581" data-name="Trazado 105581" d="M709.506,503.082a6,6,0,0,1,.146.83,6.84,6.84,0,0,1,.059,1.005,7.671,7.671,0,0,1-.032,1.355,28.576,28.576,0,0,1-.5,3.666,4.278,4.278,0,0,0,.724,2.2c.174.361.4.718.619,1.072s.58.75.74,1.008a3.462,3.462,0,0,1-.21,1.188c-.1.446-.2.9-.315,1.373-.071.469-.162.937-.229,1.424-.027.5-.057,1.005-.094,1.517a40.412,40.412,0,0,0,.528,6.344c.3,2.182.681,4.39.887,6.684s.379,4.6.457,6.942c.048,1.168.1,2.329.151,3.494q.027,1.741.053,3.471c.068,2.294.014,4.557-.03,6.748-.018,2.187-.117,4.308-.233,6.307-.1,2-.187,3.905-.4,5.638-.169,1.741-.325,3.348-.464,4.762-.222,1.405-.418,2.633-.576,3.643-.32,2.018-.507,3.172-.507,3.172s.226-1.143.628-3.149c.2-1.005.441-2.228.713-3.624.181-1.422.389-3.023.608-4.758.254-1.741.384-3.643.523-5.651.16-2.009.315-4.125.334-6.325.062-2.2.126-4.463.08-6.771-.014-1.149-.018-2.315-.03-3.48-.046-1.165-.089-2.338-.135-3.5-.085-2.345-.286-4.7-.505-6.99s-.624-4.547-.932-6.7a44.1,44.1,0,0,1-.619-6.241c.021-.5.039-.978.052-1.451.052-.482.135-.964.2-1.428.094-.455.192-.905.281-1.346l.146-.67.069-.35a1.087,1.087,0,0,0-.055-.418c-.3-.482-.562-.688-.793-1.058s-.452-.688-.64-1.035a3.99,3.99,0,0,1-.763-2.027,28.709,28.709,0,0,0,.354-3.665,7.915,7.915,0,0,0-.014-1.369,8.823,8.823,0,0,0-.1-1A5.445,5.445,0,0,0,709.506,503.082Z" transform="translate(-709.177 -503.082)" fill="#2b89aa"/>
        </g>
        <path id="Trazado_105582" data-name="Trazado 105582" d="M739.006,468.269c-2.733-3.112-6.223-14.538-5.8-16.984-4.836.258-13.129.706-18.8,3.174a19.528,19.528,0,0,1-9.422,2.388,63.7,63.7,0,0,0-5.9,12.964c-1.095,3.062-2.15,6.138-3.129,9.234-2.411,11.012-9.886,46.285-8.789,56.01a121.364,121.364,0,0,1,14.314,1.684c7.735,1.387,25.578,8.8,42.352-1.515C743.826,535.225,745.469,481.016,739.006,468.269Z" transform="translate(-662.784 -369.287)" fill="#e94b46"/>
        <path id="Trazado_105583" data-name="Trazado 105583" d="M738.985,468.269c-2.733-3.112-6.223-14.538-5.8-16.984-1.568.084-3.5.192-5.581.37a8.262,8.262,0,0,1-.521,3.044c-.93,3.291-8.414,24.687-9.632,27.445-.617,1.392-2.246,7.061-3.094,8.327-.478.72-5.427-2.109-7.377-2.909-2.738-1.124-5.437-2.37-8.156-3.549a28.186,28.186,0,0,1-3.583-1.817c-.9,4.182-2.116,10.011-3.343,16.328,1.362-1.4,3.138-1.755,5.5-.165a53.6,53.6,0,0,1,5.772,4.753q3.428,3.078,6.623,6.408a67.564,67.564,0,0,1,5.74,6.579c1.746,2.388,10.185,11.565,7.057,14.4a16.163,16.163,0,0,1-4.723,3.057,16.666,16.666,0,0,1-8.782.633c-5.165-.784-10.137-2.08-15.4-1.584a20.743,20.743,0,0,0-6.609,1.625c.023.295.043.571.071.825a121.364,121.364,0,0,1,14.314,1.684c7.735,1.387,25.578,8.8,42.352-1.515C743.8,535.225,745.447,481.016,738.985,468.269Z" transform="translate(-662.762 -369.287)" fill="#158b64" opacity="0.5" style="mix-blend-mode: multiply;isolation: isolate"/>
        <path id="Trazado_105584" data-name="Trazado 105584" d="M720.545,459.457a8.936,8.936,0,0,1-.926-1.316c-1.92,6.412-4.111,12.747-6.59,18.958-1.8,4.5-3.7,8.972-5.754,13.355-1.049,2.228-2.036,4.527-3.213,6.687a22.556,22.556,0,0,0-2.646,5.633,23.362,23.362,0,0,0,7.7-6.266,76.617,76.617,0,0,0,5.93-7.9.224.224,0,0,1,.4.052,88.891,88.891,0,0,1,1.677,14.42A123.264,123.264,0,0,1,717,518.237c-.276,3.661-.1,7.285-.251,10.939-.011.359-.03.729-.053,1.1a35.787,35.787,0,0,0,8.672-3.867S727.007,472.2,720.545,459.457Z" transform="translate(-644.322 -360.475)" fill="#158b64" opacity="0.5" style="mix-blend-mode: multiply;isolation: isolate"/>
        <path id="Trazado_105585" data-name="Trazado 105585" d="M696.33,462.265c2,2.836,5.747,3.08,8.515,1.117,3.437-2.443,4.383-7.057,4.125-11.4-1.273.491-2.548,1.019-3.821,1.572,0,0-5.615,3.222-10.9,2.21A13.436,13.436,0,0,0,696.33,462.265Z" transform="translate(-653.533 -368.386)" fill="#e94b46" style="mix-blend-mode: multiply;isolation: isolate"/>
        <path id="Trazado_105586" data-name="Trazado 105586" d="M694.725,453.846s0,9.074,7.217,7.539c5.53-1.172,2.594-8.711,2.594-8.711Z" transform="translate(-652.92 -367.502)" fill="#c9976d"/>
        <path id="Trazado_105587" data-name="Trazado 105587" d="M750.666,448.665c-3.807-11-11.689-20.352-22.9-22.121A69.61,69.61,0,0,0,714.5,425.5c-34.532,2.022-35.9,18.51-35.555,21.156.37,2.772,4.838,12.448,5.53,15.167.951,3.727-.048,7.516.3,11.278.4,4.3,2.9,8.09,5.919,11.035,2.543,2.477,7,4.28,10.4,5.105a53.706,53.706,0,0,0,8.766,1.106c6.024.448,12.47-.347,17.838-3.3a21.8,21.8,0,0,0,8.115-7.445c.075-.112.692-1,.772-1.106,1.915-1.442,3.915-2.777,5.891-4.129a22.579,22.579,0,0,0,7.146-7.07C752.894,461.753,752.718,454.611,750.666,448.665Z" transform="translate(-673.248 -402.481)" fill="#f4d9bf"/>
        <path id="Trazado_105588" data-name="Trazado 105588" d="M689.657,438.333a5.11,5.11,0,0,0,.085-2.982c-.286,1.554-1.9,2.674-3.24,3.446a19.27,19.27,0,0,0-3.784,2.242,6.73,6.73,0,0,0-1.691,2.678,7.762,7.762,0,0,1,4.436-2.772C687.217,440.529,689.029,440.31,689.657,438.333Z" transform="translate(-670.526 -389.765)" fill="#f4d9bf" style="mix-blend-mode: multiply;isolation: isolate"/>
        <path id="Trazado_105589" data-name="Trazado 105589" d="M699.124,434.062c-3.026.178-8.023,2.692-10.583.057,1.131,3.339,5.427,2.8,8.414,2.237,3.985-.759,8.341-1.156,11.8,1.255C707.716,434.025,702.181,433.874,699.124,434.062Z" transform="translate(-660.867 -391.488)" fill="#f4d9bf" style="mix-blend-mode: multiply;isolation: isolate"/>
        <path id="Trazado_105590" data-name="Trazado 105590" d="M685.618,435.416a8.042,8.042,0,0,1-.068,3.905C686.639,438.311,686.87,436.3,685.618,435.416Z" transform="translate(-664.713 -389.682)" fill="#f4d9bf" style="mix-blend-mode: multiply;isolation: isolate"/>
        <path id="Trazado_105591" data-name="Trazado 105591" d="M687.739,434.562a3.43,3.43,0,0,0,1.8,2.991A5.451,5.451,0,0,0,687.739,434.562Z" transform="translate(-661.898 -390.779)" fill="#f4d9bf" style="mix-blend-mode: multiply;isolation: isolate"/>
        <path id="Trazado_105592" data-name="Trazado 105592" d="M696.777,441.263a30.269,30.269,0,0,0-9.356,3.067c-1.844.992-4,2.5-4.71,4.57,2.523-1.067,4.545-2.994,7.164-3.94a53.6,53.6,0,0,1,9.056-2.214,56.016,56.016,0,0,1,17.21-.272c-2.507-1.526-5.667-1.611-8.533-1.675A59.586,59.586,0,0,0,696.777,441.263Z" transform="translate(-668.36 -382.818)" fill="#f4d9bf" style="mix-blend-mode: multiply;isolation: isolate"/>
        <path id="Trazado_105593" data-name="Trazado 105593" d="M687.922,447.307a5.4,5.4,0,0,0,4.495,2.445c2.482-.235,4.991-2.516,4.646-5.133C694.323,445.668,690.9,448.323,687.922,447.307Z" transform="translate(-661.663 -377.854)" fill="#f4d9bf" style="mix-blend-mode: multiply;isolation: isolate"/>
        <path id="Trazado_105594" data-name="Trazado 105594" d="M745.838,471.789a21.4,21.4,0,0,0,1.9-8.238c0-1.776-.2-5.839-2.491-6.325-2.628-.553-3.174,2.879-3.085,4.762.014.276-.366.29-.455.064a11.506,11.506,0,0,1,.2-8.179c.8-1.968,2.74-3.883,5.039-3.521,2.148.34,3.489,2.406,4.326,4.232.329.722.615,1.46.871,2.21a26.928,26.928,0,0,0-1.479-8.128c-3.807-11-11.689-20.352-22.9-22.121A69.61,69.61,0,0,0,714.5,425.5c-34.532,2.022-35.9,18.51-35.555,21.156a11.819,11.819,0,0,0,.469,1.84,14.335,14.335,0,0,1,2.55-4.659c3.32-4.088,8.122-6.9,12.948-8.851a38.374,38.374,0,0,1,19.262-2.87c9.712,1.255,15.247,10.48,18.112,19a43.718,43.718,0,0,1,2.5,15.073c-.174,5.77-1.554,12.137-5.2,16.769a21.707,21.707,0,0,1-10.105,6.922,27.045,27.045,0,0,0,8.208-2.834,21.8,21.8,0,0,0,8.115-7.445c.075-.112.692-1,.772-1.106,1.915-1.442,3.915-2.777,5.891-4.129A35.363,35.363,0,0,0,745.838,471.789Z" transform="translate(-673.248 -402.481)" fill="#f4d9bf" style="mix-blend-mode: multiply;isolation: isolate"/>
        <path id="Trazado_105595" data-name="Trazado 105595" d="M687.584,450.795s-.683-1.369,1.977-5.377,4.712-3.245,5.864-2.205,5.137,7.464-1.714,8.668C690.573,452.433,688.418,451.937,687.584,450.795Z" transform="translate(-662.198 -380.727)" fill="url(#radial-gradient)" style="mix-blend-mode: multiply;isolation: isolate"/>
        <path id="Trazado_105596" data-name="Trazado 105596" d="M694.334,450.989a29.19,29.19,0,0,1-3.549-.123,3.281,3.281,0,0,1-2.351-.857c-.711-.875.16-2.406.516-3.224a18.02,18.02,0,0,1,2.224-3.832c.066-.1-.059-.263-.158-.174a12.084,12.084,0,0,0-2.984,4.07c-.421.914-1,2.239-.459,3.236,1.147,2.128,4.945,1.561,6.792,1.044A.072.072,0,0,0,694.334,450.989Z" transform="translate(-662.392 -380.253)" fill="#c39368"/>
        <path id="Trazado_105597" data-name="Trazado 105597" d="M707.34,440.074c-1.675,1.952-.987,4.852.334,6.757a.076.076,0,0,0,.135-.066,18.572,18.572,0,0,1-.58-2.969c.027.023.057.041.08.057.352.318.745.6,1.076.939.094.094.24-.046.169-.153-.277-.393-.523-.786-.825-1.156a3.338,3.338,0,0,0-.505-.53,6.238,6.238,0,0,1,.1-.768,4.542,4.542,0,0,1,.665-1.568c.919-1.321,1.911.466,2.057,1.412.023.128.215.155.238.016C710.571,440.275,708.8,438.365,707.34,440.074Z" transform="translate(-637.977 -384.552)" fill="#c39368"/>
        <path id="Trazado_105598" data-name="Trazado 105598" d="M770.748,454.661c-.135-.88-.176-1.764-.331-2.642a33.081,33.081,0,0,0-1.762-5.459,6.748,6.748,0,0,0-1.072-1.84,22.691,22.691,0,0,1-1.268-1.922c.188.1.375.208.558.329a1.645,1.645,0,0,0,.93.437.384.384,0,0,0,.32-.3,7.752,7.752,0,0,0-.423-2.934,36.9,36.9,0,0,0-1.488-4.289c-1.058-2.646-3.016-4.945-4.79-7.137a26.864,26.864,0,0,0-6.435-5.386,18.338,18.338,0,0,0-6.623-2.571c.807-.366,1.645-.759,2.493-1.09a21.12,21.12,0,0,0-14.152.094.207.207,0,0,1-.219-.071c-2.315-3.147-6.707-3.91-10.354-4.234a57.423,57.423,0,0,0-12.836.258,53.459,53.459,0,0,0-9.538,3.08,50.7,50.7,0,0,0-15.72,10.313,40.9,40.9,0,0,0-9.913,16.44,20.583,20.583,0,0,0-.857,4.552.113.113,0,0,0,.126.112c.9.034,1.719-1.4,2.233-1.961.123-.137.254-.272.384-.4-1.867,3.752-3.441,7.653-3.576,11.9-.048,1.565.786,6.289,3.2,4.6a7.172,7.172,0,0,0,.642-.512,27.426,27.426,0,0,1,2.646-5.862c2.571-4.374,5.882-8.311,10.414-10.743a46.081,46.081,0,0,1,16.058-5c3.085-.363,6.177-.434,9.276-.571,2.994-.135,5.907-.448,8.421-2.224a.237.237,0,0,1,.341.137c3.044,13.026,15.553,22.26,16.376,35.907a.345.345,0,0,0,.011-.085c-.048-2.861,1.22-14.184,6.273-9.488,3.686,3.423,2.77,9.744-.032,13.35-2.205,2.829-6.172,1.41-8.06,4.669a19.215,19.215,0,0,0-1.563,4.319,39.812,39.812,0,0,1-2.969,6.664c.224-.45,1.981-1.181,2.4-1.453,2.214-1.46,4.422-2.934,6.533-4.536a95.779,95.779,0,0,0,16.426-15.361,26.527,26.527,0,0,0,5.891-14.006c.229-1.974.772-5.718-.754-7.352a7.622,7.622,0,0,1,1.293,1.762,14.78,14.78,0,0,0,1.348,2.546c.126.16.341-.082.356-.219A6.906,6.906,0,0,0,770.748,454.661Z" transform="translate(-676.431 -415.403)" fill="#834417"/>
        <path id="Trazado_105599" data-name="Trazado 105599" d="M676.923,450.4a.625.625,0,0,0,.13,0c2.374-5.754,4.993-11.495,9.171-16.188a61.222,61.222,0,0,1,15.041-12.189,49.5,49.5,0,0,1,23.343-6.453,56.885,56.885,0,0,0-11.783.338,53.459,53.459,0,0,0-9.538,3.08,50.7,50.7,0,0,0-15.72,10.313,40.9,40.9,0,0,0-9.913,16.44,20.583,20.583,0,0,0-.857,4.552A.113.113,0,0,0,676.923,450.4Z" transform="translate(-675.961 -415.401)" fill="#834417" style="mix-blend-mode: screen;isolation: isolate"/>
        <path id="Trazado_105600" data-name="Trazado 105600" d="M681.434,434.993c2.281-2.089,4.155-4.589,6.547-6.552A46.251,46.251,0,0,1,697,422.795a50.466,50.466,0,0,1,14.4-4.82C699.576,419.081,687.2,424.173,681.434,434.993Z" transform="translate(-670.001 -412.097)" fill="#834417" style="mix-blend-mode: screen;isolation: isolate"/>
        <path id="Trazado_105601" data-name="Trazado 105601" d="M684.235,429.987c6.9-1.076,13.832-3.17,19.458-7.29a65.255,65.255,0,0,1-9.127,3.768C691.143,427.638,687.715,428.947,684.235,429.987Z" transform="translate(-666.402 -406.028)" fill="#834417" style="mix-blend-mode: screen;isolation: isolate"/>
        <path id="Trazado_105602" data-name="Trazado 105602" d="M706.217,427.41c5.062,5.946,8.049,13.284,10.789,20.567a25.127,25.127,0,0,0-3.727-12.886A28.227,28.227,0,0,0,706.217,427.41Z" transform="translate(-638.15 -399.971)" fill="#834417" style="mix-blend-mode: screen;isolation: isolate"/>
        <path id="Trazado_105603" data-name="Trazado 105603" d="M710.657,426.072a30.49,30.49,0,0,1,5.039,7.681A10.382,10.382,0,0,0,714,428.225,7.623,7.623,0,0,0,710.657,426.072Z" transform="translate(-632.444 -401.691)" fill="#834417" style="mix-blend-mode: screen;isolation: isolate"/>
        <path id="Trazado_105604" data-name="Trazado 105604" d="M770.748,454.461c-.135-.88-.176-1.764-.331-2.642a33.081,33.081,0,0,0-1.762-5.459,6.748,6.748,0,0,0-1.072-1.84,22.691,22.691,0,0,1-1.268-1.922c.188.1.375.208.558.329a1.645,1.645,0,0,0,.93.437.384.384,0,0,0,.32-.3,4.277,4.277,0,0,0,.018-.836,10.811,10.811,0,0,0-4.579-3.672,41.907,41.907,0,0,1,3.864,10.1c.064.245-.3.416-.418.174a30.452,30.452,0,0,0-2.45-3.99,22.977,22.977,0,0,1-.487,17.8c-.089.2-.363.112-.425-.057a77.284,77.284,0,0,0-4.337-10.462,21.1,21.1,0,0,1,.352,7.9c-.585,4.118-1.75,9.006-4.717,12.1a.233.233,0,0,1-.384-.1c-.711-3.992-1.89-8.277-4.228-11.632-1.785-2.575-4.262-5.441-7.329-6.5.544,2.7,1.62,5.258,1.99,7.994.027.21-.21.407-.389.224-2.6-2.678-4.129-6.255-5.676-9.6-1.563-3.387-3.09-6.922-3.25-10.7a.235.235,0,0,1,.347-.2c2.543,1.8,3.985,4.607,6.111,6.81-2.08-5.462-5.469-10.523-5.766-16.5a.226.226,0,0,1,.169-.224c2.365-.436,4.417.459,6.6,1.175a11.711,11.711,0,0,0-4.123-3.4c-.233-.114-.089-.4.117-.427a22.564,22.564,0,0,1,20.016,7.886,21.616,21.616,0,0,0-7.039-8.707,21.991,21.991,0,0,0-12.059-3.782.231.231,0,0,1-.16-.393,12.462,12.462,0,0,1,8.864-3.2l-.393-.094c.807-.366,1.645-.759,2.493-1.09a21.12,21.12,0,0,0-14.152.094.207.207,0,0,1-.219-.071c-2.084-2.829-5.841-3.732-9.234-4.12a12.412,12.412,0,0,1,4.794,3.071c.174.183-.062.528-.281.366-1.682-1.275-4.049-1.607-6.092-1.812a38.339,38.339,0,0,0-5.793-.2c-4.36.238-9,1.033-12.811,3.281,5.718-1.245,11.533-3.195,17.39-1.6,3.869,1.063,7.352,3.748,6.4,8.195-2.018,9.372-13.074,11.741-21.17,12.827-5.811.777-11.659,1.456-16.8,4.534a28.228,28.228,0,0,0-12.331,15.359.228.228,0,0,1-.448-.062,26.076,26.076,0,0,1,12.226-21.3c-4.2,1.755-8.275,4.2-10.992,7.843-.107.144-.379.16-.421-.057-.58-2.813.66-5.736,1.723-8.284.7-1.689,1.392-3.371,2.2-5a40.978,40.978,0,0,0-6.723,12.815,20.583,20.583,0,0,0-.857,4.552.113.113,0,0,0,.126.112c.9.034,1.719-1.4,2.233-1.961.123-.137.254-.272.384-.4-1.867,3.752-3.441,7.653-3.576,11.9-.048,1.565.786,6.289,3.2,4.6a7.172,7.172,0,0,0,.642-.512,27.426,27.426,0,0,1,2.646-5.862c2.571-4.374,5.882-8.311,10.414-10.743a46.081,46.081,0,0,1,16.058-5c3.085-.363,6.177-.434,9.276-.571,2.994-.135,5.907-.448,8.421-2.224a.237.237,0,0,1,.341.137c3.044,13.026,15.553,22.26,16.376,35.907a.345.345,0,0,0,.011-.085c-.048-2.861,1.22-14.184,6.273-9.488,3.686,3.423,2.77,9.744-.032,13.35-2.205,2.829-6.172,1.41-8.06,4.669a19.215,19.215,0,0,0-1.563,4.319,39.812,39.812,0,0,1-2.969,6.664c.224-.45,1.981-1.181,2.4-1.453,2.214-1.46,4.422-2.934,6.533-4.536a95.779,95.779,0,0,0,16.426-15.361,26.527,26.527,0,0,0,5.891-14.006c.229-1.974.772-5.718-.754-7.352a7.622,7.622,0,0,1,1.293,1.762,14.78,14.78,0,0,0,1.348,2.546c.126.16.341-.082.356-.219A6.906,6.906,0,0,0,770.748,454.461Z" transform="translate(-676.431 -415.203)" fill="#a6561d" opacity="0.5" style="mix-blend-mode: multiply;isolation: isolate"/>
        <g id="Grupo_57446" data-name="Grupo 57446" transform="translate(43.023 162.41)" opacity="0.5" style="mix-blend-mode: multiply;isolation: isolate">
          <path id="Trazado_105605" data-name="Trazado 105605" d="M695.318,486.473l.021.1a.461.461,0,0,0-.08-.018A.255.255,0,0,1,695.318,486.473Z" transform="translate(-695.258 -486.473)" fill="#2b89aa"/>
        </g>
        <path id="Trazado_105606" data-name="Trazado 105606" d="M722.953,461.122c.743,13.837-13.622,42.436-13.622,42.436l-11.625-9.534,12.532-29.671S722.213,447.281,722.953,461.122Z" transform="translate(-649.089 -363.601)" fill="#f4d9bf"/>
        <path id="Trazado_105607" data-name="Trazado 105607" d="M720.6,481.045l-26.454-16.291-6.312,5.606s21.408,21.406,26.822,23.924C720.917,497.2,727.75,486.847,720.6,481.045Z" transform="translate(-661.776 -351.976)" fill="#f4d9bf"/>
        <path id="Trazado_105608" data-name="Trazado 105608" d="M712.126,490.527a36.831,36.831,0,0,0,5.649,1.312c2.546-6.1,7.249-18.385,7.365-26.1.155-10.587-6.922-13.506-6.922-13.506s-4.191-3.771-8.119,3.7c-3.3,6.275-7.98,23.014-9.392,28.213C703.568,487.385,708.157,489.323,712.126,490.527Z" transform="translate(-645.232 -369.287)" fill="#e94b46"/>
        <path id="Trazado_105609" data-name="Trazado 105609" d="M721,465.741c.155-10.587-6.922-13.506-6.922-13.506s-3.451-3.1-7.022,1.906c.094-.089.183-.178.281-.263a6.522,6.522,0,0,1,4.045-1.938,4.163,4.163,0,0,1,3.508,2.4c3.263,5.843,1.451,12.55-.356,18.558-1.094,3.638-2.425,7.187-3.661,10.775-.642,1.856-1.241,4.678-3.432,5.334a7.078,7.078,0,0,1-3.513.057,40.228,40.228,0,0,0,4.059,1.46,36.831,36.831,0,0,0,5.649,1.312C716.181,485.736,720.884,473.453,721,465.741Z" transform="translate(-641.092 -369.286)" fill="#e94b46" style="mix-blend-mode: multiply;isolation: isolate"/>
        <path id="Trazado_105610" data-name="Trazado 105610" d="M701.123,437.605c-.023,0-.052.055-.018.055S701.16,437.605,701.123,437.605Z" transform="translate(-644.741 -386.868)" fill="#b72991"/>
        <path id="Trazado_105611" data-name="Trazado 105611" d="M689.443,434.713a5.155,5.155,0,0,1-1.1,1.851,10.375,10.375,0,0,1-1.318,1.033,7.186,7.186,0,0,1-1.3.816l-.375.229a13.966,13.966,0,0,0-3.476,2.646,3.571,3.571,0,0,0-1.015,2.857c.036.3.075.606.112.91a.66.66,0,0,0,.126-.165c1.058-2.361,2.548-3.044,4.819-3.869,1-.368,2.326-.43,3.115-1.236a4.092,4.092,0,0,0,1.044-1.984A9.38,9.38,0,0,0,689.443,434.713Z" transform="translate(-670.771 -390.585)" fill="#834417"/>
        <path id="Trazado_105612" data-name="Trazado 105612" d="M690.188,436.247a8.35,8.35,0,0,0,4.806.329,33.09,33.09,0,0,1,7.781-.482,10.5,10.5,0,0,1,2,.459,36.774,36.774,0,0,1,3.654.907.54.54,0,0,0,.187-.58c-1.378-2.866-4.692-3.263-7.573-3.419-2.144-.117-4.42.2-6.57.29-2.089.089-4.125-.3-6.2-.375a18.07,18.07,0,0,0,1.447,2.589A2.556,2.556,0,0,0,690.188,436.247Z" transform="translate(-661.206 -392.302)" fill="#834417"/>
        <g id="Grupo_57447" data-name="Grupo 57447" transform="translate(15.475 57.37)">
          <path id="Trazado_105613" data-name="Trazado 105613" d="M686.4,443.676c.393,1.778.023,3.245-.809,3.268-.852.023-1.842-1.392-2.23-3.174s-.014-3.236.811-3.261C685.02,440.481,686.025,441.9,686.4,443.676Z" transform="translate(-683.203 -440.508)" fill="#7b412c"/>
          <path id="Trazado_105614" data-name="Trazado 105614" d="M684.3,441.9c.071.53-.064.955-.3.946s-.459-.455-.519-.992.064-.967.3-.962C684,440.912,684.237,441.35,684.3,441.9Z" transform="translate(-682.87 -440.015)" fill="#fff"/>
        </g>
        <g id="Grupo_57448" data-name="Grupo 57448" transform="translate(38.037 52.464)">
          <path id="Trazado_105615" data-name="Trazado 105615" d="M696.278,441.531c.393,1.776.023,3.245-.811,3.268-.855.021-1.844-1.394-2.233-3.174s-.014-3.24.811-3.263C694.9,438.336,695.9,439.76,696.278,441.531Z" transform="translate(-693.076 -438.361)" fill="#7b412c"/>
          <path id="Trazado_105616" data-name="Trazado 105616" d="M694.169,439.75c.071.537-.064.955-.295.953-.238-.018-.464-.457-.523-1s.064-.969.3-.964C693.879,438.769,694.114,439.206,694.169,439.75Z" transform="translate(-692.743 -437.871)" fill="#fff"/>
        </g>
        <path id="Trazado_105617" data-name="Trazado 105617" d="M699.522,449.155a12.352,12.352,0,0,0-3.521.354,6.1,6.1,0,0,0-3.926,3.62c2.491-3.567,6.52-3.492,10.564-3.071A10.946,10.946,0,0,0,699.522,449.155Z" transform="translate(-656.326 -372.035)" fill="#c39368"/>
      </g>
      <g id="Grupo_57451" data-name="Grupo 57451" transform="translate(31.079 96.55)">
        <g id="Grupo_57450" data-name="Grupo 57450">
          <path id="Trazado_105618" data-name="Trazado 105618" d="M702.077,483.312c3.16-1.344,5.231-5.441,5.043-8.682a29.674,29.674,0,0,0-1.579-6.552,7.842,7.842,0,0,1-.514-1.193,28.759,28.759,0,0,1-.871-5.082c-.151-1.152-.6-3.01-2.061-2.438-1.84.158-2.6,1.844-2.534,3.59a14.9,14.9,0,0,0,.277,2.427c-1.728-2.969-3.99-6.134-7.052-7.377-2.584-1.049-6.143.446-8.387,1.808-.862.512-2,1.218-2.2,2.29-.174.99,1.063,1.431,1.8,1.485a5.631,5.631,0,0,0,2.219-.51c1.442-.526,3.092-1.186,4.463-.437.923.505,1.424,1.84,2.173,2.548a9.966,9.966,0,0,0-2.374-1.031c-3.1-.848-6.5.768-8.9,2.7-.875.7-2.189,2.173-1.764,3.428.276.839,1.376.937,2.107.754,1.892-.482,3.442-2.358,5.459-2.363a9.058,9.058,0,0,1,3.378.8,9.833,9.833,0,0,0-4.991.638c-2.244,1-5.484,3.268-5.26,6.147.178,2.262,2.637,2.432,4.017.978,1.053-1.122,2.034-2.959,3.588-3.428a5.249,5.249,0,0,1,3.357.249,11.73,11.73,0,0,0-3.179.8c-2.205.928-3.652,3.873-3.611,6.193s2.018,3.46,3.611,1.492c.8-.974.768-2.5,1.629-3.389.9-.932,2.432-1.04,3.844-.848a19.424,19.424,0,0,0,1.908,2.29,8.1,8.1,0,0,0,4.7,2.754A6.185,6.185,0,0,0,702.077,483.312Z" transform="translate(-679.732 -457.653)" fill="#f4d9bf"/>
        </g>
      </g>
      <g id="Grupo_57452" data-name="Grupo 57452" transform="translate(15.259 77.537)" opacity="0.2" style="mix-blend-mode: multiply;isolation: isolate">
        <path id="Trazado_105619" data-name="Trazado 105619" d="M678.3,449.635c-3.138-1.117-5.756.985-5.466,4.315a11.679,11.679,0,0,0,1.732,5.094c1.593,2.6,4.132,4.575,5.583,7.212,1.156,2.1-.146,5.178-.352,7.365-.331,3.565,1.017,9.136,5.654,8.739,3.38-.29,4.63-3.067,2.991-5.962-1.339-2.365-2.884-4.634-2.079-7.431a3.836,3.836,0,0,1,1.6-2.013c-.238-.782-.482-1.563-.75-2.34a75.573,75.573,0,0,0-5.772-12.955A8.709,8.709,0,0,0,678.3,449.635Z" transform="translate(-672.809 -449.333)" fill="url(#linear-gradient)"/>
      </g>
      <g id="Grupo_57456" data-name="Grupo 57456" transform="translate(22.054 85.364)">
        <g id="Grupo_57453" data-name="Grupo 57453" transform="translate(1.626 3.996)" opacity="0.5" style="mix-blend-mode: multiply;isolation: isolate">
          <path id="Trazado_105620" data-name="Trazado 105620" d="M677.018,454.52c-.679.046-.523,1.09.151,1.049S677.693,454.485,677.018,454.52Z" transform="translate(-676.384 -454.491)" fill="#fc838a"/>
          <path id="Trazado_105621" data-name="Trazado 105621" d="M677.133,454.558l-.041,0a.239.239,0,0,0-.094.041.224.224,0,0,0-.094.112.388.388,0,0,0-.021.155.788.788,0,0,1,0,.165.691.691,0,0,0-.009.219.275.275,0,0,0,.137.206.3.3,0,0,0,.258,0c.018-.018.112-.037.112-.073a.219.219,0,0,0,.059-.062.451.451,0,0,0,.053-.146c-.009-.059-.009-.116-.014-.171s-.025-.105-.039-.165a.357.357,0,0,0-.178-.263.253.253,0,0,0-.135-.027Zm0-.043s.053,0,.151,0a.853.853,0,0,1,.183,0,.5.5,0,0,1,.26.107.473.473,0,0,1,.188.267.665.665,0,0,1,.018.379.641.641,0,0,1-.242.356.439.439,0,0,1-.21.08c-.089.018-.107-.009-.187,0a1.245,1.245,0,0,1-.338-.123,1.576,1.576,0,0,1-.276-.2.668.668,0,0,1-.174-.308.457.457,0,0,1,.066-.322.444.444,0,0,1,.222-.174.7.7,0,0,1,.2-.043,1.052,1.052,0,0,0,.139-.014Z" transform="translate(-676.495 -454.507)" fill="#cb2033"/>
        </g>
        <g id="Grupo_57454" data-name="Grupo 57454" opacity="0.5" style="mix-blend-mode: multiply;isolation: isolate">
          <path id="Trazado_105622" data-name="Trazado 105622" d="M676.386,452.772c-.807.05-.615,1.282.178,1.236S677.181,452.719,676.386,452.772Z" transform="translate(-675.675 -452.742)" fill="#fc838a"/>
          <path id="Trazado_105623" data-name="Trazado 105623" d="M676.494,452.811a.128.128,0,0,0-.039.009.319.319,0,0,0-.117.037.305.305,0,0,0-.117.123.528.528,0,0,0-.048.192c0,.069-.009.13,0,.21a.836.836,0,0,0,.009.258.317.317,0,0,0,.178.247.405.405,0,0,0,.311.018c.018-.027.126-.046.14-.08a.535.535,0,0,0,.071-.073.336.336,0,0,0,.08-.2,1.656,1.656,0,0,0-.014-.213,1.181,1.181,0,0,0-.057-.206.421.421,0,0,0-.235-.29.319.319,0,0,0-.158-.032Zm0-.043s.069,0,.178-.009a.983.983,0,0,1,.215.018.669.669,0,0,1,.29.128.678.678,0,0,1,.206.313.791.791,0,0,1,.014.427.671.671,0,0,1-.267.4.516.516,0,0,1-.238.1,1.042,1.042,0,0,1-.206,0,1.294,1.294,0,0,1-.393-.137,1.2,1.2,0,0,1-.306-.242.64.64,0,0,1-.192-.352.572.572,0,0,1,.066-.366.531.531,0,0,1,.249-.2,1.966,1.966,0,0,1,.215-.064.881.881,0,0,0,.126-.007l.043,0Z" transform="translate(-675.783 -452.758)" fill="#cb2033"/>
        </g>
        <g id="Grupo_57455" data-name="Grupo 57455" transform="translate(1.348 7.116)" opacity="0.5" style="mix-blend-mode: multiply;isolation: isolate">
          <path id="Trazado_105624" data-name="Trazado 105624" d="M676.706,455.893c-.388.023-.3.622.089.6S677.095,455.867,676.706,455.893Z" transform="translate(-676.267 -455.846)" fill="#fc838a"/>
          <path id="Trazado_105625" data-name="Trazado 105625" d="M676.821,455.936a.124.124,0,0,0-.075.041.066.066,0,0,0-.041.08.186.186,0,0,0,.036.08s.025.041.014.059a.468.468,0,0,0-.041.11.093.093,0,0,0,.048.112c.036.041.1-.009.13-.018-.023-.03.135-.094.062-.105a.025.025,0,0,1-.03-.023c-.009-.023,0-.032-.009-.055a.253.253,0,0,1,.018-.071.211.211,0,0,0,0-.107.1.1,0,0,0-.046-.071.107.107,0,0,0-.076-.027Zm-.014-.039a.24.24,0,0,0,.094-.014.463.463,0,0,1,.121-.009.3.3,0,0,1,.192.041.341.341,0,0,1,.141.178.412.412,0,0,1,.009.258.424.424,0,0,1-.206.258.294.294,0,0,1-.08.041.1.1,0,0,1-.053,0c-.041,0-.036-.018-.121-.009a1.133,1.133,0,0,1-.107-.055.282.282,0,0,1-.1-.048,1.046,1.046,0,0,1-.187-.117.31.31,0,0,1-.135-.192.247.247,0,0,1,.05-.217.268.268,0,0,1,.178-.107.193.193,0,0,1,.117,0,.106.106,0,0,0,.08-.009Z" transform="translate(-676.373 -455.872)" fill="#cb2033"/>
        </g>
      </g>
      <g id="Grupo_57460" data-name="Grupo 57460" transform="translate(25.967 89.233)" opacity="0.7">
        <g id="Grupo_57457" data-name="Grupo 57457" transform="translate(0.982 2.41)" opacity="0.5" style="mix-blend-mode: multiply;isolation: isolate">
          <path id="Trazado_105626" data-name="Trazado 105626" d="M678.241,455.514c-.409.021-.315.656.089.628S678.648,455.487,678.241,455.514Z" transform="translate(-677.859 -455.495)" fill="#fc838a"/>
          <path id="Trazado_105627" data-name="Trazado 105627" d="M678.311,455.532l-.027.009a.106.106,0,0,0-.052.023.149.149,0,0,0-.057.066.219.219,0,0,0-.014.094c.009.037,0,.064,0,.1a.425.425,0,0,0,0,.135.159.159,0,0,0,.08.126.194.194,0,0,0,.156,0c.014-.009.068-.023.073-.046l.03-.034a.2.2,0,0,0,.032-.091c0-.034,0-.066,0-.1a.894.894,0,0,1-.027-.1.189.189,0,0,0-.107-.158.122.122,0,0,0-.08-.014Zm0-.021s.032,0,.089,0a.535.535,0,0,1,.117,0,.274.274,0,0,1,.151.062.323.323,0,0,1,.117.16.369.369,0,0,1,.009.233.4.4,0,0,1-.146.215.336.336,0,0,1-.126.048.977.977,0,0,1-.117,0,.919.919,0,0,1-.2-.08.747.747,0,0,1-.164-.121.337.337,0,0,1-.1-.183.245.245,0,0,1,.036-.2.3.3,0,0,1,.133-.107c.046-.016.089-.016.116-.025a.646.646,0,0,0,.089,0Z" transform="translate(-677.925 -455.506)" fill="#cb2033"/>
        </g>
        <g id="Grupo_57458" data-name="Grupo 57458" opacity="0.5" style="mix-blend-mode: multiply;isolation: isolate">
          <path id="Trazado_105628" data-name="Trazado 105628" d="M677.857,454.459c-.482.032-.37.777.112.745S678.334,454.432,677.857,454.459Z" transform="translate(-677.429 -454.441)" fill="#fc838a"/>
          <path id="Trazado_105629" data-name="Trazado 105629" d="M677.927,454.483l-.023,0a.2.2,0,0,0-.071.025.227.227,0,0,0-.075.073.34.34,0,0,0-.023.114c0,.041-.009.082,0,.126a.383.383,0,0,0,0,.16.18.18,0,0,0,.107.144.223.223,0,0,0,.188.014c.014-.018.075-.027.084-.05a.137.137,0,0,0,.046-.043.218.218,0,0,0,.043-.117c0-.046,0-.084,0-.135s-.023-.08-.034-.119a.253.253,0,0,0-.144-.174.2.2,0,0,0-.1-.023Zm0-.023a.87.87,0,0,0,.107-.009.744.744,0,0,1,.13.014.42.42,0,0,1,.174.075.41.41,0,0,1,.123.187.446.446,0,0,1,.009.258.415.415,0,0,1-.16.242.387.387,0,0,1-.142.057,1.2,1.2,0,0,1-.126,0,.793.793,0,0,1-.238-.085,1.153,1.153,0,0,1-.187-.142.421.421,0,0,1-.114-.215.325.325,0,0,1,.043-.224.359.359,0,0,1,.149-.119,1.079,1.079,0,0,1,.133-.036.177.177,0,0,1,.055,0l.043,0Z" transform="translate(-677.495 -454.451)" fill="#cb2033"/>
        </g>
        <g id="Grupo_57459" data-name="Grupo 57459" transform="translate(0.814 4.289)" opacity="0.5" style="mix-blend-mode: multiply;isolation: isolate">
          <path id="Trazado_105630" data-name="Trazado 105630" d="M678.052,456.342c-.235.014-.178.375.055.361S678.285,456.324,678.052,456.342Z" transform="translate(-677.787 -456.31)" fill="#fc838a"/>
          <path id="Trazado_105631" data-name="Trazado 105631" d="M678.121,456.369a.077.077,0,0,0-.043.021.051.051,0,0,0-.027.055l.023.043.009.037a.293.293,0,0,0-.023.066.056.056,0,0,0,.027.069c.021.021.062,0,.08-.009-.014-.023.08-.059.034-.068l-.014-.009,0-.021a.461.461,0,0,1,0-.059.092.092,0,0,0,0-.062.14.14,0,0,0-.016-.041.158.158,0,0,0-.059-.021Zm-.009-.027a.088.088,0,0,0,.059,0c.016,0,.039-.009.071-.009a.178.178,0,0,1,.117.027.19.19,0,0,1,.084.107.255.255,0,0,1,.009.155.247.247,0,0,1-.126.155l-.032.023-.034,0a.262.262,0,0,0-.085-.014c-.027-.009-.05-.023-.068-.03a.145.145,0,0,1-.057-.027c-.041-.023-.071-.046-.112-.071a.209.209,0,0,1-.085-.117.147.147,0,0,1,.032-.13.141.141,0,0,1,.107-.066.136.136,0,0,1,.057,0,.1.1,0,0,0,.062,0Z" transform="translate(-677.851 -456.328)" fill="#cb2033"/>
        </g>
      </g>
      <g id="Grupo_57464" data-name="Grupo 57464" transform="translate(25.87 100.392)" opacity="0.7">
        <g id="Grupo_57461" data-name="Grupo 57461" transform="translate(0 1.652)" opacity="0.5" style="mix-blend-mode: multiply;isolation: isolate">
          <path id="Trazado_105632" data-name="Trazado 105632" d="M677.909,460.7c.407-.075.233-.686-.164-.615S677.512,460.782,677.909,460.7Z" transform="translate(-677.376 -460.023)" fill="#fc838a"/>
          <path id="Trazado_105633" data-name="Trazado 105633" d="M677.986,460.729l.023-.007a.075.075,0,0,0,.048-.032.115.115,0,0,0,.055-.071.24.24,0,0,0,0-.1.344.344,0,0,1-.014-.094.459.459,0,0,0-.009-.135.162.162,0,0,0-.1-.112.176.176,0,0,0-.155.014c-.009.014-.064.032-.064.055a.124.124,0,0,0-.025.039.177.177,0,0,0-.023.094c0,.032.014.066.018.1s.03.062.039.1a.218.218,0,0,0,.126.144.146.146,0,0,0,.08.007Zm0,.023-.089.018a.394.394,0,0,1-.112.009.3.3,0,0,1-.16-.046.3.3,0,0,1-.135-.146.384.384,0,0,1-.039-.224.378.378,0,0,1,.119-.231.232.232,0,0,1,.121-.064.314.314,0,0,1,.112-.011.692.692,0,0,1,.21.048.866.866,0,0,1,.183.1.379.379,0,0,1,.123.169.318.318,0,0,1-.011.2.322.322,0,0,1-.121.117.879.879,0,0,1-.117.043.494.494,0,0,0-.085.014Z" transform="translate(-677.453 -460.057)" fill="#cb2033"/>
        </g>
        <g id="Grupo_57462" data-name="Grupo 57462" transform="translate(1.15 3.816)" opacity="0.5" style="mix-blend-mode: multiply;isolation: isolate">
          <path id="Trazado_105634" data-name="Trazado 105634" d="M678.485,461.766c.482-.089.276-.811-.2-.727S678.016,461.855,678.485,461.766Z" transform="translate(-677.879 -460.968)" fill="#fc838a"/>
          <path id="Trazado_105635" data-name="Trazado 105635" d="M678.561,461.786l.023,0a.25.25,0,0,0,.066-.036.161.161,0,0,0,.064-.075.434.434,0,0,0,.011-.121c-.007-.039,0-.08-.011-.126a.718.718,0,0,0-.023-.16.209.209,0,0,0-.126-.13.244.244,0,0,0-.187.014c-.014.018-.071.036-.076.059s-.027.03-.041.048a.206.206,0,0,0-.03.126c0,.039.011.085.021.126a.93.93,0,0,0,.05.119.283.283,0,0,0,.16.158.23.23,0,0,0,.1,0Zm0,.025s-.037,0-.1.018a.594.594,0,0,1-.133,0,.355.355,0,0,1-.18-.053.445.445,0,0,1-.151-.171.5.5,0,0,1-.041-.258.421.421,0,0,1,.135-.254.308.308,0,0,1,.135-.08.6.6,0,0,1,.124-.014.677.677,0,0,1,.247.057.684.684,0,0,1,.2.121.4.4,0,0,1,.142.2.342.342,0,0,1-.018.224.3.3,0,0,1-.128.137.591.591,0,0,1-.126.05l-.062.011-.041.009Z" transform="translate(-677.956 -461.004)" fill="#cb2033"/>
        </g>
        <g id="Grupo_57463" data-name="Grupo 57463" transform="translate(0.224)" opacity="0.5" style="mix-blend-mode: multiply;isolation: isolate">
          <path id="Trazado_105636" data-name="Trazado 105636" d="M677.843,459.719c.228-.039.13-.391-.1-.352S677.607,459.76,677.843,459.719Z" transform="translate(-677.477 -459.296)" fill="#fc838a"/>
          <path id="Trazado_105637" data-name="Trazado 105637" d="M677.912,459.75a.1.1,0,0,0,.037-.032s.027-.032.018-.05a.049.049,0,0,0-.018-.03c-.018-.023-.027-.037-.023-.05a.2.2,0,0,0,.018-.071c0-.023-.014-.057-.037-.057-.025-.023-.062.007-.062.007,0,.027-.089.078-.043.078l.021.009c.009.016,0,.021,0,.021a.08.08,0,0,1,0,.055.093.093,0,0,0,0,.062.076.076,0,0,0,.08.055Zm0,.021a.084.084,0,0,0-.053.014.156.156,0,0,1-.071.014.131.131,0,0,1-.116-.009.173.173,0,0,1-.1-.1.237.237,0,0,1-.027-.151.247.247,0,0,1,.1-.169.262.262,0,0,1,.046-.032h.03a.14.14,0,0,0,.073,0,.346.346,0,0,1,.048.018.44.44,0,0,1,.085.025.947.947,0,0,1,.121.059.225.225,0,0,1,.1.107.152.152,0,0,1-.018.133.17.17,0,0,1-.1.075.094.094,0,0,1-.052.009c-.05,0-.064.014-.064.014Z" transform="translate(-677.551 -459.334)" fill="#cb2033"/>
        </g>
      </g>
      <g id="Grupo_57478" data-name="Grupo 57478" transform="translate(53.838 115.997)">
        <g id="Grupo_57465" data-name="Grupo 57465" opacity="0.2" style="mix-blend-mode: multiply;isolation: isolate">
          <path id="Trazado_105638" data-name="Trazado 105638" d="M692.991,466.367c-3.236.759-4.3,3.944-2.249,6.593a11.685,11.685,0,0,0,4.214,3.339c2.749,1.321,5.953,1.606,8.6,3.035,2.112,1.138,2.678,4.431,3.7,6.378,1.652,3.181,5.807,7.128,9.49,4.28,2.678-2.073,2.226-5.085-.724-6.629-2.4-1.261-4.932-2.333-5.775-5.124a3.839,3.839,0,0,1,.258-2.552c-.624-.526-1.257-1.049-1.9-1.558a75.79,75.79,0,0,0-11.872-7.765A8.765,8.765,0,0,0,692.991,466.367Z" transform="translate(-689.691 -466.163)" fill="url(#linear-gradient-2)"/>
        </g>
        <g id="Grupo_57469" data-name="Grupo 57469" transform="translate(8.697 5.186)">
          <g id="Grupo_57466" data-name="Grupo 57466" transform="translate(3.499 2.537)" opacity="0.5" style="mix-blend-mode: multiply;isolation: isolate">
            <path id="Trazado_105639" data-name="Trazado 105639" d="M695.3,469.716c-.548.407.146,1.2.7.8S695.844,469.314,695.3,469.716Z" transform="translate(-694.935 -469.461)" fill="#fc838a"/>
            <path id="Trazado_105640" data-name="Trazado 105640" d="M695.407,469.811l-.032.027a.244.244,0,0,0-.053.085.184.184,0,0,0-.023.142.355.355,0,0,0,.071.144c.036.043.05.089.085.137a.722.722,0,0,0,.112.192.267.267,0,0,0,.233.1.272.272,0,0,0,.212-.137c.009-.027.078-.089.059-.121a.223.223,0,0,0,.014-.08.354.354,0,0,0-.037-.155c-.037-.046-.066-.094-.1-.139s-.08-.071-.126-.116a.347.347,0,0,0-.29-.119.235.235,0,0,0-.123.048Zm-.027-.032a.833.833,0,0,0,.121-.089,1.744,1.744,0,0,1,.16-.094.538.538,0,0,1,.276-.053.509.509,0,0,1,.3.126.693.693,0,0,1,.219.306.645.645,0,0,1-.014.434.373.373,0,0,1-.13.178c-.062.066-.094.057-.16.1a1.16,1.16,0,0,1-.347.075,1.481,1.481,0,0,1-.345-.018.6.6,0,0,1-.313-.169.463.463,0,0,1-.123-.3.512.512,0,0,1,.094-.263,1.725,1.725,0,0,1,.142-.144c.08-.057.117-.089.117-.089Z" transform="translate(-695.028 -469.542)" fill="#cb2033"/>
          </g>
          <g id="Grupo_57467" data-name="Grupo 57467" opacity="0.5" style="mix-blend-mode: multiply;isolation: isolate">
            <path id="Trazado_105641" data-name="Trazado 105641" d="M693.8,468.626c-.647.473.183,1.41.827.937S694.444,468.153,693.8,468.626Z" transform="translate(-693.409 -468.35)" fill="#fc838a"/>
            <path id="Trazado_105642" data-name="Trazado 105642" d="M693.906,468.725l-.03.027a.284.284,0,0,0-.078.1.33.33,0,0,0-.034.165.563.563,0,0,0,.071.187c.037.05.057.117.1.181a.814.814,0,0,0,.151.213.317.317,0,0,0,.281.107.367.367,0,0,0,.27-.151c.007-.036.084-.107.075-.139a.352.352,0,0,0,.025-.107.478.478,0,0,0-.039-.208c-.041-.059-.085-.117-.13-.176a2.106,2.106,0,0,0-.16-.137.425.425,0,0,0-.356-.121.41.41,0,0,0-.149.062Zm-.025-.03s.053-.036.137-.107a1.111,1.111,0,0,1,.2-.1.609.609,0,0,1,.656.1.838.838,0,0,1,.247.352.716.716,0,0,1-.014.478.587.587,0,0,1-.144.215,1,1,0,0,1-.178.107,1.127,1.127,0,0,1-.407.1,1.308,1.308,0,0,1-.393-.036.635.635,0,0,1-.343-.192.522.522,0,0,1-.142-.343.533.533,0,0,1,.094-.3,1.325,1.325,0,0,1,.151-.169c.043-.032.085-.055.1-.073l.037-.025Z" transform="translate(-693.497 -468.432)" fill="#cb2033"/>
          </g>
          <g id="Grupo_57468" data-name="Grupo 57468" transform="translate(4.887 5.465)" opacity="0.5" style="mix-blend-mode: multiply;isolation: isolate">
            <path id="Trazado_105643" data-name="Trazado 105643" d="M695.819,470.957c-.311.226.089.683.4.455S696.137,470.723,695.819,470.957Z" transform="translate(-695.544 -470.736)" fill="#fc838a"/>
            <path id="Trazado_105644" data-name="Trazado 105644" d="M695.929,471.053a.128.128,0,0,0-.039.075.07.07,0,0,0,.007.089.178.178,0,0,0,.078.048.053.053,0,0,1,.043.041.247.247,0,0,0,.023.116.093.093,0,0,0,.1.066c.048.014.075-.062.1-.084-.036-.014.062-.151,0-.13a.028.028,0,0,1-.041,0c-.021-.014-.018-.03-.03-.043a.135.135,0,0,1-.027-.066.326.326,0,0,0-.057-.091.1.1,0,0,0-.082-.034.106.106,0,0,0-.075.018Zm-.032-.027a.251.251,0,0,0,.073-.057.389.389,0,0,1,.094-.082.322.322,0,0,1,.188-.062.326.326,0,0,1,.212.071.377.377,0,0,1,.149.215.4.4,0,0,1-.032.327.438.438,0,0,1-.043.075.052.052,0,0,1-.032.018.481.481,0,0,0-.126.062c-.043.009-.084.014-.114.018a.24.24,0,0,1-.112.014,1.7,1.7,0,0,1-.219,0,.332.332,0,0,1-.219-.089.275.275,0,0,1,.018-.4.166.166,0,0,1,.1-.064c.055-.025.062-.057.062-.057Z" transform="translate(-695.636 -470.823)" fill="#cb2033"/>
          </g>
        </g>
        <g id="Grupo_57473" data-name="Grupo 57473" transform="translate(13.994 6.57)" opacity="0.7">
          <g id="Grupo_57470" data-name="Grupo 57470" transform="translate(2.116 1.528)" opacity="0.5" style="mix-blend-mode: multiply;isolation: isolate">
            <path id="Trazado_105645" data-name="Trazado 105645" d="M696.9,469.81c-.329.247.094.724.421.482S697.232,469.57,696.9,469.81Z" transform="translate(-696.688 -469.658)" fill="#fc838a"/>
            <path id="Trazado_105646" data-name="Trazado 105646" d="M696.963,469.868l-.014.018a.144.144,0,0,0-.034.05.127.127,0,0,0-.014.085.292.292,0,0,0,.041.089.576.576,0,0,1,.053.085.425.425,0,0,0,.071.112.16.16,0,0,0,.135.057.165.165,0,0,0,.133-.08c0-.018.041-.059.041-.059a.311.311,0,0,1,0-.066.207.207,0,0,0-.023-.089c-.018-.027-.039-.053-.057-.085l-.08-.066a.183.183,0,0,0-.174-.075.164.164,0,0,0-.078.03Zm-.014-.018.078-.053a.355.355,0,0,1,.094-.057.318.318,0,0,1,.348.043.394.394,0,0,1,.13.187.36.36,0,0,1,0,.258.226.226,0,0,1-.075.107c-.046.041-.059.032-.1.064a1.05,1.05,0,0,1-.215.043.8.8,0,0,1-.206-.009.349.349,0,0,1-.183-.1.24.24,0,0,1-.075-.183.273.273,0,0,1,.052-.16.308.308,0,0,1,.089-.084l.066-.055Z" transform="translate(-696.741 -469.707)" fill="#cb2033"/>
          </g>
          <g id="Grupo_57471" data-name="Grupo 57471" opacity="0.5" style="mix-blend-mode: multiply;isolation: isolate">
            <path id="Trazado_105647" data-name="Trazado 105647" d="M696,469.153c-.393.29.107.852.5.567S696.389,468.868,696,469.153Z" transform="translate(-695.761 -468.991)" fill="#fc838a"/>
            <path id="Trazado_105648" data-name="Trazado 105648" d="M696.064,469.214l-.018.014a.2.2,0,0,0-.043.057.185.185,0,0,0-.023.1.31.31,0,0,0,.041.112c.025.032.034.066.062.107a1.205,1.205,0,0,0,.089.135.223.223,0,0,0,.169.062.258.258,0,0,0,.172-.094c0-.023.043-.066.043-.085l0-.041a.214.214,0,0,0-.018-.146.9.9,0,0,0-.075-.107.539.539,0,0,0-.1-.08.26.26,0,0,0-.215-.075.177.177,0,0,0-.089.039Zm-.018-.023.091-.062a.436.436,0,0,1,.114-.062.393.393,0,0,1,.188-.027.417.417,0,0,1,.206.089.5.5,0,0,1,.149.21.383.383,0,0,1-.094.418c-.041.041-.059.036-.107.068a.716.716,0,0,1-.242.057.846.846,0,0,1-.235-.023.411.411,0,0,1-.215-.114.379.379,0,0,1-.085-.21.344.344,0,0,1,.062-.183,1.131,1.131,0,0,1,.089-.1.239.239,0,0,0,.059-.046l.021-.018Z" transform="translate(-695.815 -469.038)" fill="#cb2033"/>
          </g>
          <g id="Grupo_57472" data-name="Grupo 57472" transform="translate(2.948 3.29)" opacity="0.5" style="mix-blend-mode: multiply;isolation: isolate">
            <path id="Trazado_105649" data-name="Trazado 105649" d="M697.216,470.559c-.187.144.055.411.242.272S697.408,470.419,697.216,470.559Z" transform="translate(-697.05 -470.423)" fill="#fc838a"/>
            <path id="Trazado_105650" data-name="Trazado 105650" d="M697.281,470.622a.074.074,0,0,0-.023.039s-.014.041,0,.059a.078.078,0,0,0,.032.018c.032.014.041.018.041.034a.216.216,0,0,0,.011.069.055.055,0,0,0,.064.039c.03.009.048-.034.062-.048-.027-.009.037-.094,0-.075h-.027l0-.018a.192.192,0,0,1-.03-.05.1.1,0,0,0-.028-.053.087.087,0,0,0-.052-.023.112.112,0,0,0-.046.009Zm-.014-.018a.277.277,0,0,0,.041-.039.207.207,0,0,1,.057-.046.169.169,0,0,1,.107-.041.21.21,0,0,1,.135.046.261.261,0,0,1,.089.13.265.265,0,0,1-.018.2.245.245,0,0,1-.032.043.1.1,0,0,1-.025.018.206.206,0,0,0-.068.032l-.071.011a.2.2,0,0,1-.062,0,1.221,1.221,0,0,1-.135,0,.254.254,0,0,1-.135-.053.177.177,0,0,1-.043-.13.172.172,0,0,1,.057-.112.165.165,0,0,1,.064-.039.047.047,0,0,0,.03-.032Z" transform="translate(-697.105 -470.478)" fill="#cb2033"/>
          </g>
        </g>
        <g id="Grupo_57477" data-name="Grupo 57477" transform="translate(20.104 16.069)" opacity="0.7">
          <g id="Grupo_57474" data-name="Grupo 57474" transform="translate(0.753 1.416)" opacity="0.5" style="mix-blend-mode: multiply;isolation: isolate">
            <path id="Trazado_105651" data-name="Trazado 105651" d="M699.44,474.352c.3-.281-.181-.7-.473-.423S699.146,474.633,699.44,474.352Z" transform="translate(-698.75 -473.786)" fill="#fc838a"/>
            <path id="Trazado_105652" data-name="Trazado 105652" d="M699.5,474.371l.014-.011a.206.206,0,0,0,.03-.055.121.121,0,0,0,0-.089.237.237,0,0,0-.053-.084.478.478,0,0,1-.059-.075.451.451,0,0,0-.085-.1.149.149,0,0,0-.142-.041.176.176,0,0,0-.121.094s-.036.064-.027.078v.052a.234.234,0,0,0,.032.089l.071.071a.957.957,0,0,1,.08.064.251.251,0,0,0,.187.052.215.215,0,0,0,.073-.041Zm.016.018-.066.064a.7.7,0,0,1-.089.071.273.273,0,0,1-.155.048.305.305,0,0,1-.2-.048.421.421,0,0,1-.153-.174.4.4,0,0,1-.025-.26.267.267,0,0,1,.066-.114c.036-.046.048-.041.089-.069a.64.64,0,0,1,.206-.075.609.609,0,0,1,.206-.014.379.379,0,0,1,.2.08.274.274,0,0,1,.1.171.3.3,0,0,1-.041.165.522.522,0,0,1-.071.1l-.064.057Z" transform="translate(-698.818 -473.814)" fill="#cb2033"/>
          </g>
          <g id="Grupo_57475" data-name="Grupo 57475" transform="translate(2.912 2.579)" opacity="0.5" style="mix-blend-mode: multiply;isolation: isolate">
            <path id="Trazado_105653" data-name="Trazado 105653" d="M700.489,474.955c.352-.334-.21-.834-.562-.5S700.14,475.282,700.489,474.955Z" transform="translate(-699.696 -474.297)" fill="#fc838a"/>
            <path id="Trazado_105654" data-name="Trazado 105654" d="M700.547,474.967l.014-.016a.138.138,0,0,0,.034-.064.153.153,0,0,0,.009-.1.231.231,0,0,0-.053-.1c-.027-.03-.046-.066-.075-.1a.455.455,0,0,0-.107-.114.178.178,0,0,0-.174-.046.216.216,0,0,0-.153.112c0,.018-.039.066-.034.089s0,.041,0,.062a.23.23,0,0,0,.039.121c.032.037.059.066.089.1a.63.63,0,0,0,.107.066.25.25,0,0,0,.224.05.211.211,0,0,0,.08-.05Zm.014.018-.075.075c-.027.014-.059.05-.107.078a.371.371,0,0,1-.178.048.418.418,0,0,1-.224-.062.512.512,0,0,1-.169-.192.4.4,0,0,1-.027-.29.325.325,0,0,1,.066-.139c.041-.043.059-.039.1-.075a.645.645,0,0,1,.238-.089.673.673,0,0,1,.235-.009.46.46,0,0,1,.224.089.373.373,0,0,1,.107.2.329.329,0,0,1-.032.187.652.652,0,0,1-.08.112.207.207,0,0,1-.046.041l-.025.03Z" transform="translate(-699.763 -474.323)" fill="#cb2033"/>
          </g>
          <g id="Grupo_57476" data-name="Grupo 57476" opacity="0.5" style="mix-blend-mode: multiply;isolation: isolate">
            <path id="Trazado_105655" data-name="Trazado 105655" d="M698.871,473.509c.169-.158-.1-.4-.276-.238S698.7,473.674,698.871,473.509Z" transform="translate(-698.42 -473.163)" fill="#fc838a"/>
            <path id="Trazado_105656" data-name="Trazado 105656" d="M698.931,473.541a.183.183,0,0,0,.018-.05l-.014-.053a.216.216,0,0,0-.052-.023l-.023-.023a.29.29,0,0,0-.027-.066.052.052,0,0,0-.066-.032c-.027,0-.041.046-.041.046s-.034.107,0,.089l.023,0,.014.014c.023.021.027.025.032.043a.078.078,0,0,0,.025.041c.036.03.055.03.055.03a.112.112,0,0,0,.057-.016Zm.018.011a.134.134,0,0,0-.041.041.126.126,0,0,1-.048.053.182.182,0,0,1-.1.055.2.2,0,0,1-.14-.032c-.043-.014-.075-.066-.1-.112a.233.233,0,0,1-.007-.2l.021-.053.027-.018c.023-.014.028,0,.062-.039a.437.437,0,0,1,.073-.018.216.216,0,0,1,.062-.018.981.981,0,0,1,.13-.018.221.221,0,0,1,.142.036.157.157,0,0,1,.057.121.159.159,0,0,1-.043.119.069.069,0,0,1-.041.036c-.039.027-.043.043-.043.043Z" transform="translate(-698.489 -473.195)" fill="#cb2033"/>
          </g>
        </g>
      </g>
    </g>
  </g>
</svg>
