<svg xmlns="http://www.w3.org/2000/svg" width="86" height="86" viewBox="0 0 86 86">
  <g id="Grupo_55676" data-name="Grupo 55676" transform="translate(-0.361 -0.362)">
    <g id="Elipse_4293" data-name="Elipse 4293" transform="translate(0.361 0.362)" fill="#fff" stroke="#69d1ff" stroke-width="3">
      <circle cx="43" cy="43" r="43" stroke="none"/>
      <circle cx="43" cy="43" r="41.5" fill="none"/>
    </g>
    <circle id="Elipse_4309" data-name="Elipse 4309" cx="6.5" cy="6.5" r="6.5" transform="translate(21.361 21.361)" fill="#69d1ff"/>
    <ellipse id="Elipse_4299" data-name="Elipse 4299" cx="7" cy="6.5" rx="7" ry="6.5" transform="translate(15.361 37.362)" fill="#69d1ff"/>
    <circle id="Elipse_4294" data-name="Elipse 4294" cx="6.5" cy="6.5" r="6.5" transform="translate(24.361 50.362)" fill="#69d1ff"/>
    <circle id="Elipse_4305" data-name="Elipse 4305" cx="6.5" cy="6.5" r="6.5" transform="translate(31.361 33.362)" fill="#69d1ff"/>
    <circle id="Elipse_4311" data-name="Elipse 4311" cx="6.5" cy="6.5" r="6.5" transform="translate(40.361 21.361)" fill="#69d1ff"/>
    <circle id="Elipse_4306" data-name="Elipse 4306" cx="6.5" cy="6.5" r="6.5" transform="translate(42.361 39.362)" fill="#69d1ff"/>
    <ellipse id="Elipse_4296" data-name="Elipse 4296" cx="7" cy="6.5" rx="7" ry="6.5" transform="translate(37.361 52.362)" fill="#69d1ff"/>
    <circle id="Elipse_4313" data-name="Elipse 4313" cx="6.5" cy="6.5" r="6.5" transform="translate(55.361 24.361)" fill="#69d1ff"/>
    <ellipse id="Elipse_4303" data-name="Elipse 4303" cx="7" cy="6.5" rx="7" ry="6.5" transform="translate(57.361 38.362)" fill="#69d1ff"/>
    <circle id="Elipse_4298" data-name="Elipse 4298" cx="6.5" cy="6.5" r="6.5" transform="translate(53.361 52.362)" fill="#69d1ff"/>
  </g>
</svg>
