<svg xmlns="http://www.w3.org/2000/svg" width="89" height="89" viewBox="0 0 89 89">
  <defs>
    <style>
      .cls-1 {
        fill: #fff;
        stroke: #00608b;
        stroke-width: 3px;
      }

      .cls-2 {
        fill: #69c5f3;
      }

      .cls-3, .cls-5 {
        fill: #9fdcf7;
      }

      .cls-4 {
        fill: #ecffff;
      }

      .cls-5, .cls-7 {
        opacity: 0.5;
      }

      .cls-5, .cls-6 {
        mix-blend-mode: multiply;
        isolation: isolate;
      }

      .cls-7 {
        fill: #54bef1;
      }

      .cls-8 {
        stroke: none;
      }

      .cls-9 {
        fill: none;
      }
    </style>
  </defs>
  <g id="Grupo_58931" data-name="Grupo 58931" transform="translate(-314 -7271)">
    <g id="Grupo_56286" data-name="Grupo 56286" transform="translate(52 2003.18)">
      <g id="Elipse_4272" data-name="Elipse 4272" class="cls-1" transform="translate(262 5267.82)">
        <circle class="cls-8" cx="44.5" cy="44.5" r="44.5"/>
        <circle class="cls-9" cx="44.5" cy="44.5" r="43"/>
      </g>
    </g>
    <g id="Grupo_56295" data-name="Grupo 56295" transform="translate(324.28 7212.811)">
      <path id="Trazado_103088" data-name="Trazado 103088" class="cls-2" d="M14.206,116.364c-.316,1.379-1.756,1.958-3.078,2.177-1.675.276-3.38.425-5.074.631a2.95,2.95,0,0,0-.11,3.764,8.833,8.833,0,0,0,2.87,2.215c2.454,1.326,4.918,2.65,7.395,3.936,2.347,1.22,4.727,2.391,7.164,3.442a20.88,20.88,0,0,0,7.79,2.116c5.024.119,9.62-2.02,14.009-4.12q6.906-3.306,13.726-6.76c1.567-.794,3.476-1.729,4.233-3.368a4.47,4.47,0,0,0,.384-2.188A24.4,24.4,0,0,0,58,117.085a26.791,26.791,0,0,0-3.616.067,1.86,1.86,0,0,0,.836-1.815c-.333-2.395-5.843-2.487-7.57-2.683-5.254-.6-10.549-.322-15.824-.481-5.51-.166-11.556-.59-16.495,2.218A2.976,2.976,0,0,0,14.206,116.364Z" transform="translate(0 -6.219)"/>
      <g id="Grupo_56294" data-name="Grupo 56294" transform="translate(6.246 75.949)">
        <path id="Trazado_103089" data-name="Trazado 103089" class="cls-3" d="M62.653,101.988c.012-1.538.017-3.074.034-4.611.041-3.859.382-7.812-.533-11.6a3.385,3.385,0,0,0-.636-1.55,7.248,7.248,0,0,0-1.793-1.47,21.348,21.348,0,0,0-5.093-1.722c-1.049-.283-1.994-.857-3.016-1.208q-1.661-.571-3.341-1.087Q43.44,77.249,38.484,76.2a11.787,11.787,0,0,0-4.606-.04c-6.844,1.27-13.288,4.213-19.675,6.878A55.442,55.442,0,0,0,8.895,85.58,4.251,4.251,0,0,0,7.25,87.031a5.108,5.108,0,0,0-.683,2.288c-.4,3.913.228,7.821.775,11.687.684,4.843.925,9.973,2.32,14.681a5.8,5.8,0,0,0,1.679,2.592,10.584,10.584,0,0,0,2.581,1.789,93.244,93.244,0,0,0,9.007,3.789,52.355,52.355,0,0,0,8.641,2.751,9.2,9.2,0,0,0,3.765.155c1.125-.262,15.08-6.354,20.749-9.493a33.211,33.211,0,0,0,4.753-2.963c1.363-1.093,1.447-2.607,1.559-4.215C62.582,107.392,62.631,104.689,62.653,101.988Z" transform="translate(-6.44 -75.949)"/>
        <path id="Trazado_103090" data-name="Trazado 103090" class="cls-4" d="M54.193,83.327c-1.234-.273-2.708.857-3.735,1.415-2.193,1.193-4.36,2.452-6.577,3.6a16.337,16.337,0,0,1-4.859,1.918,14.432,14.432,0,0,1-7.411-.783c-2.017-.821-3.35-2.492-2.473-4.69.853-2.139,2.68-3.584,4.636-4.843a37.043,37.043,0,0,1-5.115,2.222c-3.058.852-6.667.56-9.447,2.256a4.216,4.216,0,0,0-2.278,3.633,1.969,1.969,0,0,0,.262.878,1.941,1.941,0,0,0,1.428.855,18.936,18.936,0,0,0,2.078-.04c2.25-.052,3.752,1.108,5.637,2.138a19.075,19.075,0,0,0,7.488,2.569,13.887,13.887,0,0,0,7.719-1.933,62.618,62.618,0,0,1,6.392-3.11,24.1,24.1,0,0,0,4.525-1.935,4.966,4.966,0,0,0,1.9-1.876C54.617,85.083,55.1,83.528,54.193,83.327Z" transform="translate(-8.246 -76.637)"/>
        <g id="Grupo_56291" data-name="Grupo 56291" transform="translate(3.211)">
          <path id="Trazado_103091" data-name="Trazado 103091" class="cls-5" d="M60.829,83.029c-.142-.1-.285-.189-.435-.275A21.348,21.348,0,0,0,55.3,81.033c-1.049-.283-1.994-.857-3.016-1.208q-1.661-.571-3.341-1.087-4.836-1.489-9.792-2.541a11.787,11.787,0,0,0-4.606-.04c-6.844,1.27-13.288,4.213-19.675,6.878q-1.908.8-3.753,1.729c-.127.171-.247.344-.355.525-1.61,2.7,1.518,4.28,3.64,5.149a72.437,72.437,0,0,0,9.468,3.109c2.524.644,5.053,1.327,7.59,1.909a13.461,13.461,0,0,0,7.8-.127c2.313-.849,4.4-2.165,6.655-3.14,2.357-1.021,4.824-1.8,7.214-2.746,1.366-.539,2.741-1.074,4.074-1.69a7.071,7.071,0,0,0,2.46-1.656A4.092,4.092,0,0,0,60.829,83.029ZM56,84.592c-.71,2.133-3.563,2.914-5.451,3.478-2.323.7-4.822,1.293-6.817,2.734-2.687,1.941-5.356,4.13-8.8,4.4-2.923.231-5.013-1.77-7.324-3.136-2.273-1.343-4.87-1.33-7.411-1.512-2.185-.157-4.234-.724-4.99-3.025a3.18,3.18,0,0,1,1.157-3.822,12.762,12.762,0,0,1,5.212-1.895,36.2,36.2,0,0,0,6.646-1.874c2.9-1.117,6.646-3.179,9.749-1.593,1.558.8.055,2.059-.829,2.52a34.838,34.838,0,0,0-4.519,2.363c-1.9,1.367-2.954,5.158.228,5.667a10.135,10.135,0,0,0,7.9-2.4c2.8-2.871,5.836-6.033,10.229-5.58C52.626,81.089,56.869,81.987,56,84.592Z" transform="translate(-10.319 -75.949)"/>
        </g>
        <path id="Trazado_103092" data-name="Trazado 103092" class="cls-5" d="M43.5,105.567c-.007.139-.016.278-.025.416a47.7,47.7,0,0,0,.147,8.622c.253,2.238.13,8.833,3.053,9.528,1.871.446,4.011-1.316,5.4-2.352a35.11,35.11,0,0,1,7.361-4.1c2.382-1.016,5.572-1.63,7.464-3.49,2.107-2.072,1.742-5.6,1.425-8.26-.417-3.5-.676-7.026-1-10.54-.225-2.408-1.15-3.356-3.6-2.664-3.054.862-6.1,2.088-9.057,3.232-3.106,1.2-7.051,2.346-9.582,4.6C43.61,101.858,43.6,103.751,43.5,105.567Z" transform="translate(-12.797 -78.801)"/>
        <path id="Trazado_103093" data-name="Trazado 103093" class="cls-5" d="M45.714,120.782c.763,1.4,2.016,2.218,3.847,1.127,2.174-1.3,2.756-3.929,2.923-6.347.176-2.527-.053-5.085.246-7.6.207-1.75.747-3.745,2.522-4.4,2.055-.757,3.731.25,4.966,1.948.68.937,1.242,1.956,1.894,2.914a4.832,4.832,0,0,0,2.3,2.137c3.594,1.031,3-3.242,2.734-5.572-.173-1.509-.28-3.025-.386-4.541-.086-1.235.011-2.789-.7-3.854-1.2-1.787-2.934-2.048-4.765-1.866-2.611.891-5.14,2.016-7.738,2.944-2.337.836-4.814,1.621-6.751,3.284-4.534,3.892-2.358,11.29-2.008,16.431A8.664,8.664,0,0,0,45.714,120.782Z" transform="translate(-12.905 -79.176)"/>
        <g id="Grupo_56292" data-name="Grupo 56292" class="cls-6" transform="translate(2.996 1.956)">
          <path id="Trazado_103094" data-name="Trazado 103094" class="cls-7" d="M42.094,127.543c-.033-.352-.067-.68-.085-.957-.33-4.948-.421-9.91-.539-14.866-.036-1.584-.258-3.154-.391-4.733a21.563,21.563,0,0,0-.421-4.458c-.022-.075-.14-.039-.13.036a23.677,23.677,0,0,1,.118,3.3c-.026,2.78.319,5.561.473,8.335q.237,4.3.376,8.6.082,2.436.137,4.872a13.454,13.454,0,0,0,.308,2.781A5.812,5.812,0,0,0,42.094,127.543Z" transform="translate(-15.308 -82.477)"/>
          <path id="Trazado_103095" data-name="Trazado 103095" class="cls-7" d="M68.366,117.151c-.041-.109-.495-.3-.718-.383a21.1,21.1,0,0,0-4.512-1.064c-2.112-.252-4.2-.666-6.311-.93-1.312-.162-2.631-.026-3.94-.158a.023.023,0,0,0-.007.046c2.549.488,5.152.664,7.7,1.16,1.156.225,2.327.374,3.491.55,1.317.2,2.579.762,3.911.85C68.293,117.244,68.387,117.211,68.366,117.151Z" transform="translate(-17.433 -84.566)"/>
          <path id="Trazado_103096" data-name="Trazado 103096" class="cls-7" d="M31.951,117.8a55.592,55.592,0,0,0-5.754,1.72c-2.04.66-4.038,1.315-6.017,2.141-.045.019-.016.081.029.067,1.942-.6,3.876-1.235,5.827-1.814,2-.594,4.013-1.205,5.96-1.951A.086.086,0,0,0,31.951,117.8Z" transform="translate(-11.799 -85.114)"/>
          <path id="Trazado_103097" data-name="Trazado 103097" class="cls-7" d="M44.094,79.4a8.415,8.415,0,0,0-1.952-.982,6.832,6.832,0,0,0-2.371,0,7.187,7.187,0,0,0-2.208.7,11.181,11.181,0,0,0-1.809,1.407c-.033.026,0,.086.039.065.434-.239.8-.539,1.223-.8a7.406,7.406,0,0,1,5.067-.933c.694.121,1.277.552,1.977.675C44.137,79.536,44.153,79.434,44.094,79.4Z" transform="translate(-14.484 -78.312)"/>
          <path id="Trazado_103098" data-name="Trazado 103098" class="cls-7" d="M69.788,119.048a22.783,22.783,0,0,1-5.646,3.493c-1.033.485-2.076.948-3.115,1.418a28.194,28.194,0,0,0-2.861,1.559c-.059.036,0,.13.06.1,2.115-.956,4.252-1.877,6.348-2.876a16.056,16.056,0,0,0,5.283-3.626C69.895,119.074,69.83,119.01,69.788,119.048Z" transform="translate(-18.343 -85.328)"/>
          <path id="Trazado_103099" data-name="Trazado 103099" class="cls-7" d="M13.143,119.921c-1.384-2.38-1.593-5.162-1.957-7.846-.195-1.436-.4-2.866-.54-4.308a35.833,35.833,0,0,0-.493-4.269.047.047,0,0,0-.094.013c.208,1.427.276,2.849.346,4.287.075,1.547.314,3.094.5,4.63.175,1.444.336,2.859.628,4.284a6.4,6.4,0,0,0,1.362,3.353C13,120.171,13.233,120.074,13.143,119.921Z" transform="translate(-10.059 -82.644)"/>
          <path id="Trazado_103100" data-name="Trazado 103100" class="cls-7" d="M16.7,126.193c-.462-.521-1.144-.589-1.7-.946a.057.057,0,0,0-.07.091,9.1,9.1,0,0,0,1.679.977A.08.08,0,0,0,16.7,126.193Z" transform="translate(-10.894 -86.396)"/>
          <path id="Trazado_103101" data-name="Trazado 103101" class="cls-7" d="M60.506,85.885l0-.022c-1.029,2.768-3.329,3.166-5.849,4.094-3.141,1.158-6.26,2.384-9.314,3.757-2.75,1.235-5.408,2.8-8.329,3.606a12.115,12.115,0,0,1-6.835-.412C25.508,95.52,20.841,94.03,16.211,92.5a25.751,25.751,0,0,1-5.527-2.318c2.314,2.25,5.565,2.9,8.57,3.768,4.048,1.174,8.074,2.713,12.1,3.953,6.639,2.044,11.979-2.751,17.542-5.15a57,57,0,0,1,5.486-2.059C57.317,89.771,59.7,89.084,60.506,85.885Z" transform="translate(-10.167 -79.613)"/>
        </g>
        <path id="Trazado_103102" data-name="Trazado 103102" class="cls-5" d="M10.612,105.181c.026,1.168.072,2.336.148,3.5a35.268,35.268,0,0,0,.833,6.572c.478,1.838,1.688,4.328,4.064,3.524,1.937-.656,2.374-2.725,2.563-4.53a7.138,7.138,0,0,1,1.132-3.856,6.621,6.621,0,0,1,4.327-2.369c1.631-.231,3.273-.082,4.906-.245a6.6,6.6,0,0,0,3.657-1.2c1.452-1.277.814-3.184-.729-4.024a17.31,17.31,0,0,0-4.622-1.415c-4.134-.909-7.834-2.977-11.389-5.2a5.884,5.884,0,0,0-2.658-1.19c-1.271-.037-1.99,1.173-2.219,2.3-.484,2.376.576,4.734.174,7.129C10.741,104.509,10.678,104.845,10.612,105.181Z" transform="translate(-7.138 -79.187)"/>
        <g id="Grupo_56293" data-name="Grupo 56293" transform="translate(0.706 7.931)">
          <path id="Trazado_103103" data-name="Trazado 103103" class="cls-4" d="M70.017,91.1a29.877,29.877,0,0,0-.444-3.505c-.156-.845-.386-1.724-1.154-2.066-.509,1.905-2.8,3.505-4.355,4.371-3.441,1.91-7.493,2.387-10.828,4.513a37.246,37.246,0,0,0,5.634-2.077c1.111-.412,2.217-.834,3.331-1.242.867-.316,1.689-.75,2.563-1.054,1.362-.474,3.035-.715,4.132.458a5.666,5.666,0,0,1,1.2,2.209C70.076,92.174,70.052,91.638,70.017,91.1Z" transform="translate(-15.207 -85.531)"/>
          <path id="Trazado_103104" data-name="Trazado 103104" class="cls-4" d="M41.023,101.88a4.543,4.543,0,0,0-.135,1.554c.052.963.173,1.934.291,2.906a11.39,11.39,0,0,1,3.585-5.944,9.627,9.627,0,0,1-1.713.432C42.316,100.939,41.275,101.031,41.023,101.88Z" transform="translate(-13.078 -88.092)"/>
          <path id="Trazado_103105" data-name="Trazado 103105" class="cls-4" d="M42.76,127.2a.958.958,0,0,0-.169.358,17.506,17.506,0,0,0,.286,2.793,6.891,6.891,0,0,0,.341,2.03c.4.44,2.349-.459,3.161-.742,1.815-.632,3.573-1.488,5.332-2.261a104.969,104.969,0,0,0,10.065-5.146c2.549-1.466,5.879-2.976,6.771-5.985.014-.142.026-.284.037-.428-.158.249-.324.495-.5.73-2.164,2.855-5.3,4.673-8.5,6.154-3.317,1.536-6.965,2.706-10.01,4.764-1.213.821-3.215,2.517-4.794,1.588-1.379-.811-1.272-2.559-1.992-3.808A.485.485,0,0,0,42.76,127.2Z" transform="translate(-13.372 -91.093)"/>
          <path id="Trazado_103106" data-name="Trazado 103106" class="cls-4" d="M29.927,99.225c-4.911-1.164-9.372-3.592-14.2-4.981,1.064,1.589,3.136,2.194,4.75,3.045a41.034,41.034,0,0,0,6.163,2.957,28.226,28.226,0,0,0,4.091,1.1,6.312,6.312,0,0,0,2.14.119c.331-.06,1.256-.392.775-.864C32.756,99.733,31.085,99.5,29.927,99.225Z" transform="translate(-8.744 -87.032)"/>
          <path id="Trazado_103107" data-name="Trazado 103107" class="cls-4" d="M7.367,96.942a91.541,91.541,0,0,0,.832,9.681,71.845,71.845,0,0,0,1.529,10.068,5.427,5.427,0,0,0,2.34,3.618c.258.158.522.3.791.437a1.7,1.7,0,0,0,.366-.049c-.417-1.694-1.727-3.154-2.4-4.752a7.93,7.93,0,0,1-.4-1.257A16.987,16.987,0,0,1,9,109.023c-.164-1.968-.348-3.918-.589-5.878a19.791,19.791,0,0,1-.123-5.566,5.574,5.574,0,0,1,2.121-3.815,5.8,5.8,0,0,0,.9-.661c.456-.482.072-1.03-.4-1.276s-1.015-.376-1.513-.594A2.334,2.334,0,0,1,8.057,89.87C7.03,91.967,7.316,94.71,7.367,96.942Z" transform="translate(-7.292 -86.278)"/>
          <path id="Trazado_103108" data-name="Trazado 103108" class="cls-4" d="M35.818,114.291c.014-1.495.291-3.077.156-4.564a1.819,1.819,0,0,0-.071-.373.975.975,0,0,0-.222.153c-.973.827-.992,2.246-1.66,3.271-.781,1.2-2.205,1.614-3.141,2.637-.963,1.051-.738,2.305-.5,3.587.266,1.4.323,2.709-.877,3.688s-3.068.906-4.509.716c-1.706-.225-3.377-.657-5.059-1.012-.19-.04-.377-.093-.563-.15a4.813,4.813,0,0,1-2.423-.3.419.419,0,0,0,.054.161c1,1.838,3.13,2.238,4.9,2.993,1.491.636,2.885,1.481,4.328,2.216a18.426,18.426,0,0,0,5.258,1.995c1.7.279,4.108.056,4.965-1.727.874-1.819.094-3.966-.215-5.829A43.226,43.226,0,0,1,35.818,114.291Z" transform="translate(-8.956 -89.635)"/>
        </g>
      </g>
      <path id="Trazado_103109" data-name="Trazado 103109" class="cls-4" d="M78.791,122.391a4.9,4.9,0,0,0-3.423-1.656c-.105-.014-.187.142-.084.2a18.476,18.476,0,0,1,2.176,1.385c1.635,1.321.189,2.914-1.064,3.683-2.231,1.367-4.725,1.822-7.174,2.635-.228.075-.185.481.065.483,3.031.023,7.1-1.221,9.187-3.507A2.843,2.843,0,0,0,78.791,122.391Z" transform="translate(-10.983 -7.715)"/>
      <path id="Trazado_103110" data-name="Trazado 103110" class="cls-4" d="M66.8,130.713a9.876,9.876,0,0,0-3.121.483c-.169.051-.1.276.041.309a5.1,5.1,0,0,0,1.443.026,6.3,6.3,0,0,0,1.716-.223A.312.312,0,0,0,66.8,130.713Z" transform="translate(-10.037 -9.434)"/>
    </g>
  </g>
</svg>
