<svg xmlns="http://www.w3.org/2000/svg" width="86" height="86" viewBox="0 0 86 86">
  <g id="Grupo_58935" data-name="Grupo 58935" transform="translate(-648 -7272)">
    <g id="Grupo_58932" data-name="Grupo 58932" transform="translate(647.639 7271.639)">
      <g id="Grupo_58934" data-name="Grupo 58934">
        <g id="Elipse_4293" data-name="Elipse 4293" transform="translate(0.361 0.362)" fill="#fff" stroke="#00608b" stroke-width="3">
          <circle cx="43" cy="43" r="43" stroke="none"/>
          <circle cx="43" cy="43" r="41.5" fill="none"/>
        </g>
      </g>
    </g>
    <g id="Grupo_56296" data-name="Grupo 56296" transform="translate(559.803 7205.284)">
      <path id="Trazado_103111" data-name="Trazado 103111" d="M163.061,115.387a27.254,27.254,0,0,0-8.5-2.192,26.211,26.211,0,0,0-3.34.059,1.572,1.572,0,0,0,.773-1.567c-.308-2.066-5.4-2.146-6.992-2.315-4.854-.514-9.744-.277-14.617-.415-5.09-.144-10.673-.51-15.237,1.915a2.538,2.538,0,0,0-1.039,1.7c-.292,1.191-1.622,1.69-2.843,1.879-2.818.434-5.724.5-8.5,1.17-2.121.514-5.142,1.548-5.973,3.572a3.429,3.429,0,0,0,1.727,4.073,19.647,19.647,0,0,0,12.9,1.446,4.889,4.889,0,0,1,2.02-.011c1.086.491-2.421,1.23-2.187,2.52.264,1.454,1.922,2.421,2.99,2.939a6.7,6.7,0,0,0,1.573.571c8.459,1.661,17.089.679,24.963.092a25.414,25.414,0,0,0,4.655-.883c1.83-.492,5.021-1.213,5.869-2.971.445-.921-.245-1.537-.911-2.15-1.146-1.054.17-1.329,1.207-1.358a30.91,30.91,0,0,0,10.8-1.929,9.247,9.247,0,0,0,2.607-1.461C166.932,118.428,164.9,116.167,163.061,115.387Z" transform="translate(0 -0.371)" fill="#94d5f6"/>
      <path id="Trazado_103112" data-name="Trazado 103112" d="M163.061,115.4a27.232,27.232,0,0,0-8.5-2.193,26.208,26.208,0,0,0-3.34.059A1.571,1.571,0,0,0,152,111.7c-.308-2.067-5.4-2.147-6.992-2.315-4.854-.513-9.744-.277-14.617-.414-5.09-.144-10.673-.51-15.237,1.915a2.533,2.533,0,0,0-1.039,1.7c-.292,1.191-1.622,1.69-2.843,1.879-2.818.434-5.724.5-8.5,1.171-2.121.514-5.142,1.548-5.973,3.571a3.431,3.431,0,0,0,1.727,4.075,19.652,19.652,0,0,0,12.9,1.444,4.9,4.9,0,0,1,2.02-.011c1.086.491-2.421,1.23-2.187,2.521.264,1.453,1.922,2.419,2.99,2.938a6.663,6.663,0,0,0,1.573.571c8.459,1.662,17.089.68,24.963.093a25.479,25.479,0,0,0,4.655-.882c1.83-.493,5.021-1.213,5.869-2.971.445-.922-.246-1.539-.913-2.153-1.329-1.221.069-1.344,1.329-1.337a27.815,27.815,0,0,0,10.682-1.948,9.249,9.249,0,0,0,2.607-1.462C166.932,118.443,164.9,116.181,163.061,115.4Z" transform="translate(0 -0.379)" fill="#9fdcf7" opacity="0.7" style="mix-blend-mode: multiply;isolation: isolate"/>
      <path id="Trazado_103113" data-name="Trazado 103113" d="M163.626,114.706a24.985,24.985,0,0,0-8.106-2.191,23.855,23.855,0,0,0-3.186.057,1.6,1.6,0,0,0,.737-1.565c-.294-2.067-5.149-2.147-6.671-2.316-4.63-.514-9.3-.278-13.945-.414-4.856-.144-10.183-.51-14.536,1.915a2.557,2.557,0,0,0-.992,1.7c-.278,1.19-1.547,1.69-2.712,1.878-2.688.434-5.462.5-8.111,1.17-2.023.514-4.906,1.549-5.7,3.572a3.5,3.5,0,0,0,1.647,4.075,17.979,17.979,0,0,0,12.31,1.445,4.492,4.492,0,0,1,1.927-.012c1.037.492-2.309,1.23-2.085,2.522.251,1.452,1.833,2.42,2.851,2.938a6.228,6.228,0,0,0,1.5.571c8.07,1.661,16.3.679,23.816.092a23.237,23.237,0,0,0,4.441-.883c1.746-.492,4.791-1.213,5.6-2.971.425-.922-.235-1.539-.872-2.152-.4-.382-1.346-1.252-.157-1.282a17.129,17.129,0,0,0,2.548.145c.961-.158,1.924-.262,2.883-.444a31.369,31.369,0,0,0,6.187-1.7,8.72,8.72,0,0,0,2.487-1.462C167.319,117.747,165.384,115.485,163.626,114.706Z" transform="translate(-1.972 0)" fill="#94d5f6"/>
      <path id="Trazado_103114" data-name="Trazado 103114" d="M243.037,130.672c-.341-.347-2.944-.465-4.013-.155C236.074,131.373,243.967,131.618,243.037,130.672Z" transform="translate(-87.013 -3.748)" fill="#94d5f6"/>
      <path id="Trazado_103115" data-name="Trazado 103115" d="M241.354,131.134c-.557-.019-2.217-.134-2.106-.421.051-.133.262-.22.548-.273a4.384,4.384,0,0,0-.772.133c-2.7.782,3.659,1.053,4.066.373A4.823,4.823,0,0,1,241.354,131.134Z" transform="translate(-87.012 -3.797)" fill="#69c5f3"/>
      <path id="Trazado_103116" data-name="Trazado 103116" d="M240.271,131.7a4.16,4.16,0,0,1-1.733-.377.248.248,0,0,1-.076-.067c-.649.491,2.739.677,4.109.377A12.091,12.091,0,0,1,240.271,131.7Z" transform="translate(-87.023 -2.55)" fill="#9fdcf7" opacity="0.5" style="mix-blend-mode: multiply;isolation: isolate"/>
      <path id="Trazado_103117" data-name="Trazado 103117" d="M115.231,125.16a54.462,54.462,0,0,1-9.566-.354c-2.2-.359-3.081-.983-1.69-1.717a16.38,16.38,0,0,1,3.511-.8c.333-.07.061-.228-.276-.219-3.365.091-6.746,1.449-4.353,2.508,2.673,1.181,8.759,1.056,12.434.656C115.417,125.218,115.352,125.157,115.231,125.16Z" transform="translate(-2.964 -0.994)" fill="#ecffff"/>
      <path id="Trazado_103118" data-name="Trazado 103118" d="M181.3,130.749c-.092-.143-.762-.161-.81,0-.3,1-5.743,1.3-8.034,1.429-3.657.2-7.439.187-11.131.179-3.168-.007-6.348.041-9.519.047l-5.172.01c-1.925,0-5.332.05-5.772-.775-.032-.059-.326-.066-.334,0-.132,1.123,4.325,1.114,6.723,1.118,4.872.01,9.75-.04,14.616-.025,4.379.014,8.869.005,13.141-.35C177.242,132.2,181.958,131.774,181.3,130.749Z" transform="translate(-29.062 -2.212)" fill="#ecffff"/>
      <path id="Trazado_103119" data-name="Trazado 103119" d="M252.789,122.033a11.325,11.325,0,0,0-3.612-.58c-.11,0-.2.05-.089.071.754.148,1.617.3,2.3.484,1.725.463.2,1.022-1.123,1.29-2.353.479-4.984.639-7.567.923-.241.026-.2.169.068.169a34.323,34.323,0,0,0,9.691-1.228C253.183,122.9,253.479,122.333,252.789,122.033Z" transform="translate(-89.287 -1.265)" fill="#ecffff"/>
      <path id="Trazado_103120" data-name="Trazado 103120" d="M235.406,127.8a30.427,30.427,0,0,0-3.292.169c-.178.018-.1.1.043.108.515.04,1,.018,1.523.009.613-.01,1.222-.013,1.81-.078C235.789,127.979,235.727,127.807,235.406,127.8Z" transform="translate(-81.774 -3.687)" fill="#ecffff"/>
      <path id="Trazado_103121" data-name="Trazado 103121" d="M247.352,130.853c-.136-.032-.332.027-.212.071a1.292,1.292,0,0,1,.2.077.642.642,0,0,0,.138.083.346.346,0,0,0,.25-.011C247.836,130.97,247.573,130.906,247.352,130.853Z" transform="translate(-91.773 -4.286)" fill="#ecffff"/>
      <path id="Trazado_103122" data-name="Trazado 103122" d="M243.493,130.545a5.361,5.361,0,0,0-1.993-.011c-.084.017-.018.062.072.057.318-.016.644-.017.963-.005.286.011.552.048.835.057C243.539,130.649,243.618,130.581,243.493,130.545Z" transform="translate(-88.702 -4.248)" fill="#ecffff"/>
    </g>
  </g>
</svg>
