<svg xmlns="http://www.w3.org/2000/svg" width="357.446" height="250.304" viewBox="0 0 357.446 250.304">
  <g id="Grupo_56369" data-name="Grupo 56369" transform="translate(-819.887 -7521.117)">
    <g id="Grupo_56368" data-name="Grupo 56368" transform="translate(819.887 7651.966)">
      <g id="Grupo_56296" data-name="Grupo 56296" transform="translate(0 0)">
        <path id="Trazado_103111" data-name="Trazado 103111" d="M439.968,142.632c-13.654-5.765-28.8-10.245-43.9-11.324a135.432,135.432,0,0,0-17.258.3c2.7-1.91,4.527-4.493,3.992-8.1-1.591-10.677-27.885-11.089-36.128-11.962-25.079-2.654-50.347-1.432-75.527-2.145-26.3-.743-55.149-2.633-78.727,9.892-3.237,1.721-4.628,5.769-5.368,8.792-1.506,6.151-8.381,8.733-14.689,9.708-14.559,2.242-29.577,2.57-43.928,6.046-10.961,2.658-26.571,8-30.863,18.458-3.015,7.331,1.356,17.29,8.923,21.044,19.979,9.926,44.637,12.613,66.668,7.47,2.125-.5,8.336-1.012,10.435-.059,5.613,2.536-12.508,6.353-11.3,13.02,1.366,7.512,9.931,12.508,15.447,15.187a34.617,34.617,0,0,0,8.127,2.952c43.708,8.582,88.295,3.51,128.984.475a131.309,131.309,0,0,0,24.053-4.56c9.457-2.544,25.942-6.269,30.325-15.35,2.3-4.757-1.267-7.944-4.709-11.11-5.922-5.446.878-6.865,6.236-7.016,19.793-.571,37.89-2.859,55.818-9.968a47.778,47.778,0,0,0,13.471-7.549C459.967,158.344,449.49,146.659,439.968,142.632Z" transform="translate(-96.607 -107.246)" fill="#94d5f6"/>
        <path id="Trazado_103112" data-name="Trazado 103112" d="M439.968,142.648c-13.654-5.769-28.8-10.249-43.9-11.328a135.418,135.418,0,0,0-17.258.3c2.7-1.906,4.527-4.493,3.992-8.1-1.591-10.678-27.885-11.093-36.128-11.962-25.079-2.65-50.347-1.432-75.527-2.141-26.3-.743-55.149-2.633-78.727,9.892-3.237,1.713-4.628,5.765-5.368,8.788-1.506,6.151-8.381,8.734-14.689,9.708-14.559,2.242-29.577,2.574-43.928,6.05-10.961,2.658-26.571,8-30.863,18.45-3.015,7.335,1.356,17.295,8.923,21.053,19.979,9.918,44.637,12.609,66.668,7.461,2.125-.5,8.336-1.008,10.435-.055,5.613,2.536-12.508,6.353-11.3,13.025,1.366,7.507,9.931,12.5,15.447,15.179a34.426,34.426,0,0,0,8.127,2.952c43.708,8.587,88.295,3.514,128.984.479a131.654,131.654,0,0,0,24.053-4.556c9.457-2.549,25.942-6.269,30.325-15.351,2.3-4.762-1.269-7.953-4.717-11.123-6.868-6.311.359-6.945,6.868-6.907A143.719,143.719,0,0,0,436.578,174.4a47.789,47.789,0,0,0,13.471-7.554C459.967,158.356,449.49,146.67,439.968,142.648Z" transform="translate(-96.607 -107.226)" fill="#9fdcf7" opacity="0.7" style="mix-blend-mode: multiply;isolation: isolate"/>
        <path id="Trazado_103113" data-name="Trazado 103113" d="M427.8,141.948c-13.024-5.769-27.482-10.249-41.884-11.32a123.256,123.256,0,0,0-16.463.294c2.577-1.906,4.316-4.489,3.808-8.087-1.52-10.678-26.6-11.093-34.469-11.967-23.924-2.654-48.03-1.436-72.051-2.141-25.091-.743-52.614-2.637-75.108,9.892-3.089,1.717-4.416,5.765-5.123,8.792-1.438,6.147-8,8.734-14.011,9.7-13.89,2.242-28.219,2.57-41.911,6.046-10.455,2.658-25.347,8-29.442,18.454-2.878,7.335,1.295,17.295,8.509,21.053a92.9,92.9,0,0,0,63.606,7.465c2.028-.5,7.95-1.008,9.955-.063,5.357,2.54-11.932,6.357-10.775,13.029,1.3,7.5,9.472,12.5,14.732,15.183a32.184,32.184,0,0,0,7.753,2.952c41.7,8.582,84.236,3.51,123.053.475a120.069,120.069,0,0,0,22.945-4.56c9.023-2.54,24.753-6.269,28.934-15.351,2.194-4.766-1.215-7.953-4.507-11.118-2.044-1.973-6.954-6.47-.813-6.626,4.582-.126,8.478,1.528,13.165.752,4.967-.819,9.943-1.352,14.894-2.293,10.9-2.087,21.752-4.556,31.968-8.8a45.054,45.054,0,0,0,12.852-7.554C446.881,157.664,436.886,145.975,427.8,141.948Z" transform="translate(-91.708 -108.168)" fill="#94d5f6"/>
        <path id="Trazado_103114" data-name="Trazado 103114" d="M262.528,132.065c-1.76-1.791-15.214-2.4-20.737-.8C226.547,135.685,267.33,136.95,262.528,132.065Z" transform="translate(44.477 -35.151)" fill="#94d5f6"/>
        <path id="Trazado_103115" data-name="Trazado 103115" d="M253.831,134.024c-2.88-.1-11.456-.692-10.884-2.174.261-.685,1.355-1.137,2.833-1.41a22.646,22.646,0,0,0-3.989.685c-13.931,4.04,18.9,5.441,21.007,1.927C261.272,133.918,256.615,134.116,253.831,134.024Z" transform="translate(44.475 -34.982)" fill="#69c5f3"/>
        <path id="Trazado_103116" data-name="Trazado 103116" d="M248.152,133.55c-3.746-.245-7.1-.788-8.956-1.946a1.282,1.282,0,0,1-.393-.348c-3.356,2.539,14.152,3.5,21.229,1.946A62.473,62.473,0,0,1,248.152,133.55Z" transform="translate(44.502 -25.138)" fill="#9fdcf7" opacity="0.5" style="mix-blend-mode: multiply;isolation: isolate"/>
        <path id="Trazado_103117" data-name="Trazado 103117" d="M170.151,138.045c-16.444.388-34.272.64-49.427-1.829-11.371-1.854-15.92-5.078-8.73-8.872,4.313-2.278,11.757-2.791,18.141-4.146,1.72-.36.313-1.177-1.428-1.13-17.388.468-34.858,7.486-22.492,12.957,13.809,6.1,45.257,5.457,64.243,3.391C171.114,138.346,170.775,138.031,170.151,138.045Z" transform="translate(-89.241 -55.387)" fill="#ecffff"/>
        <path id="Trazado_103118" data-name="Trazado 103118" d="M351.207,131.226c-.475-.739-3.937-.833-4.186,0-1.548,5.184-29.674,6.721-41.513,7.384-18.894,1.057-38.435.967-57.511.925-16.369-.038-32.8.209-49.185.245q-13.364.028-26.721.054c-9.947.021-27.552.259-29.825-4.005-.165-.306-1.685-.339-1.727,0-.682,5.8,22.349,5.754,34.736,5.777,25.173.054,50.376-.207,75.518-.127,22.624.071,45.827.026,67.9-1.81C330.242,138.7,354.609,136.52,351.207,131.226Z" transform="translate(-63.772 -25.978)" fill="#ecffff"/>
        <path id="Trazado_103119" data-name="Trazado 103119" d="M295.509,124.452c-4.462-1.937-11.616-2.7-18.661-3-.569-.024-1.019.256-.459.367,3.9.765,8.354,1.563,11.863,2.5,8.912,2.393,1.026,5.278-5.8,6.667-12.157,2.476-25.754,3.3-39.1,4.77-1.245.136-1.01.871.351.873,16.524.042,38.692-2.21,50.072-6.344C297.55,128.916,299.079,126,295.509,124.452Z" transform="translate(50.128 -59.347)" fill="#ecffff"/>
        <path id="Trazado_103120" data-name="Trazado 103120" d="M249.556,127.809a157.231,157.231,0,0,0-17.012.873c-.92.092-.527.5.224.56,2.659.2,5.168.092,7.867.045,3.17-.049,6.316-.068,9.352-.4C251.538,128.715,251.22,127.827,249.556,127.809Z" transform="translate(45.083 -45.405)" fill="#ecffff"/>
        <path id="Trazado_103121" data-name="Trazado 103121" d="M248.392,130.891c-.7-.167-1.718.141-1.1.367a6.676,6.676,0,0,1,1.019.4,3.314,3.314,0,0,0,.715.431,1.788,1.788,0,0,0,1.294-.059C250.9,131.5,249.535,131.164,248.392,130.891Z" transform="translate(56.306 -35.823)" fill="#ecffff"/>
        <path id="Trazado_103122" data-name="Trazado 103122" d="M251.961,130.957c-2.541-.727-7.613-.617-10.3-.056-.433.089-.094.32.369.294,1.643-.085,3.328-.089,4.975-.028,1.476.057,2.854.249,4.313.3C252.2,131.493,252.606,131.143,251.961,130.957Z" transform="translate(48.673 -37.287)" fill="#ecffff"/>
      </g>
    </g>
    <g id="Grupo_56305" data-name="Grupo 56305" transform="translate(906.727 7521.117)">
      <path id="Trazado_103160" data-name="Trazado 103160" d="M-218.132,502.792c0,26.255-.031,52.51.054,78.765.008,2.236-.623,2.694-2.759,2.693q-78.378-.1-156.754.016c-2.43,0-2.8-.728-2.8-2.923q.1-64.587-.008-129.175c0-2.249.774-3.312,2.776-4a12.6,12.6,0,0,1,5.628-1c11.916,1.454,21.636-3.472,30.678-10.428a54.678,54.678,0,0,1,10.549-6.818c7.768-3.529,15.184-2.515,22.261,1.815,3.875,2.372,7.532,5.1,11.388,7.5,3.825,2.385,7.833,4.354,12.59,3.249a17.713,17.713,0,0,0,9.293-6.041c6.3-7.158,12.454-14.45,20.089-20.282a36.013,36.013,0,0,1,12.418-6.611c8.714-2.339,15.233,1.489,21.008,7.532a12.661,12.661,0,0,1,3.686,9.571C-218.226,452.033-218.132,477.413-218.132,502.792Zm-22.357-28.9A15.731,15.731,0,0,0-256.5,489.515a15.736,15.736,0,0,0,15.626,16.012A15.735,15.735,0,0,0-224.862,489.9,15.735,15.735,0,0,0-240.489,473.892ZM-358.4,456.037a15.738,15.738,0,0,0-15.735,15.9,15.744,15.744,0,0,0,15.9,15.737,15.74,15.74,0,0,0,15.738-15.9A15.739,15.739,0,0,0-358.4,456.037Zm95.729,14.79a15.738,15.738,0,0,0-15.8-15.84,15.74,15.74,0,0,0-15.84,15.794,15.738,15.738,0,0,0,15.8,15.842A15.736,15.736,0,0,0-262.675,470.827Zm-57.766-29.495a15.737,15.737,0,0,0-15.887,15.749,15.736,15.736,0,0,0,15.751,15.887,15.734,15.734,0,0,0,15.888-15.749A15.738,15.738,0,0,0-320.441,441.333Zm79.66,14.833a15.734,15.734,0,0,0,15.919-15.718,15.737,15.737,0,0,0-15.721-15.919A15.735,15.735,0,0,0-256.5,440.246,15.735,15.735,0,0,0-240.781,456.166ZM-374.139,563.321a15.744,15.744,0,0,0,15.91,15.726,15.74,15.74,0,0,0,15.728-15.91,15.738,15.738,0,0,0-15.912-15.726A15.739,15.739,0,0,0-374.139,563.321Zm69.45-24.143A15.733,15.733,0,0,0-320.4,523.254a15.733,15.733,0,0,0-15.924,15.714,15.735,15.735,0,0,0,15.715,15.922A15.731,15.731,0,0,0-304.688,539.178Zm79.826-7.479A15.739,15.739,0,0,0-240.7,515.9a15.739,15.739,0,0,0-15.8,15.839,15.741,15.741,0,0,0,15.842,15.8A15.736,15.736,0,0,0-224.862,531.7Zm-133.524-26.3a15.738,15.738,0,0,0-15.752,15.884,15.741,15.741,0,0,0,15.884,15.754A15.736,15.736,0,0,0-342.5,521.153,15.741,15.741,0,0,0-358.386,505.4Zm78.706-8.4a15.745,15.745,0,0,0-15.683,15.953,15.751,15.751,0,0,0,15.953,15.683,15.752,15.752,0,0,0,15.684-15.953A15.745,15.745,0,0,0-279.68,497Zm-25.008,2.234a15.736,15.736,0,0,0-15.751-15.887,15.735,15.735,0,0,0-15.888,15.748,15.737,15.737,0,0,0,15.751,15.888A15.735,15.735,0,0,0-304.688,499.231Zm26.059,39.776a15.744,15.744,0,0,0-15.683,15.953,15.746,15.746,0,0,0,15.953,15.684,15.744,15.744,0,0,0,15.684-15.953A15.747,15.747,0,0,0-278.63,539.008Z" transform="translate(380.399 -369.793)" fill="#69d1ff"/>
      <path id="Trazado_103161" data-name="Trazado 103161" d="M-378.706,460.075c3.365-4.327,6.714-8.667,10.1-12.981,5.553-7.084,11.155-14.127,16.667-21.242a10.681,10.681,0,0,1,4.673-3.646,149.012,149.012,0,0,1,26.992-7.374c9.015-1.632,16.835,1.576,23.782,7.272a46.728,46.728,0,0,0,7.87,5.638,8.736,8.736,0,0,0,9.843-.811c3.981-2.871,6.75-6.81,9.393-10.833,3.118-4.746,6.045-9.619,9.237-14.314,7.91-11.63,19.255-17.1,33.028-18.027,12-.8,23.692,1.1,35.295,3.924,1.981.484,2.138,1.064,1.085,2.716q-13.246,20.771-26.354,41.633c-1.123,1.789-1.724,1.857-3.051.139-3.584-4.64-7.872-8.49-13.71-10.041-7.587-2.016-14.1.813-20.2,4.938-7.975,5.392-14.356,12.482-20.6,19.7-1.086,1.255-2.149,2.54-3.331,3.7-5.852,5.746-11.485,6.419-18.456,2.115-3.195-1.973-6.246-4.178-9.389-6.239-12.628-8.284-22.416-7.946-34.432,1.219a87.04,87.04,0,0,1-13.569,8.9,29.147,29.147,0,0,1-14.9,3.4A45.992,45.992,0,0,0-378.706,460.075Z" transform="translate(381.322 -383.572)" fill="#69d1ff"/>
      <path id="Trazado_103162" data-name="Trazado 103162" d="M-274.643,593.6V590.49q0-77.571-.008-155.141a6.832,6.832,0,0,1,.935-3.967q13.406-21,26.684-42.071c.227-.358.484-.7.746-1.08.819.564.439,1.326.439,1.94q.035,82.821.056,165.643a6.423,6.423,0,0,1-1.418,4.054c-7.434,10.068-15.85,19.329-23.777,28.991C-272.12,590.241-273.174,591.691-274.643,593.6Z" transform="translate(438.027 -381.034)" fill="#69d1ff"/>
      <g id="Grupo_56304" data-name="Grupo 56304" transform="translate(6.26 54.734)">
        <g id="Grupo_56303" data-name="Grupo 56303">
          <path id="Trazado_103163" data-name="Trazado 103163" d="M-284.192,450.952a15.735,15.735,0,0,1,15.627,16.01,15.735,15.735,0,0,1-16.013,15.624A15.736,15.736,0,0,1-300.2,466.575,15.731,15.731,0,0,1-284.192,450.952Z" transform="translate(417.841 -401.588)" fill="#005472"/>
          <path id="Trazado_103164" data-name="Trazado 103164" d="M-360.612,439.4a15.739,15.739,0,0,1,15.9,15.735,15.74,15.74,0,0,1-15.738,15.9,15.744,15.744,0,0,1-15.9-15.737A15.738,15.738,0,0,1-360.612,439.4Z" transform="translate(376.347 -407.885)" fill="#005472"/>
          <path id="Trazado_103165" data-name="Trazado 103165" d="M-293.04,454.555a15.736,15.736,0,0,1-15.842,15.8,15.738,15.738,0,0,1-15.8-15.842,15.74,15.74,0,0,1,15.84-15.794A15.738,15.738,0,0,1-293.04,454.555Z" transform="translate(404.504 -408.256)" fill="#005472"/>
          <path id="Trazado_103166" data-name="Trazado 103166" d="M-335.986,429.877a15.738,15.738,0,0,1,15.752,15.887,15.735,15.735,0,0,1-15.888,15.749,15.736,15.736,0,0,1-15.751-15.887A15.737,15.737,0,0,1-335.986,429.877Z" transform="translate(389.684 -413.072)" fill="#005472"/>
          <path id="Trazado_103167" data-name="Trazado 103167" d="M-284.484,450.638a15.735,15.735,0,0,1-15.72-15.919A15.735,15.735,0,0,1-284.286,419a15.737,15.737,0,0,1,15.721,15.919A15.734,15.734,0,0,1-284.484,450.638Z" transform="translate(417.842 -419)" fill="#005472"/>
          <path id="Trazado_103168" data-name="Trazado 103168" d="M-376.347,514.448a15.739,15.739,0,0,1,15.726-15.91,15.738,15.738,0,0,1,15.912,15.726,15.74,15.74,0,0,1-15.728,15.91A15.744,15.744,0,0,1-376.347,514.448Z" transform="translate(376.347 -375.655)" fill="#005472"/>
          <path id="Trazado_103169" data-name="Trazado 103169" d="M-320.234,498.826a15.732,15.732,0,0,1-15.924,15.712,15.735,15.735,0,0,1-15.715-15.922A15.733,15.733,0,0,1-335.949,482.9,15.733,15.733,0,0,1-320.234,498.826Z" transform="translate(389.684 -384.176)" fill="#005472"/>
          <path id="Trazado_103170" data-name="Trazado 103170" d="M-268.565,493.94a15.736,15.736,0,0,1-15.8,15.84,15.741,15.741,0,0,1-15.842-15.8,15.739,15.739,0,0,1,15.8-15.839A15.739,15.739,0,0,1-268.565,493.94Z" transform="translate(417.842 -386.769)" fill="#005472"/>
          <path id="Trazado_103171" data-name="Trazado 103171" d="M-360.595,471.345A15.741,15.741,0,0,1-344.709,487.1a15.736,15.736,0,0,1-15.754,15.884,15.741,15.741,0,0,1-15.884-15.754A15.738,15.738,0,0,1-360.595,471.345Z" transform="translate(376.347 -390.474)" fill="#005472"/>
          <path id="Trazado_103172" data-name="Trazado 103172" d="M-309.675,465.907A15.745,15.745,0,0,1-293.72,481.59,15.752,15.752,0,0,1-309.4,497.543a15.751,15.751,0,0,1-15.953-15.683A15.745,15.745,0,0,1-309.675,465.907Z" transform="translate(404.134 -393.438)" fill="#005472"/>
          <path id="Trazado_103173" data-name="Trazado 103173" d="M-320.234,472.957a15.735,15.735,0,0,1-15.888,15.749,15.737,15.737,0,0,1-15.751-15.888,15.735,15.735,0,0,1,15.888-15.748A15.736,15.736,0,0,1-320.234,472.957Z" transform="translate(389.684 -398.253)" fill="#005472"/>
          <path id="Trazado_103174" data-name="Trazado 103174" d="M-309,493.1a15.747,15.747,0,0,1,15.955,15.684,15.744,15.744,0,0,1-15.684,15.953,15.746,15.746,0,0,1-15.953-15.684A15.744,15.744,0,0,1-309,493.1Z" transform="translate(404.504 -378.619)" fill="#005472"/>
        </g>
      </g>
    </g>
  </g>
</svg>
