<svg xmlns="http://www.w3.org/2000/svg" xmlns:xlink="http://www.w3.org/1999/xlink" width="441.733" height="469.719" viewBox="0 0 441.733 469.719">
  <defs>
    <clipPath id="clip-path">
      <rect id="Rectángulo_5766" data-name="Rectángulo 5766" width="439.733" height="467.719" rx="44.365" fill="none"/>
    </clipPath>
    <linearGradient id="linear-gradient" x1="0.5" x2="0.5" y2="1" gradientUnits="objectBoundingBox">
      <stop offset="0" stop-color="#53d6af"/>
      <stop offset="0.01" stop-color="#52d3ae"/>
      <stop offset="0.794" stop-color="#0f3395"/>
    </linearGradient>
    <linearGradient id="linear-gradient-2" x1="0.5" x2="0.5" y2="1" gradientUnits="objectBoundingBox">
      <stop offset="0" stop-color="#e95b00"/>
      <stop offset="1" stop-color="#ffb100"/>
    </linearGradient>
  </defs>
  <g id="Grupo_58939" data-name="Grupo 58939" transform="translate(-750.267 -11419.289)">
    <g id="Grupo_56691" data-name="Grupo 56691" transform="translate(673.799 11250.117)">
      <g id="Grupo_56690" data-name="Grupo 56690" transform="translate(77.468 170.172)">
        <g id="Grupo_56689" data-name="Grupo 56689" clip-path="url(#clip-path)">
          <g id="Grupo_56688" data-name="Grupo 56688" transform="translate(0 0)">
            <rect id="Rectángulo_5761" data-name="Rectángulo 5761" width="441.38" height="339.381" transform="translate(0 128.338)" fill="url(#linear-gradient)"/>
            <rect id="Rectángulo_5762" data-name="Rectángulo 5762" width="441.38" height="131.934" transform="translate(0 0)" fill="#fff"/>
            <path id="Trazado_103565" data-name="Trazado 103565" d="M77.468,627.167s42.641,6.663,60.171,3.732,22.865-1.329,40.394-3.732,33.535,8.01,45.73,0,31.249-10.414,39.633-14.419,18.292-12.816,23.628-8.01,19.054,13.535,25.913,14.378,22.865,3.12,25.914-1.624,8.384-7.147,14.482-7.147,26.675,7.147,26.675,7.147,5.336-9.55,12.195-5.545,19.816,11.214,25.152,12.016,3.81-2.4,20.578.8,26.676-.658,35.06,6.88,19.816,10.743,22.865,15.549,13.715,19.226,17.53,24.031A16.69,16.69,0,0,1,517.2,680.7v6.7H77.468Z" transform="translate(-77.468 -219.673)" fill="url(#linear-gradient-2)"/>
            <g id="Grupo_56652" data-name="Grupo 56652" transform="translate(21.559 341.041)">
              <path id="Trazado_103566" data-name="Trazado 103566" d="M116.274,598.8l1.043-.081c-.078-.747-.809-1.611-1.394-1.626a15.7,15.7,0,0,0-2.369.054c-.3.037-.6.357-.864.64a3.348,3.348,0,0,0-.572.934,2.833,2.833,0,0,1-2.556,1.851c.018-.062.027-.137.043-.14,1.273-.238,2.016-1.643,2.788-3.033a1.891,1.891,0,0,1,.9-.749,8.651,8.651,0,0,1,1.965-.728,2.225,2.225,0,0,1,2.474.666,9.434,9.434,0,0,0-.549-4,.924.924,0,0,0-1.183-.288,1.832,1.832,0,0,1-2.448-.061c1.384.564,2.647-.352,3.937-.825a4.909,4.909,0,0,0,1.374-1.144c.464-.445.513-.666.822-2.775a4.216,4.216,0,0,1-.365,2.735,10.547,10.547,0,0,0-.739,1.825.585.585,0,0,0-.056.273c.236,1.206.482,2.407.723,3.6l3.957-5.2c-.127,1.23-.218,2.361-.369,3.471a2.756,2.756,0,0,1-.4,1.18c-.555.717-1.184,1.295-1.75,2a15.954,15.954,0,0,0-.949,1.484c.376.6,3.564.82,4.088.334l.835,1.235c.751-1.146,1.671-.707,2.569-.668a5.341,5.341,0,0,0,1.284-.345c.633-.143,1.273-.23,1.905-.385.26-.064.61-.12.743-.392a6.334,6.334,0,0,1,2.1-2.448,2.424,2.424,0,0,0,.84-.989c.806-1.941,1.584-3.916,2.319-5.925.316-.867.5-1.85.689-2.548a6.151,6.151,0,0,0,1.3.16,16.441,16.441,0,0,0,1.84-.343c.608-.121,1.213-.273,1.822-.363a7.619,7.619,0,0,1,1.1-.01c-.028-.258-.028-.358-.051-.445-.126-.509-.258-1.016-.388-1.523a6.4,6.4,0,0,0,.888-.5,1.12,1.12,0,0,0,.274-.564c.175-.758.329-1.529.484-2.3.192-.95.338-1.928.582-2.844a2.6,2.6,0,0,1,.657-1.294,1.82,1.82,0,0,0,.679-1.465,4.135,4.135,0,0,0-.624-3.271,1.014,1.014,0,0,1-.249-.447,3.687,3.687,0,0,0-2.549-3.207c-.231-.112-.418-.437-.633-.644a5.88,5.88,0,0,0-.813-.728c-1.319-.847-1.514-1.456-1.081-3.533a2.037,2.037,0,0,1,.256-.731c-.04.415-.081.829-.12,1.244-.128,1.375.159,2.184,1,2.57,1.023.472,2.064.855,3.095,1.285.212.089.416.215.709.369a30.418,30.418,0,0,0,1.166-2.884c.531-1.756.936-2.046,2.137-1.8.849.174,1.8.514,2.56-.817-.291,1.1-.394,1.222-1,1.232-.362.006-.725,0-1.086.011-.623.023-1.074.365-1.278,1.408a20.906,20.906,0,0,1-.839,3.426c-.6,1.539.105,2.416.523,3.47a14.467,14.467,0,0,0,.81,1.8.576.576,0,0,0,.619.282,14.112,14.112,0,0,0,1.724-.94,24.235,24.235,0,0,1,2.72-1.643,5.792,5.792,0,0,1,1.88-.109,8.259,8.259,0,0,0,2.337-.3,12.757,12.757,0,0,0,2.238-1.418c.562-.371,1.1-.963,1.683-1.072a4.894,4.894,0,0,1,1.9.366c.624.149,1.206.694,1.887.02.337-.333.88-.112,1.311-.262a2.263,2.263,0,0,0,.943-.662c.637-.743,1.229-1.578,1.849-2.358.3-.378.636-.688.927-1.081.808-1.089,1.63-2.16,2.385-3.334a4.839,4.839,0,0,0,.484-1.65c.209-1.247.316-2.539.561-3.766.066-.331.474-.5.848-.853,0,4.283.005,8.221-.014,12.158a1.139,1.139,0,0,1-.323.679,14.119,14.119,0,0,0-1.741,1.838l2.058,1.388v3.142l-.461-.2c-.022-1.461-.026-1.428-.994-1.64a6.945,6.945,0,0,1-1.6-.567c-.817-.406-1.41.214-1.887,1.058a5.266,5.266,0,0,0-.672,2.08,8.856,8.856,0,0,0,.386,2.09c.1.519.169,1.049.252,1.574l-.21.2a12.851,12.851,0,0,1-1.143-1.278,11.862,11.862,0,0,1-.749-1.4c-1.914.969-3.1,3.476-4.955,4.2a12.84,12.84,0,0,1,2.422-5.182,3,3,0,0,0-2.6.031c-.581.362-1.061.822-1.67-.057-.187-.269-.764.115-1.16.221-.989.263-1.974.576-2.968.8a7.3,7.3,0,0,0-3.523,1.3,19.107,19.107,0,0,1-3.4,1.989c-1.083.58-1.244,2.1-1.336,3.492-.1,1.532.065,3.1.055,4.657a6.862,6.862,0,0,1-.3,1.535c-.118.482-.282.936-.408,1.414-.053.2-.054.619-.1.624-.616.081-1.04.717-1.539,1.151-.13.113-.5-.442-.736-.854a3.579,3.579,0,0,0-2.553,1.522l1.725.456.07.3-1.663,1.493a8.876,8.876,0,0,0,1.762,1.288c.386.15.846-.25,1.278-.307a18.585,18.585,0,0,1,3.585-.352c.878.055,1.455-.4,2.056-1.315.964-1.46,2-2.82,3.681-2.678-.642.286-1.109.478-1.569.708-.152.076-.364.2-.415.385-.271,1-.542,2-.717,3.044a3.688,3.688,0,0,0,.292,1.177c.3,1.2.627,2.378.885,3.6a12.511,12.511,0,0,1,.223,2.336,10.119,10.119,0,0,1-1.492-4.087c-.187-.9-.548-1.407-1.069-1.437a10.408,10.408,0,0,0-3.808.42,12.039,12.039,0,0,1-2.247.348c-.417.05-.492.447-.636,1a7.633,7.633,0,0,1-.9,1.8c-.275.488-.562.751-1.057.7-.4-.044-.876.4-1.222.82-.689.84-1.321.474-1.98.009-.092-.065-.191-.111-.35-.2l-.237,2.905c-.5-.084-.957-.194-1.422-.226-.162-.011-.327.186-.5.255-1.037.422-1.81-.515-2.617-1.268-.163-.152-.319-.326-.472-.5-.446-.509-.864-.347-1.341-.027a2.368,2.368,0,0,1-1.2.274c-.506.037-1.014-.013-1.521-.014a8.944,8.944,0,0,1-1.722-.005c-.8-.161-1.415.5-2.078.97-.723.513-1.438,1.055-2.161,1.567-.244.174-.5.295-.8.467a3.076,3.076,0,0,1-.01,2.92,3.276,3.276,0,0,0,.06,2.633,13.992,13.992,0,0,0,.889,1.927,1.68,1.68,0,0,1-.163,1.949,12.826,12.826,0,0,0-1.485,1.991,7.741,7.741,0,0,0-.764,2.24c-.175.943-.6,1.233-1.082,1.222-.587-.015-1.171-.353-1.76-.392a1.253,1.253,0,0,0-.86.523,1.588,1.588,0,0,1-1.662.689c-1.118-.31-1.748.835-2.5,1.8a1.46,1.46,0,0,1-1.357.418.9.9,0,0,0-1.085.386c-.4.563-.881.907-1.429.119a3.685,3.685,0,0,0-1.346-1.266A2.569,2.569,0,0,0,107,624.2c-.68.128-1.374.04-2.006.794-.245.292-.841-.107-1.271-.237-.377-.114-.645-.113-.907.508a2.52,2.52,0,0,1-1.01,1.021c.373-1.883.417-3.893,1.241-5.39a10.049,10.049,0,0,1,1.453-1.976c.164-.177.535.005.779.155a3.167,3.167,0,0,1,.682.718,1.3,1.3,0,0,0,1.769.491,1.45,1.45,0,0,1,1.8.189c.208.19.615.075.86-.121.439-.35.83-.61,1.322-.235.117.089.355-.1.5-.251.363-.357.671-1.082,1.151-.271a.228.228,0,0,0,.3.049c.66-.616,1.583-.187,2.111-1.254a.75.75,0,0,1,.957-.492c.554.105,1.013.1,1.388-.854a3.7,3.7,0,0,1,1.329-1.708c.508-.322.336-.579.147-.957s-.435-.647-.6-1.026a6.944,6.944,0,0,1-.462-1.453c-.115-.63-.195-1.073-.741-.955-.34.073-.764-.066-.866-.855a1.369,1.369,0,0,0-.276-.614.985.985,0,0,1,.035-1.438,1.026,1.026,0,0,0,.4-1.138.948.948,0,0,1,.068-.528c.5-.234.654-1.034,1.017-1.454a2.014,2.014,0,0,0-.028-2.8,18.263,18.263,0,0,1-1.546-2.134A5.528,5.528,0,0,1,116.274,598.8Z" transform="translate(-101.809 -555.214)"/>
            </g>
            <g id="Grupo_56653" data-name="Grupo 56653" transform="translate(132.304 330.174)">
              <path id="Trazado_103567" data-name="Trazado 103567" d="M307.192,605.7a1.585,1.585,0,0,0,1.041.017c4.965-2.235,9.917-4.5,15.307-6.959-.664-.265-1.1-.685-1.56-.578-1.684.4-3.371,1-5.06,1.456a6.665,6.665,0,0,1-2.353.337c-1.911-.276-3.731-.7-5.565-1.088-.661-.141-1.244-.386-1.891-.547-1.337-.331-2.728-.6-4.028-.973a3.126,3.126,0,0,1-1.374-.808c-.438-.456-.469-1.267-1.081-1.5-1.24-.47-.888-1.515-1.059-2.387a6.758,6.758,0,0,0-.632-2.6c-.469-.667-1.525-1.01-2.314-1.5a17.7,17.7,0,0,1-3.069-2,11.416,11.416,0,0,1-1.72-2.769c-.424-.762-.561-1.707-1.216-2.3a33.577,33.577,0,0,0-3.629-2.481,19.3,19.3,0,0,1-2.173-1.629.8.8,0,0,1,0-.941,20,20,0,0,1,1.8-2.053c1.087-1.129,1.788-2.517,4.066-2.649a28.794,28.794,0,0,0,4.794-.91c1.43-.343,2.119.03,2.5.8.225.448.421.909.636,1.36.363.761.572.823,2.127.556-2.112-.2-2.229-1.585-2.5-2.752-.377-1.655-.976-2-3.49-1.658a42.172,42.172,0,0,1-4.3.189c.026-.458.068-.788.058-1.1-.05-1.546-.165-3.074-.159-4.633.005-1.277.858-2.1,2.662-2.731.545-.19,1.09-.376,1.635-.564a2.844,2.844,0,0,0-1.067.1c-2.86.648-3.516,1.243-3.825,3.389a8.083,8.083,0,0,1-.45,1.441,4.868,4.868,0,0,0-.447,1.166c-.046,1.726-.052,3.43-2.572,5.049a1.39,1.39,0,0,0-.42.569c-.69,1.374-2.015,2.116-3.759,2.662a2.517,2.517,0,0,1-2.232-.014,3.6,3.6,0,0,0-2.006-.085c-1.292.22-2.608.6-3.913.9-1.057.245-2.115.5-3.17.709a1.557,1.557,0,0,1-.867-.02,9.047,9.047,0,0,1-1.144-.828c-.563.454-1.125.91-1.693,1.362-.1.077-.222.135-.531.318a10.6,10.6,0,0,0-.641-1.373c-.462-.715-1-1.39-1.5-2.084a22.9,22.9,0,0,1-1.487-2.118,8.641,8.641,0,0,1-.544-1.725c-.984.167-2.329.5-3.6.594-2.951.229-5.881.384-8.786.483a3.352,3.352,0,0,1-1.727-.489,8.761,8.761,0,0,0-4.287-1.241c-.419-.011-.691-.42-.92-.71-.559-.707-1.035-1.461-1.578-2.177-.37-.485-.95-.872-1.171-1.417-.467-1.153-.442-2.563-2.314-2.85l1.074-1.76c-.912-.381-2.47-4.516-1.926-5.336a21.85,21.85,0,0,1,2.413.343c1.206.31,2.293.769,3.515,1.057a3.8,3.8,0,0,0,1.713-.18c1.484-.446,2.959-.98,4.579-1.526l-8.815-1.994c1.361-.988,2.732-1.986,4.112-2.975a.824.824,0,0,1,.376-.087,14.6,14.6,0,0,1,2.719-.118c1.26.19,2.29-.377,3.652-1.109-2.832.82-3.137.885-3.964.557a6.791,6.791,0,0,1-2.229-1.072c-1.334-1.353-3.212-2.415-3.3-4.481a2.535,2.535,0,0,0,1.328,3.116,1.275,1.275,0,0,1,.316,1.654c-1.035,1.321-2.818,2.068-4.714,2.985a3.075,3.075,0,0,0-.582-3.494,11.96,11.96,0,0,0-2.043-2.056,2.625,2.625,0,0,0-1.459-.7c-2.192-.174-4.385-.3-5.415-1.769-.012-.018-.113.014-.2.027a3.918,3.918,0,0,0,3.8,2.154,4.647,4.647,0,0,1,1.5.184,2.46,2.46,0,0,1,1.3.721,21.827,21.827,0,0,1,1.429,2.95,2.669,2.669,0,0,1-1.247,2.687l-.7-1.266a7.453,7.453,0,0,0-1.293,1.105,25.153,25.153,0,0,0-1.8,3.17,2.786,2.786,0,0,1-3.51,1.644c-.522-.152-1.221-.07-1.791-.181a66.644,66.644,0,0,1,1.98,7.623,11.465,11.465,0,0,0,.968.685c1.059.616,2.151,1.2,3.212,1.819.972.563,2.155.953,2.414,2.058a12.187,12.187,0,0,0,.981,2.17c.29.639.517,1.307.854,1.922a3.277,3.277,0,0,0,1.032,1.348c.676.417,1.119.849.734,1.7-.133.294-.262.59-.361.882-.485,1.448-1.221,2.959-.094,4.022.184.173.528.267.607.477.225.6.353,1.245.531,1.918l3.792-1.368c-.022.251-.021.4-.05.555-.207,1.1-.3,2.1,1.147,2.487.73.193,1.561.542,1.733,1.067.215.655.711.865,1.482.931a10.575,10.575,0,0,0,2.781.1c.774-.134,1.317-.269,1.62.228a16.6,16.6,0,0,0,1.727,2.628,14.366,14.366,0,0,1,2.712,4.55c.26.674-.164,1.417-1.195,2.171a14,14,0,0,0-4.286,4.222,17.313,17.313,0,0,0,2.811-1.62c1.384-1.024,2.686-2.112,4.018-3.177.445-.356.868-.925,1.314-1.043,1.412-.378,2.833-.614,4.242-.844a1.021,1.021,0,0,1,.724.3c.552.446,1.062.924,1.791,1.568-.784-2.192-3.092-2.721-5.482-3.095-1.492-.234-2.4-.7-2.835-1.833a25.734,25.734,0,0,0-2.5-4.309c-.322-.51-1.088-.861-1.121-1.431a12.242,12.242,0,0,1,.61-2.957l2.832,1.236.344-.262c-.131-.769-.262-1.538-.415-2.433,1.91.281,2.592,1.4,3.379,2.339-.379.54-.868,1.317-.652,1.416.832.38,1.877.548,2.331,1.277.031.049.555-.189.841-.238.673-.114,1.338-.17,2.013-.3a9.424,9.424,0,0,0,2.1-.508c1.96-.879,3.842-1.989,5.828-2.741,1.81-.685,3.809-1.353,5.162-.324a26.464,26.464,0,0,0,4.455,3.14c1.833.887,2.631,2.333,3.655,3.689.849,1.122,1.807,2.182,2.706,3.277.36.438,1.175.944.943,1.333-.756,1.27.1,1.611.887,2.135,1.115.739,1.338,1.917,1.529,3.246-2.755-.612-6.538-.644-7.912-.073,1.973,1.917,5.809,1.973,8.127,3.825a16.324,16.324,0,0,0-1.331,1.746,17.745,17.745,0,0,0-.952,2.172l.375.148c.613-.406,1.238-.8,1.835-1.221a12.264,12.264,0,0,1,2.408-1.685,7.294,7.294,0,0,1,3-.348c1.335.117,2.455.508,2.414,1.769a9.609,9.609,0,0,0,.2,2.338c.291,1.34.333,1.325-1.492,2.19l.009.7,3.954-1.8c.194-1.159.379-2.272.565-3.385A19.362,19.362,0,0,1,307.192,605.7Z" transform="translate(-226.842 -542.945)"/>
            </g>
            <g id="Grupo_56659" data-name="Grupo 56659" transform="translate(23.779 131.934)">
              <g id="Grupo_56654" data-name="Grupo 56654" transform="translate(19.874)">
                <line id="Línea_159" data-name="Línea 159" y2="228.266"/>
              </g>
              <g id="Grupo_56658" data-name="Grupo 56658" transform="translate(0 0)">
                <g id="Grupo_56655" data-name="Grupo 56655" transform="translate(15.889)">
                  <rect id="Rectángulo_5763" data-name="Rectángulo 5763" width="7.972" height="199.665" fill="#15f9ff"/>
                </g>
                <g id="Grupo_56657" data-name="Grupo 56657" transform="translate(0 193.85)">
                  <g id="Grupo_56656" data-name="Grupo 56656">
                    <path id="Trazado_103568" data-name="Trazado 103568" d="M104.315,537.988,124.187,572.4l19.874-34.416Z" transform="translate(-104.315 -537.988)" fill="#15f9ff"/>
                  </g>
                </g>
              </g>
            </g>
            <g id="Grupo_56665" data-name="Grupo 56665" transform="translate(157.409)">
              <g id="Grupo_56660" data-name="Grupo 56660" transform="translate(34.449 0)">
                <line id="Línea_160" data-name="Línea 160" y2="371.608"/>
              </g>
              <g id="Grupo_56664" data-name="Grupo 56664">
                <g id="Grupo_56661" data-name="Grupo 56661" transform="translate(22.934)">
                  <rect id="Rectángulo_5764" data-name="Rectángulo 5764" width="23.029" height="322.034" fill="#caffff"/>
                </g>
                <g id="Grupo_56663" data-name="Grupo 56663" transform="translate(0 311.954)">
                  <g id="Grupo_56662" data-name="Grupo 56662">
                    <path id="Trazado_103569" data-name="Trazado 103569" d="M255.185,522.374l34.445,59.654,34.449-59.654Z" transform="translate(-255.185 -522.374)" fill="#caffff"/>
                  </g>
                </g>
              </g>
            </g>
            <g id="Grupo_56671" data-name="Grupo 56671" transform="translate(23.779)">
              <g id="Grupo_56666" data-name="Grupo 56666" transform="translate(19.874 0)">
                <line id="Línea_161" data-name="Línea 161" y2="114.133"/>
              </g>
              <g id="Grupo_56670" data-name="Grupo 56670">
                <g id="Grupo_56667" data-name="Grupo 56667" transform="translate(15.889)">
                  <rect id="Rectángulo_5765" data-name="Rectángulo 5765" width="7.972" height="85.532" fill="#09b291"/>
                </g>
                <g id="Grupo_56669" data-name="Grupo 56669" transform="translate(0 79.717)">
                  <g id="Grupo_56668" data-name="Grupo 56668">
                    <path id="Trazado_103570" data-name="Trazado 103570" d="M104.315,260.174l19.872,34.416,19.874-34.416Z" transform="translate(-104.315 -260.174)" fill="#09b291"/>
                  </g>
                </g>
              </g>
            </g>
            <g id="Grupo_56672" data-name="Grupo 56672" transform="translate(57.942 11.275)" style="isolation: isolate">
              <path id="Trazado_103571" data-name="Trazado 103571" d="M145.794,191.023v4.032h-2.358V183.612H147.9a5.166,5.166,0,0,1,2.267.471,3.479,3.479,0,0,1,1.5,1.34,3.736,3.736,0,0,1,.527,1.976,3.284,3.284,0,0,1-1.152,2.653,4.792,4.792,0,0,1-3.187.971Zm0-1.91H147.9a2.071,2.071,0,0,0,1.426-.44,1.6,1.6,0,0,0,.492-1.258,1.885,1.885,0,0,0-.5-1.36,1.853,1.853,0,0,0-1.368-.534h-2.161Z" transform="translate(-142.949 -182.983)" fill="#042d25"/>
              <path id="Trazado_103572" data-name="Trazado 103572" d="M159.767,189.04a6.076,6.076,0,0,0-.818-.063,1.664,1.664,0,0,0-1.69.872v5.564h-2.271v-8.5h2.145l.063,1.014a2.106,2.106,0,0,1,1.895-1.171,2.371,2.371,0,0,1,.707.1Z" transform="translate(-144.269 -183.342)" fill="#042d25"/>
              <path id="Trazado_103573" data-name="Trazado 103573" d="M165.491,195.57a4.171,4.171,0,0,1-3.045-1.147,4.076,4.076,0,0,1-1.175-3.058v-.22a5.147,5.147,0,0,1,.5-2.291,3.637,3.637,0,0,1,1.4-1.556,3.938,3.938,0,0,1,2.071-.546,3.532,3.532,0,0,1,2.748,1.1,4.475,4.475,0,0,1,1,3.12v.927h-5.415a2.109,2.109,0,0,0,.664,1.336,2.006,2.006,0,0,0,1.4.5,2.453,2.453,0,0,0,2.051-.951l1.116,1.25a3.409,3.409,0,0,1-1.383,1.128A4.544,4.544,0,0,1,165.491,195.57Zm-.26-6.987a1.419,1.419,0,0,0-1.1.458,2.37,2.37,0,0,0-.538,1.311h3.159v-.182a1.691,1.691,0,0,0-.409-1.173A1.462,1.462,0,0,0,165.232,188.584Z" transform="translate(-144.987 -183.342)" fill="#042d25"/>
              <path id="Trazado_103574" data-name="Trazado 103574" d="M175.989,193.064a.731.731,0,0,0-.413-.656,4.668,4.668,0,0,0-1.324-.428q-3.033-.638-3.034-2.578a2.334,2.334,0,0,1,.94-1.89,3.787,3.787,0,0,1,2.455-.758,4.077,4.077,0,0,1,2.59.763,2.4,2.4,0,0,1,.971,1.98H175.9a1.1,1.1,0,0,0-.314-.805,1.33,1.33,0,0,0-.982-.318,1.362,1.362,0,0,0-.888.259.819.819,0,0,0-.314.661.7.7,0,0,0,.358.608,3.66,3.66,0,0,0,1.206.4,9.92,9.92,0,0,1,1.43.381,2.351,2.351,0,0,1,1.8,2.287,2.22,2.22,0,0,1-1,1.883,4.31,4.31,0,0,1-2.578.718,4.493,4.493,0,0,1-1.9-.381,3.181,3.181,0,0,1-1.3-1.045,2.429,2.429,0,0,1-.471-1.434h2.153a1.184,1.184,0,0,0,.448.927,1.777,1.777,0,0,0,1.115.322,1.645,1.645,0,0,0,.987-.247A.769.769,0,0,0,175.989,193.064Z" transform="translate(-146.093 -183.342)" fill="#042d25"/>
              <path id="Trazado_103575" data-name="Trazado 103575" d="M180.766,184.295a1.12,1.12,0,0,1,.341-.841,1.473,1.473,0,0,1,1.859,0,1.2,1.2,0,0,1,0,1.69,1.457,1.457,0,0,1-1.848,0A1.116,1.116,0,0,1,180.766,184.295Zm2.413,10.7H180.9v-8.5h2.279Z" transform="translate(-147.215 -182.927)" fill="#042d25"/>
              <path id="Trazado_103576" data-name="Trazado 103576" d="M185.2,190.643a5.056,5.056,0,0,1,.487-2.256,3.57,3.57,0,0,1,1.4-1.532,4.1,4.1,0,0,1,2.126-.542,3.873,3.873,0,0,1,2.81,1.053,4.229,4.229,0,0,1,1.214,2.861l.015.581a4.445,4.445,0,0,1-1.092,3.14,4.236,4.236,0,0,1-5.867,0,4.527,4.527,0,0,1-1.1-3.207Zm2.272.161a3.181,3.181,0,0,0,.455,1.854,1.639,1.639,0,0,0,2.594.008,3.482,3.482,0,0,0,.463-2.027,3.147,3.147,0,0,0-.463-1.841,1.509,1.509,0,0,0-1.306-.654,1.485,1.485,0,0,0-1.289.649A3.54,3.54,0,0,0,187.474,190.8Zm2.192-7.9h2.476l-2.177,2.437h-1.848Z" transform="translate(-147.722 -182.902)" fill="#042d25"/>
              <path id="Trazado_103577" data-name="Trazado 103577" d="M197.961,186.91l.071.982a2.97,2.97,0,0,1,2.444-1.139,2.466,2.466,0,0,1,2.012.794,3.7,3.7,0,0,1,.676,2.373v5.494h-2.272v-5.438a1.473,1.473,0,0,0-.314-1.05,1.407,1.407,0,0,0-1.045-.326,1.564,1.564,0,0,0-1.438.817v6h-2.272v-8.5Z" transform="translate(-148.935 -183.342)" fill="#042d25"/>
              <path id="Trazado_103578" data-name="Trazado 103578" d="M148.152,217.221a2.512,2.512,0,0,1-.229-.763,2.744,2.744,0,0,1-2.145.919,3.019,3.019,0,0,1-2.071-.723,2.325,2.325,0,0,1-.821-1.823,2.4,2.4,0,0,1,1-2.075,4.946,4.946,0,0,1,2.9-.731h1.045v-.487a1.4,1.4,0,0,0-.3-.943,1.193,1.193,0,0,0-.956-.353,1.352,1.352,0,0,0-.9.275.936.936,0,0,0-.326.755h-2.271a2.283,2.283,0,0,1,.455-1.368,3.012,3.012,0,0,1,1.289-.986,4.7,4.7,0,0,1,1.871-.358,3.717,3.717,0,0,1,2.5.789,2.768,2.768,0,0,1,.923,2.221v3.686a4.056,4.056,0,0,0,.338,1.831v.134Zm-1.879-1.58a1.953,1.953,0,0,0,.927-.224,1.465,1.465,0,0,0,.629-.6v-1.462h-.849q-1.706,0-1.816,1.179l-.008.134a.911.911,0,0,0,.3.7A1.16,1.16,0,0,0,146.273,215.64Z" transform="translate(-142.886 -185.834)" fill="#042d25"/>
              <path id="Trazado_103579" data-name="Trazado 103579" d="M155.627,206.377v2.09h1.454v1.666h-1.454v4.244a1.014,1.014,0,0,0,.181.676.907.907,0,0,0,.692.2,3.651,3.651,0,0,0,.668-.055v1.721a4.669,4.669,0,0,1-1.376.2,2.167,2.167,0,0,1-2.436-2.412v-4.583h-1.242v-1.666h1.242v-2.09Z" transform="translate(-143.941 -185.585)" fill="#042d25"/>
              <path id="Trazado_103580" data-name="Trazado 103580" d="M161.28,208.717l.071.951a2.988,2.988,0,0,1,2.445-1.108,2.267,2.267,0,0,1,2.255,1.3,2.921,2.921,0,0,1,2.554-1.3,2.538,2.538,0,0,1,2.059.805,3.7,3.7,0,0,1,.676,2.425v5.43h-2.279V211.8a1.622,1.622,0,0,0-.283-1.058,1.255,1.255,0,0,0-1-.334,1.418,1.418,0,0,0-1.414.974l.008,5.84H164.1v-5.415a1.6,1.6,0,0,0-.291-1.068,1.264,1.264,0,0,0-.99-.33,1.472,1.472,0,0,0-1.4.8v6.012H159.15v-8.5Z" transform="translate(-144.745 -185.834)" fill="#042d25"/>
              <path id="Trazado_103581" data-name="Trazado 103581" d="M174.483,212.89a5.05,5.05,0,0,1,.487-2.255,3.567,3.567,0,0,1,1.4-1.533,4.093,4.093,0,0,1,2.126-.542,3.87,3.87,0,0,1,2.81,1.053,4.226,4.226,0,0,1,1.215,2.861l.015.581a4.445,4.445,0,0,1-1.092,3.14,4.236,4.236,0,0,1-5.867,0,4.525,4.525,0,0,1-1.1-3.207Zm2.271.161a3.181,3.181,0,0,0,.456,1.854,1.638,1.638,0,0,0,2.593.008,3.478,3.478,0,0,0,.464-2.027,3.148,3.148,0,0,0-.464-1.842,1.507,1.507,0,0,0-1.3-.654,1.482,1.482,0,0,0-1.289.65A3.534,3.534,0,0,0,176.754,213.051Z" transform="translate(-146.497 -185.834)" fill="#042d25"/>
              <path id="Trazado_103582" data-name="Trazado 103582" d="M189.707,214.871a.732.732,0,0,0-.412-.656,4.679,4.679,0,0,0-1.324-.428q-3.034-.638-3.034-2.578a2.336,2.336,0,0,1,.939-1.89,3.788,3.788,0,0,1,2.456-.758,4.079,4.079,0,0,1,2.59.763,2.4,2.4,0,0,1,.97,1.98h-2.271a1.1,1.1,0,0,0-.314-.805,1.332,1.332,0,0,0-.982-.318,1.362,1.362,0,0,0-.888.259.822.822,0,0,0-.314.661.7.7,0,0,0,.358.609,3.685,3.685,0,0,0,1.206.4,9.921,9.921,0,0,1,1.43.381,2.351,2.351,0,0,1,1.8,2.287,2.22,2.22,0,0,1-1,1.883,4.307,4.307,0,0,1-2.577.718,4.5,4.5,0,0,1-1.9-.381,3.173,3.173,0,0,1-1.3-1.045,2.428,2.428,0,0,1-.471-1.434h2.153a1.187,1.187,0,0,0,.448.927,1.778,1.778,0,0,0,1.116.322,1.649,1.649,0,0,0,.987-.248A.77.77,0,0,0,189.707,214.871Z" transform="translate(-147.661 -185.834)" fill="#042d25"/>
              <path id="Trazado_103583" data-name="Trazado 103583" d="M195.04,216.759v-6.838h-1.266v-1.666h1.266v-.723a2.937,2.937,0,0,1,.821-2.221,3.181,3.181,0,0,1,2.3-.789,5.329,5.329,0,0,1,1.156.157l-.024,1.761a2.861,2.861,0,0,0-.692-.071q-1.281,0-1.281,1.2v.684h1.69v1.666h-1.69v6.838Z" transform="translate(-148.701 -185.373)" fill="#042d25"/>
              <path id="Trazado_103584" data-name="Trazado 103584" d="M204.888,216.937a4.172,4.172,0,0,1-3.045-1.147,4.076,4.076,0,0,1-1.175-3.058v-.22a5.15,5.15,0,0,1,.5-2.291,3.648,3.648,0,0,1,1.4-1.556,3.936,3.936,0,0,1,2.071-.546,3.532,3.532,0,0,1,2.748,1.1,4.475,4.475,0,0,1,1,3.12v.927h-5.415a2.109,2.109,0,0,0,.664,1.336,2.006,2.006,0,0,0,1.4.5,2.453,2.453,0,0,0,2.051-.951l1.116,1.25a3.409,3.409,0,0,1-1.383,1.128A4.544,4.544,0,0,1,204.888,216.937Zm-.259-6.987a1.422,1.422,0,0,0-1.1.458,2.377,2.377,0,0,0-.539,1.311h3.16v-.182a1.691,1.691,0,0,0-.409-1.173A1.462,1.462,0,0,0,204.629,209.951Zm.2-5.242h2.476l-2.177,2.437h-1.847Z" transform="translate(-149.489 -185.394)" fill="#042d25"/>
              <path id="Trazado_103585" data-name="Trazado 103585" d="M215.615,210.847a6.075,6.075,0,0,0-.818-.063,1.664,1.664,0,0,0-1.69.872v5.564h-2.271v-8.5h2.145l.064,1.014a2.1,2.1,0,0,1,1.894-1.171,2.382,2.382,0,0,1,.708.1Z" transform="translate(-150.651 -185.834)" fill="#042d25"/>
              <path id="Trazado_103586" data-name="Trazado 103586" d="M217.448,206.1a1.117,1.117,0,0,1,.342-.841,1.472,1.472,0,0,1,1.858,0,1.2,1.2,0,0,1,0,1.69,1.457,1.457,0,0,1-1.848,0A1.115,1.115,0,0,1,217.448,206.1Zm2.413,10.7h-2.279v-8.5h2.279Z" transform="translate(-151.407 -185.419)" fill="#042d25"/>
              <path id="Trazado_103587" data-name="Trazado 103587" d="M225.774,215.547a1.491,1.491,0,0,0,1.022-.345,1.212,1.212,0,0,0,.408-.919h2.13a2.913,2.913,0,0,1-.472,1.583,3.1,3.1,0,0,1-1.268,1.117,3.984,3.984,0,0,1-1.78.4,3.693,3.693,0,0,1-2.877-1.159,4.587,4.587,0,0,1-1.053-3.2v-.15a4.534,4.534,0,0,1,1.045-3.135,3.65,3.65,0,0,1,2.869-1.171,3.579,3.579,0,0,1,2.558.908,3.212,3.212,0,0,1,.979,2.416H227.2a1.563,1.563,0,0,0-.408-1.079,1.52,1.52,0,0,0-2.236.164,3.362,3.362,0,0,0-.4,1.878v.237a3.4,3.4,0,0,0,.4,1.889A1.386,1.386,0,0,0,225.774,215.547Z" transform="translate(-151.914 -185.834)" fill="#042d25"/>
              <path id="Trazado_103588" data-name="Trazado 103588" d="M236.644,217.221a2.514,2.514,0,0,1-.228-.763,2.746,2.746,0,0,1-2.145.919,3.019,3.019,0,0,1-2.071-.723,2.325,2.325,0,0,1-.822-1.823,2.4,2.4,0,0,1,1-2.075,4.945,4.945,0,0,1,2.9-.731h1.046v-.487a1.4,1.4,0,0,0-.3-.943,1.191,1.191,0,0,0-.955-.353,1.352,1.352,0,0,0-.9.275.933.933,0,0,0-.326.755h-2.272a2.284,2.284,0,0,1,.456-1.368,3.012,3.012,0,0,1,1.289-.986,4.7,4.7,0,0,1,1.871-.358,3.713,3.713,0,0,1,2.5.789,2.766,2.766,0,0,1,.924,2.221v3.686a4.057,4.057,0,0,0,.338,1.831v.134Zm-1.878-1.58a1.955,1.955,0,0,0,.927-.224,1.47,1.47,0,0,0,.629-.6v-1.462h-.849q-1.706,0-1.816,1.179l-.008.134a.908.908,0,0,0,.3.7A1.158,1.158,0,0,0,234.766,215.64Z" transform="translate(-152.998 -185.834)" fill="#042d25"/>
              <path id="Trazado_103589" data-name="Trazado 103589" d="M241.627,209.654a1.145,1.145,0,0,1,.366-.88,1.421,1.421,0,0,1,1.839,0,1.145,1.145,0,0,1,.366.88,1.127,1.127,0,0,1-.361.868,1.442,1.442,0,0,1-1.848,0A1.127,1.127,0,0,1,241.627,209.654Zm0,6.437a1.145,1.145,0,0,1,.366-.88,1.421,1.421,0,0,1,1.839,0,1.145,1.145,0,0,1,.366.88,1.129,1.129,0,0,1-.361.869,1.445,1.445,0,0,1-1.848,0A1.129,1.129,0,0,1,241.627,216.09Z" transform="translate(-154.17 -185.82)" fill="#042d25"/>
            </g>
            <g id="Grupo_56673" data-name="Grupo 56673" transform="translate(58.429 156.921)" style="isolation: isolate">
              <path id="Trazado_103590" data-name="Trazado 103590" d="M145.794,355.461v4.031h-2.358V348.049H147.9a5.166,5.166,0,0,1,2.267.471,3.485,3.485,0,0,1,1.5,1.34,3.742,3.742,0,0,1,.527,1.977,3.286,3.286,0,0,1-1.152,2.653,4.8,4.8,0,0,1-3.187.971Zm0-1.91H147.9a2.067,2.067,0,0,0,1.426-.44,1.6,1.6,0,0,0,.492-1.258,1.885,1.885,0,0,0-.5-1.359,1.85,1.85,0,0,0-1.368-.535h-2.161Z" transform="translate(-143.436 -347.42)" fill="#042d25"/>
              <path id="Trazado_103591" data-name="Trazado 103591" d="M159.767,353.477a6.22,6.22,0,0,0-.818-.063,1.665,1.665,0,0,0-1.69.873v5.564h-2.271v-8.5h2.145l.063,1.014a2.106,2.106,0,0,1,1.895-1.171,2.4,2.4,0,0,1,.707.1Z" transform="translate(-144.756 -347.779)" fill="#042d25"/>
              <path id="Trazado_103592" data-name="Trazado 103592" d="M165.491,360.008a4.172,4.172,0,0,1-3.045-1.148,4.075,4.075,0,0,1-1.175-3.057v-.221a5.143,5.143,0,0,1,.5-2.29,3.637,3.637,0,0,1,1.4-1.556,3.939,3.939,0,0,1,2.071-.547,3.533,3.533,0,0,1,2.748,1.1,4.477,4.477,0,0,1,1,3.12v.927h-5.415a2.109,2.109,0,0,0,.664,1.336,2.006,2.006,0,0,0,1.4.5,2.455,2.455,0,0,0,2.051-.95l1.116,1.25a3.415,3.415,0,0,1-1.383,1.128A4.545,4.545,0,0,1,165.491,360.008Zm-.26-6.987a1.419,1.419,0,0,0-1.1.458,2.367,2.367,0,0,0-.538,1.31h3.159v-.182a1.693,1.693,0,0,0-.409-1.173A1.465,1.465,0,0,0,165.232,353.022Z" transform="translate(-145.474 -347.779)" fill="#042d25"/>
              <path id="Trazado_103593" data-name="Trazado 103593" d="M175.989,357.5a.733.733,0,0,0-.413-.656,4.7,4.7,0,0,0-1.324-.428q-3.033-.636-3.034-2.578a2.333,2.333,0,0,1,.94-1.889,3.787,3.787,0,0,1,2.455-.759,4.077,4.077,0,0,1,2.59.763,2.4,2.4,0,0,1,.971,1.98H175.9a1.1,1.1,0,0,0-.314-.806,1.334,1.334,0,0,0-.982-.318,1.357,1.357,0,0,0-.888.26.818.818,0,0,0-.314.66.7.7,0,0,0,.358.609,3.681,3.681,0,0,0,1.206.4,9.7,9.7,0,0,1,1.43.381,2.351,2.351,0,0,1,1.8,2.287,2.219,2.219,0,0,1-1,1.882,4.31,4.31,0,0,1-2.578.719,4.494,4.494,0,0,1-1.9-.381,3.182,3.182,0,0,1-1.3-1.046,2.425,2.425,0,0,1-.471-1.434h2.153a1.183,1.183,0,0,0,.448.927,1.772,1.772,0,0,0,1.115.322,1.645,1.645,0,0,0,.987-.247A.771.771,0,0,0,175.989,357.5Z" transform="translate(-146.58 -347.779)" fill="#042d25"/>
              <path id="Trazado_103594" data-name="Trazado 103594" d="M180.766,348.732a1.118,1.118,0,0,1,.341-.841,1.473,1.473,0,0,1,1.859,0,1.2,1.2,0,0,1,0,1.69,1.46,1.46,0,0,1-1.848,0A1.117,1.117,0,0,1,180.766,348.732Zm2.413,10.7H180.9v-8.5h2.279Z" transform="translate(-147.702 -347.364)" fill="#042d25"/>
              <path id="Trazado_103595" data-name="Trazado 103595" d="M185.2,355.08a5.05,5.05,0,0,1,.487-2.255,3.572,3.572,0,0,1,1.4-1.533,4.1,4.1,0,0,1,2.126-.542,3.877,3.877,0,0,1,2.81,1.053,4.231,4.231,0,0,1,1.214,2.861l.015.582a4.443,4.443,0,0,1-1.092,3.139,4.234,4.234,0,0,1-5.867,0,4.524,4.524,0,0,1-1.1-3.206Zm2.272.161a3.179,3.179,0,0,0,.455,1.854,1.639,1.639,0,0,0,2.594.008,3.479,3.479,0,0,0,.463-2.027,3.148,3.148,0,0,0-.463-1.842,1.51,1.51,0,0,0-1.306-.653,1.483,1.483,0,0,0-1.289.649A3.538,3.538,0,0,0,187.474,355.241Zm2.192-7.9h2.476l-2.177,2.437h-1.848Z" transform="translate(-148.209 -347.339)" fill="#042d25"/>
              <path id="Trazado_103596" data-name="Trazado 103596" d="M197.961,351.347l.071.983a2.968,2.968,0,0,1,2.444-1.14,2.469,2.469,0,0,1,2.012.794,3.706,3.706,0,0,1,.676,2.374v5.493h-2.272v-5.438a1.47,1.47,0,0,0-.314-1.049,1.4,1.4,0,0,0-1.045-.326,1.562,1.562,0,0,0-1.438.817v6h-2.272v-8.5Z" transform="translate(-149.423 -347.779)" fill="#042d25"/>
              <path id="Trazado_103597" data-name="Trazado 103597" d="M215.358,353.477a6.221,6.221,0,0,0-.818-.063,1.665,1.665,0,0,0-1.69.873v5.564H210.58v-8.5h2.145l.063,1.014a2.1,2.1,0,0,1,1.894-1.171,2.4,2.4,0,0,1,.708.1Z" transform="translate(-151.109 -347.779)" fill="#042d25"/>
              <path id="Trazado_103598" data-name="Trazado 103598" d="M221.082,360.008a4.172,4.172,0,0,1-3.045-1.148,4.075,4.075,0,0,1-1.175-3.057v-.221a5.131,5.131,0,0,1,.5-2.29,3.637,3.637,0,0,1,1.4-1.556,3.937,3.937,0,0,1,2.071-.547,3.529,3.529,0,0,1,2.747,1.1,4.473,4.473,0,0,1,1,3.12v.927h-5.415a2.1,2.1,0,0,0,.664,1.336,2.005,2.005,0,0,0,1.4.5,2.453,2.453,0,0,0,2.051-.95l1.117,1.25a3.421,3.421,0,0,1-1.383,1.128A4.548,4.548,0,0,1,221.082,360.008Zm-.26-6.987a1.419,1.419,0,0,0-1.1.458,2.374,2.374,0,0,0-.538,1.31h3.16v-.182a1.693,1.693,0,0,0-.409-1.173A1.468,1.468,0,0,0,220.823,353.022Z" transform="translate(-151.827 -347.779)" fill="#042d25"/>
              <path id="Trazado_103599" data-name="Trazado 103599" d="M229.443,359.41h-2.279V347.339h2.279Z" transform="translate(-153.004 -347.339)" fill="#042d25"/>
              <path id="Trazado_103600" data-name="Trazado 103600" d="M236.733,359.851a2.515,2.515,0,0,1-.228-.762,2.749,2.749,0,0,1-2.146.919,3.018,3.018,0,0,1-2.07-.723,2.325,2.325,0,0,1-.822-1.824,2.4,2.4,0,0,1,1-2.075,4.943,4.943,0,0,1,2.9-.731h1.045v-.487a1.4,1.4,0,0,0-.3-.942,1.188,1.188,0,0,0-.955-.354,1.352,1.352,0,0,0-.9.275.932.932,0,0,0-.326.754h-2.272a2.286,2.286,0,0,1,.456-1.368,3.012,3.012,0,0,1,1.289-.986,4.7,4.7,0,0,1,1.871-.358,3.713,3.713,0,0,1,2.5.79,2.763,2.763,0,0,1,.924,2.22v3.685a4.065,4.065,0,0,0,.337,1.832v.133Zm-1.878-1.579a1.949,1.949,0,0,0,.926-.224,1.467,1.467,0,0,0,.629-.6v-1.461h-.849q-1.7,0-1.815,1.179l-.008.134a.908.908,0,0,0,.3.7A1.155,1.155,0,0,0,234.855,358.271Z" transform="translate(-153.496 -347.779)" fill="#042d25"/>
              <path id="Trazado_103601" data-name="Trazado 103601" d="M244.209,349.008V351.1h1.453v1.667h-1.453v4.244a1.012,1.012,0,0,0,.181.676.907.907,0,0,0,.692.2,3.66,3.66,0,0,0,.668-.055v1.721a4.674,4.674,0,0,1-1.376.2,2.169,2.169,0,0,1-2.437-2.413v-4.582h-1.242V351.1h1.242v-2.089Z" transform="translate(-154.55 -347.53)" fill="#042d25"/>
              <path id="Trazado_103602" data-name="Trazado 103602" d="M247.714,348.732a1.119,1.119,0,0,1,.342-.841,1.473,1.473,0,0,1,1.859,0,1.2,1.2,0,0,1,0,1.69,1.459,1.459,0,0,1-1.847,0A1.117,1.117,0,0,1,247.714,348.732Zm2.414,10.7h-2.28v-8.5h2.28Z" transform="translate(-155.352 -347.364)" fill="#042d25"/>
              <path id="Trazado_103603" data-name="Trazado 103603" d="M255.634,357.1l1.579-5.73h2.374l-2.869,8.5h-2.169l-2.869-8.5h2.374Z" transform="translate(-155.806 -347.799)" fill="#042d25"/>
              <path id="Trazado_103604" data-name="Trazado 103604" d="M266.485,359.851a2.513,2.513,0,0,1-.228-.762,2.749,2.749,0,0,1-2.146.919,3.018,3.018,0,0,1-2.07-.723,2.325,2.325,0,0,1-.822-1.824,2.4,2.4,0,0,1,1-2.075,4.943,4.943,0,0,1,2.9-.731h1.045v-.487a1.4,1.4,0,0,0-.3-.942,1.188,1.188,0,0,0-.955-.354,1.353,1.353,0,0,0-.9.275.932.932,0,0,0-.326.754h-2.272a2.286,2.286,0,0,1,.456-1.368,3.012,3.012,0,0,1,1.289-.986,4.7,4.7,0,0,1,1.871-.358,3.713,3.713,0,0,1,2.5.79,2.763,2.763,0,0,1,.924,2.22v3.685a4.064,4.064,0,0,0,.337,1.832v.133Zm-1.878-1.579a1.948,1.948,0,0,0,.926-.224,1.467,1.467,0,0,0,.629-.6v-1.461h-.849q-1.7,0-1.815,1.179l-.008.134a.908.908,0,0,0,.3.7A1.155,1.155,0,0,0,264.607,358.271Z" transform="translate(-156.896 -347.779)" fill="#042d25"/>
              <path id="Trazado_103605" data-name="Trazado 103605" d="M271.468,352.284a1.145,1.145,0,0,1,.366-.88,1.421,1.421,0,0,1,1.839,0,1.146,1.146,0,0,1,.366.88,1.129,1.129,0,0,1-.362.869,1.444,1.444,0,0,1-1.847,0A1.129,1.129,0,0,1,271.468,352.284Zm0,6.437a1.144,1.144,0,0,1,.366-.88,1.418,1.418,0,0,1,1.839,0,1.144,1.144,0,0,1,.366.88,1.128,1.128,0,0,1-.362.868,1.444,1.444,0,0,1-1.847,0A1.127,1.127,0,0,1,271.468,358.721Z" transform="translate(-158.067 -347.765)" fill="#042d25"/>
            </g>
            <g id="Grupo_56674" data-name="Grupo 56674" transform="translate(215.302 11.275)" style="isolation: isolate">
              <path id="Trazado_103606" data-name="Trazado 103606" d="M322.906,191.023v4.032h-2.358V183.612h4.464a5.161,5.161,0,0,1,2.267.471,3.476,3.476,0,0,1,1.506,1.34,3.735,3.735,0,0,1,.526,1.976,3.283,3.283,0,0,1-1.151,2.653,4.794,4.794,0,0,1-3.187.971Zm0-1.91h2.106a2.072,2.072,0,0,0,1.427-.44,1.6,1.6,0,0,0,.491-1.258,1.889,1.889,0,0,0-.494-1.36,1.853,1.853,0,0,0-1.368-.534h-2.162Z" transform="translate(-320.548 -182.983)" fill="#042d25"/>
              <path id="Trazado_103607" data-name="Trazado 103607" d="M336.88,189.04a6.076,6.076,0,0,0-.818-.063,1.664,1.664,0,0,0-1.69.872v5.564H332.1v-8.5h2.145l.063,1.014a2.1,2.1,0,0,1,1.894-1.171,2.373,2.373,0,0,1,.708.1Z" transform="translate(-321.868 -183.342)" fill="#042d25"/>
              <path id="Trazado_103608" data-name="Trazado 103608" d="M342.6,195.57a4.175,4.175,0,0,1-3.046-1.147,4.079,4.079,0,0,1-1.174-3.058v-.22a5.136,5.136,0,0,1,.5-2.291,3.638,3.638,0,0,1,1.4-1.556,3.936,3.936,0,0,1,2.071-.546,3.529,3.529,0,0,1,2.747,1.1,4.472,4.472,0,0,1,1,3.12v.927h-5.415a2.1,2.1,0,0,0,.664,1.336,2.005,2.005,0,0,0,1.4.5,2.451,2.451,0,0,0,2.051-.951l1.117,1.25a3.415,3.415,0,0,1-1.384,1.128A4.547,4.547,0,0,1,342.6,195.57Zm-.26-6.987a1.419,1.419,0,0,0-1.1.458,2.378,2.378,0,0,0-.539,1.311h3.16v-.182a1.7,1.7,0,0,0-.409-1.173A1.465,1.465,0,0,0,342.345,188.584Z" transform="translate(-322.586 -183.342)" fill="#042d25"/>
              <path id="Trazado_103609" data-name="Trazado 103609" d="M353.1,193.064a.732.732,0,0,0-.413-.656,4.669,4.669,0,0,0-1.324-.428q-3.033-.638-3.034-2.578a2.336,2.336,0,0,1,.939-1.89,3.789,3.789,0,0,1,2.456-.758,4.077,4.077,0,0,1,2.59.763,2.4,2.4,0,0,1,.971,1.98h-2.272a1.1,1.1,0,0,0-.314-.805,1.327,1.327,0,0,0-.982-.318,1.357,1.357,0,0,0-.888.259.819.819,0,0,0-.314.661.7.7,0,0,0,.357.608,3.667,3.667,0,0,0,1.207.4,9.939,9.939,0,0,1,1.43.381,2.351,2.351,0,0,1,1.8,2.287,2.22,2.22,0,0,1-1,1.883,4.31,4.31,0,0,1-2.578.718,4.494,4.494,0,0,1-1.9-.381,3.184,3.184,0,0,1-1.3-1.045,2.43,2.43,0,0,1-.472-1.434h2.154a1.184,1.184,0,0,0,.448.927,1.777,1.777,0,0,0,1.115.322,1.647,1.647,0,0,0,.987-.247A.769.769,0,0,0,353.1,193.064Z" transform="translate(-323.692 -183.342)" fill="#042d25"/>
              <path id="Trazado_103610" data-name="Trazado 103610" d="M357.878,184.295a1.121,1.121,0,0,1,.342-.841,1.473,1.473,0,0,1,1.859,0,1.2,1.2,0,0,1,0,1.69,1.456,1.456,0,0,1-1.847,0A1.117,1.117,0,0,1,357.878,184.295Zm2.414,10.7h-2.28v-8.5h2.28Z" transform="translate(-324.814 -182.927)" fill="#042d25"/>
              <path id="Trazado_103611" data-name="Trazado 103611" d="M362.315,190.643a5.056,5.056,0,0,1,.487-2.256,3.57,3.57,0,0,1,1.4-1.532,4.1,4.1,0,0,1,2.126-.542,3.873,3.873,0,0,1,2.81,1.053,4.23,4.23,0,0,1,1.214,2.861l.015.581a4.446,4.446,0,0,1-1.092,3.14,4.236,4.236,0,0,1-5.867,0,4.527,4.527,0,0,1-1.1-3.207Zm2.271.161a3.181,3.181,0,0,0,.456,1.854,1.638,1.638,0,0,0,2.593.008,3.481,3.481,0,0,0,.464-2.027,3.147,3.147,0,0,0-.464-1.841,1.507,1.507,0,0,0-1.3-.654,1.484,1.484,0,0,0-1.289.649A3.539,3.539,0,0,0,364.586,190.8Zm2.193-7.9h2.476l-2.177,2.437h-1.847Z" transform="translate(-325.321 -182.902)" fill="#042d25"/>
              <path id="Trazado_103612" data-name="Trazado 103612" d="M375.074,186.91l.071.982a2.97,2.97,0,0,1,2.444-1.139,2.463,2.463,0,0,1,2.011.794,3.7,3.7,0,0,1,.677,2.373v5.494h-2.272v-5.438a1.473,1.473,0,0,0-.314-1.05,1.408,1.408,0,0,0-1.045-.326,1.562,1.562,0,0,0-1.438.817v6h-2.272v-8.5Z" transform="translate(-326.535 -183.342)" fill="#042d25"/>
              <path id="Trazado_103613" data-name="Trazado 103613" d="M392.577,195.414a2.52,2.52,0,0,1-.228-.763,2.747,2.747,0,0,1-2.146.919,3.02,3.02,0,0,1-2.071-.723,2.324,2.324,0,0,1-.821-1.823,2.4,2.4,0,0,1,1-2.075,4.946,4.946,0,0,1,2.9-.731h1.045v-.488a1.4,1.4,0,0,0-.3-.942,1.189,1.189,0,0,0-.955-.353,1.352,1.352,0,0,0-.9.275.934.934,0,0,0-.327.755H387.5a2.276,2.276,0,0,1,.456-1.368,3.015,3.015,0,0,1,1.289-.987,4.7,4.7,0,0,1,1.871-.357,3.713,3.713,0,0,1,2.5.789,2.764,2.764,0,0,1,.923,2.221v3.686a4.069,4.069,0,0,0,.338,1.831v.134Zm-1.879-1.58a1.95,1.95,0,0,0,.927-.224,1.465,1.465,0,0,0,.629-.6v-1.462h-.849q-1.706,0-1.816,1.179l-.007.134a.911.911,0,0,0,.3.7A1.161,1.161,0,0,0,390.7,193.833Z" transform="translate(-328.177 -183.342)" fill="#042d25"/>
              <path id="Trazado_103614" data-name="Trazado 103614" d="M405.1,190.8a5.15,5.15,0,0,1-.872,3.187,2.89,2.89,0,0,1-2.437,1.143,2.656,2.656,0,0,1-2.209-1.061l-.1.9h-2.043V182.9h2.272v4.33a2.585,2.585,0,0,1,2.066-.919,2.912,2.912,0,0,1,2.44,1.143,5.152,5.152,0,0,1,.884,3.218Zm-2.271-.165a3.386,3.386,0,0,0-.408-1.882,1.382,1.382,0,0,0-1.218-.593,1.5,1.5,0,0,0-1.493.888V192.4a1.518,1.518,0,0,0,1.508.9,1.4,1.4,0,0,0,1.446-1.085A5.6,5.6,0,0,0,402.826,190.635Z" transform="translate(-329.334 -182.902)" fill="#042d25"/>
              <path id="Trazado_103615" data-name="Trazado 103615" d="M412.216,193.064a.733.733,0,0,0-.413-.656,4.68,4.68,0,0,0-1.324-.428q-3.033-.638-3.034-2.578a2.336,2.336,0,0,1,.939-1.89,3.788,3.788,0,0,1,2.456-.758,4.077,4.077,0,0,1,2.59.763,2.4,2.4,0,0,1,.971,1.98h-2.272a1.1,1.1,0,0,0-.315-.805,1.327,1.327,0,0,0-.982-.318,1.361,1.361,0,0,0-.888.259.822.822,0,0,0-.314.661.7.7,0,0,0,.358.608,3.659,3.659,0,0,0,1.206.4,9.917,9.917,0,0,1,1.43.381,2.35,2.35,0,0,1,1.8,2.287,2.22,2.22,0,0,1-1,1.883,4.305,4.305,0,0,1-2.577.718,4.494,4.494,0,0,1-1.9-.381,3.186,3.186,0,0,1-1.3-1.045,2.435,2.435,0,0,1-.471-1.434h2.153a1.187,1.187,0,0,0,.448.927,1.781,1.781,0,0,0,1.116.322,1.649,1.649,0,0,0,.987-.247A.771.771,0,0,0,412.216,193.064Z" transform="translate(-330.448 -183.342)" fill="#042d25"/>
              <path id="Trazado_103616" data-name="Trazado 103616" d="M416.61,191.083a5.044,5.044,0,0,1,.488-2.256,3.558,3.558,0,0,1,1.4-1.532,4.093,4.093,0,0,1,2.126-.542,3.871,3.871,0,0,1,2.809,1.053,4.229,4.229,0,0,1,1.214,2.861l.016.581a4.446,4.446,0,0,1-1.093,3.14,4.236,4.236,0,0,1-5.867,0,4.527,4.527,0,0,1-1.1-3.207Zm2.272.161a3.181,3.181,0,0,0,.455,1.854,1.639,1.639,0,0,0,2.594.008,3.482,3.482,0,0,0,.463-2.027,3.147,3.147,0,0,0-.463-1.841,1.507,1.507,0,0,0-1.3-.654,1.486,1.486,0,0,0-1.29.649A3.54,3.54,0,0,0,418.882,191.245Z" transform="translate(-331.526 -183.342)" fill="#042d25"/>
              <path id="Trazado_103617" data-name="Trazado 103617" d="M429.7,194.974h-2.279V182.9H429.7Z" transform="translate(-332.761 -182.902)" fill="#042d25"/>
              <path id="Trazado_103618" data-name="Trazado 103618" d="M437.189,194.569a2.847,2.847,0,0,1-2.326,1.021,2.684,2.684,0,0,1-2.087-.786,3.356,3.356,0,0,1-.735-2.3V186.93h2.272v5.5q0,1.33,1.21,1.329a1.64,1.64,0,0,0,1.587-.8V186.93h2.279v8.5h-2.137Z" transform="translate(-333.289 -183.362)" fill="#042d25"/>
              <path id="Trazado_103619" data-name="Trazado 103619" d="M444.889,184.57v2.09h1.453v1.666h-1.453v4.244a1.014,1.014,0,0,0,.181.676.907.907,0,0,0,.692.2,3.582,3.582,0,0,0,.668-.055v1.722a4.669,4.669,0,0,1-1.376.2,2.168,2.168,0,0,1-2.437-2.412v-4.583h-1.241V186.66h1.241v-2.09Z" transform="translate(-334.356 -183.093)" fill="#042d25"/>
              <path id="Trazado_103620" data-name="Trazado 103620" d="M453.3,195.414a2.521,2.521,0,0,1-.229-.763,2.744,2.744,0,0,1-2.145.919,3.02,3.02,0,0,1-2.071-.723,2.324,2.324,0,0,1-.821-1.823,2.4,2.4,0,0,1,1-2.075,4.946,4.946,0,0,1,2.9-.731h1.045v-.488a1.4,1.4,0,0,0-.3-.942,1.19,1.19,0,0,0-.956-.353,1.352,1.352,0,0,0-.9.275.936.936,0,0,0-.326.755H448.22a2.281,2.281,0,0,1,.455-1.368,3.02,3.02,0,0,1,1.289-.987,4.7,4.7,0,0,1,1.871-.357,3.717,3.717,0,0,1,2.5.789,2.767,2.767,0,0,1,.923,2.221v3.686a4.058,4.058,0,0,0,.338,1.831v.134Zm-1.879-1.58a1.952,1.952,0,0,0,.927-.224,1.465,1.465,0,0,0,.629-.6v-1.462h-.849q-1.706,0-1.816,1.179l-.008.134a.911.911,0,0,0,.3.7A1.16,1.16,0,0,0,451.418,193.833Z" transform="translate(-335.116 -183.342)" fill="#042d25"/>
              <path id="Trazado_103621" data-name="Trazado 103621" d="M458.279,187.847a1.143,1.143,0,0,1,.366-.88,1.421,1.421,0,0,1,1.839,0,1.143,1.143,0,0,1,.366.88,1.13,1.13,0,0,1-.361.868,1.442,1.442,0,0,1-1.848,0A1.127,1.127,0,0,1,458.279,187.847Zm0,6.437a1.144,1.144,0,0,1,.366-.88,1.421,1.421,0,0,1,1.839,0,1.144,1.144,0,0,1,.366.88,1.132,1.132,0,0,1-.361.869,1.445,1.445,0,0,1-1.848,0A1.129,1.129,0,0,1,458.279,194.283Z" transform="translate(-336.287 -183.328)" fill="#042d25"/>
            </g>
            <g id="Grupo_56675" data-name="Grupo 56675" transform="translate(215.302 94.927)" style="isolation: isolate">
              <path id="Trazado_103622" data-name="Trazado 103622" d="M327.433,284.823h-4.527V289.5h-2.358V278.056H328v1.911h-5.093v2.955h4.527Z" transform="translate(-320.548 -277.427)" fill="#042d25"/>
              <path id="Trazado_103623" data-name="Trazado 103623" d="M329.936,285.088a5.051,5.051,0,0,1,.487-2.256,3.57,3.57,0,0,1,1.4-1.532,4.1,4.1,0,0,1,2.126-.543,3.877,3.877,0,0,1,2.81,1.053,4.231,4.231,0,0,1,1.214,2.861l.015.582a4.447,4.447,0,0,1-1.092,3.14,4.235,4.235,0,0,1-5.867,0,4.523,4.523,0,0,1-1.1-3.206Zm2.272.161a3.181,3.181,0,0,0,.455,1.854,1.637,1.637,0,0,0,2.593.007,3.469,3.469,0,0,0,.464-2.026,3.138,3.138,0,0,0-.464-1.841,1.506,1.506,0,0,0-1.3-.654,1.482,1.482,0,0,0-1.289.649A3.54,3.54,0,0,0,332.208,285.249Zm2.192-7.9h2.476l-2.177,2.437h-1.848Z" transform="translate(-321.621 -277.346)" fill="#042d25"/>
              <path id="Trazado_103624" data-name="Trazado 103624" d="M345.389,283.485a6.074,6.074,0,0,0-.818-.063,1.664,1.664,0,0,0-1.69.872v5.564h-2.271v-8.5h2.145l.064,1.014a2.1,2.1,0,0,1,1.894-1.172,2.383,2.383,0,0,1,.708.1Z" transform="translate(-322.841 -277.786)" fill="#042d25"/>
              <path id="Trazado_103625" data-name="Trazado 103625" d="M349.369,281.355l.071.95a2.988,2.988,0,0,1,2.444-1.108,2.268,2.268,0,0,1,2.256,1.3,2.921,2.921,0,0,1,2.554-1.3,2.539,2.539,0,0,1,2.059.806,3.7,3.7,0,0,1,.676,2.424v5.431H357.15v-5.423a1.617,1.617,0,0,0-.283-1.057,1.251,1.251,0,0,0-1-.334,1.418,1.418,0,0,0-1.415.974l.008,5.84h-2.271v-5.415a1.6,1.6,0,0,0-.291-1.069,1.267,1.267,0,0,0-.99-.329,1.471,1.471,0,0,0-1.4.8v6.012h-2.272v-8.5Z" transform="translate(-323.598 -277.786)" fill="#042d25"/>
              <path id="Trazado_103626" data-name="Trazado 103626" d="M368.058,289.014a2.85,2.85,0,0,1-2.327,1.021,2.686,2.686,0,0,1-2.087-.786,3.352,3.352,0,0,1-.734-2.3v-5.572h2.271v5.5q0,1.33,1.21,1.329a1.639,1.639,0,0,0,1.588-.8v-6.026h2.279v8.5h-2.137Z" transform="translate(-325.389 -277.806)" fill="#042d25"/>
              <path id="Trazado_103627" data-name="Trazado 103627" d="M375.553,289.418h-2.28V277.346h2.28Z" transform="translate(-326.573 -277.346)" fill="#042d25"/>
              <path id="Trazado_103628" data-name="Trazado 103628" d="M382.843,289.858a2.529,2.529,0,0,1-.228-.763,2.749,2.749,0,0,1-2.146.919,3.022,3.022,0,0,1-2.071-.723,2.325,2.325,0,0,1-.821-1.823,2.4,2.4,0,0,1,1-2.075,4.935,4.935,0,0,1,2.9-.731h1.045v-.488a1.4,1.4,0,0,0-.3-.942,1.188,1.188,0,0,0-.955-.354,1.353,1.353,0,0,0-.9.275.933.933,0,0,0-.326.755h-2.272a2.277,2.277,0,0,1,.456-1.368,3.007,3.007,0,0,1,1.289-.987,4.7,4.7,0,0,1,1.871-.358,3.713,3.713,0,0,1,2.5.79,2.763,2.763,0,0,1,.923,2.22v3.686a4.068,4.068,0,0,0,.338,1.831v.134Zm-1.879-1.58a1.95,1.95,0,0,0,.927-.224,1.461,1.461,0,0,0,.629-.6v-1.461h-.848q-1.7,0-1.816,1.179l-.007.134a.91.91,0,0,0,.3.7A1.158,1.158,0,0,0,380.964,288.278Z" transform="translate(-327.065 -277.786)" fill="#042d25"/>
              <path id="Trazado_103629" data-name="Trazado 103629" d="M387.826,282.291a1.141,1.141,0,0,1,.365-.88,1.418,1.418,0,0,1,1.839,0,1.142,1.142,0,0,1,.366.88,1.127,1.127,0,0,1-.361.869,1.445,1.445,0,0,1-1.848,0A1.127,1.127,0,0,1,387.826,282.291Zm0,6.437a1.143,1.143,0,0,1,.365-.88,1.421,1.421,0,0,1,1.839,0,1.144,1.144,0,0,1,.366.88,1.13,1.13,0,0,1-.361.869,1.448,1.448,0,0,1-1.848,0A1.129,1.129,0,0,1,387.826,288.728Z" transform="translate(-328.236 -277.772)" fill="#042d25"/>
            </g>
            <g id="Grupo_56676" data-name="Grupo 56676" transform="translate(215.302 156.921)">
              <path id="Trazado_103630" data-name="Trazado 103630" d="M320.548,359.492V348.049h3.522a5.346,5.346,0,0,1,2.7.68,4.733,4.733,0,0,1,1.858,1.933,5.964,5.964,0,0,1,.668,2.849v.526a5.993,5.993,0,0,1-.655,2.838,4.713,4.713,0,0,1-1.851,1.926,5.385,5.385,0,0,1-2.7.691Zm2.358-9.533V357.6h1.14a2.561,2.561,0,0,0,2.114-.9,4.087,4.087,0,0,0,.747-2.586v-.6a4.152,4.152,0,0,0-.723-2.645,2.554,2.554,0,0,0-2.114-.9Z" transform="translate(-320.548 -347.42)" fill="#042d25"/>
              <path id="Trazado_103631" data-name="Trazado 103631" d="M331.791,355.52a5.038,5.038,0,0,1,.487-2.255,3.567,3.567,0,0,1,1.4-1.533,4.093,4.093,0,0,1,2.126-.542,3.873,3.873,0,0,1,2.81,1.053,4.231,4.231,0,0,1,1.214,2.861l.016.582a4.439,4.439,0,0,1-1.093,3.139,4.234,4.234,0,0,1-5.867,0,4.524,4.524,0,0,1-1.1-3.206Zm2.271.161a3.172,3.172,0,0,0,.456,1.854,1.638,1.638,0,0,0,2.593.008,3.479,3.479,0,0,0,.463-2.027,3.148,3.148,0,0,0-.463-1.842,1.508,1.508,0,0,0-1.3-.653,1.482,1.482,0,0,0-1.289.649A3.531,3.531,0,0,0,334.062,355.681Z" transform="translate(-321.833 -347.779)" fill="#042d25"/>
              <path id="Trazado_103632" data-name="Trazado 103632" d="M344.55,351.347l.071.983a2.968,2.968,0,0,1,2.444-1.14,2.469,2.469,0,0,1,2.012.794,3.706,3.706,0,0,1,.676,2.374v5.493h-2.272v-5.438a1.47,1.47,0,0,0-.315-1.049,1.4,1.4,0,0,0-1.045-.326,1.56,1.56,0,0,0-1.438.817v6h-2.272v-8.5Z" transform="translate(-323.047 -347.779)" fill="#042d25"/>
              <path id="Trazado_103633" data-name="Trazado 103633" d="M352.244,355.1a5.126,5.126,0,0,1,.892-3.167,2.9,2.9,0,0,1,2.44-1.179,2.6,2.6,0,0,1,2.051.927v-4.338h2.279V359.41h-2.051l-.11-.9a2.672,2.672,0,0,1-2.185,1.061,2.884,2.884,0,0,1-2.408-1.183A5.284,5.284,0,0,1,352.244,355.1Zm2.271.169a3.362,3.362,0,0,0,.416,1.834,1.357,1.357,0,0,0,1.211.637,1.518,1.518,0,0,0,1.485-.889v-3.36a1.5,1.5,0,0,0-1.469-.889Q354.514,352.6,354.515,355.265Z" transform="translate(-324.17 -347.339)" fill="#042d25"/>
              <path id="Trazado_103634" data-name="Trazado 103634" d="M366.757,360.008a4.176,4.176,0,0,1-3.046-1.148,4.078,4.078,0,0,1-1.174-3.057v-.221a5.131,5.131,0,0,1,.5-2.29,3.637,3.637,0,0,1,1.4-1.556,3.937,3.937,0,0,1,2.071-.547,3.529,3.529,0,0,1,2.747,1.1,4.473,4.473,0,0,1,1,3.12v.927H364.84a2.1,2.1,0,0,0,.664,1.336,2.006,2.006,0,0,0,1.4.5,2.453,2.453,0,0,0,2.051-.95l1.116,1.25a3.41,3.41,0,0,1-1.384,1.128A4.541,4.541,0,0,1,366.757,360.008Zm-.259-6.987a1.418,1.418,0,0,0-1.1.458,2.375,2.375,0,0,0-.539,1.31h3.16v-.182a1.7,1.7,0,0,0-.409-1.173A1.468,1.468,0,0,0,366.5,353.022Z" transform="translate(-325.346 -347.779)" fill="#042d25"/>
              <path id="Trazado_103635" data-name="Trazado 103635" d="M372.83,352.284a1.143,1.143,0,0,1,.366-.88,1.421,1.421,0,0,1,1.839,0,1.145,1.145,0,0,1,.365.88,1.129,1.129,0,0,1-.361.869,1.444,1.444,0,0,1-1.847,0A1.129,1.129,0,0,1,372.83,352.284Zm0,6.437a1.141,1.141,0,0,1,.366-.88,1.418,1.418,0,0,1,1.839,0,1.143,1.143,0,0,1,.365.88,1.127,1.127,0,0,1-.361.868,1.444,1.444,0,0,1-1.847,0A1.127,1.127,0,0,1,372.83,358.721Z" transform="translate(-326.523 -347.765)" fill="#042d25"/>
            </g>
            <g id="Grupo_56677" data-name="Grupo 56677" transform="translate(215.302 180.818)" style="isolation: isolate">
              <path id="Trazado_103636" data-name="Trazado 103636" d="M322.906,382.44v4.032h-2.358V375.029h4.464a5.16,5.16,0,0,1,2.267.471,3.476,3.476,0,0,1,1.506,1.34,3.735,3.735,0,0,1,.526,1.976,3.283,3.283,0,0,1-1.151,2.653,4.794,4.794,0,0,1-3.187.971Zm0-1.91h2.106a2.072,2.072,0,0,0,1.427-.44,1.6,1.6,0,0,0,.491-1.258,1.889,1.889,0,0,0-.494-1.36,1.853,1.853,0,0,0-1.368-.534h-2.162Z" transform="translate(-320.548 -374.4)" fill="#042d25"/>
              <path id="Trazado_103637" data-name="Trazado 103637" d="M336.888,386.831a2.522,2.522,0,0,1-.228-.763,2.746,2.746,0,0,1-2.145.919,3.019,3.019,0,0,1-2.071-.723,2.325,2.325,0,0,1-.821-1.823,2.4,2.4,0,0,1,1-2.075,4.945,4.945,0,0,1,2.9-.731h1.046v-.488a1.4,1.4,0,0,0-.3-.942,1.188,1.188,0,0,0-.955-.353,1.352,1.352,0,0,0-.9.275.936.936,0,0,0-.326.755h-2.272a2.282,2.282,0,0,1,.456-1.367,3.02,3.02,0,0,1,1.289-.987,4.7,4.7,0,0,1,1.871-.357,3.713,3.713,0,0,1,2.5.789,2.764,2.764,0,0,1,.924,2.221v3.686a4.056,4.056,0,0,0,.338,1.831v.134Zm-1.878-1.58a1.955,1.955,0,0,0,.927-.224,1.465,1.465,0,0,0,.629-.6v-1.462h-.849q-1.706,0-1.816,1.179l-.008.134a.908.908,0,0,0,.3.7A1.16,1.16,0,0,0,335.01,385.25Z" transform="translate(-321.814 -374.759)" fill="#042d25"/>
              <path id="Trazado_103638" data-name="Trazado 103638" d="M349.409,382.217a5.144,5.144,0,0,1-.872,3.187,2.889,2.889,0,0,1-2.436,1.143,2.654,2.654,0,0,1-2.209-1.061l-.1.9h-2.043V374.319h2.271v4.33a2.586,2.586,0,0,1,2.067-.919,2.914,2.914,0,0,1,2.44,1.143,5.158,5.158,0,0,1,.884,3.218Zm-2.271-.165a3.379,3.379,0,0,0-.409-1.882,1.381,1.381,0,0,0-1.218-.593,1.5,1.5,0,0,0-1.493.888v3.356a1.519,1.519,0,0,0,1.509.9,1.4,1.4,0,0,0,1.446-1.085A5.6,5.6,0,0,0,347.138,382.052Z" transform="translate(-322.97 -374.319)" fill="#042d25"/>
              <path id="Trazado_103639" data-name="Trazado 103639" d="M356.527,384.481a.731.731,0,0,0-.413-.656,4.668,4.668,0,0,0-1.324-.428q-3.033-.638-3.033-2.578a2.336,2.336,0,0,1,.939-1.89,3.788,3.788,0,0,1,2.456-.758,4.082,4.082,0,0,1,2.589.762,2.4,2.4,0,0,1,.971,1.98h-2.271a1.1,1.1,0,0,0-.314-.805,1.33,1.33,0,0,0-.982-.318,1.361,1.361,0,0,0-.888.259.822.822,0,0,0-.314.661.7.7,0,0,0,.358.608,3.661,3.661,0,0,0,1.206.4,9.923,9.923,0,0,1,1.43.381,2.351,2.351,0,0,1,1.8,2.287,2.22,2.22,0,0,1-1,1.883,4.308,4.308,0,0,1-2.578.718,4.493,4.493,0,0,1-1.9-.381,3.18,3.18,0,0,1-1.3-1.045,2.429,2.429,0,0,1-.471-1.434h2.153a1.184,1.184,0,0,0,.448.927,1.778,1.778,0,0,0,1.116.322,1.644,1.644,0,0,0,.986-.247A.769.769,0,0,0,356.527,384.481Z" transform="translate(-324.084 -374.759)" fill="#042d25"/>
              <path id="Trazado_103640" data-name="Trazado 103640" d="M361.446,379.264a1.142,1.142,0,0,1,.365-.88,1.422,1.422,0,0,1,1.84,0,1.142,1.142,0,0,1,.365.88,1.127,1.127,0,0,1-.361.868,1.441,1.441,0,0,1-1.847,0A1.127,1.127,0,0,1,361.446,379.264Zm0,6.436a1.143,1.143,0,0,1,.365-.88,1.422,1.422,0,0,1,1.84,0,1.143,1.143,0,0,1,.365.88,1.129,1.129,0,0,1-.361.869,1.443,1.443,0,0,1-1.847,0A1.129,1.129,0,0,1,361.446,385.7Z" transform="translate(-325.222 -374.745)" fill="#042d25"/>
            </g>
            <g id="Grupo_56678" data-name="Grupo 56678" transform="translate(261.641 180.818)" style="isolation: isolate">
              <path id="Trazado_103641" data-name="Trazado 103641" d="M374.374,381.992v4.48h-1.508V375.029h4.22a4.241,4.241,0,0,1,2.943.958,3.252,3.252,0,0,1,1.065,2.538,3.209,3.209,0,0,1-1.041,2.566,4.434,4.434,0,0,1-2.983.9Zm0-1.234h2.712a2.713,2.713,0,0,0,1.855-.57,2.089,2.089,0,0,0,.645-1.65,2.155,2.155,0,0,0-.645-1.637,2.534,2.534,0,0,0-1.768-.638h-2.8Z" transform="translate(-372.866 -374.4)" fill="#fff"/>
              <path id="Trazado_103642" data-name="Trazado 103642" d="M388.183,379.631a4.388,4.388,0,0,0-.715-.055,1.918,1.918,0,0,0-1.942,1.219v6.035h-1.453v-8.5h1.415l.024.982a2.264,2.264,0,0,1,2.027-1.139,1.48,1.48,0,0,1,.644.11Z" transform="translate(-374.147 -374.759)" fill="#fff"/>
              <path id="Trazado_103643" data-name="Trazado 103643" d="M393.7,386.987a3.715,3.715,0,0,1-2.814-1.135,4.215,4.215,0,0,1-1.084-3.037v-.267a5.1,5.1,0,0,1,.484-2.259,3.764,3.764,0,0,1,1.352-1.556,3.4,3.4,0,0,1,1.882-.562,3.184,3.184,0,0,1,2.577,1.092,4.726,4.726,0,0,1,.919,3.128V383h-5.761a3.024,3.024,0,0,0,.735,2.031,2.308,2.308,0,0,0,1.787.774,2.542,2.542,0,0,0,1.306-.314,3.268,3.268,0,0,0,.934-.833l.888.692A3.569,3.569,0,0,1,393.7,386.987Zm-.181-7.623a1.938,1.938,0,0,0-1.477.64,3.113,3.113,0,0,0-.739,1.8h4.259v-.11a2.771,2.771,0,0,0-.6-1.717A1.826,1.826,0,0,0,393.522,379.364Z" transform="translate(-374.802 -374.759)" fill="#fff"/>
              <path id="Trazado_103644" data-name="Trazado 103644" d="M404.755,384.576a1.073,1.073,0,0,0-.444-.917,4.292,4.292,0,0,0-1.548-.562,7.286,7.286,0,0,1-1.753-.566,2.484,2.484,0,0,1-.958-.786,1.877,1.877,0,0,1-.311-1.084,2.207,2.207,0,0,1,.884-1.769,3.457,3.457,0,0,1,2.26-.723,3.556,3.556,0,0,1,2.345.746,2.373,2.373,0,0,1,.9,1.91h-1.461a1.312,1.312,0,0,0-.507-1.029,1.9,1.9,0,0,0-1.277-.433,1.993,1.993,0,0,0-1.243.346,1.087,1.087,0,0,0-.447.9.883.883,0,0,0,.416.794,5.1,5.1,0,0,0,1.5.511,7.856,7.856,0,0,1,1.765.582,2.577,2.577,0,0,1,1,.813,2,2,0,0,1,.326,1.159,2.177,2.177,0,0,1-.911,1.827,3.825,3.825,0,0,1-2.366.687,4.3,4.3,0,0,1-1.808-.361,2.95,2.95,0,0,1-1.23-1.011,2.436,2.436,0,0,1-.444-1.4H400.9a1.507,1.507,0,0,0,.585,1.159,2.278,2.278,0,0,0,1.443.428,2.341,2.341,0,0,0,1.324-.334A1.023,1.023,0,0,0,404.755,384.576Z" transform="translate(-375.904 -374.759)" fill="#fff"/>
              <path id="Trazado_103645" data-name="Trazado 103645" d="M409.228,375.692a.872.872,0,0,1,.216-.6.813.813,0,0,1,.64-.244.826.826,0,0,1,.645.244.862.862,0,0,1,.22.6.9.9,0,0,1-1.5.589A.842.842,0,0,1,409.228,375.692Zm1.572,10.759h-1.454v-8.5H410.8Z" transform="translate(-377.021 -374.38)" fill="#fff"/>
              <path id="Trazado_103646" data-name="Trazado 103646" d="M413.2,382.06a5.018,5.018,0,0,1,.491-2.248,3.663,3.663,0,0,1,1.368-1.54,3.725,3.725,0,0,1,2-.542,3.587,3.587,0,0,1,2.81,1.2,4.629,4.629,0,0,1,1.073,3.2v.1a5.067,5.067,0,0,1-.476,2.228A3.608,3.608,0,0,1,419.1,386a3.759,3.759,0,0,1-2.032.55,3.576,3.576,0,0,1-2.8-1.2,4.6,4.6,0,0,1-1.073-3.183Zm1.461.173a3.639,3.639,0,0,0,.656,2.272,2.225,2.225,0,0,0,3.517-.012,3.976,3.976,0,0,0,.653-2.432,3.632,3.632,0,0,0-.664-2.267,2.113,2.113,0,0,0-1.765-.869,2.089,2.089,0,0,0-1.737.857A3.953,3.953,0,0,0,414.656,382.233Zm3.058-7.914h1.76l-2.106,2.31-1.17,0Z" transform="translate(-377.475 -374.319)" fill="#fff"/>
              <path id="Trazado_103647" data-name="Trazado 103647" d="M425.368,378.327l.047,1.069a3.1,3.1,0,0,1,2.546-1.226q2.7,0,2.719,3.042v5.619h-1.454V381.2a1.956,1.956,0,0,0-.421-1.36,1.681,1.681,0,0,0-1.284-.44,2.1,2.1,0,0,0-1.243.377,2.553,2.553,0,0,0-.833.99v6.059h-1.454v-8.5Z" transform="translate(-378.709 -374.759)" fill="#fff"/>
              <path id="Trazado_103648" data-name="Trazado 103648" d="M443.737,386.831a3.065,3.065,0,0,1-.2-.9,3.243,3.243,0,0,1-2.421,1.053,3,3,0,0,1-2.064-.711,2.3,2.3,0,0,1-.805-1.8,2.4,2.4,0,0,1,1.01-2.063,4.763,4.763,0,0,1,2.841-.735h1.415v-.668a1.63,1.63,0,0,0-.456-1.214,1.83,1.83,0,0,0-1.344-.452,2.125,2.125,0,0,0-1.3.392,1.159,1.159,0,0,0-.526.951h-1.462a2,2,0,0,1,.453-1.23,3.091,3.091,0,0,1,1.226-.939,4.129,4.129,0,0,1,1.7-.345,3.363,3.363,0,0,1,2.3.734,2.655,2.655,0,0,1,.864,2.024v3.914a4.782,4.782,0,0,0,.3,1.863v.126Zm-2.413-1.108a2.561,2.561,0,0,0,1.3-.353,2.145,2.145,0,0,0,.887-.92V382.7h-1.14q-2.672,0-2.671,1.564a1.324,1.324,0,0,0,.455,1.069A1.752,1.752,0,0,0,441.324,385.723Z" transform="translate(-380.337 -374.759)" fill="#fff"/>
              <path id="Trazado_103649" data-name="Trazado 103649" d="M455.6,382.233a5.052,5.052,0,0,1-.9,3.132,2.862,2.862,0,0,1-2.4,1.182,2.964,2.964,0,0,1-2.492-1.139l-.071.982H448.4V374.319h1.454v4.5a2.949,2.949,0,0,1,2.429-1.092,2.882,2.882,0,0,1,2.433,1.171,5.209,5.209,0,0,1,.884,3.206Zm-1.454-.165a3.932,3.932,0,0,0-.573-2.295,1.9,1.9,0,0,0-1.651-.81,2.136,2.136,0,0,0-2.067,1.336v3.678a2.194,2.194,0,0,0,2.083,1.336,1.887,1.887,0,0,0,1.626-.809A4.18,4.18,0,0,0,454.149,382.068Z" transform="translate(-381.498 -374.319)" fill="#fff"/>
              <path id="Trazado_103650" data-name="Trazado 103650" d="M463.5,384.576a1.073,1.073,0,0,0-.444-.917,4.292,4.292,0,0,0-1.548-.562,7.287,7.287,0,0,1-1.753-.566,2.484,2.484,0,0,1-.958-.786,1.877,1.877,0,0,1-.311-1.084,2.207,2.207,0,0,1,.884-1.769,3.457,3.457,0,0,1,2.26-.723,3.556,3.556,0,0,1,2.345.746,2.373,2.373,0,0,1,.9,1.91h-1.461a1.312,1.312,0,0,0-.507-1.029,1.9,1.9,0,0,0-1.277-.433,1.993,1.993,0,0,0-1.243.346,1.087,1.087,0,0,0-.447.9.883.883,0,0,0,.416.794,5.1,5.1,0,0,0,1.5.511,7.855,7.855,0,0,1,1.765.582,2.577,2.577,0,0,1,1,.813,2,2,0,0,1,.326,1.159,2.177,2.177,0,0,1-.911,1.827,3.824,3.824,0,0,1-2.366.687,4.3,4.3,0,0,1-1.808-.361,2.95,2.95,0,0,1-1.23-1.011,2.436,2.436,0,0,1-.444-1.4h1.453a1.507,1.507,0,0,0,.585,1.159,2.277,2.277,0,0,0,1.443.428,2.341,2.341,0,0,0,1.324-.334A1.023,1.023,0,0,0,463.5,384.576Z" transform="translate(-382.618 -374.759)" fill="#fff"/>
              <path id="Trazado_103651" data-name="Trazado 103651" d="M467.535,382.5a5.018,5.018,0,0,1,.491-2.248,3.663,3.663,0,0,1,1.368-1.54,3.723,3.723,0,0,1,2-.542,3.587,3.587,0,0,1,2.81,1.2,4.629,4.629,0,0,1,1.073,3.2v.1a5.068,5.068,0,0,1-.476,2.228,3.609,3.609,0,0,1-1.36,1.536,3.759,3.759,0,0,1-2.032.55,3.575,3.575,0,0,1-2.8-1.2,4.6,4.6,0,0,1-1.073-3.183Zm1.461.173a3.639,3.639,0,0,0,.656,2.272,2.225,2.225,0,0,0,3.517-.012,3.976,3.976,0,0,0,.652-2.432,3.632,3.632,0,0,0-.664-2.267,2.111,2.111,0,0,0-1.764-.869,2.089,2.089,0,0,0-1.737.857A3.953,3.953,0,0,0,469,382.673Z" transform="translate(-383.684 -374.759)" fill="#fff"/>
              <path id="Trazado_103652" data-name="Trazado 103652" d="M479.929,386.391h-1.454V374.319h1.454Z" transform="translate(-384.935 -374.319)" fill="#fff"/>
              <path id="Trazado_103653" data-name="Trazado 103653" d="M487.989,386.01a3.086,3.086,0,0,1-2.491,1,2.644,2.644,0,0,1-2.071-.789,3.414,3.414,0,0,1-.719-2.338v-5.533h1.453v5.494q0,1.933,1.572,1.933a2.176,2.176,0,0,0,2.216-1.242v-6.185H489.4v8.5h-1.384Z" transform="translate(-385.418 -374.779)" fill="#fff"/>
              <path id="Trazado_103654" data-name="Trazado 103654" d="M494.6,376.022v2.059h1.588v1.124H494.6v5.28a1.18,1.18,0,0,0,.213.768.9.9,0,0,0,.723.255,3.506,3.506,0,0,0,.692-.094v1.172a4.215,4.215,0,0,1-1.116.156,1.81,1.81,0,0,1-1.469-.589,2.532,2.532,0,0,1-.5-1.674v-5.274H491.6v-1.124h1.548v-2.059Z" transform="translate(-386.434 -374.514)" fill="#fff"/>
              <path id="Trazado_103655" data-name="Trazado 103655" d="M503.916,386.831a3.031,3.031,0,0,1-.2-.9,3.243,3.243,0,0,1-2.421,1.053,3,3,0,0,1-2.063-.711,2.3,2.3,0,0,1-.806-1.8,2.4,2.4,0,0,1,1.011-2.063,4.76,4.76,0,0,1,2.841-.735h1.415v-.668a1.633,1.633,0,0,0-.455-1.214,1.833,1.833,0,0,0-1.345-.452,2.127,2.127,0,0,0-1.3.392,1.159,1.159,0,0,0-.526.951H498.6a2.009,2.009,0,0,1,.452-1.23,3.091,3.091,0,0,1,1.226-.939,4.129,4.129,0,0,1,1.7-.345,3.363,3.363,0,0,1,2.3.734,2.652,2.652,0,0,1,.865,2.024v3.914a4.782,4.782,0,0,0,.3,1.863v.126Zm-2.414-1.108a2.561,2.561,0,0,0,1.3-.353,2.146,2.146,0,0,0,.888-.92V382.7h-1.139q-2.673,0-2.672,1.564a1.322,1.322,0,0,0,.456,1.069A1.748,1.748,0,0,0,501.5,385.723Z" transform="translate(-387.214 -374.759)" fill="#fff"/>
              <path id="Trazado_103656" data-name="Trazado 103656" d="M508.618,386.973a.91.91,0,0,1,.224-.629.853.853,0,0,1,.671-.252.882.882,0,0,1,.68.252.9.9,0,0,1,.231.629.846.846,0,0,1-.231.606.9.9,0,0,1-.68.244.808.808,0,0,1-.9-.849Z" transform="translate(-388.379 -375.664)" fill="#fff"/>
            </g>
            <g id="Grupo_56679" data-name="Grupo 56679" transform="translate(61.914 205.978)" style="isolation: isolate">
              <path id="Trazado_103657" data-name="Trazado 103657" d="M147.37,410.993a12.145,12.145,0,0,1,.476-3.411,9.935,9.935,0,0,1,1.418-2.971,6.035,6.035,0,0,1,1.957-1.887l.3.959a6.252,6.252,0,0,0-1.882,2.688,11.644,11.644,0,0,0-.805,4.047l-.008.668a11.718,11.718,0,0,0,1.108,5.267,6.3,6.3,0,0,0,1.587,2.09l-.3.887a6.232,6.232,0,0,1-2-1.949A10.926,10.926,0,0,1,147.37,410.993Z" transform="translate(-147.37 -402.725)" fill="#fff"/>
              <path id="Trazado_103658" data-name="Trazado 103658" d="M158.3,415.82h-1.461V406.13l-2.932,1.077v-1.321l4.166-1.564h.228Z" transform="translate(-148.117 -402.907)" fill="#fff"/>
              <path id="Trazado_103659" data-name="Trazado 103659" d="M170.848,410.927a6.644,6.644,0,0,1-.872,3.8,3.625,3.625,0,0,1-5.438.028,6.312,6.312,0,0,1-.911-3.628v-1.941a6.5,6.5,0,0,1,.872-3.749,3.691,3.691,0,0,1,5.454-.043,6.278,6.278,0,0,1,.9,3.651Zm-1.453-1.988a5.325,5.325,0,0,0-.519-2.693,1.786,1.786,0,0,0-1.642-.844,1.762,1.762,0,0,0-1.627.841,5.2,5.2,0,0,0-.526,2.586v2.326a5.4,5.4,0,0,0,.539,2.739,1.778,1.778,0,0,0,1.63.884,1.757,1.757,0,0,0,1.6-.833,5.213,5.213,0,0,0,.546-2.624Z" transform="translate(-149.228 -402.894)" fill="#fff"/>
              <path id="Trazado_103660" data-name="Trazado 103660" d="M179.918,407.683l.039.943a3.141,3.141,0,0,1,2.523-1.1,2.432,2.432,0,0,1,2.43,1.368,3.219,3.219,0,0,1,1.1-.991,3.27,3.27,0,0,1,1.608-.376q2.8,0,2.845,2.963v5.7H189.01v-5.612a1.954,1.954,0,0,0-.416-1.363,1.835,1.835,0,0,0-1.4-.452,1.927,1.927,0,0,0-1.345.484,1.959,1.959,0,0,0-.621,1.3v5.643h-1.461v-5.572a1.623,1.623,0,0,0-1.816-1.855A1.944,1.944,0,0,0,180,409.978v6.209h-1.454v-8.5Z" transform="translate(-150.932 -403.274)" fill="#fff"/>
              <path id="Trazado_103661" data-name="Trazado 103661" d="M197.84,415.156a2.093,2.093,0,0,0,1.36-.471,1.66,1.66,0,0,0,.645-1.179h1.376a2.642,2.642,0,0,1-.5,1.391,3.32,3.32,0,0,1-1.238,1.053,3.577,3.577,0,0,1-1.639.392,3.5,3.5,0,0,1-2.763-1.158,4.618,4.618,0,0,1-1.026-3.172v-.244a5.119,5.119,0,0,1,.456-2.208,3.467,3.467,0,0,1,1.308-1.5,3.721,3.721,0,0,1,2.016-.534,3.407,3.407,0,0,1,2.377.857,3.063,3.063,0,0,1,1.011,2.224h-1.376a2.009,2.009,0,0,0-.625-1.356,1.945,1.945,0,0,0-1.387-.531,2.037,2.037,0,0,0-1.717.8,3.747,3.747,0,0,0-.608,2.306v.275a3.667,3.667,0,0,0,.6,2.263A2.044,2.044,0,0,0,197.84,415.156Z" transform="translate(-152.705 -403.274)" fill="#fff"/>
              <path id="Trazado_103662" data-name="Trazado 103662" d="M209.209,416.187a3.04,3.04,0,0,1-.2-.9,3.243,3.243,0,0,1-2.421,1.053,3,3,0,0,1-2.063-.711,2.3,2.3,0,0,1-.806-1.8,2.4,2.4,0,0,1,1.011-2.063,4.754,4.754,0,0,1,2.841-.735h1.415v-.668a1.633,1.633,0,0,0-.455-1.214,1.833,1.833,0,0,0-1.345-.452,2.127,2.127,0,0,0-1.3.392,1.159,1.159,0,0,0-.526.951h-1.461a2.009,2.009,0,0,1,.452-1.23,3.083,3.083,0,0,1,1.226-.939,4.13,4.13,0,0,1,1.7-.345,3.363,3.363,0,0,1,2.3.734,2.652,2.652,0,0,1,.864,2.024V414.2a4.782,4.782,0,0,0,.3,1.863v.126Zm-2.414-1.108a2.56,2.56,0,0,0,1.3-.353,2.145,2.145,0,0,0,.887-.92V412.06h-1.139q-2.673,0-2.672,1.564a1.322,1.322,0,0,0,.456,1.069A1.748,1.748,0,0,0,206.8,415.079Z" transform="translate(-153.809 -403.274)" fill="#fff"/>
              <path id="Trazado_103663" data-name="Trazado 103663" d="M217.128,411.072a12.158,12.158,0,0,1-.46,3.359,9.934,9.934,0,0,1-1.407,2.967,6.158,6.158,0,0,1-1.985,1.933l-.306-.887a6.315,6.315,0,0,0,1.945-2.881,12.461,12.461,0,0,0,.751-4.334v-.252a12.953,12.953,0,0,0-.346-3.069,10.305,10.305,0,0,0-.963-2.542,5.861,5.861,0,0,0-1.387-1.753l.306-.888a6.146,6.146,0,0,1,1.977,1.918,9.98,9.98,0,0,1,1.407,2.964A12.433,12.433,0,0,1,217.128,411.072Z" transform="translate(-154.866 -402.725)" fill="#fff"/>
            </g>
            <g id="Grupo_56680" data-name="Grupo 56680" transform="translate(215.302 202.907)" style="isolation: isolate">
              <path id="Trazado_103664" data-name="Trazado 103664" d="M322.906,407.379v4.032h-2.358V399.968h4.464a5.161,5.161,0,0,1,2.267.471,3.476,3.476,0,0,1,1.506,1.34,3.735,3.735,0,0,1,.526,1.976,3.284,3.284,0,0,1-1.151,2.653,4.794,4.794,0,0,1-3.187.971Zm0-1.91h2.106a2.072,2.072,0,0,0,1.427-.44,1.6,1.6,0,0,0,.491-1.258,1.889,1.889,0,0,0-.494-1.36,1.85,1.85,0,0,0-1.368-.534h-2.162Z" transform="translate(-320.548 -399.339)" fill="#042d25"/>
              <path id="Trazado_103665" data-name="Trazado 103665" d="M336.88,405.4a6.077,6.077,0,0,0-.818-.063,1.664,1.664,0,0,0-1.69.872v5.564H332.1v-8.5h2.145l.063,1.014a2.1,2.1,0,0,1,1.894-1.171,2.373,2.373,0,0,1,.708.1Z" transform="translate(-321.868 -399.698)" fill="#042d25"/>
              <path id="Trazado_103666" data-name="Trazado 103666" d="M342.6,411.926a4.175,4.175,0,0,1-3.046-1.147,4.08,4.08,0,0,1-1.174-3.058v-.22a5.136,5.136,0,0,1,.5-2.291,3.637,3.637,0,0,1,1.4-1.556,3.936,3.936,0,0,1,2.071-.546,3.529,3.529,0,0,1,2.747,1.1,4.471,4.471,0,0,1,1,3.12v.927h-5.415a2.1,2.1,0,0,0,.664,1.336,2.005,2.005,0,0,0,1.4.5,2.451,2.451,0,0,0,2.051-.951l1.117,1.25a3.416,3.416,0,0,1-1.384,1.128A4.547,4.547,0,0,1,342.6,411.926Zm-.26-6.987a1.419,1.419,0,0,0-1.1.458,2.378,2.378,0,0,0-.539,1.311h3.16v-.182a1.7,1.7,0,0,0-.409-1.173A1.465,1.465,0,0,0,342.345,404.94Z" transform="translate(-322.586 -399.698)" fill="#042d25"/>
              <path id="Trazado_103667" data-name="Trazado 103667" d="M350.965,411.329h-2.279V399.258h2.279Z" transform="translate(-323.764 -399.258)" fill="#042d25"/>
              <path id="Trazado_103668" data-name="Trazado 103668" d="M353.495,404.2a1.14,1.14,0,0,1,.366-.88,1.3,1.3,0,0,1,.915-.337,1.309,1.309,0,0,1,.924.337,1.143,1.143,0,0,1,.366.88,1.128,1.128,0,0,1-.362.868,1.441,1.441,0,0,1-1.847,0A1.127,1.127,0,0,1,353.495,404.2Zm0,6.437a1.141,1.141,0,0,1,.366-.88,1.3,1.3,0,0,1,.915-.337,1.309,1.309,0,0,1,.924.337,1.144,1.144,0,0,1,.366.88,1.129,1.129,0,0,1-.362.869,1.444,1.444,0,0,1-1.847,0A1.129,1.129,0,0,1,353.495,410.639Z" transform="translate(-324.313 -399.684)" fill="#042d25"/>
            </g>
            <g id="Grupo_56681" data-name="Grupo 56681" transform="translate(261.641 202.907)" style="isolation: isolate">
              <path id="Trazado_103669" data-name="Trazado 103669" d="M374.374,406.931v4.48h-1.508V399.968h4.22a4.241,4.241,0,0,1,2.943.958,3.252,3.252,0,0,1,1.065,2.538,3.209,3.209,0,0,1-1.041,2.566,4.435,4.435,0,0,1-2.983.9Zm0-1.234h2.712a2.714,2.714,0,0,0,1.855-.57,2.09,2.09,0,0,0,.645-1.65,2.155,2.155,0,0,0-.645-1.637,2.534,2.534,0,0,0-1.768-.638h-2.8Z" transform="translate(-372.866 -399.339)" fill="#fff"/>
              <path id="Trazado_103670" data-name="Trazado 103670" d="M388.183,404.57a4.388,4.388,0,0,0-.715-.055,1.917,1.917,0,0,0-1.942,1.218v6.036h-1.453v-8.5h1.415l.024.982a2.264,2.264,0,0,1,2.027-1.139,1.479,1.479,0,0,1,.644.11Z" transform="translate(-374.147 -399.698)" fill="#fff"/>
              <path id="Trazado_103671" data-name="Trazado 103671" d="M393.7,411.926a3.715,3.715,0,0,1-2.814-1.135,4.216,4.216,0,0,1-1.084-3.037v-.267a5.1,5.1,0,0,1,.484-2.259,3.765,3.765,0,0,1,1.352-1.556,3.4,3.4,0,0,1,1.882-.562A3.184,3.184,0,0,1,396.1,404.2a4.726,4.726,0,0,1,.919,3.128v.6h-5.761a3.024,3.024,0,0,0,.735,2.031,2.307,2.307,0,0,0,1.787.774,2.542,2.542,0,0,0,1.306-.314,3.269,3.269,0,0,0,.934-.833l.888.692A3.569,3.569,0,0,1,393.7,411.926Zm-.181-7.623a1.938,1.938,0,0,0-1.477.64,3.112,3.112,0,0,0-.739,1.8h4.259v-.11a2.771,2.771,0,0,0-.6-1.717A1.826,1.826,0,0,0,393.522,404.3Z" transform="translate(-374.802 -399.698)" fill="#fff"/>
              <path id="Trazado_103672" data-name="Trazado 103672" d="M404.755,409.515a1.073,1.073,0,0,0-.444-.917,4.292,4.292,0,0,0-1.548-.562,7.282,7.282,0,0,1-1.753-.566,2.484,2.484,0,0,1-.958-.786,1.877,1.877,0,0,1-.311-1.084,2.207,2.207,0,0,1,.884-1.769,3.458,3.458,0,0,1,2.26-.723,3.556,3.556,0,0,1,2.345.746,2.373,2.373,0,0,1,.9,1.911h-1.461a1.312,1.312,0,0,0-.507-1.029,1.9,1.9,0,0,0-1.277-.433,1.993,1.993,0,0,0-1.243.346,1.087,1.087,0,0,0-.447.9.883.883,0,0,0,.416.794,5.1,5.1,0,0,0,1.5.511,7.859,7.859,0,0,1,1.765.582,2.578,2.578,0,0,1,1,.813,2,2,0,0,1,.326,1.159,2.177,2.177,0,0,1-.911,1.827,3.824,3.824,0,0,1-2.366.687,4.283,4.283,0,0,1-1.808-.361,2.942,2.942,0,0,1-1.23-1.01,2.435,2.435,0,0,1-.444-1.4H400.9a1.507,1.507,0,0,0,.585,1.159,2.278,2.278,0,0,0,1.443.428,2.341,2.341,0,0,0,1.324-.334A1.024,1.024,0,0,0,404.755,409.515Z" transform="translate(-375.904 -399.698)" fill="#fff"/>
              <path id="Trazado_103673" data-name="Trazado 103673" d="M409.228,400.631a.871.871,0,0,1,.216-.6.813.813,0,0,1,.64-.244.826.826,0,0,1,.645.244.861.861,0,0,1,.22.6.9.9,0,0,1-1.5.59A.842.842,0,0,1,409.228,400.631Zm1.572,10.76h-1.454v-8.5H410.8Z" transform="translate(-377.021 -399.319)" fill="#fff"/>
              <path id="Trazado_103674" data-name="Trazado 103674" d="M413.2,407a5.018,5.018,0,0,1,.491-2.248,3.664,3.664,0,0,1,1.368-1.54,3.726,3.726,0,0,1,2-.542,3.587,3.587,0,0,1,2.81,1.2,4.629,4.629,0,0,1,1.073,3.2v.1a5.067,5.067,0,0,1-.476,2.229,3.608,3.608,0,0,1-1.36,1.536,3.759,3.759,0,0,1-2.032.55,3.576,3.576,0,0,1-2.8-1.2A4.606,4.606,0,0,1,413.2,407.1Zm1.461.173a3.639,3.639,0,0,0,.656,2.272,2.225,2.225,0,0,0,3.517-.012,3.976,3.976,0,0,0,.653-2.432,3.632,3.632,0,0,0-.664-2.267,2.113,2.113,0,0,0-1.765-.869,2.088,2.088,0,0,0-1.737.857A3.953,3.953,0,0,0,414.656,407.172Zm3.058-7.914h1.76l-2.106,2.31-1.17,0Z" transform="translate(-377.475 -399.258)" fill="#fff"/>
              <path id="Trazado_103675" data-name="Trazado 103675" d="M425.368,403.266l.047,1.069a3.1,3.1,0,0,1,2.546-1.226q2.7,0,2.719,3.042v5.619h-1.454v-5.627a1.956,1.956,0,0,0-.421-1.36,1.681,1.681,0,0,0-1.284-.44,2.107,2.107,0,0,0-1.243.376,2.563,2.563,0,0,0-.833.991v6.059h-1.454v-8.5Z" transform="translate(-378.709 -399.698)" fill="#fff"/>
              <path id="Trazado_103676" data-name="Trazado 103676" d="M442.63,404.57a4.4,4.4,0,0,0-.715-.055,1.915,1.915,0,0,0-1.941,1.218v6.036h-1.454v-8.5h1.414l.024.982a2.264,2.264,0,0,1,2.027-1.139,1.484,1.484,0,0,1,.645.11Z" transform="translate(-380.369 -399.698)" fill="#fff"/>
              <path id="Trazado_103677" data-name="Trazado 103677" d="M448.149,411.926a3.714,3.714,0,0,1-2.813-1.135,4.213,4.213,0,0,1-1.085-3.037v-.267a5.1,5.1,0,0,1,.484-2.259,3.772,3.772,0,0,1,1.352-1.556,3.4,3.4,0,0,1,1.882-.562,3.183,3.183,0,0,1,2.578,1.092,4.727,4.727,0,0,1,.92,3.128v.6h-5.761a3.019,3.019,0,0,0,.734,2.031,2.309,2.309,0,0,0,1.788.774,2.539,2.539,0,0,0,1.3-.314,3.283,3.283,0,0,0,.935-.833l.888.692A3.571,3.571,0,0,1,448.149,411.926Zm-.181-7.623a1.94,1.94,0,0,0-1.477.64,3.113,3.113,0,0,0-.739,1.8h4.259v-.11a2.771,2.771,0,0,0-.6-1.717A1.829,1.829,0,0,0,447.968,404.3Z" transform="translate(-381.024 -399.698)" fill="#fff"/>
              <path id="Trazado_103678" data-name="Trazado 103678" d="M455.891,411.329h-1.453V399.258h1.453Z" transform="translate(-382.188 -399.258)" fill="#fff"/>
              <path id="Trazado_103679" data-name="Trazado 103679" d="M463.924,411.77a3.038,3.038,0,0,1-.2-.9,3.243,3.243,0,0,1-2.421,1.053,3,3,0,0,1-2.063-.711,2.3,2.3,0,0,1-.805-1.8,2.4,2.4,0,0,1,1.01-2.063,4.76,4.76,0,0,1,2.841-.735H463.7v-.668a1.633,1.633,0,0,0-.456-1.214,1.832,1.832,0,0,0-1.344-.452,2.123,2.123,0,0,0-1.3.392,1.158,1.158,0,0,0-.527.951H458.6a2.009,2.009,0,0,1,.452-1.23,3.089,3.089,0,0,1,1.226-.939,4.13,4.13,0,0,1,1.7-.345,3.363,3.363,0,0,1,2.3.734,2.649,2.649,0,0,1,.864,2.024v3.914a4.763,4.763,0,0,0,.3,1.863v.126Zm-2.413-1.108a2.557,2.557,0,0,0,1.3-.353,2.143,2.143,0,0,0,.888-.92v-1.745h-1.14q-2.672,0-2.672,1.564a1.324,1.324,0,0,0,.456,1.069A1.751,1.751,0,0,0,461.512,410.662Z" transform="translate(-382.644 -399.698)" fill="#fff"/>
              <path id="Trazado_103680" data-name="Trazado 103680" d="M470.43,400.961v2.059h1.588v1.124H470.43v5.28a1.186,1.186,0,0,0,.213.768.9.9,0,0,0,.724.255,3.51,3.51,0,0,0,.691-.094v1.172a4.213,4.213,0,0,1-1.115.156,1.811,1.811,0,0,1-1.47-.589,2.531,2.531,0,0,1-.5-1.674v-5.274h-1.548V403.02h1.548v-2.059Z" transform="translate(-383.672 -399.453)" fill="#fff"/>
              <path id="Trazado_103681" data-name="Trazado 103681" d="M474.535,400.631a.871.871,0,0,1,.216-.6.813.813,0,0,1,.64-.244.826.826,0,0,1,.645.244.858.858,0,0,1,.221.6.83.83,0,0,1-.221.59.841.841,0,0,1-.645.236.828.828,0,0,1-.64-.236A.843.843,0,0,1,474.535,400.631Zm1.572,10.76h-1.453v-8.5h1.453Z" transform="translate(-384.484 -399.319)" fill="#fff"/>
              <path id="Trazado_103682" data-name="Trazado 103682" d="M481.634,409.817l2.105-6.531h1.485l-3.049,8.5h-1.109l-3.081-8.5h1.485Z" transform="translate(-384.879 -399.718)" fill="#fff"/>
              <path id="Trazado_103683" data-name="Trazado 103683" d="M492.824,411.77a3.038,3.038,0,0,1-.2-.9,3.243,3.243,0,0,1-2.421,1.053,3,3,0,0,1-2.063-.711,2.3,2.3,0,0,1-.805-1.8,2.4,2.4,0,0,1,1.01-2.063,4.76,4.76,0,0,1,2.841-.735H492.6v-.668a1.632,1.632,0,0,0-.455-1.214,1.832,1.832,0,0,0-1.344-.452,2.123,2.123,0,0,0-1.3.392,1.158,1.158,0,0,0-.527.951H487.5a2.009,2.009,0,0,1,.452-1.23,3.083,3.083,0,0,1,1.226-.939,4.13,4.13,0,0,1,1.7-.345,3.363,3.363,0,0,1,2.3.734,2.649,2.649,0,0,1,.864,2.024v3.914a4.78,4.78,0,0,0,.3,1.863v.126Zm-2.413-1.108a2.557,2.557,0,0,0,1.3-.353,2.145,2.145,0,0,0,.888-.92v-1.745h-1.139q-2.672,0-2.672,1.564a1.324,1.324,0,0,0,.456,1.069A1.751,1.751,0,0,0,490.412,410.662Z" transform="translate(-385.947 -399.698)" fill="#fff"/>
              <path id="Trazado_103684" data-name="Trazado 103684" d="M497.526,411.912a.91.91,0,0,1,.224-.629.853.853,0,0,1,.671-.252.88.88,0,0,1,.68.252.891.891,0,0,1,.231.629.843.843,0,0,1-.231.606.9.9,0,0,1-.68.244.808.808,0,0,1-.9-.849Z" transform="translate(-387.112 -400.603)" fill="#fff"/>
            </g>
            <g id="Grupo_56682" data-name="Grupo 56682" transform="translate(215.302 226.251)" style="isolation: isolate">
              <path id="Trazado_103685" data-name="Trazado 103685" d="M322.906,433.026v4.032h-2.358V425.614h4.464a5.16,5.16,0,0,1,2.267.472,3.476,3.476,0,0,1,1.506,1.34,3.735,3.735,0,0,1,.526,1.976,3.286,3.286,0,0,1-1.151,2.653,4.794,4.794,0,0,1-3.187.971Zm0-1.91h2.106a2.072,2.072,0,0,0,1.427-.44,1.6,1.6,0,0,0,.491-1.258,1.889,1.889,0,0,0-.494-1.36,1.85,1.85,0,0,0-1.368-.534h-2.162Z" transform="translate(-320.548 -425.614)" fill="#042d25"/>
              <path id="Trazado_103686" data-name="Trazado 103686" d="M336.888,437.417a2.53,2.53,0,0,1-.228-.763,2.749,2.749,0,0,1-2.145.919,3.019,3.019,0,0,1-2.071-.723,2.325,2.325,0,0,1-.821-1.823,2.4,2.4,0,0,1,1-2.075,4.945,4.945,0,0,1,2.9-.731h1.046v-.488a1.4,1.4,0,0,0-.3-.942,1.188,1.188,0,0,0-.955-.353,1.352,1.352,0,0,0-.9.275.936.936,0,0,0-.326.755h-2.272a2.282,2.282,0,0,1,.456-1.368,3.014,3.014,0,0,1,1.289-.987,4.7,4.7,0,0,1,1.871-.357,3.713,3.713,0,0,1,2.5.789,2.765,2.765,0,0,1,.924,2.221v3.686a4.057,4.057,0,0,0,.338,1.831v.134Zm-1.878-1.58a1.955,1.955,0,0,0,.927-.224,1.465,1.465,0,0,0,.629-.6v-1.462h-.849q-1.706,0-1.816,1.179l-.008.134a.91.91,0,0,0,.3.7A1.16,1.16,0,0,0,335.01,435.836Z" transform="translate(-321.814 -425.973)" fill="#042d25"/>
              <path id="Trazado_103687" data-name="Trazado 103687" d="M344.364,426.573v2.09h1.454v1.666h-1.454v4.244a1.014,1.014,0,0,0,.181.676.907.907,0,0,0,.692.2,3.582,3.582,0,0,0,.668-.055v1.722a4.7,4.7,0,0,1-1.376.2,2.169,2.169,0,0,1-2.437-2.412v-4.583h-1.241v-1.666h1.241v-2.09Z" transform="translate(-322.868 -425.724)" fill="#042d25"/>
              <path id="Trazado_103688" data-name="Trazado 103688" d="M350.017,428.913l.07.951a2.988,2.988,0,0,1,2.445-1.108,2.269,2.269,0,0,1,2.256,1.3,2.918,2.918,0,0,1,2.554-1.3,2.536,2.536,0,0,1,2.058.805,3.7,3.7,0,0,1,.676,2.425v5.43H357.8v-5.423a1.618,1.618,0,0,0-.283-1.057,1.254,1.254,0,0,0-1-.334,1.418,1.418,0,0,0-1.415.974l.009,5.84h-2.272V432a1.6,1.6,0,0,0-.291-1.068,1.262,1.262,0,0,0-.989-.33,1.471,1.471,0,0,0-1.4.8v6.012h-2.271v-8.5Z" transform="translate(-323.672 -425.973)" fill="#042d25"/>
              <path id="Trazado_103689" data-name="Trazado 103689" d="M363.744,429.85a1.142,1.142,0,0,1,.365-.88,1.421,1.421,0,0,1,1.839,0,1.143,1.143,0,0,1,.366.88,1.127,1.127,0,0,1-.361.868,1.445,1.445,0,0,1-1.848,0A1.126,1.126,0,0,1,363.744,429.85Zm0,6.437a1.143,1.143,0,0,1,.365-.88,1.421,1.421,0,0,1,1.839,0,1.144,1.144,0,0,1,.366.88,1.13,1.13,0,0,1-.361.869,1.445,1.445,0,0,1-1.848,0A1.13,1.13,0,0,1,363.744,436.286Z" transform="translate(-325.484 -425.959)" fill="#042d25"/>
            </g>
            <g id="Grupo_56683" data-name="Grupo 56683" transform="translate(261.641 225.457)" style="isolation: isolate">
              <path id="Trazado_103690" data-name="Trazado 103690" d="M374.374,432.578v4.48h-1.508V425.614h4.22a4.241,4.241,0,0,1,2.943.959,3.252,3.252,0,0,1,1.065,2.538,3.209,3.209,0,0,1-1.041,2.566,4.435,4.435,0,0,1-2.983.9Zm0-1.234h2.712a2.714,2.714,0,0,0,1.855-.57,2.09,2.09,0,0,0,.645-1.65,2.155,2.155,0,0,0-.645-1.637,2.534,2.534,0,0,0-1.768-.638h-2.8Z" transform="translate(-372.866 -424.82)" fill="#fff"/>
              <path id="Trazado_103691" data-name="Trazado 103691" d="M388.183,430.217a4.3,4.3,0,0,0-.715-.055,1.917,1.917,0,0,0-1.942,1.218v6.036h-1.453v-8.5h1.415l.024.982a2.264,2.264,0,0,1,2.027-1.139,1.48,1.48,0,0,1,.644.11Z" transform="translate(-374.147 -425.179)" fill="#fff"/>
              <path id="Trazado_103692" data-name="Trazado 103692" d="M393.7,437.573a3.715,3.715,0,0,1-2.814-1.136A4.216,4.216,0,0,1,389.8,433.4v-.267a5.1,5.1,0,0,1,.484-2.259,3.764,3.764,0,0,1,1.352-1.556,3.4,3.4,0,0,1,1.882-.562,3.184,3.184,0,0,1,2.577,1.092,4.726,4.726,0,0,1,.919,3.128v.6h-5.761a3.024,3.024,0,0,0,.735,2.031,2.307,2.307,0,0,0,1.787.774,2.542,2.542,0,0,0,1.306-.314,3.268,3.268,0,0,0,.934-.833l.888.692A3.57,3.57,0,0,1,393.7,437.573Zm-.181-7.623a1.938,1.938,0,0,0-1.477.64,3.113,3.113,0,0,0-.739,1.8h4.259v-.11a2.771,2.771,0,0,0-.6-1.717A1.826,1.826,0,0,0,393.522,429.95Z" transform="translate(-374.802 -425.179)" fill="#fff"/>
              <path id="Trazado_103693" data-name="Trazado 103693" d="M404.755,435.162a1.073,1.073,0,0,0-.444-.917,4.292,4.292,0,0,0-1.548-.562,7.283,7.283,0,0,1-1.753-.566,2.484,2.484,0,0,1-.958-.786,1.877,1.877,0,0,1-.311-1.084,2.207,2.207,0,0,1,.884-1.769,3.458,3.458,0,0,1,2.26-.723,3.556,3.556,0,0,1,2.345.746,2.373,2.373,0,0,1,.9,1.91h-1.461a1.312,1.312,0,0,0-.507-1.029,1.9,1.9,0,0,0-1.277-.433,1.993,1.993,0,0,0-1.243.346,1.087,1.087,0,0,0-.447.9.883.883,0,0,0,.416.794,5.1,5.1,0,0,0,1.5.511,7.857,7.857,0,0,1,1.765.582,2.577,2.577,0,0,1,1,.813,2,2,0,0,1,.326,1.159,2.177,2.177,0,0,1-.911,1.827,3.824,3.824,0,0,1-2.366.687,4.282,4.282,0,0,1-1.808-.361,2.941,2.941,0,0,1-1.23-1.01,2.435,2.435,0,0,1-.444-1.4H400.9a1.507,1.507,0,0,0,.585,1.159,2.278,2.278,0,0,0,1.443.428,2.341,2.341,0,0,0,1.324-.334A1.024,1.024,0,0,0,404.755,435.162Z" transform="translate(-375.904 -425.179)" fill="#fff"/>
              <path id="Trazado_103694" data-name="Trazado 103694" d="M409.228,426.278a.871.871,0,0,1,.216-.6.813.813,0,0,1,.64-.244.826.826,0,0,1,.645.244.861.861,0,0,1,.22.6.9.9,0,0,1-1.5.59A.843.843,0,0,1,409.228,426.278Zm1.572,10.76h-1.454v-8.5H410.8Z" transform="translate(-377.021 -424.8)" fill="#fff"/>
              <path id="Trazado_103695" data-name="Trazado 103695" d="M413.2,432.646a5.018,5.018,0,0,1,.491-2.248,3.663,3.663,0,0,1,1.368-1.54,3.726,3.726,0,0,1,2-.542,3.587,3.587,0,0,1,2.81,1.2,4.629,4.629,0,0,1,1.073,3.2v.1a5.067,5.067,0,0,1-.476,2.228,3.613,3.613,0,0,1-1.36,1.536,3.759,3.759,0,0,1-2.032.55,3.576,3.576,0,0,1-2.8-1.2,4.606,4.606,0,0,1-1.073-3.183Zm1.461.173a3.641,3.641,0,0,0,.656,2.272,2.225,2.225,0,0,0,3.517-.012,3.976,3.976,0,0,0,.653-2.432,3.632,3.632,0,0,0-.664-2.267,2.113,2.113,0,0,0-1.765-.869,2.089,2.089,0,0,0-1.737.857A3.953,3.953,0,0,0,414.656,432.819Zm3.058-7.914h1.76l-2.106,2.31-1.17,0Z" transform="translate(-377.475 -424.739)" fill="#fff"/>
              <path id="Trazado_103696" data-name="Trazado 103696" d="M425.368,428.913l.047,1.069a3.1,3.1,0,0,1,2.546-1.226q2.7,0,2.719,3.042v5.619h-1.454V431.79a1.956,1.956,0,0,0-.421-1.36,1.681,1.681,0,0,0-1.284-.44,2.106,2.106,0,0,0-1.243.376,2.562,2.562,0,0,0-.833.991v6.059h-1.454v-8.5Z" transform="translate(-378.709 -425.179)" fill="#fff"/>
              <path id="Trazado_103697" data-name="Trazado 103697" d="M443.737,437.417a3.073,3.073,0,0,1-.2-.9,3.243,3.243,0,0,1-2.421,1.053,3,3,0,0,1-2.064-.711,2.3,2.3,0,0,1-.805-1.8,2.4,2.4,0,0,1,1.01-2.063,4.757,4.757,0,0,1,2.841-.735h1.415v-.668a1.63,1.63,0,0,0-.456-1.214,1.83,1.83,0,0,0-1.344-.452,2.125,2.125,0,0,0-1.3.392,1.159,1.159,0,0,0-.526.951h-1.462a2,2,0,0,1,.453-1.23,3.083,3.083,0,0,1,1.226-.939,4.129,4.129,0,0,1,1.7-.345,3.363,3.363,0,0,1,2.3.734,2.655,2.655,0,0,1,.864,2.024v3.914a4.782,4.782,0,0,0,.3,1.863v.126Zm-2.413-1.108a2.56,2.56,0,0,0,1.3-.353,2.145,2.145,0,0,0,.887-.92V433.29h-1.14q-2.672,0-2.671,1.564a1.324,1.324,0,0,0,.455,1.069A1.752,1.752,0,0,0,441.324,436.309Z" transform="translate(-380.337 -425.179)" fill="#fff"/>
              <path id="Trazado_103698" data-name="Trazado 103698" d="M450.244,426.608v2.059h1.587v1.124h-1.587v5.28a1.18,1.18,0,0,0,.213.768.892.892,0,0,0,.723.255,3.515,3.515,0,0,0,.692-.094v1.172a4.222,4.222,0,0,1-1.116.156,1.813,1.813,0,0,1-1.47-.589,2.536,2.536,0,0,1-.494-1.674v-5.274h-1.548v-1.124h1.548v-2.059Z" transform="translate(-381.365 -424.934)" fill="#fff"/>
              <path id="Trazado_103699" data-name="Trazado 103699" d="M455.706,428.913l.039.943a3.141,3.141,0,0,1,2.523-1.1,2.432,2.432,0,0,1,2.43,1.368,3.221,3.221,0,0,1,1.1-.991,3.27,3.27,0,0,1,1.608-.376q2.8,0,2.845,2.963v5.7H464.8V431.8a1.954,1.954,0,0,0-.416-1.363,1.835,1.835,0,0,0-1.4-.452,1.927,1.927,0,0,0-1.345.484,1.959,1.959,0,0,0-.621,1.3v5.643h-1.461v-5.572a1.623,1.623,0,0,0-1.816-1.855,1.945,1.945,0,0,0-1.957,1.218v6.209h-1.454v-8.5Z" transform="translate(-382.175 -425.179)" fill="#fff"/>
              <path id="Trazado_103700" data-name="Trazado 103700" d="M469.833,433.086a5.03,5.03,0,0,1,.491-2.248,3.669,3.669,0,0,1,1.368-1.54,3.726,3.726,0,0,1,2-.542,3.587,3.587,0,0,1,2.81,1.2,4.629,4.629,0,0,1,1.073,3.2v.1a5.067,5.067,0,0,1-.476,2.228,3.608,3.608,0,0,1-1.36,1.536,3.758,3.758,0,0,1-2.031.55,3.578,3.578,0,0,1-2.8-1.2,4.606,4.606,0,0,1-1.073-3.183Zm1.461.173a3.641,3.641,0,0,0,.656,2.272,2.225,2.225,0,0,0,3.517-.012,3.977,3.977,0,0,0,.653-2.432,3.632,3.632,0,0,0-.664-2.267,2.112,2.112,0,0,0-1.765-.869,2.087,2.087,0,0,0-1.736.857A3.947,3.947,0,0,0,471.294,433.259Z" transform="translate(-383.947 -425.179)" fill="#fff"/>
              <path id="Trazado_103701" data-name="Trazado 103701" d="M485.537,435.162a1.074,1.074,0,0,0-.445-.917,4.291,4.291,0,0,0-1.548-.562,7.261,7.261,0,0,1-1.752-.566,2.487,2.487,0,0,1-.959-.786,1.876,1.876,0,0,1-.31-1.084,2.2,2.2,0,0,1,.884-1.769,3.453,3.453,0,0,1,2.259-.723,3.556,3.556,0,0,1,2.345.746,2.37,2.37,0,0,1,.9,1.91h-1.461a1.312,1.312,0,0,0-.507-1.029,1.9,1.9,0,0,0-1.277-.433,1.988,1.988,0,0,0-1.242.346,1.088,1.088,0,0,0-.448.9.883.883,0,0,0,.416.794,5.1,5.1,0,0,0,1.506.511,7.85,7.85,0,0,1,1.764.582,2.57,2.57,0,0,1,1,.813,2,2,0,0,1,.326,1.159,2.177,2.177,0,0,1-.911,1.827,3.822,3.822,0,0,1-2.366.687,4.282,4.282,0,0,1-1.808-.361,2.941,2.941,0,0,1-1.23-1.01,2.435,2.435,0,0,1-.444-1.4h1.454a1.5,1.5,0,0,0,.585,1.159,2.273,2.273,0,0,0,1.442.428,2.341,2.341,0,0,0,1.324-.334A1.025,1.025,0,0,0,485.537,435.162Z" transform="translate(-385.135 -425.179)" fill="#fff"/>
              <path id="Trazado_103702" data-name="Trazado 103702" d="M490.636,436.955v-7.38h-1.344v-1.124h1.344v-.872a2.9,2.9,0,0,1,.731-2.114,2.762,2.762,0,0,1,2.067-.747,3.84,3.84,0,0,1,1,.133l-.079,1.172a4.194,4.194,0,0,0-.786-.07,1.418,1.418,0,0,0-1.093.414,1.676,1.676,0,0,0-.384,1.186v.9h1.816v1.124H492.09v7.38Z" transform="translate(-386.171 -424.718)" fill="#fff"/>
              <path id="Trazado_103703" data-name="Trazado 103703" d="M499.792,437.133A3.715,3.715,0,0,1,496.978,436a4.216,4.216,0,0,1-1.084-3.037v-.268a5.112,5.112,0,0,1,.483-2.259,3.777,3.777,0,0,1,1.352-1.556,3.4,3.4,0,0,1,1.883-.562,3.185,3.185,0,0,1,2.578,1.092,4.731,4.731,0,0,1,.919,3.128v.6h-5.761a3.02,3.02,0,0,0,.735,2.031,2.307,2.307,0,0,0,1.787.774,2.537,2.537,0,0,0,1.3-.314,3.261,3.261,0,0,0,.935-.833l.888.692A3.571,3.571,0,0,1,499.792,437.133Zm-.181-7.623a1.941,1.941,0,0,0-1.478.64,3.124,3.124,0,0,0-.739,1.8h4.26v-.11a2.771,2.771,0,0,0-.6-1.717A1.826,1.826,0,0,0,499.611,429.51Zm.707-4.6h1.761l-2.106,2.31-1.171,0Z" transform="translate(-386.925 -424.739)" fill="#fff"/>
              <path id="Trazado_103704" data-name="Trazado 103704" d="M510.049,430.217a4.309,4.309,0,0,0-.715-.055,1.915,1.915,0,0,0-1.942,1.218v6.036h-1.454v-8.5h1.414l.024.982a2.264,2.264,0,0,1,2.027-1.139,1.487,1.487,0,0,1,.645.11Z" transform="translate(-388.073 -425.179)" fill="#fff"/>
              <path id="Trazado_103705" data-name="Trazado 103705" d="M512.1,426.278a.867.867,0,0,1,.216-.6.812.812,0,0,1,.64-.244.827.827,0,0,1,.645.244.862.862,0,0,1,.22.6.834.834,0,0,1-.22.59.843.843,0,0,1-.645.236.827.827,0,0,1-.64-.236A.839.839,0,0,1,512.1,426.278Zm1.572,10.76h-1.454v-8.5h1.454Z" transform="translate(-388.777 -424.8)" fill="#fff"/>
              <path id="Trazado_103706" data-name="Trazado 103706" d="M519.859,436.386a2.093,2.093,0,0,0,1.36-.471,1.656,1.656,0,0,0,.645-1.179h1.376a2.643,2.643,0,0,1-.5,1.391,3.321,3.321,0,0,1-1.238,1.053,3.577,3.577,0,0,1-1.639.392,3.5,3.5,0,0,1-2.763-1.159,4.618,4.618,0,0,1-1.026-3.172V433a5.12,5.12,0,0,1,.456-2.208,3.463,3.463,0,0,1,1.309-1.5,3.715,3.715,0,0,1,2.015-.534,3.407,3.407,0,0,1,2.377.857,3.062,3.062,0,0,1,1.011,2.224h-1.376a2.005,2.005,0,0,0-.625-1.356,1.945,1.945,0,0,0-1.387-.531,2.037,2.037,0,0,0-1.717.8,3.747,3.747,0,0,0-.608,2.306v.275a3.667,3.667,0,0,0,.6,2.263A2.043,2.043,0,0,0,519.859,436.386Z" transform="translate(-389.231 -425.179)" fill="#fff"/>
              <path id="Trazado_103707" data-name="Trazado 103707" d="M531.228,437.417a3.04,3.04,0,0,1-.2-.9,3.243,3.243,0,0,1-2.421,1.053,3,3,0,0,1-2.063-.711,2.3,2.3,0,0,1-.806-1.8,2.4,2.4,0,0,1,1.01-2.063,4.754,4.754,0,0,1,2.841-.735H531v-.668a1.633,1.633,0,0,0-.455-1.214,1.832,1.832,0,0,0-1.344-.452,2.128,2.128,0,0,0-1.306.392,1.159,1.159,0,0,0-.526.951h-1.461a2.009,2.009,0,0,1,.452-1.23,3.085,3.085,0,0,1,1.226-.939,4.13,4.13,0,0,1,1.7-.345,3.363,3.363,0,0,1,2.3.734,2.653,2.653,0,0,1,.864,2.024v3.914a4.783,4.783,0,0,0,.3,1.863v.126Zm-2.414-1.108a2.561,2.561,0,0,0,1.3-.353,2.145,2.145,0,0,0,.887-.92V433.29h-1.139q-2.673,0-2.672,1.564a1.321,1.321,0,0,0,.456,1.069A1.748,1.748,0,0,0,528.814,436.309Z" transform="translate(-390.335 -425.179)" fill="#fff"/>
              <path id="Trazado_103708" data-name="Trazado 103708" d="M535.93,437.559a.91.91,0,0,1,.224-.629.852.852,0,0,1,.671-.252.881.881,0,0,1,.68.252.9.9,0,0,1,.231.629.846.846,0,0,1-.231.606.9.9,0,0,1-.68.244.808.808,0,0,1-.9-.849Z" transform="translate(-391.5 -426.085)" fill="#fff"/>
            </g>
            <g id="Grupo_56684" data-name="Grupo 56684" transform="translate(215.302 114.153)">
              <path id="Trazado_103709" data-name="Trazado 103709" d="M322.906,307.175v4.032h-2.358V299.763h4.464a5.161,5.161,0,0,1,2.267.472,3.476,3.476,0,0,1,1.506,1.34,3.735,3.735,0,0,1,.526,1.976,3.286,3.286,0,0,1-1.151,2.653,4.794,4.794,0,0,1-3.187.971Zm0-1.91h2.106a2.072,2.072,0,0,0,1.427-.44,1.6,1.6,0,0,0,.491-1.258,1.888,1.888,0,0,0-.494-1.36,1.849,1.849,0,0,0-1.368-.534h-2.162Z" transform="translate(-320.548 -299.134)" fill="#042d25"/>
              <path id="Trazado_103710" data-name="Trazado 103710" d="M336.888,311.566a2.529,2.529,0,0,1-.228-.763,2.749,2.749,0,0,1-2.145.919,3.019,3.019,0,0,1-2.071-.723,2.325,2.325,0,0,1-.821-1.823,2.4,2.4,0,0,1,1-2.075,4.939,4.939,0,0,1,2.9-.731h1.046v-.488a1.4,1.4,0,0,0-.3-.942,1.188,1.188,0,0,0-.955-.354,1.353,1.353,0,0,0-.9.276.936.936,0,0,0-.326.755h-2.272a2.282,2.282,0,0,1,.456-1.368,3.006,3.006,0,0,1,1.289-.987,4.7,4.7,0,0,1,1.871-.357,3.713,3.713,0,0,1,2.5.789,2.765,2.765,0,0,1,.924,2.221V309.6a4.057,4.057,0,0,0,.338,1.831v.134Zm-1.878-1.58a1.954,1.954,0,0,0,.927-.224,1.465,1.465,0,0,0,.629-.6V307.7h-.849q-1.706,0-1.816,1.179l-.008.134a.909.909,0,0,0,.3.7A1.16,1.16,0,0,0,335.01,309.985Z" transform="translate(-321.814 -299.493)" fill="#042d25"/>
              <path id="Trazado_103711" data-name="Trazado 103711" d="M349.409,306.952a5.146,5.146,0,0,1-.872,3.187,2.889,2.889,0,0,1-2.436,1.143,2.654,2.654,0,0,1-2.209-1.061l-.1.9h-2.043V299.053h2.271v4.331a2.586,2.586,0,0,1,2.067-.919,2.913,2.913,0,0,1,2.44,1.143,5.156,5.156,0,0,1,.884,3.218Zm-2.271-.165a3.379,3.379,0,0,0-.409-1.882,1.381,1.381,0,0,0-1.218-.593,1.5,1.5,0,0,0-1.493.888v3.356a1.518,1.518,0,0,0,1.509.9,1.4,1.4,0,0,0,1.446-1.085A5.6,5.6,0,0,0,347.138,306.787Z" transform="translate(-322.97 -299.053)" fill="#042d25"/>
              <path id="Trazado_103712" data-name="Trazado 103712" d="M356.527,309.216a.73.73,0,0,0-.413-.656,4.692,4.692,0,0,0-1.324-.429q-3.033-.636-3.033-2.577a2.336,2.336,0,0,1,.939-1.89,3.788,3.788,0,0,1,2.456-.758,4.081,4.081,0,0,1,2.589.762,2.4,2.4,0,0,1,.971,1.98h-2.271a1.1,1.1,0,0,0-.314-.805,1.33,1.33,0,0,0-.982-.318,1.361,1.361,0,0,0-.888.259.821.821,0,0,0-.314.661.7.7,0,0,0,.358.608,3.682,3.682,0,0,0,1.206.4,9.81,9.81,0,0,1,1.43.381,2.351,2.351,0,0,1,1.8,2.287,2.22,2.22,0,0,1-1,1.883,4.308,4.308,0,0,1-2.578.718,4.493,4.493,0,0,1-1.9-.381,3.18,3.18,0,0,1-1.3-1.045,2.428,2.428,0,0,1-.471-1.434h2.153a1.181,1.181,0,0,0,.448.926,1.773,1.773,0,0,0,1.116.322,1.644,1.644,0,0,0,.986-.247A.77.77,0,0,0,356.527,309.216Z" transform="translate(-324.084 -299.493)" fill="#042d25"/>
              <path id="Trazado_103713" data-name="Trazado 103713" d="M373.094,305.824h-7.026v-1.855h7.026Zm0,3.4h-7.026v-1.855h7.026Z" transform="translate(-325.75 -299.615)" fill="#e94b46"/>
              <path id="Trazado_103714" data-name="Trazado 103714" d="M383.3,307.175v4.032h-2.359V299.763H385.4a5.166,5.166,0,0,1,2.267.472,3.479,3.479,0,0,1,1.5,1.34,3.736,3.736,0,0,1,.527,1.976,3.286,3.286,0,0,1-1.152,2.653,4.792,4.792,0,0,1-3.187.971Zm0-1.91H385.4a2.072,2.072,0,0,0,1.426-.44,1.6,1.6,0,0,0,.492-1.258,1.885,1.885,0,0,0-.5-1.36,1.849,1.849,0,0,0-1.368-.534H383.3Z" transform="translate(-327.449 -299.134)" fill="#042d25"/>
              <path id="Trazado_103715" data-name="Trazado 103715" d="M397.271,305.192a6.076,6.076,0,0,0-.818-.063,1.664,1.664,0,0,0-1.69.872v5.564h-2.271v-8.5h2.145l.063,1.014A2.1,2.1,0,0,1,396.6,302.9a2.372,2.372,0,0,1,.707.1Z" transform="translate(-328.77 -299.493)" fill="#042d25"/>
              <path id="Trazado_103716" data-name="Trazado 103716" d="M403,311.722a4.175,4.175,0,0,1-3.045-1.147,4.077,4.077,0,0,1-1.175-3.058V307.3a5.134,5.134,0,0,1,.5-2.29,3.637,3.637,0,0,1,1.4-1.556,3.936,3.936,0,0,1,2.071-.546,3.529,3.529,0,0,1,2.747,1.1,4.471,4.471,0,0,1,1,3.12v.927h-5.415a2.113,2.113,0,0,0,.664,1.336,2.006,2.006,0,0,0,1.4.5,2.451,2.451,0,0,0,2.05-.951l1.117,1.25a3.415,3.415,0,0,1-1.383,1.128A4.547,4.547,0,0,1,403,311.722Zm-.259-6.987a1.419,1.419,0,0,0-1.1.458,2.377,2.377,0,0,0-.539,1.31h3.16v-.182a1.69,1.69,0,0,0-.409-1.172A1.464,1.464,0,0,0,402.736,304.736Z" transform="translate(-329.488 -299.493)" fill="#042d25"/>
              <path id="Trazado_103717" data-name="Trazado 103717" d="M411.356,311.125h-2.279V299.053h2.279Z" transform="translate(-330.665 -299.053)" fill="#042d25"/>
              <path id="Trazado_103718" data-name="Trazado 103718" d="M422.814,305.055h2.838v2.051h-2.838v3.206h-2.161v-3.206h-2.845v-2.051h2.845v-3.073h2.161Z" transform="translate(-331.662 -299.388)" fill="#e94b46"/>
              <path id="Trazado_103719" data-name="Trazado 103719" d="M435.26,307.175v4.032H432.9V299.763h4.464a5.167,5.167,0,0,1,2.268.472,3.479,3.479,0,0,1,1.5,1.34,3.735,3.735,0,0,1,.526,1.976,3.286,3.286,0,0,1-1.151,2.653,4.794,4.794,0,0,1-3.187.971Zm0-1.91h2.105a2.072,2.072,0,0,0,1.427-.44,1.6,1.6,0,0,0,.491-1.258,1.888,1.888,0,0,0-.494-1.36,1.849,1.849,0,0,0-1.368-.534H435.26Z" transform="translate(-333.387 -299.134)" fill="#042d25"/>
              <path id="Trazado_103720" data-name="Trazado 103720" d="M449.241,311.566a2.531,2.531,0,0,1-.228-.763,2.749,2.749,0,0,1-2.145.919A3.019,3.019,0,0,1,444.8,311a2.325,2.325,0,0,1-.821-1.823,2.4,2.4,0,0,1,1-2.075,4.94,4.94,0,0,1,2.9-.731h1.045v-.488a1.4,1.4,0,0,0-.3-.942,1.188,1.188,0,0,0-.955-.354,1.353,1.353,0,0,0-.9.276.936.936,0,0,0-.326.755h-2.271a2.281,2.281,0,0,1,.455-1.368,3.006,3.006,0,0,1,1.289-.987,4.7,4.7,0,0,1,1.871-.357,3.713,3.713,0,0,1,2.5.789,2.765,2.765,0,0,1,.924,2.221V309.6a4.057,4.057,0,0,0,.338,1.831v.134Zm-1.878-1.58a1.954,1.954,0,0,0,.927-.224,1.465,1.465,0,0,0,.629-.6V307.7h-.848q-1.706,0-1.816,1.179l-.008.134a.91.91,0,0,0,.3.7A1.16,1.16,0,0,0,447.363,309.985Z" transform="translate(-334.653 -299.493)" fill="#042d25"/>
              <path id="Trazado_103721" data-name="Trazado 103721" d="M456.717,300.722v2.09h1.454v1.666h-1.454v4.244a1.014,1.014,0,0,0,.181.676.907.907,0,0,0,.692.2,3.576,3.576,0,0,0,.668-.055v1.722a4.7,4.7,0,0,1-1.376.2,2.168,2.168,0,0,1-2.436-2.413v-4.582H453.2v-1.666h1.242v-2.09Z" transform="translate(-335.707 -299.244)" fill="#042d25"/>
              <path id="Trazado_103722" data-name="Trazado 103722" d="M462.37,303.062l.07.95a2.99,2.99,0,0,1,2.445-1.107,2.269,2.269,0,0,1,2.256,1.3,2.918,2.918,0,0,1,2.554-1.3,2.535,2.535,0,0,1,2.058.805,3.7,3.7,0,0,1,.676,2.424v5.431H470.15v-5.423a1.617,1.617,0,0,0-.283-1.057,1.25,1.25,0,0,0-1-.334,1.418,1.418,0,0,0-1.414.974l.009,5.84h-2.272V306.15a1.6,1.6,0,0,0-.29-1.068,1.265,1.265,0,0,0-.99-.33,1.471,1.471,0,0,0-1.4.8v6.012H460.24v-8.5Z" transform="translate(-336.511 -299.493)" fill="#042d25"/>
            </g>
            <g id="Grupo_56685" data-name="Grupo 56685" transform="translate(60.869 50.475)">
              <path id="Trazado_103723" data-name="Trazado 103723" d="M155.456,248.469h-4.224V232.187l-5.042,1.563v-3.435L155,227.159h.453Z" transform="translate(-146.19 -227.159)" fill="#e94b46"/>
              <path id="Trazado_103724" data-name="Trazado 103724" d="M182.155,249.14a4.713,4.713,0,0,1-.424-1.417,5.11,5.11,0,0,1-3.989,1.71,5.614,5.614,0,0,1-3.852-1.345,4.325,4.325,0,0,1-1.527-3.391,4.47,4.47,0,0,1,1.864-3.859,9.2,9.2,0,0,1,5.386-1.359h1.944v-.906a2.611,2.611,0,0,0-.563-1.755,2.213,2.213,0,0,0-1.776-.657,2.52,2.52,0,0,0-1.673.511,1.74,1.74,0,0,0-.607,1.4h-4.224a4.247,4.247,0,0,1,.848-2.544,5.606,5.606,0,0,1,2.4-1.834,8.747,8.747,0,0,1,3.479-.665,6.9,6.9,0,0,1,4.64,1.469,5.142,5.142,0,0,1,1.717,4.129v6.855a7.562,7.562,0,0,0,.628,3.406v.248Zm-3.493-2.937a3.633,3.633,0,0,0,1.725-.417,2.735,2.735,0,0,0,1.17-1.118V241.95h-1.578q-3.173,0-3.376,2.192l-.015.248a1.692,1.692,0,0,0,.555,1.3A2.157,2.157,0,0,0,178.661,246.2Z" transform="translate(-149.181 -227.83)" fill="#042d25"/>
              <path id="Trazado_103725" data-name="Trazado 103725" d="M196.057,228.974v3.888h2.7v3.1h-2.7v7.893a1.884,1.884,0,0,0,.336,1.257,1.688,1.688,0,0,0,1.286.38,6.743,6.743,0,0,0,1.243-.1v3.2a8.7,8.7,0,0,1-2.558.381q-4.443,0-4.53-4.487v-8.522h-2.31v-3.1h2.31v-3.888Z" transform="translate(-151.142 -227.366)" fill="#042d25"/>
              <path id="Trazado_103726" data-name="Trazado 103726" d="M206.571,233.326l.131,1.768a5.558,5.558,0,0,1,4.546-2.061,4.218,4.218,0,0,1,4.195,2.413,5.429,5.429,0,0,1,4.75-2.413,4.717,4.717,0,0,1,3.83,1.5,6.888,6.888,0,0,1,1.257,4.509v10.1h-4.238V239.055a3.009,3.009,0,0,0-.527-1.965,2.329,2.329,0,0,0-1.856-.622,2.636,2.636,0,0,0-2.632,1.813l.014,10.859h-4.223V239.07a2.974,2.974,0,0,0-.541-1.988,2.351,2.351,0,0,0-1.841-.615,2.738,2.738,0,0,0-2.6,1.491V249.14h-4.224V233.326Z" transform="translate(-152.637 -227.83)" fill="#042d25"/>
            </g>
            <g id="Grupo_56686" data-name="Grupo 56686" transform="translate(60.869 175.681)">
              <path id="Trazado_103727" data-name="Trazado 103727" d="M155.456,389.829h-4.224V373.547l-5.042,1.564v-3.435L155,368.519h.453Z" transform="translate(-146.19 -368.519)" fill="#e94b46"/>
              <path id="Trazado_103728" data-name="Trazado 103728" d="M182.155,390.5a4.719,4.719,0,0,1-.424-1.418,5.11,5.11,0,0,1-3.989,1.71,5.618,5.618,0,0,1-3.852-1.345,4.326,4.326,0,0,1-1.527-3.391,4.468,4.468,0,0,1,1.864-3.858,9.2,9.2,0,0,1,5.386-1.36h1.944v-.906a2.608,2.608,0,0,0-.563-1.754,2.213,2.213,0,0,0-1.776-.657,2.515,2.515,0,0,0-1.673.511,1.736,1.736,0,0,0-.607,1.4h-4.224a4.243,4.243,0,0,1,.848-2.543,5.6,5.6,0,0,1,2.4-1.834,8.732,8.732,0,0,1,3.479-.665,6.905,6.905,0,0,1,4.64,1.469,5.142,5.142,0,0,1,1.717,4.129v6.855a7.56,7.56,0,0,0,.628,3.406v.249Zm-3.493-2.938a3.643,3.643,0,0,0,1.725-.416,2.745,2.745,0,0,0,1.17-1.118V383.31h-1.578q-3.173,0-3.376,2.192l-.015.249a1.689,1.689,0,0,0,.555,1.3A2.153,2.153,0,0,0,178.661,387.563Z" transform="translate(-149.181 -369.19)" fill="#fff"/>
              <path id="Trazado_103729" data-name="Trazado 103729" d="M196.057,370.335v3.887h2.7v3.1h-2.7v7.893a1.885,1.885,0,0,0,.336,1.257,1.685,1.685,0,0,0,1.286.381,6.74,6.74,0,0,0,1.243-.1v3.2a8.7,8.7,0,0,1-2.558.38q-4.443,0-4.53-4.487v-8.522h-2.31v-3.1h2.31v-3.887Z" transform="translate(-151.142 -368.727)" fill="#fff"/>
              <path id="Trazado_103730" data-name="Trazado 103730" d="M206.571,374.686l.131,1.768a5.56,5.56,0,0,1,4.546-2.06,4.217,4.217,0,0,1,4.195,2.412,5.429,5.429,0,0,1,4.75-2.412,4.72,4.72,0,0,1,3.83,1.5,6.888,6.888,0,0,1,1.257,4.509v10.1h-4.238V380.416a3.012,3.012,0,0,0-.527-1.966,2.332,2.332,0,0,0-1.856-.621,2.637,2.637,0,0,0-2.632,1.812l.014,10.86h-4.223V380.43a2.975,2.975,0,0,0-.541-1.988,2.354,2.354,0,0,0-1.841-.614,2.738,2.738,0,0,0-2.6,1.491V390.5h-4.224V374.686Z" transform="translate(-152.637 -369.19)" fill="#fff"/>
            </g>
            <g id="Grupo_56687" data-name="Grupo 56687" transform="translate(218.893 34.345)">
              <path id="Trazado_103731" data-name="Trazado 103731" d="M339.613,230.522H325.026v-2.895l6.884-7.336a16.959,16.959,0,0,0,2.1-2.7,4.341,4.341,0,0,0,.68-2.192,3.251,3.251,0,0,0-.717-2.229,2.583,2.583,0,0,0-2.046-.811,2.79,2.79,0,0,0-2.259.987,3.911,3.911,0,0,0-.826,2.594H324.6a6.982,6.982,0,0,1,.927-3.552,6.541,6.541,0,0,1,2.624-2.521,7.971,7.971,0,0,1,3.844-.914,7.548,7.548,0,0,1,5.109,1.579,5.584,5.584,0,0,1,1.819,4.457,7.156,7.156,0,0,1-.818,3.216,17.869,17.869,0,0,1-2.806,3.815l-4.838,5.1h9.15Z" transform="translate(-324.603 -208.948)" fill="#e94b46"/>
              <path id="Trazado_103732" data-name="Trazado 103732" d="M362.168,231.227a4.687,4.687,0,0,1-.423-1.418,5.113,5.113,0,0,1-3.99,1.71,5.614,5.614,0,0,1-3.851-1.345,4.324,4.324,0,0,1-1.528-3.391,4.468,4.468,0,0,1,1.864-3.858,9.2,9.2,0,0,1,5.386-1.36h1.944v-.906a2.6,2.6,0,0,0-.563-1.754,2.213,2.213,0,0,0-1.776-.657,2.515,2.515,0,0,0-1.673.511,1.736,1.736,0,0,0-.607,1.4h-4.224a4.243,4.243,0,0,1,.848-2.543,5.6,5.6,0,0,1,2.4-1.834,8.727,8.727,0,0,1,3.478-.665,6.9,6.9,0,0,1,4.64,1.469,5.136,5.136,0,0,1,1.717,4.128v6.855a7.558,7.558,0,0,0,.629,3.406v.249Zm-3.493-2.938a3.649,3.649,0,0,0,1.725-.416,2.748,2.748,0,0,0,1.169-1.118v-2.719H359.99q-3.173,0-3.376,2.192l-.015.249a1.689,1.689,0,0,0,.555,1.3A2.153,2.153,0,0,0,358.674,228.289Z" transform="translate(-327.777 -209.653)" fill="#042d25"/>
              <path id="Trazado_103733" data-name="Trazado 103733" d="M376.07,211.061v3.887h2.7v3.1h-2.7v7.893a1.884,1.884,0,0,0,.337,1.258,1.686,1.686,0,0,0,1.286.38,6.743,6.743,0,0,0,1.243-.1v3.2a8.7,8.7,0,0,1-2.559.38q-4.443,0-4.53-4.487v-8.522h-2.309v-3.1h2.309v-3.887Z" transform="translate(-329.738 -209.189)" fill="#042d25"/>
              <path id="Trazado_103734" data-name="Trazado 103734" d="M391.706,231.227a4.684,4.684,0,0,1-.423-1.418,5.113,5.113,0,0,1-3.99,1.71,5.614,5.614,0,0,1-3.851-1.345,4.324,4.324,0,0,1-1.528-3.391,4.468,4.468,0,0,1,1.864-3.858,9.2,9.2,0,0,1,5.386-1.36h1.944v-.906a2.6,2.6,0,0,0-.563-1.754,2.213,2.213,0,0,0-1.776-.657,2.515,2.515,0,0,0-1.673.511,1.737,1.737,0,0,0-.607,1.4h-4.224a4.243,4.243,0,0,1,.848-2.543,5.6,5.6,0,0,1,2.4-1.834,8.727,8.727,0,0,1,3.478-.665,6.9,6.9,0,0,1,4.64,1.469,5.136,5.136,0,0,1,1.717,4.128v6.855a7.558,7.558,0,0,0,.629,3.406v.249Zm-3.493-2.938a3.646,3.646,0,0,0,1.725-.416,2.748,2.748,0,0,0,1.169-1.118v-2.719h-1.578q-3.173,0-3.376,2.192l-.015.249a1.689,1.689,0,0,0,.555,1.3A2.153,2.153,0,0,0,388.212,228.289Z" transform="translate(-331.152 -209.653)" fill="#042d25"/>
            </g>
          </g>
        </g>
      </g>
      <rect id="Rectángulo_5767" data-name="Rectángulo 5767" width="439.733" height="467.719" rx="44.365" transform="translate(77.468 170.172)" fill="none" stroke="#6bb2a4" stroke-miterlimit="10" stroke-width="2"/>
    </g>
  </g>
</svg>
